<svg width="242" height="168" viewBox="0 0 242 168" fill="none" xmlns="http://www.w3.org/2000/svg">
<rect width="242" height="168" rx="16" fill="white"/>
<rect x="0.5" y="0.5" width="241" height="167" rx="15.5" stroke="#9DA8B9" stroke-opacity="0.4"/>
<g clip-path="url(#clip0_2028_6467)">
<path d="M152.005 46.4977H153.502V77.6348H152.284C152.284 77.6348 147.248 64.9555 142.639 59.6925C138.03 54.4295 132.355 48.865 121.673 48.1215C110.992 47.378 99.4571 50 94.9263 64.516C90.3954 79.032 90.7463 95.8178 98.0385 106.777C105.331 117.736 115.655 120.666 127.932 118.85C140.208 117.033 152.22 106.493 154.532 94.5017C155.279 94.4891 155.393 94.5017 155.393 94.5017C155.393 94.5017 154.506 106.888 139.609 115.708C124.712 124.528 91.7785 124.094 73.897 114.29C56.0155 104.486 52.3512 89.9696 53.0922 80.7065C53.8332 71.4433 63.6433 47.7655 108.284 46.0391C116.507 45.6061 124.72 47.0597 132.294 50.2887C141.999 54.342 144.141 55.5681 148.137 53.9975C152.134 52.4268 152.005 46.4977 152.005 46.4977Z" fill="#9DA8B9"/>
<path d="M171.549 111.592H173.813C173.749 110.875 173.539 110.179 173.195 109.546C172.884 108.988 172.459 108.501 171.948 108.117C171.422 107.731 170.828 107.447 170.197 107.281C169.505 107.097 168.791 107.006 168.074 107.012C167.127 106.991 166.186 107.18 165.32 107.565C164.557 107.915 163.883 108.435 163.352 109.085C162.815 109.755 162.417 110.525 162.182 111.35C161.921 112.256 161.793 113.194 161.802 114.137C161.79 115.065 161.922 115.99 162.194 116.878C162.436 117.669 162.84 118.402 163.379 119.031C163.913 119.641 164.583 120.118 165.334 120.424C166.189 120.764 167.103 120.93 168.023 120.913C169.487 120.994 170.927 120.516 172.051 119.576C173.098 118.565 173.75 117.215 173.892 115.767H171.651C171.573 116.672 171.176 117.52 170.531 118.159C169.828 118.759 168.92 119.063 167.998 119.008C167.382 119.024 166.771 118.882 166.225 118.596C165.74 118.334 165.325 117.959 165.015 117.503C164.698 117.029 164.467 116.502 164.334 115.947C164.184 115.356 164.107 114.749 164.106 114.14C164.105 113.485 164.176 112.831 164.317 112.191C164.44 111.6 164.671 111.038 164.999 110.532C165.321 110.046 165.759 109.649 166.273 109.374C166.886 109.064 167.567 108.913 168.254 108.937C169.051 108.895 169.837 109.142 170.467 109.632C171.042 110.141 171.425 110.833 171.549 111.592ZM177.93 113.985C177.918 113.254 178.026 112.526 178.252 111.831C178.44 111.251 178.742 110.713 179.138 110.249C179.503 109.83 179.955 109.496 180.463 109.271C180.97 109.048 181.518 108.934 182.072 108.937C182.626 108.934 183.174 109.048 183.681 109.271C184.189 109.496 184.641 109.83 185.006 110.249C185.402 110.713 185.704 111.251 185.892 111.831C186.118 112.526 186.226 113.254 186.214 113.985C186.226 114.715 186.118 115.443 185.892 116.138C185.706 116.715 185.404 117.249 185.006 117.707C184.638 118.12 184.186 118.449 183.681 118.672C183.174 118.896 182.626 119.01 182.072 119.007C181.518 119.01 180.97 118.896 180.463 118.672C179.958 118.449 179.506 118.12 179.138 117.707C178.74 117.249 178.438 116.715 178.252 116.138C178.026 115.443 177.918 114.715 177.93 113.985ZM175.615 113.985C175.606 114.91 175.745 115.831 176.026 116.713C176.283 117.523 176.704 118.272 177.261 118.913C177.821 119.547 178.516 120.048 179.294 120.38C180.174 120.746 181.12 120.925 182.073 120.907C183.029 120.927 183.978 120.747 184.86 120.38C185.633 120.046 186.323 119.545 186.88 118.913C187.438 118.272 187.858 117.523 188.115 116.713C188.396 115.831 188.535 114.91 188.527 113.985C188.534 113.055 188.395 112.13 188.115 111.243C187.86 110.429 187.44 109.675 186.88 109.031C186.322 108.397 185.632 107.893 184.86 107.551C183.98 107.175 183.03 106.99 182.073 107.01C181.119 106.992 180.172 107.176 179.294 107.551C178.517 107.89 177.823 108.395 177.261 109.031C176.702 109.675 176.281 110.429 176.026 111.243C175.746 112.13 175.607 113.054 175.615 113.985Z" fill="#9DA8B9"/>
<path d="M151.73 120.547H130.577C133.126 119.85 135.602 118.909 137.97 117.738C138.107 117.782 138.257 117.824 138.412 117.864C142.786 118.739 147.236 119.172 151.696 119.155H151.733V120.548L151.73 120.547ZM121.648 117.393C117.393 117.5 113.176 116.568 109.361 114.677C105.313 112.494 101.898 109.301 99.4473 105.408C99.4625 94.1524 99.4473 69.5272 99.4473 61.4357V59.6383C101.057 57.2082 103.102 55.0966 105.479 53.4101C107.678 51.8738 110.132 50.7379 112.726 50.0547H126.807C129.413 50.6977 131.898 51.754 134.169 53.1834C134.188 62.1767 134.169 110.268 134.169 110.736C133.936 112.321 134.202 113.939 134.929 115.367C132.851 116.031 130.722 116.524 128.564 116.842C126.276 117.196 123.964 117.38 121.648 117.393ZM116.029 90.0928C115.316 90.0799 114.607 90.2033 113.94 90.4563C113.369 90.6769 112.849 91.0118 112.412 91.4405C112.003 91.8464 111.684 92.3324 111.473 92.868C111.261 93.4031 111.154 93.9735 111.155 94.5489C111.15 95.0432 111.217 95.5356 111.354 96.0106C111.485 96.4446 111.668 96.8613 111.899 97.252C112.13 97.6434 112.39 98.036 112.671 98.4186C112.952 98.8011 113.262 99.2267 113.549 99.6295C112.878 99.9833 112.226 100.372 111.596 100.795C111.004 101.189 110.464 101.657 109.991 102.188C109.536 102.705 109.168 103.293 108.902 103.929C108.617 104.64 108.477 105.402 108.491 106.168C108.507 106.729 108.583 107.287 108.718 107.832C108.891 108.54 109.216 109.202 109.672 109.77C110.23 110.453 110.935 111.002 111.734 111.374C112.839 111.861 114.04 112.089 115.246 112.04C116.443 112.037 117.624 111.778 118.712 111.28C119.799 110.802 120.721 110.013 121.361 109.013L123.661 111.707H127.021L122.812 106.834C123.025 106.369 123.219 105.937 123.389 105.547C123.549 105.176 123.685 104.796 123.798 104.407C123.915 103.995 124.006 103.575 124.07 103.151C124.141 102.686 124.207 102.131 124.266 101.504H121.81C121.741 102.652 121.506 103.784 121.114 104.865L117.21 100.113C117.738 99.8096 118.246 99.4711 118.73 99.1C119.209 98.731 119.645 98.3095 120.031 97.8435C120.411 97.3842 120.717 96.8683 120.939 96.3146C121.164 95.741 121.277 95.1296 121.272 94.5134C121.285 93.8467 121.135 93.1869 120.834 92.5919C120.55 92.0489 120.153 91.5736 119.668 91.1986C119.166 90.817 118.595 90.5346 117.987 90.3664C117.351 90.1846 116.691 90.0925 116.029 90.0928ZM115.333 109.8C114.811 109.8 114.293 109.708 113.804 109.527C113.327 109.355 112.882 109.104 112.488 108.786C112.104 108.471 111.789 108.079 111.564 107.636C111.331 107.171 111.212 106.658 111.217 106.138C111.204 105.563 111.307 104.991 111.519 104.457C111.718 103.986 111.994 103.552 112.336 103.171C112.689 102.779 113.091 102.432 113.531 102.141C113.981 101.841 114.465 101.546 114.97 101.263L119.936 107.227C119.433 107.991 118.766 108.632 117.982 109.103C117.18 109.573 116.263 109.814 115.333 109.8ZM115.816 98.4173L115.212 97.6573L115.086 97.5066C114.848 97.2102 114.626 96.902 114.419 96.5832C114.223 96.2816 114.056 95.9622 113.92 95.6294C113.792 95.3228 113.725 94.994 113.723 94.6616C113.698 94.3289 113.757 93.9953 113.894 93.6913C114.032 93.3873 114.243 93.1226 114.509 92.9212C115.001 92.5599 115.594 92.3638 116.204 92.3614C116.537 92.3443 116.871 92.3958 117.183 92.5128C117.496 92.6298 117.781 92.8098 118.022 93.0416C118.235 93.2533 118.405 93.5057 118.519 93.784C118.634 94.0623 118.691 94.3607 118.688 94.6616C118.694 95.0957 118.601 95.5255 118.416 95.9182C118.235 96.2889 118.001 96.6305 117.719 96.9315C117.435 97.2354 117.12 97.5092 116.78 97.7485C116.433 97.9942 116.108 98.2184 115.813 98.4148L115.816 98.4173ZM188.532 81.1906H186.496C186.098 79.9898 185.619 78.8169 185.065 77.6794C181.697 70.6477 176.565 64.6081 170.169 60.1488C165.393 56.8676 160.048 54.5023 154.408 53.1732L154.475 50.0547H188.533V81.1868L188.532 81.1906ZM148.693 52.113C145.912 51.7511 143.111 51.5721 140.307 51.5772C139.494 51.5772 138.643 51.5924 137.774 51.6228C136.572 51.068 135.409 50.5614 134.222 50.0547H149.987C149.732 50.838 149.286 51.5454 148.689 52.113H148.693Z" fill="#9DA8B9"/>
<path d="M157.714 67.5828C157.92 69.9026 157.56 72.2379 156.666 74.3883C155.772 76.5388 154.37 78.4404 152.58 79.9303C146.471 84.7892 133.82 83.9696 133.82 83.9696V85.814C133.82 85.814 145.889 84.1319 152.187 89.5342C154.04 91.1747 155.499 93.2123 156.455 95.4952C157.411 97.7781 157.839 100.247 157.708 102.719H160.169V67.5828H157.714Z" fill="#9DA8B9"/>
</g>
<defs>
<clipPath id="clip0_2028_6467">
<rect width="135.533" height="76" fill="white" transform="translate(53 46)"/>
</clipPath>
</defs>
</svg>
