<svg width="241" height="168" viewBox="0 0 241 168" fill="none" xmlns="http://www.w3.org/2000/svg">
<rect width="241" height="168" fill="white"/>
<g clip-path="url(#clip0_2049_7686)">
<path d="M152.005 46.4978H153.502V77.6349H152.284C152.284 77.6349 147.248 64.9556 142.639 59.6926C138.03 54.4296 132.355 48.8652 121.673 48.1216C110.992 47.3781 99.4571 50.0001 94.9263 64.5161C90.3954 79.0321 90.7463 95.818 98.0385 106.777C105.331 117.736 115.655 120.666 127.932 118.85C140.208 117.033 152.22 106.493 154.532 94.5019C155.279 94.4892 155.393 94.5019 155.393 94.5019C155.393 94.5019 154.506 106.889 139.609 115.708C124.712 124.528 91.7785 124.094 73.897 114.29C56.0155 104.486 52.3512 89.9697 53.0922 80.7066C53.8332 71.4435 63.6433 47.7656 108.284 46.0392C116.507 45.6062 124.72 47.0598 132.294 50.2888C141.999 54.3422 144.141 55.5683 148.137 53.9976C152.134 52.4269 152.005 46.4978 152.005 46.4978Z" fill="#45A1EF"/>
<path d="M171.549 111.592H173.813C173.749 110.875 173.539 110.179 173.195 109.546C172.884 108.988 172.459 108.501 171.948 108.117C171.422 107.731 170.828 107.447 170.197 107.281C169.505 107.097 168.791 107.006 168.074 107.012C167.127 106.991 166.186 107.18 165.32 107.565C164.557 107.915 163.883 108.435 163.352 109.085C162.815 109.755 162.417 110.525 162.182 111.35C161.921 112.256 161.793 113.194 161.802 114.137C161.79 115.065 161.922 115.99 162.194 116.878C162.436 117.669 162.84 118.402 163.379 119.031C163.913 119.641 164.583 120.118 165.334 120.424C166.189 120.764 167.103 120.93 168.023 120.913C169.487 120.994 170.927 120.516 172.051 119.576C173.098 118.565 173.75 117.215 173.892 115.767H171.651C171.573 116.672 171.176 117.52 170.531 118.159C169.828 118.759 168.92 119.063 167.998 119.008C167.382 119.024 166.771 118.882 166.225 118.596C165.74 118.334 165.325 117.959 165.015 117.503C164.698 117.029 164.467 116.502 164.334 115.947C164.184 115.356 164.107 114.749 164.106 114.14C164.105 113.485 164.176 112.831 164.317 112.191C164.44 111.6 164.671 111.038 164.999 110.532C165.321 110.046 165.759 109.649 166.273 109.374C166.886 109.064 167.567 108.913 168.254 108.937C169.051 108.895 169.837 109.142 170.467 109.632C171.042 110.141 171.425 110.833 171.549 111.592ZM177.93 113.985C177.918 113.254 178.026 112.526 178.252 111.831C178.44 111.251 178.742 110.713 179.138 110.249C179.503 109.83 179.955 109.496 180.463 109.271C180.97 109.048 181.518 108.934 182.072 108.937C182.626 108.934 183.174 109.048 183.681 109.271C184.189 109.496 184.641 109.83 185.006 110.249C185.402 110.713 185.704 111.251 185.892 111.831C186.118 112.526 186.226 113.254 186.214 113.985C186.226 114.715 186.118 115.443 185.892 116.138C185.706 116.715 185.404 117.249 185.006 117.707C184.638 118.12 184.186 118.449 183.681 118.672C183.174 118.896 182.626 119.01 182.072 119.007C181.518 119.01 180.97 118.896 180.463 118.672C179.958 118.449 179.506 118.12 179.138 117.707C178.74 117.249 178.438 116.715 178.252 116.138C178.026 115.443 177.918 114.715 177.93 113.985ZM175.615 113.985C175.606 114.91 175.745 115.831 176.026 116.713C176.283 117.523 176.704 118.272 177.261 118.913C177.821 119.547 178.516 120.048 179.294 120.38C180.174 120.746 181.12 120.925 182.073 120.907C183.029 120.927 183.978 120.747 184.86 120.38C185.633 120.046 186.323 119.545 186.88 118.913C187.438 118.272 187.858 117.523 188.115 116.713C188.396 115.831 188.535 114.91 188.527 113.985C188.534 113.055 188.395 112.13 188.115 111.243C187.86 110.429 187.44 109.675 186.88 109.031C186.322 108.397 185.632 107.893 184.86 107.551C183.98 107.175 183.03 106.99 182.073 107.01C181.119 106.992 180.172 107.176 179.294 107.551C178.517 107.89 177.823 108.395 177.261 109.031C176.702 109.675 176.281 110.429 176.026 111.243C175.746 112.13 175.607 113.054 175.615 113.985Z" fill="#45A1EF"/>
<path d="M151.732 120.547H130.579C133.128 119.85 135.604 118.909 137.972 117.738C138.109 117.782 138.259 117.824 138.414 117.864C142.788 118.739 147.238 119.172 151.698 119.155H151.735V120.548L151.732 120.547ZM121.65 117.393C117.395 117.5 113.177 116.567 109.363 114.677C105.315 112.494 101.9 109.3 99.4492 105.408C99.4644 94.1523 99.4492 69.527 99.4492 61.4356V59.6382C101.059 57.2081 103.104 55.0965 105.481 53.41C107.68 51.8737 110.133 50.7378 112.728 50.0546H126.809C129.415 50.6976 131.9 51.7539 134.171 53.1832C134.19 62.1766 134.171 110.268 134.171 110.735C133.938 112.321 134.204 113.939 134.931 115.366C132.853 116.031 130.724 116.524 128.566 116.842C126.277 117.196 123.966 117.38 121.65 117.393ZM116.031 90.0926C115.318 90.0798 114.609 90.2032 113.942 90.4562C113.371 90.6767 112.851 91.0116 112.414 91.4404C112.005 91.8462 111.686 92.3323 111.475 92.8679C111.263 93.403 111.155 93.9734 111.157 94.5488C111.152 95.0431 111.219 95.5355 111.356 96.0105C111.487 96.4445 111.67 96.8612 111.901 97.2518C112.132 97.6432 112.392 98.0359 112.673 98.4184C112.954 98.801 113.263 99.2266 113.551 99.6294C112.88 99.9832 112.228 100.372 111.598 100.795C111.006 101.189 110.466 101.657 109.993 102.188C109.538 102.705 109.17 103.293 108.904 103.928C108.619 104.64 108.479 105.402 108.493 106.168C108.509 106.729 108.585 107.287 108.72 107.832C108.893 108.54 109.218 109.202 109.674 109.77C110.232 110.453 110.937 111.001 111.736 111.374C112.841 111.861 114.042 112.089 115.248 112.04C116.445 112.037 117.626 111.778 118.714 111.28C119.801 110.802 120.723 110.013 121.363 109.013L123.663 111.707H127.023L122.814 106.834C123.027 106.369 123.221 105.937 123.39 105.547C123.551 105.176 123.687 104.795 123.8 104.407C123.917 103.995 124.008 103.575 124.072 103.151C124.143 102.686 124.209 102.131 124.268 101.504H121.812C121.743 102.652 121.508 103.784 121.116 104.864L117.212 100.113C117.74 99.8095 118.248 99.471 118.732 99.0999C119.211 98.7309 119.647 98.3094 120.033 97.8434C120.413 97.384 120.719 96.8682 120.941 96.3145C121.166 95.7409 121.279 95.1295 121.274 94.5133C121.287 93.8466 121.137 93.1868 120.836 92.5918C120.552 92.0487 120.155 91.5734 119.67 91.1984C119.168 90.8169 118.597 90.5344 117.989 90.3662C117.353 90.1845 116.693 90.0924 116.031 90.0926ZM115.334 109.799C114.813 109.8 114.295 109.708 113.806 109.527C113.329 109.355 112.884 109.104 112.49 108.786C112.105 108.471 111.791 108.079 111.566 107.636C111.333 107.171 111.214 106.657 111.219 106.137C111.206 105.563 111.309 104.991 111.521 104.457C111.72 103.986 111.996 103.552 112.338 103.171C112.691 102.778 113.093 102.432 113.533 102.141C113.983 101.841 114.467 101.546 114.972 101.263L119.938 107.227C119.435 107.991 118.768 108.632 117.984 109.103C117.181 109.573 116.265 109.814 115.334 109.799ZM115.818 98.4172L115.214 97.6572L115.087 97.5064C114.85 97.2101 114.628 96.9019 114.421 96.583C114.225 96.2815 114.058 95.9621 113.922 95.6292C113.794 95.3227 113.727 94.9939 113.725 94.6615C113.7 94.3288 113.759 93.9952 113.896 93.6912C114.034 93.3872 114.245 93.1224 114.511 92.9211C115.003 92.5597 115.596 92.3637 116.206 92.3612C116.539 92.3441 116.873 92.3957 117.185 92.5127C117.498 92.6297 117.783 92.8097 118.024 93.0414C118.237 93.2531 118.407 93.5056 118.521 93.7839C118.635 94.0622 118.693 94.3606 118.69 94.6615C118.696 95.0956 118.603 95.5253 118.418 95.918C118.237 96.2888 118.003 96.6304 117.721 96.9314C117.437 97.2353 117.122 97.5091 116.782 97.7484C116.435 97.9941 116.11 98.2183 115.815 98.4146L115.818 98.4172ZM188.534 81.1905H186.498C186.099 79.9897 185.621 78.8167 185.067 77.6793C181.699 70.6476 176.567 64.608 170.171 60.1486C165.395 56.8674 160.05 54.5021 154.41 53.1731L154.477 50.0546H188.535V81.1867L188.534 81.1905ZM148.695 52.1129C145.914 51.751 143.113 51.572 140.309 51.5771C139.496 51.5771 138.645 51.5923 137.776 51.6227C136.574 51.0679 135.411 50.5612 134.224 50.0546H149.989C149.734 50.8379 149.288 51.5453 148.691 52.1129H148.695Z" fill="#45A1EF"/>
<path d="M157.714 67.5828C157.92 69.9026 157.56 72.2379 156.666 74.3883C155.772 76.5388 154.37 78.4404 152.58 79.9303C146.471 84.7892 133.82 83.9696 133.82 83.9696V85.814C133.82 85.814 145.889 84.1319 152.187 89.5342C154.04 91.1747 155.499 93.2123 156.455 95.4952C157.411 97.7781 157.839 100.247 157.708 102.719H160.169V67.5828H157.714Z" fill="#45A1EF"/>
</g>
<defs>
<clipPath id="clip0_2049_7686">
<rect width="135.533" height="76" fill="white" transform="translate(53 46)"/>
</clipPath>
</defs>
</svg>
