<svg width="243" height="168" viewBox="0 0 243 168" fill="none" xmlns="http://www.w3.org/2000/svg">
<rect width="243" height="168" rx="16" fill="white"/>
<path fill-rule="evenodd" clip-rule="evenodd" d="M32.9735 98.0475C25.5934 98.0475 19.294 91.3537 19.294 84.0524C19.294 76.7782 25.4615 69.9514 32.9206 69.9514C37.8237 69.9514 41.3544 72.3235 44.228 76.0401H47.8386C46.7579 74.0894 45.5983 72.2976 43.8324 70.9002C40.801 68.4492 36.8738 67 32.9735 67C23.6168 67 16 74.7227 16 84.0265C16 93.3562 23.7227 101 33.0265 101C36.8219 101 40.5385 99.6038 43.5169 97.2575C45.3887 95.7554 46.706 93.8047 47.9716 91.801H44.3609C41.5132 95.5176 37.8767 98.0475 32.9735 98.0475ZM70.4005 80.257C68.1342 77.3315 65.0499 75.4868 61.2285 75.4868C54.3758 75.4868 48.7356 81.0492 48.7356 87.9019C48.7356 94.7535 54.4028 100.368 61.2285 100.368C65.2088 100.368 67.9754 98.7067 70.4005 95.6494V99.8134H73.3789V76.066H70.4005V80.257ZM61.0708 97.626C55.825 97.626 51.687 93.0666 51.687 87.9278C51.687 82.8139 55.7991 78.2285 61.0708 78.2285C66.3154 78.2285 70.4005 82.8151 70.4005 87.9278C70.4005 93.0666 66.2884 97.626 61.0708 97.626ZM76.9895 99.8134H80.1798V67.684H76.9895V99.8134ZM92.2242 96.0439L84.1589 76.066H80.9957L90.6691 99.8134H93.8841L103.532 76.066H100.421L92.2242 96.0439ZM104.849 99.8134H108.038V76.066H104.849V99.8134ZM104.849 73.0087H108.038V67.684H104.849V73.0087ZM121.771 75.4856C118.765 75.4856 116.631 77.0678 114.654 79.1763V76.066H111.702V99.8134H114.838V85.3427C114.812 81.5214 117.974 78.2274 121.823 78.2274C126.645 78.2274 129.07 82.4184 129.07 86.7412V99.8145H132.021V86.7412C132.022 80.5736 128.413 75.4856 121.771 75.4856ZM161.622 67.684L147.125 86.1079V67.684H143.989V99.8134H147.125V90.984L151.237 85.8712L161.7 99.8134H165.682L153.24 83.3402L165.682 67.684H161.622ZM166.84 99.8134H169.952V67.684H166.84V99.8134ZM195.702 82.0488C193.54 78.0156 189.217 75.4856 184.657 75.4856C177.858 75.4856 172.111 81.1529 172.111 87.9526C172.111 94.8043 177.91 100.367 184.712 100.367C187.952 100.367 191.143 99.0752 193.487 96.8349C194.912 95.4905 195.755 93.8036 196.517 92.0377H193.172C191.484 95.3328 188.505 97.6249 184.656 97.6249C182.312 97.6249 180.018 96.676 178.28 95.0679C176.486 93.4351 175.696 91.4303 175.352 89.0593H197.257C197.258 86.5823 196.914 84.2102 195.702 82.0488ZM175.459 86.3186C176.41 81.8651 179.914 78.2274 184.712 78.2274C188.744 78.2274 193.067 80.7055 194.016 86.3186H175.459ZM199.577 99.8134H202.712V76.066H199.577V99.8134ZM199.577 73.1146H202.712V67.684H199.577V73.1146ZM216.499 75.4856C213.439 75.4856 211.305 77.0678 209.301 79.1763V76.066H206.297V99.8134H209.46V85.3427C209.434 81.4954 212.676 78.2274 216.549 78.2274C221.348 78.2274 223.879 82.4184 223.879 86.7412V99.8145H226.83V86.7412C226.83 80.5736 223.166 75.4856 216.499 75.4856Z" fill="black"/>
</svg>
