<svg width="243" height="168" viewBox="0 0 243 168" fill="none" xmlns="http://www.w3.org/2000/svg">
<rect width="243" height="168" rx="16" fill="white"/>
<g clip-path="url(#clip0_692_1820)">
<path fill-rule="evenodd" clip-rule="evenodd" d="M57.1741 111.027L59.483 112.306C58.9661 114.261 57.918 115.775 56.3433 116.853C54.7686 117.926 52.9572 118.463 50.9043 118.463C48.2186 118.463 46.0643 117.6 44.4365 115.871C42.8135 114.141 42.0068 112.004 42.0068 109.46C42.0068 106.667 42.8183 104.444 44.451 102.796C46.0836 101.143 48.2138 100.314 50.8415 100.314C53.1601 100.314 55.1164 100.941 56.6959 102.202V100.596H58.9903V106.245H56.6959C56.1839 105.1 55.3965 104.214 54.3338 103.586C53.2712 102.959 52.1554 102.642 50.9768 102.642C49.2089 102.642 47.7598 103.28 46.6246 104.54C45.4895 105.804 44.9244 107.4 44.9244 109.331C44.9244 111.314 45.5281 112.929 46.7502 114.189C47.9626 115.444 49.4021 116.077 51.0734 116.077C52.4404 116.077 53.6866 115.641 54.8072 114.769C55.9279 113.892 56.72 112.651 57.1789 111.032L57.1741 111.027ZM107.241 41.0478H131.924V53.2172L135.691 56.9543L142.763 49.9401L139.029 46.2366V34.0049H100.14V86.4819H139.029V74.2502L142.763 70.5467L135.691 63.5325L131.924 67.2695V79.439H107.241V41.0526V41.0478ZM129.078 54.9229L127.359 53.1981L120.191 60.3272L115.549 55.6751L113.824 57.3903L118.466 62.0424L120.186 63.7672L129.083 54.9181L129.078 54.9229ZM189.96 116.048V102.729H187.728V100.592H192.38V107.342C193.834 106.183 195.22 105.598 196.529 105.598C197.346 105.598 198.012 105.766 198.539 106.101C199.07 106.442 199.427 106.882 199.616 107.433C199.809 107.984 199.906 108.794 199.906 109.853V116.038H202.007V118.175H197.481V110.691C197.481 109.767 197.452 109.144 197.394 108.832C197.331 108.521 197.167 108.262 196.901 108.061C196.631 107.86 196.317 107.759 195.95 107.759C195.013 107.759 193.819 108.286 192.375 109.34V116.043H194.52V118.18H187.724V116.043H189.955L189.96 116.048ZM173.31 121.534V108.08H171.228V105.943H175.73V107.865C176.942 106.456 178.401 105.757 180.116 105.757C181.85 105.757 183.284 106.346 184.42 107.524C185.555 108.708 186.12 110.241 186.12 112.129C186.12 114.112 185.502 115.674 184.27 116.819C183.038 117.964 181.637 118.539 180.063 118.539C178.43 118.539 176.986 117.912 175.73 116.666V121.534H178.126V123.67H171.049V121.534H173.305H173.31ZM175.691 112.239C175.691 112.914 175.836 113.561 176.116 114.174C176.396 114.793 176.841 115.305 177.454 115.727C178.063 116.144 178.783 116.354 179.609 116.354C180.763 116.354 181.719 115.971 182.473 115.205C183.222 114.438 183.598 113.384 183.598 112.038C183.598 110.73 183.202 109.709 182.42 108.976C181.632 108.243 180.739 107.874 179.734 107.874C178.662 107.874 177.725 108.277 176.908 109.072C176.102 109.872 175.691 110.926 175.691 112.239ZM170.537 116.048V118.185H166.306V116.69C165.132 117.821 163.818 118.386 162.374 118.386C161.258 118.386 160.278 118.022 159.452 117.298C158.626 116.575 158.205 115.645 158.205 114.515C158.205 113.379 158.645 112.435 159.529 111.683C160.408 110.931 161.466 110.557 162.712 110.557C163.867 110.557 164.982 110.902 166.064 111.597V110.38C166.064 109.757 166.006 109.278 165.886 108.938C165.765 108.602 165.49 108.301 165.05 108.028C164.615 107.759 164.04 107.625 163.335 107.625C162.118 107.625 161.239 108.104 160.698 109.067L158.374 108.459C159.403 106.557 161.181 105.603 163.707 105.603C164.635 105.603 165.436 105.728 166.108 105.972C166.784 106.221 167.286 106.542 167.625 106.935C167.958 107.328 168.18 107.75 168.291 108.205C168.407 108.665 168.465 109.388 168.465 110.38V116.048H170.542H170.537ZM166.064 113.628C165.021 112.823 163.963 112.416 162.891 112.416C162.215 112.416 161.654 112.613 161.205 113.001C160.751 113.389 160.529 113.887 160.529 114.5C160.529 115.075 160.727 115.559 161.118 115.942C161.514 116.33 162.05 116.527 162.727 116.527C163.9 116.527 165.011 116.038 166.055 115.061V113.633L166.064 113.628ZM149.83 116.048V108.08H147.347V105.943H151.767V108.703C152.042 107.984 152.419 107.39 152.902 106.921C153.39 106.446 153.897 106.135 154.438 105.986C154.979 105.833 155.718 105.757 156.655 105.757H157.292V108.186H156.809C155.573 108.186 154.655 108.305 154.046 108.555C153.443 108.794 152.989 109.24 152.699 109.886C152.404 110.528 152.259 111.688 152.259 113.355V116.048H154.95V118.185H147.352V116.048H149.834H149.83ZM146.477 105.943V108.08H144.26V117.198C144.26 118.434 144.193 119.344 144.067 119.938C143.941 120.532 143.632 121.136 143.144 121.759C142.652 122.377 141.922 122.899 140.942 123.316C139.966 123.738 138.874 123.953 137.667 123.953C135.846 123.953 134.223 123.407 132.798 122.319L134.377 120.575C135.45 121.399 136.614 121.816 137.87 121.816C138.565 121.816 139.212 121.682 139.807 121.419C140.406 121.15 140.85 120.825 141.145 120.446C141.434 120.072 141.623 119.708 141.71 119.368C141.792 119.028 141.835 118.453 141.835 117.643V116.532C141.454 117.016 140.855 117.466 140.038 117.902C139.222 118.328 138.333 118.544 137.362 118.544C135.595 118.544 134.155 117.936 133.039 116.723C131.924 115.511 131.368 114.016 131.368 112.248C131.368 110.308 131.981 108.741 133.208 107.553C134.44 106.36 135.86 105.761 137.474 105.761C139.106 105.761 140.56 106.408 141.835 107.697V105.953H146.477V105.943ZM133.943 112.191C133.943 113.432 134.305 114.443 135.029 115.229C135.754 116.014 136.686 116.407 137.817 116.407C138.923 116.407 139.874 116.014 140.676 115.224C141.473 114.433 141.874 113.422 141.874 112.181C141.874 110.926 141.473 109.915 140.676 109.153C139.874 108.387 138.947 108.008 137.894 108.008C136.841 108.008 135.918 108.382 135.126 109.139C134.339 109.896 133.943 110.907 133.943 112.191ZM116.476 112.066C116.476 110.179 117.104 108.631 118.36 107.414C119.616 106.207 121.152 105.603 122.963 105.603C124.736 105.603 126.267 106.197 127.538 107.395C128.813 108.588 129.45 110.145 129.45 112.066C129.45 113.988 128.818 115.55 127.547 116.747C126.277 117.945 124.75 118.544 122.963 118.544C121.128 118.544 119.587 117.936 118.341 116.723C117.094 115.511 116.476 113.959 116.476 112.071V112.066ZM119.036 112.066C119.036 113.269 119.418 114.261 120.181 115.032C120.939 115.803 121.872 116.187 122.968 116.187C124.084 116.187 125.011 115.799 125.765 115.018C126.518 114.237 126.89 113.255 126.89 112.066C126.89 110.869 126.509 109.882 125.741 109.106C124.977 108.334 124.05 107.946 122.963 107.946C121.823 107.946 120.881 108.344 120.142 109.134C119.403 109.93 119.031 110.907 119.031 112.071L119.036 112.066ZM105.806 105.943V107.424C107.361 106.312 108.777 105.752 110.061 105.752C110.863 105.752 111.525 105.939 112.047 106.312C112.568 106.686 112.911 107.151 113.076 107.692C113.235 108.238 113.317 109.034 113.317 110.073V116.043H115.399V118.18H110.897V110.174C110.897 109.249 110.757 108.646 110.477 108.358C110.197 108.075 109.854 107.936 109.443 107.936C108.371 107.936 107.158 108.454 105.811 109.489V116.043H107.941V118.18H101.222V116.043H103.386V108.075H101.222V105.939H105.811L105.806 105.943ZM86.5425 112.066C86.5425 110.179 87.1705 108.631 88.4263 107.414C89.6871 106.207 91.2183 105.603 93.0297 105.603C94.8024 105.603 96.3336 106.197 97.604 107.395C98.8792 108.588 99.5168 110.145 99.5168 112.066C99.5168 113.988 98.884 115.55 97.6088 116.747C96.3384 117.945 94.8121 118.544 93.0248 118.544C91.1845 118.544 89.6484 117.936 88.4022 116.723C87.156 115.511 86.5329 113.959 86.5329 112.071L86.5425 112.066ZM89.1026 112.066C89.1026 113.269 89.4842 114.261 90.2474 115.032C91.0057 115.803 91.938 116.187 93.0345 116.187C94.1503 116.187 95.0777 115.799 95.8313 115.018C96.5848 114.237 96.9567 113.255 96.9567 112.066C96.9567 110.869 96.5751 109.882 95.8071 109.106C95.0439 108.334 94.1165 107.946 93.0297 107.946C91.8897 107.946 90.9478 108.344 90.2087 109.134C89.4697 109.93 89.0978 110.907 89.0978 112.071L89.1026 112.066ZM78.7608 116.053V108.085H76.2781V105.948H80.6978V108.708C80.9731 107.989 81.3499 107.395 81.8329 106.926C82.3208 106.451 82.828 106.14 83.369 105.991C83.91 105.838 84.649 105.761 85.5861 105.761H86.2189V108.19H85.7359C84.4993 108.19 83.5815 108.31 82.9729 108.559C82.3691 108.799 81.9151 109.244 81.6252 109.891C81.3306 110.533 81.1857 111.693 81.1857 113.36V116.053H83.8762V118.189H76.2781V116.053H78.7608ZM63.5018 116.053V102.733H61.2702V100.596H65.9218V107.347C67.3758 106.188 68.7572 105.603 70.0711 105.603C70.8826 105.603 71.554 105.771 72.0805 106.106C72.6118 106.446 72.9693 106.887 73.1577 107.438C73.346 107.989 73.4427 108.799 73.4427 109.858V116.043H75.5438V118.18H71.0178V110.696C71.0178 109.771 70.9888 109.149 70.9309 108.837C70.8729 108.526 70.7039 108.267 70.4382 108.066C70.1677 107.865 69.8537 107.764 69.4866 107.764C68.5544 107.764 67.3613 108.291 65.917 109.345V116.048H68.0617V118.185H61.2654V116.048H63.497L63.5018 116.053Z" fill="black"/>
<path d="M55.8024 132.352L54.4258 128.289H55.2131L55.928 130.637L56.1937 131.509C56.2033 131.465 56.2855 131.183 56.4255 130.67L57.1404 128.289H57.9229L58.5992 130.646L58.8262 131.422L59.0822 130.637L59.8551 128.289H60.5989L59.1885 132.352H58.3963L57.6814 129.918L57.5075 129.223L56.5994 132.352H55.8024ZM67.8686 131.849C67.5884 132.064 67.3131 132.218 67.0523 132.309C66.7914 132.4 66.5113 132.443 66.2118 132.443C65.7143 132.443 65.3375 132.333 65.0718 132.117C64.8062 131.897 64.6758 131.619 64.6758 131.283C64.6758 131.082 64.7241 130.9 64.8255 130.737C64.9269 130.574 65.0573 130.44 65.2167 130.344C65.381 130.244 65.5645 130.167 65.7674 130.119C65.9171 130.086 66.1442 130.047 66.4437 130.014C67.0619 129.947 67.516 129.87 67.8058 129.774C67.8106 129.678 67.8106 129.621 67.8106 129.597C67.8106 129.314 67.7382 129.118 67.5933 129.003C67.4001 128.845 67.1102 128.768 66.7238 128.768C66.3664 128.768 66.1007 128.826 65.9268 128.941C65.7577 129.056 65.6322 129.257 65.55 129.544L64.8062 129.448C64.8738 129.161 64.9849 128.926 65.1395 128.749C65.294 128.572 65.5211 128.433 65.8157 128.342C66.1104 128.246 66.4485 128.198 66.8349 128.198C67.2213 128.198 67.5305 128.241 67.772 128.322C68.0135 128.404 68.1874 128.505 68.3033 128.629C68.4144 128.754 68.4965 128.912 68.54 129.099C68.5642 129.218 68.5787 129.429 68.5787 129.736V130.656C68.5787 131.298 68.5932 131.7 68.627 131.868C68.6608 132.04 68.7236 132.203 68.8202 132.357H68.0232C67.9459 132.213 67.8928 132.05 67.8686 131.854V131.849ZM67.8058 130.311C67.5256 130.416 67.1151 130.502 66.5596 130.574C66.2456 130.613 66.0234 130.661 65.893 130.713C65.7626 130.766 65.6611 130.838 65.5935 130.938C65.5211 131.034 65.4872 131.144 65.4872 131.264C65.4872 131.446 65.5645 131.6 65.7191 131.724C65.8737 131.844 66.1007 131.906 66.3953 131.906C66.69 131.906 66.9508 131.849 67.1827 131.734C67.4097 131.619 67.5788 131.461 67.685 131.259C67.7672 131.101 67.8106 130.871 67.8106 130.57V130.316L67.8058 130.311ZM75.1141 131.734L75.2252 132.342C75.0127 132.381 74.8195 132.405 74.6504 132.405C74.3751 132.405 74.1577 132.366 74.0031 132.285C73.8486 132.208 73.7423 132.103 73.6795 131.973C73.6167 131.844 73.5877 131.576 73.5877 131.159V128.821H73.0274V128.284H73.5877V127.278L74.3461 126.866V128.284H75.1141V128.821H74.3461V131.197C74.3461 131.394 74.3606 131.518 74.3847 131.576C74.4137 131.633 74.4572 131.676 74.5151 131.71C74.5731 131.743 74.6601 131.758 74.776 131.758C74.8629 131.758 74.974 131.748 75.1093 131.729L75.1141 131.734ZM82.49 130.862L83.2387 130.948C83.1566 131.413 82.9489 131.782 82.6108 132.045C82.2727 132.309 81.8572 132.438 81.3646 132.438C80.7511 132.438 80.2536 132.256 79.8768 131.892C79.5 131.528 79.3117 131.006 79.3117 130.33C79.3117 129.889 79.3938 129.506 79.5532 129.175C79.7126 128.845 79.9589 128.6 80.2874 128.433C80.6159 128.27 80.9733 128.188 81.3597 128.188C81.8524 128.188 82.2485 128.299 82.5625 128.524C82.8716 128.749 83.0745 129.065 83.1614 129.472L82.4176 129.578C82.3451 129.305 82.2195 129.099 82.0408 128.96C81.8621 128.821 81.6447 128.754 81.3887 128.754C81.0023 128.754 80.6931 128.878 80.4516 129.127C80.2101 129.377 80.0893 129.769 80.0893 130.306C80.0893 130.852 80.2053 131.25 80.4371 131.499C80.669 131.743 80.9685 131.868 81.3452 131.868C81.6447 131.868 81.8911 131.786 82.0939 131.619C82.2968 131.451 82.4224 131.197 82.4755 130.852L82.49 130.862ZM87.5812 132.352V126.741H88.3444V128.754C88.7018 128.38 89.1511 128.193 89.6969 128.193C90.0302 128.193 90.32 128.251 90.5663 128.37C90.8127 128.485 90.9914 128.653 91.0928 128.864C91.1991 129.075 91.2523 129.377 91.2523 129.774V132.352H90.4891V129.774C90.4891 129.429 90.4069 129.18 90.2427 129.022C90.0785 128.864 89.8466 128.787 89.5423 128.787C89.3153 128.787 89.1028 128.84 88.9047 128.945C88.7067 129.051 88.5618 129.194 88.4796 129.377C88.3927 129.559 88.354 129.808 88.354 130.124V132.347H87.5909L87.5812 132.352ZM99.1837 131.044L99.971 131.135C99.8454 131.552 99.6136 131.873 99.2803 132.103C98.9421 132.333 98.5122 132.448 97.9906 132.448C97.3336 132.448 96.812 132.266 96.4255 131.897C96.0391 131.533 95.8459 131.02 95.8459 130.359C95.8459 129.674 96.0439 129.142 96.4304 128.763C96.8216 128.385 97.324 128.198 97.9471 128.198C98.5509 128.198 99.0387 128.385 99.4203 128.754C99.8019 129.123 99.9952 129.645 99.9952 130.316C99.9952 130.359 99.9952 130.421 99.9903 130.502H96.6332C96.6622 130.948 96.8023 131.293 97.0535 131.528C97.3047 131.767 97.6186 131.882 97.9954 131.882C98.2756 131.882 98.5122 131.815 98.7103 131.681C98.9083 131.552 99.0677 131.336 99.1788 131.044H99.1837ZM96.6767 129.932H99.1933C99.1595 129.592 99.0629 129.333 98.9035 129.166C98.662 128.902 98.3432 128.768 97.9568 128.768C97.6041 128.768 97.3095 128.873 97.0728 129.084C96.8313 129.295 96.7009 129.578 96.6767 129.932ZM104.313 131.14L105.067 131.034C105.11 131.307 105.226 131.518 105.424 131.662C105.618 131.806 105.888 131.877 106.236 131.877C106.584 131.877 106.845 131.81 107.014 131.686C107.183 131.556 107.27 131.408 107.27 131.235C107.27 131.077 107.192 130.958 107.043 130.867C106.941 130.804 106.68 130.728 106.265 130.637C105.705 130.507 105.318 130.397 105.101 130.306C104.883 130.215 104.719 130.086 104.608 129.918C104.497 129.755 104.439 129.573 104.439 129.372C104.439 129.19 104.487 129.022 104.579 128.869C104.671 128.715 104.797 128.586 104.956 128.481C105.077 128.404 105.236 128.337 105.439 128.279C105.642 128.227 105.864 128.198 106.101 128.198C106.453 128.198 106.762 128.246 107.033 128.337C107.299 128.428 107.497 128.552 107.627 128.711C107.753 128.869 107.84 129.079 107.888 129.338L107.144 129.429C107.11 129.218 107.009 129.056 106.849 128.941C106.69 128.826 106.458 128.763 106.159 128.763C105.806 128.763 105.56 128.816 105.41 128.921C105.26 129.027 105.183 129.147 105.183 129.285C105.183 129.377 105.217 129.453 105.28 129.525C105.342 129.602 105.439 129.659 105.569 129.712C105.647 129.736 105.869 129.793 106.246 129.884C106.787 130.014 107.163 130.119 107.376 130.205C107.588 130.287 107.758 130.411 107.878 130.57C107.999 130.728 108.062 130.924 108.062 131.159C108.062 131.389 107.985 131.604 107.84 131.81C107.69 132.012 107.477 132.17 107.197 132.28C106.917 132.39 106.603 132.448 106.246 132.448C105.661 132.448 105.212 132.337 104.908 132.117C104.598 131.897 104.405 131.571 104.323 131.14H104.313ZM118.616 131.691C118.365 131.945 118.09 132.136 117.79 132.261C117.495 132.385 117.172 132.452 116.829 132.452C116.196 132.452 115.689 132.261 115.317 131.873C115.013 131.556 114.863 131.202 114.863 130.814C114.863 130.469 114.989 130.153 115.235 129.875C115.481 129.597 115.853 129.348 116.341 129.137C116.061 128.85 115.877 128.61 115.781 128.428C115.689 128.246 115.641 128.073 115.641 127.906C115.641 127.565 115.786 127.278 116.08 127.024C116.375 126.775 116.742 126.65 117.186 126.65C117.611 126.65 117.959 126.77 118.23 127C118.495 127.235 118.635 127.518 118.635 127.848C118.635 128.38 118.244 128.84 117.462 129.214L118.577 130.498C118.703 130.272 118.804 130.014 118.872 129.717L119.664 129.87C119.529 130.359 119.345 130.761 119.114 131.077C119.399 131.422 119.722 131.705 120.085 131.94L119.573 132.486C119.263 132.309 118.945 132.045 118.616 131.695V131.691ZM117.061 128.768C117.394 128.591 117.607 128.437 117.703 128.303C117.8 128.174 117.848 128.025 117.848 127.863C117.848 127.671 117.78 127.518 117.65 127.398C117.515 127.278 117.346 127.216 117.148 127.216C116.94 127.216 116.771 127.278 116.636 127.398C116.496 127.518 116.428 127.666 116.428 127.839C116.428 127.925 116.452 128.016 116.5 128.112C116.549 128.208 116.626 128.308 116.723 128.414L117.061 128.768ZM118.133 131.149L116.732 129.587C116.322 129.808 116.042 130.014 115.897 130.205C115.752 130.397 115.679 130.584 115.679 130.771C115.679 130.996 115.781 131.235 115.979 131.48C116.182 131.724 116.462 131.844 116.834 131.844C117.061 131.844 117.302 131.782 117.544 131.652C117.79 131.523 117.983 131.36 118.133 131.154V131.149ZM126.948 126.746H127.712V127.546H126.948V126.746ZM125.982 133.933L126.127 133.348C126.282 133.382 126.403 133.401 126.49 133.401C126.644 133.401 126.76 133.353 126.837 133.262C126.915 133.171 126.953 132.936 126.953 132.563V128.294H127.716V132.577C127.716 133.08 127.644 133.425 127.499 133.621C127.316 133.875 127.011 134.005 126.581 134.005C126.374 134.005 126.176 133.981 125.982 133.933ZM135.653 131.049L136.44 131.14C136.314 131.556 136.087 131.877 135.749 132.107C135.411 132.337 134.981 132.452 134.46 132.452C133.803 132.452 133.276 132.27 132.895 131.901C132.508 131.537 132.315 131.025 132.315 130.363C132.315 129.678 132.513 129.147 132.899 128.768C133.291 128.39 133.793 128.203 134.416 128.203C135.02 128.203 135.513 128.39 135.889 128.758C136.271 129.127 136.464 129.65 136.464 130.32C136.464 130.363 136.459 130.426 136.459 130.507H133.102C133.131 130.953 133.271 131.298 133.523 131.533C133.774 131.772 134.088 131.887 134.464 131.887C134.745 131.887 134.981 131.82 135.179 131.686C135.377 131.556 135.532 131.341 135.648 131.049H135.653ZM133.146 129.937H135.658C135.624 129.597 135.527 129.338 135.368 129.171C135.126 128.907 134.807 128.773 134.426 128.773C134.073 128.773 133.779 128.878 133.542 129.089C133.3 129.3 133.17 129.583 133.146 129.937ZM141.918 132.361L140.536 128.299H141.328L142.043 130.646L142.309 131.518C142.319 131.475 142.401 131.192 142.541 130.68L143.256 128.299H144.038L144.714 130.656L144.941 131.432L145.197 130.646L145.965 128.299H146.709L145.304 132.361H144.512L143.797 129.928L143.623 129.233L142.71 132.361H141.913H141.918ZM154.129 131.053L154.916 131.144C154.79 131.561 154.559 131.882 154.225 132.112C153.887 132.342 153.457 132.457 152.936 132.457C152.279 132.457 151.757 132.275 151.371 131.906C150.984 131.542 150.791 131.029 150.791 130.368C150.791 129.683 150.989 129.151 151.375 128.773C151.767 128.394 152.274 128.208 152.892 128.208C153.496 128.208 153.984 128.394 154.365 128.763C154.747 129.132 154.94 129.654 154.94 130.325C154.94 130.368 154.94 130.431 154.935 130.512H151.578C151.602 130.958 151.747 131.303 151.999 131.537C152.25 131.777 152.564 131.892 152.94 131.892C153.221 131.892 153.457 131.825 153.655 131.691C153.853 131.561 154.008 131.346 154.124 131.053H154.129ZM151.622 129.942H154.138C154.105 129.602 154.008 129.343 153.849 129.175C153.607 128.912 153.288 128.778 152.902 128.778C152.549 128.778 152.255 128.883 152.018 129.094C151.776 129.305 151.646 129.587 151.622 129.942ZM159.548 126.756H160.312V132.366H159.548V126.756ZM165.166 126.756H165.929V132.366H165.166V126.756ZM173.885 131.058L174.672 131.149C174.547 131.566 174.315 131.887 173.981 132.117C173.643 132.347 173.213 132.462 172.692 132.462C172.035 132.462 171.513 132.28 171.127 131.911C170.74 131.547 170.547 131.034 170.547 130.373C170.547 129.688 170.74 129.156 171.131 128.778C171.523 128.399 172.03 128.212 172.648 128.212C173.252 128.212 173.745 128.399 174.121 128.768C174.503 129.137 174.696 129.659 174.696 130.33C174.696 130.373 174.696 130.435 174.691 130.517H171.334C171.363 130.962 171.503 131.307 171.755 131.542C172.006 131.782 172.32 131.897 172.697 131.897C172.977 131.897 173.213 131.83 173.411 131.695C173.609 131.566 173.764 131.35 173.88 131.058H173.885ZM171.378 129.947H173.89C173.856 129.607 173.759 129.348 173.6 129.18C173.358 128.917 173.039 128.782 172.653 128.782C172.3 128.782 172.006 128.888 171.769 129.099C171.528 129.309 171.397 129.592 171.373 129.947H171.378ZM179.314 132.371V128.308H180V128.921C180.174 128.634 180.338 128.442 180.488 128.351C180.638 128.26 180.797 128.212 180.976 128.212C181.232 128.212 181.497 128.289 181.758 128.433L181.497 129.075C181.314 128.974 181.125 128.926 180.937 128.926C180.768 128.926 180.618 128.974 180.488 129.06C180.353 129.151 180.261 129.276 180.203 129.439C180.116 129.683 180.077 129.951 180.077 130.244V132.371H179.314ZM185.869 133.938L185.782 133.291C185.951 133.329 186.096 133.353 186.221 133.353C186.391 133.353 186.526 133.329 186.627 133.276C186.733 133.224 186.811 133.157 186.878 133.061C186.927 132.994 187.004 132.821 187.11 132.548C187.125 132.51 187.149 132.452 187.178 132.381L185.468 128.308H186.289L187.226 130.661C187.347 130.958 187.458 131.274 187.555 131.604C187.642 131.288 187.748 130.982 187.869 130.68L188.83 128.313H189.593L187.883 132.443C187.7 132.888 187.555 133.195 187.453 133.363C187.318 133.593 187.163 133.756 186.989 133.861C186.811 133.966 186.603 134.019 186.362 134.019C186.217 134.019 186.052 133.99 185.869 133.933V133.938Z" fill="black"/>
</g>
<defs>
<clipPath id="clip0_692_1820">
<rect width="160" height="100" fill="white" transform="translate(42 34)"/>
</clipPath>
</defs>
</svg>
