<svg width="835" height="209" viewBox="0 0 835 209" fill="none" xmlns="http://www.w3.org/2000/svg">
<path d="M194.324 156.91C176.288 188.057 142.671 209 104.176 209C46.6414 209 0 162.214 0 104.5C0 46.7862 46.6414 0 104.176 0C143.157 0 177.138 21.4761 195 53.2763L140.284 84.9071C133.316 71.8475 119.759 62.9863 104.176 62.9863C81.4791 62.9863 63.0793 81.7863 63.0793 104.977C63.0793 128.168 81.4791 146.968 104.176 146.968C119.613 146.968 133.061 138.272 140.086 125.414L194.324 156.91Z" fill="white"/>
<path d="M640.676 156.91C658.712 188.057 692.329 209 730.824 209C788.359 209 835 162.214 835 104.5C835 46.7862 788.359 0 730.824 0C691.843 0 657.862 21.4761 640 53.2763L694.716 84.9071C701.684 71.8475 715.241 62.9863 730.824 62.9863C753.521 62.9863 771.921 81.7863 771.921 104.977C771.921 128.168 753.521 146.968 730.824 146.968C715.387 146.968 701.939 138.272 694.914 125.414L640.676 156.91Z" fill="white"/>
<rect x="216" y="5" width="63" height="196" fill="white"/>
<rect x="557" y="5" width="63" height="196" fill="white"/>
<path d="M370 6H307L382 201.5H453L529 6H464L417.5 122L370 6Z" fill="white"/>
</svg>
