<svg width="168" height="24" viewBox="0 0 168 24" fill="none" xmlns="http://www.w3.org/2000/svg">
<path d="M63.3795 7.47097C63.1904 8.20645 63.8334 8.90323 64.5142 8.82581C65.7245 8.55484 65.7245 6.65806 64.2494 6.65806C63.7956 6.92903 63.5308 7.00645 63.3795 7.47097ZM160.922 7.97419C160.733 8.70968 161.376 9.48387 162.057 9.32903C163.456 9.13548 163.381 7.08387 161.868 7.08387C161.376 7.35484 161.111 7.47097 160.922 7.97419ZM148.744 13.2C148.744 12.3871 148.668 10.6065 148.933 10.1419C149.387 9.52258 151.202 9.67742 152.11 9.6H152.715C153.925 9.6 153.774 10.4129 153.774 11.4968V14.0129C153.585 15.0194 153.774 15.9871 153.585 16.8774C153.396 17.6903 152.98 18.3097 152.526 18.929C152.185 19.3935 151.542 20.0129 150.673 19.7419C148.29 19.1226 148.744 16.0645 148.744 13.2ZM133.464 15.3677C133.01 17.6129 133.199 20.3226 134.598 21.3677C134.863 21.5613 135.128 21.8323 135.468 21.9097C136.943 22.4516 138.002 21.5613 138.796 20.9032C139.25 20.5548 139.78 20.0903 140.536 20.2839C141.671 20.5548 142.011 21.7161 143.259 21.9871C143.865 22.0645 144.394 21.7935 144.848 21.6387C145.567 21.1742 146.058 20.7484 146.966 20.5548C147.495 20.4774 147.949 20.7484 148.176 20.9032C148.895 21.2516 149.5 21.7935 150.37 21.9871C150.899 22.0645 151.353 21.7935 151.58 21.7161C152.299 21.2516 152.791 20.7097 153.698 20.5548C154.152 20.4774 154.568 20.7484 154.833 20.8258C155.438 21.1742 155.892 21.8323 156.762 21.9871C158.237 22.3355 159.75 20.9806 160.695 20.5548C161.149 20.3613 161.679 20.3613 162.095 20.5548C162.435 20.8258 162.813 21.0968 163.154 21.3677C163.759 21.8323 165.007 22.1806 166.142 21.9097C166.482 21.8323 166.747 21.7161 167.012 21.5613C167.276 21.3677 168.071 20.9419 167.995 20.4774C167.995 20.4774 167.995 20.4 167.919 20.4C167.579 20.3226 166.785 20.671 166.331 20.671C164.856 20.9419 163.797 19.7806 163.418 18.8903C163.154 18.271 162.965 17.5355 162.813 16.7226C162.813 16.2581 162.738 15.9097 162.738 15.4839C162.549 14.5935 162.738 13.7032 161.943 13.5097C160.733 13.2387 160.96 15.4065 160.809 16.2968C160.544 18.0774 160.204 19.0839 158.691 19.7032C157.896 20.0516 157.027 20.0516 156.421 19.5097C155.362 18.6194 155.362 16.9935 155.362 15.0194V12.3097C155.362 11.5742 155.173 10.0645 155.552 9.6C156.005 8.98064 157.216 9.32903 157.934 9.05806C158.123 8.98064 158.388 8.7871 158.388 8.43871C158.199 7.43226 156.384 8.16774 155.741 7.62581C154.946 7.00645 156.005 4.37419 154.871 3.94839C154.53 3.75484 154.152 4.02581 154.001 4.21935C153.66 4.68387 153.736 5.72903 153.736 6.54194C153.736 6.89032 153.736 7.16129 153.66 7.43226C153.585 7.62581 153.396 7.78064 153.207 7.89677C152.942 7.97419 152.601 7.89677 152.148 7.97419C151.542 7.97419 151.013 7.97419 150.408 8.05161C150.067 8.05161 149.613 8.12903 149.273 8.05161C147.798 7.70323 149.538 4.02581 147.685 4.02581C147.344 4.21935 147.155 4.29677 146.966 4.64516C146.701 5.45806 147.042 6.89032 146.777 7.70323C146.436 8.51613 144.924 7.97419 144.394 8.7871C144.318 8.86452 144.205 9.05806 144.318 9.32903C144.583 10.4903 146.247 9.79355 146.701 10.4903C146.966 10.9548 146.89 12.3871 146.89 13.2C146.89 15.5226 146.815 17.2258 146.02 18.6968C145.831 19.0452 145.68 19.3161 145.302 19.5871C145.037 19.7806 144.848 19.9355 144.508 20.129C144.167 20.3226 143.638 20.3226 143.297 20.2065C141.898 19.6645 141.973 17.7677 141.709 16.1806C141.52 15.2903 141.898 13.9355 140.99 13.7419C140.007 13.5484 139.931 15.4452 139.78 16.2581C139.439 18.0387 138.91 19.8581 137.132 20.2065C136.073 20.4774 135.468 19.5871 135.279 18.7742C135.203 18.4258 135.203 17.9613 135.203 17.5355C135.128 16.9161 135.203 16.1806 135.279 15.5613C135.355 14.7484 135.09 13.5097 134.296 13.6645C133.653 13.5484 133.539 14.6323 133.464 15.3677ZM108.123 2.70968C108.198 3.17419 108.917 2.98065 109.258 2.90323C110.241 2.63226 111.451 2.09032 111.716 3.44516C111.792 5.76774 111.905 8.20645 111.981 10.529C111.981 11.2645 111.981 11.9613 112.056 12.6968C112.056 13.5871 112.056 14.5935 112.132 15.4839V16.2581C112.321 17.2645 112.056 18.8516 112.851 19.2387C113.304 19.4323 113.569 19.0452 113.645 18.6968C113.91 18.0774 113.91 17.1871 113.985 16.3742V15.6387C113.985 14.8258 113.985 14.0129 114.061 13.2C114.061 11.5742 114.137 9.87097 114.137 8.24516V5.10968V3.6V2.59355C114.212 2.32258 114.326 2.05161 114.59 1.97419C115.12 1.70323 117.314 1.50968 118.183 1.70323C118.902 1.78065 119.507 1.89677 120.112 1.97419C122.306 2.51613 124.235 3.6 125.483 5.22581C126.202 6.11613 126.693 7.12258 127.147 8.28387C127.336 8.90323 127.412 9.63871 127.601 10.4516C127.866 12.1548 127.525 14.2065 127.072 15.4839C125.672 19.2387 122.949 20.9806 118.751 21.871C118.146 22.0645 117.427 21.9484 116.746 22.1419H114.893C114.553 22.1419 114.099 22.1419 113.758 22.0645C113.304 22.0645 112.775 21.9871 112.359 21.9871C111.754 21.9097 111.149 21.7935 110.43 21.7161C110.09 21.6387 109.636 21.5226 109.295 21.6387V21.7161C109.484 22.0645 109.9 22.0645 110.279 22.2581C111.149 22.6065 112.132 22.8 113.078 23.071C118.07 24.2323 123.516 22.6065 126.504 20.5548C128.622 19.0452 130.097 17.1484 130.892 14.1677C131.081 13.4323 131.346 12.1161 131.156 11.1871V10.5677C131.081 9.94839 131.081 9.32903 130.892 8.7871C130.627 7.70323 130.286 6.61935 129.757 5.80645C127.601 2.05161 123.819 0 118.108 0C117.843 0 117.578 0 117.238 0.0774194C116.708 0.154839 116.179 0.270968 115.649 0.270968C113.796 0.619355 111.867 0.890322 110.279 1.62581C109.749 1.81935 109.144 1.97419 108.69 2.24516C108.274 2.24516 108.009 2.43871 108.123 2.70968ZM48.3642 18.5806C49.4989 18.5806 50.104 20.4774 48.8937 20.8258C48.0995 21.0968 46.7 20.5548 46.9648 19.6645C47.0404 18.929 47.7591 18.7742 48.3642 18.5806ZM57.0633 18.4258C57.2524 18.4258 57.4037 18.4258 57.5928 18.5032C58.0466 18.6968 58.6518 19.5097 58.387 20.129C58.1979 20.4774 57.8575 20.671 57.4037 20.7484C56.6094 20.9419 55.3991 20.2839 55.7395 19.3935C55.9286 18.7742 56.5337 18.5806 57.0633 18.4258ZM26.1627 15.6387C25.3685 17.5355 26.5031 19.6645 27.5622 20.5935C28.8859 21.6774 30.9661 22.2194 33.1598 21.6C34.2188 21.2516 35.0887 20.5935 36.2234 20.4387C36.4881 20.3613 36.8285 20.4387 37.0176 20.5161C38.0767 20.8645 39.1357 22.1419 40.5351 21.6774C40.9889 21.4839 41.405 21.329 41.7454 21.0581C42.7287 20.3226 43.4852 19.3548 44.0147 18.1935C44.3551 17.4581 44.6198 16.5677 44.9981 15.871C45.2628 15.5226 45.7923 15.2516 46.3218 15.5226C46.5866 15.6 46.7757 15.7935 46.927 15.9871C47.1161 16.1806 47.2674 16.3355 47.3808 16.529C47.57 16.8 47.4565 17.1484 47.3052 17.3419C47.1161 17.5355 46.8513 17.6903 46.5866 17.8839C46.1327 18.1548 45.7923 18.6194 45.4519 18.9677C44.7333 19.9742 44.8468 20.8645 45.9058 21.4839C47.3808 22.3742 51.0874 22.5677 51.5034 20.5935C51.6925 19.8581 51.3143 19.1613 51.163 18.6194C51.0874 18.3484 50.8226 18.0774 50.8983 17.6129C50.9739 17.1484 51.4278 16.9935 51.6925 16.7226C52.2977 16.1806 52.9028 15.6387 53.6215 15.0968C53.8862 14.9032 54.2266 14.8258 54.6048 15.0194C54.8696 15.0968 55.1343 15.3677 55.3234 15.5613C55.5882 15.7548 56.1934 16.2968 56.1177 16.7226C56.0421 17.071 55.7773 17.2645 55.5126 17.4581C54.7939 17.9226 53.0541 19.4323 54.0375 20.5935C54.2266 20.7871 54.4914 20.9419 54.7561 21.1355C55.21 21.4065 55.8151 21.6 56.3446 21.7548C58.0844 22.2194 60.1268 21.6774 60.4672 20.2452C60.8076 18.8903 59.0678 17.8065 60.3916 16.9161C60.6563 16.8387 60.8455 16.6452 61.1102 16.5677C61.375 16.4903 61.8288 16.2194 62.2449 16.2968C63.1148 16.4903 63.1148 17.4581 63.4552 18.1935C63.909 19.3548 64.6655 21.329 65.8379 21.6774C66.4431 21.871 66.9726 21.4839 67.2374 21.2129C68.1073 20.4774 68.7124 19.4323 69.431 18.4258C69.6958 18.0774 70.1496 17.3419 70.7548 17.4194C71.7382 17.6129 71.8138 19.6645 72.1542 20.671C72.2298 21.1355 72.419 21.5613 72.8728 21.6774C73.4023 21.871 73.8562 20.9419 74.0075 20.5935C74.4613 19.5097 75.0665 17.2645 76.1255 16.9161C76.5794 16.7226 76.9198 17.1097 77.1089 17.3806C77.6384 18.1935 77.4493 19.8194 77.8275 20.8645C77.9031 21.2129 78.2814 21.871 78.8109 21.6774C79.5295 21.4839 79.6051 20.5935 79.8699 19.9742C80.2103 18.8903 80.5885 17.5355 81.6097 17.1871C82.4039 16.9161 82.6687 17.729 82.82 18.1935C83.2738 19.3548 83.5386 21.0581 84.6733 21.6C85.2784 21.871 85.997 21.6 86.4131 21.4065C87.4721 20.8645 88.0016 19.8968 89.3254 19.7032C89.6657 19.6258 90.044 19.7806 90.3087 19.8968C90.9139 20.2452 91.4434 20.7097 92.0485 21.0581C93.7883 22.1419 96.1711 21.6 97.5705 20.7097C98.6295 19.9742 99.4994 18.929 99.9533 17.5742C100.672 15.329 99.159 13.6258 97.684 13.0065C96.625 12.5419 94.7717 12.5419 93.6371 13.0065C93.4479 13.0839 92.6537 13.471 92.8428 13.7419C92.9184 13.9355 93.2967 13.8194 93.4479 13.8194C93.9775 13.7419 94.6582 13.5484 95.3769 13.6258C96.9654 13.8968 98.3648 15.0581 97.7596 17.1097C97.684 17.3806 97.4949 17.729 97.3058 18C96.7006 19.0065 94.6582 20.1677 92.8428 19.6258C91.7838 19.2774 90.9139 18.5419 90.6491 17.4581C90.3844 16.6452 90.3844 15.2903 90.5735 14.4C90.6491 13.9355 90.4978 13.3935 90.044 13.5097C89.5145 13.5871 89.1741 15.2903 88.985 15.8323C88.4555 17.2645 87.5855 18.8903 85.9214 19.1613C85.1271 19.2387 84.7867 18.5419 84.522 18C84.0681 16.8387 83.9168 15.4065 83.6521 14.129C83.463 13.3935 83.463 12.6968 82.7822 12.6194C82.2527 12.5419 81.7988 12.8903 81.6475 13.1613C81.0424 13.9742 80.6641 15.0581 80.059 15.871C79.7942 16.1419 79.4538 16.6839 78.8487 16.6065C77.7897 16.4129 77.6384 14.9032 77.2602 13.8968C77.0711 13.5484 76.8063 12.6581 76.2768 12.8129C75.2178 13.0065 74.8774 15.1355 74.4235 16.1419C74.2344 16.4903 73.8184 17.2258 73.0998 16.8774C71.8894 16.3355 72.5702 13.2774 71.2465 12.929C70.4522 12.7355 69.9227 13.8194 69.658 14.3613C69.0528 15.4452 68.5989 16.8 67.9181 17.7677C67.6534 18.2323 67.313 18.7742 66.7078 18.8516C65.9892 18.929 65.6488 18.2323 65.4975 17.7677C65.1571 16.7613 64.968 15.7161 64.7033 14.5161C64.6276 13.7806 64.6276 13.1613 64.0981 12.8129C63.3795 12.3484 62.8878 13.1613 62.434 13.5484C61.5641 14.1677 60.6942 14.7097 59.7108 15.329C59.446 15.5226 58.9165 15.871 58.387 15.7935C57.8575 15.7161 57.5171 15.2516 57.1767 14.9806C56.4581 14.4387 55.853 13.8194 55.2478 13.2C54.9074 12.8516 54.5292 12.1935 53.924 12.1935C53.8484 12.271 53.6593 12.271 53.5836 12.271C53.1298 12.5419 52.9785 13.1613 52.7137 13.6258C52.2599 14.3613 50.9739 15.7935 50.0662 15.9484C49.5367 16.0258 49.0828 15.4065 48.8559 15.2129C47.986 14.3226 47.2674 13.5097 46.1327 12.9677C45.6789 12.7742 44.9224 12.3484 44.3929 12.6968C43.939 12.9677 43.939 14.3226 43.7878 14.8645C43.2583 16.3742 42.3883 18.1161 41.2537 19.0839C40.7998 19.4323 40.1947 19.9742 39.4004 19.8194C37.9254 19.471 37.6606 17.5742 37.2824 16.0645C37.0933 15.329 37.0176 13.8968 36.4125 13.8194C35.883 13.7419 35.8073 14.1677 35.6939 14.6323C35.6182 15.0968 35.6939 15.5226 35.6939 16.0645V16.8774C35.6182 17.4194 35.6182 17.8839 35.4291 18.3097C34.8996 19.5484 33.1598 20.8258 31.2309 20.4774C30.777 20.4 30.4366 20.4 30.0962 20.2839C29.0372 19.8194 28.4321 19.0452 28.1673 17.6903C28.0917 17.2258 28.243 16.8774 28.3564 16.529C28.8103 15.0968 30.0206 14.8258 31.6847 14.5548C32.2143 14.4774 33.8784 14.7484 34.0675 14.3613C34.2566 14.0129 33.538 13.7419 33.3489 13.6258C32.479 13.1613 31.0796 12.8903 29.8315 13.1613C28.0917 13.2 26.7679 14.2065 26.1627 15.6387ZM0.0278016 21.7161C-0.0478423 22.2581 0.0278016 22.8 0.292555 23.071C0.632952 23.3419 1.35157 23.3419 1.69197 23.071C2.22147 22.6065 2.29712 21.2903 2.48623 20.4774C3.09138 17.4968 3.69653 12.929 4.3395 9.9871C4.52861 9.25161 4.6799 7.27742 5.5498 7.39355C6.53317 7.47097 6.60882 9.90968 6.87357 10.8774C7.32743 13.1226 7.66783 15.2903 8.08387 17.5355C8.34862 18.6968 8.34862 19.9742 8.87813 20.8645C9.33199 21.4839 10.3532 22.2968 11.5257 21.871C12.736 21.329 13.1142 19.7032 13.5302 18.4645L16.9342 9.29032C17.2746 8.20645 17.7285 7.12258 18.0689 6.15484C18.258 5.80645 18.4093 5.26452 18.9388 5.34194C20.2625 5.53548 19.6574 8.47742 19.9221 9.83226C20.1112 13.7806 20.1869 16.7613 20.376 20.5935C20.6407 22.2194 19.9221 24 21.7754 24C21.9645 24 22.1158 24 22.2293 23.9226C23.2126 23.6516 23.2126 22.1419 23.0235 20.9419C23.0235 20.3226 22.9479 19.7806 22.9479 19.1613C22.9479 18.6968 22.8722 18.271 22.8722 17.8065C22.5697 13.2 22.3049 9.6 22.0402 5.03226C21.851 3.79355 22.1158 1.62581 21.5107 0.812903C21.1703 0.348387 20.5273 0.270968 19.7708 0.270968H19.2413C18.7875 0.348387 18.4471 0.348387 18.1823 0.541935C17.5772 1.00645 17.0477 3.05806 16.7829 3.94839C15.7239 6.92903 14.6649 9.87097 13.6059 12.8516C13.152 14.0129 12.8116 15.1742 12.3956 16.3355C12.2065 16.8774 11.9417 17.4968 11.4122 17.5742C10.8827 17.6516 10.6179 17.2258 10.5423 16.8387C10.0884 15.8323 10.0884 14.5161 9.93714 13.4323C9.48328 10.5677 8.95377 7.5871 8.53773 4.72258C8.34862 3.71613 8.27298 1.93548 7.66783 1.39355C7.21397 1.04516 5.81456 0.851613 5.0203 1.12258C3.88564 1.47097 3.80999 3.71613 3.43177 4.99355C2.56187 8.94193 1.69197 14.4387 0.78424 18.3871C0.443843 19.5871 0.216911 20.671 0.0278016 21.7161Z" fill="#1A1A1A"/>
</svg>
