<svg width="180" height="66" viewBox="0 0 180 66" fill="none" xmlns="http://www.w3.org/2000/svg">
<g clip-path="url(#clip0_811_6295)">
<path d="M7.67739 26.5835C11.6809 26.7581 15.6845 26.9513 19.6958 27.0965C20.7105 27.1336 21.4604 27.6744 22.238 28.192C23.2466 28.8625 24.2075 29.6088 25.2422 30.2361C26.6158 31.0674 26.7821 32.2447 26.5388 33.7002C25.7935 38.181 25.1221 42.6617 24.4215 47.1517C23.8282 50.9321 23.2358 54.7124 22.6445 58.4927C22.5521 59.0814 22.295 59.5418 21.6544 59.6144C21.0139 59.687 20.6351 59.3425 20.3856 58.7971C19.1466 56.0994 17.9065 53.4011 16.6654 50.7024C13.8013 44.4499 10.9398 38.1954 8.08083 31.9388C7.44539 30.5513 6.812 29.1607 6.18067 27.7671C6.09586 27.5991 6.03273 27.4211 5.99282 27.2371C5.91736 26.8091 6.07135 26.5418 6.55023 26.5464C6.92595 26.5464 7.30167 26.5464 7.67739 26.5464V26.5835Z" fill="#507C3D"/>
<path d="M31.8744 31.9833L32.3363 26.1119C32.5334 23.5873 32.7121 21.061 32.9369 18.541C33.0462 17.3049 33.6914 16.469 34.8878 15.9947C37.1221 15.1094 39.3226 14.1406 41.5368 13.2135C43.5894 12.3483 45.6374 11.4722 47.6962 10.6224C48.1997 10.4138 48.7309 10.4108 49.159 10.8295C49.5439 11.2049 49.5162 11.6453 49.3977 12.1536C49.0296 13.7188 48.7232 15.2994 48.3875 16.8723C47.7192 19.9893 47.052 23.1047 46.3858 26.2186C46.1286 27.4191 45.913 28.632 45.6081 29.8202C45.5255 30.1542 45.3638 30.4633 45.1368 30.7212C44.9097 30.9792 44.624 31.1783 44.3039 31.3019C43.7157 31.4956 43.1119 31.6378 42.4992 31.7268C41.2181 31.9812 39.9349 32.2207 38.6496 32.4453C37.5302 32.643 36.4046 32.8114 35.2836 32.9999C34.6492 33.1066 34.0178 33.2333 33.3834 33.3414C32.4534 33.5006 31.8113 32.9351 31.8744 31.9833Z" fill="#99AB3D"/>
<path d="M32.0735 52.0698C32.0735 47.9166 32.0735 43.7629 32.0735 39.6087C32.0735 38.3896 32.6633 37.5815 33.8351 37.2571C36.7259 36.4598 39.6203 35.6754 42.5182 34.9039C43.7224 34.584 44.3414 35.2793 44.058 36.5896C43.5314 39.0215 43.0043 41.4525 42.4766 43.8824C41.3556 49.0739 40.2762 54.2731 39.089 59.4507C38.3976 62.4883 36.4944 64.5958 33.675 65.8659C32.8173 66.2522 32.0689 65.7377 32.0674 64.7843C32.0684 60.5487 32.0705 56.3106 32.0735 52.0698Z" fill="#42775B"/>
<path d="M95.7033 29.2132C96.8458 29.2132 97.9114 29.2008 98.9754 29.2286C99.0672 29.2509 99.1531 29.2925 99.2277 29.3505C99.3023 29.4086 99.3638 29.4818 99.4081 29.5655C100.872 32.2436 102.326 34.9295 103.77 37.6231C104.827 39.5946 105.852 41.5847 106.893 43.5655C106.98 43.752 107.115 43.9119 107.284 44.029V29.2673H111.151V52.833C110.073 52.833 108.995 52.8515 107.917 52.8129C107.756 52.8129 107.552 52.5595 107.455 52.3771C105.056 47.9211 102.663 43.462 100.277 38.9998C100.143 38.7495 100.004 38.5023 99.867 38.2535L99.6529 38.2689C99.6018 38.5239 99.5674 38.782 99.5498 39.0415C99.5498 43.343 99.5498 47.6451 99.5498 51.9476V52.8005H95.7002L95.7033 29.2132Z" fill="#42775B"/>
<path d="M74.466 29.2412H78.3018V30.4263C78.3018 37.6233 78.3018 44.8203 78.3018 52.0174C78.3018 52.8471 78.3018 52.8471 77.4933 52.8471C76.5156 52.8471 75.5362 52.8471 74.4799 52.8471V42.6572H67.8448V52.7853H63.9736V29.2644H67.7878C67.797 29.4745 67.814 29.6769 67.814 29.8824C67.814 32.7362 67.8309 35.59 67.8047 38.4438C67.8047 38.9938 67.9587 39.1715 68.5115 39.1622C70.2669 39.1334 72.0223 39.1334 73.7777 39.1622C74.3413 39.1715 74.4799 38.9768 74.4753 38.436C74.4522 35.6023 74.466 32.7702 74.466 29.938V29.2412Z" fill="#42775B"/>
<path d="M28.2133 22.7418C28.0301 23.8759 27.893 24.9158 27.6836 25.9386C27.5296 26.7328 26.6242 26.9924 25.8897 26.4949C23.9526 25.1815 22.0176 23.8667 20.0846 22.5502C16.7832 20.313 13.4802 18.0777 10.1757 15.8446C7.72434 14.1774 5.28678 12.4871 2.83691 10.8153C2.39652 10.5156 2.04852 10.1725 2.12089 9.59314C2.19327 9.01373 2.58284 8.7248 3.09715 8.57338C4.37674 8.19947 5.65172 7.80084 6.94672 7.47791C7.2948 7.41638 7.65327 7.46161 7.97533 7.6077C13.0675 9.74765 18.1382 11.9216 23.2412 14.0523C23.6772 14.2219 24.0742 14.4786 24.4083 14.8069C24.7423 15.1352 25.0064 15.5282 25.1845 15.962C26.0699 17.9706 27.0184 19.953 27.9331 21.9492C28.0563 22.2289 28.1379 22.5286 28.2133 22.7418Z" fill="#42775B"/>
<path d="M127.637 34.301L124.052 35.4135C123.836 34.9607 123.692 34.5189 123.436 34.1511C122.587 32.9259 121.025 32.4515 119.536 32.9382C118.259 33.3585 117.358 34.61 117.352 36.0717C117.34 39.3164 117.329 42.578 117.352 45.8304C117.375 48.6502 119.623 50.0022 122.198 49.1246C123.334 48.7383 124.078 47.5146 124.109 46.073C124.124 45.3175 124.095 44.5619 124.123 43.8064C124.14 43.3877 123.978 43.2532 123.579 43.261C122.604 43.278 121.63 43.261 120.623 43.261V39.9545H127.906C127.906 42.0867 127.923 44.1803 127.895 46.2723C127.875 46.816 127.79 47.3553 127.644 47.8792C126.847 51.008 124.343 53.0074 121.134 52.9981C120.085 52.9981 118.989 52.9209 117.997 52.6103C115.319 51.7682 113.814 49.7426 113.644 47.0341C113.412 43.315 113.515 39.5728 113.498 35.8414C113.522 35.36 113.591 34.8819 113.706 34.4138C114.322 31.132 117.123 29.1713 120.098 29.0709C122.109 29.0029 123.963 29.3598 125.521 30.7272C126.594 31.6651 127.265 32.8455 127.637 34.301Z" fill="#42775B"/>
<path d="M81.1612 29.2456H94.2375V32.7854H85.0462V39.1203H92.9425C92.9425 40.2451 92.9594 41.3035 92.9178 42.365C92.9178 42.4731 92.5667 42.6539 92.3758 42.6554C90.1815 42.6755 87.9873 42.6662 85.793 42.6662H85.0524V49.1803H94.2375V52.8159C94.0034 52.8283 93.8001 52.8484 93.5984 52.8484C89.7104 52.8484 85.8223 52.8391 81.9358 52.87C81.2829 52.87 81.1474 52.6676 81.1504 52.0434C81.1735 44.7197 81.1643 37.3959 81.1658 30.0707L81.1612 29.2456Z" fill="#42775B"/>
<path d="M128.28 52.8547C128.614 51.6835 128.905 50.6436 129.204 49.61C130.907 43.7077 132.61 37.8055 134.313 31.9033C134.527 31.1601 134.731 30.4138 134.929 29.666C135.015 29.3431 135.171 29.1947 135.545 29.2025C136.463 29.2334 137.382 29.2334 138.303 29.2025C138.702 29.1885 138.84 29.357 138.941 29.7123C140.098 33.7512 141.263 37.7875 142.433 41.8212C143.42 45.2358 144.408 48.6505 145.395 52.0651C145.457 52.2814 145.508 52.5024 145.596 52.8485H143.186C141.574 52.8485 141.564 52.8485 141.135 51.2833C140.859 50.2759 140.597 49.2639 140.365 48.2488C140.28 47.8903 140.157 47.7188 139.749 47.7234C137.764 47.7451 135.781 47.7342 133.711 47.7342C133.459 48.6196 133.203 49.5142 132.952 50.4103C132.798 50.9341 132.609 51.4517 132.543 51.9863C132.455 52.6909 132.136 52.9134 131.438 52.8686C130.436 52.8083 129.432 52.8547 128.28 52.8547ZM139.309 44.2578C138.539 41.0131 137.769 37.8287 137.016 34.6427L136.862 34.6597C136.1 37.841 135.336 41.0224 134.561 44.2578H139.309Z" fill="#42775B"/>
<path d="M47.1279 49.015L50.1198 46.8426C51.0314 47.5905 51.8059 48.3954 52.7375 48.9393C53.8154 49.5759 55.0812 49.4986 56.2791 49.1943C57.3401 48.9254 58.1162 47.8114 58.1654 46.6371C58.2378 44.9561 57.588 43.8915 55.9619 43.2287C54.5761 42.6616 53.1163 42.2599 51.752 41.6434C50.8605 41.2388 50.038 40.696 49.3145 40.035C47.8655 38.7 47.6345 36.8984 47.8101 35.049C48.1796 31.1523 51.2762 29.1205 54.516 29.0648C56.7011 29.0262 58.7752 29.3074 60.4783 30.8386C60.9525 31.2635 61.3544 31.7657 61.8349 32.2864C60.8093 33.1516 59.8731 33.9442 58.8722 34.7909C58.6643 34.5545 58.478 34.3367 58.2855 34.1265C57.1122 32.8472 55.6124 32.5397 53.9894 32.7839C52.659 32.9832 51.8952 33.8994 51.7012 35.3194C51.5565 36.3901 52.1632 37.4207 53.395 37.9893C54.3759 38.4404 55.3968 38.7958 56.427 39.1512C57.8128 39.6332 59.1786 40.1246 60.2996 41.1289C61.2306 41.9253 61.8522 43.0255 62.055 44.2361C62.3322 45.9357 62.3507 47.6244 61.6393 49.236C60.7154 51.3311 59.0216 52.4606 56.8412 52.8453C54.7362 53.2161 52.6359 53.1543 50.648 52.2396C49.1636 51.5551 48.0426 50.4566 47.1279 49.015Z" fill="#42775B"/>
<path d="M143.719 29.2329H147.858C149.17 34.9487 150.488 40.6825 151.812 46.4344L151.943 46.4514L155.868 29.2453H159.989C159.445 31.3002 158.911 33.3166 158.375 35.3345L154.364 50.4238C154.191 51.0696 154 51.7124 153.852 52.3644C153.768 52.743 153.578 52.8681 153.199 52.8573C152.302 52.8341 151.404 52.8341 150.506 52.8573C150.109 52.8573 149.937 52.7368 149.827 52.3243C148.178 46.0409 146.516 39.7575 144.841 33.4742C144.467 32.0836 144.102 30.693 143.719 29.2329Z" fill="#42775B"/>
<path d="M170.988 52.8035V32.7343H165.839V29.2563H180.005V32.6988H174.848V52.8035H170.988Z" fill="#42775B"/>
<path d="M164.853 52.8424C163.664 52.8424 162.52 52.8547 161.376 52.8254C161.254 52.8254 161.12 52.5859 161.028 52.4345C160.981 52.3572 161.017 52.2305 161.017 52.1254C161.017 44.7245 161.017 37.3235 161.017 29.9225V29.2612H164.846L164.853 52.8424Z" fill="#42775B"/>
<path d="M33.1812 0.000122233C33.7633 -0.021509 33.9681 0.276693 33.8234 0.854556C33.4384 2.39964 33.038 3.93083 32.6454 5.46819C31.7862 8.82567 30.9346 12.1862 30.0554 15.5375C29.9876 15.7971 29.7259 16.0011 29.5549 16.2359C29.3132 16.0443 28.9621 15.9037 28.8451 15.655C27.2344 12.2326 25.6561 8.79631 24.0716 5.36312C23.8345 4.85015 23.5943 4.34028 23.3648 3.81804C23.0322 3.0733 23.1231 2.86163 23.9038 2.63913C26.1427 2.00874 28.3878 1.38143 30.6313 0.744855C31.5121 0.494551 32.3882 0.233431 33.1812 0.000122233Z" fill="#507C3D"/>
<path d="M13.1575 23.3216C11.1557 23.269 9.16316 23.2289 7.16754 23.1547C6.24364 23.1207 5.3336 23.0002 4.41586 22.9523C4.03245 22.9291 3.8569 22.7576 3.69522 22.4038C2.62966 20.0522 1.5256 17.7175 0.443101 15.3736C0.262736 15.0019 0.117859 14.6139 0.0104083 14.2148C-0.032707 14.0449 0.0658422 13.6864 0.164391 13.6648C0.421543 13.6076 0.780324 13.5829 0.972802 13.7158C3.26253 15.2469 5.52916 16.8059 7.80503 18.3649C9.62357 19.601 11.4452 20.8371 13.2653 22.0731C13.3946 22.1424 13.5079 22.2382 13.5979 22.3543C13.7149 22.5506 13.9058 22.8411 13.8412 22.9724C13.7318 23.1949 13.4377 23.3231 13.2252 23.4915L13.1575 23.3216Z" fill="#99AB3D"/>
<path d="M56.7593 65.3433H55.7523V64.6881C55.7523 63.3254 55.7523 61.9611 55.7523 60.5983C55.7523 59.7917 55.432 59.3313 54.7622 59.1397C54.0923 58.9481 53.2223 59.2402 52.9282 59.8443C52.7166 60.2669 52.5934 60.7286 52.5664 61.2009C52.5202 62.559 52.5494 63.9202 52.5494 65.3278H51.51C51.51 64.6758 51.51 64.0129 51.51 63.3485C51.51 62.4678 51.51 61.5871 51.51 60.7064C51.5023 59.5708 51.1497 59.1196 50.2489 59.081C49.325 59.0408 48.4673 59.7516 48.4211 60.6663C48.3488 62.0847 48.3303 63.5061 48.2872 64.9261C48.2872 65.0481 48.2718 65.1717 48.261 65.3309H47.4033V58.4645H48.1363C48.1532 58.7241 48.1702 58.9868 48.1963 59.3808C48.3725 59.275 48.5399 59.1551 48.6968 59.0223C49.7377 57.95 51.2606 58.0195 52.1876 59.2046C52.4709 59.5693 52.6233 59.4024 52.8528 59.1428C53.8198 58.0612 55.4597 57.9253 56.2296 58.942C56.5441 59.3972 56.7216 59.9335 56.7408 60.487C56.8009 62.0955 56.7593 63.7055 56.7593 65.3433Z" fill="#B3B3B3"/>
<path d="M78.4679 65.3403H77.624C77.5994 65.0869 77.5778 64.866 77.5532 64.6002C77.4269 64.6404 77.3022 64.6404 77.2452 64.7037C76.0888 66.0495 74.4735 65.5752 73.5897 64.6728C71.999 63.052 72.3963 60.1627 73.6451 59.0008C74.549 58.1603 75.7208 58.0336 76.7617 58.7181C76.9742 58.8587 77.2052 58.9715 77.5547 59.1692V55.7886H78.4648L78.4679 65.3403ZM73.6035 61.853C73.6836 62.3645 73.6928 62.8373 73.8407 63.2637C74.0886 63.9837 74.5367 64.5492 75.3666 64.6543C76.1966 64.7594 76.8587 64.472 77.2344 63.7041C77.8011 62.5499 77.7133 61.3478 77.2514 60.1813C76.9434 59.4087 76.2967 59.0765 75.379 59.1244C75.0327 59.1471 74.7024 59.2788 74.4351 59.5007C74.1678 59.7226 73.977 60.0235 73.8899 60.3605C73.7452 60.8565 73.6898 61.3787 73.6035 61.853Z" fill="#B3B3B3"/>
<path d="M106.228 65.3389C105.612 65.4795 105.185 65.3389 105.125 64.5123C104.87 64.6278 104.621 64.7578 104.38 64.9017C103.359 65.597 102.267 65.7407 101.146 65.2416C99.8743 64.6745 99.7034 62.8034 100.894 62.0896C101.51 61.725 102.28 61.606 102.982 61.433C103.639 61.2784 104.315 61.1888 104.962 61.0745C105.179 59.6839 104.672 59.1014 103.353 59.0751C102.469 59.0566 101.718 59.1879 101.311 60.1382C101.237 60.3112 100.764 60.3128 100.476 60.3931L100.299 60.1845C100.577 59.7519 100.775 59.2327 101.145 58.9052C102.015 58.1326 104.115 58.094 105.159 58.6595C105.991 59.1091 106.031 59.8724 106.064 60.6341C106.109 61.6168 106.064 62.6041 106.092 63.5883C106.108 64.1647 106.18 64.7394 106.228 65.3389ZM104.917 61.8857L102.263 62.4218C101.548 62.564 101.257 62.8853 101.24 63.5435C101.226 64.1616 101.559 64.5556 102.229 64.7039C103.952 65.0732 105.137 63.8572 104.917 61.8857Z" fill="#B3B3B3"/>
<path d="M136.338 62.0879C136.266 63.375 136.711 64.2001 137.624 64.5956C138.537 64.9912 139.84 64.6342 140.22 63.7613C140.528 63.0428 140.947 63.3827 141.377 63.392C141.263 64.5137 139.952 65.4006 138.913 65.5088C136.897 65.7143 135.371 64.3221 135.226 62.4279C135.097 60.6232 135.73 59.1631 137.127 58.5327C137.572 58.3355 138.057 58.2461 138.544 58.2719C139.03 58.2977 139.503 58.4378 139.925 58.681C140.347 58.9242 140.707 59.2636 140.974 59.6719C141.241 60.0801 141.409 60.5457 141.464 61.0311C141.498 61.3571 141.54 61.6831 141.587 62.0833L136.338 62.0879ZM140.446 61.232C140.365 59.4659 139.042 58.9143 137.88 59.1631C136.928 59.3639 136.244 60.3992 136.494 61.232H140.446Z" fill="#B3B3B3"/>
<path d="M165.317 62.0941C165.2 63.1386 165.56 63.9343 166.361 64.4349C166.696 64.6465 167.083 64.7596 167.479 64.7615C167.875 64.7634 168.264 64.654 168.601 64.4458C168.824 64.3362 169.005 64.1566 169.117 63.9343C169.357 63.2607 169.811 63.2112 170.387 63.3889C170.276 64.4241 169.103 65.3975 167.962 65.5103C165.141 65.7776 163.745 63.4152 164.364 60.7468C164.672 59.4489 165.492 58.6609 166.756 58.3535C167.871 58.0815 168.861 58.4106 169.648 59.2218C170.394 59.9944 170.601 60.9724 170.537 62.0941H165.317ZM169.41 61.2397C169.431 59.9325 168.678 59.1229 167.469 59.1276C166.191 59.1276 165.409 59.9356 165.443 61.2397H169.41Z" fill="#B3B3B3"/>
<path d="M67.9752 62.1128H62.7675C62.6305 63.2129 63.2556 64.381 64.2088 64.6328C65.1019 64.8677 66.1721 64.8646 66.788 63.5945C66.9974 63.1619 67.3716 63.2639 67.6457 63.3844C68.0276 63.5528 67.7596 63.7938 67.6288 64.038C66.9174 65.3513 65.7148 65.6371 64.4044 65.4873C63.1633 65.3451 62.2794 64.6266 61.8991 63.3813C61.4248 61.8239 61.5603 60.3715 62.7352 59.1601C63.6113 58.2547 64.7231 58.0384 65.8795 58.4556C67.1299 58.9067 67.8366 59.8662 67.9721 61.212C67.9983 61.4731 67.9752 61.7451 67.9752 62.1128ZM66.8542 61.2553C66.8127 59.8013 66.0612 59.0659 64.7246 59.1153C63.6113 59.1555 62.8353 60.0578 62.9046 61.2553H66.8542Z" fill="#B3B3B3"/>
<path d="M152.102 65.3451H151.077C151.077 64.109 151.077 62.8992 151.077 61.6894C151.077 61.4175 151.077 61.144 151.077 60.8721C151.063 59.636 150.615 59.072 149.517 59.0952C148.419 59.1184 147.669 59.6406 147.612 60.869C147.555 62.2086 147.591 63.5512 147.583 64.8939C147.583 65.0345 147.563 65.1767 147.552 65.3435H146.604V58.4803C147.42 58.3551 147.42 58.3551 147.51 59.4073C147.8 59.1632 148.026 58.984 148.24 58.7893C149.184 57.9318 151.12 58.1712 151.743 59.2435C151.936 59.5376 152.055 59.8743 152.09 60.2247C152.122 61.9181 152.102 63.61 152.102 65.3451Z" fill="#B3B3B3"/>
<path d="M95.7628 60.3081L94.9175 60.492C94.2014 59.1014 93.6856 58.8387 92.3567 59.2034C91.5375 59.4274 91.1433 60.0856 91.0741 60.8535C91.0026 61.6414 91.0362 62.4354 91.1741 63.2144C91.3697 64.3068 92.0195 64.7332 93.1759 64.7116C94.1383 64.6946 94.6588 64.2264 94.8928 63.1665C94.9052 63.1078 94.9252 63.0506 94.9467 62.9765L95.8583 63.0892C95.7136 64.5957 94.3477 65.4501 93.3453 65.5042C91.6638 65.5938 90.5336 64.7734 90.1594 63.3256C89.7467 61.7311 89.7744 60.1103 91.1972 58.9144C92.0364 58.2083 93.0312 58.1048 94.0629 58.4154C94.9868 58.6997 95.538 59.3316 95.7628 60.3081Z" fill="#B3B3B3"/>
<path d="M130.069 62.9779L130.964 63.0969C130.866 64.4952 129.552 65.4253 128.522 65.5026C127.002 65.6185 125.763 64.866 125.338 63.5743C124.936 62.3609 124.99 61.0418 125.492 59.8661C125.893 58.868 127.372 58.1202 128.571 58.287C129.862 58.4663 130.608 59.1307 130.795 60.2956L130.003 60.5104L129.882 60.2153C129.518 59.3253 128.924 58.9993 127.841 59.092C127.101 59.1569 126.291 59.8847 126.2 60.7298C126.106 61.5219 126.109 62.3227 126.211 63.1139C126.365 64.146 127.147 64.7254 128.165 64.7254C129.276 64.7115 129.754 64.2835 130.069 62.9779Z" fill="#B3B3B3"/>
<path d="M159.87 58.3873V59.1598L158.757 59.2247C158.757 60.8394 158.715 62.4231 158.777 64.0037C158.802 64.6217 159.339 64.6217 159.883 64.4997C159.94 64.7484 160 65.0049 160.057 65.2506C158.692 65.8439 157.721 65.2259 157.716 63.809C157.716 62.3026 157.716 60.7945 157.716 59.2464L156.869 59.1567V58.4445L157.71 58.3873C157.71 57.9238 157.621 57.4525 157.738 57.0323C157.838 56.6769 158.178 56.391 158.412 56.0728L158.623 56.1778V58.3888L159.87 58.3873Z" fill="#B3B3B3"/>
<path d="M179.082 58.6442C179.046 59.2159 178.88 59.4986 178.21 59.3534C177.132 59.1201 176.626 60.0595 176.594 61.1272C176.554 62.5069 176.584 63.8882 176.584 65.3205H175.585V58.4464H176.418C176.436 58.7292 176.455 58.9918 176.486 59.4538C177.234 58.5592 177.967 57.7774 179.082 58.6442Z" fill="#B3B3B3"/>
<path d="M112.334 65.3402H111.47V55.8086H112.334V65.3402Z" fill="#B3B3B3"/>
<path d="M84.9041 65.3401H84.0049V58.5047C84.8964 58.2791 84.9165 58.3208 84.9057 59.2571C84.8857 61.0123 84.9057 62.7691 84.9057 64.5259L84.9041 65.3401Z" fill="#B3B3B3"/>
<path d="M84.0117 55.7778H84.9002C85.1958 56.7976 85.0542 56.9784 84.0117 56.8733V55.7778Z" fill="#B3B3B3"/>
<path d="M140.446 61.2318H136.49C136.244 60.4067 136.927 59.3638 137.876 59.1629C139.046 58.9173 140.364 59.4658 140.446 61.2318Z" fill="white"/>
<path d="M169.41 61.2396H165.443C165.41 59.9355 166.192 59.1321 167.47 59.1275C168.679 59.1228 169.432 59.9325 169.41 61.2396Z" fill="white"/>
<path d="M66.8544 61.2487H62.9047C62.8354 60.0513 63.6115 59.149 64.7248 59.1088C66.0583 59.0593 66.8128 59.7948 66.8544 61.2487Z" fill="white"/>
</g>
<defs>
<clipPath id="clip0_811_6295">
<rect width="180" height="66" fill="white"/>
</clipPath>
</defs>
</svg>
