<svg width="142" height="110" viewBox="0 0 142 110" fill="none" xmlns="http://www.w3.org/2000/svg">
<path fill-rule="evenodd" clip-rule="evenodd" d="M80.3 72.3525C80.939 70.0719 81.5155 67.7886 82.0721 65.5081C81.4388 65.5195 80.7913 65.5365 80.1381 65.5565C80.1693 67.7373 80.2204 70.0008 80.3 72.3525ZM124.561 72.8108C125.021 78.5449 124.97 84.4697 124.706 90.477C122.732 84.2077 121.531 77.9413 120.918 71.6749C118.864 71.04 116.862 70.4335 114.874 69.8698C115.53 73.9952 117.214 84.3871 115.206 90.477C115.201 84.3387 112.045 75.2821 110.793 68.768C106.735 67.7316 102.625 66.8889 98.138 66.3195C96.309 73.1952 94.96 80.478 94.0228 88.1025C93.9064 89.0535 92.7903 90.4115 91.7338 90.4742C91.305 90.4998 90.5893 90.2435 90.4842 89.7425C88.7774 81.4916 88.0219 73.6678 87.9623 65.5394C87.079 65.5138 86.1788 65.4995 85.2586 65.491C83.4268 73.3005 81.825 81.1101 80.5811 88.9168C80.3994 90.0613 79.1072 90.608 78.1103 90.2891C77.4628 90.0784 76.9686 89.4748 76.7755 88.7744C76.6733 88.3901 76.6278 87.9887 76.6136 87.5872C76.3325 80.1706 76.0286 72.8279 75.9093 65.7415C71.283 66.0035 66.1937 66.4761 60.5023 67.1935L59.71 63.0767C65.4326 62.1741 70.7973 61.6332 75.861 61.4054C75.7474 39.0757 77.9484 19.7412 89.1948 9.38916C85.5142 15.8606 80.0926 28.4476 80.1068 61.2858C81.1122 61.2744 82.1062 61.2773 83.0888 61.2915C84.3299 56.1355 85.5937 51.0079 87.3488 45.9771C87.7408 44.8781 88.1526 43.2752 89.3028 42.8168C90.0497 42.5178 90.8704 42.7342 91.4186 43.372C91.9042 43.9357 91.978 44.6702 91.9837 45.4276C92.0292 51.079 91.6969 56.423 91.5662 61.7471C92.9578 61.8752 94.3267 62.0318 95.67 62.2111C100.265 44.5478 108.052 33.7574 123.085 22.332L123.099 22.3548C111.608 32.795 103.951 46.5607 99.1434 62.7407C112.784 65.0696 124.218 69.9837 135.285 76.0565V76.1049C131.428 74.9689 127.904 73.8586 124.561 72.8108ZM91.5151 65.6988C91.5208 69.9524 91.748 74.2401 92.4921 78.7015C93.1481 74.0778 93.895 69.8527 94.7698 65.9494C93.7104 65.8497 92.6256 65.7671 91.5151 65.6988ZM87.9878 61.4737C88.0418 58.7121 88.1724 55.902 88.3627 53.0179C87.6328 55.808 86.9257 58.5953 86.2441 61.3855C86.8291 61.4111 87.4113 61.4396 87.9878 61.4737Z" fill="#B30430"/>
<path fill-rule="evenodd" clip-rule="evenodd" d="M23.2731 13.8764C31.0462 23.0867 38.2683 33.527 45.107 43.5886C46.1039 32.186 45.4422 19.9066 44.8174 7.86623C44.718 5.95014 48.055 5.63127 48.5406 7.61569C52.5422 24.0291 55.4986 40.6931 56.5182 57.5422C64.1549 57.3685 70.5336 57.9522 73.7058 59.8284C68.5484 59.4981 62.7037 59.6718 56.663 60.1586C57.1202 69.5797 56.9584 79.0605 56.0212 88.5811H55.9842C55.8905 78.753 55.3282 69.5113 54.3654 60.3579C48.427 60.9074 42.3608 61.7359 36.6154 62.6641C37.1266 71.6353 36.942 80.8769 36.499 90.4773H36.4763C35.8344 83.6984 34.9512 73.7392 33.5426 63.1766C29.7426 63.8285 26.1273 64.509 22.8386 65.1695C23.1993 70.206 23.8809 82.0357 25.3264 90.4773C20.5638 82.9894 19.601 74.5991 18.7263 66.018C17.5164 66.2742 16.3691 66.5247 15.2984 66.761C15.2018 70.5562 14.6452 78.4683 14.2334 83.9688C12.7424 78.7046 12.217 73.0987 11.4871 67.6266C9.874 68.0024 8.55624 68.3241 7.59916 68.5661L6.19336 64.6542C9.26056 63.6463 20.4842 61.3459 33.0541 59.6262C30.5946 42.4441 26.6925 24.4334 20.1662 16.3534C19.0074 14.9185 21.9525 12.3134 23.2731 13.8764ZM54.0672 57.6219C52.8233 46.6891 51.0199 35.8161 48.7706 24.1487L49.0206 52.9185C49.1739 54.0146 48.7053 55.2076 47.6545 55.5008C46.8622 55.7229 46.0244 55.4923 45.5955 54.7406C40.742 46.2165 35.9452 36.9577 29.9443 28.3368C33.6505 38.3585 35.5476 48.5909 36.3797 59.1906C42.3437 58.439 48.4696 57.8525 54.0672 57.6219Z" fill="#1A1A18"/>
<path fill-rule="evenodd" clip-rule="evenodd" d="M64.0129 92.063C63.9476 92.2709 63.8965 92.5527 63.8567 92.9001C63.817 93.2474 63.7971 93.6773 63.7971 94.1898V101.663V102.216C63.7971 103.281 63.8056 103.978 63.817 104.305C63.8312 104.633 63.8425 104.938 63.8567 105.211L62.681 105.222L55.047 93.9535L55.1436 103.084C55.1436 103.713 55.1578 104.163 55.1834 104.434C55.2089 104.704 55.2629 104.963 55.3424 105.211H53.7094C53.7747 105.003 53.8258 104.724 53.8656 104.374C53.9054 104.026 53.9252 103.597 53.9252 103.084V94.8218C53.9252 93.8368 53.9054 93.2047 53.8656 92.9285C53.8258 92.6524 53.7009 92.3648 53.4936 92.063H55.1436L62.6781 103.076L62.5191 94.1841C62.5191 93.5435 62.5049 93.0908 62.4793 92.8289C62.4538 92.567 62.4026 92.3107 62.3231 92.063H64.0129ZM18.1327 105.211H16.3634C16.4401 104.909 16.4997 104.613 16.5395 104.325C16.5792 104.035 16.5991 103.693 16.5991 103.3V102.552L16.815 94.0531L12.3505 105.37H11.9188L7.51112 94.0531L7.7298 102.116V103.104C7.7298 103.864 7.80648 104.567 7.96552 105.211H6.19336C6.25868 105.003 6.31264 104.724 6.3524 104.374C6.39216 104.026 6.41204 103.597 6.41204 103.084V94.1898C6.41204 93.2189 6.3382 92.51 6.19336 92.063H7.84624L12.2227 103.036L16.6304 92.0744L18.1327 92.063C18.0674 92.2709 18.0134 92.5527 17.9737 92.9001C17.9368 93.2474 17.9169 93.6773 17.9169 94.1898V103.084C17.9169 104.055 17.9879 104.767 18.1327 105.211ZM28.2999 99.2975C27.8398 96.9458 27.2122 94.8674 26.4113 93.068H25.9796C24.4318 94.8816 23.1851 96.9572 22.2422 99.2975H28.2999ZM30.2283 105.211H28.476C28.635 104.804 28.7117 104.28 28.7117 103.634C28.7117 102.543 28.635 101.453 28.476 100.362H21.8872C21.6912 100.94 21.535 101.555 21.4158 102.204C21.2993 102.856 21.2397 103.446 21.2397 103.97C21.2397 104.351 21.3107 104.767 21.4555 105.211H19.7458C19.7458 103.084 20.152 101.026 20.9642 99.0412C21.7253 97.1878 22.9238 95.1977 24.5625 93.068C23.3441 93.068 22.4268 93.1278 21.8105 93.2446C21.9014 93.0225 21.9724 92.8118 22.0264 92.6154C22.0775 92.4161 22.1258 92.1997 22.1627 91.9634C22.3075 92.0032 22.4722 92.0289 22.654 92.0431C22.8386 92.0545 23.1141 92.063 23.4804 92.063H27.1582C28.104 93.7058 28.8566 95.8013 29.4217 98.3522C29.6432 99.3487 29.8335 100.482 29.9897 101.743C30.1488 103.004 30.2283 104.055 30.2283 104.898V105.211ZM37.9957 95.6503C37.9957 93.982 37.0585 93.1449 35.1841 93.1449C34.8944 93.1449 34.5678 93.1563 34.1986 93.1762C33.8322 93.1962 33.5908 93.2047 33.4716 93.2047V98.5088H33.9629C34.8035 98.5088 35.417 98.469 35.8032 98.3892C36.1894 98.3124 36.5586 98.1472 36.9136 97.8967C37.635 97.3842 37.9957 96.6354 37.9957 95.6503ZM41.1026 104.778L40.2762 105.211C40.12 105.305 39.9695 105.35 39.8246 105.35C39.694 105.35 39.5548 105.265 39.41 105.097C39.268 104.926 39.038 104.576 38.7227 104.038C38.5523 103.736 38.3422 103.36 38.0922 102.902C37.7798 102.327 37.3595 101.538 36.8341 100.533L36.4621 99.847L36.4024 99.6932L36.3229 99.5537L36.2462 99.3772C35.8657 99.4512 35.559 99.5025 35.3318 99.5224C35.1017 99.5452 34.795 99.5537 34.4173 99.5537H33.4716V103.084C33.4716 104.055 33.5454 104.767 33.6874 105.211H32.0175C32.0828 105.003 32.1339 104.724 32.1737 104.374C32.2134 104.026 32.2333 103.597 32.2333 103.084V94.0731C32.2333 93.1136 32.1595 92.4104 32.0175 91.9634C32.3838 92.0545 32.9802 92.1 33.8067 92.1H35.3602C36.5785 92.1 37.5498 92.4189 38.2712 93.0595C38.9925 93.7029 39.3532 94.5713 39.3532 95.6703C39.3532 97.1593 38.6972 98.2611 37.3851 98.9814L37.5044 99.1779C37.581 99.3117 37.6549 99.4427 37.7202 99.5736C37.7344 99.6135 37.8565 99.8498 38.0922 100.283L38.842 101.683C39.2595 102.486 39.64 103.115 39.9808 103.577C40.3216 104.035 40.6965 104.436 41.1026 104.778ZM49.776 99.2975C49.3159 96.9458 48.6883 94.8674 47.8874 93.068H47.4557C45.9079 94.8816 44.6612 96.9572 43.7183 99.2975H49.776ZM51.7015 105.211H49.9521C50.1111 104.804 50.1878 104.28 50.1878 103.634C50.1878 102.543 50.1111 101.453 49.9521 100.362H43.3633C43.1673 100.94 43.0111 101.555 42.8918 102.204C42.7754 102.856 42.7158 103.446 42.7158 103.97C42.7158 104.351 42.7868 104.767 42.9316 105.211H41.2219C41.2219 103.084 41.628 101.026 42.4403 99.0412C43.2014 97.1878 44.3999 95.1977 46.0386 93.068C44.8202 93.068 43.9029 93.1278 43.2866 93.2446C43.3775 93.0225 43.4485 92.8118 43.5024 92.6154C43.5536 92.4161 43.599 92.1997 43.6388 91.9634C43.7836 92.0032 43.9483 92.0289 44.1301 92.0431C44.3147 92.0545 44.5902 92.063 44.9565 92.063H48.6343C49.58 93.7058 50.3326 95.8013 50.8978 98.3522C51.1193 99.3487 51.3096 100.482 51.4658 101.743C51.6248 103.004 51.7015 104.055 51.7015 104.898V105.211Z" fill="#1A1A18"/>
<path fill-rule="evenodd" clip-rule="evenodd" d="M90.5245 92.063C90.249 92.4417 89.9792 92.883 89.7179 93.3841C89.5333 93.7257 89.3828 94.0389 89.2664 94.3293C89.0562 94.8275 88.8347 95.3543 88.5961 95.9066L84.5662 105.43L84.2538 105.436L81.0843 97.4042L77.7019 105.43H77.3867L73.6095 96.0831L72.4479 93.4211C72.2122 92.9228 71.9537 92.4702 71.6641 92.063H73.5725C73.6237 92.3762 73.7089 92.7235 73.8281 93.0965C73.9446 93.4723 74.1349 93.982 74.399 94.6254L77.7076 102.819L80.4936 95.9066L79.9427 94.5457C79.6558 93.8225 79.4229 93.3015 79.2469 92.9798C79.0679 92.6581 78.8549 92.3506 78.6079 92.063H80.4567C80.5589 92.5613 80.6441 92.9029 80.7123 93.088C80.9196 93.5862 81.1241 94.0788 81.3201 94.5656L84.6059 102.831L87.6533 95.1777C88.0736 94.1385 88.332 93.4581 88.4314 93.1364C88.528 92.8147 88.5961 92.4559 88.6359 92.063H90.5245ZM93.1998 105.211H91.4305C91.4958 105.003 91.5469 104.718 91.5867 104.365C91.6264 104.009 91.6463 103.582 91.6463 103.084V94.1898C91.6463 93.2189 91.5725 92.51 91.4305 92.063H93.1998C93.1345 92.2709 93.0805 92.5527 93.0407 92.9001C93.0038 93.2474 92.9839 93.6773 92.9839 94.1898V103.084C92.9839 104.055 93.0549 104.767 93.1998 105.211ZM106.278 92.063C106.213 92.2709 106.159 92.5527 106.119 92.9001C106.082 93.2474 106.062 93.6773 106.062 94.1898V101.663V102.216C106.062 103.281 106.068 103.978 106.082 104.305C106.093 104.633 106.108 104.938 106.119 105.211L104.943 105.222L97.3093 93.9535L97.4087 103.084C97.4087 103.713 97.42 104.163 97.4484 104.434C97.474 104.704 97.5251 104.963 97.6046 105.211H95.9716C96.0369 105.003 96.0909 104.724 96.1307 104.374C96.1676 104.026 96.1875 103.597 96.1875 103.084V94.8218C96.1875 93.8368 96.1676 93.2047 96.1307 92.9285C96.0909 92.6524 95.9659 92.3648 95.7558 92.063H97.4087L104.94 103.076L104.784 94.1841C104.784 93.5435 104.77 93.0908 104.744 92.8289C104.716 92.567 104.665 92.3107 104.585 92.063H106.278ZM115.127 103.793L114.772 104.918C114.707 105.114 114.562 105.211 114.341 105.211H114.241H112.943H112.571H112.08H111.058H108.854C108.919 105.003 108.973 104.724 109.01 104.374C109.05 104.026 109.07 103.597 109.07 103.084V94.0731C109.07 93.0994 108.999 92.3961 108.854 91.9634C109.115 92.0032 109.32 92.0289 109.464 92.0431C109.606 92.0545 110.061 92.063 110.819 92.063H113.75C114.091 92.063 114.295 92.0858 114.361 92.1314C114.426 92.1769 114.471 92.3193 114.497 92.5556L114.557 93.3243C114.165 93.1791 113.75 93.1079 113.318 93.1079H110.368V97.6405H112.472H112.728C113.017 97.6405 113.208 97.6348 113.298 97.6205C113.389 97.6091 113.54 97.575 113.75 97.5237V98.8448C113.369 98.7651 112.898 98.7252 112.336 98.7252H110.368V104.129H113.043C113.699 104.129 114.119 104.112 114.301 104.081C114.486 104.052 114.761 103.958 115.127 103.793ZM125.766 104.778L124.94 105.211C124.783 105.305 124.633 105.35 124.488 105.35C124.357 105.35 124.221 105.265 124.076 105.097C123.931 104.926 123.701 104.576 123.386 104.038C123.216 103.736 123.008 103.36 122.758 102.902C122.443 102.327 122.023 101.538 121.5 100.533L121.125 99.847L121.066 99.6932L120.989 99.5537L120.91 99.3772C120.529 99.4512 120.225 99.5025 119.995 99.5224C119.765 99.5452 119.461 99.5537 119.081 99.5537H118.135V103.084C118.135 104.055 118.209 104.767 118.354 105.211H116.681C116.746 105.003 116.8 104.724 116.837 104.374C116.877 104.026 116.897 103.597 116.897 103.084V94.0731C116.897 93.1136 116.826 92.4104 116.681 91.9634C117.047 92.0545 117.644 92.1 118.47 92.1H120.024C121.245 92.1 122.213 92.4189 122.935 93.0595C123.656 93.7029 124.017 94.5713 124.017 95.6703C124.017 97.1593 123.361 98.2611 122.051 98.9814L122.168 99.1779C122.247 99.3117 122.318 99.4427 122.384 99.5736C122.398 99.6135 122.523 99.8498 122.758 100.283L123.505 101.683C123.926 102.486 124.306 103.115 124.647 103.577C124.988 104.035 125.36 104.436 125.766 104.778ZM122.659 95.6503C122.659 93.982 121.722 93.1449 119.848 93.1449C119.558 93.1449 119.231 93.1563 118.865 93.1762C118.496 93.1962 118.254 93.2047 118.135 93.2047V98.5088H118.629C119.467 98.5088 120.08 98.469 120.467 98.3892C120.853 98.3124 121.225 98.1472 121.577 97.8967C122.298 97.3842 122.659 96.6354 122.659 95.6503ZM135.286 92.063C134.973 92.51 134.738 92.8887 134.581 93.2047L133.994 94.4517L132.412 97.8853L130.566 101.783L130.231 102.452L129.898 103.104C129.347 104.155 129.009 104.77 128.884 104.946C128.759 105.123 128.592 105.211 128.382 105.211H126.928C127.413 104.767 127.873 104.192 128.314 103.488C128.754 102.785 129.353 101.649 130.114 100.086L127.794 95.0781C127.348 94.1186 127.058 93.5179 126.928 93.273C126.797 93.031 126.547 92.6267 126.181 92.063H128.126C128.126 92.4417 128.206 92.8431 128.362 93.2645C128.427 93.4496 128.561 93.757 128.757 94.1898L130.764 98.6711L132.71 94.466C133.181 93.4296 133.417 92.6267 133.417 92.063H135.286Z" fill="#B30430"/>
</svg>
