<svg width="168" height="26" viewBox="0 0 168 26" fill="none" xmlns="http://www.w3.org/2000/svg">
<g clip-path="url(#clip0_811_7375)">
<path d="M4.42583 25.1374H0.0673828V0.616114H5.79563C12.022 0.616114 15.2597 5.17536 15.2597 9.7346C15.2597 14.2938 11.8975 18.8531 6.41826 18.8531H4.42583V25.1374ZM4.42583 14.7867H6.16921C9.28238 14.7867 10.7767 12.1991 10.7767 9.7346C10.7767 7.27014 9.15786 4.68246 5.6711 4.68246H4.42583V14.7867ZM27.3388 25.5071C21.6106 25.5071 17.7502 21.564 17.7502 15.6493V0.616114H22.2332V15.5261C22.2332 19.346 24.1011 21.3175 27.4633 21.3175C31.6972 21.3175 32.5689 18.1137 32.5689 15.5261V0.616114H37.0519V15.6493C36.9274 21.564 33.067 25.5071 27.3388 25.5071ZM51.9952 25.1374H39.916V0.616114H44.399V20.9479H51.9952V25.1374ZM65.8177 25.1374H53.7385V0.616114H58.2215V20.9479H65.8177V25.1374ZM99.0664 25.1374H91.4702V0.616114H96.0777C98.6928 0.616114 100.81 0.739336 102.304 1.72512C104.546 2.95735 105.666 5.05213 105.666 7.63981C105.666 9.36493 104.919 10.8436 103.674 11.9526C106.04 13.1848 107.285 15.1564 107.285 17.9905C107.41 21.9336 103.674 25.1374 99.0664 25.1374ZM95.8287 20.9479H98.1947C102.802 20.9479 102.802 18.4834 102.802 17.7441C102.802 17.0047 102.802 14.5403 98.3192 14.5403H95.8287V20.9479ZM95.8287 10.5972H97.572C99.1909 10.5972 101.183 10.1043 101.183 7.63981C101.183 6.40758 100.81 4.68246 97.323 4.68246H95.7041L95.8287 10.5972ZM124.843 25.1374H109.651V0.616114H124.843V4.80569H114.134V10.5972H124.221V14.6635H114.134V20.9479H124.843V25.1374ZM149.998 25.1374H144.892L142.402 18.7299H133.311L130.821 25.1374H126.089L136.175 0.739336H139.662L149.998 25.1374ZM134.806 14.6635H140.783L137.794 7.27014L134.806 14.6635ZM160.209 20.9479C160.832 22.3033 161.579 23.6588 162.451 25.0142H167.93C166.685 23.1659 165.439 20.8246 164.443 18.8531L162.575 15.1564C163.696 14.5403 164.692 13.6777 165.439 12.5687C166.186 11.3365 166.56 9.98104 166.56 8.37915C166.56 3.57346 162.949 0.739336 157.096 0.739336H151.119V25.1374H155.477V16.8815C155.477 16.8815 156.598 16.8815 158.092 16.6351C158.59 17.6209 159.337 19.2227 160.209 20.9479ZM155.477 12.4455V4.80569H156.847C160.334 4.80569 162.077 6.03791 162.077 8.50237C162.077 11.8294 159.337 12.5687 156.971 12.5687H155.477V12.4455ZM84.4967 19.4692C84.4967 18.6066 84.6212 17.8673 84.8703 17.128C85.3684 15.7725 86.1156 14.7867 87.1118 14.6635H87.2363V10.5972C84.1231 10.5972 81.6326 12.6919 80.8854 15.5261L74.41 8.50237C73.7874 7.88626 73.5383 7.27014 73.5383 6.65403C73.5383 6.03791 73.7874 5.4218 74.2855 4.92891C74.7836 4.43602 75.4062 4.18957 76.0289 4.18957C76.6515 4.18957 77.2741 4.43602 77.7722 4.92891C78.0213 5.17536 78.1458 5.4218 78.2704 5.66825L82.0062 3.8199C81.6326 3.20379 81.259 2.58768 80.7609 1.97156C79.5156 0.739336 77.7722 0 76.0289 0C74.2855 0 72.6666 0.616114 71.2968 1.97156C70.0516 3.20379 69.3044 4.92891 69.3044 6.65403C69.3044 8.25592 69.927 9.98104 71.1723 11.2133C68.9308 12.5687 67.312 15.0332 67.312 17.8673C67.312 22.3033 70.9233 26 75.5308 26C78.1458 26 80.5118 24.891 82.1307 23.1659L83.8741 25.0142H89.7268L84.4967 19.4692ZM75.6553 21.9336C73.4138 21.9336 71.6704 20.0853 71.6704 17.8673C71.6704 16.2654 72.7912 14.91 74.2855 14.4171L79.5156 20.0853C78.5194 21.1943 77.1496 21.9336 75.6553 21.9336Z" fill="#1A1A1A"/>
</g>
<defs>
<clipPath id="clip0_811_7375">
<rect width="168" height="26" fill="white"/>
</clipPath>
</defs>
</svg>
