<svg width="172" height="72" viewBox="0 0 172 72" fill="none" xmlns="http://www.w3.org/2000/svg">
<g clip-path="url(#clip0_811_6651)">
<path d="M162.326 69.8553L136.976 0.0608462L136.959 0.0146484H136.459L131.239 14.3572L121.735 40.4681L121.713 40.4474C118.419 37.5411 113.772 35.7243 107.92 35.0477L106.135 34.8635L107.906 34.6364C117.557 32.9021 124.044 26.8068 124.044 19.463C124.044 9.39261 114.573 2.36355 101.005 2.36355H72.7754V2.87343H80.9781V54.9092L61.0568 0.0606751L61.0388 0.0146484H60.5385L55.3182 14.3572L35.1838 69.6757L35.06 69.69C34.7159 69.7325 34.3756 69.7662 34.0388 69.7917C33.5324 69.8314 33.0288 69.8552 32.5237 69.8552H12.1796L50.851 2.87326L51.1385 2.36988H3.84177V23.0904H4.34361C4.43259 12.9977 10.3103 2.87326 23.2967 2.87326H38.9637L0 70.357H52.4916V50.5053H51.9897C51.9213 59.3021 46.9347 67.6573 36.0909 69.5439L35.7461 69.6028L44.0045 46.9034H67.139L75.4751 69.8553H67.2519V70.3572H99.5278V69.8553H91.2694V35.2336H100.798C110.496 35.2336 116.057 39.5659 116.057 47.116V53.2573C116.057 53.9341 116.103 54.9234 116.154 55.7508V55.7809L111.032 69.8521H104.341V70.3539H118.192V69.8521H111.573L116.237 57.0389C116.246 57.1628 116.251 57.2374 116.251 57.2374L116.38 58.392L116.504 59.1558C117.282 63.8806 119.089 67.3538 121.873 69.4787L122.274 69.7694C124.389 71.2401 127.017 71.9849 130.09 71.9849C134.161 71.9849 136.875 70.9701 139.116 68.5816L138.822 68.3051C136.757 70.2109 135.025 70.9829 132.854 70.9829C129.155 70.9829 127.219 66.4962 127.219 62.0717V53.4669C127.239 51.3319 126.904 49.2084 126.23 47.1827L126.138 46.9159V46.9064H143.059L151.395 69.8584H143.172V70.3603H171.103V69.8584L162.326 69.8553ZM44.1886 46.4014L55.5853 15.091L66.9564 46.4014H44.1886ZM91.2744 34.73V2.87326H98.5479C108.264 2.87326 113.394 8.64934 113.394 19.5712C113.394 31.1868 110.45 34.73 100.798 34.73H91.2744ZM125.94 46.4014L125.891 46.2776C125.139 44.4461 124.044 42.775 122.666 41.3542L122.189 40.8777L122.138 40.8302L131.499 15.091L142.87 46.4014H125.94Z" fill="black"/>
</g>
<defs>
<clipPath id="clip0_811_6651">
<rect width="171.103" height="72" fill="white"/>
</clipPath>
</defs>
</svg>
