<svg width="168" height="34" viewBox="0 0 168 34" fill="none" xmlns="http://www.w3.org/2000/svg">
<g clip-path="url(#clip0_811_6289)">
<path d="M17.0697 0.00244141C6.87222 0.00244141 0 7.4799 0 17.0002C0 26.5204 6.87222 33.9979 17.0697 33.9979C27.2672 33.9979 34.1394 26.5204 34.1394 17.0002C34.1394 7.4799 27.2672 0.00244141 17.0697 0.00244141ZM17.0697 32.8801C9.90191 32.8801 5.17264 27.6382 5.17264 17.0002C5.17264 6.36213 9.90191 1.12021 17.0697 1.12021C24.2375 1.12021 28.9668 6.36213 28.9668 17.0002C28.9668 27.6382 24.2006 32.8801 17.0697 32.8801ZM58.4878 1.42855V2.23797C60.483 2.23797 61.3697 2.70049 61.3697 4.12661C61.3697 5.24437 60.5938 6.67048 57.1207 12.5291C55.1256 15.6897 54.0911 18.0794 53.7585 18.8888C53.3152 17.6169 52.2437 14.9188 49.8052 10.4863C49.0293 9.06019 48.2903 7.94242 47.6622 6.97883C46.4429 5.0902 45.9996 4.12661 45.9996 3.47137C45.9996 2.50778 46.4429 2.3536 47.9947 2.19943V1.42855H43.561C39.1273 1.42855 36.2454 1.27438 36.2454 1.27438V2.0838C39.2751 2.54632 41.1225 3.81826 46.1474 12.2593C49.5096 17.9638 49.9529 19.8909 50.1007 22.4348V23.514C50.1007 26.8673 50.1007 29.0643 49.8052 30.3363C49.5096 31.9165 48.5859 31.9165 46.5907 32.2249V33.0343C47.3666 33.0343 49.8051 32.726 52.0589 32.726C54.4975 32.726 57.5272 33.0343 57.5272 33.0343V32.2249C55.7167 32.0707 54.6453 31.9165 54.3127 30.3363C54.0172 29.0643 54.0172 26.8288 54.0172 23.514V22.2421C54.1649 20.0066 54.9408 17.9638 57.8227 13.1844C62.2564 5.70689 64.2147 2.85467 67.8724 2.23797V1.27438C67.0966 1.27438 64.5102 1.42855 61.6283 1.42855H58.4878ZM150.93 0.00244141C140.733 0.00244141 133.861 7.4799 133.861 17.0002C133.861 26.5204 140.733 33.9979 150.93 33.9979C161.128 33.9979 168 26.5204 168 17.0002C168 7.4799 161.128 0.00244141 150.93 0.00244141ZM150.93 32.8801C143.762 32.8801 139.033 27.6382 139.033 17.0002C139.033 6.36213 143.762 1.12021 150.93 1.12021C158.098 1.12021 162.827 6.36213 162.827 17.0002C162.68 27.6382 157.95 32.8801 150.93 32.8801ZM82.6884 15.2657L79.3262 13.0302C76.592 11.2957 74.5969 9.67688 74.5969 6.51631C74.5969 3.16302 76.8876 1.12021 80.3976 1.12021C85.4225 1.12021 86.494 5.39855 86.9373 8.44349H87.5285C87.5285 8.13514 87.6763 6.8632 87.6763 5.28291C87.6763 3.20156 87.5285 2.12234 87.5285 2.12234C87.2329 1.81399 84.6466 0.387877 80.6563 0.387877C74.7077 0.387877 71.5302 4.20369 71.5302 8.63621C71.5302 11.9895 72.8973 15.3043 77.331 18.0023L80.6932 20.2378C83.2795 21.9723 85.5703 23.7453 85.5703 27.06C85.5703 31.03 82.984 32.9572 79.1784 32.9572C74.4491 32.9572 72.4909 29.9508 71.2716 24.362H70.6805C70.6805 25.3256 70.5327 26.2506 70.5327 27.8695C70.5327 29.7581 70.6805 31.3769 70.6805 31.3769C70.8282 31.5311 73.7101 33.9208 78.735 33.9208C85.1269 33.9208 88.7847 30.2592 88.7847 24.8631C88.7847 20.816 86.9743 18.1179 82.6884 15.2657ZM116.68 1.27438V2.0838C118.675 2.23797 119.562 2.39214 119.894 3.97243C120.19 5.24437 120.19 7.4799 120.19 10.7946V15.8824H103.453V10.6405C103.453 7.28718 103.453 5.0902 103.748 3.81826C104.044 2.23797 104.968 2.23797 106.963 1.92962V1.27438C106.963 1.27438 103.933 1.42855 101.495 1.42855C99.2039 1.42855 96.7653 1.27438 96.0264 1.27438V2.0838C98.0216 2.23797 98.9083 2.39214 99.2408 3.97243C99.5364 5.24437 99.5364 7.4799 99.5364 10.7946V23.514C99.5364 26.8673 99.5364 29.0643 99.2408 30.3363C98.9452 31.9165 98.0216 31.9165 96.0264 32.2249V33.0343C96.8023 33.0343 99.2408 32.8801 101.495 32.8801C103.933 32.8801 106.963 33.0343 106.963 33.0343V32.2249C104.968 31.9165 103.933 31.7624 103.601 30.1435C103.305 28.8716 103.305 26.6361 103.305 23.3213V17.1543H120.042V23.3599C120.042 26.7132 120.042 28.9101 119.747 30.1821C119.451 31.7624 118.527 31.7624 116.532 32.0707V32.8801C117.308 32.8801 119.747 32.726 122 32.726C124.439 32.726 127.469 32.8801 127.469 32.8801V32.0707C125.806 31.9165 124.882 31.7624 124.587 30.1821C124.291 28.9101 124.291 26.6746 124.291 23.3599V10.6405C124.291 7.28718 124.291 5.0902 124.587 3.81826C124.882 2.23797 125.806 2.23797 127.801 1.92962V1.27438C127.801 1.27438 124.772 1.42855 122.333 1.42855C119.858 1.42855 117.419 1.27438 116.68 1.27438Z" fill="#1A1A1A"/>
</g>
<defs>
<clipPath id="clip0_811_6289">
<rect width="168" height="34" fill="white"/>
</clipPath>
</defs>
</svg>
