<svg width="211" height="34" viewBox="0 0 211 34" fill="none" xmlns="http://www.w3.org/2000/svg">
<path d="M34.9415 15.6332C38.4668 17.1897 40.0221 18.9538 40.0221 21.8592C40.0221 24.7647 37.741 27.1514 34.2157 27.1514C30.8978 27.1514 29.5499 25.4911 28.8241 25.4911C28.3057 25.4911 28.202 25.8024 28.202 26.425V27.0476H27.6836L25.9209 17.501H26.4393C27.7872 21.8592 29.7573 26.3212 34.1121 26.3212C37.2226 26.3212 38.5705 24.4534 38.5705 22.2743C38.5705 19.7839 37.43 18.5387 34.2157 17.1897L32.0383 16.2558C29.1352 15.0106 27.7872 13.3503 27.7872 11.1712C27.7872 8.47328 29.9646 6.70924 32.8678 6.70924C35.0452 6.70924 36.2895 7.74691 36.9116 7.74691C37.2226 7.74691 37.43 7.64314 37.43 7.22807V6.60547H37.9484L39.8148 13.039H39.2963C37.5337 9.09588 35.5637 7.33184 32.9715 7.33184C30.5867 7.43561 29.2388 8.88834 29.2388 10.5486C29.2388 12.4164 30.172 13.4541 32.9715 14.5955L34.9415 15.6332ZM42.6143 7.22807H54.9528L56.8192 13.3503H56.1971C54.4344 9.19965 53.5012 7.85067 50.9091 7.85067H49.5612V24.9722C49.5612 26.0099 49.8723 26.5287 51.3239 26.5287L51.946 26.6325V27.1514H45.2064V26.6325L45.8285 26.5287C47.3838 26.425 47.6949 26.0099 47.6949 24.9722V7.74691H46.3469C43.7548 7.74691 42.9253 9.09588 41.059 13.2466H40.5406L42.6143 7.22807ZM68.2246 16.152C71.8536 16.152 72.7867 18.4349 72.7867 20.5103V26.9438H70.9204V19.7839C70.9204 17.9161 70.0909 16.5671 67.6025 16.5671H62.1071V24.8685C62.1071 25.8024 62.3145 26.425 63.8698 26.425L64.3882 26.5287V27.1514H57.9597V26.6325L58.4781 26.5287C60.0334 26.425 60.2408 25.9061 60.2408 24.9722V9.30341C60.2408 8.36951 60.0334 7.85067 58.4781 7.74691L57.9597 7.64314V7.1243H66.5656C70.1946 7.1243 72.9941 8.05821 72.9941 11.7938C72.8904 15.4257 69.8836 16.0483 68.2246 16.152ZM66.1509 15.9445C69.3651 15.9445 70.713 14.9068 70.713 11.8976C70.713 8.88834 69.3651 7.74691 66.1509 7.74691H61.8998V15.8407C61.8998 15.9445 66.1509 15.9445 66.1509 15.9445ZM89.4801 24.4534C90.1022 26.2174 90.6207 26.3212 91.7612 26.425V26.9438H85.6438V26.425L86.1622 26.3212C87.8212 26.2174 87.9248 25.8024 87.4064 24.3496L85.8511 19.6801H79.3189L78.0747 23.312C77.3489 25.4911 77.5563 26.2174 79.4226 26.3212L79.9411 26.425V26.9438H74.1347V26.425L74.4457 26.3212C76.1047 26.2174 76.5194 25.4911 77.3489 23.312L83.0516 7.02054H83.6737L89.4801 24.4534ZM79.4226 19.0575H85.6438L82.6369 9.92602L79.4226 19.0575ZM98.9155 7.22807C104.411 7.22807 108.04 10.1336 108.04 17.1897C108.04 24.2459 104.411 27.0476 98.9155 27.0476H92.487V26.5287L93.0054 26.425C94.5607 26.3212 94.7681 25.8024 94.7681 24.8685V9.30341C94.7681 8.36951 94.5607 7.85067 93.0054 7.74691L92.487 7.64314V7.1243L98.9155 7.22807ZM106.07 17.0859C106.07 10.6524 104.307 7.85067 98.8118 7.85067H96.6344V24.9722C96.6344 26.0099 97.1528 26.5287 98.8118 26.5287C104.203 26.3212 106.07 23.4157 106.07 17.0859ZM110.943 7.74691V7.22807H117.372V7.74691L116.853 7.85067C115.298 7.95444 115.09 8.47328 115.09 9.40718V24.9722C115.09 25.9061 115.401 26.5287 116.853 26.5287L117.372 26.6325V27.1514H110.943V26.6325L111.461 26.5287C113.017 26.425 113.224 25.9061 113.224 24.9722V9.30341C113.224 8.36951 112.913 7.85067 111.461 7.74691H110.943ZM135.413 7.74691C133.65 7.85067 133.132 8.57704 132.51 10.7562L126.911 26.9438H126.288L120.482 9.61471C119.86 7.74691 119.238 7.74691 118.201 7.64314V7.1243H124.318V7.64314L123.696 7.74691C122.141 7.85067 122.037 8.26574 122.452 9.71848L127.118 24.1421L131.576 10.7562C132.302 8.57704 132.199 7.85067 130.332 7.74691L129.814 7.64314V7.1243H135.62V7.64314L135.413 7.74691ZM147.233 24.4534C147.855 26.2174 148.373 26.3212 149.514 26.425V26.9438H143.397V26.425L143.915 26.3212C145.574 26.2174 145.678 25.8024 145.159 24.3496L143.604 19.6801H137.072L135.828 23.312C135.102 25.4911 135.309 26.2174 137.175 26.3212L137.694 26.425V26.9438H131.887V26.425L132.199 26.3212C133.858 26.2174 134.272 25.4911 135.102 23.312L140.804 7.02054H141.427L147.233 24.4534ZM137.175 19.0575H143.397L140.39 9.92602L137.175 19.0575ZM160.505 16.152C164.134 16.152 165.067 18.4349 165.067 20.5103V26.9438H163.201V19.7839C163.201 17.9161 162.371 16.5671 159.883 16.5671H154.387V24.8685C154.387 25.8024 154.595 26.425 156.15 26.425L156.668 26.5287V27.1514H150.24V26.6325L150.758 26.5287C152.314 26.425 152.521 25.9061 152.521 24.9722V9.30341C152.521 8.36951 152.314 7.85067 150.758 7.74691L150.24 7.64314V7.1243H158.846C162.475 7.1243 165.274 8.05821 165.274 11.7938C165.171 15.4257 162.267 16.0483 160.505 16.152ZM158.638 15.9445C161.853 15.9445 163.201 14.9068 163.201 11.8976C163.201 8.88834 161.853 7.74691 158.638 7.74691H154.387V15.8407C154.387 15.9445 158.638 15.9445 158.638 15.9445ZM169.111 7.74691V7.22807H175.539V7.74691L175.021 7.85067C173.465 7.95444 173.258 8.47328 173.258 9.40718V24.9722C173.258 25.9061 173.569 26.5287 175.021 26.5287L175.539 26.6325V27.1514H169.111V26.6325L169.629 26.5287C171.184 26.425 171.392 25.9061 171.392 24.9722V9.30341C171.392 8.36951 171.081 7.85067 169.629 7.74691H169.111ZM193.166 24.7647C193.166 25.6986 193.477 26.3212 194.928 26.3212L195.447 26.425V26.9438H191.299V23.2082L189.537 24.7647C187.878 26.1137 186.011 27.2551 184.041 27.2551C181.553 27.2551 180.309 26.0099 180.309 22.7931V9.30341C180.309 8.36951 180.101 7.85067 178.546 7.74691L178.028 7.64314V7.1243H182.175V23.0007C182.175 25.076 182.693 26.2174 184.663 26.2174C185.908 26.2174 187.567 25.4911 189.122 24.1421L191.196 22.4818V9.30341C191.196 8.36951 190.885 7.85067 189.433 7.74691L188.915 7.64314V7.1243H193.062L193.166 24.7647ZM205.919 15.6332C209.444 17.1897 211 18.9538 211 21.8592C211 24.7647 208.718 27.1514 205.193 27.1514C201.875 27.1514 200.527 25.4911 199.801 25.4911C199.283 25.4911 199.179 25.8024 199.179 26.425L199.076 27.0476H198.661L197.002 17.501H197.52C198.868 21.8592 200.838 26.3212 205.193 26.3212C208.304 26.3212 209.652 24.4534 209.652 22.2743C209.652 19.7839 208.511 18.5387 205.297 17.1897L203.119 16.2558C200.216 15.0106 198.868 13.3503 198.868 11.1712C198.868 8.47328 201.046 6.70924 203.949 6.70924C206.126 6.70924 207.371 7.74691 207.993 7.74691C208.304 7.74691 208.511 7.64314 208.511 7.22807V6.70924H209.029L210.792 13.1428H210.274C208.511 9.19965 206.541 7.43561 203.949 7.43561C201.564 7.53937 200.216 8.99211 200.216 10.6524C200.216 12.5202 201.149 13.5579 203.949 14.6993L205.919 15.6332Z" fill="#020203"/>
<path d="M12.0275 7.85069C12.1312 7.43562 12.1312 7.12432 12.1312 6.60549C12.1312 3.59624 10.5759 1.2096 9.22801 0.171927C8.91696 -0.035607 8.6059 -0.0356074 8.50221 0.0681597C8.29484 0.171927 8.19116 0.379461 8.19116 0.690763V7.02056C3.52531 7.33186 0 11.5863 0 17.086C0 22.5856 3.52531 26.9438 8.19116 27.1514V34H9.02064V27.1514C13.6865 26.8401 17.2118 22.5856 17.2118 17.086C17.3155 12.9353 15.2418 9.30343 12.0275 7.85069ZM4.66585 19.4726C4.66585 21.4442 6.11744 23.2082 8.08747 23.4158V26.3212C3.62899 26.0099 0.829485 21.4442 0.829485 17.1897C0.829485 12.9353 3.52531 8.36953 8.08747 8.05823V13.3503L7.36167 14.1805C5.28796 16.4634 4.66585 17.501 4.66585 19.4726ZM8.19116 14.4918V22.3781C6.63587 22.1706 5.59902 20.9253 5.59902 19.4726C5.59902 18.0199 5.80639 17.2935 8.08747 14.6993L8.19116 14.4918ZM9.12432 23.4158C11.0943 23.2082 12.5459 21.6517 12.5459 19.4726C12.5459 18.3312 12.0275 17.3973 11.3017 16.5671L11.198 16.4634L10.5759 16.9822L10.6796 17.086C11.3017 17.8123 11.6128 18.5387 11.6128 19.3688C11.6128 20.9253 10.5759 22.2743 9.02064 22.2743V13.3503L9.85012 12.4164C10.5759 11.5863 11.5091 10.4449 11.8201 8.68083C14.516 10.2373 16.1749 13.4541 16.1749 16.9822C16.1749 21.2366 13.3754 25.8024 8.91696 26.1137L9.12432 23.4158ZM9.12432 6.91679V1.10583C10.4722 2.24727 11.3017 4.32261 11.3017 6.50172C11.3017 6.81302 11.3017 7.12432 11.198 7.33186C10.5759 7.22809 9.85012 7.02056 9.12432 6.91679ZM9.12432 12.1051V7.95446C9.85012 8.05823 10.4722 8.16199 11.0944 8.47329C10.7833 9.7185 10.2649 10.7562 9.3317 11.8976L9.12432 12.1051Z" fill="#020203"/>
</svg>
