<svg width="178" height="66" viewBox="0 0 178 66" fill="none" xmlns="http://www.w3.org/2000/svg">
<path d="M47.5561 15.9395C47.7463 15.9938 47.9501 15.9938 48.1132 16.1025C51.7006 18.3718 54.6086 21.307 56.8236 24.9216C58.5086 27.6801 59.5277 30.6968 60.2615 33.8358C60.3974 34.9229 60.5877 36.01 60.642 37.1107C60.7779 39.91 60.6148 42.6821 59.8403 45.3998C58.9978 47.642 58.2776 49.9385 57.272 52.1127C55.9267 54.9663 54.432 57.7656 52.8693 60.4969C50.763 64.1659 47.3794 65.7693 43.2484 65.9868C40.6122 66.1226 38.3021 65.185 36.0328 63.9756C30.7196 61.1492 25.9907 57.5346 21.6967 53.3628C18.5169 50.2782 15.4595 47.0712 12.3477 43.9051C12.5379 43.9594 12.7553 43.9594 12.9048 44.0545C13.3532 44.3671 13.7609 44.7204 14.1957 45.0465C18.2452 48.0632 22.8382 49.6667 27.8252 50.1151C30.0266 50.3054 32.2416 50.1423 34.4293 49.7346C38.0575 49.0824 41.4275 47.8186 44.4986 45.7803C44.7024 45.6444 44.8655 45.4134 45.0421 45.2368C45.178 45.1552 45.3139 45.0737 45.4634 44.9786H45.477C45.5585 44.9242 45.64 44.8699 45.7216 44.8155C45.8303 44.734 45.939 44.6524 46.0477 44.5709C49.9884 41.8396 52.6382 38.1842 53.6166 33.4553C54.7853 27.884 53.5215 22.8425 49.9477 18.4126C49.2139 17.5429 48.3578 16.7684 47.5561 15.9395Z" fill="url(#paint0_linear_811_7094)"/>
<path fill-rule="evenodd" clip-rule="evenodd" d="M37.5285 1.52924C37.5826 1.49908 37.6366 1.46901 37.6906 1.44043C37.6636 1.4438 37.6364 1.44718 37.609 1.45058C37.4156 1.47457 37.2118 1.49985 36.9976 1.53555C30.8555 2.84007 24.7949 4.47072 18.8566 6.52261C14.019 8.19403 9.41246 10.3818 5.21354 13.3442C1.55818 15.9396 -0.140416 19.5406 0.0090603 24.0113C0.0905927 26.4437 1.20487 28.4684 2.46862 30.4388C2.71788 30.2991 2.96691 30.1595 3.21577 30.0198C2.97255 30.1611 2.72816 30.301 2.4822 30.4388C2.85577 31.0313 3.21848 31.6307 3.58063 32.2291C4.36456 33.5244 5.14585 34.8154 6.02886 36.0237C7.31418 37.7721 8.68495 39.4548 10.0543 41.1358C10.6539 41.8718 11.2531 42.6074 11.8448 43.3481L11.9807 43.4839C12.0283 43.5383 12.0725 43.5893 12.1167 43.6403C12.1608 43.6912 12.205 43.7422 12.2525 43.7965C12.262 43.8251 12.2783 43.847 12.2965 43.8716C12.3042 43.8821 12.3123 43.893 12.3204 43.9052C12.3725 43.9164 12.4267 43.9245 12.4809 43.9326C12.6247 43.9541 12.769 43.9757 12.8776 44.0547C13.1466 44.2422 13.401 44.4444 13.6554 44.6466C13.825 44.7814 13.9946 44.9162 14.1685 45.0466C18.218 48.0634 22.8109 49.6668 27.798 50.1152C29.9994 50.3055 32.2144 50.1288 34.4021 49.7348C38.0167 49.0825 41.4003 47.8188 44.4714 45.7804C44.6305 45.681 44.7533 45.5378 44.8769 45.3936C44.9222 45.3408 44.9676 45.2879 45.0149 45.2369C44.4945 45.4273 43.9779 45.6349 43.4616 45.8423C42.32 46.301 41.1797 46.7592 40.0007 47.0306C30.2032 49.3271 20.2563 42.492 18.8023 32.5178C18.7375 32.0807 18.6872 31.6388 18.637 31.1979C18.603 30.8985 18.569 30.5996 18.5305 30.3029C18.5044 30.0292 18.4659 29.7542 18.4273 29.4787C18.345 28.8922 18.2625 28.3035 18.2995 27.721C18.4025 26.2791 18.5635 24.8436 18.7249 23.4057C18.7977 22.7568 18.8706 22.1073 18.9382 21.4566C18.9026 21.4701 18.866 21.4829 18.8284 21.4952C18.8606 21.4827 18.8927 21.4698 18.9246 21.4566C19.9981 17.0267 21.982 13.0588 24.9987 9.64802C28.2736 5.95189 32.2551 3.2885 36.984 1.78015C37.1714 1.72808 37.3509 1.62814 37.5285 1.52924Z" fill="url(#paint1_linear_811_7094)"/>
<path d="M116.532 33.7271C116.532 33.1564 116.546 32.6808 116.532 32.2052C116.505 30.8056 115.459 29.6641 114.045 29.6777C112.333 29.6913 110.621 29.8272 108.909 29.9767C107.998 30.0582 107.455 29.6777 107.428 28.7808C107.414 28.2645 107.441 27.7345 107.414 27.2181C107.387 26.6202 107.686 26.2398 108.229 26.131C110.906 25.5603 113.611 25.2478 116.288 25.9C119.304 26.6474 121.315 29.3244 121.315 32.5042C121.329 37.0564 121.302 41.595 121.275 46.1472C121.275 46.949 120.949 47.3566 120.228 47.3566C116.722 47.3566 113.203 47.5333 109.711 47.2479C104.207 46.7859 101.829 40.8748 104.683 36.7167C106.164 34.5696 108.365 33.7543 110.906 33.7271C112.755 33.7136 114.616 33.7271 116.532 33.7271ZM116.491 37.8174C114.494 37.8174 112.524 37.7494 110.567 37.8445C109.194 37.9125 108.162 39.2714 108.216 40.6846C108.284 42.1386 109.385 43.2528 110.825 43.28C112.007 43.2936 113.176 43.28 114.358 43.28C115.065 43.28 115.785 43.28 116.491 43.28C116.491 41.4048 116.491 39.6382 116.491 37.8174Z" fill="#231F20"/>
<path d="M77.2746 39.1493C77.1795 40.6033 77.1387 41.8943 78.3889 42.8319C79.1499 43.4026 80.0195 43.3347 80.862 43.2667C82.615 43.1308 84.3679 42.8998 86.1073 42.696C86.8139 42.6145 87.4118 43.0629 87.4526 43.7831C87.4662 44.2587 87.4254 44.7343 87.4662 45.2099C87.5341 45.9165 87.1808 46.3785 86.5829 46.5552C85.6317 46.8406 84.6669 47.1531 83.6885 47.1939C81.7589 47.2754 79.7749 47.4113 77.8861 47.1259C74.7063 46.6367 72.5186 43.7831 72.5186 40.5626C72.5186 37.872 72.5186 35.1678 72.5186 32.4773C72.5186 28.9714 75.0868 25.9954 78.5791 25.7373C80.7126 25.5742 82.9003 25.547 84.993 25.8867C88.431 26.4575 90.5644 29.5693 90.279 33.1023C90.0208 36.3093 87.3303 38.9863 84.001 39.1493C81.7725 39.2445 79.5439 39.1493 77.2746 39.1493ZM77.2474 35.1271C79.177 35.1271 81.0387 35.1271 82.8868 35.1271C84.3408 35.1271 85.523 33.9177 85.5502 32.4501C85.5773 30.9553 84.4495 29.7052 82.9819 29.6644C81.922 29.6372 80.862 29.6372 79.7885 29.6644C78.4025 29.7052 77.3426 30.6836 77.261 32.0832C77.1931 33.0616 77.2474 34.0671 77.2474 35.1271Z" fill="#231F20"/>
<path d="M142.432 36.4585C142.432 35.1676 142.487 33.8766 142.419 32.5857C142.229 28.7673 145.218 26.2262 147.936 25.7777C150.219 25.3973 152.542 25.3565 154.825 25.8049C158.182 26.4708 160.437 29.4331 160.234 32.6944C160.016 36.1188 157.434 38.8365 153.996 39.0947C151.944 39.2442 149.879 39.1898 147.827 39.1762C147.243 39.1762 147.107 39.3801 147.107 39.91C147.093 41.2689 147.406 42.4783 148.765 43.0354C149.363 43.28 150.096 43.3072 150.749 43.2529C152.488 43.1306 154.214 42.9267 155.94 42.7093C156.728 42.6142 157.339 43.0354 157.38 43.8236C157.407 44.3264 157.421 44.8156 157.38 45.3183C157.312 46.1201 156.714 46.5142 156.048 46.6772C155.07 46.9218 154.064 47.1121 153.059 47.1936C151.129 47.3702 149.172 47.5061 147.27 46.9762C144.933 46.3239 142.283 43.7149 142.432 40.5623C142.487 39.2306 142.432 37.8445 142.432 36.4585ZM147.202 35.1268C149.118 35.1268 150.98 35.1404 152.828 35.1268C154.282 35.1132 155.437 33.931 155.478 32.4226C155.518 30.9686 154.336 29.6913 152.882 29.6505C151.822 29.6234 150.749 29.6234 149.689 29.6505C148.343 29.6913 147.27 30.7105 147.202 32.0421C147.161 33.0477 147.202 34.0397 147.202 35.1268Z" fill="#231F20"/>
<path d="M98.2281 29.7867C98.2281 30.0313 98.2281 30.2487 98.2281 30.4797C98.2145 35.6571 98.2009 40.848 98.2009 46.0253C98.2009 47.058 97.9155 47.3434 96.8692 47.357C96.2305 47.357 95.6054 47.357 94.9668 47.357C93.8389 47.357 93.6079 47.1259 93.6079 46.0117C93.6079 38.9455 93.5943 31.8794 93.6215 24.8268C93.6215 23.8756 93.6215 22.9108 93.8389 22.0004C94.5455 18.8886 97.1817 16.8502 100.375 16.8638C101.068 16.8638 101.775 16.9046 102.468 16.9725C103.365 17.0677 103.704 17.4617 103.718 18.345C103.718 18.8206 103.718 19.2962 103.718 19.7718C103.704 20.6959 103.392 21.022 102.441 21.0492C101.924 21.0628 101.394 21.0492 100.878 21.0492C99.6141 21.0628 98.4455 22.0276 98.3096 23.2913C98.2281 24.0251 98.296 24.7725 98.296 25.5742C99.6005 25.5742 100.905 25.5742 102.21 25.5742C103.46 25.5742 103.718 25.8324 103.718 27.0962C103.718 27.5718 103.718 28.0474 103.718 28.523C103.704 29.4198 103.392 29.7595 102.495 29.7731C101.231 29.7867 99.9538 29.7731 98.6901 29.7731C98.5406 29.7595 98.4183 29.7731 98.2281 29.7867Z" fill="#231F20"/>
<path d="M124.999 36.472C124.999 35.1403 124.999 33.795 124.999 32.4634C125.012 29.0254 127.444 26.1582 130.842 25.7098C133.165 25.3972 135.489 25.5739 137.786 26.0766C138.18 26.1582 138.56 26.3212 138.913 26.5115C139.742 26.9871 139.878 29.501 139.09 30.0446C138.845 30.2076 138.451 30.2212 138.139 30.194C136.277 30.031 134.416 29.7592 132.554 29.6505C130.991 29.569 129.863 30.5745 129.823 32.1236C129.741 34.9909 129.741 37.8717 129.823 40.7389C129.863 42.3016 130.978 43.3208 132.527 43.2392C134.416 43.1305 136.304 42.8859 138.18 42.6685C138.927 42.5734 139.484 42.9539 139.511 43.7148C139.525 44.1497 139.484 44.5845 139.525 45.0058C139.634 46.0385 139.185 46.4869 138.248 46.6772C136.821 46.9761 135.353 47.1935 133.899 47.2479C132.567 47.3022 131.168 47.2615 129.877 46.9354C127.01 46.2423 125.039 43.5246 125.012 40.5758C124.985 39.2305 124.999 37.8581 124.999 36.472Z" fill="#231F20"/>
<path d="M163.087 36.4041C163.087 35.0859 163.087 33.7814 163.087 32.4633C163.087 29.0254 165.519 26.1581 168.93 25.7097C171.281 25.3972 173.618 25.5738 175.942 26.0902C176.336 26.1853 176.757 26.3212 177.043 26.5658C177.314 26.7968 177.545 27.1909 177.613 27.5578C177.709 28.0606 177.654 28.5905 177.627 29.1205C177.6 29.9494 177.043 30.3163 176.214 30.2212C174.352 30.0038 172.49 29.7727 170.629 29.664C169.053 29.5825 167.884 30.7104 167.87 32.2867C167.83 35.0723 167.83 37.858 167.87 40.6437C167.897 42.2336 169.025 43.3479 170.615 43.2528C172.477 43.1441 174.339 42.9131 176.2 42.6956C177.002 42.6005 177.586 42.9946 177.627 43.8099C177.641 44.2176 177.627 44.6252 177.627 45.0329C177.627 45.9841 177.437 46.3782 176.499 46.6364C173.564 47.4381 170.574 47.7642 167.612 46.881C164.976 46.0928 163.128 43.511 163.087 40.7524C163.074 39.2985 163.087 37.858 163.087 36.4041Z" fill="#231F20"/>
<path fill-rule="evenodd" clip-rule="evenodd" d="M42.4799 0.794937C40.8833 1.00896 39.2866 1.22299 37.6899 1.44041C37.6273 1.46986 37.5647 1.5023 37.5011 1.5353C37.3297 1.62412 37.1506 1.717 36.9425 1.76654C32.2136 3.2613 28.2321 5.93828 24.9572 9.63441C21.9405 13.0452 19.9566 17.0131 18.8831 21.443C18.8155 22.0938 18.7426 22.7432 18.6698 23.3921C18.5085 24.83 18.3474 26.2655 18.2444 27.7074C18.1983 28.2888 18.2837 28.8764 18.3689 29.4618C18.4091 29.7384 18.4492 30.0146 18.4754 30.2893C18.4211 26.9465 19.1413 23.7803 20.8127 20.8859C21.5736 19.5542 22.552 18.2904 23.6391 17.1897C26.221 14.5807 29.3872 12.9229 33.0154 12.2978C37.9345 11.4417 42.4731 12.4065 46.5633 15.3281C46.7032 15.433 46.8486 15.521 46.9961 15.6102C47.0779 15.6597 47.1603 15.7096 47.2428 15.7629C47.2971 15.7901 47.3515 15.8139 47.4058 15.8377C47.4602 15.8614 47.5145 15.8852 47.5689 15.9124L47.5281 15.9396C47.5903 15.9573 47.6554 15.9707 47.72 15.9841C47.8532 16.0115 47.9846 16.0386 48.0853 16.1026C51.6727 18.372 54.5807 21.3071 56.7956 24.9217C58.4806 27.6938 59.4998 30.7105 60.2336 33.8359C60.2385 33.8336 60.2434 33.8312 60.2482 33.8288C60.2477 33.8312 60.2474 33.8336 60.2472 33.8359C60.2893 34.1726 60.3379 34.5093 60.3865 34.8464C60.495 35.5977 60.6037 36.351 60.6412 37.1108C60.7771 39.9101 60.6141 42.6822 59.8395 45.4C59.871 45.3639 59.9085 45.3294 59.9466 45.2944C60.0233 45.2237 60.1021 45.1511 60.1385 45.0602C60.9721 42.1424 61.7995 39.1931 62.6248 36.2508C63.0102 34.8768 63.3952 33.5043 63.7802 32.1374C63.7796 32.1376 63.7789 32.1379 63.7782 32.1382C63.7839 32.1232 63.7897 32.1082 63.7955 32.0932C63.8389 31.9811 63.8822 31.869 63.9026 31.7569C64.097 30.6953 64.2988 29.635 64.5005 28.5745C64.9755 26.0781 65.4507 23.5803 65.8321 21.0625C66.3757 17.4208 66.3213 13.7382 65.9273 10.0693C65.4517 5.62574 61.6061 1.35887 57.2577 0.298954C56.85 0.190244 56.4423 0.0951211 56.0347 0H47.8814C47.8305 0.0135891 47.7795 0.0280277 47.7286 0.0424662C47.5757 0.0857801 47.4228 0.129094 47.2699 0.149477C45.6733 0.366895 44.0766 0.580916 42.4799 0.794937Z" fill="url(#paint2_linear_811_7094)"/>
<path d="M11.9941 43.4976C12.0893 43.6063 12.1708 43.7014 12.2659 43.8101C12.1844 43.7014 12.0893 43.5927 11.9941 43.4976Z" fill="#C2151C"/>
<path d="M11.8584 43.3618C11.8992 43.4026 11.9535 43.4569 11.9943 43.4977C11.9535 43.4433 11.9128 43.4026 11.8584 43.3618Z" fill="#C2151C"/>
<path d="M45.0146 45.2503C43.3431 45.8618 41.7125 46.6364 40.0003 47.044C30.1892 49.3269 20.2559 42.4918 18.7883 32.5312C18.6796 31.7975 18.6116 31.0501 18.5165 30.3163C18.4622 26.9735 19.1824 23.7937 20.8538 20.9129C21.6283 19.5812 22.6067 18.3174 23.6802 17.2167C26.2621 14.5941 29.4283 12.9499 33.0565 12.3248C37.962 11.4687 42.5142 12.4471 46.6044 15.3551C46.8219 15.5046 47.0529 15.6405 47.2839 15.7899C47.3926 15.8443 47.5013 15.885 47.61 15.9394L47.5692 15.9666C48.3574 16.7955 49.2135 17.57 49.9337 18.4533C53.5211 22.8832 54.7713 27.9111 53.6026 33.496C52.6107 38.2249 49.9744 41.8667 46.0337 44.6116C45.925 44.6932 45.8163 44.7747 45.7076 44.8562C45.6261 44.9106 45.5445 44.9649 45.463 45.0193H45.4494C45.2999 45.0736 45.164 45.1552 45.0146 45.2503Z" fill="#FEFEFE"/>
<path d="M47.5966 15.9258C47.4879 15.8715 47.3792 15.8307 47.2705 15.7764C47.3792 15.8171 47.4879 15.8715 47.5966 15.9258Z" fill="#C2151C"/>
<path d="M45.4492 44.9785C45.5308 44.9241 45.6123 44.8698 45.6938 44.8154C45.6123 44.8834 45.5308 44.9377 45.4492 44.9785Z" fill="#D24733"/>
<path d="M116.492 37.8175C116.492 39.6383 116.492 41.4049 116.492 43.2801C115.785 43.2801 115.065 43.2801 114.358 43.2801C113.176 43.2801 112.007 43.2937 110.825 43.2801C109.385 43.2529 108.284 42.1523 108.216 40.6847C108.148 39.2715 109.181 37.9126 110.567 37.8446C112.524 37.7495 114.494 37.8175 116.492 37.8175Z" fill="#FEFEFE"/>
<path d="M77.2471 35.1271C77.2471 34.0672 77.1928 33.0616 77.2607 32.0832C77.3559 30.6836 78.4158 29.6916 79.7882 29.6644C80.8482 29.6372 81.9217 29.6372 82.9816 29.6644C84.4356 29.7052 85.5635 30.9554 85.5499 32.4501C85.5227 33.9313 84.3541 35.1271 82.8865 35.1271C81.0248 35.1271 79.1767 35.1271 77.2471 35.1271Z" fill="#FEFEFE"/>
<path d="M147.202 35.1271C147.202 34.04 147.161 33.048 147.216 32.056C147.27 30.7244 148.344 29.6916 149.703 29.6644C150.762 29.6372 151.836 29.6372 152.896 29.6644C154.35 29.7052 155.532 30.9825 155.491 32.4365C155.451 33.9313 154.295 35.1271 152.842 35.1407C150.98 35.1271 149.118 35.1271 147.202 35.1271Z" fill="#FEFEFE"/>
<defs>
<linearGradient id="paint0_linear_811_7094" x1="57.0546" y1="30.2348" x2="26.8197" y2="54.083" gradientUnits="userSpaceOnUse">
<stop stop-color="#B11117"/>
<stop offset="1" stop-color="#B61218"/>
</linearGradient>
<linearGradient id="paint1_linear_811_7094" x1="12.6193" y1="9.44418" x2="15.405" y2="44.8428" gradientUnits="userSpaceOnUse">
<stop stop-color="#AA2E1E"/>
<stop offset="1" stop-color="#EA563D"/>
</linearGradient>
<linearGradient id="paint2_linear_811_7094" x1="24.305" y1="10.2595" x2="66.2262" y2="28.0607" gradientUnits="userSpaceOnUse">
<stop stop-color="#F47421"/>
<stop offset="1" stop-color="#EF4D23"/>
</linearGradient>
</defs>
</svg>
