<svg width="116" height="104" viewBox="0 0 116 104" fill="none" xmlns="http://www.w3.org/2000/svg">
<rect x="33.6475" width="9.73023" height="9.74109" fill="#9D76B3"/>
<rect x="43.3779" y="9.74121" width="9.73023" height="9.74109" fill="#835793"/>
<rect x="33.6475" y="19.4824" width="9.73023" height="9.74109" fill="#EE6692"/>
<rect x="33.6475" y="29.2231" width="9.73023" height="9.74109" fill="#F4835E"/>
<rect x="43.3779" y="29.2231" width="9.73023" height="9.74109" fill="#EF5B5B"/>
<rect x="53.1084" y="19.4824" width="9.73023" height="9.74109" fill="#BD5580"/>
<rect x="62.8389" y="9.74121" width="9.73023" height="9.74109" fill="#9D76B3"/>
<rect x="72.5693" width="9.73023" height="9.74109" fill="#8E1176"/>
<rect x="72.5693" y="19.4824" width="9.73023" height="9.74109" fill="#C5158B"/>
<rect x="62.8389" y="29.2231" width="9.73023" height="9.74109" fill="#E264A4"/>
<rect x="72.5693" y="29.2231" width="9.73023" height="9.74109" fill="#EB008A"/>
<rect x="72.5693" y="38.9644" width="9.73023" height="9.74109" fill="#EE6692"/>
<rect x="72.5693" y="48.7051" width="9.73023" height="9.74109" fill="#C5158B"/>
<rect x="53.1084" y="38.9644" width="9.73023" height="9.74109" fill="#D01F5C"/>
<rect x="33.6475" y="38.9644" width="9.73023" height="9.74109" fill="#FABA76"/>
<rect x="33.6475" y="48.7051" width="9.73023" height="9.74109" fill="#EF5B5B"/>
<path d="M97.4488 66.2993L112.712 79.9916C112.735 79.6397 112.76 79.438 112.76 79.2352C112.76 75.5877 112.76 71.9401 112.76 68.2926C112.76 67.4161 112.76 67.415 113.66 67.414C114.25 67.414 114.839 67.4279 115.427 67.414C115.839 67.4032 116.007 67.5684 115.999 67.9847C115.983 68.8429 115.999 69.7012 115.999 70.5594C115.999 75.7089 115.999 80.8584 115.999 86.0079V86.6784L115.845 86.7535L100.61 73.0902C100.586 73.4399 100.562 73.6384 100.562 73.8411C100.562 77.5423 100.562 81.2439 100.562 84.9458C100.562 85.6785 100.562 85.6764 99.8246 85.6721C99.1452 85.6721 98.4668 85.6624 97.7885 85.6721C97.4027 85.6721 97.2281 85.4993 97.2366 85.1217C97.2366 85.0144 97.2366 84.9072 97.2366 84.7999C97.2366 78.8816 97.2366 72.9629 97.2366 67.0438C97.2366 66.8207 97.2709 66.5965 97.2881 66.3723L97.4488 66.2993Z" fill="#242021"/>
<path d="M40.0357 78.0046L46.4278 85.569C46.2992 85.6365 46.2414 85.6945 46.1835 85.6945C45.1119 85.6945 44.0403 85.6569 42.9687 85.6762C42.4543 85.6848 42.1907 85.3608 41.9238 85.0326C40.1921 82.8998 38.4733 80.7553 36.7319 78.629C36.5979 78.4638 36.3279 78.4144 36.1211 78.3071C36.06 78.4992 35.9485 78.6901 35.9475 78.8822C35.9346 80.9205 35.925 82.9588 35.9475 84.9972C35.9539 85.5239 35.8221 85.7299 35.2563 85.688C34.5252 85.6489 33.7926 85.6489 33.0616 85.688C32.7305 85.6988 32.5965 85.569 32.6126 85.2589C32.6394 84.7611 32.6994 84.2623 32.6994 83.7634C32.7058 78.757 32.7058 73.7527 32.6994 68.7506C32.6994 68.6433 32.6994 68.536 32.6994 68.4287C32.6823 67.4246 32.6823 67.401 33.7207 67.4299C35.5424 67.4814 37.3641 67.4943 39.1677 67.6563C41.0162 67.8215 42.66 68.4856 43.8013 70.0894C44.9747 71.7373 44.8333 74.474 43.4863 75.9899C42.6911 76.8824 41.7599 77.5272 40.5929 77.8136C40.4461 77.8329 40.3014 77.9048 40.0357 78.0046ZM35.9389 72.9431V75.2443C35.9389 75.5114 35.9668 75.7571 36.3161 75.7732C37.4809 75.8289 38.6394 75.7796 39.7356 75.344C40.8747 74.887 41.4438 73.9322 41.3923 72.676C41.3495 71.6214 40.7322 70.8833 39.5867 70.481C38.5386 70.112 37.4584 70.083 36.3718 70.1109C36.0021 70.1195 35.9432 70.3447 35.9432 70.6473C35.9389 71.4079 35.9389 72.175 35.9389 72.9431Z" fill="#242021"/>
<path d="M95.768 85.668C95.0714 85.668 94.5313 85.5908 94.0212 85.683C92.566 85.9448 91.7398 85.3526 91.279 83.9784C91.0143 83.1898 90.5385 82.4764 90.1763 81.7147C90.1227 81.5733 90.0246 81.453 89.8969 81.3722C89.7691 81.2913 89.6186 81.2541 89.468 81.2663C86.8247 81.2734 84.1813 81.2734 81.538 81.2663C81.0997 81.2663 80.849 81.4658 80.6572 81.8327C80.0624 82.9721 79.4409 84.0985 78.8579 85.2443C78.6865 85.58 78.4893 85.6959 78.1078 85.682C77.1434 85.6487 76.1864 85.6712 75.0537 85.6712L85.4858 66.439L85.6862 66.4111C89.02 72.7782 92.3549 79.1486 95.768 85.668ZM85.5426 72.6066L82.3482 78.6143H88.5946L85.5426 72.6066Z" fill="#242021"/>
<path d="M18.5683 76.6079C18.5683 73.8007 18.5683 70.9939 18.5683 68.1875C18.5683 67.4429 18.594 67.415 19.3045 67.415C22.7336 67.415 26.1628 67.415 29.5919 67.415C30.3078 67.415 30.3613 67.4719 30.3667 68.166C30.3667 68.5951 30.3463 69.0242 30.3731 69.4534C30.4042 69.9426 30.206 70.1121 29.7184 70.1078C27.3983 70.0917 25.0762 70.1003 22.7529 70.1014C21.8956 70.1014 21.8956 70.1014 21.8956 70.9596C21.8956 71.8529 21.8956 72.7469 21.8956 73.6416C21.8956 74.3443 21.9256 74.3743 22.6136 74.3743C24.8283 74.3743 27.0429 74.3743 29.2576 74.3743C30.0913 74.3743 30.0849 74.3743 30.0591 75.1811C30.0303 75.6098 30.0321 76.04 30.0645 76.4685C30.1192 76.9705 29.8995 77.0746 29.4537 77.0714C27.5612 77.0564 25.6688 77.0649 23.7741 77.066C23.3101 77.066 22.8451 77.0725 22.381 77.066C22.0446 77.066 21.8935 77.213 21.8945 77.5509C21.8988 79.2309 21.8988 80.9117 21.8945 82.5931C21.8945 83.0362 22.1689 83.0619 22.5011 83.0619C24.8586 83.0619 27.2162 83.0619 29.5737 83.0619C30.3463 83.0619 30.3613 83.0791 30.3656 83.8333C30.3656 84.227 30.3442 84.6218 30.3656 85.0134C30.3978 85.5015 30.1995 85.6731 29.7119 85.6689C27.7123 85.6506 25.7116 85.6613 23.7109 85.6613C22.1753 85.6613 20.6397 85.6528 19.103 85.6678C18.7044 85.6678 18.5447 85.5787 18.5479 85.1314C18.579 82.2927 18.5683 79.4498 18.5683 76.6079Z" fill="#242021"/>
<path d="M48.0328 76.5295C48.0328 73.7402 48.0328 70.9509 48.0328 68.1616C48.0328 67.4385 48.0563 67.4106 48.7936 67.4106H58.9739C59.7101 67.4106 59.7348 67.4375 59.738 68.1616C59.738 68.5553 59.738 68.948 59.738 69.3417C59.738 70.0787 59.7123 70.1045 58.9879 70.1045C56.666 70.1045 54.3442 70.1045 52.0224 70.1045C51.2722 70.1045 51.2647 70.1173 51.2637 70.8468C51.2637 71.8124 51.284 72.7779 51.2551 73.7434C51.2412 74.2412 51.4319 74.3935 51.9131 74.3871C54.1635 74.3699 56.4138 74.3796 58.6642 74.3807C59.5129 74.3807 59.5129 74.3807 59.5151 75.2561V76.168C59.5151 77.0681 59.5151 77.0691 58.6374 77.0691H52.0524C51.2787 77.0691 51.2701 77.0777 51.269 77.8426C51.269 79.326 51.269 80.81 51.269 82.2948C51.269 83.0211 51.3087 83.0608 52.0192 83.0618C54.3939 83.0618 56.7696 83.0769 59.1443 83.05C59.6297 83.05 59.7755 83.1938 59.7423 83.6572C59.7165 84.1393 59.7165 84.6224 59.7423 85.1045C59.7594 85.5271 59.5687 85.6698 59.1647 85.6666C57.8605 85.6537 56.5574 85.6666 55.2533 85.6666H48.8772C48.0349 85.6666 48.0328 85.6666 48.0328 84.8427C48.032 82.0727 48.032 79.3016 48.0328 76.5295Z" fill="#242021"/>
<path d="M70.5362 86.9462C70.2018 86.2618 69.8632 85.5795 69.5342 84.8918C68.4169 82.5574 67.3017 80.2215 66.1886 77.8842C64.8441 75.0435 63.5042 72.2002 62.169 69.3544C61.9483 68.8866 61.7264 68.4178 61.4928 67.9597C61.3139 67.6089 61.3707 67.4169 61.8014 67.4233C62.693 67.4233 63.5868 67.4029 64.4805 67.4448C64.5963 67.4618 64.7067 67.5047 64.8037 67.5703C64.9008 67.6358 64.9818 67.7223 65.0409 67.8235C66.6666 71.2811 68.2686 74.7495 69.8793 78.2147C70.1236 78.7414 70.3818 79.2607 70.7001 79.9226C71.0859 79.1341 71.4106 78.4904 71.7181 77.8381C72.4954 76.1931 73.2681 74.5442 74.036 72.8914C74.7862 71.2897 75.5427 69.6934 76.2682 68.082C76.4911 67.5885 76.804 67.3858 77.3398 67.4136C78.0524 67.4501 78.7683 67.4136 79.483 67.4254C79.6727 67.4254 79.8624 67.4576 80.1967 67.4877C77.0065 74.0436 73.8592 80.5094 70.7119 86.9741L70.5362 86.9462Z" fill="#242021"/>
<path d="M8.48502 74.6328C8.99832 73.8732 9.45483 73.1984 9.90812 72.5225C10.9615 70.9487 12.0074 69.3696 13.0747 67.8022C13.1915 67.6316 13.4284 67.4439 13.6159 67.4385C14.6329 67.4042 15.652 67.4213 16.6678 67.4299C16.7461 67.4299 16.8232 67.4932 16.9658 67.5554C16.8039 67.844 16.6775 68.1133 16.5114 68.3579C14.5918 71.2001 12.6668 74.0388 10.7365 76.8738C10.3078 77.4961 10.0753 78.1204 10.0935 78.9047C10.1471 80.943 10.0935 82.9813 10.1203 85.0197C10.1203 85.5271 9.9917 85.7256 9.45161 85.6784C8.84937 85.6237 8.23855 85.6655 7.62987 85.6644C6.78759 85.6644 6.78437 85.6644 6.7833 84.8394C6.7833 82.7292 6.77258 80.619 6.7908 78.5099C6.80266 78.0306 6.6615 77.5601 6.38787 77.1667C4.38039 74.2108 2.38291 71.2488 0.395425 68.2807C0.249686 68.0661 0.124307 67.8344 0 67.6295C0.0600102 67.5522 0.0803709 67.5007 0.107161 67.5007C1.22592 67.4825 2.34576 67.4503 3.46452 67.4761C3.63705 67.4761 3.84494 67.726 3.9671 67.9052C5.28412 69.8598 6.58612 71.8252 7.89456 73.7852C8.06388 74.0427 8.24927 74.2959 8.48502 74.6328Z" fill="#242021"/>
<path d="M35.9389 72.9433C35.9389 72.1752 35.9389 71.4081 35.9389 70.6411C35.9389 70.3396 35.9989 70.1143 36.3675 70.1047C37.4595 70.0768 38.5397 70.1047 39.5823 70.4748C40.7279 70.8771 41.3451 71.6152 41.388 72.6697C41.4394 73.926 40.8704 74.8808 39.7313 75.3378C38.635 75.7787 37.4809 75.8281 36.3118 75.7669C35.9624 75.7509 35.9346 75.5052 35.9346 75.238L35.9389 72.9433Z" fill="white"/>
<path d="M85.5421 72.6064L88.5941 78.6142H82.3477L85.5421 72.6064Z" fill="white"/>
<path d="M35.7831 92.3148C36.0703 92.0541 36.3543 91.7891 36.6404 91.5327C37.7345 90.5672 39.0076 90.1381 40.4682 90.1381C41.8217 90.1381 43.1697 90.1381 44.3453 90.9019C44.9296 91.2961 45.4655 91.7577 45.942 92.2773C46.3706 92.7321 46.4189 92.7557 46.8604 92.2773C48.0659 90.9781 49.5533 90.2389 51.3322 90.1553C52.6342 90.0963 53.9276 90.0877 55.1825 90.5844C57.3611 91.4426 58.4991 93.2471 58.5356 95.4732C58.5774 97.9932 58.5484 100.515 58.5452 103.035C58.5452 103.663 58.467 103.726 57.8155 103.701L57.5486 103.69C56.8874 103.668 56.8317 103.615 56.8306 102.929C56.8306 101.248 56.8403 99.567 56.8306 97.887C56.8199 96.8142 56.8607 95.7349 56.7181 94.6793C56.4492 92.6914 54.7185 91.4802 52.8207 91.4609C51.9923 91.4523 51.1275 91.4609 50.3388 91.6754C48.2738 92.2472 47.0993 93.8951 47.0897 96.0525C47.079 98.3408 47.0897 100.629 47.0768 102.918C47.0768 103.16 46.9782 103.587 46.8625 103.607C46.4339 103.686 45.9838 103.643 45.5444 103.607C45.5048 103.607 45.4555 103.362 45.4555 103.23C45.4555 100.941 45.4801 98.653 45.4501 96.3636C45.4373 95.3981 45.3483 94.4379 44.8693 93.5571C44.1481 92.2301 42.9876 91.6196 41.5409 91.4394C40.3032 91.2849 39.1308 91.4394 38.0346 92.0767C36.5225 92.9682 35.6181 94.2169 35.6181 96.0257C35.6181 98.3322 35.6181 100.638 35.6181 102.944C35.6181 103.665 35.5913 103.687 34.8551 103.695C33.9024 103.695 33.9024 103.695 33.9014 102.765C33.9014 98.9212 33.9014 95.0773 33.9099 91.2334C33.9099 90.9706 33.9967 90.5104 34.1168 90.4825C34.5495 90.41 34.9913 90.41 35.4241 90.4825C35.5088 90.4921 35.5988 90.8043 35.6095 90.9856C35.6363 91.4212 35.6181 91.8589 35.6181 92.2966L35.7831 92.3148Z" fill="#E9038A"/>
<path d="M72.3986 101.823C71.9399 102.145 71.4952 102.496 71.0183 102.789C69.3477 103.831 67.496 104.101 65.5724 103.969C64.0867 103.89 62.6527 103.396 61.4328 102.543C59.6796 101.316 59.6014 98.6573 61.0041 97.2637C62.1829 96.1008 63.6724 95.6288 65.2616 95.4882C67.5452 95.2855 69.8256 95.3412 72.0782 95.8422C72.4843 95.9324 72.5893 95.7038 72.5765 95.3616C72.5186 93.9412 71.9828 92.7955 70.6701 92.1239C69.8031 91.6808 68.9019 91.3558 67.8999 91.4394C67.6503 91.4598 67.3994 91.4598 67.1498 91.4394C65.6367 91.3161 64.219 91.7259 62.8109 92.199C62.4144 92.3331 62.0125 92.4843 61.7682 91.9426C61.5014 91.3525 61.5646 91.2345 62.1754 91.0082C64.6483 90.0875 67.327 89.8677 69.9167 90.3731C71.014 90.579 72.0257 91.0339 72.8358 91.8535C73.2607 92.2782 73.5978 92.7826 73.8278 93.3377C74.0578 93.8929 74.1763 94.4881 74.1764 95.0891C74.2182 97.7357 74.1925 100.382 74.1882 103.028C74.1882 103.653 74.1464 103.677 73.3309 103.672C72.6354 103.672 72.5893 103.632 72.5808 103.016C72.5808 102.618 72.5808 102.22 72.5808 101.822L72.3986 101.823ZM72.5829 98.359C72.5829 97.2723 72.5111 97.1682 71.7513 97.0502C71.1373 96.9547 70.5243 96.8421 69.9071 96.7659C67.9707 96.5278 66.0375 96.4226 64.1397 97.0395C63.2824 97.3173 62.5322 97.7551 62.0757 98.5511C61.377 99.7859 61.9975 101.396 63.3874 102.028C65.7192 103.089 68.0435 102.914 70.2961 101.83C71.7835 101.114 72.6815 99.9339 72.5882 98.359H72.5829Z" fill="#F78664"/>
<path d="M80.3037 96.9774C80.3037 94.9211 80.3037 92.8653 80.3037 90.8098C80.3037 90.4075 80.3037 90.0653 80.8684 90.0492C81.7964 90.0224 81.8961 90.0556 81.9883 90.7079C82.012 90.9033 82.0224 91.1 82.0193 91.2968C82.0193 95.1396 82.0258 98.9835 82.0108 102.826C82.0108 103.1 81.9036 103.577 81.7675 103.606C81.3292 103.705 80.8545 103.649 80.3958 103.62C80.3541 103.62 80.2983 103.38 80.2973 103.251C80.2915 101.16 80.2915 99.0686 80.2973 96.9774H80.3037Z" fill="#E9038A"/>
<path d="M78.054 96.9238C78.054 98.9442 78.054 100.964 78.054 102.984C78.054 103.663 78.0207 103.687 77.246 103.687C76.4712 103.687 76.4433 103.663 76.4423 102.981C76.4423 98.9224 76.4423 94.864 76.4326 90.8055C76.4326 90.3088 76.5173 89.9838 77.1206 90.134C77.229 90.1457 77.3386 90.134 77.4421 90.0996C77.9543 89.9923 78.0615 90.2723 78.0593 90.7015C78.055 92.7756 78.055 94.8497 78.0593 96.9238H78.054Z" fill="#F7565C"/>
<path d="M72.5884 98.3593C72.687 99.9341 71.789 101.114 70.3016 101.83C68.0512 102.914 65.7247 103.089 63.3929 102.028C61.9998 101.396 61.3826 99.7861 62.0813 98.5513C62.5324 97.7553 63.29 97.3176 64.1452 97.0397C66.043 96.4228 67.9762 96.528 69.9126 96.7661C70.5298 96.8423 71.1428 96.955 71.7568 97.0504C72.5112 97.1684 72.5884 97.2725 72.5884 98.3593Z" fill="white"/>
</svg>
