<svg width="96" height="104" viewBox="0 0 96 104" fill="none" xmlns="http://www.w3.org/2000/svg">
<path d="M21.4786 96.6741C23.0889 96.6741 24.6016 96.6741 26.1143 96.6741C27.0089 96.6741 27.9035 96.6905 28.7981 96.6577C30.3759 96.6085 31.1892 95.6415 31.1729 93.8713C31.1566 92.2486 30.3922 91.4291 28.7981 91.4127C26.8788 91.3963 24.9432 91.3963 23.0239 91.4127C21.4786 91.4127 20.5515 92.3469 20.5352 93.9204C20.519 96.9035 20.5352 99.8702 20.5352 102.853C20.5352 103.148 20.5352 103.443 20.5352 103.804C19.6244 103.804 18.7785 103.804 17.8677 103.804C17.8514 103.607 17.8026 103.394 17.8026 103.198C17.8026 100.198 17.7701 97.1822 17.8189 94.1827C17.8351 93.4123 17.9815 92.5928 18.2418 91.8716C19.0063 89.7408 20.7304 88.5607 22.9751 88.5279C24.8781 88.5115 26.7649 88.5115 28.668 88.5279C31.6609 88.5443 33.4989 90.1998 33.8567 93.1665C34.2308 96.3463 32.9296 98.4115 29.9204 99.4277C29.8229 99.4605 29.7415 99.5096 29.4325 99.6408C30.3921 100.1 31.1729 100.477 31.9536 100.854C33.7266 101.69 33.7429 101.722 33.3525 103.82C32.2627 103.87 31.2054 103.952 30.1319 103.411C27.5457 102.099 24.9107 100.87 22.2756 99.6572C21.6738 99.3785 21.3973 99.0507 21.4624 98.3787C21.5274 97.8542 21.4786 97.2969 21.4786 96.6741Z" fill="#252323"/>
<path d="M2.72357 104C1.74764 104 0.950631 104 0.0885569 104C0.0560258 103.787 0.00722913 103.623 0.00722913 103.443C0.00722913 100.247 -0.00903642 97.0506 0.00722913 93.8544C0.0234947 92.2481 0.657843 90.8877 1.82896 89.7895C2.7561 88.9208 3.86216 88.5766 5.09834 88.5766C7.09901 88.5766 9.11593 88.5602 11.1166 88.5766C13.9631 88.6094 15.8011 90.2321 16.0288 93.084C16.1427 94.4281 16.0776 95.8377 15.736 97.1325C15.2155 99.1158 13.8167 100.378 11.7022 100.493C9.29485 100.624 6.88756 100.706 4.48026 100.099C4.48026 99.2961 4.48026 98.5257 4.48026 97.657C6.00922 97.657 7.48938 97.657 8.96954 97.657C9.57137 97.657 10.1569 97.657 10.7588 97.657C12.2714 97.657 13.1335 96.9031 13.3124 95.3787C13.3775 94.7887 13.3775 94.1658 13.3124 93.5758C13.1498 92.1662 12.3365 91.445 10.9214 91.445C9.0834 91.445 7.22913 91.445 5.39112 91.445C3.63444 91.445 2.73983 92.3301 2.72357 94.1167C2.7073 97.0998 2.72357 100.066 2.72357 103.05C2.72357 103.345 2.72357 103.64 2.72357 104Z" fill="#252323"/>
<path d="M84.3786 97.6569C86.5908 97.6569 88.6402 97.6569 90.6897 97.6569C92.2674 97.6569 93.1458 96.8046 93.2434 95.2147C93.2434 95.1327 93.2434 95.0508 93.2596 94.9688C93.3735 92.5594 92.9181 91.2318 89.8764 91.4284C88.3312 91.5268 86.7859 91.4448 85.2407 91.4448C83.5979 91.4612 82.6545 92.3791 82.6545 94.0346C82.6382 97.0341 82.6545 100.05 82.6545 103.049C82.6545 103.344 82.6545 103.639 82.6545 103.984C81.7274 103.984 80.8653 103.984 79.9707 103.984C79.9544 103.738 79.9219 103.525 79.9219 103.312C79.9219 100.279 79.9219 97.2471 79.9219 94.2149C79.9219 92.9036 80.2472 91.6743 81.0279 90.6089C81.9551 89.3632 83.175 88.6093 84.7528 88.5929C86.9486 88.5765 89.1445 88.5437 91.3403 88.5929C94.0567 88.6748 95.9434 90.6089 95.9922 93.3625C96.0085 94.5099 96.0248 95.6736 95.7971 96.7882C95.3579 98.9518 93.7313 100.427 91.6005 100.492C89.5023 100.574 87.3878 100.361 85.2732 100.312C84.4925 100.296 84.2648 99.9024 84.3624 99.1648C84.4274 98.6895 84.3786 98.2306 84.3786 97.6569Z" fill="#252323"/>
<path d="M43.5003 103.852C42.5569 103.852 41.7273 103.852 40.849 103.852C40.8327 103.574 40.8002 103.344 40.8002 103.099C40.8002 100.066 40.7839 97.034 40.8002 94.0017C40.8165 90.5761 42.8497 88.5764 46.2329 88.56C48.136 88.56 50.0228 88.5436 51.9258 88.56C54.5283 88.5928 56.7567 90.4122 56.9031 93.0183C57.0983 96.5587 56.9844 100.115 57.0007 103.656C57.0007 103.705 56.9519 103.754 56.9031 103.836C56.0898 103.836 55.2603 103.836 54.3169 103.836C54.3169 103.525 54.3169 103.23 54.3169 102.935C54.3169 100.033 54.3169 97.1487 54.3169 94.2476C54.3169 92.2807 53.4385 91.412 51.4704 91.412C49.73 91.412 48.0058 91.412 46.2654 91.412C44.3786 91.412 43.5003 92.2971 43.5003 94.2312C43.484 97.0668 43.5003 99.9187 43.5003 102.754C43.5003 103.115 43.5003 103.443 43.5003 103.852Z" fill="#252323"/>
<path d="M73.5431 88.4949C73.5431 89.4619 73.5431 90.3306 73.5431 91.2977C73.2015 91.2977 72.925 91.2977 72.6322 91.2977C69.7369 91.2977 66.8417 91.2977 63.9301 91.2977C62.3686 91.2977 61.3927 92.2319 61.3439 93.8218C61.3114 95.379 61.3114 96.9361 61.3439 98.4932C61.3764 100.132 62.3361 101.067 63.9464 101.067C66.7929 101.067 69.6393 101.067 72.4858 101.067C72.8111 101.067 73.1202 101.067 73.5105 101.067C73.5105 102.017 73.5105 102.902 73.5105 103.886C73.2503 103.902 72.9575 103.935 72.681 103.935C69.7532 103.935 66.8254 103.935 63.8976 103.935C60.9047 103.935 58.9529 102.361 58.6926 99.3619C58.4974 97.1 58.53 94.7725 58.7577 92.5106C59.0017 90.1012 60.9373 88.5113 63.3446 88.4785C66.5652 88.4457 69.7857 88.4621 73.0226 88.4621C73.169 88.4621 73.3316 88.4785 73.5431 88.4949Z" fill="#252323"/>
<path d="M36.6543 88.3472C37.4025 88.3472 38.0694 88.3472 38.7851 88.3472C38.7851 93.5266 38.7851 98.6733 38.7851 103.853C38.0531 103.853 37.3862 103.853 36.6543 103.853C36.6543 98.7061 36.6543 93.5594 36.6543 88.3472Z" fill="#252323"/>
<path d="M75.5938 88.3472C76.342 88.3472 77.0089 88.3472 77.7408 88.3472C77.7408 93.5266 77.7408 98.6569 77.7408 103.853C77.0414 103.853 76.342 103.853 75.5938 103.853C75.5938 98.6897 75.5938 93.5594 75.5938 88.3472Z" fill="#252323"/>
<path d="M18.1423 17.7034C18.5164 17.7034 18.8092 17.7034 19.0857 17.7034C27.6739 17.7034 36.2621 17.7198 44.8666 17.687C45.7124 17.687 45.8913 17.9329 45.8913 18.736C45.8751 32.75 45.8751 46.764 45.8751 60.778C45.8751 61.0403 45.8588 61.3025 45.8425 61.6631C45.5986 61.5484 45.4196 61.4828 45.2732 61.3845C42.8659 59.811 40.4749 58.2375 38.0676 56.6804C37.6122 56.3853 37.417 56.0575 37.417 55.5002C37.4495 52.6319 37.417 49.7635 37.4333 46.8951C37.4333 46.387 37.3194 46.0756 36.8477 45.7806C33.0741 43.4039 29.3167 40.9945 25.5594 38.5851C21.8671 36.2248 19.7526 32.8156 18.858 28.5212C18.126 24.9972 18.061 21.4405 18.1423 17.7034ZM37.2869 37.1755C37.3519 36.8149 37.4007 36.6838 37.4007 36.5526C37.4007 33.0287 37.4007 29.5047 37.417 25.9971C37.417 25.3414 37.0591 25.3251 36.5712 25.3414C33.7247 25.3578 30.8782 25.3414 28.0318 25.3414C25.7871 25.3414 25.7708 25.3414 26.3401 27.6034C26.7468 29.1932 27.3811 30.6684 28.7637 31.6355C30.8132 33.0614 32.8952 34.4055 34.9772 35.7659C35.7091 36.2412 36.441 36.6674 37.2869 37.1755Z" fill="#747678"/>
<path d="M50.1367 61.6464C50.1367 61.2695 50.1367 60.9744 50.1367 60.6958C50.1367 46.731 50.1367 32.7825 50.1367 18.8177C50.1367 17.7031 50.1367 17.7031 51.2265 17.7031C59.7659 17.7031 68.3054 17.7031 76.8448 17.7031C77.1701 17.7031 77.4791 17.7031 77.902 17.7031C77.902 19.5061 78.0159 21.2271 77.8695 22.9317C77.6743 25.0953 77.3978 27.2589 76.9424 29.3733C76.0965 33.2251 73.982 36.2901 70.6639 38.4373C66.8252 40.9287 62.9702 43.3709 59.099 45.8131C58.6761 46.0753 58.5785 46.354 58.5785 46.7965C58.5948 49.6977 58.5948 52.5824 58.5623 55.4836C58.5623 55.8442 58.3508 56.3687 58.0743 56.549C55.6182 58.2208 53.1133 59.8435 50.6247 61.4661C50.5108 61.5481 50.3644 61.5645 50.1367 61.6464ZM70.0132 25.4067C69.7042 25.3739 69.5415 25.3412 69.3789 25.3412C66.0282 25.3412 62.6612 25.3576 59.3105 25.3248C58.7087 25.3248 58.5785 25.587 58.5785 26.1115C58.5948 29.5208 58.5785 32.93 58.5948 36.3393C58.5948 36.5688 58.6599 36.7982 58.7087 37.0605C58.9364 36.9949 59.0828 36.9785 59.1804 36.913C61.8316 35.1919 64.5317 33.5201 67.118 31.7007C69.2325 30.2256 69.7367 27.8981 70.0132 25.4067Z" fill="#747678"/>
<path d="M43.0303 0.00133771C43.3394 2.13212 43.6484 4.13178 43.8924 6.16422C43.9574 6.7215 44.1526 6.9018 44.6894 6.9018C46.8527 6.88541 49.0323 6.88541 51.1956 6.9018C51.7974 6.9018 52.0414 6.7215 52.1228 6.08227C52.3505 4.08261 52.6595 2.09934 52.936 0.0505102C53.2776 0.0341195 53.5704 0.0177294 53.8632 0.0177294C55.1969 0.0177294 56.5145 0.0177294 57.8482 0.0177294C59.6374 0.0177294 59.6212 0.0177278 59.8489 1.83709C60.0278 3.32864 60.2555 4.8038 60.4507 6.27896C60.5158 6.75428 60.711 6.91819 61.1827 6.91819C63.411 6.9018 65.6232 6.88541 67.8515 6.91819C68.551 6.93458 68.5835 6.47564 68.6486 6.04949C68.8925 4.32847 69.1528 2.60745 69.3317 0.870042C69.3968 0.279979 69.5594 0.00133771 70.21 0.00133771C72.1294 0.034119 74.0487 0.0177294 76.1632 0.0177294C76.7 4.49238 77.2205 8.93424 77.7735 13.4744C57.832 13.4744 38.1344 13.4744 18.3555 13.4744C18.388 12.7041 18.388 11.9337 18.4856 11.1634C18.8922 7.73772 19.3477 4.31208 19.7543 0.886434C19.8356 0.26359 20.0308 -0.0150519 20.714 0.0177294C22.3893 0.0669013 24.0809 0.0669013 25.7563 0.0177294C26.3581 0.00133871 26.5858 0.230806 26.6509 0.771698C26.8786 2.49272 27.1389 4.21373 27.3341 5.95114C27.4154 6.63955 27.6106 6.95097 28.375 6.93458C30.4896 6.88541 32.6041 6.9018 34.7186 6.93458C35.2879 6.93458 35.5156 6.80345 35.5807 6.18061C35.7921 4.34486 36.0687 2.5255 36.3777 0.689744C36.4102 0.443885 36.7193 0.0669018 36.8982 0.0669018C38.8826 -0.0150514 40.9158 0.00133771 43.0303 0.00133771Z" fill="#747678"/>
<path d="M37.45 61.3843C38.6211 62.1382 39.6133 62.7611 40.6055 63.4167C42.8502 64.8755 45.0948 66.3342 47.3069 67.8422C47.86 68.2192 48.2341 68.17 48.7546 67.8258C51.7637 65.8261 54.8054 63.8429 57.8307 61.8596C58.0097 61.7449 58.2049 61.6465 58.4976 61.4826C58.5302 61.7776 58.579 61.9907 58.579 62.2202C58.579 64.4002 58.5952 66.5801 58.5627 68.7765C58.5627 69.137 58.3838 69.596 58.1235 69.8418C56.0903 71.7432 53.9921 73.5789 51.9426 75.4802C50.8691 76.4801 49.8444 77.5455 48.8196 78.5945C48.5594 78.8567 48.3479 79.2009 48.1365 79.4795C46.8352 78.2339 45.6804 77.1357 44.5093 76.0539C42.3297 74.0215 40.1338 72.0054 37.9705 69.9402C37.6615 69.6452 37.4663 69.1043 37.45 68.6781C37.4175 66.2851 37.45 63.9412 37.45 61.3843Z" fill="#747678"/>
<path d="M37.2864 37.1754C36.4406 36.6672 35.7086 36.2411 34.9929 35.7658C32.911 34.4053 30.829 33.0449 28.7795 31.6353C27.3969 30.6683 26.7626 29.1931 26.3559 27.6032C25.7866 25.3413 25.7866 25.3413 28.0476 25.3413C30.894 25.3413 33.7405 25.3413 36.587 25.3413C37.0587 25.3413 37.4328 25.3577 37.4328 25.9969C37.4165 29.5209 37.4165 33.0449 37.4165 36.5525C37.4003 36.6836 37.3514 36.8148 37.2864 37.1754Z" fill="white"/>
<path d="M70.0118 25.4067C69.7353 27.898 69.2311 30.2255 67.1166 31.7007C64.5303 33.52 61.8303 35.1919 59.179 36.9129C59.0651 36.9785 58.935 36.9948 58.7073 37.0604C58.6585 36.7982 58.5934 36.5687 58.5934 36.3392C58.5934 32.93 58.5934 29.5207 58.5771 26.1115C58.5771 25.587 58.7073 25.3247 59.3091 25.3247C62.6598 25.3411 66.0268 25.3411 69.3775 25.3411C69.5401 25.3411 69.7028 25.3739 70.0118 25.4067Z" fill="white"/>
</svg>
