<svg width="106" height="106" viewBox="0 0 106 106" fill="none" xmlns="http://www.w3.org/2000/svg">
<g clip-path="url(#clip0_811_6022)">
<path d="M53.0263 105.99C24.7355 106.446 1.46215 83.4423 0.0833782 56.3851C-0.714861 40.6795 4.20934 27.0368 15.2499 15.82C25.6892 5.22522 38.5233 -0.0514555 53.4099 0.000378165C82.1776 0.104046 106.218 23.5225 106.094 53.2958C105.969 83.6703 80.7159 106.55 53.0263 105.99ZM53.016 105.544C80.7885 106.094 105.648 82.9861 105.638 53.0366C105.627 24.0927 82.302 0.632749 53.4928 0.456515C38.6891 0.363214 25.9277 5.60879 15.5506 16.1725C4.66548 27.2442 -0.237989 40.7313 0.52915 56.2296C1.86646 83.3801 25.1502 106 53.016 105.544Z" fill="#262627"/>
<path d="M53.0167 105.544C25.1509 106 1.87756 83.3799 0.529888 56.2294C-0.237251 40.7311 4.66621 27.244 15.5513 16.1619C25.9284 5.60857 38.6899 0.363 53.4936 0.456301C82.3027 0.642902 105.618 24.1028 105.638 53.0364C105.649 82.9859 80.7892 106.093 53.0167 105.544ZM28.1573 56.3745C28.1884 56.3434 28.2195 56.3123 28.2609 56.2708C28.3542 56.1257 28.4475 55.9909 28.5512 55.8458C28.6756 55.8665 28.8104 55.8769 28.9244 55.908C30.7282 56.4678 32.5735 56.6751 34.4499 56.7166C35.0097 56.727 35.5487 56.6233 35.9634 56.1568C36.5439 55.5037 36.4817 54.7988 36.1915 54.0627C36.2018 54.0005 36.2122 53.9383 36.2226 53.8865C37.6014 53.8865 38.9698 53.8865 40.3485 53.8865C40.3693 53.8347 40.3796 53.7828 40.4004 53.7206C40.2967 53.6688 40.193 53.5858 40.079 53.5651C39.7576 53.5236 39.4259 53.5133 39.1045 53.4718C38.7417 53.42 38.5447 53.1712 38.5344 52.8291C38.5136 52.0619 38.524 51.2948 38.524 50.4758C38.6795 50.5484 38.7935 50.6002 38.8972 50.6624C41.126 51.9272 43.3756 53.1401 45.8844 53.7621C46.7656 53.9798 47.6882 54.0109 48.6005 54.0524C48.9218 54.0627 49.2536 53.845 49.5749 53.7206C49.5542 53.6688 49.5438 53.6066 49.5231 53.5548C49.4505 53.5444 49.378 53.5237 49.3158 53.5444C48.6005 53.7725 47.8748 53.7517 47.1906 53.4614C45.7392 52.8602 44.3086 52.2174 42.8677 51.5851C42.8158 51.5643 42.7847 51.5125 42.6914 51.4296C43.0646 51.3777 43.3653 51.3363 43.6659 51.2948C46.5893 50.8801 48.8596 48.3403 48.9426 45.4169C49.0255 42.5245 46.496 39.8188 43.5104 39.5286C41.8414 39.373 40.3693 39.8292 38.9905 40.7104C38.8557 40.7933 38.7002 40.8762 38.4929 40.9903C38.4929 40.4719 38.4929 40.0676 38.4929 39.6426C37.7361 39.6426 37.0208 39.6322 36.2951 39.6529C36.1811 39.6529 36.0671 39.7566 35.953 39.8085C36.0671 39.8603 36.1811 39.9536 36.2951 39.964C37.2282 40.078 37.394 40.2646 37.4044 41.2183C37.4044 41.2391 37.4044 41.2494 37.4044 41.2702C37.4044 45.1992 37.4044 49.1281 37.4044 53.0468C37.4044 53.2023 37.4044 53.3578 37.4044 53.5755C36.9379 53.5755 36.5439 53.5755 36.15 53.5755C36.0671 53.4407 35.9841 53.306 35.9012 53.1608C35.9323 52.6632 35.953 52.1552 35.9841 51.6576C36.0152 51.2533 36.0982 50.849 36.0774 50.4551C36.0463 49.8227 35.5902 49.4599 35.1237 49.1178C35.4554 47.936 35.642 46.7542 35.4243 45.5309C34.6572 41.1769 30.5209 38.523 26.1772 39.3938C21.8854 40.2542 18.7546 44.2869 20.0608 49.0038C18.8064 49.0763 18.4332 50.1545 18.6095 51.243C18.7028 51.8131 18.7339 52.3937 18.7961 52.9638C18.7132 53.1712 18.5991 53.3785 18.5473 53.5962C18.4332 54.0524 18.2259 54.5189 18.257 54.9646C18.3192 56.0531 18.9827 56.5818 20.1749 56.5818C22.1134 56.5818 24.0106 56.2812 25.8662 55.7421C25.9906 55.9391 26.1046 56.1464 26.229 56.3434C26.3016 56.4056 26.3742 56.4678 26.4467 56.53C26.5089 56.5715 26.5711 56.6129 26.6333 56.644C27.1724 56.955 27.7219 56.8825 28.0847 56.4367C28.0951 56.4367 28.1262 56.4056 28.1573 56.3745ZM87.2477 72.3911C87.2166 72.3497 87.1751 72.3082 87.144 72.2667C87.341 71.4788 87.5483 70.7013 87.7453 69.9135C87.7038 69.8824 87.652 69.8513 87.6105 69.8202C87.4446 69.9238 87.1751 70.0068 87.1336 70.1415C86.9263 70.9294 86.7397 71.7173 86.6153 72.5259C86.5738 72.8369 86.8641 73.0235 87.1544 72.8162C87.4758 72.5777 87.7349 72.2564 88.0148 71.9661C88.1185 71.852 88.2014 71.7173 88.2843 71.5825C88.3465 71.7795 88.2636 71.9454 88.3155 72.0594C88.388 72.2253 88.5539 72.4533 88.6887 72.4533C89.093 72.4637 89.7564 71.738 89.8497 71.1989C89.5491 71.4477 89.3003 71.6551 89.0515 71.8624C89.01 71.8417 88.9686 71.8209 88.9271 71.8002C89.0204 71.427 89.1241 71.0642 89.2174 70.691C89.3107 70.3178 89.4143 69.9549 89.518 69.5714C88.9478 69.447 88.8234 69.8202 88.6472 70.1208C88.191 70.8776 87.7142 71.6343 87.2477 72.3911ZM5.47482 64.813C9.45565 83.2969 28.2195 103.471 55.8572 101.978C69.334 101.252 80.5715 95.623 89.6113 85.6916C95.0435 79.7204 98.7029 72.7125 100.631 64.8234C99.9262 64.699 99.9366 64.699 99.75 65.2692C99.1798 67.0108 98.6822 68.7835 98.0291 70.494C96.3808 74.7651 94.3074 78.8392 91.3944 82.395C89.5698 84.6239 87.5483 86.7076 85.5061 88.7498C83.3809 90.8854 80.9551 92.6581 78.353 94.1924C74.0301 96.7322 69.5206 98.8367 64.6171 99.9356C62.2742 100.464 59.8795 100.786 57.4848 101.107C54.6961 101.48 51.8764 101.428 49.0773 101.169C46.2265 100.91 43.4275 100.423 40.6492 99.7075C36.7098 98.6915 32.9156 97.3024 29.4013 95.2291C24.7362 92.4819 20.5273 89.1852 16.899 85.1111C13.6956 81.5139 11.1558 77.5434 9.15502 73.1997C7.96284 70.6184 7.01947 67.9438 6.24196 65.2173C6.11756 64.7405 5.87913 64.6783 5.47482 64.813ZM97.2723 32.0334C91.1974 18.4322 74.932 3.22422 51.0056 4.08466C38.7624 4.53043 28.1884 9.154 19.2522 17.4889C14.8153 21.6252 11.3113 26.4872 8.70924 32.0334C9.46602 32.1163 9.47638 32.1163 9.79775 31.5565C9.93252 31.3181 10.0569 31.0589 10.2021 30.8205C11.1143 29.2447 11.954 27.6275 12.9596 26.114C15.5513 22.2265 18.6717 18.7951 22.2689 15.8094C25.7625 12.9068 29.5879 10.5431 33.7657 8.74969C38.327 6.79038 43.0854 5.536 48.0303 5.02803C52.3532 4.58226 56.6554 4.6963 60.9369 5.40124C65.8093 6.19948 70.4432 7.75449 74.8491 9.97297C82.6759 13.9227 88.896 19.6451 93.6647 26.9641C94.6184 28.4258 95.4063 30.0119 96.2253 31.5565C96.4741 32.0127 96.754 32.1889 97.2723 32.0334ZM50.3421 53.7103C50.3524 53.7725 50.3732 53.8243 50.3835 53.8865C51.7105 53.8865 53.0374 53.8865 54.3644 53.8761C54.4369 53.8761 54.5095 53.7725 54.5821 53.7103C54.4991 53.6688 54.4162 53.5859 54.3229 53.5755C53.9704 53.534 53.5972 53.5444 53.2551 53.4511C53.0685 53.3992 52.8094 53.1712 52.799 53.0157C52.7575 52.1967 52.7783 51.3674 52.7783 50.4966C52.8819 50.5588 52.9649 50.6002 53.0478 50.6417C55.2974 51.9375 57.5988 53.109 60.1076 53.8036C61.1235 54.0835 62.1602 54.2701 63.2072 53.9798C63.4042 53.928 63.5804 53.7828 63.8085 53.6688C63.0206 53.6377 62.2949 53.7621 61.6937 53.5444C60.1075 52.9742 58.5836 52.2589 57.039 51.5851C57.0079 51.5747 57.0079 51.5021 56.9872 51.4296C58.2312 51.3363 59.3819 50.9942 60.4082 50.31C63.5078 48.2573 64.0573 44.0692 61.4967 41.436C59.5166 39.3938 56.3755 38.7718 53.4625 40.5549C53.2344 40.6896 53.0063 40.8348 52.7057 41.011C52.7057 40.5134 52.7057 40.1091 52.7057 39.6841C51.8349 39.6841 51.0056 39.6841 50.1762 39.6841C50.1555 39.7255 50.1451 39.767 50.1244 39.8085C50.228 39.8603 50.3317 39.9536 50.4354 39.9743C51.4721 40.1195 51.5654 40.2335 51.5654 41.2909C51.5654 45.2199 51.5654 49.1385 51.5654 53.0675C51.5654 53.223 51.5654 53.3785 51.5654 53.4926C51.1403 53.6895 50.6738 53.3785 50.3421 53.7103ZM88.4398 54.3012C89.9949 54.3115 91.4151 53.8761 92.742 53.109C96.5985 50.8698 97.6352 45.8523 94.9605 42.2861C92.6487 39.2072 88.3051 38.3675 84.7182 40.2957C81.3697 42.1099 79.8977 45.9041 81.1624 49.4599C82.1991 52.3211 85.1121 54.2701 88.4398 54.3012ZM11.7778 49.3873C12.7834 49.7398 13.6853 49.1696 13.8408 48.2055C13.9652 47.3762 13.6438 46.7231 13.0425 46.1944C12.0992 45.3858 10.2435 45.3443 9.06172 46.1011C6.65663 47.6353 6.45966 51.1393 8.66778 52.9846C11.0003 54.9335 14.9604 54.664 17.013 52.4144C18.2881 51.0149 18.5266 49.0141 17.5832 47.5628C17.0545 46.7438 16.277 46.184 15.458 45.6968C14.5561 45.1681 13.6334 44.6601 12.7212 44.1418C12.1303 43.7996 11.643 43.3435 11.3217 42.7215C10.793 41.6848 11.1869 40.4616 12.2132 39.9536C13.2291 39.456 14.3384 39.8085 14.7842 40.8244C14.9293 41.1458 14.9708 41.519 14.9811 41.8818C15.0122 42.6489 14.9915 43.4264 14.9915 44.1936C15.0537 44.2143 15.1055 44.235 15.1677 44.2558C15.2196 44.1417 15.3232 44.0277 15.3232 43.9137C15.3336 43.1776 15.3336 42.4312 15.3336 41.6952C15.3336 40.7311 15.3336 39.767 15.3336 38.7407C14.7531 38.8651 15.1781 39.3627 14.9293 39.5596C14.5872 39.4767 14.2451 39.3627 13.8926 39.3005C12.3065 38.9998 9.95325 40.275 10.4405 42.7008C10.6789 43.8929 11.4772 44.5979 12.4516 45.1681C13.5194 45.8004 14.6287 46.3913 15.655 47.0963C17.0648 48.0707 17.5106 49.5636 16.9404 51.0149C15.8623 53.7621 12.0681 54.7158 9.74592 52.8083C7.95247 51.3259 7.58964 48.6513 8.96841 46.9408C9.93252 45.7382 11.6223 45.6657 12.5035 46.7853C13.1669 47.6353 13.0011 48.4647 12.0784 49.0349C11.954 49.1074 11.8918 49.2526 11.7778 49.3873ZM73.7917 49.4392C74.4759 49.605 74.9942 49.5221 75.4089 49.066C75.8961 48.5372 76.0101 47.9049 75.7613 47.2414C75.2845 45.9559 73.802 45.2717 72.2885 45.6346C70.7231 45.9974 69.7072 46.9822 69.2925 48.5061C68.8674 50.0301 69.1888 51.4503 70.2877 52.6217C72.6098 55.089 77.2645 54.7988 79.2964 52.093C80.3331 50.7039 80.5093 48.8172 79.5348 47.5524C78.9854 46.8475 78.239 46.2566 77.4822 45.7486C76.5077 45.0851 75.44 44.5668 74.4344 43.9551C73.7813 43.5612 73.3251 42.9807 73.1593 42.2135C72.9105 41.0732 73.6569 39.9432 74.7557 39.7877C75.979 39.6011 76.8706 40.2853 76.9846 41.5501C77.0572 42.3172 77.0157 43.0947 77.0468 43.8618C77.0468 43.9862 77.1608 44.1003 77.223 44.2247C77.2645 44.1003 77.3578 43.9862 77.3578 43.8618C77.3682 42.2654 77.3682 40.6689 77.3578 39.0828C77.3578 38.9895 77.3371 38.8962 77.3267 38.7407C76.8291 38.8962 77.1816 39.3316 76.9742 39.57C76.6529 39.4871 76.3108 39.3834 75.9583 39.3108C74.4655 38.9895 72.7861 40.0262 72.4543 41.4775C72.1641 42.7422 72.7446 44.0899 73.9575 44.8467C75.1601 45.6035 76.4248 46.2773 77.6066 47.0755C78.7055 47.8219 79.3482 48.8586 79.1305 50.2581C78.861 51.9686 77.7725 52.9742 76.2175 53.534C73.7191 54.4463 70.9512 53.0571 70.2981 50.5795C69.873 48.983 70.3499 47.314 71.4695 46.4639C72.4647 45.7071 73.8331 45.8626 74.5484 46.8164C75.1601 47.6353 74.9735 48.5269 74.0923 49.0452C73.9575 49.1074 73.9057 49.2733 73.7917 49.4392ZM64.6274 39.6633C64.6067 39.7255 64.5963 39.7774 64.5756 39.8396C64.6896 39.8914 64.8037 39.964 64.9281 39.9847C65.8611 40.0987 66.0062 40.2542 66.0062 41.1976C66.0062 45.1577 66.0062 49.1178 66.0062 53.0779C66.0062 53.2334 65.9855 53.3889 65.9751 53.5651C65.6227 53.5651 65.3117 53.5548 65.0006 53.5755C64.9281 53.5755 64.8659 53.6688 64.7933 53.7103C64.8555 53.7621 64.9074 53.8761 64.9696 53.8761C66.1617 53.8865 67.3539 53.8865 68.5461 53.8865C68.5668 53.8347 68.5772 53.7828 68.5979 53.731C68.4942 53.6792 68.3802 53.5859 68.2765 53.5755C67.3021 53.4615 67.1673 53.3163 67.1673 52.3418C67.1673 48.5787 67.1673 44.8156 67.1673 41.0525C67.1673 40.7311 67.0533 40.2957 67.2088 40.1091C67.3539 39.9329 67.81 40.0158 68.121 39.9951C68.1418 39.9951 68.1625 40.0054 68.1729 39.9951C68.2454 39.9536 68.318 39.9018 68.3802 39.8603C68.3076 39.7981 68.2351 39.6944 68.1625 39.6944C66.9807 39.6633 65.8093 39.6633 64.6274 39.6633ZM54.976 74.537C54.9967 74.5992 55.0175 74.6511 55.0382 74.7133C55.287 74.7133 55.6187 74.8169 55.7742 74.6925C56.417 74.1638 57.0494 73.604 57.35 72.7747C57.6195 72.0076 57.3293 71.5307 56.5207 71.624C54.5821 71.8209 52.9752 72.6918 51.866 74.309C51.2336 75.242 51.4617 76.092 52.4154 76.7037C52.996 77.0769 53.618 77.3775 54.1881 77.7611C54.9656 78.2794 55.0693 78.9325 54.5199 79.6893C53.9704 80.4461 53.1722 80.8193 52.3014 81.0577C51.2544 81.3376 50.1969 81.3169 49.1292 81.1303C48.5797 81.037 48.4242 81.1821 48.3931 81.7212C50.0207 82.0737 52.5295 81.6901 53.8875 80.7571C54.4369 80.3839 54.9242 79.8241 55.2455 79.2539C55.7846 78.3002 55.4529 77.4294 54.4888 76.8903C53.9912 76.6104 53.4625 76.3719 52.9752 76.0817C52.063 75.5322 51.9489 74.8688 52.6539 74.0498C53.4417 73.1375 54.4473 72.5155 55.598 72.1527C55.8779 72.0698 56.1786 72.0283 56.4688 72.0283C57.0079 72.0179 57.1634 72.2252 56.8835 72.6918C56.6554 73.0753 56.303 73.3863 55.9712 73.6973C55.6706 73.998 55.3181 74.2675 54.976 74.537ZM56.925 56.6959C55.3596 56.1361 53.8253 55.9702 52.291 56.6129C49.7823 57.6703 49.1914 61.1639 51.2544 62.9367C52.8301 64.2843 54.6339 64.274 56.4792 63.5483C56.6969 63.4654 56.8524 63.2166 57.039 63.0403C56.9975 62.9989 56.9664 62.9574 56.925 62.9159C56.8524 62.947 56.7902 62.9781 56.7176 63.0196C54.2503 64.3984 51.4617 63.0196 51.1611 60.2206C51.0263 58.9869 51.3373 57.8362 52.4673 57.1313C53.6387 56.3952 54.8723 56.4574 56.0645 57.0794C56.2408 57.1727 56.3237 57.4734 56.417 57.7014C56.4792 57.8673 56.4792 58.0539 56.5103 58.2301C56.5725 58.2301 56.6347 58.2198 56.6969 58.2198C56.7591 57.7325 56.842 57.2453 56.925 56.6959ZM83.1736 65.8082C82.4997 65.9637 82.1991 66.3473 82.0643 66.876C81.4734 69.1774 80.8929 71.4788 80.3227 73.7803C80.2709 73.9772 80.2812 74.1846 80.2605 74.4023C80.7685 74.2779 80.8514 74.1846 81.0795 73.7595C81.4008 73.1375 81.7533 72.5259 82.1161 71.9142C82.2302 71.7276 82.4271 71.5929 82.5826 71.4374C82.6241 71.4685 82.6552 71.4996 82.6967 71.5307C82.6449 71.7173 82.593 71.9039 82.5308 72.0801C82.396 72.4948 82.2198 72.9095 82.1161 73.3345C82.0332 73.6662 82.1369 73.9461 82.5308 73.9669C82.9973 73.9876 83.7748 73.2205 83.8578 72.5881C83.4949 72.9406 83.1839 73.2412 82.8729 73.5418C82.79 73.3967 82.7796 73.3138 82.8107 73.2412C82.9558 72.8784 83.1424 72.5259 83.2565 72.1527C83.3705 71.7588 83.4845 71.2715 83.0388 71.0434C82.6345 70.8361 82.3649 71.2508 82.1058 71.5203C81.9088 71.7276 81.7429 71.9557 81.5667 72.1734C81.5252 72.1527 81.4734 72.1216 81.4319 72.1009C81.9917 70.0379 82.5723 67.9749 83.1736 65.8082ZM60.9369 60.7285C60.1801 60.9151 59.4648 61.0706 58.7599 61.278C58.1068 61.4749 57.858 62.0036 57.8165 62.636C57.7854 63.1233 57.9409 63.5587 58.4178 63.7764C58.9983 64.0459 59.5581 64.0355 60.0661 63.6001C60.3149 63.3824 60.6052 63.1958 60.9473 62.947C60.9473 63.3099 60.9473 63.5587 60.9473 63.7971C61.4967 63.7971 61.9943 63.7971 62.6267 63.7971C62.4608 63.6831 62.409 63.6209 62.3675 63.6209C61.8181 63.6209 61.7559 63.2684 61.7766 62.833C61.8077 62.0762 61.8077 61.3194 61.8284 60.573C61.8595 59.6297 61.4241 59.0491 60.5533 58.8625C59.8276 58.707 59.2056 58.9351 58.5836 59.2772C58.1379 59.526 58.2415 59.8474 58.3141 60.2309C58.6044 59.9199 58.8013 59.5467 59.102 59.4327C59.4337 59.3083 59.8795 59.3394 60.2423 59.4327C60.7814 59.5675 60.968 60.0029 60.9369 60.7285ZM64.6793 77.8648C64.6378 77.6782 64.6171 77.6367 64.6274 77.5849C64.6378 77.4708 64.6586 77.3568 64.6689 77.2428C64.8244 76.1128 65.3428 75.1383 65.8611 74.1431C66.452 73.0339 66.96 71.8728 67.4368 70.7117C67.6131 70.2763 67.6234 69.758 67.6545 69.2707C67.6649 69.136 67.5094 68.9286 67.3746 68.8664C67.2813 68.825 67.074 68.939 66.96 69.0323C66.8459 69.1152 66.7526 69.25 66.6904 69.3744C66.2861 70.2452 65.83 71.1056 65.4983 72.0076C64.9385 73.5729 64.4616 75.159 63.9536 76.7659C63.964 76.911 63.9951 77.0873 63.9951 77.2635C64.0054 77.616 63.9951 77.9581 63.9951 78.3002C64.8244 78.3624 65.6641 77.6678 65.6641 76.9214C65.3428 77.2324 65.0421 77.5227 64.6793 77.8648ZM71.2 61.2261C71.4073 59.723 70.6091 58.7692 69.251 58.79C68.318 58.8003 67.5301 59.1943 67.0844 60.0132C66.5764 60.9566 66.5764 61.9622 67.1051 62.9263C67.8308 64.2636 69.8627 64.2118 70.8475 63.4861C70.9615 63.4032 71.0134 63.2373 71.0859 63.1129C70.1218 63.5794 69.1992 63.7556 68.3387 63.03C67.8204 62.5946 67.6856 61.9829 67.7064 61.2365C68.8985 61.2261 70.0389 61.2261 71.2 61.2261ZM65.8611 63.7867C65.8611 63.7453 65.8715 63.7038 65.8715 63.6623C65.6538 63.6312 65.4257 63.6209 65.2287 63.5483C65.0732 63.4861 64.8555 63.3306 64.8451 63.2166C64.814 62.0347 64.8244 60.8633 64.8244 59.64C65.2598 59.64 65.6849 59.64 66.1306 59.64C66.1514 59.4638 66.1721 59.329 66.1928 59.1424C65.6952 59.1424 65.2495 59.1424 64.7933 59.1424C64.7933 58.5723 64.7726 58.0435 64.7933 57.5252C64.8244 56.8203 65.3117 56.5093 65.9751 56.7373C66.1099 56.7788 66.2343 56.841 66.4002 56.9032C66.4002 56.6026 66.4002 56.3434 66.4002 56.0013C66.1099 56.0324 65.7678 55.9598 65.5812 56.0946C64.7829 56.6855 63.9329 57.2971 63.9743 58.4582C63.9951 58.9558 63.8914 59.3187 63.3627 59.4534C63.3005 59.4742 63.259 59.5778 63.1657 59.7022C63.4664 59.7022 63.6944 59.7022 63.8914 59.7022C63.8914 60.8944 63.9018 62.0555 63.881 63.2166C63.881 63.3306 63.6841 63.4654 63.5493 63.5379C63.4042 63.6209 63.2279 63.6312 63.0621 63.6831C63.0724 63.7142 63.0828 63.7453 63.0932 63.7764C64.0262 63.7867 64.9488 63.7867 65.8611 63.7867ZM56.1889 80.2595C56.2511 80.3009 56.303 80.3424 56.3652 80.3735C56.5414 80.1973 56.7695 80.0521 56.8835 79.8448C57.2256 79.2332 57.5055 78.5801 57.8372 77.9581C57.972 77.7093 58.1897 77.5019 58.3659 77.2842C58.4178 77.3153 58.4696 77.3464 58.5214 77.3775C58.2623 78.2069 57.9927 79.0258 57.7336 79.8552C58.3348 80.0107 58.4903 79.6271 58.6769 79.3057C59.019 78.6941 59.3404 78.0617 59.6825 77.4501C59.7965 77.2531 59.9521 77.0873 60.0972 76.911C60.1387 76.9318 60.1801 76.9525 60.2112 76.9836C60.1698 77.1391 60.1387 77.2842 60.0972 77.4397C59.9728 77.927 59.838 78.4246 59.7447 78.9222C59.7136 79.0569 59.7758 79.285 59.8795 79.3576C59.9728 79.4198 60.2112 79.3783 60.3149 79.2954C60.6466 79.0362 60.9576 78.7356 61.2583 78.4349C61.3412 78.352 61.3308 78.1965 61.3619 78.0721C61.279 77.9995 61.1857 77.9373 61.1028 77.8648C60.9162 78.1861 60.7296 78.5179 60.5429 78.8392C60.5118 78.7978 60.4704 78.7667 60.4393 78.7252C60.5533 78.1758 60.6881 77.616 60.7606 77.0562C60.7814 76.8799 60.657 76.5689 60.5429 76.5378C60.3563 76.486 60.0764 76.5585 59.9209 76.6829C59.7136 76.8488 59.5788 77.1184 59.4233 77.3464C59.33 77.4812 59.2367 77.616 59.1849 77.6989C59.0501 77.419 58.9879 77.0354 58.791 76.9421C58.4074 76.7555 58.1379 77.0769 57.9202 77.3879C57.8165 77.533 57.7025 77.6782 57.5884 77.8233C57.5573 77.8026 57.5262 77.7922 57.4951 77.7715C57.4951 77.5745 57.4951 77.3672 57.4951 77.1598C57.0079 77.2324 56.8006 77.5227 56.7073 77.9581C56.614 78.4246 56.4688 78.8807 56.3652 79.3368C56.303 79.6271 56.2511 79.9485 56.1889 80.2595ZM74.1649 73.2205C73.6361 73.1479 73.4703 73.4693 73.3148 73.801C73.0141 74.4541 72.7239 75.1072 72.4129 75.7603C72.3403 75.9054 72.1744 75.9987 72.05 76.1128C72.0086 76.0817 71.9671 76.0506 71.9256 76.0195C72.1433 75.2005 72.361 74.3712 72.5787 73.5522C72.5269 73.5211 72.4854 73.49 72.4336 73.4485C72.2263 73.6351 71.9256 73.7906 71.8427 74.0187C71.6354 74.5889 71.4902 75.1798 71.4073 75.781C71.3762 76.0195 71.5628 76.2994 71.6561 76.5586C71.9049 76.4342 72.1952 76.3616 72.4025 76.1853C72.6409 75.978 72.7964 75.6877 73.0245 75.3767C73.066 75.5219 73.0867 75.5841 73.1074 75.6359C73.3355 76.289 73.6154 76.403 74.0819 75.9054C74.5484 75.4078 74.932 74.8273 75.2637 74.2364C75.4918 73.8217 75.5851 73.3345 75.751 72.8369C75.1704 72.7851 75.0875 73.1272 74.9735 73.4485C74.7558 74.0602 74.5588 74.6822 74.2892 75.2731C74.2063 75.47 73.9575 75.5944 73.7813 75.7499C73.7295 75.7188 73.6672 75.6774 73.6154 75.6463C73.7916 74.8377 73.9782 74.0394 74.1649 73.2205ZM80.4678 71.0745C80.4264 71.0331 80.3953 70.9812 80.3538 70.9398C80.1672 70.9709 79.9806 70.9916 79.7318 71.0331C79.8769 70.5044 80.0221 70.0586 80.1154 69.6025C80.1568 69.4262 80.0843 69.2293 80.0532 69.0427C79.8666 69.1567 79.6592 69.2396 79.5037 69.3848C79.4104 69.4781 79.4104 69.6543 79.3482 69.7891C79.0994 70.4007 79.2964 71.2197 78.4152 71.541C78.6018 71.6862 78.7055 71.7795 78.8195 71.8728C78.7366 72.1423 78.6329 72.3808 78.5811 72.6399C78.4463 73.2412 78.2908 73.8528 78.2286 74.4645C78.1768 74.931 78.5189 75.1176 78.8921 74.848C79.3275 74.5267 79.68 74.112 80.0739 73.7492C80.0221 73.687 79.9702 73.6144 79.9184 73.5522C79.5867 73.8217 79.2549 74.0809 78.9232 74.3504C79.0683 73.4796 79.3068 72.7125 79.5141 71.9454C79.5867 71.6551 79.7111 71.4996 80.0117 71.427C80.1776 71.3648 80.3123 71.1886 80.4678 71.0745ZM66.7734 77.3775C66.7319 77.3153 66.7008 77.2531 66.6593 77.1909C66.8459 77.0562 67.0429 76.9318 67.2088 76.7763C67.6545 76.3512 68.1107 75.9365 68.4942 75.4597C68.6186 75.3042 68.5979 74.9102 68.4839 74.734C68.4009 74.6096 68.0174 74.6303 67.7997 74.6822C66.9185 74.8999 65.8611 76.4134 65.9959 77.305C66.027 77.4916 66.2447 77.7507 66.4209 77.7922C67.0947 77.9684 68.2973 77.0562 68.432 76.2994C67.8308 76.6 67.5716 77.4708 66.7734 77.3775ZM91.4255 69.6543C91.5084 69.9549 91.6224 70.1623 91.6017 70.3592C91.5602 70.7221 91.4877 71.0953 91.3322 71.4166C91.3011 71.4788 90.8657 71.3544 90.6169 71.3233C90.5547 71.313 90.4717 71.2819 90.4199 71.313C90.2955 71.3855 90.1193 71.4685 90.0778 71.5929C90.0467 71.6758 90.1607 71.8728 90.2644 71.935C90.3888 72.0075 90.5754 72.049 90.7309 72.0283C91.9335 71.8728 92.5554 70.8257 92.12 69.6958C91.9853 69.364 91.8609 69.0738 92.1719 68.7628C92.2548 68.6798 92.2133 68.4829 92.2237 68.3377C92.0578 68.3688 91.892 68.3792 91.7468 68.4518C91.6535 68.4932 91.6121 68.628 91.5499 68.7317C91.2492 69.1982 90.9486 69.6543 90.648 70.1208C90.5339 70.3074 90.4406 70.5147 90.337 70.7117C90.3784 70.7428 90.4303 70.7635 90.4717 70.7946C90.762 70.4214 91.0523 70.0793 91.4255 69.6543ZM98.0498 41.0317C98.2053 40.814 98.3194 40.6585 98.4127 40.4927C98.9621 39.5596 99.1176 38.5955 98.62 37.6003C98.5578 37.4759 98.3919 37.3204 98.2883 37.3204C97.9047 37.3204 97.49 38.2016 97.687 38.5541C97.998 39.0931 98.1535 39.6633 98.0602 40.2957C98.0291 40.5134 98.0498 40.7311 98.0498 41.0317ZM96.4533 42.255C96.4948 42.2654 96.5467 42.2757 96.5881 42.2861C96.7644 41.9855 96.9821 41.6952 97.1168 41.3635C97.4589 40.5445 97.5004 39.7048 97.0753 38.8962C97.0131 38.7718 96.8576 38.6163 96.7332 38.6163C96.4533 38.6163 95.9143 39.4663 96.0594 39.6944C96.5777 40.503 96.6503 41.3531 96.4533 42.255ZM76.2071 75.3664C76.9017 75.4182 77.6792 74.7029 77.7517 73.8736C77.4407 74.2053 77.1919 74.4852 76.9328 74.7651C76.8913 74.7444 76.8602 74.7133 76.8187 74.6925C76.9328 74.309 77.0572 73.915 77.1608 73.5315C77.2645 73.1479 77.3578 72.7643 77.4718 72.3393C76.6632 72.5155 75.9479 74.3193 76.2071 75.3664ZM61.7455 78.86C62.4401 78.9429 63.2901 78.1654 63.3005 77.3775C63.0206 77.6989 62.7718 77.9788 62.523 78.2587C62.4815 78.238 62.4401 78.2172 62.3986 78.1965C62.6059 77.4397 62.8236 76.683 63.031 75.9262C62.9895 75.8951 62.948 75.8536 62.9066 75.8225C62.7096 75.9365 62.409 76.0091 62.3364 76.175C61.9632 77.0354 61.6729 77.9062 61.7455 78.86ZM9.16538 38.637C8.42934 39.2072 8.48118 41.4464 9.47639 42.2757C9.33125 41.5293 9.33125 40.8037 9.64225 40.1091C9.94289 39.4456 9.82885 39.0828 9.16538 38.637ZM7.77624 37.2997C7.01947 38.2016 7.1646 39.9847 7.95247 40.8451C8.04577 40.2128 8.09761 39.4767 8.29457 38.7718C8.49154 38.0876 8.43971 37.7351 7.77624 37.2997ZM54.665 6.36534C54.6857 6.10618 54.6961 5.88847 54.7168 5.60857C54.2503 5.58784 53.8253 5.5671 53.3692 5.536C53.3692 5.84701 53.3692 6.09581 53.3692 6.36534C53.8046 6.36534 54.2089 6.36534 54.665 6.36534ZM79.5348 14.5965C79.7111 14.3477 79.8458 14.1508 80.0013 13.9227C79.5763 13.6635 79.2031 13.4251 78.8092 13.1763C78.664 13.4355 78.5396 13.6428 78.4049 13.8812C78.7781 14.1197 79.1305 14.3477 79.5348 14.5965ZM56.614 99.6142C56.614 99.9045 56.614 100.143 56.614 100.412C57.0908 100.371 57.5262 100.329 58.0135 100.288C57.972 100.018 57.9409 99.78 57.9098 99.5416C57.8165 99.5312 57.7336 99.5209 57.6506 99.5209C57.3189 99.552 56.9768 99.5831 56.614 99.6142ZM60.968 99.9044C60.8228 99.0647 60.3149 98.93 59.4752 99.4276C59.5166 99.6246 59.5581 99.8319 59.6099 100.101C60.0661 100.029 60.5015 99.9667 60.968 99.9044ZM73.2526 10.9993C73.688 11.1859 74.0923 11.3621 74.507 11.5383C74.6314 11.2895 74.735 11.0718 74.8491 10.8438C74.4033 10.6364 73.999 10.4395 73.5636 10.2321C73.4599 10.4913 73.377 10.709 73.2526 10.9993ZM82.1265 89.5792C81.7429 89.8902 81.4112 90.1597 81.0484 90.45C81.235 90.6781 81.3801 90.8439 81.5356 91.0409C81.9088 90.7714 82.2405 90.5226 82.6345 90.2323C82.4582 90.0146 82.3131 89.8176 82.1265 89.5792ZM88.2947 22.4649C88.5021 22.2679 88.6887 22.0917 88.8753 21.9155C88.5539 21.5423 88.274 21.2209 87.9941 20.8995C87.3617 21.3142 87.3617 21.3557 87.7868 21.874C87.9319 22.0606 88.0874 22.2265 88.2947 22.4649ZM66.3276 8.26246C66.3898 7.97219 66.4416 7.75449 66.4935 7.50569C66.0373 7.38129 65.6019 7.25688 65.1458 7.13248C65.094 7.43312 65.0421 7.67155 64.9903 7.95146C65.4568 8.05512 65.8611 8.14842 66.3276 8.26246ZM69.1266 9.19546C69.2199 8.9052 69.2925 8.68749 69.3754 8.43869C68.94 8.29356 68.5357 8.15879 68.1107 8.01366C68.007 8.26246 67.9137 8.50089 67.8204 8.74969C68.2662 8.9052 68.6601 9.03996 69.1266 9.19546ZM72.1848 9.56867C71.7183 9.38207 71.3347 9.22656 70.9512 9.08143C70.4639 9.70343 70.4743 9.78637 71.1585 10.0352C71.3658 10.1077 71.5835 10.1803 71.8116 10.2632C71.9256 10.0248 72.0397 9.82784 72.1848 9.56867ZM77.0883 13.0001C77.5029 12.2433 77.3889 12.0878 76.2589 11.6938C76.1553 11.9012 76.0412 12.1085 75.9168 12.347C76.3315 12.5854 76.6943 12.7824 77.0883 13.0001ZM40.3174 98.0073C39.8717 97.8829 39.4777 97.7689 39.032 97.6445C38.949 97.9348 38.8868 98.1732 38.8143 98.422C39.2911 98.5464 39.7058 98.6604 40.1412 98.7745C40.2138 98.4946 40.2656 98.2665 40.3174 98.0073ZM21.8646 88.895C22.0512 88.6462 22.1964 88.4492 22.3311 88.2626C21.9994 87.962 21.7195 87.7132 21.4085 87.4333C21.2219 87.5991 21.0457 87.7754 20.8072 87.9931C21.1701 88.3041 21.4914 88.5736 21.8646 88.895ZM20.1645 86.2307C19.8431 85.9301 19.5425 85.6294 19.273 85.3806C19.0656 85.5465 18.879 85.6917 18.6095 85.9197C18.9516 86.2515 19.2626 86.5521 19.6047 86.8838C19.8224 86.635 19.9779 86.4588 20.1645 86.2307ZM90.3059 81.1821C90.0363 81.545 89.7772 81.8871 89.4973 82.2603C89.7253 82.4261 89.9119 82.5609 90.14 82.7268C90.4199 82.3536 90.6894 82.0011 90.9797 81.6072C90.7309 81.4516 90.5236 81.3273 90.3059 81.1821ZM15.4476 80.7985C15.2196 80.954 15.0226 81.0784 14.7842 81.2443C15.0848 81.6383 15.3543 81.9804 15.6135 82.3121C16.2977 81.9907 16.3184 81.9389 15.9141 81.3895C15.7794 81.2132 15.6342 81.037 15.4476 80.7985ZM86.3354 20.1635C86.4805 20.0494 86.6568 19.9147 86.8537 19.7592C86.5324 19.3756 86.2525 19.0335 85.9622 18.6914C85.6719 18.9713 85.5164 19.1164 85.3298 19.2927C85.6927 19.5933 86.0244 19.8836 86.3354 20.1635ZM62.3986 98.8159C62.4504 99.0958 62.5023 99.3239 62.5541 99.6038C63.031 99.5002 63.4456 99.4069 63.9018 99.3136C63.8188 99.0129 63.7566 98.7848 63.6944 98.5568C63.2383 98.6397 62.8547 98.7226 62.3986 98.8159ZM48.7041 5.79517C48.2065 5.83664 47.7711 5.87811 47.315 5.91957C47.3357 6.20984 47.3565 6.44828 47.3772 6.70745C47.8541 6.65561 48.2791 6.60378 48.7041 6.55194C48.7041 6.29278 48.7041 6.08544 48.7041 5.79517ZM84.7078 17.6444C84.3346 17.3437 83.9925 17.0535 83.6297 16.7528C83.4638 16.9602 83.3083 17.1364 83.1424 17.3437C83.4949 17.6547 83.8267 17.945 84.1688 18.256C84.3657 18.0383 84.5212 17.8621 84.7078 17.6444ZM76.1242 93.6533C76.2589 93.8917 76.373 94.0991 76.5077 94.3375C76.7565 94.2027 76.9742 94.0991 77.1816 93.9747C77.7725 93.6222 77.7828 93.5082 77.2127 93.0209C76.8809 93.2075 76.5285 93.4149 76.1242 93.6533ZM97.5107 69.7372C97.6662 69.2707 97.801 68.8561 97.9462 68.4103C97.687 68.3481 97.4589 68.2859 97.1894 68.2237C97.0546 68.6695 96.9198 69.0841 96.7851 69.5092C97.0442 69.5921 97.2516 69.6647 97.5107 69.7372ZM98.4852 66.9071C98.6096 66.4406 98.7133 66.0259 98.8273 65.5905C98.5474 65.518 98.3194 65.4558 98.0809 65.3936C97.9565 65.8497 97.8425 66.2747 97.7285 66.7101C97.9876 66.7723 98.2053 66.8345 98.4852 66.9071ZM63.3938 7.49532C63.4767 7.22578 63.5389 7.00808 63.6219 6.75928C63.1554 6.66598 62.72 6.57268 62.2535 6.47938C62.2016 6.74891 62.1602 6.96661 62.1187 7.23615C62.5645 7.32945 62.9688 7.41238 63.3938 7.49532ZM26.5815 92.5233C26.737 92.2849 26.851 92.0983 27.0065 91.8599C26.6126 91.6007 26.2394 91.3519 25.8558 91.1031C25.7003 91.3519 25.5759 91.5281 25.4308 91.7562C25.8351 92.0154 26.1979 92.2538 26.5815 92.5233ZM29.2665 12.8549C29.111 12.5854 28.997 12.3781 28.8622 12.1396C28.4475 12.3988 28.0743 12.6372 27.6597 12.8964C27.8463 13.1452 27.981 13.3214 28.1158 13.508C28.5201 13.2903 28.8726 13.083 29.2665 12.8549ZM75.0771 95.0943C74.9735 94.8455 74.8905 94.6485 74.7869 94.4204C74.3307 94.6381 73.9368 94.8351 73.5117 95.0425C73.6361 95.2809 73.7398 95.4986 73.8435 95.7163C74.2789 95.4986 74.6521 95.312 75.0771 95.0943ZM41.717 99.2202C42.1731 99.3135 42.5981 99.4069 43.0543 99.5002C43.1165 99.2099 43.1579 98.9922 43.1994 98.733C42.7433 98.6397 42.3079 98.5464 41.8517 98.4427C41.8103 98.7123 41.7688 98.93 41.717 99.2202ZM12.9285 77.0665C12.6901 76.6415 12.4724 76.2579 12.2547 75.8536C12.0473 75.9676 11.8296 76.0817 11.5705 76.2164C11.8089 76.6311 12.0266 77.0251 12.2443 77.419C12.5138 77.2842 12.6901 77.1909 12.9285 77.0665ZM12.7419 29.3691C12.0681 28.8197 11.9333 28.9026 11.4668 30.1259C11.6638 30.2503 11.8607 30.3851 12.0888 30.5406C12.3272 30.1155 12.5346 29.7423 12.7419 29.3691ZM13.7371 78.3209C13.5712 78.6215 13.0322 78.5386 13.2291 79.0051C13.3743 79.3368 13.6231 79.6167 13.8408 79.9277C14.0792 79.7411 14.2658 79.6064 14.4421 79.4716C14.4213 79.399 14.411 79.3472 14.3902 79.3161C14.2036 79.0155 14.0066 78.7252 13.7371 78.3209ZM80.1983 92.0257C79.794 91.3104 79.2756 91.3934 78.6951 92.1916C78.8195 92.3575 78.9336 92.5337 79.0891 92.7514C79.4726 92.5026 79.8251 92.2745 80.1983 92.0257ZM94.266 76.6311C93.9964 76.4963 93.7995 76.403 93.561 76.289C93.333 76.6726 93.1153 77.0354 92.8872 77.419C93.1153 77.5538 93.3122 77.6782 93.5507 77.8233C93.7995 77.4086 94.0172 77.0458 94.266 76.6311ZM72.0604 95.7474C71.8427 95.8303 71.6457 95.9029 71.4591 95.9858C71.2622 96.0688 71.0652 96.1724 70.8682 96.2554C71.0652 97.0432 71.5939 97.064 72.361 96.3487C72.2781 96.1621 72.1744 95.9651 72.0604 95.7474ZM69.334 96.8255C68.8778 96.9914 68.4839 97.1262 68.0796 97.2713C68.1729 97.5408 68.2454 97.7689 68.3284 98.0177C68.7741 97.8415 69.1784 97.686 69.6242 97.5097C69.5309 97.2817 69.4376 97.0743 69.334 96.8255ZM60.6466 6.96661C60.6051 6.66598 60.6363 6.26168 60.5222 6.22021C60.1698 6.08544 59.7654 6.04397 59.3922 6.06471C59.3093 6.06471 59.2471 6.46901 59.1538 6.73855C59.6825 6.82148 60.1075 6.88368 60.6466 6.96661ZM44.3605 6.36534C44.4019 6.63488 44.4434 6.87331 44.4849 7.14285C44.9514 7.05992 45.3764 6.98735 45.8326 6.90441C45.8014 6.62451 45.7703 6.38608 45.7392 6.13728C45.2624 6.20984 44.8373 6.28241 44.3605 6.36534ZM94.1001 29.2655C93.8617 28.8404 93.644 28.4672 93.4159 28.0733C93.1774 28.1977 92.9908 28.3014 92.742 28.4258C92.9805 28.8508 93.1878 29.224 93.4055 29.6179C93.644 29.4935 93.8409 29.3899 94.1001 29.2655ZM17.0545 23.232C17.3758 22.8381 17.6454 22.5167 17.9149 22.185C17.7283 22.0088 17.5728 21.8636 17.3862 21.6874C17.0752 22.0191 16.7746 22.3405 16.4532 22.693C16.6813 22.8899 16.8575 23.0454 17.0545 23.232ZM90.762 24.2169C90.4717 23.8644 90.2022 23.5327 89.8601 23.0973C89.6528 23.3253 89.4973 23.5016 89.321 23.6882C89.632 24.0717 89.9016 24.3931 90.1711 24.7248C90.3784 24.5486 90.5547 24.3931 90.762 24.2169ZM84.3761 87.6924C84.0133 88.0138 83.7023 88.2833 83.4016 88.5529C83.837 89.2267 83.8578 89.2371 84.3865 88.7395C84.5523 88.584 84.7182 88.4388 84.8944 88.273C84.7182 88.076 84.5731 87.9101 84.3761 87.6924ZM14.6805 25.0151C15.1366 25.606 15.2403 25.606 15.655 25.0462C15.8001 24.8596 15.9141 24.6523 16.0593 24.4242C15.8416 24.2687 15.6653 24.1443 15.458 23.9888C15.1781 24.362 14.9293 24.6937 14.6805 25.0151ZM10.2228 71.8002C10.0155 71.3544 9.83922 70.9709 9.64225 70.5562C9.39345 70.6495 9.17575 70.7428 8.93731 70.8361C9.13428 71.2922 9.31052 71.7069 9.49712 72.1216C9.75629 72.0075 9.96362 71.9143 10.2228 71.8002ZM33.2266 96.245C33.6413 96.4316 34.0456 96.6078 34.4913 96.8152C34.595 96.5249 34.6779 96.2968 34.7609 96.0584C34.3151 95.8718 33.9108 95.7163 33.5169 95.5504C33.4132 95.7889 33.3406 95.9858 33.2266 96.245ZM21.1286 18.9195C21.4811 18.6085 21.7921 18.3286 22.1653 17.9865C21.9579 17.7895 21.7817 17.6236 21.5744 17.437C21.2219 17.7688 20.9109 18.059 20.5792 18.37C20.7969 18.567 20.942 18.7225 21.1286 18.9195ZM35.9738 9.54793C36.4092 9.39243 36.8135 9.23693 37.2489 9.08143C37.1556 8.82226 37.0727 8.60456 36.9794 8.33503C36.5232 8.51126 36.1293 8.67713 35.7042 8.84299C35.7975 9.10216 35.8805 9.29913 35.9738 9.54793ZM65.5086 98.8989C65.9648 98.7745 66.3794 98.6604 66.8148 98.5464C66.7112 98.2665 66.6386 98.0384 66.5453 97.7793C66.1099 97.9244 65.7056 98.0592 65.2909 98.1939C65.3531 98.422 65.4153 98.619 65.5086 98.8989ZM91.2596 79.8655C91.498 80.0314 91.6846 80.1558 91.9231 80.3217C92.1926 79.9381 92.431 79.5856 92.6902 79.2124C92.4725 79.0466 92.2963 78.9118 92.0786 78.7459C91.7987 79.1191 91.5602 79.4509 91.2596 79.8655ZM19.0449 21.0135C19.3663 20.6611 19.6565 20.3501 19.9468 20.0287C19.7498 19.8525 19.584 19.697 19.3766 19.4896C19.0656 19.8421 18.7754 20.1738 18.4644 20.5263C18.6821 20.7129 18.8376 20.8477 19.0449 21.0135ZM46.0917 99.2513C45.6045 99.1788 45.1794 99.1269 44.7337 99.0647C44.6922 99.3446 44.6715 99.5727 44.63 99.8215C45.1172 99.8837 45.5423 99.9356 46.0088 99.9874C46.0399 99.7179 46.0606 99.5105 46.0917 99.2513ZM40.0583 8.14842C39.9753 7.88926 39.9235 7.69229 39.8406 7.45385C39.4052 7.57825 38.9905 7.68192 38.5758 7.79595C38.6277 8.55273 38.6899 8.60456 39.3119 8.40759C39.5503 8.33502 39.7784 8.25209 40.0583 8.14842ZM96.1527 71.0227C95.9972 71.4166 95.8313 71.8106 95.6655 72.2252C95.8106 72.2875 95.9143 72.3393 96.0179 72.3704C96.132 72.4119 96.2564 72.4326 96.3911 72.4637C96.4948 72.2253 96.5881 72.0179 96.6814 71.8002C96.9198 71.2093 96.8784 71.1264 96.1527 71.0227ZM42.9299 7.44348C42.8677 7.17395 42.8262 6.94588 42.764 6.68671C42.2975 6.80075 41.8725 6.90441 41.4163 7.01845C41.4785 7.28798 41.5303 7.49532 41.5926 7.73375C42.0487 7.64045 42.4737 7.54715 42.9299 7.44348ZM36.2537 96.6908C36.1396 96.9914 36.0671 97.1987 35.9841 97.4268C36.4299 97.5823 36.8446 97.7274 37.28 97.8933C37.3629 97.6238 37.4251 97.3957 37.5081 97.1365C37.083 96.981 36.6891 96.8359 36.2537 96.6908ZM53.6387 99.7386C53.618 100.018 53.6076 100.257 53.5972 100.495C54.1052 100.495 54.5406 100.495 55.0278 100.495C54.9967 100.215 54.976 99.977 54.9553 99.7386C54.5199 99.7386 54.1259 99.7386 53.6387 99.7386ZM7.06094 65.1448C7.21644 65.6216 7.35121 66.0259 7.49634 66.4613C7.75551 66.368 7.96284 66.2955 8.20128 66.2125C8.06651 65.7564 7.94211 65.3625 7.80734 64.9374C7.54817 65.01 7.33047 65.0722 7.06094 65.1448ZM32.1277 94.8559C31.6819 94.6278 31.2984 94.4308 30.8837 94.2235C30.7697 94.4723 30.6764 94.69 30.5727 94.9284C30.9874 95.1357 31.3502 95.3224 31.7649 95.5297C31.8789 95.3016 31.9826 95.115 32.1277 94.8559ZM88.4295 83.4939C88.1392 83.836 87.8697 84.1574 87.5898 84.4891C87.8282 84.6653 88.0044 84.8001 88.2221 84.9763C88.5228 84.6239 88.8027 84.2921 89.093 83.95C88.8442 83.7842 88.6679 83.6598 88.4295 83.4939ZM30.2721 11.3414C30.6556 12.1189 30.9874 12.0982 31.796 11.3103C31.713 11.134 31.6197 10.9474 31.5161 10.7194C31.091 10.9267 30.6971 11.134 30.2721 11.3414ZM9.12391 69.0634C8.94768 68.5969 8.79218 68.203 8.62631 67.7883C8.39824 67.8816 8.20128 67.9645 7.94211 68.0786C8.08724 68.4932 8.22201 68.8872 8.36714 69.3226C8.63668 69.2293 8.86475 69.1463 9.12391 69.0634ZM92.5451 26.6945C92.2652 26.3006 92.006 25.9481 91.7365 25.5645C91.5084 25.7304 91.3218 25.8652 91.1248 26C91.4047 26.3939 91.6639 26.736 91.9334 27.1092C92.1408 26.9641 92.317 26.8397 92.5451 26.6945ZM10.8344 74.8169C11.0729 74.6718 11.2698 74.5578 11.4772 74.4334C11.2491 74.0083 11.0521 73.6455 10.8552 73.2516C10.6167 73.3552 10.4198 73.4485 10.1813 73.5522C10.399 73.9772 10.6064 74.3815 10.8344 74.8169ZM13.6646 26.4457C13.4365 26.7982 13.198 27.161 12.9389 27.555C13.2395 27.669 13.4572 27.7623 13.6646 27.8452C14.4421 26.8915 14.4421 26.7775 13.6646 26.4457ZM33.2681 10.709C33.7138 10.512 34.0974 10.3462 34.4913 10.1699C34.3877 9.91077 34.3047 9.70343 34.2114 9.465C33.7864 9.6516 33.3821 9.81747 32.9467 10.0041C33.0607 10.2425 33.154 10.4395 33.2681 10.709ZM23.3782 16.9809C23.7203 16.6803 24.0313 16.4211 24.3527 16.1412C24.1868 15.9338 24.0417 15.768 23.8654 15.5503C23.513 15.8405 23.1708 16.0997 22.8287 16.39C23.0361 16.5973 23.1812 16.7632 23.3782 16.9809ZM94.3696 74.8895C94.6184 75.0035 94.8154 75.1072 95.0435 75.2212C95.2508 74.7858 95.4374 74.4023 95.6447 73.9772C95.3959 73.8632 95.1782 73.7699 94.9502 73.6662C94.7532 74.0809 94.5666 74.4645 94.3696 74.8895ZM82.3857 15.7576C82.0125 15.4673 81.6807 15.1978 81.3075 14.9075C81.1417 15.1356 81.0069 15.3118 80.8618 15.5088C81.2142 15.7991 81.546 16.0686 81.8777 16.3485C82.0539 16.1308 82.1991 15.9649 82.3857 15.7576ZM25.1924 14.5654C25.3893 14.8039 25.5448 14.9801 25.7003 15.1771C26.0839 14.9179 26.4053 14.6898 26.7474 14.4514C26.5919 14.2233 26.4571 14.0264 26.2912 13.7879C25.9284 14.0471 25.5863 14.2855 25.1924 14.5654ZM29.1836 94.1198C29.1732 93.7673 29.6708 93.5807 29.2665 93.2905C28.9659 93.0728 28.6238 92.9276 28.2713 92.741C28.1469 93.0002 28.0536 93.1972 27.9499 93.4252C28.3542 93.6429 28.7171 93.8503 29.1836 94.1198ZM17.5728 84.6135C18.1948 84.1885 18.1948 84.1677 17.7698 83.6805C17.6143 83.5043 17.4588 83.3177 17.2929 83.1311C17.0648 83.2969 16.8679 83.4317 16.6398 83.5976C16.9508 83.95 17.2514 84.2714 17.5728 84.6135ZM50.3317 5.63967C50.3317 5.91957 50.3317 6.13728 50.3317 6.35498C50.7878 6.35498 51.2025 6.35498 51.6483 6.35498C51.669 6.10617 51.6794 5.88847 51.6898 5.63967C51.2336 5.63967 50.7982 5.63967 50.3317 5.63967ZM57.7128 5.82627C57.2152 5.77444 56.7798 5.73297 56.3133 5.68114C56.3133 5.96104 56.3133 6.17874 56.3133 6.43791C56.7384 6.47938 57.153 6.53121 57.5884 6.57268C57.6299 6.31351 57.6714 6.10617 57.7128 5.82627ZM50.5805 100.495C51.0781 100.495 51.5135 100.495 51.9386 100.495C52.0526 99.749 52.0422 99.7386 51.3477 99.7282C51.1196 99.7282 50.9019 99.7282 50.6324 99.7282C50.6116 99.977 50.6013 100.205 50.5805 100.495ZM47.6467 100.267C48.0821 100.298 48.5175 100.319 48.9426 100.35C49.1084 99.5727 48.7249 99.355 47.6467 99.5831C47.6467 99.7904 47.6467 99.9978 47.6467 100.267ZM94.266 30.9864C94.6495 31.9712 94.6495 31.9712 95.5411 31.8883C95.313 31.4632 95.1057 31.0797 94.8776 30.665C94.6495 30.779 94.4733 30.8723 94.266 30.9864ZM87.0818 86.2204C86.8434 85.9923 86.6775 85.8368 86.5635 85.7331C86.211 86.0649 85.9 86.3448 85.5683 86.6558C85.7549 86.8216 85.9311 86.9771 86.0348 87.0704C86.408 86.7698 86.7397 86.5003 87.0818 86.2204ZM63.8499 74.4852C63.5493 74.2882 63.3938 74.112 63.2487 74.112C62.9066 74.112 62.6889 74.3504 62.7511 74.6925C62.7718 74.8273 63.0621 75.0554 63.145 75.0243C63.3523 74.9413 63.5286 74.7444 63.8499 74.4852ZM78.1249 70.691C77.6584 70.5458 77.3578 70.5977 77.2023 70.919C77.1401 71.0642 77.1608 71.3441 77.2645 71.4374C77.3682 71.5307 77.6999 71.5307 77.7725 71.4374C77.9383 71.2404 78.0109 70.9605 78.1249 70.691ZM23.2538 89.9005C23.5441 90.139 23.824 90.3463 24.1142 90.5848C24.2283 90.4293 24.3216 90.3048 24.4356 90.1493C24.135 89.9213 23.8551 89.7139 23.5648 89.4962C23.4404 89.6517 23.3575 89.7658 23.2538 89.9005Z" fill="#FDFDFD"/>
<path d="M5.47461 64.8135C5.87891 64.6787 6.11735 64.7409 6.25211 65.2281C7.02962 67.9546 7.96263 70.6292 9.16517 73.2105C11.1763 77.5542 13.7162 81.5247 16.9091 85.1219C20.5375 89.196 24.7464 92.4927 29.4114 95.2398C32.9257 97.3132 36.72 98.7023 40.6593 99.7183C43.4272 100.434 46.2366 100.921 49.0875 101.18C51.8865 101.429 54.7063 101.491 57.4949 101.118C59.8793 100.796 62.274 100.475 64.6272 99.9463C69.5307 98.8475 74.0402 96.7327 78.3632 94.2032C80.9652 92.6793 83.391 90.9065 85.5162 88.7606C87.5481 86.708 89.5696 84.6347 91.4045 82.4058C94.3176 78.85 96.3909 74.7863 98.0392 70.5048C98.7027 68.7943 99.2003 67.0216 99.7601 65.28C99.9467 64.7098 99.9364 64.7098 100.641 64.8342C98.7131 72.7233 95.0536 79.7208 89.6214 85.7024C80.592 95.6338 69.3441 101.263 55.8673 101.989C28.2296 103.471 9.45544 83.2974 5.47461 64.8135Z" fill="#252525"/>
<path d="M97.2721 32.0337C96.7537 32.1788 96.4738 32.0129 96.2354 31.5568C95.406 30.0122 94.6285 28.426 93.6748 26.9643C88.9061 19.6454 82.6757 13.923 74.8592 9.97324C70.4533 7.74439 65.8194 6.19975 60.947 5.40151C56.6655 4.69657 52.3633 4.58254 48.0404 5.02831C43.0955 5.54664 38.3371 6.79065 33.7758 8.74997C29.5876 10.5538 25.7623 12.9174 22.2687 15.8201C18.6714 18.8057 15.551 22.2267 12.9593 26.1246C11.9538 27.6382 11.1141 29.2554 10.2018 30.8311C10.067 31.0696 9.94263 31.3184 9.79749 31.5672C9.47612 32.127 9.46576 32.127 8.70898 32.044C11.311 26.5082 14.815 21.6462 19.252 17.4995C28.1777 9.16464 38.7622 4.54107 51.0053 4.0953C74.9317 3.22449 91.1972 18.4325 97.2721 32.0337Z" fill="#252525"/>
<path d="M50.3409 53.7105C50.6726 53.3788 51.1495 53.7001 51.5953 53.5032C51.5953 53.3891 51.5953 53.2336 51.5953 53.0781C51.5953 49.1491 51.5953 45.2305 51.5953 41.3015C51.5953 40.2441 51.4916 40.1404 50.4653 39.9849C50.3513 39.9642 50.258 39.8813 50.1543 39.8191C50.175 39.7776 50.1854 39.7361 50.2061 39.6947C51.0355 39.6947 51.8648 39.6947 52.7356 39.6947C52.7356 40.1197 52.7356 40.524 52.7356 41.0216C53.0362 40.835 53.2643 40.7002 53.4924 40.5655C56.3951 38.7824 59.5362 39.4044 61.5266 41.4467C64.0872 44.0798 63.5378 48.268 60.4381 50.3206C59.4014 51.0048 58.2611 51.3469 57.0171 51.4402C57.0378 51.5128 57.0378 51.5853 57.0689 51.5957C58.6136 52.2592 60.1478 52.9848 61.7236 53.555C62.3248 53.7727 63.0505 53.6483 63.8384 53.6794C63.6103 53.8038 63.4341 53.9386 63.2371 53.9904C62.1901 54.2807 61.1534 54.0941 60.1375 53.8142C57.6183 53.1196 55.3169 51.9482 53.0777 50.6523C52.9948 50.6108 52.9118 50.559 52.8082 50.5072C52.8082 51.378 52.7874 52.2073 52.8289 53.0263C52.8393 53.1818 53.0984 53.4099 53.285 53.4617C53.6272 53.555 54.0004 53.5343 54.3528 53.5861C54.4461 53.5965 54.5187 53.669 54.612 53.7209C54.5394 53.7831 54.4669 53.8867 54.3943 53.8867C53.0673 53.8971 51.7404 53.8971 50.4135 53.8971C50.3616 53.8245 50.3513 53.7623 50.3409 53.7105ZM52.7149 49.4394C52.9533 49.5016 53.1296 49.5016 53.2643 49.5742C53.7205 49.823 54.1559 50.1236 54.6224 50.3724C56.6128 51.4091 58.8105 51.1292 60.3655 49.6571C62.8328 47.3142 62.4493 43.1364 59.588 41.1149C57.4421 39.591 54.6431 39.7983 52.9429 41.6022C52.8393 41.7162 52.7252 41.8717 52.7252 42.0065C52.7045 44.4945 52.7149 46.9929 52.7149 49.4394Z" fill="#232222"/>
<path d="M36.1286 53.5966C36.5225 53.5966 36.9165 53.5966 37.383 53.5966C37.383 53.3892 37.383 53.2233 37.383 53.0678C37.383 49.1389 37.383 45.2099 37.383 41.2912C37.383 41.2705 37.383 41.2601 37.383 41.2394C37.3726 40.2857 37.2067 40.0991 36.2737 39.985C36.1493 39.9747 36.0457 39.8814 35.9316 39.8295C36.0457 39.7777 36.1597 39.674 36.2737 39.674C36.989 39.6637 37.7147 39.6637 38.4715 39.6637C38.4715 40.0991 38.4715 40.5034 38.4715 41.0113C38.6892 40.8869 38.8343 40.8144 38.9691 40.7314C40.3479 39.8606 41.8199 39.3941 43.489 39.5496C46.4642 39.8399 48.9937 42.5456 48.9212 45.4379C48.8382 48.3613 46.5679 50.8908 43.6445 51.3159C43.3439 51.3573 43.0432 51.3988 42.67 51.4506C42.7633 51.5336 42.7944 51.5854 42.8463 51.6061C44.2872 52.2385 45.7178 52.8812 47.1692 53.4825C47.8534 53.7624 48.5687 53.7832 49.2944 53.5654C49.3566 53.5447 49.4291 53.5758 49.5017 53.5758C49.5224 53.6277 49.5328 53.6899 49.5535 53.7417C49.2322 53.8557 48.9004 54.0838 48.5791 54.0734C47.6668 54.032 46.7338 54.0112 45.863 53.7832C43.3646 53.1611 41.1046 51.9482 38.8758 50.6835C38.7721 50.6213 38.6581 50.5695 38.5026 50.4969C38.5026 51.3159 38.4922 52.083 38.513 52.8501C38.5233 53.1922 38.7203 53.4411 39.0831 53.4929C39.4045 53.5344 39.7362 53.5447 40.0576 53.5862C40.1716 53.6069 40.2753 53.6899 40.379 53.7417C40.3582 53.7935 40.3479 53.8454 40.3271 53.9076C38.9484 53.9076 37.5799 53.9076 36.2012 53.9076C36.1804 53.7935 36.1493 53.6899 36.1286 53.5966ZM38.4819 49.4291C38.7099 49.481 38.8862 49.4913 39.0313 49.5639C39.5496 49.8438 40.0369 50.1755 40.5656 50.4347C42.9499 51.5958 45.5934 50.8079 46.9618 48.6101C48.6827 45.863 47.4906 42.0895 44.5775 40.6381C42.5664 39.6325 40.1613 40.0369 38.7307 41.5815C38.6063 41.7163 38.4922 41.9132 38.4922 42.0791C38.4819 44.5464 38.4819 47.0137 38.4819 49.4291Z" fill="#232222"/>
<path d="M88.4393 54.3014C85.1116 54.2703 82.1985 52.3317 81.1722 49.4602C79.9075 45.9147 81.3796 42.1101 84.728 40.296C88.3149 38.3574 92.6586 39.1971 94.9704 42.2864C97.645 45.8525 96.6083 50.87 92.7519 53.1093C91.4146 53.8764 89.9943 54.3118 88.4393 54.3014ZM81.8564 46.5471C81.8357 47.8533 82.0949 48.9626 82.8828 50.3413C84.106 52.4873 86.5526 54.1874 89.7559 53.7624C92.1195 53.4514 94.4209 51.3987 95.0844 48.9522C95.7583 46.4227 95.1466 44.1731 93.5398 42.1827C91.3628 39.5081 87.5582 38.9172 84.7799 40.835C82.7895 42.2138 81.8875 44.1731 81.8564 46.5471Z" fill="#252525"/>
<path d="M11.7769 49.3879C11.8909 49.2427 11.9531 49.108 12.0672 49.0354C13.0002 48.4652 13.1557 47.6255 12.4922 46.7858C11.611 45.6662 9.92124 45.7388 8.95713 46.9413C7.57836 48.6518 7.94119 51.3368 9.73464 52.8089C12.0568 54.7164 15.851 53.773 16.9292 51.0154C17.4993 49.5641 17.0536 48.0713 15.6437 47.0968C14.6174 46.3919 13.5185 45.801 12.4404 45.1686C11.4659 44.5881 10.6676 43.8831 10.4292 42.7013C9.94197 40.2755 12.2952 39.0107 13.8813 39.301C14.2338 39.3632 14.5759 39.4772 14.918 39.5602C15.1772 39.3528 14.7521 38.8552 15.3223 38.7412C15.3223 39.7675 15.3223 40.7316 15.3223 41.6957C15.3223 42.4318 15.3327 43.1782 15.3119 43.9142C15.3119 44.0282 15.2083 44.1423 15.1564 44.2563C15.0942 44.2356 15.0424 44.2149 14.9802 44.1941C14.9802 43.427 15.0009 42.6495 14.9698 41.8823C14.9595 41.5299 14.9076 41.1463 14.7729 40.8249C14.3271 39.809 13.2179 39.4461 12.2019 39.9541C11.1756 40.4621 10.7817 41.6854 11.3104 42.722C11.6214 43.344 12.1086 43.8002 12.7099 44.1423C13.6222 44.6606 14.5448 45.1686 15.4467 45.6973C16.276 46.1845 17.0432 46.7443 17.5719 47.5633C18.5153 49.0147 18.2768 51.0258 17.0017 52.4149C14.9491 54.6542 10.989 54.9237 8.65649 52.9851C6.43801 51.1398 6.64535 47.6359 9.05044 46.1016C10.2322 45.3448 12.0879 45.3759 13.0313 46.1949C13.6429 46.7236 13.9643 47.3767 13.8295 48.206C13.6844 49.1702 12.7825 49.7403 11.7769 49.3879Z" fill="#252525"/>
<path d="M73.7915 49.4397C73.9056 49.2738 73.9678 49.1183 74.0714 49.0458C74.9526 48.5274 75.1392 47.6359 74.5276 46.8169C73.8123 45.8632 72.4542 45.7077 71.4487 46.4644C70.329 47.3145 69.8625 48.9835 70.2772 50.58C70.9303 53.0577 73.6982 54.4468 76.1966 53.5345C77.7516 52.9644 78.8401 51.9692 79.1097 50.2587C79.3274 48.8592 78.6846 47.8121 77.5858 47.0761C76.4039 46.2778 75.1392 45.6144 73.9367 44.8472C72.7238 44.0801 72.1432 42.7428 72.4335 41.478C72.7652 40.0267 74.4343 38.99 75.9374 39.3114C76.2899 39.3839 76.632 39.4876 76.9534 39.5706C77.1607 39.3217 76.8083 38.8967 77.3059 38.7412C77.3266 38.8863 77.337 38.99 77.337 39.0833C77.337 40.6798 77.337 42.2763 77.337 43.8624C77.337 43.9868 77.254 44.1008 77.2022 44.2252C77.14 44.1008 77.0363 43.9868 77.026 43.8624C76.9949 43.0952 77.026 42.3177 76.9638 41.5506C76.8497 40.2859 75.9478 39.6017 74.7349 39.7883C73.636 39.9541 72.8896 41.0737 73.1384 42.2141C73.3043 42.9812 73.7708 43.5514 74.4135 43.9557C75.4191 44.5673 76.4973 45.0857 77.4614 45.7491C78.2078 46.2571 78.9645 46.8376 79.514 47.5529C80.4884 48.8177 80.3122 50.7044 79.2755 52.0936C77.2437 54.7993 72.589 55.0896 70.2668 52.6223C69.168 51.4508 68.8466 50.0306 69.2716 48.5067C69.6967 46.9828 70.7022 45.9979 72.2676 45.6351C73.7812 45.2826 75.2636 45.9565 75.7405 47.2419C75.9893 47.9054 75.8753 48.5378 75.388 49.0665C74.9941 49.5226 74.4757 49.6056 73.7915 49.4397Z" fill="#242324"/>
<path d="M25.8343 55.7734C23.9787 56.3125 22.0816 56.6235 20.143 56.6131C18.9405 56.6131 18.277 56.0844 18.2251 54.9959C18.2044 54.5398 18.4014 54.0733 18.5154 53.6275C18.5776 53.4098 18.6813 53.2025 18.7642 52.9951C18.8782 52.9122 19.0027 52.8293 19.1167 52.7463C19.4588 52.4975 19.7594 52.1554 20.143 52.031C20.879 51.7719 21.5943 51.9377 22.3096 52.2798C23.2841 52.7567 24.3001 53.1403 25.3056 53.5342C25.5855 53.6482 25.8654 53.6379 25.9587 53.2543C26.052 53.275 26.135 53.2958 26.249 53.3165C25.7514 54.0422 25.627 54.8093 25.8965 55.6283C25.8758 55.6801 25.8551 55.7216 25.8343 55.7734ZM20.1015 55.4002C21.2315 55.7112 22.3407 55.6698 23.4292 55.1929C22.32 55.2655 21.2108 55.3277 20.1015 55.4002Z" fill="#17A159"/>
<path d="M20.0293 49.0249C18.7231 44.3081 21.8538 40.2754 26.1457 39.415C30.4997 38.5442 34.6257 41.198 35.3928 45.5521C35.6105 46.7857 35.4239 47.9675 35.0922 49.139C34.7397 49.139 34.3872 49.1286 34.0348 49.1286C34.8019 46.2985 34.1177 43.8208 32.1066 41.7475C28.8618 38.4094 23.5436 39.3009 21.5325 43.4891C20.6513 45.324 20.6617 47.2211 21.294 49.1286C20.8794 49.0975 20.4543 49.0664 20.0293 49.0249Z" fill="#242324"/>
<path d="M64.627 39.6636C65.8088 39.6636 66.9906 39.6636 68.1621 39.6739C68.2347 39.6739 68.3072 39.788 68.3798 39.8398C68.3072 39.8916 68.2347 39.9331 68.1724 39.9746C68.1621 39.9849 68.1413 39.9746 68.1206 39.9746C67.7992 40.0057 67.3535 39.9227 67.2084 40.0886C67.0425 40.2856 67.1669 40.7106 67.1669 41.032C67.1669 44.7951 67.1669 48.5582 67.1669 52.3214C67.1669 53.2958 67.312 53.441 68.2761 53.555C68.3902 53.5654 68.4938 53.6587 68.5975 53.7105C68.5768 53.7623 68.5664 53.8142 68.5457 53.866C67.3535 53.866 66.1613 53.866 64.9691 53.8556C64.9069 53.8556 64.8551 53.752 64.7929 53.6898C64.8655 53.6379 64.9277 53.555 65.0002 53.555C65.3112 53.5446 65.6222 53.5446 65.9747 53.5446C65.9851 53.3684 66.0058 53.2129 66.0058 53.0574C66.0058 49.0973 66.0058 45.1372 66.0058 41.1771C66.0058 40.2234 65.8607 40.0679 64.9277 39.9642C64.8033 39.9538 64.6892 39.8709 64.5752 39.8191C64.5856 39.7776 64.6063 39.7258 64.627 39.6636Z" fill="#252525"/>
<path d="M34.0455 49.1284C34.3979 49.1284 34.7504 49.1388 35.1029 49.1388C35.5694 49.4809 36.0255 49.8437 36.0566 50.4761C36.0773 50.87 35.984 51.2743 35.9633 51.6786C35.9322 52.1762 35.9011 52.6842 35.8804 53.1818C35.6938 53.0263 35.5072 52.8708 35.3309 52.7049C34.7711 52.1659 34.0662 51.8134 33.3301 52.0311C32.5112 52.2592 31.7648 52.7153 30.9873 53.0782C30.2201 53.327 29.4426 53.5758 28.6444 53.8349C28.634 53.6794 28.6236 53.5654 28.6133 53.4617V53.4824C28.6444 53.4202 28.6858 53.3581 28.7169 53.2958C28.7688 53.2025 28.8103 53.0885 28.8828 53.0056C30.2927 51.2951 31.7855 49.6986 34.0455 49.1284Z" fill="#ED4950"/>
<path d="M20.0296 49.0249C20.4546 49.056 20.8796 49.0975 21.3047 49.1286C21.4083 49.2115 21.4913 49.3152 21.6053 49.367C22.7249 49.8231 23.6165 50.5799 24.4354 51.43C24.9745 52.0002 25.4514 52.6429 25.9593 53.2545C25.866 53.6381 25.5758 53.6485 25.3062 53.5344C24.3007 53.1301 23.2744 52.7569 22.3103 52.2801C21.5949 51.9276 20.8796 51.7721 20.1436 52.0313C19.76 52.166 19.4594 52.5081 19.1173 52.7466C19.0033 52.8295 18.8892 52.9124 18.7648 52.9954C18.7026 52.4148 18.6612 51.8447 18.5782 51.2745C18.402 50.1756 18.7752 49.0975 20.0296 49.0249Z" fill="#4EB46B"/>
<path d="M28.6027 53.4617C28.6131 53.5757 28.6234 53.6898 28.6338 53.8349C29.4424 53.5757 30.2095 53.3269 30.9767 53.0781C31.0078 53.3891 30.8419 53.7831 31.2566 53.9386C31.5572 54.0526 31.8786 54.0837 32.1896 54.177C32.314 54.2081 32.511 54.291 32.511 54.3532C32.5421 54.8923 32.9256 54.7472 33.2263 54.7575C33.5684 54.7679 33.9208 54.7679 34.2629 54.7679C34.3044 54.7679 34.3355 54.8094 34.4184 54.8612C34.2837 54.9338 34.1904 54.9856 34.0349 55.0685C34.4806 55.2551 34.8435 55.1618 35.0612 54.8923C35.3514 54.5295 35.31 54.4984 35.7246 54.7679C35.5691 54.8094 35.2685 54.6642 35.3929 55.0374C35.4136 55.0893 35.5277 55.11 35.5899 55.1411C35.6313 55.0167 35.6832 54.8923 35.7246 54.7679C35.7868 54.8716 35.9112 55.0374 35.8905 55.0685C35.7972 55.1722 35.6521 55.2448 35.5277 55.3173C35.4136 55.3277 35.2996 55.3173 35.1959 55.3381C33.8794 55.535 32.5835 55.5869 31.298 55.1515C30.9559 55.0271 30.6242 54.8923 30.2821 54.7679C30.2614 54.8197 30.2406 54.8716 30.2199 54.9234C30.4894 55.0374 30.7486 55.1411 31.0181 55.2551C32.4799 55.8253 33.9519 55.9808 35.4344 55.3588C35.3825 55.5661 35.3411 55.7735 35.2581 56.0948C35.5795 55.929 35.7557 55.846 35.932 55.7527C35.9942 55.6594 36.1082 55.5765 36.1186 55.4832C36.16 55.0167 36.1808 54.5502 36.2015 54.0837C36.4814 54.8197 36.5436 55.5247 35.9734 56.1778C35.5588 56.6443 35.0197 56.748 34.4599 56.7376C32.5835 56.6961 30.7382 56.4888 28.9344 55.929C28.81 55.8875 28.6856 55.8875 28.5612 55.8668C28.5405 55.8253 28.5198 55.7735 28.499 55.732C28.7271 55.1307 28.7271 54.5398 28.5094 53.9282C28.4472 53.7934 28.5612 53.6068 28.6027 53.4617Z" fill="#E0242A"/>
<path d="M54.9764 74.5373C55.3082 74.2574 55.6606 73.9982 55.9716 73.6976C56.3034 73.3866 56.6558 73.0756 56.8839 72.692C57.1534 72.2359 56.9979 72.0285 56.4692 72.0285C56.179 72.0285 55.8783 72.07 55.5984 72.153C54.4477 72.5158 53.4525 73.1274 52.6543 74.0501C51.9493 74.8587 52.0634 75.5325 52.9756 76.0819C53.4629 76.3722 53.9916 76.6106 54.4892 76.8905C55.4533 77.4193 55.785 78.3004 55.246 79.2542C54.9142 79.8347 54.427 80.3841 53.8879 80.7573C52.5299 81.6904 50.0108 82.0843 48.3936 81.7215C48.4143 81.1824 48.5802 81.0372 49.1296 81.1305C50.1974 81.3171 51.2548 81.3379 52.3018 81.058C53.1726 80.8195 53.9709 80.4463 54.5203 79.6896C55.0697 78.9328 54.9764 78.2797 54.1886 77.7614C53.6184 77.3778 52.9964 77.0772 52.4158 76.7039C51.4621 76.0923 51.2237 75.2319 51.8664 74.3092C52.9757 72.6817 54.5825 71.8212 56.5211 71.6242C57.3297 71.5413 57.6303 72.0078 57.3504 72.775C57.0601 73.6043 56.4278 74.1641 55.7747 74.6928C55.6192 74.8172 55.2874 74.7135 55.0386 74.7135C55.0283 74.6617 55.0075 74.5995 54.9764 74.5373Z" fill="#262627"/>
<path d="M56.925 56.6958C56.8421 57.2452 56.7591 57.7324 56.6866 58.2197C56.6244 58.2197 56.5621 58.23 56.4999 58.23C56.4688 58.0538 56.4792 57.8672 56.4067 57.7013C56.3237 57.4836 56.2304 57.1726 56.0542 57.0793C54.8516 56.4573 53.618 56.3951 52.4569 57.1312C51.3269 57.8465 51.0159 58.9972 51.1507 60.2205C51.4617 63.0195 54.24 64.3983 56.7073 63.0195C56.7695 62.978 56.8421 62.9469 56.9146 62.9158C56.9561 62.9573 56.9872 62.9987 57.0287 63.0402C56.8421 63.2164 56.6866 63.4653 56.4689 63.5482C54.6236 64.2739 52.8198 64.2842 51.244 62.9365C49.181 61.1638 49.7719 57.6599 52.2807 56.6128C53.8253 55.9597 55.3596 56.136 56.925 56.6958Z" fill="#252525"/>
<path d="M35.7144 54.7576C35.2998 54.488 35.3412 54.5191 35.051 54.882C34.8229 55.1619 34.4704 55.2448 34.0247 55.0582C34.1802 54.9753 34.2838 54.9235 34.4082 54.8509C34.3357 54.8094 34.2942 54.7679 34.2527 54.7576C33.9106 54.7472 33.5582 54.7576 33.2161 54.7472C32.9154 54.7368 32.5319 54.882 32.5008 54.3429C32.5008 54.2807 32.3038 54.1978 32.1794 54.1667C31.8684 54.0734 31.547 54.0423 31.2464 53.9282C30.8317 53.7727 30.9976 53.3788 30.9665 53.0678C31.744 52.705 32.5008 52.2488 33.3094 52.0208C34.0454 51.8134 34.7503 52.1555 35.3101 52.6946C35.4864 52.8605 35.673 53.016 35.8596 53.1715C35.9425 53.3062 36.0254 53.441 36.1084 53.5861C36.1395 53.6898 36.1706 53.7831 36.1913 53.8868C36.1809 53.949 36.1706 54.0112 36.1602 54.063C36.1291 54.5295 36.1187 54.996 36.0773 55.4625C36.0669 55.5558 35.9529 55.6491 35.8907 55.7321C35.8803 55.6906 35.8699 55.6491 35.8492 55.6077C35.8388 55.618 35.8285 55.6284 35.8077 55.6284C35.8285 55.6595 35.8596 55.701 35.8803 55.7321C35.7041 55.815 35.5278 55.9083 35.2065 56.0742C35.2894 55.7424 35.3309 55.5351 35.3827 55.3381C35.4138 55.3278 35.4449 55.3174 35.476 55.307C35.6004 55.2241 35.7455 55.1619 35.8388 55.0582C35.901 55.0271 35.7766 54.8612 35.7144 54.7576Z" fill="#E72930"/>
<path d="M83.1734 65.8086C82.5722 67.9856 81.9916 70.0382 81.4214 72.1012C81.4629 72.1219 81.5148 72.153 81.5562 72.1738C81.7325 71.9561 81.8983 71.728 82.0953 71.5207C82.3545 71.2511 82.624 70.8365 83.0283 71.0438C83.4637 71.2719 83.36 71.7591 83.246 72.153C83.132 72.5262 82.9454 72.8787 82.8002 73.2415C82.7691 73.3141 82.7795 73.397 82.8624 73.5422C83.1734 73.2415 83.4741 72.9409 83.8473 72.5884C83.7643 73.2208 82.9972 73.988 82.5203 73.9672C82.1367 73.9465 82.0227 73.6666 82.1056 73.3348C82.2197 72.9098 82.3856 72.4951 82.5203 72.0805C82.5825 71.8939 82.6344 71.7176 82.6862 71.531C82.6447 71.4999 82.6136 71.4688 82.5722 71.4377C82.4167 71.5932 82.2197 71.728 82.1056 71.9146C81.7428 72.5159 81.4007 73.1379 81.069 73.7599C80.8513 74.1849 80.7683 74.2782 80.25 74.4026C80.2707 74.1849 80.2707 73.9776 80.3122 73.7806C80.8927 71.4792 81.4733 69.1778 82.0538 66.8764C82.1989 66.3477 82.4996 65.9641 83.1734 65.8086Z" fill="#262627"/>
<path d="M60.9371 60.7289C60.9682 60.0136 60.7816 59.5782 60.2529 59.4227C59.89 59.319 59.4443 59.2879 59.1125 59.4227C58.8119 59.5367 58.6149 59.9099 58.3247 60.221C58.2521 59.8374 58.1484 59.516 58.5942 59.2672C59.2162 58.9251 59.8486 58.697 60.5639 58.8525C61.4347 59.0391 61.8597 59.6197 61.839 60.5631C61.8182 61.3198 61.8182 62.0766 61.7871 62.823C61.7664 63.2584 61.8286 63.6109 62.3781 63.6109C62.4299 63.6109 62.4714 63.6731 62.6372 63.7871C62.0049 63.7871 61.5072 63.7871 60.9578 63.7871C60.9578 63.5487 60.9578 63.2999 60.9578 62.937C60.6053 63.1962 60.3254 63.3828 60.0766 63.5901C59.5583 64.0359 58.9985 64.0359 58.4283 63.7664C57.9515 63.5487 57.796 63.1133 57.8271 62.626C57.8685 61.9937 58.1173 61.465 58.7704 61.268C59.465 61.071 60.1803 60.9155 60.9371 60.7289ZM60.9578 61.0192C60.4291 61.154 59.9522 61.2576 59.4857 61.4028C58.8741 61.5997 58.5838 62.1284 58.7082 62.7401C58.8015 63.1755 59.1125 63.3828 59.6309 63.3517C60.1699 63.3206 60.9267 62.7608 60.9578 62.3565C60.9785 61.9418 60.9578 61.5168 60.9578 61.0192Z" fill="#252525"/>
<path d="M64.6788 77.865C65.0313 77.5229 65.3319 77.2326 65.6636 76.9216C65.6636 77.668 64.8239 78.3626 63.9946 78.3004C63.9946 77.9583 64.005 77.6162 63.9946 77.2637C63.9946 77.0875 63.9635 76.9113 63.9531 76.7661C64.4715 75.1697 64.938 73.5732 65.4978 72.0078C65.8191 71.1059 66.2753 70.2455 66.6899 69.3746C66.7521 69.2399 66.8454 69.1155 66.9595 69.0325C67.0839 68.9392 67.2808 68.8252 67.3741 68.8667C67.5089 68.9289 67.6644 69.1362 67.654 69.271C67.6229 69.7582 67.6229 70.2766 67.4363 70.712C66.9595 71.873 66.4515 73.0341 65.8606 74.1433C65.3423 75.1386 64.8136 76.113 64.6684 77.243C64.6581 77.357 64.6373 77.4711 64.627 77.5851C64.627 77.6369 64.6477 77.6784 64.6788 77.865ZM65.6533 73.4384C66.3271 73.003 67.343 70.1625 67.0839 69.4368C66.607 70.7742 66.1301 72.1115 65.6533 73.4384Z" fill="#262627"/>
<path d="M71.2001 61.2267C70.0494 61.2267 68.8987 61.2267 67.7065 61.2267C67.6754 61.9731 67.8102 62.5847 68.3389 63.0201C69.2097 63.7458 70.1219 63.5695 71.086 63.103C71.0031 63.2274 70.9616 63.3933 70.8476 63.4762C69.8628 64.2019 67.8309 64.2537 67.1052 62.9164C66.5765 61.9523 66.5765 60.9468 67.0845 60.0034C67.5199 59.1844 68.3181 58.8008 69.2511 58.7801C70.6092 58.7594 71.4074 59.7235 71.2001 61.2267ZM70.3189 60.9364C70.3189 60.6669 70.3396 60.4595 70.3189 60.2522C70.2152 59.5161 69.8006 59.1118 69.1475 59.0911C68.287 59.06 67.6132 59.796 67.7065 60.6876C67.7168 60.7809 67.8827 60.926 67.976 60.926C68.7328 60.9468 69.4999 60.9364 70.3189 60.9364Z" fill="#242324"/>
<path d="M65.8613 63.7868C64.949 63.7868 64.0264 63.7868 63.1141 63.7868C63.1037 63.7557 63.0934 63.7246 63.083 63.6935C63.2489 63.652 63.4251 63.6313 63.5703 63.5483C63.705 63.4758 63.8916 63.341 63.902 63.227C63.9227 62.0659 63.9123 60.9048 63.9123 59.7126C63.7154 59.7126 63.4873 59.7126 63.1867 59.7126C63.28 59.5882 63.3214 59.4846 63.3836 59.4638C63.9123 59.3187 64.016 58.9662 63.9953 58.4686C63.9538 57.3076 64.8039 56.6959 65.6021 56.105C65.7887 55.9702 66.1308 56.0428 66.4211 56.0117C66.4211 56.3538 66.4211 56.6026 66.4211 56.9136C66.2552 56.8514 66.1308 56.7892 65.9961 56.7478C65.3222 56.5197 64.8454 56.8307 64.8143 57.5356C64.7935 58.0643 64.8143 58.5827 64.8143 59.1528C65.2704 59.1528 65.7265 59.1528 66.2138 59.1528C66.193 59.3394 66.1723 59.4742 66.1516 59.6504C65.6954 59.6504 65.2808 59.6504 64.8454 59.6504C64.8454 60.8737 64.835 62.0452 64.8661 63.227C64.8661 63.341 65.0942 63.4965 65.2497 63.5587C65.4466 63.6416 65.6747 63.6416 65.8924 63.6727C65.8717 63.7038 65.8717 63.7453 65.8613 63.7868Z" fill="#242324"/>
<path d="M56.1885 80.2598C56.2507 79.9488 56.2921 79.6274 56.3647 79.3164C56.4684 78.8499 56.6135 78.3938 56.7068 77.9377C56.8001 77.5126 56.9971 77.2223 57.4947 77.1394C57.4947 77.3467 57.4947 77.5541 57.4947 77.7511C57.5258 77.7718 57.5569 77.7822 57.588 77.8029C57.702 77.6578 57.8161 77.5126 57.9197 77.3675C58.1374 77.0565 58.407 76.7351 58.7905 76.9217C58.9875 77.015 59.0497 77.3986 59.1845 77.6785C59.2363 77.6059 59.3296 77.4711 59.4229 77.326C59.5888 77.0979 59.7132 76.8284 59.9205 76.6625C60.076 76.5381 60.3559 76.4656 60.5425 76.5174C60.6669 76.5485 60.7809 76.8699 60.7602 77.0357C60.6876 77.5956 60.5529 78.145 60.4388 78.7048C60.4699 78.7463 60.5114 78.7774 60.5425 78.8188C60.7291 78.4975 60.9157 78.1657 61.1023 77.8444C61.1852 77.9169 61.2785 77.9791 61.3615 78.0517C61.3304 78.1761 61.3304 78.3316 61.2578 78.4145C60.9572 78.7152 60.6462 79.0158 60.3144 79.275C60.2108 79.3579 59.9723 79.3994 59.879 79.3372C59.7754 79.275 59.7235 79.0469 59.7443 78.9018C59.8376 78.4042 59.9723 77.9169 60.0967 77.4193C60.1382 77.2638 60.1693 77.1187 60.2108 76.9632C60.1693 76.9424 60.1278 76.9217 60.0967 76.8906C59.962 77.0668 59.7961 77.2327 59.6821 77.4297C59.34 78.0413 59.0186 78.6737 58.6765 79.2853C58.5003 79.6067 58.3344 80.0006 57.7331 79.8348C57.9923 79.0054 58.2618 78.1761 58.521 77.3571C58.4692 77.326 58.4173 77.2949 58.3655 77.2638C58.1893 77.4919 57.9716 77.6889 57.8368 77.9377C57.5051 78.5597 57.2148 79.2024 56.883 79.8244C56.769 80.0317 56.5409 80.1769 56.3647 80.3531C56.3129 80.3427 56.2507 80.3013 56.1885 80.2598Z" fill="#262627"/>
<path d="M74.1639 73.2208C73.9773 74.0398 73.7907 74.8484 73.6041 75.6467C73.656 75.6778 73.7182 75.7192 73.77 75.7503C73.9462 75.5948 74.195 75.4704 74.278 75.2735C74.5371 74.6826 74.7445 74.0606 74.9622 73.4489C75.0762 73.1275 75.1592 72.7751 75.7397 72.8373C75.5738 73.3349 75.4805 73.8221 75.2525 74.2368C74.9207 74.8277 74.5371 75.4186 74.0706 75.9058C73.6041 76.4034 73.3242 76.2894 73.0962 75.6363C73.0754 75.5845 73.0651 75.5223 73.0132 75.3771C72.7748 75.6881 72.6193 75.9784 72.3912 76.1857C72.1839 76.362 71.904 76.4449 71.6448 76.5589C71.5515 76.2998 71.3649 76.0302 71.396 75.7814C71.479 75.1905 71.6241 74.5893 71.8314 74.0191C71.9144 73.791 72.215 73.6355 72.4223 73.4489C72.4742 73.48 72.5156 73.5111 72.5675 73.5526C72.3498 74.3716 72.1321 75.2009 71.9144 76.0199C71.9558 76.051 71.9973 76.0821 72.0388 76.1132C72.1632 75.9991 72.329 75.8955 72.4016 75.7607C72.7126 75.118 73.0029 74.4545 73.3035 73.8014C73.4694 73.4593 73.6352 73.1379 74.1639 73.2208Z" fill="#262627"/>
<path d="M80.467 71.0747C80.3115 71.1887 80.1767 71.3546 80.0005 71.3961C79.6998 71.4686 79.5754 71.6241 79.5029 71.9144C79.2955 72.6919 79.0571 73.4487 78.912 74.3195C79.2437 74.05 79.5754 73.7908 79.9072 73.5213C79.959 73.5835 80.0108 73.656 80.0627 73.7182C79.6687 74.0914 79.3163 74.5061 78.8809 74.8171C78.5077 75.097 78.1759 74.9 78.2174 74.4335C78.2796 73.8219 78.4351 73.2103 78.5699 72.609C78.6217 72.3498 78.7254 72.1114 78.8083 71.8418C78.6943 71.7485 78.5906 71.6552 78.404 71.5101C79.2852 71.1887 79.0882 70.3698 79.337 69.7581C79.3888 69.6234 79.3992 69.4368 79.4925 69.3538C79.648 69.2087 79.8553 69.1258 80.0419 69.0117C80.0627 69.1983 80.1352 69.3953 80.1041 69.5715C80.0108 70.0277 79.8657 70.4838 79.7206 71.0021C79.9694 70.971 80.156 70.9399 80.3426 70.9088C80.3944 70.9918 80.4255 71.0332 80.467 71.0747Z" fill="#262627"/>
<path d="M87.2471 72.3912C87.7136 71.6345 88.2008 70.888 88.657 70.1209C88.8436 69.8099 88.9576 69.4471 89.5278 69.5715C89.4241 69.955 89.3204 70.3282 89.2271 70.6911C89.1338 71.0643 89.0302 71.4271 88.9369 71.8003C88.9783 71.8211 89.0198 71.8418 89.0613 71.8625C89.3101 71.6552 89.5692 71.4479 89.8595 71.199C89.7662 71.7381 89.1027 72.4742 88.6984 72.4534C88.5636 72.4534 88.3978 72.215 88.3252 72.0595C88.2734 71.9558 88.3563 71.7796 88.2941 71.5826C88.2008 71.707 88.1282 71.8521 88.0246 71.9662C87.7447 72.2565 87.4855 72.5778 87.1641 72.8163C86.8739 73.0236 86.5836 72.837 86.6251 72.526C86.7391 71.7278 86.9361 70.9295 87.1434 70.1416C87.1849 69.9965 87.4544 69.9239 87.6203 69.8203C87.6618 69.8514 87.7136 69.8825 87.755 69.9136C87.5581 70.7014 87.3507 71.4789 87.1538 72.2668C87.1745 72.3083 87.2056 72.3498 87.2471 72.3912Z" fill="#262627"/>
<path d="M66.773 77.378C67.5712 77.4713 67.82 76.6005 68.4317 76.3102C68.2969 77.067 67.0944 77.9793 66.4205 77.8031C66.2443 77.7616 66.0162 77.5024 65.9955 77.3158C65.8711 76.4243 66.9181 74.9107 67.7993 74.693C68.017 74.6412 68.4006 74.6205 68.4835 74.7449C68.6079 74.9107 68.6183 75.315 68.4939 75.4705C68.1103 75.9474 67.6542 76.3621 67.2084 76.7871C67.0425 76.9426 66.8352 77.067 66.6589 77.2018C66.7004 77.2536 66.7419 77.3158 66.773 77.378ZM66.887 76.5176C67.4365 76.1858 67.8822 75.7919 67.8615 74.9626C67.2706 75.398 67.084 75.9681 66.887 76.5176Z" fill="#262627"/>
<path d="M91.4252 69.6543C91.0519 70.0794 90.7617 70.4215 90.4714 70.7636C90.4299 70.7325 90.3781 70.7117 90.3366 70.6806C90.4403 70.4837 90.5336 70.2763 90.6476 70.0897C90.9379 69.6232 91.2489 69.1567 91.5495 68.7006C91.6117 68.6073 91.6532 68.4621 91.7465 68.4207C91.8917 68.3481 92.0679 68.3481 92.2234 68.3066C92.213 68.4518 92.2545 68.6591 92.1716 68.7317C91.8605 69.0427 91.9849 69.3226 92.1197 69.6647C92.5655 70.7947 91.9331 71.8417 90.7306 71.9972C90.5854 72.0179 90.3988 71.9868 90.2641 71.9039C90.1604 71.8417 90.0464 71.6447 90.0775 71.5618C90.1293 71.4374 90.2952 71.3648 90.4196 71.2819C90.461 71.2508 90.544 71.2923 90.6165 71.2923C90.8653 71.3337 91.3007 71.4581 91.3318 71.3856C91.4873 71.0642 91.5599 70.691 91.6014 70.3282C91.6221 70.1623 91.5081 69.955 91.4252 69.6543Z" fill="#262627"/>
<path d="M98.0498 41.0317C98.0498 40.7311 98.0291 40.503 98.0498 40.2853C98.1328 39.6529 97.9773 39.0828 97.6766 38.5437C97.4797 38.2016 97.8943 37.3204 98.2779 37.3101C98.3919 37.3101 98.5578 37.4656 98.6097 37.59C99.1073 38.5955 98.9518 39.5596 98.4023 40.4823C98.3194 40.6585 98.2053 40.814 98.0498 41.0317Z" fill="#262627"/>
<path d="M96.4535 42.2553C96.6504 41.3534 96.5779 40.493 96.0595 39.7051C95.9144 39.477 96.4535 38.627 96.7334 38.627C96.8474 38.627 97.0029 38.7825 97.0755 38.9069C97.5109 39.7155 97.459 40.5552 97.1169 41.3741C96.9822 41.6955 96.7645 41.9858 96.5882 42.2968C96.5468 42.2864 96.5053 42.276 96.4535 42.2553Z" fill="#252525"/>
<path d="M76.2063 75.3664C75.9472 74.3194 76.6625 72.5156 77.4711 72.3394C77.357 72.7644 77.2637 73.148 77.1601 73.5315C77.046 73.9255 76.932 74.309 76.818 74.6926C76.8594 74.7133 76.8905 74.7444 76.932 74.7652C77.1912 74.4853 77.44 74.2054 77.751 73.8736C77.6784 74.703 76.9009 75.4183 76.2063 75.3664Z" fill="#262627"/>
<path d="M61.7446 78.8606C61.672 77.9068 61.9623 77.0257 62.3458 76.186C62.4184 76.0201 62.719 75.9475 62.916 75.8335C62.9575 75.8646 62.9989 75.9061 63.0404 75.9372C62.8331 76.6939 62.6154 77.4507 62.408 78.2075C62.4495 78.2282 62.491 78.2489 62.5325 78.2697C62.7813 77.9898 63.0301 77.7099 63.31 77.3885C63.2789 78.166 62.4391 78.9435 61.7446 78.8606Z" fill="#262627"/>
<path d="M9.16493 38.6372C9.8284 39.083 9.94243 39.4354 9.6418 40.1093C9.3308 40.8142 9.3308 41.5295 9.47593 42.2759C8.48073 41.4466 8.42889 39.2177 9.16493 38.6372Z" fill="#252525"/>
<path d="M7.77564 37.2998C8.42874 37.7352 8.48058 38.0877 8.28361 38.7719C8.08664 39.4665 8.04518 40.2129 7.94151 40.8452C7.164 39.9848 7.01887 38.2017 7.77564 37.2998Z" fill="#242324"/>
<path d="M54.664 6.36547C54.2079 6.36547 53.8036 6.36547 53.3682 6.36547C53.3682 6.09594 53.3682 5.84714 53.3682 5.53613C53.8243 5.55687 54.2493 5.5776 54.7158 5.6087C54.7055 5.8886 54.6847 6.11667 54.664 6.36547Z" fill="#252525"/>
<path d="M79.5343 14.597C79.1403 14.3482 78.7879 14.1201 78.4043 13.8817C78.5391 13.6433 78.6531 13.4359 78.8086 13.1768C79.2025 13.4256 79.5757 13.6536 80.0008 13.9232C79.8349 14.1512 79.7105 14.3482 79.5343 14.597Z" fill="#262627"/>
<path d="M56.6133 99.6146C56.9761 99.5835 57.3182 99.5524 57.65 99.5316C57.7329 99.5213 57.8055 99.542 57.9091 99.5524C57.9402 99.8012 57.9713 100.029 58.0128 100.299C57.5256 100.34 57.0798 100.382 56.6133 100.423C56.6133 100.143 56.6133 99.9048 56.6133 99.6146Z" fill="#242324"/>
<path d="M60.9684 99.9049C60.5019 99.9671 60.0665 100.04 59.6104 100.102C59.5585 99.8324 59.5171 99.625 59.4756 99.4281C60.3153 98.9305 60.8233 99.0652 60.9684 99.9049Z" fill="#252525"/>
<path d="M73.252 10.9996C73.366 10.7093 73.4593 10.4916 73.563 10.2324C73.9984 10.4398 74.413 10.6367 74.8484 10.8441C74.7344 11.0721 74.6307 11.2795 74.5063 11.5386C74.0917 11.3624 73.6977 11.1965 73.252 10.9996Z" fill="#262627"/>
<path d="M82.126 89.5791C82.3126 89.8175 82.4681 90.0145 82.634 90.2322C82.24 90.5225 81.9083 90.7713 81.5351 91.0408C81.3796 90.8542 81.2345 90.678 81.0479 90.4499C81.4003 90.1596 81.7321 89.8901 82.126 89.5791Z" fill="#262627"/>
<path d="M88.2943 22.4652C88.0869 22.2267 87.9314 22.0609 87.7863 21.8846C87.3509 21.3663 87.3612 21.3248 87.9936 20.9102C88.2735 21.2315 88.5534 21.5529 88.8748 21.9261C88.6882 22.1023 88.5016 22.2682 88.2943 22.4652Z" fill="#262627"/>
<path d="M66.3266 8.26279C65.8601 8.15912 65.4558 8.06582 64.9893 7.95179C65.0411 7.68225 65.0929 7.43345 65.1448 7.13281C65.6113 7.25721 66.0363 7.38161 66.4924 7.50602C66.4406 7.75482 66.3888 7.97252 66.3266 8.26279Z" fill="#252525"/>
<path d="M69.1255 9.19597C68.659 9.04047 68.2651 8.9057 67.8193 8.7502C67.923 8.5014 68.0059 8.27333 68.1096 8.01416C68.5346 8.15929 68.9286 8.2837 69.3743 8.4392C69.2914 8.688 69.2188 8.9057 69.1255 9.19597Z" fill="#262627"/>
<path d="M72.1839 9.56889C72.0387 9.82806 71.9351 10.025 71.8107 10.2531C71.5826 10.1702 71.3649 10.108 71.1575 10.025C70.4837 9.78659 70.463 9.70366 70.9502 9.07129C71.3234 9.22679 71.7174 9.38229 72.1839 9.56889Z" fill="#252525"/>
<path d="M77.0874 13.0004C76.6935 12.7827 76.3307 12.5754 75.916 12.3577C76.0404 12.1193 76.1544 11.9016 76.2581 11.7046C77.3881 12.0882 77.4918 12.2437 77.0874 13.0004Z" fill="#262627"/>
<path d="M40.317 98.0075C40.2548 98.2666 40.203 98.4947 40.1512 98.7642C39.7054 98.6502 39.3011 98.5362 38.8242 98.4118C38.8968 98.163 38.959 97.9245 39.0419 97.6343C39.4773 97.769 39.8816 97.8831 40.317 98.0075Z" fill="#262627"/>
<path d="M21.864 88.8948C21.4908 88.5838 21.1798 88.3143 20.8066 87.9929C21.0451 87.7752 21.2213 87.6093 21.4079 87.4331C21.7189 87.713 21.9885 87.9618 22.3306 88.2624C22.1854 88.4387 22.0403 88.6357 21.864 88.8948Z" fill="#252525"/>
<path d="M20.1638 86.231C19.9772 86.4487 19.8217 86.6353 19.6143 86.8738C19.2722 86.542 18.9612 86.2414 18.6191 85.9097C18.8887 85.692 19.0753 85.5365 19.2826 85.3706C19.5418 85.6401 19.8424 85.9304 20.1638 86.231Z" fill="#262627"/>
<path d="M90.3047 81.1821C90.5328 81.3273 90.7297 81.4517 90.9785 81.6175C90.6883 82.0115 90.4187 82.3639 90.1388 82.7371C89.9004 82.5713 89.7242 82.4365 89.4961 82.2706C89.7656 81.8871 90.0248 81.545 90.3047 81.1821Z" fill="#262627"/>
<path d="M15.4467 80.7988C15.6333 81.0373 15.7784 81.2031 15.9132 81.3897C16.3071 81.9288 16.2967 81.991 15.6125 82.3124C15.3534 81.9806 15.0838 81.6385 14.7832 81.2446C15.0216 81.0891 15.2186 80.9543 15.4467 80.7988Z" fill="#262627"/>
<path d="M86.335 20.1636C86.0137 19.8837 85.6923 19.5934 85.3398 19.2824C85.5264 19.1062 85.6716 18.9611 85.9722 18.6812C86.2625 19.0336 86.5424 19.3757 86.8637 19.7489C86.6564 19.9148 86.4802 20.0496 86.335 20.1636Z" fill="#262627"/>
<path d="M62.3984 98.8163C62.8649 98.723 63.2485 98.6401 63.6943 98.5571C63.7565 98.7852 63.8187 99.0133 63.9016 99.3139C63.4455 99.4176 63.0308 99.5005 62.5539 99.6042C62.4917 99.3243 62.4503 99.0962 62.3984 98.8163Z" fill="#252525"/>
<path d="M48.7036 5.79541C48.7036 6.08568 48.7036 6.29301 48.7036 6.55218C48.2786 6.60402 47.8432 6.65585 47.3767 6.70768C47.3559 6.43815 47.3352 6.19971 47.3145 5.91981C47.7706 5.87834 48.206 5.83688 48.7036 5.79541Z" fill="#262627"/>
<path d="M84.707 17.6445C84.5204 17.8518 84.3649 18.0384 84.1679 18.2561C83.8154 17.9451 83.4941 17.6652 83.1416 17.3438C83.3075 17.1469 83.4526 16.9603 83.6288 16.7529C83.9917 17.0536 84.3441 17.3438 84.707 17.6445Z" fill="#262627"/>
<path d="M76.124 93.6535C76.5283 93.415 76.8808 93.2181 77.2229 93.0107C77.7931 93.498 77.7827 93.612 77.1918 93.9645C76.9845 94.0889 76.7668 94.1926 76.518 94.3273C76.3832 94.0993 76.2588 93.8919 76.124 93.6535Z" fill="#262627"/>
<path d="M97.5099 69.7372C97.261 69.6542 97.0433 69.592 96.7842 69.5091C96.9189 69.0841 97.0434 68.6694 97.1885 68.2236C97.458 68.2858 97.6861 68.348 97.9453 68.4102C97.8001 68.856 97.6654 69.2707 97.5099 69.7372Z" fill="#262627"/>
<path d="M98.4853 66.9072C98.2157 66.8346 97.9981 66.7724 97.7285 66.6999C97.8425 66.2645 97.9566 65.8498 98.081 65.3833C98.3298 65.4455 98.5579 65.5077 98.8274 65.5803C98.7134 66.026 98.5993 66.4407 98.4853 66.9072Z" fill="#262627"/>
<path d="M63.3929 7.49532C62.9679 7.41239 62.5636 7.32945 62.1074 7.24652C62.1593 6.97698 62.2007 6.75928 62.2422 6.48975C62.6983 6.58305 63.1337 6.67635 63.6106 6.76965C63.538 7.00808 63.4758 7.22578 63.3929 7.49532Z" fill="#252525"/>
<path d="M26.5808 92.5234C26.1868 92.2642 25.8344 92.0154 25.4404 91.7459C25.5856 91.5282 25.6996 91.3416 25.8655 91.0928C26.249 91.3416 26.6222 91.5904 27.0162 91.8496C26.8607 92.0984 26.7363 92.285 26.5808 92.5234Z" fill="#262627"/>
<path d="M29.2664 12.855C28.8725 13.083 28.52 13.28 28.1261 13.5081C27.9809 13.3215 27.8565 13.1452 27.6699 12.8964C28.0742 12.6373 28.4578 12.3988 28.8725 12.1396C28.9969 12.3885 29.1109 12.5958 29.2664 12.855Z" fill="#262627"/>
<path d="M75.0761 95.0947C74.6511 95.3124 74.2675 95.499 73.8425 95.7167C73.7388 95.499 73.6351 95.2917 73.5107 95.0429C73.9358 94.8356 74.3297 94.6386 74.7859 94.4209C74.8895 94.649 74.9725 94.8459 75.0761 95.0947Z" fill="#262627"/>
<path d="M41.7158 99.2204C41.7677 98.9301 41.8091 98.7124 41.8506 98.4429C42.3067 98.5362 42.7421 98.6295 43.1983 98.7331C43.1464 98.9923 43.105 99.21 43.0531 99.5003C42.6074 99.407 42.172 99.3137 41.7158 99.2204Z" fill="#262627"/>
<path d="M12.9274 77.0664C12.6889 77.1908 12.5023 77.2841 12.2432 77.4189C12.0255 77.025 11.8078 76.6414 11.5693 76.2164C11.8285 76.0816 12.0358 75.9675 12.2535 75.8535C12.4816 76.2578 12.6889 76.6414 12.9274 77.0664Z" fill="#262627"/>
<path d="M12.7419 29.3696C12.5346 29.7428 12.3272 30.116 12.0888 30.5306C11.8504 30.3751 11.6534 30.2507 11.4668 30.116C11.9333 28.903 12.0681 28.8201 12.7419 29.3696Z" fill="#262627"/>
<path d="M13.7372 78.3213C14.0067 78.7256 14.1933 79.0262 14.3903 79.3165C14.411 79.358 14.4214 79.4098 14.4421 79.472C14.2659 79.6068 14.0897 79.7415 13.8409 79.9281C13.6232 79.6171 13.364 79.3372 13.2292 79.0055C13.0323 78.539 13.5713 78.6219 13.7372 78.3213Z" fill="#262627"/>
<path d="M80.1989 92.0261C79.8257 92.2749 79.4732 92.5029 79.1 92.7517C78.9445 92.534 78.8201 92.3682 78.7061 92.1919C79.2762 91.3937 79.7946 91.3108 80.1989 92.0261Z" fill="#262627"/>
<path d="M94.2655 76.6312C94.0167 77.0458 93.799 77.4087 93.5502 77.8233C93.3221 77.6782 93.1148 77.5642 92.8867 77.419C93.1148 77.0251 93.3325 76.6726 93.5606 76.2891C93.799 76.4031 94.0063 76.4964 94.2655 76.6312Z" fill="#252525"/>
<path d="M72.0607 95.7476C72.1747 95.9653 72.268 96.1622 72.3717 96.3488C71.5942 97.0641 71.0759 97.033 70.8789 96.2555C71.0655 96.1726 71.2625 96.0689 71.4698 95.986C71.6564 95.9031 71.8534 95.8305 72.0607 95.7476Z" fill="#242324"/>
<path d="M69.3335 96.8257C69.4371 97.0745 69.5201 97.2818 69.6237 97.5203C69.178 97.6965 68.7737 97.852 68.3279 98.0282C68.245 97.7794 68.1724 97.5514 68.0791 97.2818C68.4938 97.1263 68.8877 96.9812 69.3335 96.8257Z" fill="#262627"/>
<path d="M60.6455 6.9669C60.1065 6.88397 59.6814 6.82177 59.1631 6.7492C59.2564 6.47966 59.3186 6.07536 59.4015 6.07536C59.7747 6.05463 60.179 6.09609 60.5315 6.23086C60.6352 6.26196 60.6041 6.66626 60.6455 6.9669Z" fill="#252525"/>
<path d="M44.3604 6.36576C44.8476 6.28283 45.2623 6.21026 45.7288 6.1377C45.7599 6.39686 45.791 6.6353 45.8221 6.90483C45.3763 6.98777 44.9513 7.06034 44.4744 7.14327C44.4329 6.86337 44.4018 6.6353 44.3604 6.36576Z" fill="#252525"/>
<path d="M94.1002 29.2659C93.8411 29.3903 93.6441 29.494 93.4057 29.6184C93.188 29.2244 92.9806 28.8512 92.7422 28.4262C92.9806 28.3018 93.1776 28.1981 93.416 28.0737C93.6337 28.4677 93.8514 28.8409 94.1002 29.2659Z" fill="#262627"/>
<path d="M17.0544 23.2321C16.8471 23.0455 16.6708 22.89 16.4531 22.6931C16.7849 22.3406 17.0751 22.0296 17.3861 21.6875C17.5727 21.8637 17.7282 22.0089 17.9148 22.1851C17.6453 22.5168 17.3758 22.8382 17.0544 23.2321Z" fill="#262627"/>
<path d="M90.7623 24.2168C90.5549 24.393 90.3787 24.5485 90.1714 24.7247C89.9018 24.393 89.6323 24.0716 89.3213 23.6881C89.4975 23.5015 89.653 23.3252 89.8604 23.0972C90.2128 23.5326 90.4824 23.8643 90.7623 24.2168Z" fill="#262627"/>
<path d="M84.3749 87.6924C84.5718 87.9101 84.717 88.076 84.8932 88.2626C84.7066 88.4284 84.5407 88.5839 84.3852 88.7291C83.8669 89.2267 83.8358 89.2163 83.4004 88.5425C83.701 88.2833 84.012 88.0138 84.3749 87.6924Z" fill="#252525"/>
<path d="M14.6797 25.0151C14.9285 24.6937 15.1773 24.362 15.4572 23.9888C15.6749 24.1443 15.8511 24.279 16.0585 24.4242C15.9133 24.6419 15.7993 24.8596 15.6542 25.0462C15.2499 25.606 15.1358 25.606 14.6797 25.0151Z" fill="#242324"/>
<path d="M10.2214 71.8006C9.96223 71.9251 9.75489 72.008 9.50609 72.122C9.31949 71.7073 9.14326 71.2927 8.94629 70.8365C9.18472 70.7432 9.40242 70.6603 9.65123 70.5566C9.83783 70.9609 10.0141 71.3549 10.2214 71.8006Z" fill="#262627"/>
<path d="M33.2256 96.2454C33.3293 95.9862 33.4122 95.7996 33.5159 95.5508C33.9202 95.7166 34.3141 95.8722 34.7599 96.0588C34.6769 96.2972 34.594 96.5356 34.4903 96.8155C34.0446 96.6082 33.6403 96.4216 33.2256 96.2454Z" fill="#252525"/>
<path d="M21.1279 18.9195C20.931 18.7225 20.7858 18.567 20.5889 18.37C20.9206 18.059 21.2316 17.7687 21.5841 17.437C21.7914 17.6236 21.9676 17.7895 22.175 17.9864C21.7914 18.3182 21.4804 18.5981 21.1279 18.9195Z" fill="#262627"/>
<path d="M35.9733 9.54787C35.88 9.30943 35.797 9.1021 35.6934 8.84293C36.1184 8.67706 36.5227 8.5112 36.9685 8.33496C37.0618 8.6045 37.1447 8.8222 37.238 9.08137C36.813 9.23687 36.4087 9.382 35.9733 9.54787Z" fill="#262627"/>
<path d="M65.5087 98.8989C65.4258 98.619 65.3636 98.422 65.291 98.194C65.7161 98.0592 66.11 97.9244 66.5454 97.7793C66.6387 98.0385 66.7113 98.2665 66.8149 98.5464C66.3795 98.6605 65.9545 98.7745 65.5087 98.8989Z" fill="#262627"/>
<path d="M91.2598 79.8657C91.55 79.4614 91.7988 79.1193 92.0684 78.7461C92.2861 78.912 92.4623 79.0467 92.68 79.2126C92.4208 79.5858 92.1824 79.9279 91.9129 80.3218C91.6952 80.156 91.4982 80.0212 91.2598 79.8657Z" fill="#232222"/>
<path d="M19.0444 21.014C18.8371 20.8482 18.6816 20.7134 18.4639 20.5372C18.7749 20.1847 19.0651 19.853 19.3761 19.5005C19.5938 19.6975 19.7597 19.853 19.9463 20.0396C19.656 20.3609 19.3658 20.6616 19.0444 21.014Z" fill="#262627"/>
<path d="M46.0916 99.2515C46.0605 99.5211 46.0398 99.718 46.0087 99.9876C45.5422 99.9358 45.1171 99.8839 44.6299 99.8217C44.661 99.5833 44.6921 99.3448 44.7336 99.0649C45.169 99.1168 45.594 99.179 46.0916 99.2515Z" fill="#252525"/>
<path d="M40.058 8.14867C39.7781 8.25234 39.5604 8.33527 39.322 8.40784C38.7 8.59444 38.6378 8.55298 38.5859 7.7962C38.9902 7.68217 39.4049 7.56814 39.8507 7.4541C39.9129 7.69254 39.9751 7.8895 40.058 8.14867Z" fill="#242324"/>
<path d="M96.1519 71.0229C96.8672 71.1266 96.919 71.2096 96.6702 71.8005C96.5769 72.0078 96.494 72.2151 96.38 72.4639C96.2556 72.4328 96.1312 72.4121 96.0068 72.3706C95.9031 72.3395 95.7994 72.2877 95.6543 72.2255C95.8305 71.8108 95.9964 71.4169 96.1519 71.0229Z" fill="#262627"/>
<path d="M42.929 7.4433C42.4728 7.54696 42.0478 7.6299 41.602 7.73356C41.5398 7.49513 41.488 7.27743 41.4258 7.01826C41.8819 6.90422 42.307 6.80056 42.7735 6.68652C42.8149 6.95606 42.8668 7.18413 42.929 7.4433Z" fill="#262627"/>
<path d="M36.2533 96.6909C36.6783 96.8361 37.0723 96.9708 37.5181 97.1263C37.4351 97.3855 37.3729 97.6136 37.29 97.8831C36.8442 97.7276 36.4399 97.5825 35.9941 97.4166C36.0667 97.1989 36.1496 96.9916 36.2533 96.6909Z" fill="#252525"/>
<path d="M53.6378 99.7388C54.125 99.7388 54.5189 99.7388 54.944 99.7388C54.9647 99.9772 54.9854 100.216 55.0165 100.496C54.5397 100.496 54.1043 100.496 53.5859 100.496C53.6067 100.267 53.6274 100.019 53.6378 99.7388Z" fill="#242324"/>
<path d="M7.05957 65.1448C7.32911 65.0723 7.54681 65.0101 7.81634 64.9375C7.94074 65.3625 8.06514 65.7565 8.21028 66.2126C7.97184 66.2955 7.76451 66.3681 7.50534 66.4614C7.34984 66.026 7.21507 65.6217 7.05957 65.1448Z" fill="#262627"/>
<path d="M32.1273 94.856C31.9925 95.1152 31.8785 95.3018 31.7644 95.5298C31.3498 95.3225 30.9766 95.1359 30.5723 94.9286C30.6759 94.6901 30.7692 94.4724 30.8833 94.2236C31.2979 94.431 31.6711 94.6279 32.1273 94.856Z" fill="#262627"/>
<path d="M88.4282 83.4941C88.6666 83.66 88.8429 83.7844 89.0813 83.9503C88.7807 84.3027 88.5111 84.6241 88.2105 84.9766C87.9928 84.8107 87.8166 84.676 87.5781 84.4894C87.8684 84.1576 88.1379 83.8362 88.4282 83.4941Z" fill="#252525"/>
<path d="M30.2715 11.3417C30.6965 11.124 31.0905 10.9271 31.5155 10.7197C31.6192 10.9478 31.7125 11.1344 31.7954 11.3106C30.9868 12.0985 30.6447 12.1296 30.2715 11.3417Z" fill="#242324"/>
<path d="M9.12419 69.0637C8.85465 69.157 8.63695 69.2296 8.36742 69.3229C8.22228 68.8874 8.08752 68.4935 7.94238 68.0788C8.19118 67.9752 8.39852 67.8819 8.62659 67.7886C8.79245 68.2032 8.94795 68.5972 9.12419 69.0637Z" fill="#262627"/>
<path d="M92.5439 26.6949C92.3158 26.8504 92.1396 26.9645 91.9219 27.1096C91.6524 26.7364 91.3932 26.3839 91.1133 26.0003C91.3102 25.8552 91.4969 25.7204 91.7249 25.5649C92.0048 25.9381 92.264 26.301 92.5439 26.6949Z" fill="#262627"/>
<path d="M10.8344 74.8172C10.6063 74.3818 10.3886 73.9775 10.1709 73.5628C10.4093 73.4592 10.6063 73.3659 10.8447 73.2622C11.0521 73.6458 11.249 74.019 11.4667 74.444C11.2698 74.5581 11.0728 74.6721 10.8344 74.8172Z" fill="#262627"/>
<path d="M13.6645 26.4458C14.442 26.7879 14.442 26.8916 13.6749 27.8349C13.4676 27.752 13.2499 27.6691 12.9492 27.5447C13.198 27.1507 13.4365 26.7983 13.6645 26.4458Z" fill="#262627"/>
<path d="M33.2671 10.7093C33.153 10.4502 33.0597 10.2428 32.9561 10.0044C33.3915 9.8178 33.7854 9.65193 34.2208 9.46533C34.3141 9.70377 34.397 9.9111 34.5007 10.1703C34.0964 10.3465 33.7128 10.5124 33.2671 10.7093Z" fill="#252525"/>
<path d="M23.3779 16.981C23.181 16.7633 23.0358 16.5974 22.8389 16.3797C23.1913 16.0998 23.5231 15.8303 23.8755 15.54C24.0518 15.7474 24.1865 15.9236 24.3628 16.1309C24.031 16.4212 23.72 16.6804 23.3779 16.981Z" fill="#252525"/>
<path d="M94.3691 74.8898C94.5765 74.4544 94.7527 74.0812 94.9497 73.6665C95.1777 73.7702 95.3954 73.8635 95.6442 73.9775C95.4369 74.4025 95.2503 74.7861 95.043 75.2215C94.8045 75.1075 94.6076 75.0038 94.3691 74.8898Z" fill="#262627"/>
<path d="M82.3856 15.7579C82.2094 15.9652 82.0643 16.1415 81.888 16.3384C81.5459 16.0585 81.2245 15.789 80.8721 15.4987C81.0172 15.3018 81.1416 15.1255 81.3178 14.8975C81.6703 15.1981 82.0124 15.4676 82.3856 15.7579Z" fill="#262627"/>
<path d="M25.1924 14.5656C25.5967 14.2857 25.9284 14.0473 26.3016 13.7881C26.4571 14.0162 26.6023 14.2131 26.7578 14.4516C26.4157 14.69 26.0839 14.9181 25.7107 15.1772C25.5345 14.9803 25.3894 14.804 25.1924 14.5656Z" fill="#262627"/>
<path d="M29.1823 94.12C28.7158 93.8608 28.3529 93.6535 27.959 93.4254C28.0627 93.1973 28.156 93.0004 28.2804 92.7412C28.6225 92.9278 28.9749 93.0729 29.2756 93.2906C29.6799 93.5705 29.1823 93.7675 29.1823 94.12Z" fill="#262627"/>
<path d="M17.5723 84.6138C17.2509 84.2717 16.9606 83.9503 16.6289 83.5979C16.8673 83.432 17.0539 83.2868 17.282 83.1313C17.4479 83.3179 17.6034 83.5045 17.7589 83.6808C18.1943 84.1784 18.1943 84.1991 17.5723 84.6138Z" fill="#262627"/>
<path d="M50.332 5.63965C50.7985 5.63965 51.2236 5.63965 51.6901 5.63965C51.6693 5.88845 51.659 6.10615 51.6486 6.35495C51.2028 6.35495 50.7882 6.35495 50.332 6.35495C50.332 6.13725 50.332 5.91955 50.332 5.63965Z" fill="#242324"/>
<path d="M57.7126 5.82678C57.6608 6.11704 57.6297 6.32438 57.5778 6.57318C57.1424 6.53171 56.7278 6.47988 56.3027 6.43841C56.3027 6.18961 56.3027 5.96154 56.3027 5.68164C56.7796 5.72311 57.2254 5.77494 57.7126 5.82678Z" fill="#232222"/>
<path d="M50.5801 100.496C50.6008 100.205 50.6112 99.9877 50.6319 99.7285C50.9014 99.7285 51.1192 99.7285 51.3472 99.7285C52.0418 99.7389 52.0522 99.7596 51.9381 100.496C51.5131 100.496 51.0777 100.496 50.5801 100.496Z" fill="#232222"/>
<path d="M47.6465 100.267C47.6465 99.9979 47.6465 99.7906 47.6465 99.5833C48.735 99.3552 49.1082 99.5729 48.9423 100.35C48.5173 100.319 48.0923 100.299 47.6465 100.267Z" fill="#252525"/>
<path d="M94.2656 30.9864C94.473 30.8724 94.6596 30.7791 94.8773 30.665C95.095 31.0797 95.3127 31.4633 95.5407 31.8883C94.6388 31.9712 94.6388 31.9712 94.2656 30.9864Z" fill="#262627"/>
<path d="M87.0809 86.2205C86.7285 86.5108 86.4071 86.77 86.0339 87.081C85.9302 86.9877 85.7436 86.8322 85.5674 86.6663C85.8991 86.3553 86.2101 86.0754 86.5626 85.7437C86.6766 85.837 86.8425 85.9925 87.0809 86.2205Z" fill="#232222"/>
<path d="M63.8503 74.4855C63.5289 74.7447 63.3527 74.9416 63.135 75.0246C63.0521 75.0557 62.7722 74.8276 62.7411 74.6928C62.6789 74.3507 62.8966 74.1123 63.2387 74.1123C63.3942 74.1123 63.5393 74.2885 63.8503 74.4855Z" fill="#262627"/>
<path d="M78.1246 70.6912C78.0106 70.9607 77.938 71.2406 77.7722 71.4376C77.6996 71.5309 77.3678 71.5309 77.2642 71.4376C77.1605 71.3546 77.1398 71.0644 77.202 70.9192C77.3575 70.5979 77.6581 70.546 78.1246 70.6912Z" fill="#242324"/>
<path d="M23.2529 89.9009C23.3566 89.7661 23.4395 89.6521 23.5639 89.4966C23.8542 89.7143 24.1341 89.9216 24.4347 90.1497C24.3207 90.3052 24.2274 90.4296 24.1134 90.5851C23.8231 90.3467 23.5432 90.1289 23.2529 89.9009Z" fill="#262627"/>
<path d="M28.0529 56.4783C27.6901 56.9137 27.1406 56.9967 26.6016 56.6857C26.6223 56.6546 26.6534 56.6235 26.6741 56.5924C27.1614 56.8619 27.576 56.6338 28.0011 56.4058C28.0114 56.4265 28.0322 56.4472 28.0529 56.4783Z" fill="#C5C7C5"/>
<path d="M25.835 55.7734C25.8557 55.732 25.8661 55.6801 25.8868 55.6387C26.0112 55.8667 26.146 56.0844 26.2704 56.3125C26.2496 56.3332 26.2185 56.3643 26.1978 56.3851C26.0838 56.1674 25.9594 55.9704 25.835 55.7734Z" fill="#C5C7C5"/>
<path d="M28.4778 55.7217C28.4985 55.7631 28.5192 55.815 28.54 55.8564C28.4467 56.0016 28.3534 56.1363 28.2601 56.2815C28.2393 56.2607 28.2082 56.24 28.1875 56.2193C28.2808 56.043 28.3845 55.8772 28.4778 55.7217Z" fill="#C5C7C5"/>
<path d="M26.4159 56.5614C26.3434 56.4992 26.2708 56.437 26.1982 56.3748C26.219 56.3541 26.2501 56.323 26.2708 56.3022C26.3434 56.3644 26.4159 56.4163 26.4885 56.4785C26.4678 56.4992 26.447 56.5303 26.4159 56.5614Z" fill="#C5C7C5"/>
<path d="M26.6016 56.6755C26.5394 56.634 26.4772 56.5925 26.415 56.5614C26.4358 56.5303 26.4669 56.5096 26.4876 56.4785C26.5498 56.52 26.6016 56.5511 26.6638 56.5925C26.6431 56.6133 26.6224 56.6444 26.6016 56.6755Z" fill="#C5C7C5"/>
<path d="M28.1571 56.3748C28.126 56.4059 28.0949 56.437 28.0534 56.4785C28.0327 56.4577 28.0119 56.437 27.9912 56.4059C28.0223 56.3748 28.0534 56.3333 28.0845 56.3022C28.1156 56.323 28.1363 56.3541 28.1571 56.3748Z" fill="#C5C7C5"/>
<path d="M28.2602 56.2712C28.2291 56.3023 28.198 56.3334 28.1566 56.3749C28.1358 56.3541 28.1151 56.3334 28.084 56.3023C28.1151 56.2712 28.1462 56.2401 28.1773 56.209C28.2084 56.2297 28.2291 56.2505 28.2602 56.2712Z" fill="#C5C7C5"/>
<path d="M52.7148 49.4392C52.7148 46.9926 52.7148 44.4942 52.7252 42.0062C52.7252 41.8715 52.8392 41.7056 52.9429 41.6019C54.6431 39.7981 57.4317 39.6011 59.588 41.1147C62.4492 43.1362 62.8328 47.3036 60.3655 49.6569C58.8105 51.1393 56.6231 51.4192 54.6223 50.3722C54.1558 50.1337 53.7204 49.8331 53.2643 49.5739C53.1295 49.5014 52.9533 49.491 52.7148 49.4392Z" fill="#FCFCFC"/>
<path d="M38.4824 49.4289C38.4824 47.0135 38.4824 44.5462 38.4928 42.0893C38.4928 41.9234 38.6068 41.7161 38.7312 41.5917C40.1722 40.047 42.5669 39.6531 44.5781 40.6483C47.4911 42.0996 48.6833 45.8731 46.9624 48.6203C45.594 50.8077 42.9505 51.5956 40.5661 50.4449C40.0374 50.1857 39.5502 49.854 39.0319 49.5741C38.8867 49.4911 38.7105 49.4808 38.4824 49.4289Z" fill="#FDFDFD"/>
<path d="M81.8569 46.5471C81.888 44.1627 82.8003 42.2034 84.7803 40.835C87.5586 38.9172 91.3632 39.4977 93.5402 42.1827C95.147 44.1731 95.7587 46.4227 95.0848 48.9522C94.4317 51.4091 92.12 53.4514 89.7563 53.7624C86.5427 54.1874 84.0961 52.4872 82.8832 50.3413C82.0953 48.9626 81.8258 47.8533 81.8569 46.5471Z" fill="#FDFDFD"/>
<path d="M28.1869 56.209C28.1558 56.2401 28.1247 56.2712 28.0936 56.3023C28.0625 56.3334 28.0314 56.3748 28.0003 56.4059C27.5857 56.634 27.1606 56.8517 26.6734 56.5822C26.6112 56.5407 26.5594 56.5096 26.4972 56.4681C26.4246 56.4059 26.352 56.3541 26.2795 56.2919C26.1551 56.0638 26.0203 55.8461 25.8959 55.6181C25.6264 54.7991 25.7507 54.032 26.2484 53.3063C26.1447 53.2855 26.0514 53.2648 25.9581 53.2441C25.4501 52.6324 24.9836 52.0001 24.4342 51.4195C23.6256 50.5591 22.7237 49.8023 21.6041 49.3566C21.49 49.3151 21.3967 49.2011 21.3034 49.1181C20.6607 47.2106 20.6607 45.3135 21.5419 43.4786C23.553 39.2904 28.8711 38.3989 32.1159 41.737C34.1271 43.8103 34.8113 46.288 34.0441 49.1181C31.7842 49.6883 30.2914 51.2848 28.8815 52.9849C28.8089 53.0678 28.7675 53.1819 28.7156 53.2752C28.6845 53.3374 28.6431 53.3996 28.612 53.4618V53.4411C28.5705 53.5966 28.4565 53.7728 28.4979 53.8972C28.7156 54.5088 28.7156 55.0997 28.4876 55.701C28.3839 55.8772 28.2802 56.0431 28.1869 56.209ZM29.3895 43.8933C29.348 43.9244 29.2962 43.9658 29.2547 43.9969C29.2754 44.0177 29.2962 44.0384 29.3169 44.0591C29.3584 44.0177 29.3895 43.9762 29.4309 43.9347C29.4413 43.9036 29.4517 43.8725 29.4517 43.8414C29.4309 43.8518 29.4102 43.8725 29.3895 43.8933ZM29.5968 42.6285C29.6072 42.7011 29.6175 42.7737 29.6279 42.8462C29.6486 42.8359 29.6797 42.8255 29.7005 42.8255C29.6694 42.7529 29.6279 42.6907 29.5968 42.6285C29.5346 42.5249 29.4724 42.4108 29.4102 42.2968C28.8193 42.2346 28.2284 42.1517 27.6375 42.1517C27.4924 42.1517 27.3369 42.4212 27.2436 42.5145C27.9796 42.4419 28.6949 42.3694 29.4206 42.2968C29.4828 42.4005 29.545 42.5145 29.5968 42.6285ZM26.5283 42.8151C26.6941 42.7529 26.8704 42.6907 27.1295 42.5974C26.3209 42.245 26.041 42.9292 25.6056 43.2505C25.8129 43.1572 26.0203 43.0536 26.238 42.9603C26.2069 43.0639 26.1343 43.1883 26.1551 43.2816C26.1965 43.489 26.2898 43.6756 26.3624 43.8725C26.5283 43.8103 26.8082 43.7689 26.8289 43.6652C26.8807 43.4682 26.8082 43.2298 26.746 43.0225C26.7252 42.9499 26.6112 42.8877 26.5283 42.8151ZM28.5394 49.2425C28.4254 49.2944 28.3113 49.3877 28.1869 49.398C26.9015 49.5432 25.6264 49.5017 24.4238 48.9834C22.734 48.2473 22.0809 46.8996 22.5371 45.1166C22.5682 44.9922 22.5889 44.8678 22.6096 44.7434C21.8218 45.9563 22.0498 47.4491 23.1591 48.4235C24.7659 49.8334 26.6734 50.1755 28.7156 49.8542C30.3225 49.6054 31.5354 48.776 32.23 47.2625C32.3129 47.0759 32.3336 46.8582 32.3855 46.6508C31.9708 47.418 31.4939 48.1022 30.675 48.4754C30.7994 48.04 30.986 47.6046 31.0274 47.1588C31.0482 46.9411 30.8823 46.5886 30.6957 46.485C30.3951 46.3295 30.1255 46.5264 29.9493 46.8478C29.4931 47.6564 29.0059 48.4443 28.5394 49.2425ZM28.8608 43.1365C28.529 42.867 28.3424 42.6389 28.104 42.5767C28.0107 42.5456 27.7101 42.8566 27.6893 43.0432C27.6479 43.3749 27.9174 43.603 28.2491 43.5719C28.4046 43.5512 28.5601 43.3542 28.8608 43.1365ZM27.5857 54.0423C27.6168 54.4466 27.6479 54.8613 27.679 55.2863C28.0211 54.7473 27.99 54.5088 27.5857 54.0423ZM26.5801 54.0838C26.2484 54.5814 26.3002 54.9442 26.5801 55.4004C26.5801 54.9339 26.5801 54.5814 26.5801 54.0838ZM29.6072 43.5512C29.659 43.5615 29.7005 43.5615 29.7523 43.5719C29.7627 43.4268 29.7834 43.2713 29.7938 43.1261C29.7627 43.1261 29.7419 43.1158 29.7108 43.1158C29.6797 43.2609 29.6383 43.406 29.6072 43.5512Z" fill="#FCFCFC"/>
<path d="M20.1016 55.4002C21.2108 55.3276 22.32 55.2654 23.4293 55.1929C22.3408 55.6697 21.2315 55.7112 20.1016 55.4002Z" fill="#C5C7C5"/>
<path d="M35.5164 55.307C35.4853 55.3174 35.4542 55.3277 35.4231 55.3381C33.9406 55.9601 32.4685 55.8046 31.0068 55.2344C31.1001 55.2033 31.1934 55.1722 31.2867 55.1411C32.5722 55.5765 33.8681 55.5247 35.1846 55.3277C35.2883 55.307 35.4023 55.3174 35.5164 55.307Z" fill="#C5C7C5"/>
<path d="M31.2774 55.141C31.1841 55.1721 31.0908 55.2032 30.9975 55.2343C30.7279 55.1203 30.4688 55.0166 30.1992 54.9026C30.22 54.8507 30.2407 54.7989 30.2614 54.7471C30.6035 54.8818 30.9353 55.0166 31.2774 55.141Z" fill="#ED4950"/>
<path d="M35.7154 54.7573C35.6739 54.8817 35.6221 55.0061 35.5806 55.1305C35.508 55.0994 35.394 55.0787 35.3836 55.0269C35.2489 54.6537 35.5599 54.7988 35.7154 54.7573Z" fill="#E72930"/>
<path d="M35.9114 55.7421C35.8907 55.711 35.8596 55.6695 35.8389 55.6384C35.8492 55.628 35.8596 55.6177 35.8803 55.6177C35.8907 55.6591 35.9011 55.7006 35.9114 55.7421Z" fill="#E0242A"/>
<path d="M60.9566 61.019C60.9566 61.5166 60.9773 61.9417 60.9566 62.3667C60.9359 62.771 60.1687 63.3308 59.6297 63.3619C59.1113 63.393 58.8003 63.1753 58.707 62.7503C58.5826 62.1387 58.8729 61.5996 59.4845 61.413C59.951 61.2575 60.4279 61.1538 60.9566 61.019Z" fill="#FCFCFC"/>
<path d="M65.6523 73.4386C66.1292 72.1013 66.6061 70.7743 67.0829 69.437C67.3421 70.1627 66.3262 73.0135 65.6523 73.4386Z" fill="#FCFCFC"/>
<path d="M70.3183 60.9361C69.5097 60.9361 68.7426 60.9464 67.9755 60.9257C67.8822 60.9257 67.7163 60.7806 67.7059 60.6873C67.6126 59.7957 68.2865 59.0597 69.1469 59.0908C69.8 59.1115 70.2147 59.5158 70.3183 60.2519C70.3391 60.4592 70.3183 60.6769 70.3183 60.9361Z" fill="#FCFCFC"/>
<path d="M87.2482 72.391C87.2171 72.3495 87.1756 72.3081 87.1445 72.2666C87.1756 72.3081 87.2067 72.3495 87.2482 72.391Z" fill="#FDFDFD"/>
<path d="M66.8867 76.5174C67.0837 75.968 67.2703 75.3978 67.8612 74.9624C67.8819 75.7917 67.4465 76.1857 66.8867 76.5174Z" fill="#FCFCFC"/>
<path d="M30.6763 48.4752C31.4849 48.0916 31.9721 47.4178 32.3868 46.6506C32.335 46.858 32.3142 47.0757 32.2313 47.2623C31.5471 48.7758 30.3238 49.6052 28.717 49.854C26.6644 50.1753 24.7569 49.8332 23.1604 48.4234C22.0512 47.4489 21.8231 45.9664 22.611 44.7432C22.5902 44.8676 22.5695 44.992 22.5384 45.1164C22.0823 46.8994 22.7354 48.2471 24.4251 48.9832C25.638 49.5119 26.9028 49.5533 28.1883 49.3978C28.3127 49.3875 28.4267 49.2942 28.5407 49.2423C28.9554 49.149 29.3701 49.0454 29.7951 48.9521C29.8677 48.9106 29.9402 48.8588 30.0128 48.8173C30.2305 48.7033 30.4586 48.5892 30.6763 48.4752Z" fill="#262627"/>
<path d="M30.6762 48.4753C30.4481 48.5893 30.2304 48.7034 30.0024 48.807C30.0646 48.6515 30.1268 48.496 30.189 48.3405C30.2097 48.2991 30.2408 48.268 30.2615 48.2265C30.2615 48.2265 30.2408 48.2058 30.2201 48.2058C30.2097 48.2472 30.1993 48.2991 30.1786 48.3405C30.0438 48.5375 29.9091 48.7448 29.7847 48.9418C29.37 49.0351 28.9553 49.1388 28.5303 49.2321C29.0071 48.4338 29.4944 47.6459 29.9505 46.8477C30.1268 46.5263 30.3963 46.3294 30.6969 46.4849C30.8835 46.5782 31.0598 46.941 31.0287 47.1587C30.9872 47.6148 30.811 48.0399 30.6762 48.4753ZM30.2823 47.9362C30.3134 47.9569 30.3445 47.9673 30.3859 47.988C30.417 47.8429 30.4481 47.7081 30.4896 47.563C30.4689 47.5526 30.4378 47.5526 30.417 47.5423C30.3652 47.6874 30.3237 47.8118 30.2823 47.9362Z" fill="#E0242A"/>
<path d="M28.8621 43.1361C28.5614 43.3538 28.4059 43.5508 28.2401 43.5611C27.9083 43.5922 27.6492 43.3642 27.6803 43.0324C27.701 42.8562 28.0016 42.5452 28.0949 42.5659C28.3334 42.6385 28.5303 42.8666 28.8621 43.1361Z" fill="#17A159"/>
<path d="M26.5296 42.8149C26.6125 42.8875 26.7266 42.9393 26.7577 43.0326C26.8199 43.24 26.8924 43.4784 26.8406 43.6754C26.8095 43.7791 26.5296 43.8205 26.3741 43.8827C26.3015 43.6857 26.2082 43.4888 26.1668 43.2918C26.146 43.1985 26.2186 43.0741 26.2497 42.9704C26.343 42.9186 26.4363 42.8668 26.5296 42.8149Z" fill="#4EB46B"/>
<path d="M29.4221 42.2965C28.7068 42.3691 27.9812 42.4416 27.2451 42.5142C27.3384 42.4209 27.4836 42.1514 27.6391 42.1514C28.23 42.1514 28.8312 42.2343 29.4221 42.2965Z" fill="#262627"/>
<path d="M26.5301 42.8151C26.4368 42.8669 26.3331 42.9084 26.2398 42.9602C26.0325 43.0535 25.8251 43.1572 25.6074 43.2505C26.0325 42.9395 26.3227 42.2553 27.1313 42.5974C26.8722 42.701 26.7063 42.7632 26.5301 42.8151Z" fill="#262627"/>
<path d="M27.5869 54.042C27.9912 54.5085 28.0119 54.7469 27.6802 55.286C27.6491 54.861 27.618 54.4567 27.5869 54.042Z" fill="#C5C7C5"/>
<path d="M26.5813 54.0835C26.5813 54.5811 26.5813 54.9439 26.5813 55.4001C26.3014 54.9439 26.2496 54.5811 26.5813 54.0835Z" fill="#C5C7C5"/>
<path d="M29.6084 43.5511C29.6395 43.406 29.681 43.2609 29.7121 43.1157C29.7432 43.1157 29.7639 43.1261 29.795 43.1261C29.7846 43.2712 29.7639 43.4267 29.7535 43.5719C29.7017 43.5615 29.6602 43.5615 29.6084 43.5511Z" fill="#C5C7C5"/>
<path d="M29.4219 42.2969C29.4737 42.4109 29.5359 42.5249 29.5981 42.6286C29.5463 42.5146 29.4841 42.4005 29.4219 42.2969Z" fill="#C5C7C5"/>
<path d="M29.4214 43.9345C29.3799 43.976 29.3488 44.0175 29.3073 44.0589C29.2866 44.0382 29.2659 44.0175 29.2451 43.9967C29.2866 43.9656 29.3384 43.9242 29.3799 43.8931C29.4006 43.9034 29.411 43.9138 29.4214 43.9345Z" fill="#C5C7C5"/>
<path d="M29.5967 42.6284C29.6278 42.6906 29.6692 42.7528 29.7003 42.815C29.6796 42.8254 29.6485 42.8358 29.6278 42.8358C29.6174 42.7736 29.607 42.701 29.5967 42.6284Z" fill="#C5C7C5"/>
<path d="M29.3906 43.8931C29.4114 43.8724 29.4321 43.8517 29.4528 43.8413C29.4425 43.8724 29.4321 43.9035 29.4321 43.9346C29.4114 43.9139 29.401 43.9035 29.3906 43.8931Z" fill="#C5C7C5"/>
<path d="M29.7842 48.9519C29.9189 48.7549 30.0537 48.5476 30.1781 48.3506H30.1885C30.1263 48.5061 30.0641 48.6616 30.0019 48.8171C29.9293 48.8586 29.8567 48.9 29.7842 48.9519Z" fill="#ED4950"/>
<path d="M30.2812 47.9363C30.3227 47.8119 30.3642 47.6771 30.4057 47.5527C30.4264 47.5631 30.4575 47.5631 30.4782 47.5735C30.4471 47.7186 30.416 47.8534 30.3745 47.9985C30.3538 47.9778 30.3124 47.957 30.2812 47.9363Z" fill="#ED4950"/>
<path d="M30.1885 48.3403C30.1988 48.2989 30.2092 48.247 30.2299 48.2056C30.2403 48.2159 30.2714 48.2263 30.2714 48.2263C30.2403 48.2678 30.2196 48.3092 30.1885 48.3403Z" fill="#ED4950"/>
</g>
<defs>
<clipPath id="clip0_811_6022">
<rect width="106" height="106" fill="white"/>
</clipPath>
</defs>
</svg>
