<svg width="168" height="10" viewBox="0 0 168 10" fill="none" xmlns="http://www.w3.org/2000/svg">
<path fill-rule="evenodd" clip-rule="evenodd" d="M72.3483 9.56377H63.7217V0.14502H72.3483V9.56377Z" fill="white"/>
<path fill-rule="evenodd" clip-rule="evenodd" d="M63.7217 0.14502H72.3483V2.261H63.7217V0.14502ZM63.7217 7.44586H72.3483V9.56377H63.7217V7.44586Z" fill="#142353"/>
<path fill-rule="evenodd" clip-rule="evenodd" d="M72.3467 9.56377H80.9732V0.14502H72.3467V9.56377Z" fill="#CC051C"/>
<path fill-rule="evenodd" clip-rule="evenodd" d="M80.9732 0.14502H72.3467V2.261H80.9732V0.14502ZM80.9732 7.44586H72.3467V9.56377H80.9732V7.44586Z" fill="#142353"/>
<path fill-rule="evenodd" clip-rule="evenodd" d="M2.8669 9.83305V1.31035H0V0.167841H6.88906V1.31035H4.02216V9.83305H2.8669ZM14.4442 2.04061C14.7214 1.73876 15.0498 1.50092 15.4105 1.34086C15.7711 1.1808 16.1567 1.10171 16.5451 1.10815C17.1183 1.10815 17.634 1.2701 18.0948 1.59303C18.5557 1.91596 18.9051 2.37041 19.1439 2.95737C19.3837 3.54433 19.5022 4.23043 19.5022 5.01762C19.5022 6.26025 19.2227 7.22118 18.6636 7.89746C18.1046 8.57374 17.3916 8.91236 16.5265 8.91236C15.6773 8.91236 14.9705 8.57668 14.4079 7.90727C13.8445 7.23688 13.5632 6.32111 13.5632 5.15602C13.5632 3.7004 13.8568 2.66193 14.4442 2.04061ZM12.8741 7.54214C13.1937 8.28758 13.7029 8.91298 14.3389 9.3413C14.9829 9.78005 15.7145 9.99991 16.5327 9.99991C17.2708 10.0049 17.9978 9.79977 18.6442 9.40412C19.2961 9.00757 19.8012 8.4216 20.1568 7.64815C20.5124 6.8747 20.6902 5.9972 20.6902 5.01762C20.6902 4.05081 20.5212 3.18607 20.1833 2.42341C19.8618 1.68029 19.349 1.05964 18.7096 0.639956C18.0656 0.213968 17.3421 0.000980999 16.5389 0.000980999C15.3129 0.000980999 14.3124 0.454452 13.5375 1.36336C12.7626 2.2703 12.3761 3.52568 12.3761 5.12952C12.3761 5.97855 12.5415 6.78145 12.8741 7.54214ZM27.0184 9.83305V0.16686H28.7433L30.807 7.00818C30.9972 7.6452 31.1352 8.12222 31.2228 8.43828C31.3236 8.08689 31.4784 7.5706 31.6899 6.88942L33.7934 0.16686H35.3316V9.83305H34.2233V1.7491L31.6784 9.83305H30.6399L28.1259 1.60874V9.83305H27.0184ZM42.0146 9.83305V0.16686H43.7404L45.8032 7.00818C45.9934 7.6452 46.1323 8.12222 46.2199 8.43828C46.3198 8.08689 46.4755 7.5706 46.6878 6.88942L48.7913 0.16686H50.3296V9.83305H49.2212V1.7491L46.6763 9.83305H45.6369L43.123 1.60874V9.83305H42.0146ZM59.4982 9.83305V5.73807L56.1412 0.16686H57.5282L59.2452 3.09479C59.561 3.6247 59.8593 4.16719 60.1395 4.7212C60.4075 4.21571 60.726 3.64543 61.0948 3.01037L62.7817 0.16686H64.1236L60.6552 5.73807V9.83305H59.4982ZM87.51 9.83305V0.167841H88.6652V4.14012H93.1783V0.167841H94.3362V9.83305H93.1783V5.28264H88.6652V9.83305H87.51ZM100.099 9.83305V0.167841H101.255V9.83305H100.099ZM106.875 9.83305V0.167841H108.031V8.69152H112.323V9.83305H106.875ZM117.383 9.83305V0.167841H123.274V1.31035H118.539V4.29816H122.641V5.43969H118.539V9.83305H117.383ZM128.62 9.83305V0.167841H129.776V9.83305H128.62ZM139.511 6.04627V4.90474H143.202V8.49128C142.676 8.96786 142.085 9.34915 141.451 9.62104C140.86 9.87195 140.232 10.0004 139.599 9.99991C138.745 9.99991 137.97 9.79673 137.272 9.39135C136.589 9.00278 136.036 8.3847 135.689 7.62557C135.335 6.85703 135.155 5.99622 135.155 5.04609C135.155 4.10577 135.333 3.22729 135.687 2.41065C136.042 1.59401 136.552 0.989387 137.215 0.592846C137.879 0.197286 138.645 0 139.511 0C140.14 0 140.709 0.11287 141.217 0.339606C141.726 0.565359 142.124 0.881419 142.415 1.28581C142.703 1.69021 142.922 2.21827 143.073 2.86805L142.036 3.18411C141.905 2.69137 141.744 2.30367 141.549 2.02099C141.355 1.73928 141.079 1.51353 140.719 1.3447C140.339 1.17108 139.931 1.0846 139.52 1.09048C138.993 1.09048 138.537 1.17981 138.155 1.35746C137.77 1.5361 137.461 1.77069 137.227 2.06221C136.995 2.34427 136.809 2.66869 136.676 3.02117C136.452 3.64087 136.339 4.30354 136.345 4.97149C136.345 5.83524 136.477 6.55765 136.745 7.13971C137.013 7.72176 137.4 8.15265 137.911 8.43534C138.416 8.71587 138.973 8.86078 139.537 8.85838C140.034 8.85838 140.522 8.7514 140.997 8.53742C141.472 8.32345 141.831 8.09671 142.077 7.85231V6.04627H139.511ZM148.599 9.83305V0.167841H154.869V1.31035H149.755V4.26282H154.537V5.40533H149.755V8.69152H155.076V9.83305H148.599ZM161.484 1.24066H164.241C164.887 1.24066 165.361 1.38691 165.66 1.68235C165.959 1.97682 166.11 2.35373 166.11 2.81014C166.11 3.12227 166.032 3.41084 165.878 3.67684C165.717 3.94882 165.478 4.15331 165.2 4.25791C164.901 4.37864 164.49 4.43949 163.964 4.43949H161.484V1.24066ZM161.484 9.83305V5.54569H162.822C163.119 5.54569 163.333 5.56041 163.463 5.59182C163.643 5.63992 163.819 5.72531 163.99 5.84899C164.163 5.97168 164.358 6.18762 164.576 6.49484C164.793 6.80206 165.07 7.24473 165.408 7.82384L166.559 9.83305H168L166.492 7.20449C166.224 6.73347 165.904 6.30207 165.538 5.92064C165.379 5.76163 165.148 5.60163 164.844 5.4387C165.68 5.31208 166.297 5.01272 166.698 4.54158C167.099 4.07044 167.298 3.49231 167.298 2.80621C167.298 2.27324 167.176 1.78738 166.937 1.34765C166.716 0.928764 166.374 0.604496 165.967 0.426967C165.563 0.254216 164.972 0.16686 164.196 0.16686H160.33V9.83305H161.484Z" fill="#142353"/>
</svg>
