<svg width="192" height="32" viewBox="0 0 192 32" fill="none" xmlns="http://www.w3.org/2000/svg">
<path d="M36.445 14.2853C37.148 14.4118 37.8931 14.4259 38.5539 14.6649C40.3254 15.3257 40.9721 16.5348 41.0143 18.5593C41.0846 21.6945 41.0564 24.8437 41.0283 27.9789C41.0143 30.4955 39.5521 31.8733 37.0074 31.8733C25.2961 31.8733 13.5847 31.8874 1.85933 31.8874C1.43756 31.8874 1.02984 31.8874 0.565882 31.8874C0.917362 30.0878 1.95774 29.0334 3.57455 28.5553C4.12286 28.3866 4.69929 28.2882 5.26166 28.2882C12.7552 28.2742 20.2629 28.2742 27.7564 28.2742C29.331 28.2742 29.7809 27.7962 29.7809 26.2075C29.7809 25.8279 29.795 25.4623 29.7809 25.0827C29.7388 24.1127 29.3451 23.6346 28.3891 23.4519C28.0517 23.3816 27.7002 23.3535 27.3487 23.3535C19.9395 23.3535 12.5443 23.3535 5.13513 23.3535C3.8698 23.3535 2.63259 23.2972 1.56409 22.4959C0.678357 21.8351 0.0456925 20.9775 0.0316333 19.8668C-0.0105444 16.2395 -0.0105444 12.6123 0.0316333 8.98502C0.0456925 7.97276 1.18449 6.66526 2.19675 6.38408C2.81536 6.21537 3.46208 6.08883 4.08069 5.94824C4.33375 5.99042 4.57276 6.06072 4.82583 6.06072C14.9625 6.06072 25.0992 6.06072 35.2359 6.06072C35.489 6.06072 35.728 5.99042 35.9811 5.9623C37.0496 6.18725 38.1602 6.41219 38.7226 7.49475C39.0038 8.04305 39.1303 8.68978 39.3834 9.43491C38.9616 9.43491 38.7367 9.43491 38.5117 9.43491C30.1324 9.43491 21.7531 9.43491 13.3738 9.43491C13.1208 9.43491 12.8536 9.40679 12.6006 9.46303C11.504 9.70203 11.1806 10.0535 11.2087 11.0236C11.2228 11.6281 11.2087 12.2467 11.2087 12.8513C11.2228 13.737 11.4337 13.9901 12.3475 14.2431C12.699 14.2853 13.0364 14.3556 13.3879 14.3556C20.8393 14.3556 28.2766 14.3556 35.728 14.3556C35.9811 14.3275 36.206 14.2994 36.445 14.2853Z" fill="#1C3D6B"/>
<path d="M168.854 4.87988C171.919 4.87988 174.998 4.87988 178.063 4.87988C179.75 4.87988 181.17 5.38601 181.789 7.10123C182.056 7.84636 182.182 8.67585 182.196 9.47722C182.225 15.6211 182.211 21.7509 182.225 27.8947C182.225 28.5414 182.211 29.2303 182.393 29.8489C182.618 30.5659 183.054 31.2267 183.392 31.9016C180.495 31.9016 177.487 31.9016 174.478 31.9016C174.042 31.9016 173.62 31.9437 173.185 31.9297C172.243 31.8875 171.497 31.4798 171.062 30.5941C170.668 30.8893 170.373 31.2127 170.007 31.3673C169.431 31.6063 168.798 31.8734 168.193 31.8875C163.104 31.9297 158.029 31.9156 152.939 31.9016C151.252 31.9016 150.099 30.7206 149.523 29.385C149.298 28.8648 149.228 28.2321 149.228 27.6557C149.199 24.5908 149.199 21.5119 149.242 18.447C149.27 16.2818 151.041 14.3557 153.459 14.3698C158.971 14.3979 164.468 14.3698 169.979 14.3979C170.682 14.3979 170.893 14.2152 170.893 13.4981C170.879 11.9797 171.048 10.4754 170.991 8.95703C170.949 7.93072 170.991 6.80598 170.176 5.99055C169.81 5.62502 169.332 5.37195 168.896 5.06265C168.882 4.99235 168.868 4.93612 168.854 4.87988ZM170.991 22.6928C171.005 22.6928 171.005 22.6928 170.991 22.6928C171.005 21.8493 171.019 21.0057 171.005 20.1622C170.963 18.5173 169.979 17.4769 168.334 17.4488C166.605 17.4066 164.876 17.4066 163.132 17.4488C161.67 17.4769 160.517 18.4329 160.433 19.881C160.32 21.7649 160.362 23.6629 160.447 25.5468C160.503 26.6575 161.417 27.6276 162.542 27.6698C164.693 27.7682 166.844 27.7682 168.995 27.6698C170.176 27.6135 170.963 26.6013 171.005 25.4203C171.019 24.5205 170.991 23.6067 170.991 22.6928Z" fill="#1C3D6B"/>
<path d="M61.3851 31.8736C57.0971 31.8736 52.809 31.9157 48.5209 31.8454C46.7495 31.8173 44.9499 30.3833 44.9077 28.415C44.8234 24.7456 44.8374 21.0621 44.9077 17.3786C44.9218 16.3101 45.8356 14.8901 47.1291 14.637C47.7899 14.5105 48.4647 14.3559 49.1255 14.3559C57.3501 14.3418 65.5748 14.3277 73.7994 14.3699C74.6149 14.3699 75.4725 14.6792 76.2457 15.0026C77.3986 15.4946 77.8204 16.5913 78.0453 17.73C78.1718 18.3346 78.1859 18.9813 78.1859 19.5999C78.2 22.1727 78.1859 24.7596 78.1859 27.3325C78.1859 29.6241 77.0049 31.2128 74.7976 31.8314C74.4321 31.9298 74.0103 31.8876 73.6167 31.8876C69.5395 31.8876 65.4623 31.8876 61.3851 31.8876V31.8736ZM61.5538 17.3926C60.5978 17.3926 59.6418 17.3926 58.6717 17.3926C57.083 17.3926 56.0004 18.4049 55.9723 19.9795C55.9442 21.7088 55.9442 23.4381 55.9723 25.1673C56.0004 26.6576 57.2095 27.8245 58.6858 27.8245C60.654 27.8386 62.6223 27.8386 64.5766 27.8245C66.095 27.8245 66.9245 27.0231 66.9526 25.4907C66.9807 23.5787 66.9807 21.6526 66.9526 19.7405C66.9245 18.2221 66.0247 17.3926 64.4922 17.3786C63.5221 17.3926 62.538 17.3926 61.5538 17.3926Z" fill="#1C3D6B"/>
<path d="M147.063 31.9012C143.506 31.9012 139.935 31.9012 136.378 31.9294C135.338 31.9434 134.677 31.3951 134.227 30.7203C133.454 31.0999 132.751 31.4795 132.02 31.8169C131.837 31.9012 131.612 31.9012 131.401 31.9012C126.523 31.9012 121.658 31.8872 116.78 31.9153C115.43 31.9153 114.516 31.2826 113.926 30.172C113.616 29.5815 113.377 28.8785 113.349 28.2177C113.265 26.6291 113.335 25.0404 113.335 23.4376C113.335 21.8911 114.305 20.7523 115.908 20.429C116.428 20.3165 116.976 20.2743 117.511 20.2743C122.783 20.2603 128.055 20.2743 133.327 20.2743C133.58 20.2743 133.833 20.2743 134.086 20.2743C134.241 19.2199 133.566 18.3342 132.428 18.1233C131.598 17.9686 130.754 17.8702 129.925 17.8702C125.145 17.8421 120.365 17.8561 115.585 17.8561C115.331 17.8561 115.078 17.8561 114.811 17.8561C114.952 15.7051 116.175 14.3976 118.354 14.3835C123.486 14.3554 128.617 14.3695 133.749 14.3695C135.83 14.3695 137.925 14.3273 140.005 14.3976C140.863 14.4257 141.763 14.5804 142.578 14.8897C144.462 15.5926 145.32 17.0688 145.32 19.0652C145.32 21.9895 145.292 24.9279 145.334 27.8522C145.348 28.7239 145.503 29.6096 145.699 30.4672C145.854 31.1561 146.346 31.6341 147.063 31.8169C147.049 31.8309 147.063 31.8591 147.063 31.9012ZM129.363 23.044C128.378 23.044 127.394 23.0299 126.41 23.044C125.229 23.0721 124.667 23.536 124.512 24.6889C124.442 25.2513 124.484 25.8558 124.568 26.4322C124.695 27.3039 125.187 27.81 126.059 27.8241C128.182 27.8663 130.319 27.8663 132.442 27.8241C133.201 27.81 133.805 27.3742 133.96 26.6009C134.086 25.9683 134.143 25.2934 134.058 24.6608C133.932 23.522 133.384 23.0862 132.231 23.058C131.289 23.0299 130.319 23.044 129.363 23.044Z" fill="#1C3D6B"/>
<path d="M98.7267 17.997C98.7126 21.7649 98.6705 25.5327 98.7267 29.3006C98.7408 30.3128 99.2188 31.2267 100.217 31.7609C100.189 31.8172 100.175 31.8593 100.147 31.9156C95.3244 31.9156 90.488 31.9156 85.8766 31.9156C86.3265 31.2407 86.8467 30.4956 87.3247 29.7223C87.4653 29.4974 87.4793 29.1881 87.4793 28.9069C87.4934 25.3218 87.4934 21.7367 87.4934 18.1517C87.4934 18.0814 87.4653 18.0111 87.4371 17.8564C85.6235 17.8564 83.7817 17.8564 81.9681 17.8564C81.7291 15.9163 83.121 14.4119 85.0892 14.3557C85.8344 14.3276 86.5795 14.3276 87.3387 14.3135C87.3809 14.2713 87.4231 14.2292 87.4512 14.187C87.4653 12.6967 87.4371 11.1924 87.5074 9.70212C87.6058 7.19959 88.6744 5.94833 91.0082 5.90615C96.7584 5.8218 102.509 5.77962 108.259 5.79368C109.58 5.79368 110.916 6.1311 111.661 7.42454C111.97 7.95878 112.097 8.59145 112.364 9.35064C111.858 9.35064 111.591 9.35064 111.31 9.35064C107.795 9.3647 104.28 9.35064 100.779 9.37876C99.2469 9.39282 98.7126 9.96924 98.6986 11.5157C98.6986 12.3874 98.6986 13.245 98.6986 14.1167C98.6986 14.1589 98.7126 14.201 98.7408 14.3135C98.9235 14.3276 99.1204 14.3416 99.3312 14.3416C101.96 14.3416 104.575 14.3276 107.204 14.3557C108.554 14.3698 109.749 14.7915 110.424 16.0428C110.705 16.5489 110.804 17.1675 111.029 17.8705C106.895 17.8705 102.874 17.8705 98.8673 17.8705C98.811 17.9267 98.7689 17.9548 98.7267 17.997Z" fill="#1C3D6B"/>
<path d="M187.904 0.00114547C190.098 -0.0269728 191.869 1.68824 191.855 3.79711C191.841 5.66698 190.069 7.64932 188.396 7.71962C185.556 7.83209 184.15 5.80757 184.108 3.85335C184.066 1.96943 185.57 -0.0550911 187.904 0.00114547ZM186.442 1.40706C185.486 1.92725 184.91 3.06604 185.05 4.16265C185.205 5.35768 186.175 6.45429 187.328 6.72142C188.27 6.94636 189.296 6.67924 189.746 6.04658C189.015 6.24341 188.748 5.82163 188.551 5.27333C188.453 5.0062 188.326 4.75314 188.157 4.52819C188.045 4.3876 187.834 4.33136 187.665 4.24701C187.595 4.40166 187.454 4.54225 187.44 4.6969C187.412 5.13273 187.426 5.56857 187.426 5.99034C187.033 5.99034 186.723 5.99034 186.414 5.99034C186.428 4.42978 186.428 2.91139 186.442 1.40706C187.229 1.44924 188.017 1.47736 188.804 1.54765C189.366 1.60389 189.83 1.85695 189.999 2.4615C190.154 3.03792 189.985 3.51593 189.535 3.90959C189.437 3.99394 189.338 4.0783 189.226 4.17671C189.521 4.7672 189.788 5.32956 190.083 5.93411C190.744 5.3858 190.969 4.72502 190.997 3.97988C191.039 2.71456 190.477 1.7726 189.38 1.16805C188.424 0.633805 187.201 0.74628 186.442 1.40706ZM187.497 2.3912C187.497 2.74268 187.497 3.05198 187.497 3.36128C187.876 3.36128 188.214 3.41752 188.509 3.34722C188.692 3.30504 188.959 3.05198 188.945 2.92545C188.917 2.72862 188.706 2.4615 188.523 2.41932C188.2 2.32091 187.848 2.3912 187.497 2.3912Z" fill="#1C3D6B"/>
<path d="M36.0088 5.94833C35.7557 5.97644 35.5167 6.04674 35.2636 6.04674C25.1269 6.04674 14.9902 6.04674 4.85354 6.04674C4.60047 6.04674 4.36146 5.97645 4.1084 5.93427C4.4177 5.92021 4.71294 5.89209 5.02225 5.89209C15.0465 5.89209 25.0848 5.89209 35.109 5.89209C35.4042 5.89209 35.6995 5.92021 36.0088 5.94833Z" fill="#1C3D6B"/>
<path d="M36.4457 14.285C36.2067 14.2991 35.9818 14.3272 35.7428 14.3272C28.2914 14.3272 20.8541 14.3272 13.4027 14.3272C13.0512 14.3272 12.7138 14.2569 12.3623 14.2147C14.1619 14.2147 15.9615 14.2007 17.7751 14.2007C23.7503 14.2007 29.7114 14.2007 35.6866 14.2007C35.9537 14.2007 36.1927 14.2569 36.4457 14.285Z" fill="#A8B5C3"/>
<path d="M168.856 4.87958C168.87 4.93582 168.87 4.99205 168.884 5.04829C168.771 5.03423 168.645 5.00611 168.532 4.99205C168.532 4.93582 168.532 4.89364 168.546 4.8374C168.645 4.85146 168.757 4.86552 168.856 4.87958Z" fill="#A8B5C3"/>
<path d="M147.062 31.9015C147.048 31.8594 147.048 31.8312 147.034 31.7891C147.119 31.8031 147.189 31.8312 147.273 31.8453C147.259 31.9015 147.231 31.9437 147.217 31.9999C147.175 31.9718 147.119 31.9297 147.062 31.9015Z" fill="#F3F5F7"/>
<path d="M186.428 1.39307C186.428 2.91145 186.428 4.42984 186.428 6.00447C186.737 6.00447 187.046 6.00447 187.44 6.00447C187.44 5.58269 187.426 5.14686 187.454 4.71103C187.468 4.55638 187.595 4.41578 187.679 4.26113C187.848 4.35955 188.059 4.40172 188.171 4.54231C188.34 4.7532 188.466 5.02033 188.565 5.28745C188.762 5.83576 189.029 6.25753 189.76 6.0607C189.31 6.69337 188.284 6.96049 187.342 6.73554C186.189 6.46842 185.219 5.37181 185.064 4.17678C184.909 3.06611 185.486 1.91325 186.428 1.39307Z" fill="#F3F5F7"/>
<path d="M186.443 1.40738C187.202 0.760662 188.425 0.634128 189.381 1.16838C190.478 1.77292 191.054 2.71488 190.998 3.9802C190.97 4.72534 190.745 5.38612 190.084 5.93443C189.789 5.32989 189.522 4.78158 189.227 4.17704C189.339 4.07862 189.437 3.99426 189.536 3.90991C189.986 3.53031 190.168 3.0523 190 2.46182C189.831 1.85728 189.367 1.60421 188.805 1.54797C188.017 1.47768 187.216 1.44956 186.443 1.40738Z" fill="#F3F5F7"/>
<path d="M187.498 2.39141C187.85 2.39141 188.215 2.33517 188.524 2.41953C188.707 2.46171 188.918 2.72883 188.946 2.92565C188.96 3.05219 188.693 3.30525 188.51 3.34743C188.201 3.41772 187.864 3.36149 187.498 3.36149C187.498 3.05219 187.498 2.74289 187.498 2.39141Z" fill="#F3F5F7"/>
</svg>
