<svg width="168" height="76" viewBox="0 0 168 76" fill="none" xmlns="http://www.w3.org/2000/svg">
<path fill-rule="evenodd" clip-rule="evenodd" d="M3.86378 63.3086L0 76H17.6403C20.9965 76 30.0002 75.4123 32.5191 67.0344C34.5819 60.1483 45.9677 20.6207 47.0269 16.9653C48.087 13.31 49.6155 12.4135 54.2813 12.4135H61.1734L64.7838 0C64.7838 0 55.1569 0.0347387 47.4647 0.0347387C39.7734 0.0347387 34.3745 3.85992 32.6978 9.75886C31.6492 13.4518 18.7282 58.1642 18.0456 60.4503C17.6413 61.7945 16.4043 63.3095 13.9238 63.3095L3.86378 63.3086Z" fill="#CC2131"/>
<path fill-rule="evenodd" clip-rule="evenodd" d="M163.913 26.9499H159.615C155.821 26.9499 154.492 28.8818 153.928 30.7944C153.256 33.0834 147.235 54.1846 146.539 56.4658C146.026 58.1391 146.684 61.2077 150.568 61.2077H154.999C158.787 61.2077 160.12 59.2758 160.682 57.3633C161.074 56.0345 167.498 33.6836 167.771 32.7475C168.438 30.4258 167.794 26.9499 163.913 26.9499ZM155.177 55.4043C155.022 55.9322 154.407 56.3693 153.804 56.379C153.197 56.3906 152.829 55.9717 152.983 55.4458L159.578 32.5681C159.73 32.0421 160.346 31.6089 160.947 31.5973C161.554 31.5867 161.919 32.0055 161.768 32.5304L155.177 55.4043ZM156.401 12.2407H151.295C151.178 12.2451 151.066 12.2848 150.973 12.3545C150.879 12.4242 150.808 12.5207 150.77 12.6315L146.601 27.0763C146.417 27.6466 145.722 27.6717 145.253 27.5077C143.839 27.0146 143.847 26.9499 142.85 26.9499C139.058 26.9499 137.729 28.8818 137.161 30.7944C136.852 31.8327 130.147 55.2422 129.77 56.4658C129.259 58.1391 129.916 61.2077 133.798 61.2077C134.578 61.2077 134.299 61.2097 136.563 60.4049C136.949 60.2669 136.974 60.4049 136.901 60.648L136.849 60.8179C136.791 61.0331 136.927 61.2097 137.153 61.2097H142.485C142.602 61.2054 142.715 61.1658 142.81 61.0959C142.904 61.0261 142.976 60.9293 143.015 60.8179L156.7 12.6325C156.763 12.4154 156.627 12.2407 156.401 12.2407ZM145.007 32.5295L138.409 55.4043C138.258 55.9322 137.645 56.3693 137.04 56.379C136.435 56.3906 136.064 55.9717 136.221 55.4458L142.817 32.5681C142.966 32.0421 143.578 31.6089 144.185 31.5973C144.791 31.5867 145.155 32.0055 145.007 32.5295ZM130.832 26.9499H126.537C122.741 26.9499 121.412 28.8818 120.848 30.7944C120.174 33.0834 114.153 54.1846 113.457 56.4658C112.949 58.1391 113.602 61.2077 117.484 61.2077H121.915C125.707 61.2077 127.037 59.2758 127.603 57.3633C127.825 56.6241 128.589 53.9636 129.537 50.6595L123.813 50.6576L122.434 55.4053C122.287 55.9331 121.939 56.3703 121.336 56.3799H120.704C120.099 56.3915 119.753 55.9727 119.903 55.4468L122.029 48.0338H130.294C130.849 46.1096 134.42 33.6836 134.688 32.7475C135.357 30.4258 134.72 26.9499 130.832 26.9499ZM126.074 42.7824C126.016 42.9899 125.876 43.069 125.551 43.069H123.884C123.643 43.069 123.498 42.9445 123.604 42.6338L126.497 32.5681C126.652 32.0421 127.263 31.6089 127.87 31.5973H128.266C128.871 31.5867 129.186 32.0055 129.031 32.5304L126.074 42.7824ZM55.5804 26.9499H51.2788C47.4906 26.9499 46.159 28.8818 45.5959 30.7944C44.9201 33.0834 38.8988 54.1846 38.2029 56.4658C37.6906 58.1391 38.3492 61.2077 42.2292 61.2077H46.6618C50.452 61.2077 51.7835 59.2758 52.3504 57.3633C52.5664 56.6241 53.3321 53.9636 54.2842 50.6595L48.5612 50.6576L47.1799 55.4053C47.0269 55.9331 46.6828 56.3703 46.0777 56.3799H45.4487C44.8436 56.3915 44.5014 55.9727 44.6496 55.4468L46.7698 48.0338H55.0403C55.5938 46.1096 56.1712 44.087 56.7246 42.1725L59.4327 32.7475C60.099 30.4258 59.4662 26.9499 55.5804 26.9499ZM50.8152 42.7824C50.7588 42.9899 50.6212 43.069 50.2952 43.069H48.629C48.3862 43.069 48.2381 42.9445 48.3499 42.6338L51.2444 32.5681C51.3983 32.0421 52.0091 31.6089 52.6152 31.5973H53.009C53.617 31.5867 53.9276 32.0055 53.7785 32.5304L50.8152 42.7824ZM77.0769 26.8505H71.9752C71.8588 26.8536 71.7462 26.8928 71.6527 26.9627C71.5591 27.0326 71.4892 27.1299 71.4523 27.2414L71.4561 27.0773C71.2745 27.6476 70.5767 27.6727 70.1131 27.5087C68.6945 27.0156 68.7022 26.9509 67.708 26.9509C63.9159 26.9509 62.5844 28.8828 62.0194 30.7954C61.7135 31.8337 55.0021 55.2432 54.6331 56.4668C54.1207 58.1401 54.7736 61.2087 58.6575 61.2087H60.4383C60.858 61.2087 61.6093 61.2126 61.5357 61.4538L60.2433 65.0706C60.0206 65.553 59.0121 65.5608 59.2425 65.5608L52.9708 65.553C52.6104 65.553 52.4641 65.7605 52.4641 65.7605L51.0771 70.5661C51.0771 70.5661 50.9777 71.0467 51.3677 71.0467H58.1767C64.9837 71.0467 66.1002 67.1173 66.6298 65.7374L77.5013 27.2414C77.4382 27.0242 77.3063 26.8505 77.0769 26.8505ZM69.8607 32.5295L63.265 55.4043C63.1139 55.9322 62.5021 56.3693 61.8951 56.379C61.292 56.3906 60.923 55.9717 61.074 55.4458L67.6717 32.5681C67.8246 32.0421 68.4345 31.6089 69.0444 31.5973C69.6457 31.5867 70.0108 32.0055 69.8607 32.5295ZM112.568 27.5521C112.917 27.4131 113.557 26.9499 114.446 26.9499C118.328 26.9499 118.97 30.4258 118.299 32.7466C118.027 33.6826 115.34 43.0777 115.264 43.2929C115.193 43.5061 114.978 43.483 114.978 43.483H109.367C109.367 43.483 109.149 43.483 109.205 43.2475C109.256 43.0159 112.298 32.5295 112.298 32.5295C112.451 32.0045 112.085 31.5857 111.479 31.5963C110.876 31.6079 110.26 32.0412 110.11 32.5671L101.983 60.8787C101.924 61.0958 101.683 61.2724 101.456 61.2724H96.2906C96.0612 61.2724 95.9264 61.0948 95.9886 60.8787L105.595 27.4652C105.656 27.251 105.895 27.0744 106.125 27.0744H111.287C111.516 27.0744 111.778 27.087 111.673 27.3456C111.571 27.6023 112.024 27.6196 112.024 27.6196C112.422 27.637 112.568 27.5521 112.568 27.5521Z" fill="black"/>
<path fill-rule="evenodd" clip-rule="evenodd" d="M92.4781 61.1923C92.5944 61.1878 92.7067 61.1483 92.8006 61.0788C92.8944 61.0093 92.9656 60.9131 93.0048 60.8024C93.0048 60.8024 101.003 32.9261 101.179 32.3615C101.32 31.8791 101.776 31.8877 101.776 31.8877C101.776 31.8877 102.398 31.8926 102.962 31.8926C103.242 31.8926 103.292 31.8578 103.314 31.7758C103.63 30.6748 104.304 28.5431 104.674 27.3977C104.739 27.196 104.674 27.0763 104.417 27.0763C104.161 27.0763 103.506 27.086 103.007 27.0763C102.768 27.0744 102.712 26.9769 102.749 26.837C102.966 26.0949 104.536 20.6467 105 19.0284C105.464 17.412 106.282 17.1187 107.251 17.1187H109.274C110.003 17.1187 110.105 16.6931 110.044 16.9122C109.977 17.1341 111.274 12.6933 111.274 12.6933C111.39 12.3247 110.994 12.2397 110.768 12.2397H105.38C102.604 12.2397 100.214 13.8937 99.2641 16.5851C99.2641 16.5851 96.447 26.4829 96.3352 26.8264C96.2902 26.9683 96.1277 27.0609 95.796 27.0551C95.4357 27.0551 95.1145 27.0677 95.1145 27.0677C95.1145 27.0677 94.7713 27.0155 94.6585 27.3272C94.3689 28.134 93.5573 30.943 93.4579 31.3435C93.3441 31.7748 93.7638 31.8771 93.7638 31.8771C93.7638 31.8771 94.0362 31.8771 94.367 31.8916C94.6193 31.8993 94.8248 32.0508 94.7474 32.3249C94.4539 33.3854 86.5887 60.8005 86.5887 60.8005C86.5295 61.0157 86.6633 61.1904 86.8889 61.1904H92.4781V61.1923ZM88.4432 26.9499H84.1426C80.3486 26.9499 79.0208 28.8818 78.4559 30.7944C78.258 31.4516 76.783 36.5168 76.783 36.5168C76.7151 36.7927 76.6406 36.9655 77.043 36.9655H81.9975C82.3282 36.9655 82.8387 36.8632 82.9649 36.5168L84.1014 32.568C84.2544 32.0421 84.87 31.6088 85.4732 31.5973C86.0821 31.5867 86.4482 32.0055 86.2981 32.5304L84.5144 38.6214C84.1722 39.5584 82.6542 40.3101 78.8612 41.4131C75.3883 42.4234 74.485 44.5512 74.0749 46.0701C73.6495 47.6285 71.3726 55.413 71.0476 56.4735C70.54 58.1429 71.1967 61.2135 75.0805 61.2135C75.8548 61.2135 75.5786 61.2135 77.8412 60.4126C78.2312 60.2717 78.2513 60.4126 78.1796 60.6538L78.1328 60.8237C78.0678 61.0408 78.2054 61.2174 78.432 61.2174H83.764C83.8811 61.213 83.9942 61.173 84.0885 61.1028C84.1828 61.0326 84.2539 60.9353 84.2926 60.8237C84.2926 60.8237 92.0221 33.6836 92.2917 32.7475C92.9637 30.4258 92.3213 26.9499 88.4432 26.9499ZM82.7096 45.9774L79.9939 55.4053C79.841 55.9331 79.2292 56.3703 78.6241 56.3799H78.3335C77.7255 56.3915 77.3604 55.9727 77.5133 55.4468L79.7836 47.5725C80.1077 46.623 81.055 46.2418 81.8206 45.8636C82.4869 45.5287 82.8702 45.6117 82.7096 45.9774ZM78.2809 71.5832L84.3175 65.8454H79.71L79.8878 65.0715L80.0675 64.3005H87.0772L86.9223 65.0088L86.7646 65.718L80.7252 71.4529H85.5028L85.3202 72.2297L85.1348 72.9998H77.9769L78.1242 72.2915L78.2809 71.5832ZM91.0031 64.3005H93.2122L94.5008 73.0008H92.4064L92.1913 71.1673H88.8083L87.7721 73.0008H85.7389L91.0031 64.3005ZM89.6362 69.7324H92.0355L91.6302 66.2189H91.6378L89.6362 69.7324ZM97.4163 72.9998H95.6259L97.5281 64.3005H99.5633L101.921 70.4667L103.273 64.3005H105.065L103.161 72.9998H101.249L98.7833 66.7448L97.4163 72.9998ZM104.976 72.9998L106.88 64.3005H113.669L113.514 65.0715L113.361 65.8454H108.458L108.053 67.6606H112.586L112.415 68.4354L112.248 69.2084H107.715L107.232 71.4529H112.343L112.164 72.2297L111.988 72.9998H104.976ZM117.156 65.8454H114.343L114.525 65.0715L114.709 64.3005H122.214L122.059 65.0715L121.906 65.8454H119.073L117.511 72.9998H115.59L117.156 65.8454ZM125.304 65.8454H122.492L122.673 65.0715L122.856 64.3005H130.362L130.209 65.0715L130.054 65.8454H127.222L125.659 72.9998H123.741L125.304 65.8454ZM131.564 64.3005H133.48L131.577 72.9998H129.661L131.564 64.3005Z" fill="black"/>
</svg>
