<svg width="168" height="34" viewBox="0 0 168 34" fill="none" xmlns="http://www.w3.org/2000/svg">
<g clip-path="url(#clip0_811_7379)">
<path d="M104.947 33.816C103.141 33.4899 101.115 32.6483 99.75 31.6595C98.532 30.7653 97.125 29.0506 96.5685 27.7882C95.8755 26.1892 95.55 24.5586 95.55 22.6861C95.55 16.1954 99.1725 11.8507 105.367 10.8934C106.617 10.704 109.147 10.704 110.449 10.9039C113.431 11.3563 116.109 12.787 117.737 14.8278C119.312 16.7845 120.025 19.0357 120.025 22.0023C120.025 23.6855 119.857 24.8637 119.427 26.2313C118.156 30.2498 114.838 33.0797 110.481 33.8371C109.326 34.037 106.113 34.0264 104.947 33.816ZM109.357 32.1539C110.439 31.9225 111.646 31.2913 112.476 30.5339C114.628 28.5456 115.752 24.8742 115.416 20.9714C115.132 17.7313 114.313 15.7009 112.665 14.144C111.258 12.808 108.759 12.1768 106.491 12.5766C103.33 13.1341 101.178 15.6483 100.338 19.7931C99.6555 23.1805 100.443 27.3148 102.207 29.6502C103.215 30.9757 104.853 31.954 106.575 32.2381C107.194 32.3433 108.675 32.3012 109.357 32.1539ZM59.535 33.6056C58.5165 32.2907 44.625 18.3835 44.184 18.2257C43.953 18.1521 44.1945 30.2393 44.478 33.0271L44.541 33.6793H41.685V33.3426C41.685 33.1533 41.7585 31.8594 41.8425 30.4707C41.9475 28.6403 42 25.6211 42 19.5091V11.0617H43.554L44.478 12.0926C45.927 13.6811 48.6255 16.511 50.631 18.5308C53.907 21.8129 57.897 25.7263 58.4745 26.1997L59.031 26.6731L58.968 23.3594C58.7895 15.0592 58.6845 11.3773 58.632 11.2195C58.5795 11.0827 58.7475 11.0617 60.0075 11.0617H61.4565L61.383 12.566C61.3515 13.3866 61.2885 18.5202 61.2465 23.98L61.1835 33.8897H60.4695C59.8185 33.8897 59.745 33.8686 59.535 33.6056ZM0 22.3705V11.0617H4.7355C8.715 11.0617 9.576 11.0933 10.2165 11.23C13.335 11.9349 15.099 14.2913 14.8785 17.4472C14.7105 19.8037 13.4505 21.7183 11.403 22.7282C9.87 23.4856 9.093 23.6224 6.5415 23.6329H4.3155L4.3575 24.0011C4.3785 24.2009 4.431 26.2839 4.4625 28.6298C4.494 30.9757 4.557 33.0691 4.5885 33.29L4.6515 33.6793H0V22.3705ZM7.6125 21.8024C8.442 21.5079 9.0195 21.0871 9.555 20.3612C10.2375 19.4565 10.542 18.4676 10.5525 17.1106C10.5525 15.1539 9.828 13.7863 8.421 13.092C7.8855 12.829 7.686 12.7975 6.531 12.7554C5.817 12.7449 5.0295 12.7554 4.767 12.7975L4.305 12.8606V17.3736C4.305 21.5815 4.3155 21.8866 4.494 21.9287C4.5885 21.9602 5.208 21.9813 5.859 21.9918C6.7725 22.0023 7.1715 21.9602 7.6125 21.8024ZM15.225 33.5741C15.225 33.511 15.3405 33.2375 15.477 32.9639C15.6135 32.6904 16.086 31.6595 16.5165 30.6811C16.9575 29.6923 17.6505 28.1353 18.06 27.2096C19.6455 23.7065 19.74 23.4751 21.42 19.6879C23.1105 15.8587 24.99 11.1669 24.99 10.7882C24.99 10.7566 25.494 10.7566 26.103 10.7672L27.216 10.7987L27.8985 12.6397C29.148 16.0376 30.6705 19.7721 32.3505 23.5803C32.508 23.959 33.2955 25.7368 34.083 27.5252C34.8705 29.3241 35.721 31.2387 35.9625 31.7857C36.204 32.3327 36.5085 32.985 36.6345 33.2374L36.855 33.6793H31.752L31.038 31.7647C30.639 30.7022 30.03 29.0926 29.673 28.1879L29.0325 26.5258H24.9795C21.1995 26.5258 20.916 26.5363 20.8635 26.7152C20.832 26.8099 20.5695 27.4831 20.2755 28.1985C19.656 29.7238 18.6585 32.459 18.459 33.1848L18.333 33.6793H16.779C15.7815 33.6793 15.225 33.6372 15.225 33.5741ZM27.7305 24.4429L28.014 24.3693L27.4365 22.8439C27.1215 22.0023 26.6805 20.8451 26.4495 20.2665C26.229 19.6879 25.809 18.6044 25.536 17.868C25.0425 16.5636 25.0215 16.532 24.8955 16.816C24.822 16.9738 24.4545 17.847 24.0765 18.7412C23.709 19.6353 23.247 20.7504 23.0475 21.2133C22.2075 23.2121 21.756 24.3693 21.798 24.4219C21.9555 24.5797 27.1425 24.5902 27.7305 24.4429ZM69.4365 28.8191C69.4785 26.1366 69.4995 21.045 69.4785 17.5103L69.426 11.0617H74.718C78.8025 11.0617 80.2725 11.0933 81.1965 11.2195C84.315 11.6298 86.5095 12.7449 88.2315 14.7962C89.7645 16.6267 90.51 18.92 90.51 21.7814C90.4995 26.8414 88.41 30.5128 84.4305 32.4695C83.5905 32.8903 82.8135 33.1638 81.5325 33.4794C81.1545 33.5741 79.338 33.6162 75.18 33.6477L69.3525 33.6898L69.4365 28.8191ZM80.031 31.5964C81.102 31.2702 82.152 30.6601 83.0235 29.8501C85.029 27.9775 85.9215 25.4949 85.9215 21.8445C85.9005 16.1112 82.677 12.8501 77.028 12.8501C76.4925 12.8501 75.558 12.8816 74.949 12.9132L73.8465 12.9868L73.773 13.9441C73.626 15.9219 73.6995 31.5227 73.857 31.691C73.8675 31.7016 74.529 31.7436 75.3375 31.7857C77.574 31.912 79.2015 31.8383 80.031 31.5964ZM125.958 31.2387C126.063 28.1353 126.063 11.6193 125.958 11.3037L125.884 11.0617H130.967C136.658 11.0617 137.13 11.1038 138.453 11.735C139.335 12.1558 140.301 13.05 140.721 13.86C141.288 14.9225 141.456 16.4268 141.172 17.8049C140.742 19.8563 139.251 21.3606 136.836 22.1811C136.3 22.36 135.838 22.5283 135.807 22.5599C135.765 22.6019 136.584 23.8117 138.737 26.873C139.64 28.1564 141.981 31.3018 142.989 32.5747L143.818 33.6267L141.078 33.6582C139.576 33.6688 138.285 33.6582 138.222 33.6372C138.159 33.6162 137.833 33.1428 137.487 32.5852C136.174 30.4392 133.161 25.9788 131.155 23.191C131.04 23.0227 130.872 22.9596 130.609 22.9491C130.263 22.9491 130.242 22.9701 130.263 23.2436C130.284 23.4014 130.315 25.8105 130.347 28.6087L130.389 33.6793H125.874L125.958 31.2387ZM133.623 21.329C134.977 21.045 135.923 20.2771 136.532 18.9726C136.826 18.3414 136.868 18.1521 136.899 17.1001C136.962 15.3222 136.584 14.3228 135.587 13.5865C134.642 12.8816 133.476 12.6607 131.428 12.7975L130.2 12.8711V21.3606L130.862 21.4027C132.29 21.4763 133.014 21.4658 133.623 21.329ZM146.517 33.3426C146.601 33.1533 147.031 32.196 147.472 31.2071C147.913 30.2288 148.417 29.1137 148.575 28.735C148.732 28.3563 149.027 27.6935 149.237 27.2622C149.573 26.5153 149.961 25.6737 150.885 23.5803C151.105 23.0858 151.41 22.4021 151.567 22.0549C151.819 21.4974 152.124 20.803 153.3 18.11C154.213 16.0165 155.285 13.3971 155.799 11.9559L156.219 10.7987L157.322 10.7672L158.424 10.7356L158.602 11.2931C158.802 11.8928 159.306 13.2603 160.135 15.3748C160.608 16.6056 160.902 17.3315 161.857 19.6353C162.456 21.0871 163.684 23.9485 164.115 24.8952C164.22 25.1267 164.556 25.9051 164.881 26.631C165.984 29.1347 166.624 30.5865 167.307 32.0908C167.685 32.9219 168 33.6162 168 33.6372C168 33.6582 166.866 33.6793 165.49 33.6793H162.981L162.561 32.6063C162.33 32.0066 161.941 31.0073 161.7 30.3655C161.458 29.7344 161.017 28.6087 160.723 27.8618L160.198 26.5258L156.156 26.5469L152.124 26.5784L151.357 28.4825C150.937 29.5345 150.349 31.123 150.034 32.0382L149.478 33.6793H146.37L146.517 33.3426ZM158.844 24.4639C159.023 24.4324 159.18 24.4008 159.18 24.3798C159.18 24.3061 156.649 17.6261 156.334 16.8686L156.187 16.511L155.778 17.4998C155.557 18.0363 155.221 18.8569 155.022 19.3198C154.833 19.7826 154.297 21.0976 153.825 22.2443C153.342 23.3909 152.995 24.3587 153.037 24.4008C153.195 24.5586 157.941 24.6112 158.844 24.4639ZM105.115 9.43114C104.895 8.71579 104.905 8.66319 105.199 8.60007C105.798 8.46332 108.864 8.41072 109.767 8.52644C110.281 8.58956 110.712 8.65267 110.733 8.67371C110.754 8.69475 110.691 8.93671 110.607 9.23126L110.439 9.74673H105.21L105.115 9.43114ZM104.79 7.67433C104.328 7.16938 104.695 6.3278 105.378 6.3278C106.018 6.3278 106.375 7.1273 105.987 7.67433C105.766 8.00045 105.094 8.00045 104.79 7.67433ZM109.63 7.63225C109.336 7.26406 109.357 6.94847 109.672 6.60131C110.008 6.24364 110.481 6.23312 110.827 6.59079C111.342 7.10626 110.995 7.90577 110.25 7.90577C109.935 7.90577 109.798 7.84265 109.63 7.63225ZM107.467 7.67433C106.932 7.3903 106.837 6.79067 107.257 6.3804C107.572 6.05428 107.95 6.04376 108.318 6.35936C108.696 6.69599 108.696 7.2325 108.307 7.56913C108.003 7.82161 107.782 7.85317 107.467 7.67433ZM103.698 4.72879C102.585 1.10998 102.375 0.405149 102.396 0.38411C102.448 0.331511 105.84 5.44413 105.84 5.55985C105.84 5.62297 105.514 5.69661 105.115 5.73869C104.716 5.77025 104.317 5.83337 104.223 5.86493C104.097 5.90701 103.992 5.67557 103.698 4.72879ZM111.037 5.79129C110.806 5.74921 110.439 5.70713 110.229 5.70713C110.019 5.69661 109.819 5.66505 109.788 5.61245C109.767 5.57037 110.019 5.1075 110.365 4.59203C110.712 4.06604 111.468 2.91938 112.056 2.03572C112.633 1.15206 113.127 0.447228 113.148 0.468268C113.19 0.510347 113.001 1.18361 112.192 3.85564C111.993 4.49735 111.783 5.2127 111.72 5.46517C111.657 5.70713 111.573 5.89649 111.531 5.89649C111.489 5.88597 111.268 5.84389 111.037 5.79129ZM106.89 5.41257C106.911 4.91814 107.814 -0.120841 107.867 0.0159166C107.919 0.152674 108.78 5.34946 108.78 5.52829C108.78 5.55985 108.36 5.59141 107.835 5.59141C107.005 5.59141 106.89 5.57037 106.89 5.41257Z" fill="#1A1A1A"/>
</g>
<defs>
<clipPath id="clip0_811_7379">
<rect width="168" height="34" fill="white"/>
</clipPath>
</defs>
</svg>
