<svg width="136" height="76" viewBox="0 0 136 76" fill="none" xmlns="http://www.w3.org/2000/svg">
<g clip-path="url(#clip0_811_6026)">
<path d="M99.0058 0.497665H100.503V31.6347H99.2847C99.2847 31.6347 94.2494 18.9555 89.64 13.6925C85.0306 8.42952 79.3562 2.86504 68.6744 2.12151C57.9926 1.37798 46.4581 3.99997 41.9272 18.516C37.3964 33.032 37.7473 49.8178 45.0395 60.777C52.3317 71.7362 62.6564 74.6661 74.9329 72.8497C87.2095 71.0333 99.2213 60.4933 101.533 48.5017C102.28 48.4891 102.394 48.5017 102.394 48.5017C102.394 48.5017 101.507 60.8884 86.61 69.7082C71.7128 78.528 38.7795 78.0935 20.898 68.2895C3.01644 58.4855 -0.647779 43.9696 0.0932215 34.7065C0.834221 25.4433 10.6442 1.76552 55.2854 0.0390547C63.508 -0.393932 71.7207 1.05967 79.2951 4.2887C89.0003 8.34203 91.142 9.56814 95.1384 7.99747C99.1347 6.4268 99.0058 0.497665 99.0058 0.497665Z" fill="#45A1EF"/>
<path d="M118.549 65.5918H120.813C120.749 64.8748 120.539 64.1785 120.195 63.5461C119.884 62.9878 119.459 62.501 118.948 62.1173C118.422 61.7307 117.828 61.447 117.197 61.2813C116.505 61.0972 115.791 61.0065 115.074 61.0115C114.127 60.9912 113.186 61.1802 112.32 61.565C111.557 61.9147 110.883 62.4346 110.352 63.085C109.815 63.7547 109.417 64.5247 109.182 65.3498C108.921 66.2555 108.793 67.1942 108.802 68.1365C108.79 69.065 108.922 69.9897 109.194 70.8776C109.436 71.6693 109.84 72.4024 110.379 73.0309C110.913 73.6412 111.583 74.1183 112.334 74.4242C113.189 74.7641 114.103 74.9303 115.023 74.9132C116.487 74.9941 117.927 74.516 119.051 73.5756C120.098 72.5647 120.75 71.2146 120.892 69.7667H118.651C118.573 70.6718 118.176 71.5197 117.531 72.1595C116.828 72.7587 115.92 73.0628 114.998 73.0081C114.382 73.0241 113.771 72.8824 113.225 72.5964C112.74 72.3338 112.325 71.959 112.015 71.5033C111.698 71.0288 111.467 70.5017 111.334 69.9466C111.184 69.3562 111.107 68.7495 111.106 68.1403C111.105 67.4848 111.176 66.8311 111.317 66.1909C111.44 65.6004 111.671 65.0377 111.999 64.5316C112.321 64.0465 112.759 63.6488 113.273 63.3739C113.886 63.0637 114.567 62.9133 115.254 62.9368C116.051 62.895 116.837 63.1419 117.467 63.6322C118.042 64.1413 118.425 64.8335 118.549 65.5918ZM124.93 67.9845C124.918 67.2539 125.026 66.5263 125.252 65.8312C125.44 65.2506 125.742 64.713 126.138 64.2491C126.503 63.8298 126.955 63.4959 127.463 63.2712C127.97 63.0481 128.518 62.9342 129.072 62.9368C129.626 62.9342 130.174 63.0481 130.681 63.2712C131.189 63.4959 131.641 63.8298 132.006 64.2491C132.402 64.713 132.704 65.2506 132.892 65.8312C133.118 66.5263 133.226 67.2539 133.214 67.9845C133.226 68.7151 133.118 69.4428 132.892 70.1378C132.706 70.7155 132.404 71.2493 132.006 71.7073C131.638 72.1203 131.186 72.4495 130.681 72.6725C130.174 72.8956 129.626 73.0095 129.072 73.0069C128.518 73.0095 127.97 72.8956 127.463 72.6725C126.958 72.4495 126.506 72.1203 126.138 71.7073C125.74 71.2493 125.438 70.7155 125.252 70.1378C125.026 69.4432 124.918 68.7147 124.93 67.9845ZM122.615 67.9845C122.606 68.91 122.745 69.831 123.026 70.7129C123.283 71.5229 123.704 72.2717 124.261 72.9131C124.821 73.5473 125.516 74.0484 126.294 74.3799C127.174 74.7457 128.12 74.9252 129.073 74.9069C130.029 74.9269 130.978 74.7475 131.86 74.3799C132.633 74.046 133.323 73.5451 133.88 72.9131C134.438 72.2717 134.858 71.5229 135.115 70.7129C135.396 69.831 135.535 68.91 135.527 67.9845C135.534 67.0549 135.395 66.1299 135.115 65.2435C134.86 64.4287 134.44 63.6754 133.88 63.0306C133.322 62.3973 132.632 61.8926 131.86 61.5511C130.98 61.1747 130.03 60.9903 129.073 61.0102C128.119 60.9921 127.172 61.1764 126.294 61.5511C125.517 61.8902 124.823 62.3952 124.261 63.0306C123.702 63.6754 123.281 64.4287 123.026 65.2435C122.746 66.1303 122.607 67.0545 122.615 67.9845Z" fill="#45A1EF"/>
<path d="M98.7302 74.5472H77.5769C80.1259 73.8503 82.6018 72.9094 84.9704 71.7378C85.1072 71.7821 85.2567 71.8239 85.4125 71.8644C89.7858 72.7395 94.2361 73.1719 98.696 73.1552H98.7327V74.5485L98.7302 74.5472ZM68.6481 71.3932C64.3928 71.4997 60.1755 70.5675 56.3615 68.6775C52.3131 66.4937 48.8979 63.3006 46.4473 59.408C46.4625 48.1524 46.4473 23.5272 46.4473 15.4357V13.6383C48.0568 11.2082 50.1018 9.09664 52.4791 7.41009C54.6783 5.87381 57.1315 4.7379 59.7257 4.05469L73.8073 4.05469C76.4126 4.69773 78.898 5.754 81.1691 7.18335C81.1881 16.1767 81.1691 64.2682 81.1691 64.7356C80.9362 66.3207 81.2018 67.939 81.9291 69.3666C79.8511 70.0307 77.7224 70.5242 75.5641 70.8422C73.2755 71.1961 70.9639 71.3802 68.6481 71.3932ZM63.0292 44.0928C62.3162 44.0799 61.6072 44.2033 60.9405 44.4563C60.3692 44.6769 59.8489 45.0118 59.4116 45.4405C59.0034 45.8464 58.6839 46.3324 58.473 46.868C58.2614 47.4031 58.1535 47.9735 58.1551 48.5489C58.15 49.0432 58.217 49.5356 58.3539 50.0106C58.4855 50.4446 58.6683 50.8613 58.8986 51.252C59.1304 51.6434 59.3901 52.036 59.6713 52.4186C59.9525 52.8011 60.2615 53.2267 60.5491 53.6295C59.878 53.9833 59.226 54.3723 58.5959 54.7948C58.0037 55.189 57.4644 55.6572 56.991 56.1882C56.5359 56.7054 56.168 57.2932 55.9017 57.9286C55.6169 58.6402 55.4773 59.4016 55.4913 60.168C55.5066 60.7294 55.5827 61.2874 55.718 61.8324C55.8907 62.5403 56.2162 63.2018 56.6718 63.7704C57.2297 64.4533 57.9346 65.0015 58.7339 65.374C59.8387 65.8608 61.0401 66.0887 62.2464 66.0403C63.4426 66.0372 64.6243 65.7781 65.712 65.2803C66.7992 64.8023 67.7207 64.0135 68.3606 63.013L70.6609 65.7072H74.0213L69.8122 60.8343C70.025 60.3694 70.2188 59.9375 70.3885 59.5474C70.5488 59.1764 70.6855 58.7956 70.7977 58.4074C70.9148 57.9946 71.0057 57.575 71.07 57.1508C71.1409 56.686 71.2068 56.1312 71.2663 55.5042H68.8103C68.7409 56.652 68.5063 57.7838 68.1136 58.8646L64.2097 54.1134C64.7383 53.8096 65.2461 53.4711 65.7297 53.1C66.2089 52.731 66.6452 52.3095 67.0306 51.8435C67.4109 51.3842 67.7174 50.8683 67.9388 50.3146C68.1639 49.741 68.277 49.1296 68.2719 48.5134C68.2852 47.8467 68.1347 47.1869 67.8337 46.5919C67.5502 46.0489 67.1527 45.5736 66.6683 45.1986C66.1659 44.817 65.5955 44.5346 64.9875 44.3664C64.3506 44.1846 63.6915 44.0925 63.0292 44.0928ZM62.3325 63.7996C61.8108 63.8 61.2931 63.7078 60.8037 63.5272C60.327 63.3547 59.8823 63.1043 59.4876 62.7862C59.1035 62.4709 58.7891 62.0792 58.5642 61.6361C58.3311 61.1713 58.2121 60.6576 58.2171 60.1376C58.204 59.5628 58.3066 58.9912 58.5186 58.4568C58.7184 57.9862 58.9945 57.5518 59.3356 57.1711C59.6889 56.7785 60.0907 56.4325 60.5313 56.1413C60.981 55.8411 61.4649 55.546 61.9703 55.2635L66.9356 61.227C66.4333 61.9907 65.7658 62.6319 64.9824 63.1029C64.1795 63.5733 63.2629 63.8143 62.3325 63.7996ZM62.8164 52.4173L62.2122 51.6573L62.0855 51.5066C61.848 51.2102 61.6256 50.902 61.4193 50.5832C61.2234 50.2816 61.0563 49.9622 60.9202 49.6294C60.7918 49.3228 60.7246 48.994 60.7226 48.6616C60.6979 48.3289 60.757 47.9953 60.8944 47.6913C61.0318 47.3873 61.2432 47.1226 61.5092 46.9212C62.0006 46.5599 62.594 46.3638 63.204 46.3614C63.5374 46.3443 63.8708 46.3958 64.1834 46.5128C64.4961 46.6298 64.7814 46.8098 65.0217 47.0416C65.2355 47.2533 65.4046 47.5057 65.5191 47.784C65.6335 48.0623 65.6909 48.3607 65.6879 48.6616C65.6939 49.0957 65.6007 49.5255 65.4156 49.9182C65.2355 50.2889 65.0006 50.6305 64.7189 50.9315C64.435 51.2354 64.1205 51.5092 63.7803 51.7485C63.4333 51.9942 63.1077 52.2184 62.8126 52.4148L62.8164 52.4173ZM135.532 35.1906H133.496C133.098 33.9898 132.619 32.8169 132.065 31.6794C128.697 24.6477 123.565 18.6081 117.169 14.1488C112.393 10.8676 107.048 8.50225 101.408 7.17322L101.475 4.05469H135.533V35.1868L135.532 35.1906ZM95.6927 6.11302C92.9124 5.75109 90.1112 5.57211 87.3074 5.57722C86.4942 5.57722 85.643 5.59242 84.7741 5.62282C83.572 5.06802 82.4092 4.56135 81.2223 4.05469H96.9873C96.7322 4.83799 96.286 5.5454 95.6889 6.11302H95.6927Z" fill="#45A1EF"/>
<path d="M104.714 21.583C104.92 23.9028 104.56 26.2381 103.666 28.3886C102.772 30.539 101.37 32.4406 99.5797 33.9305C93.4706 38.7895 80.8203 37.9699 80.8203 37.9699V39.8142C80.8203 39.8142 92.8891 38.1321 99.187 43.5344C101.04 45.1749 102.499 47.2125 103.455 49.4954C104.411 51.7784 104.839 54.2476 104.708 56.7191H107.169V21.583H104.714Z" fill="#45A1EF"/>
</g>
<defs>
<clipPath id="clip0_811_6026">
<rect width="135.533" height="76" fill="white"/>
</clipPath>
</defs>
</svg>
