<svg width="89" height="110" viewBox="0 0 89 110" fill="none" xmlns="http://www.w3.org/2000/svg">
<g clip-path="url(#clip0_811_7202)">
<path d="M74.022 10.6656H61.7574L55.7103 0H41.0033L36.2692 9.5128L30.8076 0H16.7014L3.35547 24.145L8.61171 34.1858L22.1324 34.166L28.3587 45.0274H43.8434L48.4311 36.96L53.0866 45.0472H66.8979L81.3689 23.5202L74.022 10.6656ZM60.8136 34.1858L54.6049 23.3442H42.1699L48.3787 34.1858H35.9437L29.7372 23.3442H17.3022L11.2311 12.76L24.1685 12.8788L18.1564 2.4068H29.5165L35.5417 12.8744H48.9991L43.0045 2.3826H54.3646L60.3767 12.8744H72.5976L78.6206 23.32H66.5745L72.8008 34.1814L60.8136 34.1858Z" fill="#0098DA"/>
<path d="M31.618 53.7788H23.1416V78.9402H40.1534V71.6538H31.618V53.7788Z" fill="#0098DA"/>
<path d="M57.5341 68.136C57.5341 69.3482 57.2435 70.2854 56.6602 70.9696C56.0769 71.6538 55.2642 71.986 54.2178 71.986C53.1713 71.986 52.3346 71.6538 51.7732 70.9696C51.2117 70.2854 50.8993 69.3482 50.8993 68.136V53.7788H42.4994V69.0556C42.4884 70.4794 42.725 71.894 43.1985 73.2356C43.6539 74.5056 44.3906 75.6544 45.3525 76.595C46.3949 77.5871 47.6295 78.3518 48.979 78.8412C50.434 79.389 52.1227 79.6618 54.0802 79.6618C55.8283 79.6965 57.5688 79.4187 59.2206 78.8412C60.592 78.3597 61.8481 77.5946 62.9083 76.595C63.8853 75.6476 64.6522 74.5027 65.1585 73.2356C65.6701 71.9028 65.9266 70.4845 65.9144 69.0556V53.7788H57.5537L57.5341 68.136Z" fill="#0098DA"/>
<path d="M75.7694 53.526C74.5658 53.8244 73.4234 54.333 72.3941 55.0286C71.3869 55.7296 70.551 56.6519 69.9495 57.7258C69.3094 58.8258 68.9992 60.1458 68.9992 61.71C68.9766 62.6893 69.1543 63.6628 69.5213 64.57C69.8563 65.3459 70.3455 66.0444 70.9588 66.6226C71.5713 67.2016 72.2637 67.6885 73.0145 68.068C73.8059 68.461 74.6226 68.7999 75.4591 69.0822C76.333 69.377 77.0496 69.6102 77.6307 69.8258C78.0957 69.9912 78.5496 70.1867 78.9895 70.411C79.2473 70.5321 79.4778 70.7051 79.6668 70.9192C79.8029 71.0901 79.8721 71.3054 79.8612 71.5242C79.8769 71.7203 79.8286 71.9161 79.7237 72.0821C79.6188 72.2481 79.4631 72.375 79.2801 72.4438C78.8734 72.6099 78.4388 72.6958 77.9999 72.6968C76.948 72.6884 75.9123 72.4347 74.9742 71.9554C74.099 71.5306 73.3042 70.9551 72.6257 70.2548L67.5049 75.8626C68.1726 76.4438 68.8939 76.9595 69.6589 77.4026C70.4744 77.8781 71.3315 78.2772 72.2193 78.595C74.0799 79.2962 76.0527 79.6467 78.0392 79.629C79.3064 79.6319 80.5672 79.4481 81.7815 79.0834C82.9753 78.7344 84.094 78.1645 85.0803 77.4026C86.063 76.6493 86.8705 75.689 87.4463 74.5888C88.0663 73.3642 88.3727 72.003 88.3376 70.6288C88.3376 69.3088 88.0667 68.2264 87.5249 67.3662C86.991 66.495 86.2917 65.7384 85.467 65.1398C84.6197 64.5339 83.7 64.038 82.7296 63.6636C81.74 63.2918 80.8093 62.9596 79.8896 62.667C79.2493 62.471 78.6212 62.2366 78.0086 61.9652C77.8377 61.8952 77.691 61.7759 77.5871 61.6223C77.4832 61.4686 77.4267 61.2875 77.4246 61.1017C77.4225 60.9158 77.4749 60.7335 77.5753 60.5775C77.6757 60.4216 77.8196 60.2989 77.989 60.225C78.4551 60.0277 78.9582 59.9347 79.4636 59.9522C80.2392 59.985 81.0008 60.1711 81.705 60.5C82.5187 60.8605 83.2315 61.4174 83.7804 62.1214L88.9974 56.76C87.693 55.5462 86.1637 54.6035 84.497 53.9858C82.8934 53.3632 81.1909 53.039 79.4723 53.0288C78.224 53.0618 76.9827 53.2284 75.7694 53.526Z" fill="#0098DA"/>
<path d="M20.0955 58.1549C19.5382 57.1127 18.7393 56.2214 17.7667 55.5567C16.7685 54.8954 15.6575 54.4255 14.4897 54.1707C13.2604 53.895 12.0047 53.757 10.7453 53.7593H-0.000976562V78.9207H8.35963V70.8137H10.7256C12.007 70.8156 13.2837 70.6582 14.5269 70.3451C15.7029 70.0642 16.8151 69.5602 17.8038 68.8601C18.7631 68.1669 19.5473 67.2566 20.0933 66.2025C20.6759 65.1098 20.9672 63.7818 20.9672 62.2183C20.9672 60.5969 20.6854 59.2483 20.0955 58.1549ZM12.2308 63.9959C11.6453 64.3321 10.9823 64.5073 10.3083 64.5041H8.37056V60.3043H10.3083C10.6469 60.3082 10.9845 60.3406 11.3176 60.4011C11.6374 60.4524 11.9462 60.558 12.2308 60.7135C12.4918 60.857 12.7121 61.0653 12.8709 61.3185C13.0376 61.6301 13.1176 61.9813 13.1025 62.3349C13.1112 63.0983 12.8207 63.6637 12.2396 63.9959H12.2308Z" fill="#0098DA"/>
<path d="M31.618 84.1172H23.1416V109.296H40.1534V102.01H31.618V84.1172Z" fill="#0098DA"/>
<path d="M57.5341 98.4744C57.5341 99.6866 57.2435 100.624 56.6602 101.308C56.0769 101.992 55.2642 102.322 54.2178 102.322C53.1713 102.322 52.3346 101.99 51.7732 101.308C51.2117 100.626 50.8993 99.6866 50.8993 98.4744V84.1172H42.4994V99.3918C42.4886 100.816 42.7252 102.23 43.1985 103.572C43.6539 104.842 44.3905 105.991 45.3525 106.931C46.3955 107.923 47.6299 108.687 48.979 109.177C50.434 109.725 52.1227 109.998 54.0801 109.998C55.8283 110.033 57.5688 109.755 59.2206 109.177C60.5916 108.695 61.8476 107.93 62.9083 106.931C63.8853 105.984 64.6521 104.839 65.1584 103.572C65.6701 102.239 65.9265 100.821 65.9143 99.3918V84.1172H57.5537L57.5341 98.4744Z" fill="#0098DA"/>
<path d="M75.7694 83.8815C74.5653 84.1797 73.4228 84.6891 72.3941 85.3863C71.3875 86.087 70.5516 87.0084 69.9495 88.0813C69.3094 89.1813 68.9992 90.5013 68.9992 92.0677C68.9766 93.047 69.1543 94.0205 69.5213 94.9277C69.8557 95.7032 70.345 96.4012 70.9588 96.9781C71.5702 97.5585 72.2628 98.0455 73.0145 98.4235C73.8054 98.8181 74.6222 99.1577 75.4591 99.4399C76.333 99.7325 77.0496 99.9679 77.6307 100.183C78.096 100.348 78.55 100.543 78.9895 100.769C79.2473 100.89 79.4778 101.063 79.6668 101.277C79.8042 101.447 79.8735 101.663 79.8612 101.882C79.8764 102.078 79.8279 102.273 79.723 102.438C79.6182 102.604 79.4627 102.731 79.2801 102.799C78.8735 102.966 78.4389 103.053 77.9999 103.054C76.9478 103.045 75.9122 102.791 74.9742 102.311C74.0961 101.892 73.3005 101.317 72.6257 100.612L67.5049 106.218C68.1721 106.8 68.8934 107.316 69.6589 107.758C70.4745 108.233 71.3315 108.631 72.2193 108.948C73.1416 109.292 74.0919 109.554 75.0594 109.731C76.043 109.908 77.0401 109.998 78.0392 110C79.3066 110.003 80.5675 109.819 81.7815 109.452C82.9712 109.103 84.0888 108.542 85.0803 107.793C86.0625 107.039 86.8699 106.079 87.4463 104.979C88.066 103.755 88.3724 102.394 88.3376 101.019C88.3376 99.7127 88.0667 98.6171 87.5249 97.7591C86.9911 96.8872 86.2917 96.1299 85.467 95.5305C84.621 94.9191 83.7011 94.4186 82.7296 94.0411C81.74 93.6693 80.8093 93.3371 79.8896 93.0445C79.2492 92.8479 78.6211 92.6128 78.0086 92.3405C77.8375 92.2709 77.6906 92.1519 77.5866 91.9984C77.4825 91.845 77.4258 91.6639 77.4237 91.4781C77.4216 91.2922 77.4742 91.1099 77.5747 90.9541C77.6753 90.7983 77.8195 90.676 77.989 90.6025C78.455 90.4045 78.9581 90.3106 79.4636 90.3275C80.2355 90.3617 80.9932 90.5478 81.6941 90.8753C82.5144 91.2244 83.2298 91.7833 83.7695 92.4967L88.9974 87.1199C87.6923 85.907 86.1632 84.9644 84.497 84.3457C82.8934 83.7231 81.1909 83.3988 79.4723 83.3887C78.2235 83.4111 76.9812 83.5764 75.7694 83.8815Z" fill="#0098DA"/>
<path d="M20.0955 88.5128C19.5387 87.4702 18.7397 86.5788 17.7667 85.9146C16.7681 85.2535 15.6573 84.783 14.4897 84.5264C13.2602 84.2525 12.0045 84.1153 10.7453 84.1172H-0.000976562V109.276H8.35963V101.169H10.7256C12.007 101.171 13.2837 101.014 14.5269 100.701C15.7025 100.42 16.8145 99.9166 17.8038 99.218C18.7626 98.5243 19.5467 97.6141 20.0933 96.5604C20.6759 95.4677 20.9672 94.1397 20.9672 92.5762C20.9672 90.9548 20.6854 89.5864 20.0955 88.5128ZM12.2308 94.334C11.6453 94.6702 10.9823 94.8454 10.3083 94.8422H8.37056V90.6402H10.3083C10.647 90.6437 10.9847 90.6769 11.3176 90.7392C11.6374 90.7905 11.9462 90.8961 12.2308 91.0516C12.4918 91.1952 12.7121 91.4034 12.8709 91.6566C13.0379 91.9681 13.118 92.3194 13.1025 92.673C13.1112 93.4342 12.8207 94.0018 12.2396 94.334H12.2308Z" fill="#0098DA"/>
<path d="M84.2853 49.7749C84.2823 49.4725 84.3419 49.1729 84.46 48.8949C84.5681 48.6277 84.7338 48.388 84.945 48.1931C85.1597 47.9969 85.4009 47.8325 85.6616 47.7047C85.9384 47.5883 86.2354 47.5283 86.5354 47.5283C86.8354 47.5283 87.1325 47.5883 87.4093 47.7047C87.6812 47.8178 87.9282 47.984 88.136 48.1937C88.3439 48.4034 88.5085 48.6524 88.6204 48.9264C88.7323 49.2004 88.7892 49.494 88.788 49.7903C88.7867 50.0866 88.7272 50.3797 88.613 50.6527C88.5043 50.9202 88.3388 51.1605 88.128 51.3567C87.9169 51.5532 87.6738 51.7117 87.4093 51.8253C87.1325 51.9417 86.8354 52.0017 86.5354 52.0017C86.2354 52.0017 85.9384 51.9417 85.6616 51.8253C85.3978 51.7117 85.1554 51.5531 84.945 51.3567C84.7399 51.1556 84.5752 50.9166 84.46 50.6527C84.3419 50.3755 84.2824 50.0765 84.2853 49.7749ZM84.6348 49.7749C84.6253 50.0247 84.6786 50.273 84.7899 50.4965C84.8833 50.7244 85.0215 50.931 85.1962 51.1037C85.5519 51.4614 86.0328 51.6644 86.5354 51.6691C86.7896 51.6756 87.0417 51.6221 87.2717 51.5129C87.611 51.3664 87.9012 51.1246 88.1077 50.8164C88.3142 50.5082 88.4282 50.1466 88.4361 49.7749C88.4425 49.5182 88.3894 49.2636 88.281 49.0313C88.1855 48.8046 88.0467 48.599 87.8724 48.4263C87.7017 48.2503 87.4974 48.1111 87.2717 48.0171C87.0397 47.9142 86.7889 47.861 86.5354 47.8609C86.2805 47.8533 86.0274 47.9069 85.797 48.0171C85.4544 48.165 85.1621 48.4102 84.9557 48.7228C84.7493 49.0354 84.6378 49.4017 84.6348 49.7771V49.7749ZM85.6419 48.5055H86.5354C86.6528 48.5083 86.7697 48.5208 86.885 48.5429C86.9962 48.5689 87.1015 48.6159 87.1952 48.6815C87.2875 48.738 87.363 48.8186 87.4137 48.9147C87.4765 49.042 87.5026 49.1846 87.4891 49.3261C87.4756 49.4676 87.4229 49.6025 87.3372 49.7155C87.2207 49.8396 87.0674 49.9222 86.9003 49.9509L87.5797 51.0641H87.0379L86.4546 50.0081H86.1247V51.0641H85.6878L85.6485 48.5055H85.6419ZM86.4568 49.6055C86.5844 49.6099 86.7112 49.5827 86.826 49.5263C86.8849 49.5005 86.9339 49.456 86.9655 49.3996C86.997 49.3433 87.0094 49.278 87.0008 49.2139C87.006 49.1579 86.9939 49.1016 86.9661 49.0527C86.9384 49.0039 86.8963 48.9649 86.8457 48.9411C86.7408 48.8964 86.6294 48.8696 86.5158 48.8619H86.1073V49.5857H86.4568V49.6055Z" fill="#0098DA"/>
</g>
<defs>
<clipPath id="clip0_811_7202">
<rect width="89" height="110" fill="white"/>
</clipPath>
</defs>
</svg>
