<svg width="168" height="62" viewBox="0 0 168 62" fill="none" xmlns="http://www.w3.org/2000/svg">
<g clip-path="url(#clip0_811_6176)">
<path d="M48.3917 7.929H8.65546L11.518 0H51.2543L48.3917 7.929ZM46.9605 11.8935H7.20627L4.34369 19.8225H44.08L46.9605 11.8935ZM42.6666 23.751H2.91239L0.0498047 31.68H39.7503L42.6666 23.751Z" fill="#00AAFF"/>
<path d="M143.07 51.5203H150.227C151.244 51.6426 152.275 51.511 153.23 51.137C154.185 50.763 155.034 50.1582 155.702 49.3759C156.683 48.0819 157.178 46.4792 157.097 44.8527C157.164 43.8177 156.976 42.7821 156.548 41.8386C156.12 40.8951 155.467 40.0733 154.646 39.4466C153.318 38.5711 151.738 38.1654 150.155 38.2933H143.07V51.5203ZM133.678 59.5034V11.8933H164.432L161.731 19.8764H143.07V30.4183H150.674C156.811 30.4183 159.995 31.896 162.196 33.7882C163.769 35.1915 165.007 36.9354 165.816 38.8891C166.624 40.8428 166.983 42.9556 166.866 45.069C166.986 47.3448 166.541 49.615 165.569 51.6732C164.597 53.7314 163.13 55.5124 161.301 56.8543C158.349 58.9087 155.254 59.4853 148.957 59.4853L133.678 59.5034ZM106.447 59.5034V19.8584H92.7783V11.8933H130.725L128.024 19.8764H115.929V59.5214L106.447 59.5034ZM68.5716 30.959H73.9389C75.0367 31.0345 76.1395 30.9495 77.213 30.7067C78.3295 30.3474 79.2916 29.6168 79.9418 28.6346C80.5919 27.6523 80.8914 26.4767 80.7912 25.3005C80.9402 24.1318 80.6581 22.9487 79.9986 21.9755C79.339 21.0022 78.3479 20.3066 77.213 20.0205C76.0409 19.7465 74.8367 19.6373 73.6348 19.6962H68.5716V30.959ZM68.5716 39.1943V51.6825H75.1197C76.9244 51.8903 78.7388 51.3865 80.1829 50.2769C80.8485 49.6558 81.3699 48.8945 81.7101 48.0473C82.0502 47.2001 82.2008 46.2878 82.151 45.3753C82.1795 43.9174 81.7403 42.4891 80.8986 41.3027C79.5031 39.5007 77.7855 39.1583 74.8514 39.1583L68.5716 39.1943ZM83.7075 34.1666V34.3288C85.3027 34.9473 86.7933 35.8105 88.1266 36.8877C89.4744 38.0143 90.5396 39.4449 91.2359 41.0636C91.9321 42.6822 92.2399 44.4434 92.1342 46.2043C92.1342 52.7096 88.6991 57.413 83.0634 58.8186C80.817 59.3717 78.5032 59.5962 76.1932 59.4853H59.1787V11.8933H74.3146C76.7187 11.8048 79.124 12.0289 81.4711 12.5601C86.9458 14.0378 90.5419 17.8401 90.5419 23.8409C90.5866 25.2716 90.3416 26.6965 89.8218 28.0287C89.302 29.3609 88.5182 30.5725 87.5183 31.5897C86.4565 32.6756 85.1917 33.5392 83.797 34.1306L83.7075 34.1666Z" fill="white"/>
</g>
<defs>
<clipPath id="clip0_811_6176">
<rect width="168" height="62" fill="white"/>
</clipPath>
</defs>
</svg>
