<svg width="122" height="106" viewBox="0 0 122 106" fill="none" xmlns="http://www.w3.org/2000/svg">
<g clip-path="url(#clip0_811_6661)">
<path d="M119.014 52.1669C112.325 48.4933 107.397 50.3216 100.708 52.4465C96.4121 53.6779 91.9624 54.299 87.4914 54.2916C86.7925 54.3084 86.0933 54.2634 85.4023 54.1574C82.5023 53.7157 79.4953 52.8994 77.5695 50.6069C77.3665 50.4535 77.1146 50.3782 76.8601 50.3946C76.6055 50.4111 76.3655 50.5182 76.1842 50.6962C76.0327 50.8301 75.9382 51.0159 75.9196 51.2162C75.8252 51.3121 75.7557 51.4292 75.7168 51.5574C75.3564 53.4418 74.7877 55.6336 72.7773 56.3772C71.0092 56.9811 70.3166 55.1025 69.776 53.7269C69.6244 53.3476 69.5112 52.9542 69.4382 52.5528C69.0271 50.316 69.3537 47.9955 69.4775 45.7311C69.6947 41.7365 70.1838 37.7611 70.9417 33.8322C71.302 31.8025 72.417 29.7896 72.6309 27.7374C72.8055 26.9825 72.3494 25.8978 71.4146 25.8474C71.0085 25.8021 70.5983 25.886 70.2431 26.087C69.8878 26.2881 69.6061 26.5956 69.4382 26.9657C69.0426 28.0575 68.7376 29.1796 68.5259 30.3208C68.4414 30.7289 68.3176 31.1259 68.2219 31.5286C67.1739 35.9307 66.5758 40.4268 66.4368 44.9482C66.0609 44.8028 65.6701 44.6997 65.2711 44.6406C64.5024 44.5063 63.7139 44.5336 62.9565 44.7203C62.199 44.9071 61.4893 45.2495 60.8732 45.7254C60.7623 45.8077 60.6586 45.8994 60.5635 45.9994C58.8404 47.7943 58.1985 50.3999 58.3675 52.8379C57.917 54.342 57.6522 56.573 55.8053 56.8526C54.1159 56.9701 52.8883 55.7343 51.8635 54.5713C51.447 54.1839 51.0697 53.7569 50.7373 53.2964C50.5778 52.9516 50.3691 52.6315 50.1178 52.3458C50.0446 52.284 49.9591 52.2382 49.8666 52.2116C49.7744 52.1849 49.6774 52.178 49.5822 52.1911C49.4871 52.2045 49.3957 52.2375 49.3143 52.2882C49.2329 52.3389 49.1632 52.4062 49.1098 52.4855C48.8508 52.9889 49.1098 53.604 49.2225 54.0904C49.3294 54.5042 49.4421 54.9123 49.5716 55.315C49.6504 55.5721 49.7292 55.8294 49.8024 56.0921C49.9142 56.4828 50.0515 56.8656 50.2136 57.2384C50.4388 57.7976 50.6584 58.3567 50.878 58.9159C51.3959 60.2494 51.8266 61.6147 52.1676 63.0033C52.9209 65.9378 53.1872 68.9747 52.9558 71.9945C52.8376 73.2526 52.8546 74.5275 52.6124 75.7743C52.145 77.1667 51.4411 80.4768 49.5998 80.488L49.2844 80.3594C48.0624 79.1909 47.9723 77.3624 47.5952 75.7521L47.184 73.6775C46.328 67.8121 46.987 61.8235 47.2234 55.9245C47.6514 53.1957 48.1076 50.4782 48.575 47.7608C48.7833 47.1513 48.9916 46.5418 49.1943 45.9323C49.9208 43.4664 50.8385 40.8384 50.4501 38.244C50.4031 37.8678 50.2682 37.5077 50.0559 37.1928C48.969 35.6774 46.9194 36.684 46.2887 38.4005C45.2413 40.9447 45.0441 43.7404 44.8078 46.4523L44.7401 47.6098C44.6331 48.415 44.5487 49.2257 44.4755 50.0365C44.3524 50.3163 44.2133 50.5889 44.0587 50.8528L43.9012 51.0933C43.4394 51.5462 42.9663 51.9823 42.4652 52.3906C41.2948 52.931 40.0395 53.2677 38.7543 53.3858C37.8147 53.4238 36.8735 53.392 35.9387 53.2908C34.9506 53.2807 33.9646 53.2003 32.9879 53.0504C32.8016 53.0204 32.6136 53.0017 32.4249 52.9945C31.6452 52.9901 30.8673 52.9209 30.0993 52.7875C29.9135 52.7423 29.7255 52.7069 29.5361 52.6813C28.303 52.5247 27.126 52.1221 25.904 51.9489C24.2541 51.6301 22.5986 51.3506 20.9713 50.9479C20.7966 50.9088 20.622 50.8752 20.4476 50.8528C18.9438 50.6043 17.4262 50.4474 15.9032 50.3832C15.7625 50.3832 15.6161 50.3832 15.4753 50.3832C13.8495 50.2657 12.217 50.2769 10.5931 50.4167C9.01303 50.4995 7.4463 50.7489 5.91927 51.1604C4.89429 51.3574 3.895 51.6689 2.94041 52.0886C1.76914 52.6981 0.029132 53.3803 0.000976562 54.8843C0.0124413 55.0925 0.0653726 55.2963 0.156705 55.4841C0.248037 55.6719 0.375957 55.8398 0.533064 55.9781C0.690171 56.1165 0.873344 56.2225 1.07198 56.29C1.27062 56.3576 1.48079 56.3853 1.69031 56.3718C2.12425 56.3364 2.52772 56.1362 2.81652 55.8126C3.07818 55.5495 3.36912 55.3169 3.68371 55.1192L4.24684 54.795C5.28297 54.2843 6.40216 53.9606 7.55229 53.8387C8.77753 53.5687 10.0309 53.4447 11.2857 53.4697C11.3926 53.4753 11.4998 53.4753 11.6067 53.4697C12.8562 53.3847 14.1106 53.4035 15.357 53.5257H15.6273C17.4894 53.5916 19.341 53.8331 21.157 54.2469C23.235 54.6943 25.3466 54.9962 27.4019 55.5218C27.5878 55.5665 27.7792 55.6001 27.9651 55.628C29.1915 55.8763 30.433 56.0444 31.6816 56.1313C31.9261 56.1304 32.1705 56.1434 32.4136 56.1704C34.0073 56.3662 35.6065 56.4165 37.2169 56.4779C38.4853 56.5733 39.7599 56.4166 40.9666 56.0173C42.1732 55.6178 43.2875 54.9838 44.2446 54.1518C44.1488 55.6616 44.0643 57.1769 43.9574 58.6811C43.6927 64.5801 43.6364 70.4568 44.5205 76.4174C45.0836 78.9728 45.5398 82.0536 48.0963 83.4236C50.5233 84.5978 53.2768 82.7862 54.2284 80.5104C54.899 78.9899 55.3374 77.3786 55.5293 75.7297C55.5912 72.8389 55.3829 69.8026 55.1633 66.8167C54.9042 64.1432 54.2672 61.5193 53.2712 59.0221C55.6363 60.5038 58.3842 59.967 59.7977 57.5628C60.1052 58.1241 60.5244 58.6178 61.0296 59.0138C61.5349 59.4097 62.1158 59.6999 62.7372 59.8665C64.77 60.3418 66.358 58.7482 67.3265 57.1489C67.3715 57.0762 67.411 57.0035 67.4504 56.9253C67.643 56.5172 67.8031 56.0947 67.929 55.6616L67.9628 55.7399C68.6328 57.272 69.9 58.5357 71.6455 58.6643C74.7877 59.1563 76.798 56.2823 77.3836 53.4641L77.6707 53.7325C78.8898 54.8174 80.2931 55.6787 81.8154 56.2767C83.7804 57.0727 85.8876 57.4645 88.0095 57.4285C92.7509 57.367 97.5317 56.8694 102.059 55.4099C106.587 53.9506 111.035 52.1501 115.765 54.068C117.302 54.5872 118.748 55.3419 120.051 56.3045C120.194 56.4228 120.363 56.5073 120.545 56.5518C120.726 56.5964 120.915 56.5997 121.098 56.5618C121.36 56.497 121.593 56.3451 121.757 56.1313C122.77 54.3587 120.388 52.8658 119.014 52.1669ZM66.8028 53.0616C66.0144 56.2655 64.0322 58.5413 62.371 58.1387C60.71 57.736 60.0061 54.7838 60.7943 51.6077C61.5828 48.4318 63.565 46.1279 65.2205 46.5306C66.876 46.9332 67.5911 49.8576 66.8028 53.0616Z" fill="#7BBB4E"/>
<path d="M37.1046 14.7646L37.572 15.43L34.824 17.387L36.0853 19.1316L38.5575 17.3758L39.036 18.0357L36.564 19.797L38.1858 22.0336L37.448 22.5536L33.6133 17.2361L37.1046 14.7646Z" fill="#7BBB4E"/>
<path d="M46.0588 13.8478C46.3839 14.4541 46.5192 15.1431 46.4469 15.8263C46.3746 16.5094 46.0983 17.1555 45.6535 17.6816C45.2086 18.2077 44.6155 18.5896 43.9505 18.7784C43.2853 18.9672 42.5786 18.9542 41.9209 18.741C41.2633 18.5279 40.6849 18.1244 40.2598 17.5824C39.835 17.0403 39.5829 16.3846 39.5362 15.6992C39.4896 15.0139 39.6503 14.3303 39.9978 13.7364C40.3452 13.1424 40.8637 12.6652 41.4864 12.366C41.884 12.1622 42.3184 12.0388 42.7645 12.0031C43.2106 11.9673 43.6592 12.0199 44.0845 12.1577C44.51 12.2956 44.9036 12.516 45.2425 12.8061C45.5813 13.0962 45.8589 13.4503 46.0588 13.8478ZM40.6473 16.4591C40.9468 17.062 41.474 17.5229 42.1142 17.7419C42.7544 17.9607 43.4556 17.9196 44.0655 17.6277C44.5141 17.4068 44.8871 17.0589 45.1372 16.6281C45.3875 16.1973 45.5039 15.7026 45.4715 15.2062C45.4393 14.7099 45.26 14.2341 44.9562 13.8387C44.6524 13.4433 44.2376 13.1459 43.764 12.984C43.2905 12.8221 42.7791 12.8028 42.2946 12.9287C41.81 13.0545 41.3737 13.3199 41.0406 13.6913C40.7076 14.0627 40.4924 14.5236 40.4226 15.0161C40.3526 15.5086 40.4308 16.0106 40.6473 16.4591Z" fill="#7BBB4E"/>
<path d="M53.7947 11.7119C53.9944 12.3693 53.9916 13.0709 53.7868 13.7266C53.582 14.3824 53.1844 14.9625 52.6453 15.3923C52.1061 15.8222 51.4499 16.0822 50.7609 16.139C50.0717 16.1959 49.3812 16.0469 48.7781 15.7113C48.175 15.3756 47.6865 14.8687 47.3755 14.2554C47.0646 13.6422 46.9452 12.9507 47.0329 12.2696C47.1206 11.5886 47.4112 10.9491 47.8675 10.4333C48.3239 9.91744 48.9251 9.54879 49.594 9.37466C50.0243 9.25063 50.4753 9.21285 50.9204 9.26353C51.3656 9.3142 51.7962 9.45232 52.1872 9.66984C52.5781 9.88735 52.9215 10.1799 53.1975 10.5305C53.4736 10.8811 53.6765 11.2827 53.7947 11.7119ZM47.9778 13.2272C48.1487 13.876 48.5724 14.4308 49.1552 14.7695C49.7382 15.1082 50.4327 15.2031 51.0862 15.0333C51.7395 14.8635 52.2982 14.4429 52.6394 13.8641C52.9804 13.2852 53.076 12.5956 52.905 11.9468C52.7339 11.298 52.3104 10.7432 51.7274 10.4045C51.1446 10.0658 50.4499 9.9709 49.7966 10.1407C49.1432 10.3105 48.5846 10.7311 48.2434 11.3099C47.9023 11.8888 47.8068 12.5784 47.9778 13.2272Z" fill="#7BBB4E"/>
<path d="M61.746 11.1302C61.7742 11.5705 61.7123 12.0119 61.5639 12.4278C61.4156 12.8437 61.1838 13.2254 60.8828 13.55C60.5818 13.8745 60.2178 14.1351 59.8124 14.316C59.4072 14.4969 58.9692 14.5944 58.525 14.6025L55.8784 14.7591L55.4785 8.25613L58.1534 8.09397C58.5918 8.04945 59.0348 8.09353 59.4557 8.22356C59.8766 8.35358 60.2667 8.56686 60.6024 8.85055C60.938 9.13424 61.2124 9.48245 61.4089 9.87424C61.6055 10.266 61.7202 10.6932 61.746 11.1302ZM60.8281 11.1917C60.8133 10.8658 60.7324 10.5463 60.5905 10.2522C60.4485 9.95804 60.2483 9.69533 60.0018 9.47977C59.7552 9.26421 59.4675 9.1002 59.1557 8.99756C58.8439 8.89492 58.5145 8.85574 58.1871 8.88238L56.4301 8.98862L56.7286 13.8924L58.525 13.7862C58.8501 13.773 59.1693 13.6945 59.4632 13.5555C59.7571 13.4166 60.0195 13.2199 60.2347 12.9775C60.4499 12.735 60.6135 12.4518 60.7154 12.1449C60.8174 11.838 60.8557 11.5137 60.8281 11.1917Z" fill="#7BBB4E"/>
<path d="M72.5911 12.7629C72.5039 13.1952 72.3293 13.6053 72.0775 13.9685C71.8257 14.3317 71.5024 14.6403 71.127 14.8756C70.7515 15.1109 70.3317 15.268 69.8932 15.3373C69.4548 15.4067 69.0068 15.3868 68.5763 15.279L65.9746 14.7199L67.3036 8.31201L69.9277 8.87116C70.3655 8.9415 70.7845 9.09985 71.1585 9.33647C71.5326 9.57311 71.8542 9.88305 72.1036 10.2474C72.3529 10.6117 72.5248 11.0227 72.6087 11.4552C72.6924 11.8877 72.6866 12.3327 72.5911 12.7629ZM71.6902 12.5839C71.7623 12.2655 71.7688 11.9359 71.7094 11.6149C71.6499 11.294 71.5258 10.9882 71.3443 10.7161C71.1628 10.444 70.9278 10.2111 70.6535 10.0315C70.379 9.85183 70.0709 9.72913 69.7475 9.67075L68.0187 9.31848L67.022 14.1328L68.7846 14.4962C69.1024 14.5678 69.4313 14.5747 69.7519 14.5164C70.0724 14.4581 70.3777 14.3359 70.6493 14.1572C70.9209 13.9784 71.1532 13.7469 71.3321 13.4765C71.511 13.206 71.6328 12.9024 71.6902 12.5839Z" fill="#7BBB4E"/>
<path d="M79.7833 12.0307L79.4792 12.7856L76.1005 11.4324L75.3403 13.2888L78.3868 14.4966L78.0827 15.2515L75.0362 14.0437L74.2141 16.0008L77.7279 17.393L77.4238 18.1479L73.0879 16.4201L75.5373 10.3477L79.7833 12.0307Z" fill="#7BBB4E"/>
<path d="M85.3333 17.7173C84.5731 18.9641 83.3287 19.2046 81.9265 18.3602L80.53 17.5215L79.4657 19.2661L78.7168 18.802L82.0954 13.2104L84.269 14.5189C85.6769 15.3464 86.0653 16.5207 85.3333 17.7173ZM84.5787 17.2978C85.0687 16.4927 84.7703 15.7546 83.8185 15.1842L82.4445 14.3679L80.9692 16.8226L82.3376 17.6446C83.2723 18.2149 84.072 18.131 84.5787 17.2978Z" fill="#7BBB4E"/>
<path d="M90.9443 23.8343C90.5046 24.364 89.9155 24.7512 89.2527 24.946C88.59 25.1411 87.8836 25.1349 87.2243 24.9285C86.5651 24.7221 85.983 24.3247 85.5526 23.7875C85.1224 23.2502 84.8635 22.5975 84.8095 21.9132C84.7553 21.2289 84.9083 20.5442 85.2488 19.9468C85.5894 19.3496 86.1019 18.8668 86.7206 18.5606C87.3393 18.2546 88.0361 18.139 88.7214 18.2288C89.4068 18.3186 90.0494 18.6097 90.567 19.0647C90.9104 19.3511 91.193 19.7025 91.3981 20.0985C91.6034 20.4945 91.7272 20.927 91.7623 21.371C91.7973 21.815 91.7431 22.2614 91.6028 22.6843C91.4623 23.1073 91.2384 23.4981 90.9443 23.8343ZM86.4394 19.8699C85.9946 20.3767 85.7689 21.0371 85.811 21.7079C85.8532 22.3787 86.1599 23.0061 86.6646 23.454C87.0428 23.7823 87.5104 23.9922 88.0086 24.0572C88.5067 24.122 89.013 24.0391 89.4638 23.8188C89.9144 23.5985 90.2894 23.2507 90.5415 22.8191C90.7936 22.3877 90.9113 21.8917 90.8801 21.3938C90.8488 20.8959 90.6698 20.4183 90.3657 20.0213C90.0616 19.6242 89.6459 19.3255 89.1711 19.1624C88.6963 18.9994 88.1835 18.9798 87.6974 19.1056C87.2114 19.2316 86.7735 19.4975 86.4394 19.8699Z" fill="#7BBB4E"/>
<path d="M97.2662 26.4121L96.6241 26.9321L95.284 25.2882L90.8072 28.889L90.2441 28.1902L94.749 24.5892L93.358 22.9565L94.0057 22.4365L97.2662 26.4121Z" fill="#7BBB4E"/>
<path d="M36.9027 89.4902C35.4837 88.3048 34.6503 86.5994 35.7259 85.3972L36.424 85.9563C35.8102 86.6385 36.1707 87.6785 37.1505 88.6067L39.0426 86.303C38.1021 85.4195 37.6178 84.4577 38.3217 83.5967C39.1101 82.6406 40.2251 82.9648 41.1654 83.7141L41.858 84.2733L40.2138 86.2694C41.9707 87.8743 41.7736 89.1099 41.0811 89.9655C40.09 91.2012 38.3386 90.6867 36.9027 89.4902ZM39.7183 86.9013L37.8432 89.1826C38.823 89.8984 39.7746 90.1611 40.3884 89.4119C41.0022 88.6626 40.76 87.8743 39.7127 86.9013H39.7183ZM39.555 85.6991L40.653 84.3572C39.8815 83.7421 39.3578 83.7645 39.0537 84.1335C38.6597 84.6031 38.8173 85.0338 39.5493 85.6991H39.555Z" fill="#7BBB4E"/>
<path d="M42.2458 93.1025L41.4404 92.6886L43.4283 88.7746C44.1998 87.2537 45.6131 86.7952 47.1673 87.5724C47.5145 87.7089 47.8274 87.9189 48.0841 88.188C48.3409 88.4571 48.5355 88.7786 48.654 89.1302C48.7725 89.4817 48.8123 89.8548 48.7705 90.223C48.7286 90.5915 48.6063 90.9463 48.4118 91.2628L46.4183 95.1769L45.6131 94.7742L47.601 90.8603C47.7411 90.646 47.8322 90.4039 47.8675 90.1508C47.9028 89.8978 47.8816 89.64 47.8052 89.3961C47.7288 89.1521 47.5993 88.9279 47.4258 88.7393C47.2524 88.5507 47.039 88.4024 46.8013 88.3049C46.5798 88.1727 46.3319 88.0905 46.0749 88.0637C45.8179 88.037 45.5582 88.0664 45.3139 88.1501C45.0696 88.2339 44.8468 88.3697 44.6612 88.5481C44.4755 88.7265 44.3314 88.9432 44.2391 89.1827L42.2458 93.1025Z" fill="#7BBB4E"/>
<path d="M51.9863 92.6886L50.2971 92.1296L49.0189 96.0435L48.1572 95.764L50.359 89.0542L51.2206 89.3337L50.5617 91.3411L52.2511 91.9003L51.9863 92.6886Z" fill="#7BBB4E"/>
<path d="M59.5277 96.0433L57.889 95.7918L57.568 97.855L56.6783 97.7208L57.3484 93.365C57.3855 93.1222 57.3739 92.8748 57.3146 92.6365C57.2551 92.3983 57.1491 92.1739 57.0024 91.9764C56.8559 91.7788 56.6713 91.6119 56.4597 91.485C56.248 91.3583 56.0133 91.2741 55.769 91.2374C55.5245 91.2006 55.2752 91.2121 55.0353 91.271C54.7953 91.3301 54.5694 91.4353 54.3704 91.581C54.1715 91.7267 54.0033 91.9098 53.8757 92.1199C53.7481 92.3301 53.6633 92.5632 53.6264 92.8058L53.4461 93.9801L52.5508 93.8403L52.7365 92.666C52.7626 92.2967 52.8698 91.9373 53.0504 91.6134C53.2311 91.2894 53.481 91.0086 53.7825 90.7907C54.084 90.5728 54.43 90.423 54.796 90.3519C55.162 90.2808 55.5393 90.2901 55.9012 90.3791C57.6188 90.6418 58.5029 91.8274 58.2438 93.5104L58.0129 94.9977L59.6516 95.2438L59.5277 96.0433Z" fill="#7BBB4E"/>
<path d="M70.8853 94.7182L69.2522 94.9809L69.5902 97.0386L68.7005 97.184L67.9796 92.8394C67.9522 92.586 67.8729 92.3409 67.7466 92.1189C67.6203 91.897 67.4498 91.7031 67.2455 91.5489C67.0411 91.3946 66.8072 91.2835 66.5582 91.2221C66.309 91.1608 66.0499 91.1505 65.7967 91.1921C65.5434 91.2336 65.3014 91.326 65.0855 91.4637C64.8694 91.6013 64.6839 91.7812 64.5404 91.9924C64.3968 92.2037 64.2981 92.4419 64.2505 92.6922C64.2028 92.9427 64.2071 93.2001 64.263 93.4489L64.4602 94.6175L63.5649 94.7628L63.3733 93.5943C63.2829 93.2352 63.2725 92.8609 63.343 92.4976C63.4136 92.1342 63.5632 91.7906 63.7816 91.4906C64 91.1908 64.2816 90.9418 64.6071 90.7615C64.9324 90.581 65.2936 90.4735 65.6653 90.4462C67.3827 90.1611 68.5934 91.0053 68.8693 92.6828L69.1171 94.1701L70.7501 93.9018L70.8853 94.7182Z" fill="#7BBB4E"/>
<path d="M71.9224 91.6483L72.632 93.3593C72.8225 93.8177 73.1884 94.182 73.6494 94.3723C74.1104 94.5625 74.6286 94.5633 75.09 94.3742C75.5515 94.1852 75.9184 93.8217 76.1101 93.364C76.3018 92.9064 76.3026 92.3918 76.1121 91.9334L75.8868 91.3744L76.7259 91.0333L76.9511 91.5924C77.1225 91.9216 77.2192 92.2843 77.234 92.6547C77.249 93.0251 77.1819 93.3943 77.0375 93.736C76.8929 94.078 76.6747 94.384 76.398 94.6329C76.1214 94.8819 75.7931 95.0674 75.4364 95.1766C73.8258 95.8364 72.4518 95.2829 71.7986 93.7005L70.1094 89.6298L70.9426 89.2887L71.6072 90.8878L76.174 89.0146L76.4894 89.7751L71.9224 91.6483Z" fill="#7BBB4E"/>
<path d="M83.2236 85.358L85.814 88.9309L85.0707 89.4621L82.486 85.8836C81.7427 85.0058 80.7459 84.9387 79.7324 85.5146L82.12 88.808L81.3823 89.328L78.9948 86.029C78.1162 86.8173 77.8178 87.8014 78.4879 88.7409L79.1862 89.7026L78.4485 90.2282L77.7502 89.2609C76.7535 87.8797 77.1872 86.3085 78.8764 85.0952C80.5658 83.8819 82.2438 83.9768 83.2236 85.358Z" fill="#7BBB4E"/>
<path d="M88.3575 86.4258L87.7606 87.0968L84.4213 84.2003C83.1318 83.082 83.0417 81.6115 84.1848 80.2863C84.4041 79.9871 84.6867 79.7391 85.0126 79.5596C85.3385 79.3802 85.7001 79.2736 86.0719 79.2475C86.4436 79.2215 86.8167 79.2763 87.1648 79.4085C87.5128 79.5405 87.8277 79.7466 88.0871 80.0122L91.4264 82.9088L90.8352 83.5853L87.4959 80.6888C87.315 80.5045 87.0979 80.3593 86.8578 80.2624C86.6178 80.1653 86.3602 80.1187 86.1011 80.1252C85.842 80.1317 85.5872 80.1914 85.3524 80.3002C85.1177 80.4093 84.9081 80.5652 84.7369 80.7583C84.5658 80.9515 84.4366 81.1778 84.3576 81.4228C84.2786 81.668 84.2515 81.9266 84.2778 82.1825C84.3042 82.4386 84.3837 82.6863 84.511 82.9104C84.6385 83.1344 84.8111 83.3299 85.0182 83.4846L88.3575 86.4258Z" fill="#7BBB4E"/>
<path d="M10.5025 43.3712H10.3955V43.2539C10.3976 43.224 10.3976 43.1942 10.3955 43.1644C12.2144 35.3116 15.5411 27.8808 20.1936 21.279C24.16 15.5979 29.3107 10.8303 35.2963 7.30019C42.5041 3.11212 50.8832 0.964968 60.197 0.909053C67.9714 0.881858 75.6739 2.38908 82.8566 5.34315C89.6389 8.0931 95.7278 12.2931 100.69 17.6446C106.777 24.237 111.102 32.641 113.546 42.6276L113.332 42.6778C107.825 20.1551 93.6739 10.0624 82.7721 5.56122C75.6193 2.61422 67.9467 1.11252 60.2026 1.1439C43.3093 1.23895 29.8847 8.06623 20.3739 21.4412C15.7406 28.0211 12.4256 35.4247 10.6095 43.2483C10.5813 43.2929 10.5813 43.3712 10.5025 43.3712Z" fill="#7BBB4E"/>
<path d="M13.5596 43.3655L13.4639 43.2481C14.9379 36.1479 17.8083 29.4062 21.9105 23.4093C25.6071 17.898 30.4882 13.269 36.2023 9.85536C43.1454 5.75676 51.2992 3.65434 60.416 3.60402C67.7093 3.45506 74.9564 4.78698 81.7129 7.5181C88.1089 10.0628 93.8502 13.9966 98.5161 19.031C104.26 25.26 108.354 33.2559 110.685 42.7952L110.471 42.8454C105.211 21.3349 91.8883 11.8739 81.6397 7.72498C74.911 4.9998 67.6927 3.66789 60.4273 3.8109C20.5929 4.03456 13.6891 42.8623 13.6891 43.2537L13.5596 43.3655Z" fill="#7BBB4E"/>
<path d="M61.2624 102.345C51.9767 102.345 43.654 100.209 36.5136 95.9874C30.4071 92.3006 25.2116 87.3 21.3097 81.3544C16.9092 74.7541 13.8046 67.3876 12.1592 59.6425V59.5362L12.3619 59.5027V59.6088C14.0089 67.337 17.1117 74.6864 21.5069 81.2705C28.0389 90.9718 40.4274 102.457 62.1972 102.121C69.9712 101.678 77.5821 99.7226 84.5977 96.3677C95.156 91.2682 108.412 80.4933 111.588 58.0879L111.802 58.1215C110.394 68.052 106.914 76.5735 101.446 83.4064C96.9308 88.9946 91.1994 93.4948 84.6821 96.5689C77.64 99.9356 70.0004 101.896 62.1972 102.339L61.2624 102.345Z" fill="#7BBB4E"/>
<path d="M61.882 104.99C51.6615 104.99 42.6236 102.792 35.0103 98.4421C28.452 94.6462 22.9078 89.3421 18.8435 82.9759C14.2707 75.9038 11.24 67.9592 9.94629 59.6537V59.5474L10.1546 59.5137V59.6256C11.4447 67.865 14.4457 75.7482 18.9673 82.7747C25.6796 93.1023 38.8564 105.303 63.5037 104.744C71.4436 104.269 79.204 102.199 86.3154 98.6601C97.1045 93.2643 110.698 81.8464 114.212 58.0879L114.432 58.1215C112.872 68.6503 109.228 77.692 103.592 84.9218C98.9953 90.7862 93.1242 95.5436 86.4167 98.8391C79.2803 102.406 71.4892 104.499 63.515 104.99H61.882Z" fill="#7BBB4E"/>
</g>
<defs>
<clipPath id="clip0_811_6661">
<rect width="122" height="106" fill="white"/>
</clipPath>
</defs>
</svg>
