<svg width="147" height="80" viewBox="0 0 147 80" fill="none" xmlns="http://www.w3.org/2000/svg">
<g clip-path="url(#clip0_811_7180)">
<path d="M2.48438 12.3174H61.3879V77.0999H2.48438V12.3174ZM84.8872 12.3174H143.791V77.0999H84.8872V12.3174Z" fill="white"/>
<path d="M28.5705 51.9531H28.3635C25.7754 52.0566 25.1543 54.8507 25.1543 58.8867C25.1543 61.8878 25.8789 65.0959 28.467 65.1994C31.055 65.1994 31.6761 61.8878 31.7797 58.8867C31.8832 54.9542 31.262 52.1601 28.5705 51.9531Z" fill="#E61523"/>
<path d="M45.4448 9.62717V3.72844L41.718 0.00292969H22.9807L19.1504 3.72844V9.62717H-0.000976562V79.998H64.4927V9.62717H45.4448ZM52.4842 25.5641H56.6251V42.5359H52.4842V25.5641ZM56.6251 49.6764V52.4706H47.8258V49.6764H56.6251ZM22.9807 3.72844H41.718V9.62717H22.9807V3.72844ZM33.2293 25.4606V42.5359H29.2955V25.4606H33.2293ZM7.65959 25.6676H10.6617L17.08 37.879L23.4983 25.6676H26.2934V42.4324H22.5666V33.1186L17.3906 42.5359H15.2166L10.4547 33.0151V42.4324H7.65959V25.6676ZM17.8047 66.3378C15.1131 68.304 10.3511 67.8901 7.65959 66.8552L8.17719 64.1645C9.52297 64.7855 11.6969 65.0959 13.5603 64.9924C15.8378 64.7855 16.7694 63.0262 15.7342 61.7844C14.699 60.3355 10.8687 59.9216 8.79832 57.7484C7.03846 55.8856 7.55607 52.5741 9.31593 51.1252C11.8004 49.0555 16.7694 49.6764 18.9434 50.2974L18.4258 52.781C17.4941 52.2636 11.5934 51.3322 11.1793 53.9194C10.8687 55.6786 13.5603 56.5065 14.9061 57.1275C16.6659 57.8519 18.3223 58.8867 19.1504 60.1286C19.9786 61.3704 20.2892 64.5785 17.8047 66.3378ZM28.5709 67.6831C23.4983 67.6831 21.7385 63.8541 21.5314 58.8867C21.4279 55.4717 22.2561 52.8845 24.0159 51.2287C25.1547 50.0904 26.604 49.5729 28.5709 49.5729C30.5378 49.5729 31.9871 49.9869 33.1258 51.2287C34.8856 52.8845 35.7138 55.4717 35.6103 58.8867C35.4033 63.7506 33.5399 67.6831 28.5709 67.6831ZM36.2314 25.5641H38.4054L46.7906 35.7058V25.5641H49.5856V42.5359H47.9293L39.0265 32.1872V42.5359H36.2314V25.5641ZM42.5462 51.4357C42.5462 52.6775 41.6145 53.6089 40.3723 53.6089C39.2335 53.6089 38.1983 52.6775 38.1983 51.4357C38.1983 50.1939 39.13 49.2625 40.3723 49.2625C41.511 49.2625 42.5462 50.1939 42.5462 51.4357ZM47.3082 67.6831C42.0286 67.6831 37.6807 63.3366 37.6807 57.8519V57.4379H40.2687V57.8519C40.2687 61.7844 43.3744 64.9924 47.3082 64.9924C51.242 64.9924 54.3476 61.7844 54.3476 57.8519V57.4379H56.9356V57.8519C56.9356 63.2332 52.5878 67.6831 47.3082 67.6831ZM127.951 9.62717V3.72844L124.224 0.00292969H105.487L101.657 3.72844V9.62717H82.5054V79.998H146.999V9.62717H127.951ZM134.266 22.2525L137.061 24.5292C135.612 26.4955 133.541 28.3582 130.436 30.428V44.1917H126.916V31.7733C124.328 32.4977 121.947 33.0151 119.255 33.4291L119.152 29.6001C125.984 28.8757 129.918 27.1164 134.266 22.2525ZM105.487 3.72844H124.224V9.62717H105.487V3.72844ZM93.168 49.7799L96.7913 48.0207C98.0335 50.4008 99.1723 53.2985 100.415 56.61L96.6878 57.9554C95.549 55.1612 94.5138 52.3671 93.168 49.7799ZM110.249 57.1275C108.593 61.3704 105.384 64.8889 98.9652 69.2354L96.7913 65.8203C104.762 60.9565 107.143 57.3344 108.282 48.5381L112.216 48.952C111.802 52.0566 111.181 54.7473 110.249 57.1275ZM113.562 40.3627C111.491 38.6034 109.007 36.7406 106.108 35.2918C102.692 40.1557 98.6547 42.7428 92.2364 44.9161L91.0976 41.0871C95.6525 39.4313 100 37.465 102.588 33.2221C99.5864 31.7733 96.7913 30.3245 94.3068 29.4966L95.7561 25.8745C98.4476 26.9094 101.45 28.2547 104.348 29.9105C105.176 27.8408 105.694 25.2536 105.798 22.77L109.938 22.8734C109.628 25.978 109.007 28.8757 107.765 31.7733C111.181 33.636 114.079 35.6023 116.15 37.3615L113.562 40.3627ZM137.475 55.2647C137.475 58.4728 137.061 61.1634 136.543 62.0948C134.369 66.4412 129.711 68.097 124.846 68.304L124.121 64.0611C128.158 63.9576 130.953 62.8192 132.506 60.5425C133.541 58.9902 133.541 57.4379 133.541 54.5403H122.568V57.4379L118.841 57.3344V50.1939H126.088V47.6067H130.022V50.1939H137.475V55.2647Z" fill="#E61523"/>
</g>
<defs>
<clipPath id="clip0_811_7180">
<rect width="147" height="80" fill="white"/>
</clipPath>
</defs>
</svg>
