<svg width="40" height="40" viewBox="0 0 40 40" fill="none" xmlns="http://www.w3.org/2000/svg">
<path d="M22.5935 33.4956H4.85164C4.24397 33.4938 3.75181 33.0016 3.75 32.3939V11.4618L11.4614 3.75H26.8843C27.492 3.75181 27.9842 4.244 27.986 4.85169V20.2753L22.5935 33.4956Z" fill="#EAEBEC"/>
<path d="M11.4614 3.75V10.3601C11.4596 10.9678 10.9675 11.46 10.3598 11.4618H3.75L11.4614 3.75Z" fill="#BDBFC4"/>
<path d="M25.7854 9.25825C25.4812 9.25825 25.2346 9.01163 25.2346 8.70741V6.50403H23.0313C22.7271 6.50403 22.4805 6.25741 22.4805 5.95319C22.4805 5.64897 22.7271 5.40234 23.0313 5.40234H25.7854C26.0896 5.40234 26.3362 5.64897 26.3362 5.95319V8.70741C26.3362 9.01163 26.0896 9.25825 25.7854 9.25825Z" fill="white"/>
<path d="M14.7662 14.767H6.50394C6.19973 14.767 5.95312 14.5204 5.95312 14.2161C5.95312 13.9119 6.19973 13.6653 6.50394 13.6653H14.7662C15.0704 13.6653 15.317 13.9119 15.317 14.2161C15.317 14.5204 15.0704 14.767 14.7662 14.767Z" fill="#707680"/>
<path d="M14.7662 17.5211H6.50394C6.19973 17.5211 5.95312 17.2745 5.95312 16.9703C5.95312 16.6661 6.19973 16.4194 6.50394 16.4194H14.7662C15.0704 16.4194 15.317 16.6661 15.317 16.9703C15.317 17.2745 15.0704 17.5211 14.7662 17.5211Z" fill="#707680"/>
<path d="M25.235 14.767H16.9727C16.6685 14.767 16.4219 14.5204 16.4219 14.2161C16.4219 13.9119 16.6685 13.6653 16.9727 13.6653H25.235C25.5392 13.6653 25.7858 13.9119 25.7858 14.2161C25.7858 14.5204 25.5392 14.767 25.235 14.767Z" fill="#707680"/>
<path d="M25.235 17.5211H16.9727C16.6685 17.5211 16.4219 17.2745 16.4219 16.9703C16.4219 16.6661 16.6685 16.4194 16.9727 16.4194H25.235C25.5392 16.4194 25.7858 16.6661 25.7858 16.9703C25.7858 17.2745 25.5392 17.5211 25.235 17.5211Z" fill="#707680"/>
<path d="M27.9849 35.6988C32.2438 35.6988 35.6963 32.2461 35.6963 27.987C35.6963 23.7278 32.2438 20.2751 27.9849 20.2751C23.726 20.2751 20.2734 23.7278 20.2734 27.987C20.2734 32.2461 23.726 35.6988 27.9849 35.6988Z" fill="#ECF0F1"/>
<path d="M34.6401 24.0874C31.6124 22.3107 27.7669 22.8032 25.2846 25.2856C22.8023 27.768 22.3098 31.6137 24.0865 34.6416C21.3019 33.0075 19.8299 29.8117 20.398 26.6333C20.9662 23.4549 23.454 20.9669 26.6323 20.3988C29.8105 19.8306 33.0062 21.3026 34.6401 24.0874Z" fill="white"/>
<path d="M27.9844 22.4783C27.6802 22.4783 27.4336 22.2317 27.4336 21.9275V20.275C27.4336 19.9707 27.6802 19.7241 27.9844 19.7241C28.2886 19.7241 28.5352 19.9707 28.5352 20.275V21.9275C28.5352 22.2317 28.2886 22.4783 27.9844 22.4783Z" fill="#BDBFC4"/>
<path d="M27.9844 36.2494C27.6802 36.2494 27.4336 36.0027 27.4336 35.6985V34.4134C27.4336 34.1092 27.6802 33.8625 27.9844 33.8625C28.2886 33.8625 28.5352 34.1092 28.5352 34.4134V35.6985C28.5352 36.0027 28.2886 36.2494 27.9844 36.2494Z" fill="#BDBFC4"/>
<path d="M35.6955 28.5377H34.043C33.7388 28.5377 33.4922 28.2911 33.4922 27.9869C33.4922 27.6827 33.7388 27.436 34.043 27.436H35.6955C35.9997 27.436 36.2463 27.6827 36.2463 27.9869C36.2463 28.2911 35.9997 28.5377 35.6955 28.5377Z" fill="#BDBFC4"/>
<path d="M21.5585 28.5377H20.2735C19.9693 28.5377 19.7227 28.2911 19.7227 27.9869C19.7227 27.6827 19.9693 27.436 20.2735 27.436H21.5585C21.8627 27.436 22.1093 27.6827 22.1093 27.9869C22.1093 28.2911 21.8627 28.5377 21.5585 28.5377Z" fill="#BDBFC4"/>
<path d="M21.5587 32.2475C21.3094 32.2475 21.0912 32.0801 21.0266 31.8393C20.9621 31.5985 21.0674 31.3443 21.2832 31.2197L22.3546 30.6016C22.6178 30.452 22.9525 30.5428 23.1039 30.805C23.2552 31.0673 23.1666 31.4025 22.9054 31.5557L21.8335 32.1732C21.75 32.2216 21.6552 32.2473 21.5587 32.2475Z" fill="#BDBFC4"/>
<path d="M33.3399 25.4457C33.0906 25.4457 32.8724 25.2782 32.8079 25.0374C32.7434 24.7966 32.8486 24.5425 33.0645 24.4178L34.1353 23.8003C34.3058 23.7019 34.5159 23.702 34.6863 23.8005C34.8568 23.8989 34.9618 24.0809 34.9617 24.2778C34.9617 24.4746 34.8566 24.6565 34.6861 24.7549L33.6148 25.373C33.5311 25.4209 33.4363 25.4459 33.3399 25.4457Z" fill="#BDBFC4"/>
<path d="M34.4105 32.2474C34.3138 32.2476 34.2189 32.2223 34.1351 32.1742L33.0637 31.5556C32.8919 31.4579 32.7856 31.2756 32.7852 31.0779C32.7847 30.8803 32.8902 30.6975 33.0616 30.5991C33.233 30.5006 33.444 30.5015 33.6145 30.6015L34.6859 31.2196C34.9018 31.3442 35.007 31.5984 34.9425 31.8392C34.878 32.08 34.6598 32.2474 34.4105 32.2474Z" fill="#BDBFC4"/>
<path d="M22.6303 25.4459C22.5336 25.4459 22.4386 25.4205 22.3549 25.3721L21.2835 24.7541C21.0199 24.6019 20.9296 24.2649 21.0817 24.0013C21.2338 23.7377 21.5708 23.6473 21.8344 23.7994L22.9057 24.418C23.1216 24.5427 23.2268 24.7968 23.1623 25.0376C23.0978 25.2785 22.8796 25.4459 22.6303 25.4459Z" fill="#BDBFC4"/>
<path d="M24.8933 23.1818C24.6963 23.182 24.5142 23.077 24.4158 22.9064L23.7983 21.8355C23.6983 21.665 23.6974 21.454 23.7958 21.2826C23.8943 21.1112 24.077 21.0057 24.2747 21.0061C24.4723 21.0065 24.6546 21.1129 24.7523 21.2847L25.3709 22.3555C25.4692 22.5259 25.4693 22.7357 25.371 22.9061C25.2728 23.0765 25.0911 23.1816 24.8944 23.1818H24.8933Z" fill="#BDBFC4"/>
<path d="M31.6952 34.9645C31.4982 34.9647 31.3161 34.8597 31.2176 34.6891L30.5991 33.6182C30.4991 33.4477 30.4982 33.2367 30.5966 33.0653C30.6951 32.8939 30.8778 32.7884 31.0755 32.7888C31.2731 32.7893 31.4554 32.8956 31.5531 33.0674L32.1706 34.1382C32.2689 34.3086 32.269 34.5185 32.1707 34.6888C32.0724 34.8592 31.8908 34.9643 31.6941 34.9645H31.6952Z" fill="#BDBFC4"/>
<path d="M24.2768 34.9645C24.0801 34.9643 23.8985 34.8592 23.8002 34.6888C23.702 34.5185 23.702 34.3086 23.8004 34.1382L24.4189 33.0674C24.5166 32.8956 24.6989 32.7893 24.8966 32.7888C25.0942 32.7884 25.2769 32.8939 25.3754 33.0653C25.4738 33.2367 25.4729 33.4477 25.3729 33.6182L24.7544 34.6891C24.6559 34.8597 24.4738 34.9647 24.2768 34.9645Z" fill="#BDBFC4"/>
<path d="M31.0737 23.1819C30.877 23.1817 30.6953 23.0766 30.5971 22.9062C30.4988 22.7358 30.4989 22.526 30.5972 22.3556L31.2158 21.2848C31.3689 21.0236 31.7042 20.9349 31.9664 21.0863C32.2286 21.2377 32.3195 21.5724 32.1698 21.8356L31.5512 22.9065C31.4528 23.0771 31.2707 23.1821 31.0737 23.1819Z" fill="#BDBFC4"/>
<path d="M31.84 28.5382H29.6368C29.3325 28.5382 29.0859 28.2916 29.0859 27.9874C29.0859 27.6831 29.3325 27.4365 29.6368 27.4365H31.84C32.1442 27.4365 32.3908 27.6831 32.3908 27.9874C32.3908 28.2916 32.1442 28.5382 31.84 28.5382Z" fill="#293241"/>
<path d="M27.9844 26.8854C27.6802 26.8854 27.4336 26.6388 27.4336 26.3345V24.1312C27.4336 23.8269 27.6802 23.5803 27.9844 23.5803C28.2886 23.5803 28.5352 23.8269 28.5352 24.1312V26.3345C28.5352 26.6388 28.2886 26.8854 27.9844 26.8854Z" fill="#293241"/>
<path d="M27.9884 29.6398C28.901 29.6398 29.6408 28.8999 29.6408 27.9872C29.6408 27.0746 28.901 26.3347 27.9884 26.3347C27.0758 26.3347 26.3359 27.0746 26.3359 27.9872C26.3359 28.8999 27.0758 29.6398 27.9884 29.6398Z" fill="#293241"/>
<path d="M27.9888 36.2499C23.4257 36.2499 19.7266 32.5506 19.7266 27.9873C19.7266 23.4239 23.4257 19.7246 27.9888 19.7246C32.552 19.7246 36.2511 23.4239 36.2511 27.9873C36.2459 32.5485 32.5498 36.2448 27.9888 36.2499ZM27.9888 20.8263C24.0341 20.8263 20.8282 24.0324 20.8282 27.9873C20.8282 31.9422 24.0341 35.1482 27.9888 35.1482C31.9435 35.1482 35.1495 31.9422 35.1495 27.9873C35.1449 24.0343 31.9417 20.8309 27.9888 20.8263Z" fill="#293241"/>
</svg>
