<svg width="40" height="40" viewBox="0 0 40 40" fill="none" xmlns="http://www.w3.org/2000/svg">
<path d="M32.3825 31.2148L28.459 30.2339L31.8081 33.1765H33.7698C34.1072 33.1765 34.3455 32.8431 34.2335 32.5249C33.9648 31.7618 33.2375 31.2148 32.3825 31.2148Z" fill="#293241"/>
<path d="M30.4205 31.2147L24.5352 29.2529L26.4969 33.1765H31.8078C32.1452 33.1765 32.3835 32.843 32.2715 32.5248C32.0028 31.7617 31.2755 31.2147 30.4205 31.2147Z" fill="#707680"/>
<path d="M29.9303 9.63525L28.459 22.3868L30.4208 31.2147H32.3825V10.1257C32.3825 9.85484 32.1629 9.63525 31.8921 9.63525H29.9303Z" fill="#FF7A5C"/>
<path d="M29.4396 25.3294L30.4205 23.8581V20.9154L29.4396 19.4441L30.4205 17.9728V15.0301L29.4396 13.5588L30.4205 12.0875V10.1257C30.4205 9.85484 30.2009 9.63525 29.93 9.63525H24.5352V31.2147H30.4205V26.8007L29.4396 25.3294Z" fill="#EA411B"/>
<path d="M6.87892 31.2147C6.02392 31.2147 5.29662 31.7617 5.02799 32.5248C4.91597 32.8431 5.15426 33.1765 5.49169 33.1765H12.7642L14.726 29.2529L6.87892 31.2147Z" fill="#707680"/>
<path d="M6.87891 10.1257V31.2147H14.726V9.63525H7.36935C7.09849 9.63525 6.87891 9.85484 6.87891 10.1257Z" fill="#EA411B"/>
<path d="M8.83984 15.0303V12.0876C8.83984 11.8168 9.05943 11.5972 9.33029 11.5972H10.3112C10.582 11.5972 10.8016 11.8168 10.8016 12.0876V15.0303C10.8016 15.3011 10.582 15.5207 10.3112 15.5207H9.33029C9.05943 15.5207 8.83984 15.3011 8.83984 15.0303Z" fill="white"/>
<path d="M8.83984 26.8008V23.8581C8.83984 23.5873 9.05943 23.3677 9.33029 23.3677H10.3112C10.582 23.3677 10.8016 23.5873 10.8016 23.8581V26.8008C10.8016 27.0716 10.582 27.2912 10.3112 27.2912H9.33029C9.05943 27.2912 8.83984 27.0716 8.83984 26.8008Z" fill="white"/>
<path d="M8.83984 20.9155V17.9729C8.83984 17.702 9.05943 17.4824 9.33029 17.4824H10.3112C10.582 17.4824 10.8016 17.702 10.8016 17.9729V20.9155C10.8016 21.1864 10.582 21.406 10.3112 21.406H9.33029C9.05943 21.406 8.83984 21.1864 8.83984 20.9155Z" fill="white"/>
<path d="M28.459 15.0303V12.0876C28.459 11.8168 28.6786 11.5972 28.9494 11.5972H29.9303C30.2012 11.5972 30.4208 11.8168 30.4208 12.0876V15.0303C30.4208 15.3011 30.2012 15.5207 29.9303 15.5207H28.9494C28.6786 15.5207 28.459 15.3011 28.459 15.0303Z" fill="#D6F9FA"/>
<path d="M28.459 26.8008V23.8581C28.459 23.5873 28.6786 23.3677 28.9494 23.3677H29.9303C30.2012 23.3677 30.4208 23.5873 30.4208 23.8581V26.8008C30.4208 27.0716 30.2012 27.2912 29.9303 27.2912H28.9494C28.6786 27.2912 28.459 27.0716 28.459 26.8008Z" fill="#D6F9FA"/>
<path d="M28.459 20.9155V17.9729C28.459 17.702 28.6786 17.4824 28.9494 17.4824H29.9303C30.2012 17.4824 30.4208 17.702 30.4208 17.9729V20.9155C30.4208 21.1864 30.2012 21.406 29.9303 21.406H28.9494C28.6786 21.406 28.459 21.1864 28.459 20.9155Z" fill="#D6F9FA"/>
<path d="M24.0436 3.75L22.5723 25.3295L26.4958 23.3677V4.24044C26.4958 3.96959 26.2762 3.75 26.0054 3.75H24.0436Z" fill="#293241"/>
<path d="M23.5534 19.4442L24.5343 17.9728V15.0302L23.5534 13.5589L24.5343 12.0875V9.14487L23.5534 7.67354L24.5343 6.20221V4.24044C24.5343 3.96959 24.3147 3.75 24.0439 3.75H13.2541C12.9833 3.75 12.7637 3.96959 12.7637 4.24044V23.3677L24.5343 25.3295V20.9155L23.5534 19.4442Z" fill="#707680"/>
<path d="M24.534 33.1765H26.4958V23.3677H24.534L22.5723 28.2721L24.534 33.1765Z" fill="#707680"/>
<path d="M12.7637 23.3677V33.1765H16.6872L19.6299 32.1956L22.5725 33.1765H24.5343V23.3677H12.7637Z" fill="#9DA1A8"/>
<path d="M21.32 31.2148H18.0117L21.3117 36.2501H23.6391C24.0264 36.2501 24.2609 35.8222 24.0525 35.4958L21.32 31.2148Z" fill="#293241"/>
<path d="M17.9392 31.2148L15.2068 35.4958C14.9983 35.8222 15.2328 36.2501 15.6202 36.2501H21.3118C21.6992 36.2501 21.9337 35.8222 21.7253 35.4958L18.9927 31.2148H17.9392Z" fill="#293241"/>
<path d="M22.0824 25.3296H17.1779C16.9071 25.3296 16.6875 25.5492 16.6875 25.82V27.2914L19.6302 28.2722L22.5728 27.2914V25.82C22.5728 25.5492 22.3532 25.3296 22.0824 25.3296Z" fill="#BDBFC4"/>
<path d="M16.6855 27.2915H22.5709V33.1768H16.6855V27.2915Z" fill="white"/>
<path d="M18.6484 20.9155V17.9729C18.6484 17.702 18.868 17.4824 19.1389 17.4824H20.1198C20.3906 17.4824 20.6102 17.702 20.6102 17.9729V20.9155C20.6102 21.1864 20.3906 21.406 20.1198 21.406H19.1389C18.868 21.406 18.6484 21.1864 18.6484 20.9155Z" fill="white"/>
<path d="M22.5723 20.9155V17.9729C22.5723 17.702 22.7919 17.4824 23.0627 17.4824H24.0436C24.3144 17.4824 24.534 17.702 24.534 17.9729V20.9155C24.534 21.1864 24.3144 21.406 24.0436 21.406H23.0627C22.7919 21.406 22.5723 21.1864 22.5723 20.9155Z" fill="white"/>
<path d="M18.6484 15.0303V12.0876C18.6484 11.8168 18.868 11.5972 19.1389 11.5972H20.1198C20.3906 11.5972 20.6102 11.8168 20.6102 12.0876V15.0303C20.6102 15.3011 20.3906 15.5207 20.1198 15.5207H19.1389C18.868 15.5207 18.6484 15.3011 18.6484 15.0303Z" fill="white"/>
<path d="M14.7246 20.9155V17.9729C14.7246 17.702 14.9442 17.4824 15.2151 17.4824H16.1959C16.4668 17.4824 16.6864 17.702 16.6864 17.9729V20.9155C16.6864 21.1864 16.4668 21.406 16.1959 21.406H15.2151C14.9442 21.406 14.7246 21.1864 14.7246 20.9155Z" fill="white"/>
<path d="M14.7246 15.0303V12.0876C14.7246 11.8168 14.9442 11.5972 15.2151 11.5972H16.1959C16.4668 11.5972 16.6864 11.8168 16.6864 12.0876V15.0303C16.6864 15.3011 16.4668 15.5207 16.1959 15.5207H15.2151C14.9442 15.5207 14.7246 15.3011 14.7246 15.0303Z" fill="white"/>
<path d="M22.5723 15.0303V12.0876C22.5723 11.8168 22.7919 11.5972 23.0627 11.5972H24.0436C24.3144 11.5972 24.534 11.8168 24.534 12.0876V15.0303C24.534 15.3011 24.3144 15.5207 24.0436 15.5207H23.0627C22.7919 15.5207 22.5723 15.3011 22.5723 15.0303Z" fill="white"/>
<path d="M18.6484 9.14501V6.20236C18.6484 5.9315 18.868 5.71191 19.1389 5.71191H20.1198C20.3906 5.71191 20.6102 5.9315 20.6102 6.20236V9.14501C20.6102 9.41587 20.3906 9.63545 20.1198 9.63545H19.1389C18.868 9.63545 18.6484 9.41587 18.6484 9.14501Z" fill="white"/>
<path d="M14.7246 9.14501V6.20236C14.7246 5.9315 14.9442 5.71191 15.2151 5.71191H16.1959C16.4668 5.71191 16.6864 5.9315 16.6864 6.20236V9.14501C16.6864 9.41587 16.4668 9.63545 16.1959 9.63545H15.2151C14.9442 9.63545 14.7246 9.41587 14.7246 9.14501Z" fill="white"/>
<path d="M22.5723 9.14501V6.20236C22.5723 5.9315 22.7919 5.71191 23.0627 5.71191H24.0436C24.3144 5.71191 24.534 5.9315 24.534 6.20236V9.14501C24.534 9.41587 24.3144 9.63545 24.0436 9.63545H23.0627C22.7919 9.63545 22.5723 9.41587 22.5723 9.14501Z" fill="white"/>
</svg>
