<svg width="40" height="40" viewBox="0 0 40 40" fill="none" xmlns="http://www.w3.org/2000/svg">
<path d="M22.5935 33.4956H4.85164C4.24397 33.4938 3.75181 33.0016 3.75 32.3939V11.4618L11.4614 3.75H26.8843C27.492 3.75181 27.9842 4.244 27.986 4.85169V20.2753L22.5935 33.4956Z" fill="#EAEBEC"/>
<path d="M11.4614 3.75V10.3601C11.4596 10.9678 10.9675 11.46 10.3598 11.4618H3.75L11.4614 3.75Z" fill="#BDBFC4"/>
<path d="M25.7834 9.25825C25.4792 9.25825 25.2326 9.01163 25.2326 8.70741V6.50403H23.0293C22.7251 6.50403 22.4785 6.25741 22.4785 5.95319C22.4785 5.64897 22.7251 5.40234 23.0293 5.40234H25.7834C26.0876 5.40234 26.3342 5.64897 26.3342 5.95319V8.70741C26.3342 9.01163 26.0876 9.25825 25.7834 9.25825Z" fill="white"/>
<path d="M35.6963 27.987C35.6963 32.2461 32.2438 35.6988 27.9849 35.6988C23.726 35.6988 20.2734 32.2461 20.2734 27.987C20.2734 23.7278 23.726 20.2751 27.9849 20.2751C30.0301 20.2751 31.9915 21.0876 33.4377 22.5339C34.8839 23.9801 35.6963 25.9417 35.6963 27.987Z" fill="#293241"/>
<path d="M28.5354 27.4794V24.0091C29.4144 24.1091 30.1035 24.8107 30.1879 25.6913C30.1879 25.9956 30.4345 26.2422 30.7387 26.2422C31.0429 26.2422 31.2895 25.9956 31.2895 25.6913C31.2895 24.2839 30.0959 23.1156 28.5354 22.8887V22.4788C28.5354 22.1746 28.2888 21.928 27.9846 21.928C27.6804 21.928 27.4338 22.1746 27.4338 22.4788V22.8892C25.8733 23.1161 24.6797 24.2845 24.6797 25.6919C24.6797 27.0993 25.8733 28.2682 27.4338 28.4951V31.9655C26.5548 31.8654 25.8657 31.1639 25.7813 30.2832C25.7813 29.979 25.5347 29.7323 25.2305 29.7323C24.9263 29.7323 24.6797 29.979 24.6797 30.2832C24.6797 31.6906 25.8733 32.8589 27.4338 33.0859V33.4957C27.4338 33.7999 27.6804 34.0466 27.9846 34.0466C28.2888 34.0466 28.5354 33.7999 28.5354 33.4957V33.0853C30.0959 32.8584 31.2895 31.69 31.2895 30.2826C31.2895 28.8752 30.0959 27.7063 28.5354 27.4794ZM25.7813 25.6919C25.8657 24.8112 26.5548 24.1097 27.4338 24.0096V27.3742C26.5548 27.2741 25.8657 26.5726 25.7813 25.6919ZM28.5354 31.9649V28.5998C29.414 28.7011 30.1025 29.4023 30.1879 30.2826C30.1035 31.1633 29.4144 31.8649 28.5354 31.9649Z" fill="white"/>
<path d="M14.7682 14.767H6.5059C6.20169 14.767 5.95508 14.5204 5.95508 14.2161C5.95508 13.9119 6.20169 13.6653 6.5059 13.6653H14.7682C15.0724 13.6653 15.319 13.9119 15.319 14.2161C15.319 14.5204 15.0724 14.767 14.7682 14.767Z" fill="#707680"/>
<path d="M14.7682 17.5211H6.5059C6.20169 17.5211 5.95508 17.2745 5.95508 16.9703C5.95508 16.6661 6.20169 16.4194 6.5059 16.4194H14.7682C15.0724 16.4194 15.319 16.6661 15.319 16.9703C15.319 17.2745 15.0724 17.5211 14.7682 17.5211Z" fill="#707680"/>
<path d="M25.233 14.767H16.9707C16.6665 14.767 16.4199 14.5204 16.4199 14.2161C16.4199 13.9119 16.6665 13.6653 16.9707 13.6653H25.233C25.5372 13.6653 25.7838 13.9119 25.7838 14.2161C25.7838 14.5204 25.5372 14.767 25.233 14.767Z" fill="#707680"/>
<path d="M25.233 17.5211H16.9707C16.6665 17.5211 16.4199 17.2745 16.4199 16.9703C16.4199 16.6661 16.6665 16.4194 16.9707 16.4194H25.233C25.5372 16.4194 25.7838 16.6661 25.7838 16.9703C25.7838 17.2745 25.5372 17.5211 25.233 17.5211Z" fill="#707680"/>
<path d="M27.9869 36.2499C23.4238 36.2499 19.7246 32.5506 19.7246 27.9873C19.7246 23.4239 23.4238 19.7246 27.9869 19.7246C32.55 19.7246 36.2491 23.4239 36.2491 27.9873C36.2575 30.1812 35.3897 32.2877 33.8384 33.8391C32.2871 35.3905 30.1807 36.2583 27.9869 36.2499ZM27.9869 20.8263C24.0341 20.8309 20.8308 24.0343 20.8262 27.9873C20.8302 31.9405 24.0338 35.1443 27.9869 35.1482C31.9416 35.1482 35.1475 31.9422 35.1475 27.9873C35.1475 24.0324 31.9416 20.8263 27.9869 20.8263Z" fill="white"/>
</svg>
