<svg width="40" height="40" viewBox="0 0 40 40" fill="none" xmlns="http://www.w3.org/2000/svg">
<path d="M28.6614 18.3193V9.91421C28.6614 8.67634 27.6578 7.67285 26.4199 7.67285H8.48762C7.24966 7.67285 6.24609 8.67634 6.24609 9.91421V34.0088C6.24609 35.2467 7.24966 36.2502 8.48762 36.2502H26.4199C27.6578 36.2502 28.6614 35.2467 28.6614 34.0088V18.3193Z" fill="#293241"/>
<path d="M24.7418 7.67285C24.7418 8.91072 23.7382 9.91421 22.5003 9.91421H12.4134C11.1754 9.91421 10.1719 8.91072 10.1719 7.67285H24.7418Z" fill="#293241"/>
<path d="M25.2997 9.91431H9.60905C8.99006 9.91431 8.48828 10.4161 8.48828 11.035V32.8883C8.48828 33.5072 8.99006 34.0089 9.60905 34.0089H25.2997C25.9187 34.0089 26.4205 33.5072 26.4205 32.8883V11.035C26.4205 10.4161 25.9187 9.91431 25.2997 9.91431Z" fill="#EAEBEC"/>
<path d="M10.3177 30.3447C10.1111 30.3445 9.92134 30.2306 9.82396 30.0484C9.72658 29.8662 9.73737 29.6452 9.85204 29.4733L10.9728 27.7923C11.0827 27.6454 11.2555 27.5588 11.439 27.5588C11.6226 27.5588 11.7954 27.6454 11.9053 27.7923L12.5592 28.7757L13.2138 27.794C13.3237 27.647 13.4965 27.5605 13.68 27.5605C13.8635 27.5605 14.0363 27.647 14.1463 27.794L15.1006 29.224H16.4819C16.7914 29.224 17.0423 29.4749 17.0423 29.7843C17.0423 30.0938 16.7914 30.3447 16.4819 30.3447H14.8008C14.6135 30.3447 14.4385 30.2511 14.3345 30.0953L13.68 29.1119L13.0255 30.0936C12.9156 30.2406 12.7428 30.3271 12.5592 30.3271C12.3757 30.3271 12.2029 30.2406 12.093 30.0936L11.4385 29.1119L10.784 30.0953C10.68 30.2511 10.505 30.3447 10.3177 30.3447Z" fill="#707680"/>
<path d="M10.3177 24.0361C10.1111 24.0359 9.92134 23.922 9.82396 23.7398C9.72658 23.5576 9.73737 23.3366 9.85204 23.1647L10.9728 21.4837C11.0827 21.3368 11.2555 21.2502 11.439 21.2502C11.6226 21.2502 11.7954 21.3368 11.9053 21.4837L12.5592 22.4671L13.2138 21.4854C13.3237 21.3385 13.4965 21.2519 13.68 21.2519C13.8635 21.2519 14.0363 21.3385 14.1463 21.4854L15.1006 22.9154H16.4819C16.7914 22.9154 17.0423 23.1663 17.0423 23.4757C17.0423 23.7852 16.7914 24.0361 16.4819 24.0361H14.8008C14.6135 24.0361 14.4385 23.9425 14.3345 23.7867L13.68 22.8033L13.0255 23.785C12.9156 23.932 12.7428 24.0185 12.5592 24.0185C12.3757 24.0185 12.2029 23.932 12.093 23.785L11.4385 22.8033L10.784 23.7867C10.68 23.9425 10.505 24.0361 10.3177 24.0361Z" fill="#707680"/>
<path d="M10.3177 17.7861C10.1111 17.7859 9.92134 17.672 9.82396 17.4898C9.72658 17.3076 9.73737 17.0866 9.85204 16.9147L10.9728 15.2337C11.0827 15.0868 11.2555 15.0002 11.439 15.0002C11.6226 15.0002 11.7954 15.0868 11.9053 15.2337L12.5592 16.2171L13.2138 15.2354C13.3237 15.0885 13.4965 15.0019 13.68 15.0019C13.8635 15.0019 14.0363 15.0885 14.1463 15.2354L15.1006 16.6654H16.4819C16.7914 16.6654 17.0423 16.9163 17.0423 17.2257C17.0423 17.5352 16.7914 17.7861 16.4819 17.7861H14.8008C14.6135 17.7861 14.4385 17.6925 14.3345 17.5367L13.68 16.5533L13.0255 17.535C12.9156 17.682 12.7428 17.7685 12.5592 17.7685C12.3757 17.7685 12.2029 17.682 12.093 17.535L11.4385 16.5533L10.784 17.5367C10.68 17.6925 10.505 17.7861 10.3177 17.7861Z" fill="#707680"/>
<path d="M19.8452 30.3446H18.7244C18.415 30.3446 18.1641 30.0937 18.1641 29.7842C18.1641 29.4747 18.415 29.2239 18.7244 29.2239H19.8452C20.1547 29.2239 20.4056 29.4747 20.4056 29.7842C20.4056 30.0937 20.1547 30.3446 19.8452 30.3446Z" fill="#707680"/>
<path d="M20.0391 24.036H18.7891C18.4439 24.036 18.1641 23.7851 18.1641 23.4756C18.1641 23.1662 18.4439 22.9153 18.7891 22.9153H20.0391C20.3842 22.9153 20.6641 23.1662 20.6641 23.4756C20.6641 23.7851 20.3842 24.036 20.0391 24.036Z" fill="#707680"/>
<path d="M20.0391 17.786H18.7891C18.4439 17.786 18.1641 17.5351 18.1641 17.2256C18.1641 16.9162 18.4439 16.6653 18.7891 16.6653H20.0391C20.3842 16.6653 20.6641 16.9162 20.6641 17.2256C20.6641 17.5351 20.3842 17.786 20.0391 17.786Z" fill="#707680"/>
<path d="M22.4967 8.79331H12.4098C11.7908 8.79331 11.2891 8.29156 11.2891 7.67263V7.12854C11.2888 6.76626 11.4638 6.42622 11.7587 6.21574L14.9192 3.95813C15.1095 3.82262 15.3373 3.74993 15.5709 3.75025H19.3356C19.5693 3.75026 19.7972 3.82334 19.9873 3.95925L23.1479 6.21574C23.4428 6.42622 23.6177 6.76626 23.6175 7.12854V7.67263C23.6175 8.29156 23.1157 8.79331 22.4967 8.79331Z" fill="#ECF0F1"/>
<path d="M18.5753 7.11238H16.3338C16.0243 7.11238 15.7734 6.86151 15.7734 6.55204C15.7734 6.24257 16.0243 5.9917 16.3338 5.9917H18.5753C18.8848 5.9917 19.1357 6.24257 19.1357 6.55204C19.1357 6.86151 18.8848 7.11238 18.5753 7.11238Z" fill="#BDBFC4"/>
<path d="M31.2954 23.7847C31.1348 23.7846 30.9901 23.6879 30.9287 23.5396C30.8672 23.3913 30.9012 23.2205 31.0147 23.107L33.2602 20.8613C33.4152 20.7062 33.4152 20.455 33.2602 20.2999L32.6988 19.7382C32.5484 19.5824 32.5505 19.3348 32.7037 19.1817C32.8568 19.0286 33.1044 19.0264 33.2602 19.1769L33.8216 19.7382C34.045 19.9616 34.1705 20.2645 34.1705 20.5804C34.1705 20.8963 34.045 21.1993 33.8216 21.4226L31.5761 23.6683C31.5016 23.7428 31.4007 23.7846 31.2954 23.7847Z" fill="#BDBFC4"/>
<path d="M33.7283 18.0546C33.7287 18.4758 33.5616 18.88 33.2638 19.178L30.175 22.2666C30.019 22.4214 29.7673 22.4214 29.6113 22.2666L27.9279 20.5794C27.774 20.4245 27.774 20.1745 27.9279 20.0196L31.0167 16.9311C31.4709 16.4764 32.1544 16.3403 32.7482 16.5863C33.3419 16.8323 33.7288 17.4119 33.7283 18.0546Z" fill="#EA411B"/>
<path d="M29.6084 22.2663L24.5584 27.3159L22.8711 25.6327L27.9251 20.5791L29.6084 22.2663Z" fill="#D5401F"/>
<path d="M20.6313 29.96C20.4708 29.96 20.326 29.8633 20.2646 29.715C20.2032 29.5667 20.2371 29.3959 20.3506 29.2824L21.9605 27.6722C22.1163 27.5218 22.3639 27.5239 22.5171 27.6771C22.6702 27.8302 22.6724 28.0778 22.5219 28.2336L20.914 29.8437C20.8391 29.9187 20.7373 29.9606 20.6313 29.96Z" fill="#707680"/>
<path d="M24.5618 27.3163L21.6675 29.067C21.5117 29.1556 21.3158 29.1288 21.1895 29.0016C21.0632 28.8744 21.0378 28.6783 21.1276 28.5231L22.8745 25.6331L24.5618 27.3163Z" fill="#BDC3C7"/>
</svg>
