<svg width="20" height="20" viewBox="0 0 20 20" fill="none" xmlns="http://www.w3.org/2000/svg">
<g clip-path="url(#clip0_184_2343)">
<path d="M10.1758 0.833252C6.11328 0.833252 2.64453 3.45825 1.36328 7.08325H19.0508C17.7383 3.45825 14.2695 0.833252 10.1758 0.833252Z" fill="#EFEFEF"/>
<path d="M10.1758 19.5833C14.2695 19.5833 17.7383 16.9583 19.0195 13.3333H1.36328C2.64453 16.9895 6.11328 19.5833 10.1758 19.5833Z" fill="#F33649"/>
<path d="M1.36328 7.08325C1.01953 8.052 0.832031 9.1145 0.832031 10.2083C0.832031 11.302 1.01953 12.3645 1.36328 13.3333H19.0508C19.3945 12.3645 19.582 11.302 19.582 10.2083C19.582 9.1145 19.3945 8.052 19.0508 7.08325H1.36328Z" fill="#2E61E3"/>
<circle cx="10.209" cy="10.2084" r="9.375" stroke="#E1E1E1" stroke-width="0.416667"/>
</g>
<defs>
<clipPath id="clip0_184_2343">
<rect width="20" height="20" fill="white"/>
</clipPath>
</defs>
</svg>
