<svg width="72" height="72" viewBox="0 0 72 72" fill="none" xmlns="http://www.w3.org/2000/svg">
<g clip-path="url(#clip0_688_403)">
<g filter="url(#filter0_di_688_403)">
<path fill-rule="evenodd" clip-rule="evenodd" d="M36 66C21.8579 66 14.7868 66 10.3934 61.6066C6 57.2132 6 50.1421 6 36C6 21.8579 6 14.7868 10.3934 10.3934C14.7868 6 21.8579 6 36 6C50.1421 6 57.2132 6 61.6066 10.3934C66 14.7868 66 21.8579 66 36C66 50.1421 66 57.2132 61.6066 61.6066C57.2132 66 50.1421 66 36 66ZM48.091 26.909C48.9697 27.7877 48.9697 29.2123 48.091 30.091L33.091 45.091C32.2123 45.9697 30.7877 45.9697 29.909 45.091L23.909 39.091C23.0303 38.2123 23.0303 36.7877 23.909 35.909C24.7877 35.0303 26.2123 35.0303 27.091 35.909L31.5 40.318L44.909 26.909C45.7877 26.0303 47.2123 26.0303 48.091 26.909Z" fill="url(#paint0_linear_688_403)"/>
</g>
</g>
<defs>
<filter id="filter0_di_688_403" x="-227.139" y="-103.713" width="1047.41" height="1047.41" filterUnits="userSpaceOnUse" color-interpolation-filters="sRGB">
<feFlood flood-opacity="0" result="BackgroundImageFix"/>
<feColorMatrix in="SourceAlpha" type="matrix" values="0 0 0 0 0 0 0 0 0 0 0 0 0 0 0 0 0 0 127 0" result="hardAlpha"/>
<feOffset dx="260.567" dy="383.994"/>
<feGaussianBlur stdDeviation="246.853"/>
<feComposite in2="hardAlpha" operator="out"/>
<feColorMatrix type="matrix" values="0 0 0 0 0.360784 0 0 0 0 0.541176 0 0 0 0 0.764706 0 0 0 0.3 0"/>
<feBlend mode="normal" in2="BackgroundImageFix" result="effect1_dropShadow_688_403"/>
<feBlend mode="normal" in="SourceGraphic" in2="effect1_dropShadow_688_403" result="shape"/>
<feColorMatrix in="SourceAlpha" type="matrix" values="0 0 0 0 0 0 0 0 0 0 0 0 0 0 0 0 0 0 127 0" result="hardAlpha"/>
<feOffset dy="13.7141"/>
<feGaussianBlur stdDeviation="15.9769"/>
<feComposite in2="hardAlpha" operator="arithmetic" k2="-1" k3="1"/>
<feColorMatrix type="matrix" values="0 0 0 0 0.940532 0 0 0 0 0.981692 0 0 0 0 0.994689 0 0 0 0.8 0"/>
<feBlend mode="normal" in2="shape" result="effect2_innerShadow_688_403"/>
</filter>
<linearGradient id="paint0_linear_688_403" x1="66" y1="6" x2="9.75" y2="66" gradientUnits="userSpaceOnUse">
<stop stop-color="#4DF791"/>
<stop offset="1" stop-color="#3DA24D"/>
</linearGradient>
<clipPath id="clip0_688_403">
<rect width="72" height="72" fill="white"/>
</clipPath>
</defs>
</svg>
