<svg width="40" height="40" viewBox="0 0 40 40" fill="none" xmlns="http://www.w3.org/2000/svg">
<path d="M4.47236 31.3326H35.5278C35.9267 31.3326 36.25 31.0092 36.25 30.6104C36.25 30.2115 35.9267 29.8882 35.5278 29.8882H4.47236C4.07349 29.8882 3.75014 30.2115 3.75014 30.6104C3.75014 31.0092 4.07349 31.3326 4.47236 31.3326Z" fill="#E1E1E1"/>
<path d="M3.74865 8.61942V25.8801C3.75181 26.497 4.25116 26.9963 4.86809 26.9995H6.63753C6.63753 25.4041 7.93092 24.1107 9.52641 24.1107C11.1219 24.1107 12.4153 25.4041 12.4153 26.9995H24.368V12.2304C24.3712 11.6135 24.8705 11.1142 25.4875 11.111H33.5185C33.8295 11.1106 34.0815 10.8586 34.0819 10.5477V8.61942C34.0901 8.13444 33.8049 7.69243 33.3596 7.5H5.26531C4.25421 7.5 3.74865 8.00554 3.74865 8.61942Z" fill="#545B67"/>
<path d="M32.6385 26.9986H34.4079C35.0248 26.9954 35.5242 26.4961 35.5273 25.8792V18.5921C35.5268 18.0577 35.1488 17.5981 34.6246 17.4944L32.6168 16.8877L31.2663 13.9989L30.219 11.7673C30.0661 11.4194 29.7433 11.176 29.3668 11.1246C29.3119 11.1158 29.2563 11.111 29.2007 11.1101H25.0913C24.4743 11.1133 23.975 11.6126 23.9718 12.2295V26.9986H32.6385Z" fill="#BDBFC4"/>
<path d="M29.7517 29.889C28.1563 29.889 26.8629 28.5956 26.8629 27.0001C26.8629 25.4047 28.1563 24.1113 29.7517 24.1113C31.3472 24.1113 32.6406 25.4047 32.6406 27.0001C32.6406 28.5956 31.3472 29.889 29.7517 29.889Z" fill="#293241"/>
<path d="M26.8611 14.5628V16.325C26.8615 16.636 27.1135 16.8879 27.4244 16.8883H32.6172L31.2666 13.9995H27.4244C27.1135 13.9999 26.8615 14.2519 26.8611 14.5628Z" fill="#EAEBEC"/>
<path d="M26.1419 20.5001H27.5864C27.9852 20.5001 28.3086 20.1767 28.3086 19.7779C28.3086 19.379 27.9852 19.0557 27.5864 19.0557H26.1419C25.7431 19.0557 25.4197 19.379 25.4197 19.7779C25.4197 20.1767 25.7431 20.5001 26.1419 20.5001Z" fill="#BDC3C7"/>
<path d="M31.9162 21.2215C31.9162 21.6203 32.2396 21.9437 32.6385 21.9437H35.5273V20.4993H32.6385C32.2396 20.4993 31.9162 20.8226 31.9162 21.2215Z" fill="#EA411B"/>
<path d="M29.747 28.4442C28.9492 28.4442 28.3025 27.7976 28.3025 26.9998C28.3025 26.2021 28.9492 25.5554 29.747 25.5554C30.5447 25.5554 31.1914 26.2021 31.1914 26.9998C31.1914 27.7976 30.5447 28.4442 29.747 28.4442Z" fill="#EAEBEC"/>
<path d="M9.52909 29.889C7.93361 29.889 6.64022 28.5956 6.64022 27.0001C6.64022 25.4047 7.93361 24.1113 9.52909 24.1113C11.1246 24.1113 12.418 25.4047 12.418 27.0001C12.418 28.5956 11.1246 29.889 9.52909 29.889Z" fill="#293241"/>
<path d="M3.75484 20.5425V21.7124C8.26768 20.1261 13.2133 22.4906 14.812 26.999H18.1992C18.198 23.5819 16.189 20.4845 13.0693 19.0901C9.94966 17.6956 6.30182 18.2644 3.75484 20.5425Z" fill="#545B67"/>
<path d="M9.53212 28.4435C8.73438 28.4435 8.08769 27.7968 8.08769 26.9991C8.08769 26.2014 8.73438 25.5547 9.53212 25.5547C10.3299 25.5547 10.9766 26.2014 10.9766 26.9991C10.9766 27.7968 10.3299 28.4435 9.53212 28.4435Z" fill="#EAEBEC"/>
</svg>
