<svg width="40" height="40" viewBox="0 0 40 40" fill="none" xmlns="http://www.w3.org/2000/svg">
<path d="M9.35345 36.2486H7C5.20507 36.2486 3.75 34.7935 3.75 32.9986V15.1236C3.75039 13.6962 4.49894 12.3735 5.72241 11.6383L17.9099 4.32576C19.1976 3.55808 20.8024 3.55808 22.0901 4.32576L34.2776 11.6383C35.5011 12.3735 36.2496 13.6962 36.25 15.1236V32.9986C36.25 34.7935 34.7949 36.2486 33 36.2486H9.35345Z" fill="#707680"/>
<path d="M24.242 8.79154C24.1407 8.79151 24.0413 8.7638 23.9546 8.71141L20.6486 6.72779C20.2484 6.49541 19.7543 6.49541 19.3542 6.72779L16.0481 8.71141C15.8763 8.82148 15.6582 8.82942 15.4788 8.73215C15.2994 8.63488 15.1871 8.44778 15.1856 8.24372C15.184 8.03965 15.2936 7.8509 15.4715 7.75098L18.7776 5.76736C19.5339 5.32527 20.4699 5.32527 21.2263 5.76736L24.5323 7.75098C24.7483 7.88087 24.851 8.13898 24.7833 8.38176C24.7156 8.62454 24.4941 8.79222 24.242 8.79154Z" fill="#EAEBEC"/>
<path d="M9.35547 17.1968H30.6486V36.2485H9.35547V17.1968Z" fill="#293241"/>
<path d="M31.2066 14.395H8.79277C8.4833 14.395 8.23242 14.6459 8.23242 14.9554V16.6364C8.23242 16.9459 8.4833 17.1967 8.79277 17.1967H31.2066C31.516 17.1967 31.7669 16.9459 31.7669 16.6364V14.9554C31.7669 14.6459 31.516 14.395 31.2066 14.395Z" fill="#EAEBEC"/>
<path d="M18.8765 28.4038H13.273C12.6541 28.4038 12.1523 28.9056 12.1523 29.5245V35.1279C12.1523 35.7469 12.6541 36.2486 13.273 36.2486H18.8765C19.4954 36.2486 19.9972 35.7469 19.9972 35.1279V29.5245C19.9972 28.9056 19.4954 28.4038 18.8765 28.4038Z" fill="#A56A43"/>
<path d="M26.7241 28.4038H21.1207C20.5017 28.4038 20 28.9056 20 29.5245V35.1279C20 35.7469 20.5017 36.2486 21.1207 36.2486H26.7241C27.3431 36.2486 27.8448 35.7469 27.8448 35.1279V29.5245C27.8448 28.9056 27.3431 28.4038 26.7241 28.4038Z" fill="#CB8252"/>
<path d="M22.8023 20.5591H17.1988C16.5799 20.5591 16.0781 21.0608 16.0781 21.6798V27.2832C16.0781 27.9022 16.5799 28.4039 17.1988 28.4039H22.8023C23.4212 28.4039 23.923 27.9022 23.923 27.2832V21.6798C23.923 21.0608 23.4212 20.5591 22.8023 20.5591Z" fill="#CF976A"/>
<path d="M21.6824 20.5591V23.3608C21.6813 23.5664 21.5678 23.7549 21.3866 23.8519C21.2053 23.9489 20.9855 23.939 20.8138 23.8259L20.3095 23.4953C20.1243 23.3664 19.8784 23.3664 19.6932 23.4953L19.1888 23.8259C19.0172 23.939 18.7974 23.9489 18.6161 23.8519C18.4349 23.7549 18.3214 23.5664 18.3203 23.3608V20.5591H21.6824Z" fill="#FAC176"/>
<path d="M17.7625 28.4038V31.2055C17.7614 31.4111 17.6479 31.5996 17.4666 31.6966C17.2854 31.7937 17.0656 31.7837 16.8939 31.6706L16.3896 31.34C16.2044 31.2111 15.9585 31.2111 15.7732 31.34L15.2689 31.6706C15.0972 31.7837 14.8774 31.7937 14.6962 31.6966C14.515 31.5996 14.4015 31.4111 14.4004 31.2055V28.4038H17.7625Z" fill="#FAC176"/>
<path d="M25.6082 28.4038V31.2055C25.6071 31.4111 25.4936 31.5996 25.3123 31.6966C25.1311 31.7937 24.9113 31.7837 24.7396 31.6706L24.2353 31.34C24.0501 31.2111 23.8042 31.2111 23.6189 31.34L23.1146 31.6706C22.9429 31.7837 22.7231 31.7937 22.5419 31.6966C22.3607 31.5996 22.2472 31.4111 22.2461 31.2055V28.4038H25.6082Z" fill="#FAC176"/>
</svg>
