<svg width="40" height="40" viewBox="0 0 40 40" fill="none" xmlns="http://www.w3.org/2000/svg">
<path d="M9.35345 36.2486H7C5.20507 36.2486 3.75 34.7935 3.75 32.9986V15.1236C3.75039 13.6962 4.49894 12.3735 5.72241 11.6383L17.9099 4.32576C19.1976 3.55808 20.8024 3.55808 22.0901 4.32576L34.2776 11.6383C35.5011 12.3735 36.2496 13.6962 36.25 15.1236V32.9986C36.25 34.7935 34.7949 36.2486 33 36.2486H9.35345Z" fill="#707680"/>
<path d="M24.244 8.79154C24.1427 8.79151 24.0433 8.7638 23.9565 8.71141L20.6505 6.72779C20.2503 6.49541 19.7563 6.49541 19.3561 6.72779L16.0501 8.71141C15.8782 8.82148 15.6601 8.82942 15.4807 8.73215C15.3014 8.63488 15.189 8.44778 15.1875 8.24372C15.186 8.03965 15.2955 7.8509 15.4735 7.75098L18.7795 5.76736C19.5359 5.32527 20.4718 5.32527 21.2282 5.76736L24.5343 7.75098C24.7503 7.88087 24.853 8.13898 24.7852 8.38176C24.7175 8.62454 24.496 8.79222 24.244 8.79154Z" fill="#EAEBEC"/>
<path d="M9.35547 17.1968H30.6486V36.2485H9.35547V17.1968Z" fill="#293241"/>
<path d="M31.2085 14.395H8.79472C8.48525 14.395 8.23438 14.6459 8.23438 14.9554V16.6364C8.23438 16.9459 8.48525 17.1967 8.79472 17.1967H31.2085C31.518 17.1967 31.7689 16.9459 31.7689 16.6364V14.9554C31.7689 14.6459 31.518 14.395 31.2085 14.395Z" fill="#EAEBEC"/>
</svg>
