<svg width="243" height="168" viewBox="0 0 243 168" fill="none" xmlns="http://www.w3.org/2000/svg">
<rect x="0.5" y="0.5" width="242" height="167" rx="15.5" fill="white"/>
<rect x="0.5" y="0.5" width="242" height="167" rx="15.5" stroke="#9DA8B9"/>
<g clip-path="url(#clip0_521_7745)">
<mask id="mask0_521_7745" style="mask-type:luminance" maskUnits="userSpaceOnUse" x="46" y="65" width="152" height="38">
<path d="M198 65H46V103H198V65Z" fill="white"/>
</mask>
<g mask="url(#mask0_521_7745)">
<path d="M137.224 101.644C137.236 101.394 137.296 101.149 137.401 100.922C137.519 100.64 137.651 100.312 137.798 99.9386C137.958 99.524 138.09 99.0996 138.195 98.6681C138.317 98.1535 138.377 97.6262 138.372 97.0976C138.38 96.358 138.23 95.6253 137.93 94.9483C137.647 94.3122 137.24 93.7385 136.732 93.2605C136.218 92.7823 135.616 92.4082 134.959 92.1586C134.274 91.8957 133.546 91.7628 132.812 91.7667C132.015 91.7613 131.225 91.9248 130.496 92.2462C129.794 92.5526 129.17 93.0099 128.667 93.5853C128.403 93.884 128.077 94.2973 127.689 94.8252C127.301 95.3532 126.852 96.0211 126.341 96.8289C125.812 97.6555 125.348 98.3411 124.947 98.8855C124.615 99.3503 124.238 99.7822 123.822 100.175C123.528 100.456 123.184 100.681 122.807 100.836C122.461 100.963 122.095 101.026 121.726 101.022C121.322 101.024 120.921 100.943 120.549 100.786C120.187 100.635 119.856 100.42 119.572 100.151C119.312 99.9032 119.098 99.6116 118.941 99.2897C118.761 99.7294 118.441 100.099 118.031 100.342C118.294 100.841 118.644 101.289 119.065 101.665C119.552 102.096 120.118 102.43 120.733 102.649C121.377 102.879 122.057 102.995 122.741 102.991C123.304 102.998 123.865 102.931 124.41 102.792C124.944 102.641 125.444 102.388 125.881 102.048C126.444 101.607 126.952 101.101 127.395 100.541C127.92 99.902 128.516 99.0797 129.183 98.0746C129.673 97.3368 130.107 96.708 130.485 96.1883C130.806 95.7336 131.171 95.3101 131.573 94.9235C131.885 94.6232 132.252 94.3845 132.653 94.2201C133.067 94.0682 133.506 93.9944 133.947 94.0027C134.374 94.0005 134.797 94.0807 135.194 94.2391C135.58 94.3932 135.933 94.6219 136.23 94.912C136.538 95.2152 136.781 95.5775 136.944 95.9767C137.125 96.4215 137.215 96.8979 137.209 97.3778C137.21 97.9699 137.105 98.5577 136.9 99.1136C136.686 99.6858 136.347 100.204 135.908 100.631C135.397 101.12 134.798 101.508 134.143 101.777C133.422 102.088 132.547 102.298 131.518 102.406V102.854H138.372V102.406C137.94 102.347 137.641 102.256 137.475 102.132C137.396 102.077 137.331 102.004 137.288 101.919C137.244 101.834 137.222 101.739 137.224 101.644Z" fill="black" stroke="white" stroke-width="0.279412"/>
<path d="M130.594 93.2621C130.08 92.7842 129.478 92.41 128.821 92.1602C128.137 91.8974 127.408 91.7645 126.674 91.7684C125.877 91.7629 125.087 91.9263 124.357 92.2478C123.656 92.5546 123.032 93.0119 122.529 93.587C122.264 93.8856 121.939 94.2989 121.551 94.8269C121.164 95.3548 120.714 96.0221 120.203 96.8289C119.674 97.6593 119.208 98.3463 118.805 98.8897C118.473 99.3546 118.097 99.7865 117.681 100.179C117.387 100.46 117.042 100.684 116.666 100.84C116.32 100.967 115.954 101.031 115.585 101.026C115.181 101.028 114.78 100.948 114.408 100.79C114.156 100.684 113.917 100.547 113.699 100.382C113.374 100.753 112.983 101.061 112.547 101.292C112.665 101.424 112.79 101.55 112.923 101.668C113.41 102.099 113.977 102.434 114.592 102.652C115.236 102.882 115.916 102.998 116.6 102.995C117.163 103.001 117.724 102.934 118.268 102.795C118.803 102.644 119.302 102.392 119.74 102.051C120.303 101.61 120.811 101.104 121.254 100.544C121.779 99.9053 122.374 99.083 123.042 98.0779C123.532 97.34 123.966 96.7112 124.343 96.1915C124.665 95.7369 125.029 95.3134 125.432 94.9268C125.744 94.6266 126.111 94.388 126.512 94.2235C126.926 94.0714 127.365 93.9977 127.806 94.006C128.234 94.0039 128.657 94.0841 129.053 94.2425C129.44 94.3967 129.792 94.6254 130.09 94.9153C130.235 95.056 130.365 95.2111 130.478 95.3782C130.593 95.1608 130.777 94.9873 131.002 94.8847C131.226 94.782 131.478 94.7558 131.719 94.8103C131.443 94.2297 131.061 93.7049 130.594 93.2621Z" fill="black" stroke="white" stroke-width="0.279412"/>
<path d="M119.32 94.9186C119.632 94.6184 119.999 94.3797 120.401 94.2152C120.815 94.0631 121.254 93.9894 121.695 93.9977C122.122 93.9957 122.545 94.0759 122.942 94.2342C123.328 94.3884 123.681 94.6171 123.978 94.907C124.123 95.0477 124.253 95.2029 124.366 95.37C124.481 95.1519 124.666 94.9779 124.891 94.8752C125.116 94.7725 125.369 94.7468 125.61 94.8021C125.332 94.2241 124.949 93.7022 124.481 93.2621C123.967 92.7842 123.365 92.41 122.708 92.1602C122.024 91.8974 121.296 91.7645 120.562 91.7684C119.764 91.7629 118.974 91.9263 118.245 92.2478C117.543 92.5544 116.919 93.0117 116.416 93.587C116.152 93.8856 115.826 94.2989 115.439 94.8269C115.051 95.3548 114.602 96.0221 114.092 96.8289C113.562 97.6593 113.097 98.3463 112.695 98.8897C112.362 99.3547 111.986 99.7866 111.569 100.179C111.275 100.46 110.931 100.684 110.555 100.84C110.209 100.967 109.843 101.031 109.474 101.026C109.07 101.028 108.67 100.948 108.298 100.79C107.937 100.637 107.606 100.42 107.322 100.15C107.041 99.8817 106.814 99.5624 106.653 99.2095C106.487 98.848 106.402 98.4548 106.404 98.0572C106.401 97.4728 106.526 96.8948 106.771 96.3635C107.029 95.8156 107.403 95.3292 107.867 94.9376C108.402 94.4896 109.012 94.1377 109.669 93.8977C110.384 93.6241 112.74 93.2282 113.681 93.1455V92.5759H105.238V93.3621C105.66 93.4541 105.952 93.5643 106.114 93.6927C106.189 93.748 106.251 93.8202 106.293 93.9035C106.335 93.9869 106.357 94.0789 106.356 94.1722C106.347 94.3953 106.29 94.6139 106.19 94.8136C106.079 95.0582 105.952 95.3382 105.808 95.6534C105.654 96.0025 105.523 96.3615 105.418 96.728C105.115 97.851 105.203 99.0425 105.667 100.11C105.939 100.699 106.33 101.226 106.814 101.66C107.302 102.091 107.869 102.425 108.484 102.644C109.127 102.874 109.807 102.99 110.491 102.986C111.054 102.993 111.615 102.926 112.16 102.787C112.694 102.636 113.194 102.383 113.631 102.043C114.194 101.602 114.702 101.096 115.146 100.536C115.67 99.897 116.266 99.0747 116.933 98.0696C117.424 97.3318 117.857 96.703 118.234 96.1833C118.555 95.7287 118.919 95.3052 119.32 94.9186Z" fill="black" stroke="white" stroke-width="0.279412"/>
<path d="M157.754 86.1255H85.5898V86.9297H157.754V86.1255Z" fill="black"/>
<path d="M54.7057 76.7485C54.7085 77.3123 54.6044 77.8714 54.3989 78.3968C54.2044 78.8989 53.9133 79.3586 53.5419 79.75C53.1611 80.1524 52.7004 80.472 52.189 80.6882C51.6776 80.9045 51.1266 81.0128 50.571 81.0064C50.1619 81.0105 49.7538 80.9652 49.3557 80.8716C49.0212 80.7916 48.6924 80.6897 48.3714 80.5666C48.0822 80.4564 47.8281 80.3553 47.6092 80.2633C47.4331 80.1829 47.2432 80.1369 47.0497 80.1277C46.9762 80.1265 46.9034 80.1433 46.8379 80.1766C46.7724 80.2099 46.7161 80.2586 46.674 80.3186C46.5776 80.447 46.5066 80.6763 46.4612 81.0064H46.1179V75.7574H46.4645C46.5488 76.546 46.7114 77.2162 46.9525 77.7677C47.1605 78.2698 47.4614 78.7284 47.8394 79.1201C48.1703 79.4577 48.5719 79.7188 49.0157 79.8846C49.4469 80.0412 49.9024 80.121 50.3615 80.1202C50.7333 80.1257 51.1025 80.0568 51.4471 79.9177C51.7564 79.7931 52.0369 79.6071 52.2717 79.3714C52.4965 79.1434 52.6736 78.8734 52.7929 78.577C52.9155 78.2727 52.9776 77.9477 52.9758 77.6198C52.9831 77.2818 52.9267 76.9453 52.8096 76.6278C52.6818 76.3206 52.4968 76.0401 52.2642 75.8013C51.9648 75.4937 51.6369 75.2147 51.285 74.968C50.8827 74.6793 50.3956 74.347 49.8237 73.9711C49.0478 73.4603 48.4105 73.004 47.9117 72.6023C47.4782 72.2633 47.0862 71.8749 46.7438 71.445C46.4787 71.1103 46.2811 70.7277 46.1619 70.3184C46.0548 69.9009 46.0031 69.4713 46.0082 69.0404C46.0055 68.5165 46.0952 67.9961 46.2733 67.5029C46.4421 67.0318 46.701 66.5976 47.0356 66.2242C47.385 65.836 47.8145 65.5274 48.2948 65.3194C48.7751 65.1114 49.2949 65.0089 49.8187 65.019C50.1688 65.0154 50.5178 65.0608 50.8553 65.1537C51.139 65.2342 51.4167 65.3342 51.6865 65.453L52.3374 65.7456C52.4925 65.8236 52.6625 65.8679 52.8362 65.8753C52.9086 65.8758 52.9801 65.8591 53.0448 65.8268C53.1095 65.7945 53.1657 65.7474 53.2086 65.6894C53.3083 65.5654 53.3934 65.3419 53.4638 65.019H53.8212V70.3134H53.4638C53.4147 69.6636 53.2748 69.0237 53.0481 68.4122C52.8624 67.9092 52.5898 67.4423 52.2426 67.0326C51.9397 66.677 51.5631 66.3905 51.1387 66.1928C50.7272 66.0054 50.2796 65.9094 49.827 65.9117C49.519 65.9101 49.2143 65.9753 48.9342 66.1027C48.6607 66.2255 48.4134 66.3995 48.206 66.6152C48.0018 66.8307 47.8382 67.0811 47.7231 67.3541C47.6009 67.6389 47.5383 67.9455 47.5393 68.2551C47.5367 68.5371 47.5857 68.8172 47.684 69.0818C47.8044 69.3703 47.9781 69.6338 48.196 69.8588C48.4996 70.1777 48.8337 70.4665 49.1936 70.7209C49.6147 71.0284 50.1467 71.385 50.7896 71.7906C51.4141 72.1818 51.9304 72.5254 52.3382 72.8213C52.7461 73.1173 53.0642 73.3674 53.2925 73.5719C53.7388 73.958 54.0932 74.438 54.3299 74.9771C54.5797 75.5346 54.7078 76.1383 54.7057 76.7485Z" fill="black" stroke="white" stroke-width="0.279412"/>
<path d="M68.3975 80.6447V80.2141C68.8538 80.2066 69.1781 80.1314 69.3717 79.9834C69.4631 79.916 69.5396 79.8308 69.5967 79.733C69.6539 79.6352 69.6905 79.5269 69.7042 79.4147C69.7331 79.1471 69.7048 78.8764 69.6211 78.6203C69.5379 78.3245 69.4366 78.021 69.3268 77.7111L68.5455 75.5148H63.4747L62.5877 77.9475C62.4652 78.2931 62.3719 78.5961 62.3077 78.8568C62.2429 79.0778 62.2446 79.3128 62.3126 79.533C62.3528 79.6329 62.4128 79.7238 62.489 79.8002C62.5654 79.8765 62.6562 79.9369 62.7565 79.9777C62.9851 80.0859 63.3267 80.1637 63.784 80.2083V80.6364H59.6484V80.2141C59.9019 80.1983 60.1489 80.1271 60.3717 80.0057C60.5895 79.8787 60.7784 79.7078 60.926 79.504C61.1088 79.2537 61.2624 78.9835 61.3841 78.6989C61.526 78.3809 61.6739 78.015 61.828 77.6011L66.4199 65.0103H66.7665L71.3102 77.716C71.462 78.1506 71.6359 78.5772 71.8315 78.9939C71.9513 79.2628 72.1119 79.5119 72.3077 79.7321C72.455 79.8942 72.6412 80.0165 72.8489 80.0876C73.076 80.1568 73.3102 80.2001 73.5472 80.2165V80.6447H68.3975ZM66.0625 68.5018L63.7864 74.6973H68.2811L66.0625 68.5018Z" fill="black" stroke="white" stroke-width="0.279412"/>
<path d="M87.8953 80.6448L83.4681 73.3607C83.2943 73.3682 83.1431 73.3781 83.015 73.3897C82.8871 73.4012 82.7707 73.4062 82.6675 73.4062C82.5645 73.4062 82.4755 73.4062 82.3833 73.4004C82.281 73.3956 82.1791 73.3823 82.079 73.3607V77.8756C82.079 78.8714 82.1724 79.4776 82.3592 79.6942C82.6031 80.0386 82.9727 80.2108 83.4681 80.2108H83.9801V80.6482H78.375V80.2108H78.8671C79.4323 80.2108 79.8244 80.0042 80.0433 79.5909C80.1718 79.3462 80.2364 78.7755 80.237 77.879V67.815C80.237 66.8578 80.1538 66.245 79.9875 65.9766C79.8573 65.8206 79.6942 65.695 79.5096 65.6088C79.3077 65.5213 79.089 65.4784 78.8687 65.4832H78.3766V65.0699H83.1223C83.7329 65.064 84.3435 65.0916 84.951 65.1525C85.3876 65.1915 85.8172 65.286 86.2295 65.4336C86.5648 65.5647 86.8785 65.7447 87.1606 65.9676C87.4485 66.1955 87.7006 66.4649 87.9086 66.7669C88.1266 67.0842 88.2948 67.4326 88.4074 67.8001C88.5288 68.2023 88.5888 68.6202 88.5854 69.0401C88.5884 69.5007 88.5237 69.9594 88.3934 70.4015C88.2679 70.82 88.0665 71.2122 87.799 71.5587C87.5174 71.9145 87.1756 72.2189 86.789 72.4581C86.3489 72.7312 85.8687 72.9347 85.3659 73.0615L88.0384 77.5426C88.2886 77.9651 88.5622 78.3735 88.858 78.7659C89.0769 79.0595 89.3329 79.324 89.6194 79.5529C89.8628 79.7447 90.1371 79.8942 90.4307 79.9951C90.7441 80.0979 91.0672 80.1691 91.395 80.2076V80.6448H87.8953ZM86.4099 69.2475C86.4151 68.7936 86.3483 68.3417 86.2121 67.9084C86.0937 67.5308 85.9022 67.1798 85.6485 66.8752C85.4049 66.5885 85.1021 66.3574 84.7607 66.1974C84.3948 66.0284 83.9963 65.9401 83.5927 65.9386C83.3816 65.9422 83.1708 65.9593 82.9618 65.9899C82.7125 66.0246 82.4132 66.0725 82.079 66.1337V72.6366H82.6327C83.2011 72.6481 83.7673 72.5628 84.3068 72.3845C84.7457 72.2358 85.1473 71.9948 85.4839 71.6778C85.7945 71.3758 86.0333 71.0087 86.183 70.6032C86.3391 70.1683 86.416 69.7092 86.4099 69.2475Z" fill="black" stroke="white" stroke-width="0.279412"/>
<path d="M104.129 80.645V80.2143C104.502 80.2143 104.767 80.1465 104.925 80.0109C105 79.9506 105.061 79.8752 105.105 79.7899C105.149 79.7044 105.175 79.6108 105.181 79.515C105.202 79.3365 105.157 79.1566 105.055 79.0083C104.878 78.7392 104.681 78.4831 104.467 78.242L100.531 73.6692L99.9621 74.3305V77.9237C99.9621 78.1717 99.9621 78.385 99.9721 78.5653C99.9822 78.7454 99.9895 78.9033 100.005 79.0388C100.019 79.157 100.041 79.274 100.074 79.3885C100.101 79.4835 100.141 79.5743 100.194 79.658C100.309 79.8446 100.481 79.9895 100.685 80.0713C100.902 80.1643 101.135 80.2121 101.37 80.2118H101.823V80.6399H96.2539V80.2143H96.7078C97.2348 80.2143 97.6268 80.0303 97.884 79.6621C98.0253 79.445 98.096 78.8663 98.096 77.9262V68.0632C98.1033 67.6624 98.0823 67.2616 98.0328 66.8637C97.9912 66.5821 97.9289 66.381 97.8458 66.2603C97.7941 66.1954 97.7321 66.1396 97.662 66.095C97.5718 66.0347 97.4767 65.9819 97.3777 65.9371C97.2688 65.8881 97.156 65.8486 97.0403 65.8189C96.9316 65.7906 96.82 65.7756 96.7078 65.7743H96.2539V65.3684H101.823V65.7743H101.37C101.17 65.7753 100.971 65.8094 100.782 65.8751C100.588 65.9404 100.415 66.0574 100.283 66.2132C100.229 66.2769 100.184 66.3468 100.148 66.4215C100.102 66.5243 100.068 66.6319 100.047 66.7422C100.013 66.9131 99.9915 67.0864 99.9837 67.2605C99.9713 67.4705 99.9646 67.7383 99.9646 68.0607V72.8476C100.034 72.7798 100.178 72.6302 100.394 72.3971C100.61 72.164 100.91 71.8416 101.296 71.4291C102.254 70.3914 103.019 69.5144 103.591 68.798C104.164 68.0816 104.549 67.5551 104.747 67.2184C104.901 66.9749 104.987 66.695 104.996 66.4075C104.991 66.2449 104.921 66.091 104.803 65.9793C104.675 65.8437 104.449 65.7768 104.128 65.7768H103.819V65.3709H108.641V65.7768C108.512 65.7764 108.383 65.7839 108.255 65.7991C108.128 65.8149 108.004 65.8451 107.884 65.8892C107.748 65.9415 107.616 66.0051 107.49 66.0793C107.326 66.1726 107.169 66.2758 107.018 66.3884L106.651 66.6579C106.548 66.7364 106.45 66.8212 106.358 66.9117C106.261 67.0059 106.153 67.12 106.025 67.2555C105.898 67.3911 105.747 67.5688 105.558 67.7904C105.37 68.0119 105.134 68.2863 104.858 68.612C104.582 68.9377 104.234 69.3469 103.817 69.8354L101.822 72.1664L106.643 77.7874C107.434 78.7104 108.113 79.3372 108.679 79.6679C108.938 79.8304 109.218 79.9594 109.51 80.0515C109.781 80.1325 110.06 80.1879 110.341 80.2168V80.645H104.129Z" fill="black" stroke="white" stroke-width="0.279412"/>
<path d="M115.262 80.6448V80.2142H115.735C115.97 80.2211 116.203 80.1771 116.42 80.0852C116.614 79.9913 116.778 79.8447 116.893 79.6621C117.046 79.451 117.123 78.8724 117.124 77.9262V68.0631C117.124 67.8002 117.122 67.5768 117.119 67.3927C117.119 67.2092 117.108 67.0513 117.095 66.9199C117.085 66.8078 117.064 66.6969 117.032 66.5892C117.005 66.5045 116.965 66.4248 116.912 66.3536C116.784 66.1683 116.607 66.022 116.4 65.9313C116.192 65.8323 115.965 65.7803 115.735 65.7792H115.262V65.3733H120.857V65.7792H120.384C119.869 65.7792 119.483 65.9629 119.227 66.3305C119.136 66.5267 119.077 66.7359 119.052 66.9505C119.002 67.32 118.98 67.6927 118.986 68.0656V77.9303C118.98 78.3141 118.999 78.6979 119.043 79.0792C119.065 79.2896 119.122 79.495 119.209 79.6877C119.254 79.7608 119.313 79.8241 119.383 79.8737C119.474 79.94 119.573 79.9956 119.677 80.039C119.792 80.0881 119.91 80.1296 120.03 80.163C120.146 80.1959 120.266 80.2129 120.386 80.2134H120.859V80.6416L115.262 80.6448Z" fill="black" stroke="white" stroke-width="0.279412"/>
<path d="M136.538 76.7476C136.542 77.3111 136.439 77.8703 136.234 78.3958C136.042 78.8993 135.752 79.3603 135.381 79.7531C135 80.1554 134.54 80.4747 134.028 80.691C133.517 80.9073 132.966 81.0157 132.41 81.0095C132.001 81.0137 131.593 80.9684 131.194 80.8749C130.86 80.7946 130.531 80.6928 130.21 80.5697C129.921 80.4595 129.666 80.3585 129.448 80.2664C129.272 80.1861 129.082 80.14 128.889 80.1308C128.815 80.1296 128.742 80.1464 128.677 80.1797C128.611 80.213 128.555 80.2618 128.512 80.3218C128.416 80.4503 128.345 80.6795 128.3 81.0095H127.953V75.7606H128.3C128.384 76.5492 128.546 77.2193 128.788 77.7709C128.996 78.2729 129.296 78.7315 129.675 79.1233C130.006 79.4591 130.408 79.7188 130.852 79.8837C131.283 80.0402 131.738 80.12 132.197 80.1193C132.568 80.1241 132.935 80.0553 133.278 79.9168C133.587 79.7919 133.868 79.606 134.104 79.3704C134.328 79.1422 134.505 78.8722 134.624 78.576C134.747 78.272 134.809 77.9467 134.807 77.6188C134.814 77.2807 134.758 76.9443 134.641 76.6269C134.513 76.3197 134.328 76.0392 134.095 75.8003C133.796 75.4927 133.468 75.2137 133.117 74.967C132.715 74.6783 132.227 74.346 131.655 73.9702C130.877 73.4593 130.24 73.003 129.744 72.6013C129.311 72.2622 128.921 71.8737 128.58 71.444C128.315 71.1093 128.117 70.7267 127.998 70.3174C127.89 69.9 127.839 69.4703 127.844 69.0394C127.841 68.5155 127.931 67.9951 128.108 67.5019C128.278 67.031 128.536 66.5968 128.871 66.2232C129.22 65.8351 129.65 65.5265 130.13 65.3186C130.611 65.1106 131.131 65.0081 131.655 65.018C132.005 65.0145 132.354 65.0599 132.691 65.1527C132.975 65.2335 133.253 65.3335 133.522 65.452L134.173 65.7446C134.328 65.8227 134.498 65.867 134.672 65.8744C134.744 65.8748 134.816 65.8582 134.88 65.8258C134.945 65.7935 135.001 65.7464 135.044 65.6884C135.143 65.5644 135.228 65.3412 135.3 65.018H135.656V70.3124H135.3C135.25 69.6626 135.11 69.0228 134.884 68.4112C134.698 67.9084 134.426 67.4416 134.079 67.0316C133.775 66.676 133.399 66.3895 132.974 66.1918C132.562 66.0043 132.115 65.9083 131.662 65.9107C131.354 65.9091 131.05 65.9743 130.77 66.1017C130.496 66.2247 130.249 66.3986 130.041 66.6142C129.833 66.8322 129.666 67.0859 129.549 67.3631C129.427 67.6479 129.365 67.9545 129.366 68.2641C129.363 68.5461 129.412 68.8263 129.511 69.0907C129.631 69.3792 129.804 69.6427 130.022 69.8677C130.326 70.1867 130.66 70.4754 131.02 70.7299C131.441 71.0374 131.973 71.3939 132.616 71.7995C133.24 72.1907 133.756 72.5343 134.164 72.8303C134.572 73.1262 134.892 73.3758 135.124 73.5792C135.57 73.9656 135.924 74.4456 136.161 74.9844C136.41 75.539 136.539 76.1399 136.538 76.7476Z" fill="black" stroke="white" stroke-width="0.279412"/>
<path d="M156.957 80.6448V80.2142H157.429C157.664 80.221 157.898 80.177 158.114 80.0852C158.308 79.9913 158.473 79.8446 158.587 79.6621C158.741 79.451 158.818 78.8724 158.818 77.9262V68.0631C158.818 67.8002 158.816 67.5768 158.812 67.3927C158.812 67.2092 158.801 67.0513 158.789 66.9199C158.78 66.8078 158.759 66.6969 158.726 66.5892C158.7 66.5045 158.658 66.4248 158.606 66.3536C158.478 66.1683 158.301 66.022 158.094 65.9313C157.887 65.8323 157.659 65.7803 157.429 65.7792H156.957V65.3733H162.551V65.7792H162.078C161.564 65.7792 161.177 65.9629 160.92 66.3305C160.83 66.5267 160.772 66.736 160.747 66.9505C160.697 67.32 160.674 67.6927 160.68 68.0656V77.9303C160.673 78.3141 160.693 78.698 160.738 79.0792C160.759 79.2897 160.815 79.4952 160.904 79.6877C160.948 79.7608 161.006 79.8241 161.077 79.8737C161.168 79.9399 161.267 79.9954 161.371 80.039C161.486 80.0881 161.603 80.1296 161.724 80.163C161.839 80.1959 161.96 80.2129 162.08 80.2134H162.553V80.6416L156.957 80.6448Z" fill="black" stroke="white" stroke-width="0.279412"/>
<path d="M175.856 80.645V80.2144C176.313 80.2069 176.638 80.1317 176.831 79.9837C176.923 79.9169 177.001 79.8319 177.059 79.734C177.117 79.6362 177.154 79.5277 177.168 79.415C177.197 79.1474 177.169 78.8767 177.085 78.6206C177.002 78.3247 176.901 78.0213 176.79 77.7114L176.009 75.5151H170.938L170.052 77.9478C169.943 78.246 169.85 78.5494 169.772 78.857C169.706 79.078 169.708 79.3132 169.777 79.5332C169.816 79.6332 169.877 79.7241 169.953 79.8004C170.029 79.8768 170.119 79.9372 170.22 79.9779C170.449 80.0862 170.791 80.164 171.247 80.2086V80.6367H167.109V80.2144C167.363 80.1987 167.61 80.1275 167.832 80.006C168.05 79.8792 168.239 79.7083 168.387 79.5043C168.57 79.2542 168.724 78.9841 168.846 78.6992C168.987 78.3812 169.135 78.0153 169.289 77.6014L173.881 65.0081H174.228L178.772 77.7139C178.964 78.2473 179.139 78.6733 179.292 78.9918C179.414 79.2605 179.574 79.5093 179.77 79.73C179.916 79.8922 180.103 80.0144 180.311 80.0854C180.538 80.1545 180.773 80.1977 181.01 80.2144V80.6425L175.856 80.645ZM173.522 68.5021L171.247 74.6976H175.742L173.522 68.5021Z" fill="black" stroke="white" stroke-width="0.279412"/>
<path d="M197.538 65.7767C197.293 65.7705 197.049 65.8185 196.824 65.9172C196.628 66.009 196.466 66.161 196.362 66.3512C196.226 66.6058 196.159 67.1613 196.159 68.0176V80.8929H195.812L187.159 68.5921V77.975C187.159 78.9148 187.249 79.5066 187.429 79.7555C187.667 80.063 188.05 80.2167 188.577 80.2167H189.031V80.645H184.459V80.2142H184.912C185.163 80.222 185.411 80.1761 185.641 80.0795C185.84 79.9852 186.002 79.8261 186.098 79.6282C186.194 79.4487 186.254 79.252 186.273 79.0495C186.316 78.6931 186.336 78.3341 186.331 77.975V67.3646C186.241 67.2418 186.162 67.1119 186.094 66.9761C185.989 66.7837 185.859 66.6058 185.708 66.4471C185.527 66.2573 185.315 66.0991 185.081 65.9792C184.783 65.8342 184.453 65.7646 184.121 65.7767V65.3708H187.314L195.3 76.8252V68.0176C195.3 67.0489 195.21 66.4631 195.03 66.2603C194.792 65.9379 194.414 65.7767 193.893 65.7767H193.459V65.3708H197.992V65.7767H197.538Z" fill="black" stroke="white" stroke-width="0.279412"/>
<path d="M151.373 76.8708C151.376 77.4332 151.273 77.9913 151.068 78.5158C150.876 79.0191 150.587 79.4803 150.218 79.8739C149.847 80.2636 149.401 80.5761 148.908 80.7931C148.384 81.0218 147.817 81.1367 147.245 81.1304C146.836 81.1344 146.428 81.0892 146.029 80.9956C145.695 80.9149 145.367 80.8131 145.046 80.6906C144.757 80.5804 144.502 80.4793 144.284 80.3873C144.108 80.3068 143.918 80.2609 143.725 80.2517C143.651 80.2504 143.578 80.2671 143.512 80.3006C143.446 80.3341 143.39 80.3831 143.348 80.4435C143.252 80.5708 143.182 80.7997 143.136 81.1304H142.789V75.8797H143.136C143.22 76.6683 143.382 77.3387 143.623 77.8909C143.831 78.3926 144.132 78.8511 144.51 79.2424C144.842 79.5788 145.244 79.8387 145.688 80.0037C146.119 80.1605 146.574 80.2405 147.033 80.2401C147.404 80.2446 147.771 80.1755 148.114 80.0368C148.418 79.9155 148.694 79.7344 148.925 79.504C149.156 79.2737 149.338 78.9991 149.46 78.6968C149.583 78.3925 149.645 78.0675 149.643 77.7396C149.65 77.4015 149.594 77.0651 149.476 76.7477C149.349 76.4404 149.164 76.16 148.932 75.9211C148.633 75.6143 148.305 75.3359 147.954 75.0895C147.551 74.8007 147.064 74.4685 146.492 74.0926C145.713 73.5818 145.076 73.1258 144.58 72.7246C144.148 72.3854 143.758 71.997 143.417 71.5673C143.151 71.2327 142.954 70.8501 142.835 70.4407C142.727 70.0233 142.675 69.5936 142.68 69.1627C142.677 68.6388 142.767 68.1184 142.945 67.6252C143.114 67.1543 143.373 66.7201 143.708 66.3465C144.057 65.9584 144.487 65.6498 144.967 65.4418C145.448 65.2339 145.967 65.1313 146.491 65.1413C146.841 65.1378 147.19 65.1832 147.528 65.276C147.812 65.3569 148.089 65.4569 148.359 65.5753L149.009 65.8679C149.164 65.946 149.334 65.9903 149.508 65.9977C149.58 65.998 149.652 65.9813 149.716 65.949C149.781 65.9167 149.837 65.8696 149.88 65.8117C149.979 65.6877 150.064 65.4642 150.136 65.1413H150.492V70.4357H150.135C150.086 69.7859 149.946 69.146 149.719 68.5345C149.534 68.0316 149.261 67.5647 148.915 67.1549C148.611 66.7994 148.234 66.513 147.81 66.3151C147.398 66.1277 146.951 66.0317 146.498 66.034C146.19 66.0324 145.886 66.0976 145.606 66.225C145.332 66.3477 145.085 66.5217 144.877 66.7375C144.669 66.9553 144.502 67.2091 144.385 67.4864C144.155 68.0377 144.141 68.6548 144.347 69.2156C144.467 69.5039 144.64 69.7675 144.857 69.9926C145.161 70.311 145.495 70.5997 145.855 70.8548C146.276 71.1623 146.809 71.5188 147.452 71.9244C148.076 72.3157 148.592 72.6593 148.998 72.9552C149.408 73.252 149.727 73.5016 149.959 73.7041C150.405 74.0906 150.759 74.5705 150.996 75.1094C151.245 75.6635 151.374 76.2638 151.373 76.8708Z" fill="black" stroke="white" stroke-width="0.279412"/>
</g>
</g>
<defs>
<clipPath id="clip0_521_7745">
<rect width="152" height="38" fill="white" transform="translate(46 65)"/>
</clipPath>
</defs>
</svg>
