<svg width="243" height="168" viewBox="0 0 243 168" fill="none" xmlns="http://www.w3.org/2000/svg">
<rect x="0.5" y="0.5" width="241.5" height="167" rx="15.5" fill="#1B458F"/>
<rect x="0.5" y="0.5" width="241.5" height="167" rx="15.5" stroke="#9DA8B9"/>
<path d="M90.1172 70.1678C100.336 71.704 110.745 72.5042 121.342 72.5042C131.94 72.5042 142.348 71.704 152.378 70.1658L152.567 70.869C142.537 72.7661 131.939 73.7638 121.342 73.7638C110.555 73.7638 100.147 72.7661 90.1172 70.8724V70.1678Z" fill="white"/>
<path d="M165.632 74.3927C151.249 77.0732 136.488 78.4862 121.349 78.4862C106.02 78.4862 91.2593 77.0732 77.0664 74.3927L77.2553 73.6912C91.4489 76.0146 106.209 77.228 121.349 77.228C136.299 77.228 151.06 76.0146 165.442 73.6912L165.632 74.3927ZM139.895 67.4803C133.839 68.5044 127.594 69.0412 121.349 69.0412C114.915 69.0412 108.67 68.5044 102.614 67.4803L102.803 66.7739C108.859 67.4392 114.915 67.7816 121.349 67.7816C127.594 67.7816 133.65 67.4392 139.895 66.7739V67.4803ZM113.022 49.7549C113.022 45.6909 116.05 43.1685 119.646 43.1685C123.241 43.1685 126.269 45.6532 126.269 49.027H125.891C125.891 46.2756 123.43 44.2305 120.403 44.2305C117.375 44.2305 114.915 46.2558 114.915 49.7776V63.6109H113.022L113.022 49.7549Z" fill="white"/>
<path d="M113.015 45.2548C114.34 43.3515 116.8 42.0984 119.639 42.0984C123.991 42.0984 127.587 44.8365 127.587 49.7551V63.6111H129.479V49.6414C129.479 44.1794 125.316 41 120.585 41C117.179 41 114.151 42.6729 112.637 45.1066L113.015 45.2548Z" fill="white"/>
<path fill-rule="evenodd" clip-rule="evenodd" d="M121.724 123.838L124.941 120.168V123.838H121.724ZM121.156 124.625H124.941V126.795H126.455V124.625H127.78V123.838H126.455V119.017H125.509L121.157 124.065L121.156 124.625ZM136.107 122.338C135.349 121.951 133.836 121.633 133.836 120.688C133.836 119.835 134.592 119.425 135.728 119.425C136.674 119.425 137.242 119.87 137.242 120.7C137.242 121.462 136.863 121.951 136.107 122.338ZM134.592 123.008C135.728 123.451 137.431 123.782 137.431 125.011C137.431 125.931 136.485 126.581 135.349 126.581C134.214 126.581 133.457 125.931 133.457 125.011C133.457 124.135 133.836 123.532 134.592 123.008ZM136.485 122.429C137.242 122.121 138.377 121.622 138.377 120.757C138.377 119.666 136.863 119.119 135.539 119.119C134.214 119.119 132.511 119.745 132.511 121.008C132.511 122.019 133.268 122.475 134.403 122.895C133.268 123.372 132.322 123.884 132.322 124.964C132.322 126.305 133.836 126.886 135.16 126.886C137.053 126.886 138.756 126.168 138.756 124.703C138.756 123.497 137.62 122.906 136.485 122.429Z" fill="white"/>
<path d="M107.151 126.796V126.569C106.394 126.569 106.205 126.499 106.205 126.01V119.12H105.827C105.448 119.381 104.691 120.065 103.177 120.292V120.531C104.124 120.586 104.502 120.586 104.502 120.769C104.691 120.894 104.691 121.11 104.691 121.474V126.01C104.691 126.499 104.313 126.569 103.556 126.569V126.796L107.151 126.796ZM117.37 119.222H114.342C113.964 119.222 113.586 119.222 113.207 119.2C112.829 119.189 112.829 119.165 112.829 118.881H112.45L111.693 121.019H111.882L112.071 120.703C112.261 120.455 112.45 120.297 112.639 120.297H116.424L113.586 125.192C113.207 126.08 112.829 126.738 112.829 126.784C112.829 127.012 113.207 127 113.396 127C113.964 127 114.153 126.819 114.342 126.465L117.37 119.529V119.222ZM25.3988 111.934H109.801V111.221H25.3984L25.3988 111.934ZM119.073 111.934H219.182V111.221H119.073V111.934Z" fill="white"/>
<path fill-rule="evenodd" clip-rule="evenodd" d="M109.042 101.574C109.042 98.2805 106.393 96.0937 102.608 96.0937C98.6338 96.0937 95.9844 98.3856 95.9844 101.574C95.9844 104.757 98.6338 107.057 102.608 107.057C106.204 107.057 109.042 104.715 109.042 101.574ZM106.393 101.574C106.393 104.271 105.068 106.469 102.608 106.469C99.9587 106.469 98.8231 104.29 98.8231 101.574C98.8231 98.8714 100.148 96.6815 102.608 96.6815C105.257 96.6815 106.393 98.8499 106.393 101.574ZM159.759 98.5455H161.084C164.49 98.5455 167.518 98.7975 167.518 102.347C167.518 104.842 165.815 106.209 162.408 106.209C160.894 106.209 159.759 105.991 159.759 104.735V98.5455ZM159.759 90.7586C160.137 90.7521 160.516 90.7586 160.894 90.7586C165.436 90.7586 166.382 92.3329 166.382 94.2331C166.382 96.889 164.112 97.8669 161.273 97.8669H159.759V90.7586ZM154.46 106.79C156.92 106.79 159.191 106.887 161.651 106.887C163.544 106.887 166.004 106.765 167.896 105.97C169.978 105.003 170.735 103.706 170.735 102.225C170.735 99.8363 168.653 98.1206 165.815 97.8309C168.085 97.2759 169.41 95.9965 169.41 94.0157C169.41 92.7362 168.464 91.4091 166.95 90.8278C165.247 90.105 163.355 90.0557 161.273 90.0803C159.002 90.105 156.731 90.105 154.46 90.128V90.6353C155.785 90.8048 156.731 90.5628 156.731 91.7946V105.245C156.731 106.235 155.596 106.235 154.46 106.283V106.79ZM187.388 101.574C187.388 98.2805 184.739 96.0937 180.765 96.0937C176.98 96.0937 174.141 98.3856 174.141 101.574C174.141 104.757 176.98 107.057 180.765 107.057C184.36 107.057 187.388 104.715 187.388 101.574ZM184.549 101.574C184.549 104.271 183.225 106.469 180.765 106.469C178.305 106.469 176.98 104.29 176.98 101.574C176.98 98.8714 178.305 96.6815 180.765 96.6815C183.414 96.6815 184.549 98.8499 184.549 101.574Z" fill="white"/>
<path d="M23.3164 90.6341C24.0735 90.6341 24.8306 90.8087 25.398 91.26C25.7766 91.703 26.3444 92.6021 26.9122 93.9422L33.1571 107.126H34.1034L39.9698 93.7498C40.7269 92.1772 41.4836 90.6344 43.5652 90.6344V90.127H37.1314V90.6344C37.6989 90.6344 38.6452 90.5848 39.213 91.3853C39.402 91.8215 39.402 92.737 38.6452 94.4493L34.8602 103.576H34.6712L29.9398 93.0976C29.9398 92.9544 29.5616 92.08 29.5616 91.6024C29.7506 90.8501 30.8862 90.6344 31.8322 90.6344V90.127H23.3167L23.3164 90.6341ZM57.0017 89.9099C55.6768 90.2472 53.9737 90.7313 52.4599 91.021V91.311C53.2166 91.3357 53.5952 91.4791 53.7844 91.6732C54.3523 92.0108 54.3522 92.5905 54.3522 93.1948V105.002C54.3522 106.257 53.9737 106.257 52.4596 106.33V106.789H58.7045V106.33C57.3799 106.257 57.0017 106.257 57.0017 105.002V89.9099ZM65.7068 89.9099C64.3819 90.2472 62.6788 90.7313 61.3542 91.021V91.311C61.9217 91.3357 62.3002 91.4791 62.6788 91.6732C63.0573 92.0108 63.0573 92.5905 63.0573 93.1948V105.002C63.0573 106.257 62.6788 106.257 61.3542 106.33V106.789H67.4098V106.33C66.0853 106.257 65.7068 106.257 65.7068 105.002V89.9099ZM91.0649 106.789V106.33C89.551 106.257 89.1725 106.257 89.1725 105.002V100.341C89.1725 98.37 90.3081 97.298 91.0652 97.298C92.0112 97.298 92.2005 98.2515 93.1468 98.2515C93.9036 98.2515 94.4714 97.8249 94.4714 97.163C94.4714 96.3742 93.525 95.9232 92.5787 95.9232C90.6866 95.9232 89.551 97.3524 88.9832 98.0916V96.0205C87.8479 96.4057 86.3341 96.9128 85.0092 97.252V97.4924C86.1448 97.9023 86.5234 97.9516 86.5234 98.8935V105.002C86.5234 106.257 85.9556 106.257 84.82 106.33V106.789H91.0649ZM201.771 103.884C201.014 105.08 199.69 106.143 197.797 106.143C194.58 106.143 193.634 103.652 193.634 101.431C193.634 99.4978 194.391 96.6806 197.23 96.6806C198.365 96.6806 199.5 97.3541 199.5 98.36C199.5 98.976 200.068 99.5687 200.636 99.5687C201.393 99.5687 201.961 99.1506 201.961 98.5791C201.771 97.0032 199.501 96.0927 197.23 96.0927C193.255 96.0927 190.796 98.472 190.796 101.676C190.796 104.622 193.256 107.056 196.851 107.056C199.311 107.056 201.204 105.877 202.15 104.005L201.771 103.884ZM210.477 106.789V106.33C209.152 106.257 208.773 106.257 208.773 105.002V98.6038C209.53 97.9057 210.098 97.0808 211.99 97.0808C213.694 97.0808 214.451 98.2895 214.451 99.8946V105.002C214.451 106.257 214.072 106.257 212.937 106.33V106.789H218.993V106.33C217.668 106.257 217.289 106.257 217.289 105.002V100.148C217.289 96.707 214.451 96.0927 212.937 96.0927C211.044 96.0927 209.909 96.8484 208.773 97.8067V89.9099C207.449 90.3198 205.745 90.7067 204.421 91.1415V91.3356C205.178 91.4791 205.935 91.6965 205.935 92.4456V105.002C205.935 106.257 205.556 106.257 204.232 106.33V106.789H210.477ZM49.6212 106.789V106.33C48.2963 106.257 47.9178 106.257 47.9178 105.002V95.9709C46.5932 96.381 44.8901 96.8155 43.5656 97.252V97.4924C43.9438 97.54 44.133 97.5647 44.5116 97.7328C45.0794 98.0241 45.0794 98.6993 45.0794 99.2067V105.002C45.0794 106.257 44.7008 106.257 43.3763 106.33V106.789H49.6212ZM44.8901 92.8277C44.8901 92.0718 45.4579 91.4575 46.4039 91.4575C47.161 91.4575 47.9178 92.0718 47.9178 92.8277C47.9178 93.5817 47.161 94.1959 46.4039 94.1959C45.4579 94.1959 44.8901 93.5817 44.8901 92.8277ZM73.6547 99.4584H79.3321C79.3321 97.6358 78.0073 96.6854 76.6827 96.6854C75.3582 96.6854 74.0333 97.7574 73.6547 99.4584ZM73.4658 100.186C73.2762 100.576 73.2762 100.993 73.2762 101.431C73.2762 103.967 74.4118 106.143 77.6287 106.143C78.9536 106.143 80.6567 105.292 81.603 103.884L81.9816 104.005C81.4138 105.353 79.7107 107.056 76.872 107.056C73.0869 107.056 70.4378 104.937 70.4378 101.676C70.4378 98.5774 72.898 96.0927 76.6827 96.0927C79.5214 96.0927 81.7923 97.4743 81.9816 100.186H73.4658ZM116.423 109.01L117.37 107.056L112.639 98.0721C112.26 97.4003 111.881 96.8155 110.746 96.8155V96.3578H117.18V96.8155C116.423 96.8155 115.856 96.824 115.667 97.2883C115.667 97.4811 115.477 97.8099 115.855 98.2169L118.883 104.324L121.533 98.7965C121.722 98.2809 121.911 97.6307 121.722 97.275C121.344 96.7827 120.587 96.8158 120.019 96.8158V96.3578H124.939V96.8155C123.615 96.8155 123.047 97.5253 122.669 98.2895L117.18 109.445C116.613 110.565 115.856 111.981 114.152 111.981C113.585 111.981 113.017 111.521 113.017 111.014C113.017 110.436 113.396 110.049 114.152 110.024C114.531 110.049 114.72 110.145 115.099 110.17C115.856 110.224 116.234 109.506 116.423 109.01ZM137.808 97.932C139.132 96.9621 139.511 96.19 139.511 95.3402C139.7 94.0196 138.943 93.5536 137.997 93.5536C137.051 93.5536 136.483 94.4068 136.483 94.9057C136.483 95.6662 136.861 96.1718 137.24 97.0395C137.429 97.2702 137.618 97.5763 137.808 97.932ZM140.268 104.78C138.943 103.328 137.429 101.306 136.294 99.796C135.348 100.725 134.59 101.831 134.59 103.137C134.59 104.857 135.915 105.906 137.429 105.906C138.565 105.906 139.511 105.39 140.268 104.78ZM142.538 103.392C142.35 103.525 142.35 103.662 142.161 103.799C142.35 103.954 142.538 104.095 142.538 104.224C143.485 105.09 144.431 105.714 145.945 105.714C146.702 105.714 147.27 105.496 148.027 104.767L148.216 105.024C147.648 105.931 146.324 107.056 144.81 107.056C143.296 107.056 142.16 106.468 141.025 105.554L140.836 105.343C139.7 106.315 138.376 107.056 136.672 107.056C133.266 107.056 132.13 105.077 132.13 103.539C132.13 101.477 134.212 100.173 135.915 99.1718C135.537 98.6647 135.348 98.2549 135.158 98.0012C134.78 97.438 134.401 96.4748 134.401 95.8459C134.401 94.1959 135.726 93.012 137.997 93.012C140.079 93.012 141.403 94.0165 141.214 95.449C141.025 96.6922 139.511 97.6588 138.186 98.5199C139.132 99.9541 140.457 101.88 141.782 103.251C141.782 103.142 141.782 103.049 141.971 102.981C142.35 102.182 143.107 101.003 143.107 99.8354C143.107 99.0862 142.539 98.8688 141.782 98.8688V98.4754H146.513V98.8688C144.81 98.8904 144.242 100.048 143.674 101.136C143.485 101.801 142.728 102.839 142.539 103.392" fill="white"/>
</svg>
