<svg width="243" height="168" viewBox="0 0 243 168" fill="none" xmlns="http://www.w3.org/2000/svg">
<rect x="0.5" y="0.5" width="242" height="167" rx="15.5" fill="white"/>
<rect x="0.5" y="0.5" width="242" height="167" rx="15.5" stroke="#9DA8B9"/>
<path d="M50.9425 82.6332C54.4678 84.1897 56.0231 85.9538 56.0231 88.8592C56.0231 91.7647 53.742 94.1514 50.2167 94.1514C46.8988 94.1514 45.5509 92.4911 44.8251 92.4911C44.3066 92.4911 44.203 92.8024 44.203 93.425V94.0476H43.6845L41.9219 84.501H42.4403C43.7882 88.8592 45.7582 93.3212 50.113 93.3212C53.2236 93.3212 54.5715 91.4534 54.5715 89.2743C54.5715 86.7839 53.431 85.5387 50.2167 84.1897L48.0393 83.2558C45.1361 82.0106 43.7882 80.3503 43.7882 78.1712C43.7882 75.4733 45.9656 73.7092 48.8688 73.7092C51.0462 73.7092 52.2904 74.7469 52.9125 74.7469C53.2236 74.7469 53.431 74.6431 53.431 74.2281V73.6055H53.9494L55.8157 80.039H55.2973C53.5346 76.0959 51.5646 74.3318 48.9725 74.3318C46.5877 74.4356 45.2398 75.8883 45.2398 77.5486C45.2398 79.4164 46.173 80.4541 48.9725 81.5955L50.9425 82.6332ZM58.6152 74.2281H70.9538L72.8202 80.3503H72.198C70.4354 76.1996 69.5022 74.8507 66.9101 74.8507H65.5622V91.9722C65.5622 93.0099 65.8732 93.5287 67.3248 93.5287L67.9469 93.6325V94.1514H61.2074V93.6325L61.8295 93.5287C63.3848 93.425 63.6958 93.0099 63.6958 91.9722V74.7469H62.3479C59.7558 74.7469 58.9263 76.0959 57.06 80.2466H56.5415L58.6152 74.2281ZM84.2256 83.152C87.8546 83.152 88.7877 85.4349 88.7877 87.5103V93.9438H86.9214V86.7839C86.9214 84.9161 86.0919 83.5671 83.6035 83.5671H78.1081V91.8685C78.1081 92.8024 78.3155 93.425 79.8708 93.425L80.3892 93.5287V94.1514H73.9607V93.6325L74.4791 93.5287C76.0344 93.425 76.2418 92.9061 76.2418 91.9722V76.3034C76.2418 75.3695 76.0344 74.8507 74.4791 74.7469L73.9607 74.6431V74.1243H82.5666C86.1956 74.1243 88.9951 75.0582 88.9951 78.7938C88.8914 82.4257 85.8845 83.0483 84.2256 83.152ZM82.1519 82.9445C85.3661 82.9445 86.714 81.9068 86.714 78.8976C86.714 75.8883 85.3661 74.7469 82.1519 74.7469H77.9007V82.8407C77.9007 82.9445 82.1519 82.9445 82.1519 82.9445ZM105.481 91.4534C106.103 93.2174 106.622 93.3212 107.762 93.425V93.9438H101.645V93.425L102.163 93.3212C103.822 93.2174 103.926 92.8024 103.407 91.3496L101.852 86.6801H95.3199L94.0757 90.312C93.3499 92.4911 93.5573 93.2174 95.4236 93.3212L95.942 93.425V93.9438H90.1356V93.425L90.4467 93.3212C92.1057 93.2174 92.5204 92.4911 93.3499 90.312L99.0526 74.0205H99.6747L105.481 91.4534ZM95.4236 86.0575H101.645L98.6379 76.926L95.4236 86.0575ZM114.916 74.2281C120.412 74.2281 124.041 77.1336 124.041 84.1897C124.041 91.2459 120.412 94.0476 114.916 94.0476H108.488V93.5287L109.006 93.425C110.562 93.3212 110.769 92.8024 110.769 91.8685V76.3034C110.769 75.3695 110.562 74.8507 109.006 74.7469L108.488 74.6431V74.1243L114.916 74.2281ZM122.071 84.0859C122.071 77.6524 120.308 74.8507 114.813 74.8507H112.635V91.9722C112.635 93.0099 113.154 93.5287 114.813 93.5287C120.204 93.3212 122.071 90.4157 122.071 84.0859ZM126.944 74.7469V74.2281H133.372V74.7469L132.854 74.8507C131.299 74.9544 131.091 75.4733 131.091 76.4072V91.9722C131.091 92.9061 131.402 93.5287 132.854 93.5287L133.372 93.6325V94.1514H126.944V93.6325L127.462 93.5287C129.018 93.425 129.225 92.9061 129.225 91.9722V76.3034C129.225 75.3695 128.914 74.8507 127.462 74.7469H126.944ZM151.414 74.7469C149.651 74.8507 149.133 75.577 148.511 77.7562L142.912 93.9438H142.289L136.483 76.6147C135.861 74.7469 135.239 74.7469 134.202 74.6431V74.1243H140.319V74.6431L139.697 74.7469C138.142 74.8507 138.038 75.2657 138.453 76.7185L143.119 91.1421L147.577 77.7562C148.303 75.577 148.2 74.8507 146.333 74.7469L145.815 74.6431V74.1243H151.621V74.6431L151.414 74.7469ZM163.234 91.4534C163.856 93.2174 164.374 93.3212 165.515 93.425V93.9438H159.398V93.425L159.916 93.3212C161.575 93.2174 161.679 92.8024 161.16 91.3496L159.605 86.6801H153.073L151.829 90.312C151.103 92.4911 151.31 93.2174 153.176 93.3212L153.695 93.425V93.9438H147.888V93.425L148.2 93.3212C149.858 93.2174 150.273 92.4911 151.103 90.312L156.805 74.0205H157.428L163.234 91.4534ZM153.176 86.0575H159.398L156.391 76.926L153.176 86.0575ZM176.506 83.152C180.135 83.152 181.068 85.4349 181.068 87.5103V93.9438H179.201V86.7839C179.201 84.9161 178.372 83.5671 175.884 83.5671H170.388V91.8685C170.388 92.8024 170.596 93.425 172.151 93.425L172.669 93.5287V94.1514H166.241V93.6325L166.759 93.5287C168.315 93.425 168.522 92.9061 168.522 91.9722V76.3034C168.522 75.3695 168.315 74.8507 166.759 74.7469L166.241 74.6431V74.1243H174.847C178.476 74.1243 181.275 75.0582 181.275 78.7938C181.172 82.4257 178.268 83.0483 176.506 83.152ZM174.639 82.9445C177.854 82.9445 179.201 81.9068 179.201 78.8976C179.201 75.8883 177.854 74.7469 174.639 74.7469H170.388V82.8407C170.388 82.9445 174.639 82.9445 174.639 82.9445ZM185.112 74.7469V74.2281H191.54V74.7469L191.022 74.8507C189.466 74.9544 189.259 75.4733 189.259 76.4072V91.9722C189.259 92.9061 189.57 93.5287 191.022 93.5287L191.54 93.6325V94.1514H185.112V93.6325L185.63 93.5287C187.185 93.425 187.393 92.9061 187.393 91.9722V76.3034C187.393 75.3695 187.082 74.8507 185.63 74.7469H185.112ZM209.167 91.7647C209.167 92.6986 209.478 93.3212 210.929 93.3212L211.448 93.425V93.9438H207.3V90.2082L205.538 91.7647C203.879 93.1137 202.012 94.2551 200.042 94.2551C197.554 94.2551 196.31 93.0099 196.31 89.7931V76.3034C196.31 75.3695 196.102 74.8507 194.547 74.7469L194.029 74.6431V74.1243H198.176V90.0007C198.176 92.076 198.694 93.2174 200.664 93.2174C201.909 93.2174 203.568 92.4911 205.123 91.1421L207.197 89.4818V76.3034C207.197 75.3695 206.886 74.8507 205.434 74.7469L204.915 74.6431V74.1243H209.063L209.167 91.7647ZM221.92 82.6332C225.445 84.1897 227.001 85.9538 227.001 88.8592C227.001 91.7647 224.719 94.1514 221.194 94.1514C217.876 94.1514 216.528 92.4911 215.802 92.4911C215.284 92.4911 215.18 92.8024 215.18 93.425L215.077 94.0476H214.662L213.003 84.501H213.521C214.869 88.8592 216.839 93.3212 221.194 93.3212C224.305 93.3212 225.653 91.4534 225.653 89.2743C225.653 86.7839 224.512 85.5387 221.298 84.1897L219.12 83.2558C216.217 82.0106 214.869 80.3503 214.869 78.1712C214.869 75.4733 217.047 73.7092 219.95 73.7092C222.127 73.7092 223.372 74.7469 223.994 74.7469C224.305 74.7469 224.512 74.6431 224.512 74.2281V73.7092H225.03L226.793 80.1428H226.275C224.512 76.1996 222.542 74.4356 219.95 74.4356C217.565 74.5394 216.217 75.9921 216.217 77.6524C216.217 79.5202 217.15 80.5579 219.95 81.6993L221.92 82.6332Z" fill="#020203"/>
<path d="M28.0275 74.8507C28.1312 74.4356 28.1312 74.1243 28.1312 73.6055C28.1312 70.5962 26.5759 68.2096 25.228 67.1719C24.917 66.9644 24.6059 66.9644 24.5022 67.0682C24.2948 67.1719 24.1912 67.3795 24.1912 67.6908V74.0206C19.5253 74.3319 16 78.5863 16 84.086C16 89.5856 19.5253 93.9438 24.1912 94.1514V101H25.0206V94.1514C29.6865 93.8401 33.2118 89.5856 33.2118 84.086C33.3155 79.9353 31.2418 76.3034 28.0275 74.8507ZM20.6658 86.4726C20.6658 88.4442 22.1174 90.2082 24.0875 90.4158V93.3212C19.629 93.0099 16.8295 88.4442 16.8295 84.1897C16.8295 79.9353 19.5253 75.3695 24.0875 75.0582V80.3503L23.3617 81.1805C21.288 83.4634 20.6658 84.501 20.6658 86.4726ZM24.1912 81.4918V89.3781C22.6359 89.1706 21.599 87.9253 21.599 86.4726C21.599 85.0199 21.8064 84.2935 24.0875 81.6993L24.1912 81.4918ZM25.1243 90.4158C27.0943 90.2082 28.5459 88.6517 28.5459 86.4726C28.5459 85.3312 28.0275 84.3973 27.3017 83.5671L27.198 83.4634L26.5759 83.9822L26.6796 84.086C27.3017 84.8123 27.6128 85.5387 27.6128 86.3688C27.6128 87.9253 26.5759 89.2743 25.0206 89.2743V80.3503L25.8501 79.4164C26.5759 78.5863 27.5091 77.4449 27.8201 75.6808C30.516 77.2373 32.1749 80.4541 32.1749 83.9822C32.1749 88.2366 29.3754 92.8024 24.917 93.1137L25.1243 90.4158ZM25.1243 73.9168V68.1058C26.4722 69.2473 27.3017 71.3226 27.3017 73.5017C27.3017 73.813 27.3017 74.1243 27.198 74.3319C26.5759 74.2281 25.8501 74.0206 25.1243 73.9168ZM25.1243 79.1051V74.9545C25.8501 75.0582 26.4722 75.162 27.0944 75.4733C26.7833 76.7185 26.2649 77.7562 25.3317 78.8976L25.1243 79.1051Z" fill="#020203"/>
</svg>
