<svg width="243" height="168" viewBox="0 0 243 168" fill="none" xmlns="http://www.w3.org/2000/svg">
<rect x="0.5" y="0.5" width="242" height="167" rx="15.5" fill="white"/>
<rect x="0.5" y="0.5" width="242" height="167" rx="15.5" stroke="#9DA8B9"/>
<path fill-rule="evenodd" clip-rule="evenodd" d="M131.301 101.353C131.94 99.0724 132.516 96.7891 133.073 94.5086C132.44 94.5199 131.792 94.537 131.139 94.557C131.17 96.7378 131.221 99.0013 131.301 101.353ZM175.562 101.811C176.022 107.545 175.971 113.47 175.707 119.477C173.733 113.208 172.532 106.942 171.919 100.675C169.865 100.04 167.863 99.434 165.875 98.8703C166.531 102.996 168.215 113.388 166.207 119.477C166.202 113.339 163.046 104.283 161.794 97.7685C157.736 96.7321 153.626 95.8894 149.139 95.32C147.31 102.196 145.961 109.479 145.024 117.103C144.907 118.054 143.791 119.412 142.735 119.475C142.306 119.5 141.59 119.244 141.485 118.743C139.778 110.492 139.023 102.668 138.963 94.5399C138.08 94.5142 137.18 94.5 136.26 94.4915C134.428 102.301 132.826 110.111 131.582 117.917C131.4 119.062 130.108 119.608 129.111 119.29C128.464 119.079 127.97 118.475 127.776 117.775C127.674 117.391 127.629 116.989 127.615 116.588C127.333 109.171 127.03 101.828 126.91 94.742C122.284 95.0039 117.195 95.4766 111.503 96.194L110.711 92.0771C116.434 91.1746 121.798 90.6337 126.862 90.4059C126.748 68.0762 128.949 48.7417 140.196 38.3896C136.515 44.8611 131.094 57.448 131.108 90.2863C132.113 90.2749 133.107 90.2778 134.09 90.292C135.331 85.1359 136.595 80.0084 138.35 74.9775C138.742 73.8786 139.154 72.2757 140.304 71.8173C141.051 71.5183 141.871 71.7347 142.42 72.3725C142.905 72.9362 142.979 73.6707 142.985 74.4281C143.03 80.0795 142.698 85.4235 142.567 90.7476C143.959 90.8757 145.328 91.0323 146.671 91.2116C151.266 73.5483 159.053 62.7579 174.086 51.3325L174.1 51.3553C162.609 61.7955 154.952 75.5612 150.144 91.7412C163.785 94.0701 175.219 98.9842 186.286 105.057V105.105C182.429 103.969 178.905 102.859 175.562 101.811ZM142.516 94.6993C142.522 98.9529 142.749 103.241 143.493 107.702C144.149 103.078 144.896 98.8532 145.771 94.9499C144.711 94.8502 143.627 94.7676 142.516 94.6993ZM138.989 90.4742C139.043 87.7126 139.173 84.9025 139.364 82.0184C138.634 84.8085 137.927 87.5958 137.245 90.386C137.83 90.4116 138.412 90.4401 138.989 90.4742Z" fill="#B30430"/>
<path fill-rule="evenodd" clip-rule="evenodd" d="M74.2751 42.8767C82.0482 52.087 89.2703 62.5273 96.109 72.5889C97.1058 61.1863 96.4441 48.9068 95.8193 36.8665C95.7199 34.9504 99.0569 34.6315 99.5426 36.6159C103.544 53.0294 106.501 69.6934 107.52 86.5424C115.157 86.3687 121.536 86.9524 124.708 88.8286C119.55 88.4984 113.706 88.672 107.665 89.1589C108.122 98.5799 107.96 108.061 107.023 117.581H106.986C106.892 107.753 106.33 98.5116 105.367 89.3582C99.429 89.9077 93.3627 90.7362 87.6174 91.6643C88.1286 100.635 87.944 109.877 87.501 119.478H87.4782C86.8364 112.699 85.9532 102.739 84.5445 92.1768C80.7446 92.8288 77.1293 93.5092 73.8406 94.1698C74.2012 99.2063 74.8828 111.036 76.3284 119.478C71.5657 111.99 70.603 103.599 69.7282 95.0182C68.5184 95.2744 67.371 95.525 66.3004 95.7613C66.2038 99.5564 65.6472 107.469 65.2354 112.969C63.7444 107.705 63.219 102.099 62.4891 96.6268C60.876 97.0026 59.5582 97.3243 58.6011 97.5663L57.1953 93.6544C60.2625 92.6466 71.4862 90.3461 84.056 88.6265C81.5966 71.4443 77.6944 53.4337 71.1681 45.3536C70.0094 43.9187 72.9545 41.3136 74.2751 42.8767ZM105.069 86.6221C103.825 75.6893 102.022 64.8163 99.7726 53.149L100.023 81.9188C100.176 83.0149 99.7073 84.2078 98.6565 84.5011C97.8641 84.7231 97.0263 84.4925 96.5975 83.7409C91.7439 75.2167 86.9472 65.958 80.9462 57.337C84.6524 67.3588 86.5496 77.5912 87.3817 88.1909C93.3457 87.4393 99.4716 86.8528 105.069 86.6221Z" fill="#1A1A18"/>
<path fill-rule="evenodd" clip-rule="evenodd" d="M115.015 121.063C114.95 121.271 114.898 121.553 114.859 121.9C114.819 122.248 114.799 122.678 114.799 123.19V130.664V131.216C114.799 132.281 114.808 132.978 114.819 133.306C114.833 133.633 114.844 133.938 114.859 134.211L113.683 134.222L106.049 122.954L106.146 132.084C106.146 132.714 106.16 133.163 106.185 133.434C106.211 133.704 106.265 133.963 106.344 134.211H104.711C104.777 134.003 104.828 133.724 104.868 133.374C104.907 133.027 104.927 132.597 104.927 132.084V123.822C104.927 122.837 104.907 122.205 104.868 121.929C104.828 121.653 104.703 121.365 104.496 121.063H106.146L113.68 132.076L113.521 123.184C113.521 122.544 113.507 122.091 113.481 121.829C113.456 121.567 113.405 121.311 113.325 121.063H115.015ZM69.1347 134.211H67.3654C67.442 133.909 67.5017 133.613 67.5414 133.326C67.5812 133.035 67.6011 132.694 67.6011 132.301V131.552L67.8169 123.053L63.3524 134.371H62.9208L58.5131 123.053L58.7318 131.116V132.104C58.7318 132.864 58.8084 133.568 58.9675 134.211H57.1953C57.2606 134.003 57.3146 133.724 57.3544 133.374C57.3941 133.027 57.414 132.597 57.414 132.084V123.19C57.414 122.219 57.3402 121.51 57.1953 121.063H58.8482L63.2246 132.036L67.6323 121.075L69.1347 121.063C69.0694 121.271 69.0154 121.553 68.9756 121.9C68.9387 122.248 68.9188 122.678 68.9188 123.19V132.084C68.9188 133.055 68.9898 133.767 69.1347 134.211ZM79.3019 128.298C78.8418 125.946 78.2142 123.868 77.4133 122.068H76.9816C75.4338 123.882 74.187 125.957 73.2442 128.298H79.3019ZM81.2302 134.211H79.478C79.637 133.804 79.7137 133.28 79.7137 132.634C79.7137 131.543 79.637 130.453 79.478 129.363H72.8892C72.6932 129.94 72.537 130.555 72.4177 131.205C72.3013 131.857 72.2416 132.446 72.2416 132.97C72.2416 133.351 72.3126 133.767 72.4575 134.211H70.7478C70.7478 132.084 71.1539 130.026 71.9662 128.041C72.7273 126.188 73.9258 124.198 75.5644 122.068C74.3461 122.068 73.4288 122.128 72.8125 122.245C72.9034 122.023 72.9744 121.812 73.0283 121.616C73.0794 121.416 73.1277 121.2 73.1646 120.964C73.3095 121.003 73.4742 121.029 73.656 121.043C73.8406 121.055 74.116 121.063 74.4824 121.063H78.1602C79.1059 122.706 79.8585 124.801 80.4237 127.352C80.6452 128.349 80.8355 129.482 80.9917 130.743C81.1507 132.005 81.2302 133.055 81.2302 133.898V134.211ZM88.9976 124.651C88.9976 122.982 88.0604 122.145 86.186 122.145C85.8964 122.145 85.5697 122.157 85.2006 122.176C84.8342 122.196 84.5928 122.205 84.4735 122.205V127.509H84.9648C85.8055 127.509 86.4189 127.469 86.8052 127.389C87.1914 127.313 87.5606 127.147 87.9156 126.897C88.6369 126.384 88.9976 125.636 88.9976 124.651ZM92.1046 133.778L91.2782 134.211C91.122 134.305 90.9714 134.351 90.8266 134.351C90.6959 134.351 90.5568 134.265 90.412 134.097C90.27 133.926 90.0399 133.576 89.7247 133.038C89.5543 132.736 89.3441 132.361 89.0942 131.902C88.7818 131.327 88.3615 130.538 87.8361 129.533L87.464 128.847L87.4044 128.693L87.3249 128.554L87.2482 128.377C86.8676 128.451 86.5609 128.503 86.3337 128.523C86.1037 128.545 85.797 128.554 85.4192 128.554H84.4735V132.084C84.4735 133.055 84.5474 133.767 84.6894 134.211H83.0194C83.0848 134.003 83.1359 133.724 83.1756 133.374C83.2154 133.027 83.2353 132.597 83.2353 132.084V123.073C83.2353 122.114 83.1614 121.411 83.0194 120.964C83.3858 121.055 83.9822 121.1 84.8086 121.1H86.3621C87.5805 121.1 88.5518 121.419 89.2731 122.06C89.9945 122.703 90.3552 123.572 90.3552 124.671C90.3552 126.16 89.6991 127.261 88.387 127.982L88.5063 128.178C88.583 128.312 88.6568 128.443 88.7222 128.574C88.7364 128.614 88.8585 128.85 89.0942 129.283L89.844 130.684C90.2614 131.486 90.642 132.116 90.9828 132.577C91.3236 133.035 91.6985 133.437 92.1046 133.778ZM100.778 128.298C100.318 125.946 99.6902 123.868 98.8893 122.068H98.4577C96.9099 123.882 95.6631 125.957 94.7202 128.298H100.778ZM102.703 134.211H100.954C101.113 133.804 101.19 133.28 101.19 132.634C101.19 131.543 101.113 130.453 100.954 129.363H94.3652C94.1693 129.94 94.0131 130.555 93.8938 131.205C93.7774 131.857 93.7177 132.446 93.7177 132.97C93.7177 133.351 93.7887 133.767 93.9336 134.211H92.2239C92.2239 132.084 92.63 130.026 93.4422 128.041C94.2034 126.188 95.4018 124.198 97.0405 122.068C95.8222 122.068 94.9048 122.128 94.2886 122.245C94.3794 122.023 94.4504 121.812 94.5044 121.616C94.5555 121.416 94.601 121.2 94.6407 120.964C94.7856 121.003 94.9503 121.029 95.132 121.043C95.3166 121.055 95.5921 121.063 95.9585 121.063H99.6363C100.582 122.706 101.335 124.801 101.9 127.352C102.121 128.349 102.312 129.482 102.468 130.743C102.627 132.005 102.703 133.055 102.703 133.898V134.211Z" fill="#1A1A18"/>
<path fill-rule="evenodd" clip-rule="evenodd" d="M141.525 121.063C141.249 121.442 140.979 121.883 140.718 122.384C140.533 122.726 140.383 123.039 140.266 123.33C140.056 123.828 139.835 124.354 139.596 124.907L135.566 134.43L135.254 134.436L132.084 126.404L128.702 134.43H128.387L124.609 125.083L123.448 122.421C123.212 121.923 122.954 121.47 122.664 121.063H124.573C124.624 121.376 124.709 121.724 124.828 122.097C124.945 122.473 125.135 122.982 125.399 123.626L128.708 131.82L131.494 124.907L130.943 123.546C130.656 122.823 130.423 122.302 130.247 121.98C130.068 121.658 129.855 121.351 129.608 121.063H131.457C131.559 121.562 131.644 121.903 131.712 122.088C131.92 122.586 132.124 123.079 132.32 123.566L135.606 131.831L138.653 124.178C139.074 123.139 139.332 122.458 139.431 122.137C139.528 121.815 139.596 121.456 139.636 121.063H141.525ZM144.2 134.211H142.43C142.496 134.003 142.547 133.719 142.587 133.366C142.626 133.01 142.646 132.583 142.646 132.084V123.19C142.646 122.219 142.572 121.51 142.43 121.063H144.2C144.134 121.271 144.08 121.553 144.041 121.9C144.004 122.248 143.984 122.678 143.984 123.19V132.084C143.984 133.055 144.055 133.767 144.2 134.211ZM157.278 121.063C157.213 121.271 157.159 121.553 157.119 121.9C157.082 122.248 157.062 122.678 157.062 123.19V130.664V131.216C157.062 132.281 157.068 132.978 157.082 133.306C157.093 133.633 157.108 133.938 157.119 134.211L155.943 134.222L148.309 122.954L148.409 132.084C148.409 132.714 148.42 133.163 148.448 133.434C148.474 133.704 148.525 133.963 148.605 134.211H146.972C147.037 134.003 147.091 133.724 147.131 133.374C147.168 133.027 147.187 132.597 147.187 132.084V123.822C147.187 122.837 147.168 122.205 147.131 121.929C147.091 121.653 146.966 121.365 146.756 121.063H148.409L155.94 132.076L155.784 123.184C155.784 122.544 155.77 122.091 155.744 121.829C155.716 121.567 155.665 121.311 155.585 121.063H157.278ZM166.127 132.793L165.772 133.918C165.707 134.114 165.562 134.211 165.341 134.211H165.241H163.943H163.571H163.08H162.058H159.854C159.919 134.003 159.973 133.724 160.01 133.374C160.05 133.027 160.07 132.597 160.07 132.084V123.073C160.07 122.1 159.999 121.396 159.854 120.964C160.115 121.003 160.32 121.029 160.464 121.043C160.606 121.055 161.061 121.063 161.819 121.063H164.75C165.091 121.063 165.295 121.086 165.361 121.132C165.426 121.177 165.471 121.32 165.497 121.556L165.557 122.325C165.165 122.179 164.75 122.108 164.318 122.108H161.368V126.641H163.472H163.728C164.017 126.641 164.208 126.635 164.298 126.621C164.389 126.609 164.54 126.575 164.75 126.524V127.845C164.369 127.765 163.898 127.725 163.336 127.725H161.368V133.129H164.043C164.699 133.129 165.119 133.112 165.301 133.081C165.486 133.052 165.761 132.958 166.127 132.793ZM176.766 133.778L175.94 134.211C175.783 134.305 175.633 134.351 175.488 134.351C175.357 134.351 175.221 134.265 175.076 134.097C174.931 133.926 174.701 133.576 174.386 133.038C174.216 132.736 174.008 132.361 173.758 131.902C173.443 131.327 173.023 130.538 172.5 129.533L172.125 128.847L172.066 128.693L171.989 128.554L171.91 128.377C171.529 128.451 171.225 128.503 170.995 128.523C170.765 128.545 170.461 128.554 170.081 128.554H169.135V132.084C169.135 133.055 169.209 133.767 169.354 134.211H167.681C167.746 134.003 167.8 133.724 167.837 133.374C167.877 133.027 167.897 132.597 167.897 132.084V123.073C167.897 122.114 167.826 121.411 167.681 120.964C168.047 121.055 168.644 121.1 169.47 121.1H171.024C172.245 121.1 173.213 121.419 173.935 122.06C174.656 122.703 175.017 123.572 175.017 124.671C175.017 126.16 174.361 127.261 173.051 127.982L173.168 128.178C173.247 128.312 173.318 128.443 173.384 128.574C173.398 128.614 173.523 128.85 173.758 129.283L174.505 130.684C174.926 131.486 175.306 132.116 175.647 132.577C175.988 133.035 176.36 133.437 176.766 133.778ZM173.659 124.651C173.659 122.982 172.722 122.145 170.847 122.145C170.558 122.145 170.231 122.157 169.865 122.176C169.496 122.196 169.254 122.205 169.135 122.205V127.509H169.629C170.467 127.509 171.08 127.469 171.467 127.389C171.853 127.313 172.225 127.147 172.577 126.897C173.298 126.384 173.659 125.636 173.659 124.651ZM186.286 121.063C185.973 121.51 185.738 121.889 185.581 122.205L184.994 123.452L183.412 126.886L181.566 130.783L181.231 131.452L180.898 132.104C180.347 133.155 180.009 133.77 179.884 133.946C179.759 134.123 179.592 134.211 179.382 134.211H177.928C178.413 133.767 178.873 133.192 179.314 132.489C179.754 131.785 180.353 130.649 181.114 129.086L178.794 124.078C178.348 123.119 178.058 122.518 177.928 122.273C177.797 122.031 177.547 121.627 177.181 121.063H179.126C179.126 121.442 179.206 121.843 179.362 122.265C179.427 122.45 179.561 122.757 179.757 123.19L181.764 127.671L183.71 123.466C184.181 122.43 184.417 121.627 184.417 121.063H186.286Z" fill="#B30430"/>
</svg>
