<svg width="243" height="168" viewBox="0 0 243 168" fill="none" xmlns="http://www.w3.org/2000/svg">
<rect x="0.5" y="0.5" width="241.667" height="167" rx="15.5" fill="#1A1A1A"/>
<rect x="0.5" y="0.5" width="241.667" height="167" rx="15.5" stroke="#9DA8B9"/>
<path fill-rule="evenodd" clip-rule="evenodd" d="M78.168 40.0011L108.775 87.0119L121.572 66.6313L134.494 87.1618L164.418 40.0714L164.501 40.0005H155.976L138.783 66.9997L130.422 53.5573L138.441 40H130.138L125.922 46.6202L121.522 40H104.91L117.058 60.2961L112.63 67.3007L95.1865 40C95.1872 40.0011 90.5224 40.0011 78.168 40.0011Z" fill="white"/>
<path fill-rule="evenodd" clip-rule="evenodd" d="M121.607 77.418L108.609 97.948L95.5829 77.7667L82.1367 77.759L82.1456 128H89.689L89.7763 96.3109L103.076 117.213L116.938 96.038L116.905 127.996L131.444 128L131.412 93.5316L121.607 77.418ZM147.101 77.7513L137.077 93.5085L137.069 128L151.871 127.996V104.251H161.854L161.85 97.7256H151.853L151.871 89.8176H161.845V77.7513H147.101Z" fill="white"/>
</svg>
