<svg width="243" height="168" viewBox="0 0 243 168" fill="none" xmlns="http://www.w3.org/2000/svg">
<rect x="1" y="0.5" width="241.5" height="167" rx="15.5" fill="white"/>
<rect x="1" y="0.5" width="241.5" height="167" rx="15.5" stroke="#9DA8B9"/>
<g clip-path="url(#clip0_414_8445)">
<path d="M179.513 83.1667C172.824 79.493 167.896 81.3214 161.207 83.4462C156.911 84.6776 152.461 85.2988 147.99 85.2914C147.292 85.3082 146.592 85.2632 145.901 85.1572C143.001 84.7155 139.994 83.8991 138.069 81.6067C137.866 81.4533 137.614 81.378 137.359 81.3944C137.105 81.4109 136.865 81.5179 136.683 81.696C136.532 81.8299 136.437 82.0157 136.419 82.216C136.324 82.3119 136.255 82.4289 136.216 82.5572C135.855 84.4415 135.287 86.6333 133.276 87.377C131.508 87.9809 130.816 86.1023 130.275 84.7267C130.123 84.3474 130.01 83.9539 129.937 83.5525C129.526 81.3158 129.853 78.9953 129.977 76.7308C130.194 72.7363 130.683 68.7608 131.441 64.832C131.801 62.8023 132.916 60.7893 133.13 58.7372C133.305 57.9823 132.848 56.8976 131.914 56.8472C131.508 56.8019 131.097 56.8858 130.742 57.0867C130.387 57.2878 130.105 57.5954 129.937 57.9655C129.542 59.0573 129.237 60.1794 129.025 61.3205C128.94 61.7286 128.817 62.1257 128.721 62.5283C127.673 66.9305 127.075 71.4266 126.936 75.9479C126.56 75.8025 126.169 75.6994 125.77 75.6404C125.001 75.5061 124.213 75.5333 123.456 75.72C122.698 75.9069 121.988 76.2493 121.372 76.7252C121.261 76.8074 121.158 76.8992 121.062 76.9991C119.339 78.794 118.698 81.3997 118.866 83.8377C118.416 85.3418 118.151 87.5728 116.304 87.8523C114.615 87.9698 113.387 86.734 112.363 85.5711C111.946 85.1837 111.569 84.7567 111.236 84.2962C111.077 83.9514 110.868 83.6313 110.617 83.3455C110.544 83.2837 110.458 83.238 110.366 83.2113C110.273 83.1847 110.176 83.1777 110.081 83.1909C109.986 83.2042 109.895 83.2372 109.813 83.288C109.732 83.3387 109.662 83.4059 109.609 83.4853C109.35 83.9886 109.609 84.6037 109.722 85.0901C109.828 85.504 109.941 85.9121 110.071 86.3147C110.149 86.5718 110.228 86.8291 110.301 87.0919C110.413 87.4825 110.55 87.8654 110.713 88.2382C110.938 88.7974 111.157 89.3565 111.377 89.9157C111.895 91.2492 112.326 92.6145 112.667 94.0031C113.42 96.9376 113.686 99.9745 113.455 102.994C113.337 104.252 113.354 105.527 113.111 106.774C112.644 108.166 111.94 111.477 110.099 111.488L109.783 111.359C108.561 110.191 108.471 108.362 108.094 106.752L107.683 104.677C106.827 98.8118 107.486 92.8233 107.722 86.9242C108.15 84.1955 108.607 81.4779 109.074 78.7606C109.282 78.1511 109.491 77.5416 109.693 76.9321C110.42 74.4662 111.338 71.8382 110.949 69.2437C110.902 68.8676 110.767 68.5075 110.555 68.1925C109.468 66.6772 107.418 67.6837 106.788 69.4003C105.74 71.9445 105.543 74.7401 105.307 77.4521L105.239 78.6096C105.132 79.4147 105.048 80.2255 104.974 81.0362C104.851 81.3161 104.712 81.5886 104.558 81.8526L104.4 82.093C103.938 82.546 103.465 82.9821 102.964 83.3903C101.794 83.9308 100.539 84.2674 99.2533 84.3855C98.3137 84.4235 97.3725 84.3917 96.4377 84.2906C95.4496 84.2804 94.4636 84.2 93.487 84.0501C93.3006 84.0201 93.1126 84.0015 92.9239 83.9942C92.1442 83.9898 91.3663 83.9206 90.5983 83.7872C90.4126 83.7421 90.2245 83.7067 90.0351 83.6811C88.802 83.5245 87.625 83.1218 86.403 82.9486C84.7531 82.6299 83.0976 82.3503 81.4703 81.9477C81.2957 81.9086 81.121 81.875 80.9466 81.8526C79.4428 81.6041 77.9253 81.4472 76.4022 81.383C76.2615 81.383 76.1151 81.383 75.9743 81.383C74.3486 81.2655 72.716 81.2767 71.0921 81.4165C69.512 81.4993 67.9453 81.7487 66.4183 82.1601C65.3933 82.3571 64.394 82.6686 63.4394 83.0884C62.2682 83.6979 60.5282 84.3801 60.5 85.8841C60.5115 86.0923 60.5644 86.2961 60.6557 86.4839C60.7471 86.6716 60.875 86.8396 61.0321 86.9778C61.1892 87.1162 61.3724 87.2222 61.571 87.2898C61.7696 87.3573 61.9798 87.385 62.1893 87.3715C62.6233 87.3361 63.0267 87.1359 63.3155 86.8123C63.5772 86.5493 63.8681 86.3167 64.1827 86.1189L64.7459 85.7947C65.782 85.2841 66.9012 84.9603 68.0513 84.8384C69.2766 84.5684 70.5299 84.4444 71.7847 84.4694C71.8917 84.475 71.9988 84.475 72.1057 84.4694C73.3552 84.3845 74.6097 84.4032 75.856 84.5254H76.1264C77.9884 84.5913 79.84 84.8328 81.656 85.2467C83.734 85.694 85.8457 85.996 87.9009 86.5216C88.0868 86.5662 88.2782 86.5999 88.4641 86.6277C89.6905 86.8761 90.932 87.0442 92.1807 87.1311C92.4251 87.1302 92.6696 87.1432 92.9127 87.1701C94.5063 87.3659 96.1055 87.4162 97.7159 87.4777C98.9843 87.5731 100.259 87.4164 101.466 87.017C102.672 86.6176 103.787 85.9835 104.744 85.1516C104.648 86.6613 104.563 88.1767 104.456 89.6808C104.192 95.5799 104.135 101.457 105.019 107.417C105.583 109.973 106.039 113.053 108.595 114.423C111.022 115.598 113.776 113.786 114.727 111.51C115.398 109.99 115.836 108.378 116.028 106.729C116.09 103.839 115.882 100.802 115.662 97.8165C115.403 95.143 114.766 92.5191 113.77 90.0218C116.135 91.5036 118.883 90.9668 120.297 88.5625C120.604 89.1239 121.023 89.6175 121.529 90.0135C122.034 90.4095 122.615 90.6996 123.236 90.8662C125.269 91.3415 126.857 89.7479 127.826 88.1487C127.871 88.076 127.91 88.0033 127.949 87.925C128.142 87.5169 128.302 87.0944 128.428 86.6613L128.462 86.7396C129.132 88.2718 130.399 89.5355 132.145 89.664C135.287 90.156 137.297 87.282 137.883 84.4638L138.17 84.7323C139.389 85.8171 140.792 86.6785 142.314 87.2764C144.279 88.0725 146.387 88.4643 148.509 88.4282C153.25 88.3667 158.031 87.8691 162.558 86.4097C167.086 84.9503 171.534 83.1499 176.264 85.0677C177.801 85.587 179.247 86.3417 180.55 87.3043C180.693 87.4226 180.862 87.5071 181.044 87.5516C181.225 87.5961 181.414 87.5994 181.597 87.5616C181.859 87.4968 182.092 87.3449 182.256 87.1311C183.269 85.3584 180.887 83.8655 179.513 83.1667ZM127.302 84.0613C126.513 87.2652 124.531 89.5411 122.87 89.1384C121.209 88.7358 120.505 85.7835 121.293 82.6074C122.082 79.4315 124.064 77.1277 125.72 77.5303C127.375 77.933 128.09 80.8574 127.302 84.0613Z" fill="#7BBB4E"/>
<path d="M97.6046 45.7649L98.072 46.4302L95.324 48.3873L96.5853 50.1319L99.0575 48.3761L99.536 49.036L97.064 50.7973L98.6858 53.0339L97.948 53.5539L94.1133 48.2363L97.6046 45.7649Z" fill="#7BBB4E"/>
<path d="M106.558 44.8478C106.883 45.4541 107.018 46.1431 106.946 46.8263C106.874 47.5094 106.597 48.1555 106.152 48.6816C105.708 49.2077 105.115 49.5896 104.45 49.7784C103.784 49.9672 103.078 49.9542 102.42 49.741C101.762 49.5279 101.184 49.1244 100.759 48.5824C100.334 48.0403 100.082 47.3846 100.035 46.6992C99.9886 46.0139 100.149 45.3303 100.497 44.7364C100.844 44.1424 101.363 43.6652 101.985 43.366C102.383 43.1622 102.817 43.0388 103.264 43.0031C103.71 42.9673 104.158 43.0199 104.584 43.1577C105.009 43.2956 105.403 43.516 105.741 43.8061C106.08 44.0962 106.358 44.4503 106.558 44.8478ZM101.146 47.4591C101.446 48.062 101.973 48.5229 102.613 48.7419C103.253 48.9607 103.955 48.9196 104.564 48.6277C105.013 48.4068 105.386 48.0589 105.636 47.6281C105.887 47.1973 106.003 46.7026 105.971 46.2062C105.938 45.7099 105.759 45.2341 105.455 44.8387C105.151 44.4433 104.737 44.1459 104.263 43.984C103.789 43.8221 103.278 43.8028 102.794 43.9287C102.309 44.0545 101.873 44.3199 101.54 44.6913C101.207 45.0627 100.991 45.5236 100.922 46.0161C100.852 46.5086 100.93 47.0106 101.146 47.4591Z" fill="#7BBB4E"/>
<path d="M114.294 42.7117C114.493 43.369 114.491 44.0706 114.286 44.7264C114.081 45.3822 113.683 45.9622 113.144 46.392C112.605 46.8219 111.949 47.0819 111.26 47.1387C110.571 47.1957 109.88 47.0467 109.277 46.7111C108.674 46.3754 108.186 45.8684 107.875 45.2552C107.564 44.642 107.444 43.9504 107.532 43.2694C107.62 42.5884 107.91 41.9489 108.367 41.433C108.823 40.9172 109.424 40.5485 110.093 40.3744C110.523 40.2504 110.974 40.2126 111.419 40.2633C111.865 40.314 112.295 40.4521 112.686 40.6696C113.077 40.8871 113.421 41.1797 113.697 41.5303C113.973 41.8808 114.176 42.2824 114.294 42.7117ZM108.477 44.227C108.648 44.8758 109.071 45.4306 109.654 45.7693C110.237 46.108 110.932 46.2029 111.585 46.0331C112.239 45.8633 112.797 45.4427 113.138 44.8638C113.479 44.285 113.575 43.5953 113.404 42.9465C113.233 42.2977 112.809 41.743 112.226 41.4043C111.644 41.0655 110.949 40.9707 110.296 41.1405C109.642 41.3102 109.084 41.7308 108.742 42.3097C108.401 42.8885 108.306 43.5782 108.477 44.227Z" fill="#7BBB4E"/>
<path d="M122.244 42.1302C122.272 42.5705 122.21 43.0119 122.062 43.4278C121.914 43.8437 121.682 44.2254 121.381 44.55C121.08 44.8745 120.716 45.1351 120.31 45.316C119.905 45.4969 119.467 45.5944 119.023 45.6025L116.376 45.7591L115.977 39.2561L118.651 39.094C119.09 39.0494 119.533 39.0935 119.954 39.2236C120.375 39.3536 120.765 39.5669 121.1 39.8506C121.436 40.1342 121.71 40.4824 121.907 40.8742C122.104 41.266 122.218 41.6932 122.244 42.1302ZM121.326 42.1917C121.311 41.8658 121.23 41.5463 121.089 41.2522C120.947 40.958 120.746 40.6953 120.5 40.4798C120.253 40.2642 119.966 40.1002 119.654 39.9976C119.342 39.8949 119.013 39.8557 118.685 39.8824L116.928 39.9886L117.227 44.8924L119.023 44.7862C119.348 44.773 119.667 44.6945 119.961 44.5555C120.255 44.4166 120.518 44.2199 120.733 43.9775C120.948 43.735 121.112 43.4518 121.213 43.1449C121.315 42.838 121.354 42.5137 121.326 42.1917Z" fill="#7BBB4E"/>
<path d="M133.093 43.7629C133.006 44.1952 132.831 44.6053 132.579 44.9685C132.328 45.3317 132.004 45.6403 131.629 45.8756C131.253 46.1109 130.834 46.268 130.395 46.3373C129.957 46.4067 129.509 46.3868 129.078 46.279L126.477 45.7199L127.806 39.312L130.43 39.8712C130.867 39.9415 131.286 40.0998 131.66 40.3365C132.035 40.5731 132.356 40.8831 132.606 41.2474C132.855 41.6117 133.027 42.0227 133.111 42.4552C133.194 42.8877 133.189 43.3327 133.093 43.7629ZM132.192 43.5839C132.264 43.2655 132.271 42.9359 132.211 42.6149C132.152 42.294 132.028 41.9882 131.846 41.7161C131.665 41.444 131.43 41.2111 131.155 41.0315C130.881 40.8518 130.573 40.7291 130.249 40.6707L128.521 40.3185L127.524 45.1328L129.287 45.4962C129.604 45.5678 129.933 45.5747 130.254 45.5164C130.574 45.4581 130.88 45.3359 131.151 45.1572C131.423 44.9784 131.655 44.7469 131.834 44.4765C132.013 44.206 132.135 43.9024 132.192 43.5839Z" fill="#7BBB4E"/>
<path d="M140.281 43.0305L139.977 43.7853L136.599 42.4322L135.838 44.2886L138.885 45.4963L138.581 46.2512L135.534 45.0434L134.712 47.0005L138.226 48.3927L137.922 49.1476L133.586 47.4198L136.035 41.3474L140.281 43.0305Z" fill="#7BBB4E"/>
<path d="M145.835 48.717C145.075 49.9639 143.831 50.2044 142.428 49.36L141.032 48.5212L139.968 50.2658L139.219 49.8017L142.597 44.2102L144.771 45.5186C146.179 46.3461 146.567 47.5204 145.835 48.717ZM145.081 48.2976C145.571 47.4924 145.272 46.7544 144.32 46.1839L142.946 45.3676L141.471 47.8224L142.84 48.6444C143.774 49.2146 144.574 49.1307 145.081 48.2976Z" fill="#7BBB4E"/>
<path d="M151.446 54.8343C151.007 55.364 150.417 55.7512 149.755 55.946C149.092 56.1411 148.386 56.1349 147.726 55.9285C147.067 55.7221 146.485 55.3247 146.055 54.7875C145.624 54.2502 145.365 53.5975 145.311 52.9132C145.257 52.2289 145.41 51.5442 145.751 50.9468C146.091 50.3496 146.604 49.8668 147.223 49.5606C147.841 49.2546 148.538 49.139 149.223 49.2288C149.909 49.3186 150.551 49.6097 151.069 50.0647C151.412 50.3511 151.695 50.7025 151.9 51.0985C152.105 51.4945 152.229 51.927 152.264 52.371C152.299 52.815 152.245 53.2614 152.105 53.6843C151.964 54.1073 151.74 54.4981 151.446 54.8343ZM146.941 50.8699C146.497 51.3767 146.271 52.0371 146.313 52.7079C146.355 53.3787 146.662 54.0061 147.167 54.454C147.545 54.7823 148.012 54.9922 148.511 55.0572C149.009 55.122 149.515 55.0391 149.966 54.8188C150.416 54.5985 150.791 54.2507 151.043 53.8191C151.296 53.3877 151.413 52.8917 151.382 52.3938C151.351 51.8959 151.172 51.4183 150.868 51.0213C150.564 50.6242 150.148 50.3255 149.673 50.1624C149.198 49.9994 148.686 49.9798 148.199 50.1056C147.713 50.2316 147.275 50.4975 146.941 50.8699Z" fill="#7BBB4E"/>
<path d="M157.764 57.4121L157.122 57.9321L155.782 56.2882L151.305 59.889L150.742 59.1902L155.247 55.5892L153.856 53.9565L154.504 53.4365L157.764 57.4121Z" fill="#7BBB4E"/>
<path d="M97.4047 120.49C95.9856 119.305 95.1522 117.599 96.2278 116.397L96.926 116.956C96.3122 117.638 96.6727 118.678 97.6525 119.607L99.5445 117.303C98.6041 116.419 98.1197 115.458 98.8237 114.597C99.6121 113.641 100.727 113.965 101.667 114.714L102.36 115.273L100.716 117.269C102.473 118.874 102.276 120.11 101.583 120.965C100.592 122.201 98.8406 121.687 97.4047 120.49ZM100.22 117.901L98.3451 120.183C99.3249 120.898 100.277 121.161 100.89 120.412C101.504 119.663 101.262 118.874 100.215 117.901H100.22ZM100.057 116.699L101.155 115.357C100.383 114.742 99.8598 114.764 99.5557 115.134C99.1616 115.603 99.3193 116.034 100.051 116.699H100.057Z" fill="#7BBB4E"/>
<path d="M102.747 124.102L101.941 123.689L103.929 119.775C104.701 118.254 106.114 117.795 107.668 118.572C108.015 118.709 108.328 118.919 108.585 119.188C108.842 119.457 109.036 119.779 109.155 120.13C109.273 120.482 109.313 120.855 109.271 121.223C109.23 121.591 109.107 121.946 108.913 122.263L106.919 126.177L106.114 125.774L108.102 121.86C108.242 121.646 108.333 121.404 108.369 121.151C108.404 120.898 108.383 120.64 108.306 120.396C108.23 120.152 108.1 119.928 107.927 119.739C107.753 119.551 107.54 119.402 107.302 119.305C107.081 119.173 106.833 119.09 106.576 119.064C106.319 119.037 106.059 119.066 105.815 119.15C105.571 119.234 105.348 119.37 105.162 119.548C104.976 119.726 104.832 119.943 104.74 120.183L102.747 124.102Z" fill="#7BBB4E"/>
<path d="M112.485 123.689L110.796 123.13L109.518 127.044L108.656 126.764L110.858 120.054L111.72 120.334L111.061 122.341L112.75 122.9L112.485 123.689Z" fill="#7BBB4E"/>
<path d="M120.028 127.043L118.389 126.792L118.068 128.855L117.178 128.721L117.848 124.365C117.885 124.122 117.874 123.875 117.815 123.636C117.755 123.398 117.649 123.174 117.502 122.976C117.356 122.779 117.171 122.612 116.96 122.485C116.748 122.358 116.513 122.274 116.269 122.237C116.025 122.201 115.775 122.212 115.535 122.271C115.295 122.33 115.069 122.435 114.87 122.581C114.672 122.727 114.503 122.91 114.376 123.12C114.248 123.33 114.163 123.563 114.126 123.806L113.946 124.98L113.051 124.84L113.237 123.666C113.263 123.297 113.37 122.937 113.55 122.613C113.731 122.289 113.981 122.009 114.283 121.791C114.584 121.573 114.93 121.423 115.296 121.352C115.662 121.281 116.039 121.29 116.401 121.379C118.119 121.642 119.003 122.827 118.744 124.51L118.513 125.998L120.152 126.244L120.028 127.043Z" fill="#7BBB4E"/>
<path d="M131.385 125.718L129.752 125.981L130.09 128.039L129.2 128.184L128.48 123.839C128.452 123.586 128.373 123.341 128.247 123.119C128.12 122.897 127.95 122.703 127.745 122.549C127.541 122.395 127.307 122.283 127.058 122.222C126.809 122.161 126.55 122.151 126.297 122.192C126.043 122.234 125.801 122.326 125.585 122.464C125.369 122.601 125.184 122.781 125.04 122.992C124.897 123.204 124.798 123.442 124.751 123.692C124.703 123.943 124.707 124.2 124.763 124.449L124.96 125.617L124.065 125.763L123.873 124.594C123.783 124.235 123.773 123.861 123.843 123.498C123.914 123.134 124.063 122.791 124.282 122.491C124.5 122.191 124.782 121.942 125.107 121.761C125.432 121.581 125.794 121.473 126.165 121.446C127.883 121.161 129.093 122.005 129.369 123.683L129.617 125.17L131.25 124.902L131.385 125.718Z" fill="#7BBB4E"/>
<path d="M132.422 122.649L133.132 124.36C133.323 124.818 133.688 125.182 134.149 125.373C134.61 125.563 135.129 125.564 135.59 125.374C136.051 125.185 136.418 124.822 136.61 124.364C136.802 123.907 136.803 123.392 136.612 122.934L136.387 122.375L137.226 122.034L137.451 122.593C137.623 122.922 137.719 123.285 137.734 123.655C137.749 124.025 137.682 124.395 137.537 124.736C137.393 125.078 137.175 125.384 136.898 125.633C136.621 125.882 136.293 126.068 135.936 126.177C134.326 126.837 132.952 126.283 132.299 124.701L130.609 120.63L131.443 120.289L132.107 121.888L136.674 120.015L136.989 120.775L132.422 122.649Z" fill="#7BBB4E"/>
<path d="M143.725 116.358L146.315 119.931L145.572 120.462L142.987 116.884C142.244 116.006 141.247 115.939 140.233 116.515L142.621 119.808L141.883 120.328L139.496 117.029C138.617 117.817 138.319 118.801 138.989 119.741L139.687 120.703L138.949 121.228L138.251 120.261C137.254 118.88 137.688 117.308 139.377 116.095C141.067 114.882 142.745 114.977 143.725 116.358Z" fill="#7BBB4E"/>
<path d="M148.858 117.426L148.261 118.097L144.921 115.201C143.632 114.082 143.542 112.612 144.685 111.287C144.904 110.987 145.187 110.739 145.513 110.56C145.838 110.38 146.2 110.274 146.572 110.248C146.944 110.222 147.317 110.277 147.665 110.409C148.013 110.541 148.328 110.747 148.587 111.012L151.926 113.909L151.335 114.586L147.996 111.689C147.815 111.505 147.598 111.36 147.358 111.263C147.118 111.166 146.86 111.119 146.601 111.125C146.342 111.132 146.087 111.192 145.852 111.3C145.618 111.41 145.408 111.565 145.237 111.759C145.066 111.952 144.937 112.178 144.858 112.423C144.779 112.668 144.751 112.927 144.778 113.183C144.804 113.439 144.884 113.687 145.011 113.911C145.139 114.135 145.311 114.33 145.518 114.485L148.858 117.426Z" fill="#7BBB4E"/>
<path d="M71.0015 74.3712H70.8945V74.2539C70.8967 74.224 70.8967 74.1942 70.8945 74.1644C72.7134 66.3116 76.0402 58.8808 80.6926 52.279C84.659 46.5979 89.8097 41.8303 95.7953 38.3002C103.003 34.1121 111.382 31.965 120.696 31.9091C128.47 31.8819 136.173 33.3891 143.356 36.3431C150.138 39.0931 156.227 43.2931 161.189 48.6446C167.276 55.237 171.601 63.641 174.045 73.6276L173.831 73.6778C168.324 51.1551 154.173 41.0624 143.271 36.5612C136.118 33.6142 128.446 32.1125 120.702 32.1439C103.808 32.239 90.3837 39.0662 80.8729 52.4412C76.2396 59.0211 72.9247 66.4247 71.1085 74.2483C71.0804 74.2929 71.0804 74.3712 71.0015 74.3712Z" fill="#7BBB4E"/>
<path d="M74.0606 74.3655L73.9648 74.2481C75.4389 67.1479 78.3092 60.4062 82.4115 54.4093C86.1081 48.898 90.9891 44.269 96.7033 40.8554C103.646 36.7568 111.8 34.6543 120.917 34.604C128.21 34.4551 135.457 35.787 142.214 38.5181C148.61 41.0628 154.351 44.9966 159.017 50.031C164.761 56.26 168.855 64.2559 171.186 73.7952L170.972 73.8455C165.712 52.3349 152.389 42.8739 142.141 38.725C135.412 35.9998 128.194 34.6679 120.928 34.8109C81.0939 35.0346 74.1901 73.8623 74.1901 74.2537L74.0606 74.3655Z" fill="#7BBB4E"/>
<path d="M121.763 133.345C112.478 133.345 104.155 131.209 97.0146 126.987C90.9081 123.301 85.7125 118.3 81.8107 112.354C77.4101 105.754 74.3055 98.3876 72.6602 90.6425V90.5362L72.8629 90.5027V90.6088C74.5099 98.337 77.6127 105.686 82.0079 112.271C88.5399 121.972 100.928 133.457 122.698 133.121C130.472 132.678 138.083 130.723 145.099 127.368C155.657 122.268 168.913 111.493 172.089 89.0879L172.302 89.1215C170.895 99.052 167.415 107.574 161.947 114.406C157.432 119.995 151.7 124.495 145.183 127.569C138.141 130.936 130.501 132.896 122.698 133.339L121.763 133.345Z" fill="#7BBB4E"/>
<path d="M122.381 135.99C112.16 135.99 103.123 133.792 95.5093 129.442C88.9511 125.646 83.4068 120.342 79.3425 113.976C74.7697 106.904 71.739 98.9592 70.4453 90.6537V90.5474L70.6537 90.5137V90.6256C71.9437 98.865 74.9447 106.748 79.4663 113.775C86.1786 124.102 99.3554 136.303 124.003 135.744C131.943 135.269 139.703 133.199 146.814 129.66C157.604 124.264 171.197 112.846 174.711 89.0879L174.931 89.1215C173.371 99.6503 169.727 108.692 164.091 115.922C159.494 121.786 153.623 126.544 146.916 129.839C139.779 133.406 131.988 135.499 124.014 135.99H122.381Z" fill="#7BBB4E"/>
</g>
<defs>
<clipPath id="clip0_414_8445">
<rect width="122" height="106" fill="white" transform="translate(60.5 31)"/>
</clipPath>
</defs>
</svg>
