<svg width="243" height="168" viewBox="0 0 243 168" fill="none" xmlns="http://www.w3.org/2000/svg">
<rect x="0.5" y="0.5" width="242" height="167" rx="15.5" fill="white"/>
<rect x="0.5" y="0.5" width="242" height="167" rx="15.5" stroke="#9DA8B9"/>
<path fill-rule="evenodd" clip-rule="evenodd" d="M131.181 102.04L119.894 82.5789V103.405H110.3V62.9631H117.638L131.186 86.3151L144.73 62.9631H152.068V103.405H142.473V82.5837L131.181 102.04ZM75.9374 109.236L74.43 114.071H73.6129L72.5529 110.771C72.5237 110.693 72.4945 110.592 72.4702 110.475C72.4555 110.534 72.441 110.582 72.4313 110.635C72.4167 110.683 72.4021 110.732 72.3875 110.771L71.3176 114.071H70.4957L68.9931 109.236H69.7468C69.8247 109.236 69.8927 109.256 69.9414 109.29C69.9949 109.324 70.0289 109.377 70.0483 109.44L70.8752 112.329C70.8897 112.402 70.9092 112.479 70.9286 112.561C70.9432 112.644 70.9626 112.736 70.9821 112.823C71.0016 112.731 71.021 112.644 71.0404 112.561C71.0648 112.479 71.0843 112.402 71.1085 112.329L72.0616 109.44C72.0811 109.386 72.1152 109.343 72.1687 109.299C72.2222 109.256 72.2854 109.236 72.3631 109.236H72.6258C72.7036 109.236 72.7717 109.256 72.8203 109.295C72.8689 109.333 72.9079 109.382 72.9322 109.44L73.8804 112.329C73.9291 112.465 73.9679 112.624 74.0069 112.808C74.0361 112.634 74.0701 112.474 74.1041 112.329L74.9309 109.44C74.9454 109.386 74.9746 109.338 75.033 109.295C75.0865 109.256 75.1545 109.232 75.2275 109.232H75.9374V109.236ZM79.8814 112.242L79.2929 110.635C79.2637 110.563 79.2347 110.48 79.2005 110.384C79.1715 110.287 79.1373 110.18 79.1083 110.064C79.079 110.175 79.0498 110.282 79.0158 110.384C78.9817 110.485 78.9526 110.567 78.9234 110.645L78.3349 112.247H79.8814V112.242ZM81.4765 114.067H80.7763C80.6984 114.067 80.6352 114.047 80.5817 114.009C80.533 113.97 80.4941 113.921 80.4698 113.863L80.1051 112.876H78.0918L77.7271 113.863C77.7076 113.917 77.6736 113.96 77.6249 114.004C77.5715 114.047 77.5082 114.067 77.4305 114.067H76.7253L78.6364 109.232H79.5702L81.4765 114.067ZM85.9942 109.972H84.5305V114.067H83.6307V109.972H82.167V109.232H85.9991V109.972H85.9942ZM90.901 112.929C90.9497 112.929 90.9934 112.949 91.0324 112.987L91.3874 113.37C91.1878 113.612 90.9497 113.8 90.6579 113.931C90.3709 114.062 90.0257 114.125 89.622 114.125C89.2622 114.125 88.9363 114.062 88.6494 113.941C88.3624 113.82 88.1146 113.65 87.9102 113.428C87.7059 113.21 87.5503 112.949 87.4434 112.644C87.3364 112.344 87.278 112.01 87.278 111.652C87.278 111.289 87.3364 110.955 87.4531 110.654C87.5698 110.355 87.7351 110.093 87.9442 109.875C88.1583 109.658 88.4063 109.488 88.7029 109.367C88.9947 109.246 89.3205 109.188 89.6755 109.188C90.0304 109.188 90.3417 109.246 90.619 109.362C90.8913 109.479 91.1246 109.628 91.3192 109.817L91.0177 110.233C91.0032 110.262 90.9787 110.287 90.9497 110.306C90.9205 110.325 90.8815 110.335 90.8328 110.335C90.7988 110.335 90.7649 110.325 90.7309 110.306C90.6967 110.287 90.6579 110.262 90.614 110.238C90.5703 110.209 90.5217 110.18 90.4681 110.146C90.4146 110.112 90.3466 110.083 90.2737 110.054C90.2008 110.025 90.1131 110.001 90.0207 109.982C89.9235 109.962 89.8116 109.953 89.6804 109.953C89.4616 109.953 89.267 109.991 89.0871 110.069C88.9072 110.146 88.7516 110.258 88.6202 110.403C88.489 110.548 88.3869 110.727 88.3187 110.935C88.2458 111.148 88.2118 111.385 88.2118 111.656C88.2118 111.927 88.2507 112.169 88.3284 112.382C88.4063 112.595 88.5083 112.774 88.6397 112.915C88.7711 113.06 88.9267 113.171 89.1066 113.249C89.2865 113.326 89.4761 113.365 89.6852 113.365C89.8068 113.365 89.9187 113.36 90.0207 113.345C90.1181 113.331 90.2105 113.312 90.2932 113.282C90.3759 113.253 90.4584 113.215 90.5313 113.171C90.6043 113.128 90.6822 113.07 90.7551 113.002C90.7794 112.983 90.7988 112.968 90.8281 112.953C90.8523 112.934 90.8767 112.929 90.901 112.929ZM97.2035 109.236V114.071H96.299V111.956H94.0134V114.071H93.1039V109.236H94.0134V111.318H96.294V109.236H97.2035ZM100.287 109.953V111.293H101.984V111.985H100.287V113.355H102.441V114.071H99.3772V109.236H102.441V109.953H100.287ZM106.925 110.117C106.895 110.161 106.866 110.2 106.837 110.219C106.808 110.238 106.769 110.253 106.725 110.253C106.681 110.253 106.628 110.233 106.575 110.2C106.521 110.166 106.453 110.127 106.38 110.083C106.302 110.04 106.215 110.001 106.112 109.967C106.01 109.933 105.889 109.914 105.748 109.914C105.621 109.914 105.514 109.929 105.417 109.958C105.325 109.987 105.242 110.03 105.179 110.083C105.116 110.137 105.067 110.2 105.038 110.277C105.004 110.35 104.989 110.437 104.989 110.524C104.989 110.635 105.023 110.732 105.086 110.805C105.15 110.882 105.232 110.945 105.339 110.998C105.446 111.051 105.563 111.1 105.699 111.143C105.835 111.187 105.972 111.231 106.112 111.279C106.254 111.327 106.39 111.385 106.526 111.443C106.662 111.506 106.779 111.589 106.886 111.685C106.993 111.782 107.075 111.903 107.139 112.044C107.202 112.184 107.231 112.353 107.231 112.557C107.231 112.774 107.197 112.978 107.119 113.171C107.046 113.36 106.934 113.529 106.788 113.67C106.643 113.81 106.467 113.921 106.258 114.004C106.049 114.086 105.811 114.125 105.544 114.125C105.388 114.125 105.237 114.11 105.086 114.081C104.936 114.052 104.795 114.009 104.654 113.955C104.517 113.902 104.386 113.834 104.265 113.757C104.143 113.679 104.036 113.592 103.944 113.495L104.211 113.065C104.235 113.031 104.265 113.007 104.299 112.987C104.333 112.963 104.371 112.953 104.415 112.953C104.474 112.953 104.532 112.978 104.595 113.021C104.658 113.065 104.736 113.118 104.829 113.176C104.921 113.229 105.023 113.282 105.145 113.326C105.266 113.37 105.407 113.394 105.578 113.394C105.835 113.394 106.035 113.331 106.176 113.21C106.317 113.089 106.39 112.915 106.39 112.687C106.39 112.561 106.356 112.455 106.297 112.377C106.234 112.295 106.147 112.227 106.044 112.174C105.938 112.121 105.821 112.073 105.685 112.034C105.548 111.995 105.412 111.956 105.276 111.908C105.135 111.865 104.999 111.811 104.868 111.748C104.736 111.685 104.615 111.603 104.508 111.506C104.401 111.405 104.318 111.279 104.255 111.129C104.192 110.979 104.158 110.795 104.158 110.572C104.158 110.398 104.192 110.224 104.265 110.059C104.337 109.895 104.435 109.745 104.571 109.614C104.707 109.483 104.872 109.382 105.067 109.304C105.266 109.227 105.49 109.188 105.748 109.188C106.035 109.188 106.297 109.232 106.54 109.324C106.784 109.411 106.988 109.537 107.158 109.696L106.925 110.117ZM114.924 112.242L114.331 110.635C114.302 110.563 114.273 110.48 114.239 110.384C114.209 110.287 114.175 110.18 114.146 110.064C114.117 110.175 114.088 110.282 114.054 110.384C114.025 110.485 113.991 110.567 113.961 110.645L113.373 112.247H114.924V112.242ZM116.519 114.067H115.819C115.741 114.067 115.678 114.047 115.625 114.009C115.576 113.97 115.542 113.921 115.513 113.863L115.153 112.876H113.14L112.775 113.863C112.755 113.917 112.721 113.96 112.668 114.004C112.614 114.047 112.551 114.067 112.478 114.067H111.773L113.684 109.232H114.603L116.519 114.067ZM122.214 109.236V114.071H121.752C121.679 114.071 121.621 114.057 121.572 114.038C121.523 114.013 121.475 113.975 121.431 113.921L118.897 110.698C118.912 110.843 118.917 110.979 118.917 111.105V114.071H118.119V109.236H118.591C118.63 109.236 118.664 109.236 118.688 109.241C118.717 109.246 118.742 109.251 118.761 109.261C118.785 109.27 118.805 109.285 118.824 109.304C118.844 109.324 118.868 109.348 118.892 109.382L121.436 112.615C121.431 112.537 121.421 112.46 121.421 112.382C121.416 112.305 121.416 112.237 121.416 112.169V109.232H122.214V109.236ZM128.706 111.652C128.706 112.005 128.648 112.329 128.526 112.624C128.409 112.92 128.244 113.176 128.025 113.389C127.811 113.602 127.553 113.771 127.252 113.888C126.951 114.004 126.615 114.067 126.245 114.067H124.397V109.232H126.245C126.615 109.232 126.951 109.29 127.252 109.411C127.553 109.527 127.811 109.696 128.025 109.909C128.239 110.122 128.409 110.379 128.526 110.674C128.648 110.974 128.706 111.298 128.706 111.652ZM127.777 111.652C127.777 111.385 127.743 111.148 127.67 110.935C127.597 110.722 127.495 110.548 127.364 110.403C127.233 110.258 127.072 110.146 126.882 110.069C126.693 109.991 126.479 109.953 126.24 109.953H125.297V113.355H126.24C126.479 113.355 126.693 113.316 126.882 113.239C127.072 113.162 127.233 113.05 127.364 112.9C127.5 112.755 127.597 112.576 127.67 112.368C127.743 112.155 127.777 111.918 127.777 111.652ZM135.723 112.348C135.723 112.619 135.689 112.866 135.621 113.084C135.558 113.302 135.456 113.491 135.32 113.646C135.188 113.8 135.018 113.916 134.819 113.999C134.619 114.081 134.386 114.12 134.123 114.12C134.002 114.12 133.885 114.115 133.769 114.096C133.652 114.081 133.53 114.062 133.404 114.028C133.409 113.941 133.418 113.849 133.428 113.762C133.438 113.675 133.443 113.583 133.452 113.495C133.457 113.447 133.477 113.408 133.511 113.375C133.545 113.345 133.588 113.331 133.647 113.331C133.686 113.331 133.734 113.336 133.798 113.355C133.861 113.37 133.934 113.379 134.031 113.379C134.158 113.379 134.269 113.36 134.372 113.326C134.469 113.292 134.551 113.229 134.619 113.152C134.688 113.074 134.736 112.968 134.77 112.842C134.804 112.711 134.824 112.561 134.824 112.377V109.241H135.728V112.348H135.723ZM138.763 109.953V111.293H140.465V111.985H138.763V113.355H140.917V114.071H137.853V109.236H140.917V109.953H138.763ZM149.272 109.236L147.764 114.071H146.947L145.887 110.771C145.858 110.693 145.834 110.592 145.804 110.475C145.79 110.534 145.78 110.582 145.766 110.635C145.751 110.683 145.736 110.732 145.722 110.771L144.652 114.071H143.835L142.332 109.236H143.086C143.164 109.236 143.232 109.256 143.28 109.29C143.334 109.324 143.368 109.377 143.383 109.44L144.209 112.329C144.229 112.402 144.243 112.479 144.263 112.561C144.277 112.644 144.297 112.736 144.316 112.823C144.331 112.731 144.355 112.644 144.375 112.561C144.394 112.479 144.418 112.402 144.443 112.329L145.396 109.44C145.415 109.386 145.449 109.343 145.503 109.299C145.556 109.256 145.62 109.236 145.697 109.236H145.96C146.038 109.236 146.101 109.256 146.15 109.295C146.198 109.333 146.237 109.382 146.261 109.44L147.21 112.329C147.258 112.465 147.302 112.624 147.336 112.808C147.365 112.634 147.399 112.474 147.434 112.329L148.26 109.44C148.275 109.386 148.309 109.338 148.362 109.295C148.416 109.256 148.484 109.232 148.557 109.232H149.272V109.236ZM151.874 109.953V111.293H153.571V111.985H151.874V113.355H154.028V114.071H150.964V109.236H154.028V109.953H151.874ZM158.774 113.326V114.067H155.929V109.232H156.834V113.321H158.774V113.326ZM163.36 113.326V114.067H160.515V109.232H161.42V113.321H163.36V113.326ZM166.005 109.953V111.293H167.703V111.985H166.005V113.355H168.16V114.071H165.096V109.236H168.16V109.953H166.005ZM171.525 111.535C171.695 111.535 171.841 111.511 171.968 111.472C172.094 111.429 172.196 111.371 172.279 111.298C172.361 111.226 172.42 111.134 172.463 111.032C172.502 110.93 172.522 110.819 172.522 110.693C172.522 110.446 172.444 110.258 172.279 110.127C172.118 109.996 171.865 109.929 171.535 109.929H170.956V111.535H171.525ZM173.849 114.067H173.037C172.882 114.067 172.77 114.004 172.702 113.888L171.681 112.339C171.642 112.281 171.603 112.242 171.554 112.218C171.51 112.194 171.437 112.184 171.35 112.184H170.966V114.071H170.061V109.236H171.544C171.875 109.236 172.157 109.27 172.39 109.338C172.629 109.406 172.818 109.503 172.969 109.624C173.12 109.745 173.232 109.89 173.305 110.064C173.378 110.233 173.412 110.422 173.412 110.625C173.412 110.79 173.387 110.94 173.339 111.085C173.29 111.231 173.222 111.361 173.13 111.477C173.037 111.593 172.926 111.7 172.794 111.787C172.663 111.874 172.507 111.947 172.337 112C172.395 112.034 172.449 112.073 172.497 112.116C172.546 112.165 172.59 112.218 172.634 112.281L173.849 114.067ZM177.336 112.198V114.071H176.437V112.198L174.666 109.236H175.459C175.537 109.236 175.6 109.256 175.649 109.295C175.697 109.333 175.731 109.382 175.765 109.44L176.651 111.051C176.704 111.148 176.748 111.235 176.787 111.322C176.826 111.405 176.86 111.492 176.889 111.579C176.918 111.492 176.952 111.41 176.991 111.322C177.03 111.235 177.074 111.148 177.122 111.051L178.007 109.44C178.032 109.391 178.066 109.343 178.119 109.304C178.168 109.261 178.231 109.241 178.309 109.241H179.111L177.336 112.198ZM100.7 62.9631V103.405H91.1053V62.9631H100.7ZM55.5469 62.9631H85.4641V72.5121H75.3004V103.405H65.7058V72.5121H55.5469V62.9631ZM168.996 71.9506V94.4218H185.365V94.8428V103.405H168.996H159.401V62.9631H185.365V71.9506H168.996ZM172.945 87.68H185.365V78.6924H172.945V87.68Z" fill="#363431"/>
<path fill-rule="evenodd" clip-rule="evenodd" d="M101.263 54.5366H108.601V61.2785C108.601 63.2144 107.794 64.9422 106.306 66.186L104.054 63.9452C104.735 63.2531 105.134 62.3868 105.202 61.2785H101.258V54.5366H101.263Z" fill="#FFF343"/>
<path fill-rule="evenodd" clip-rule="evenodd" d="M101.262 54.5366H102.03V54.5995V56.1338H103.577H104.379V56.9323V58.4665H105.92H106.723V59.2651V60.8042H108.264H108.595V61.2736C108.595 61.9948 108.483 62.6869 108.264 63.3354V63.1418V61.6027H106.723H105.92V60.8042V59.2748H104.379H103.577V58.4714V56.9372H102.03H101.262V54.5366ZM102.837 54.5366H103.64H105.186H105.989V55.3352V56.8742H107.535H108.337V57.6728V59.2119H108.605V60.0104H108.337H107.53V59.2119V57.6728H105.984H105.181V56.8742V55.3352H103.64H102.837V54.5366ZM106.791 54.5366H107.593V55.2723H108.6V56.0708H107.593H106.791V55.2723V54.5366ZM107.588 64.7438C107.409 65.0245 107.2 65.2907 106.971 65.5423H106.66V64.7438V63.2047H105.118H104.632C104.86 62.8272 105.026 62.4061 105.118 61.9367V62.4061H106.665H107.467V63.2047V64.7438H107.588ZM105.857 65.7408L105.055 64.9422V64.8067H104.919L104.116 64.0081H105.055H105.857V64.8067V65.7408ZM105.118 61.2785H104.316V60.8719H102.769H101.967V60.0734V58.5343H101.262V57.7357H101.967H102.769V58.5343V60.0734H104.316H105.118V60.8719V61.2785Z" fill="#DC7D43"/>
</svg>
