<svg width="243" height="168" viewBox="0 0 243 168" fill="none" xmlns="http://www.w3.org/2000/svg">
<rect x="0.5" y="0.5" width="242" height="167" rx="15.5" fill="white"/>
<rect x="0.5" y="0.5" width="242" height="167" rx="15.5" stroke="#9DA8B9"/>
<path fill-rule="evenodd" clip-rule="evenodd" d="M145.1 93.3335C144.843 91.7655 144.757 89.5697 144.847 86.7341L144.925 84.3574C145.924 84.2356 146.931 84.1856 147.937 84.208C149.931 84.2179 151.319 84.2802 152.103 84.3948C152.428 84.4382 152.745 84.5283 153.044 84.6624C152.67 84.4131 152.241 84.2591 151.793 84.2139C151.012 84.1003 149.623 84.0385 147.626 84.0286C146.62 84.0064 145.614 84.0563 144.615 84.1781L144.536 86.5532C144.443 89.4531 144.533 91.6897 144.805 93.2632L145.104 93.3424L145.1 93.3335ZM72.4392 84.5398L72.4183 84.7655C72.7674 84.7169 73.1199 84.6959 73.4723 84.7027C74.474 84.7027 75.1752 84.7969 75.5819 84.9688C75.4964 84.8978 75.4019 84.8385 75.3008 84.7924C74.9021 84.613 74.189 84.5204 73.1613 84.5144C72.8848 84.5144 72.647 84.5233 72.4392 84.5398ZM154.121 87.1257C154.121 87.1885 154.121 87.2468 154.13 87.3126H154.716C154.733 86.1317 154.746 85.0854 154.756 84.1736C154.766 83.2618 154.774 82.2244 154.779 81.0615L154.466 81.0391C154.466 82.1302 154.454 83.1138 154.445 83.9837C154.436 84.8985 154.423 85.9449 154.405 87.1227L154.121 87.1257ZM88.0119 84.3709L89.9241 79.5129C90.093 79.1108 90.256 78.7192 90.407 78.335C90.5326 78.0196 90.6836 77.6699 90.8555 77.2977C90.7763 77.1243 90.706 76.9793 90.6522 76.8702C90.4379 77.3385 90.2545 77.764 90.102 78.1467C89.9525 78.5308 89.7895 78.924 89.6191 79.3231L87.7009 84.1825C87.4423 84.8731 87.2658 85.3066 87.1761 85.4845C87.2957 85.5039 87.4243 85.5189 87.5514 85.5368C87.6486 85.3141 87.8026 84.9389 88.0119 84.3709ZM141.485 73.9345C141.257 73.7715 140.851 73.6355 140.278 73.4965C140.278 73.5354 140.278 73.5697 140.278 73.6131C140.706 73.6885 141.124 73.8092 141.526 73.9733C141.513 73.9614 141.501 73.9449 141.488 73.9345H141.485ZM96.459 85.4127C97.3501 87.7685 98.0239 89.5084 98.4804 90.6324C98.9369 91.7565 99.3356 92.5587 99.6764 93.039C99.8242 93.2342 100.019 93.3885 100.243 93.4874C100.145 93.4122 100.059 93.3225 99.9874 93.2214C99.6435 92.74 99.2449 91.9379 98.7913 90.8148C98.3378 89.6917 97.6641 87.9543 96.77 85.6026L93.3044 76.1661C92.8978 75.0256 92.5225 73.8388 92.1846 72.5981L91.9335 72.6131C92.2579 73.7775 92.6107 74.9031 92.992 75.9793L96.459 85.4142V85.4127ZM155.616 77.4337C155.84 77.4337 156.027 76.9549 156.175 75.9972C156.324 75.0396 156.429 74.0809 156.491 73.1213L156.163 73.1318C156.099 74.0286 156.003 74.9255 155.864 75.8104C155.715 76.767 155.528 77.2454 155.305 77.2454C155.274 77.2447 155.243 77.2417 155.212 77.2364C155.242 77.3649 155.374 77.4322 155.616 77.4337ZM144.62 83.1497C144.62 83.2154 144.62 82.7132 144.611 81.6429C144.602 80.5727 144.602 79.625 144.611 78.8029C144.637 77.2433 144.745 75.6861 144.934 74.1377C146.638 73.9277 148.355 73.8238 150.072 73.8268C151.249 73.8146 152.424 73.9329 153.575 74.1796C153.903 74.2456 154.214 74.3806 154.486 74.5757C154.295 74.4839 154.094 74.4137 153.888 74.3664C152.737 74.121 151.562 74.0032 150.385 74.0152C148.667 74.0122 146.951 74.116 145.246 74.3261C145.057 75.8744 144.949 77.4316 144.923 78.9912C144.923 79.8163 144.923 80.763 144.923 81.8313C144.923 82.495 144.923 82.9374 144.923 83.1646C144.786 83.1646 144.681 83.1541 144.615 83.1482L144.62 83.1497ZM199.239 84.9015L201.154 80.0435C201.323 79.6415 201.483 79.2498 201.634 78.8657C201.761 78.5503 201.911 78.2005 202.083 77.8298C202.005 77.6549 201.933 77.5099 201.88 77.4008C201.666 77.8682 201.483 78.2937 201.331 78.6773C201.181 79.0615 201.017 79.4546 200.848 79.8537L198.934 84.7132C198.674 85.4038 198.498 85.8372 198.409 86.0151C198.531 86.0345 198.658 86.0495 198.783 86.0674C198.883 85.8447 199.036 85.4695 199.245 84.9015H199.239ZM207.686 85.9479C208.577 88.3036 209.252 90.0435 209.709 91.1676C210.167 92.2916 210.565 93.0938 210.905 93.5741C211.053 93.7697 211.249 93.9241 211.473 94.0225C211.374 93.9477 211.288 93.858 211.216 93.7565C210.874 93.2752 210.476 92.473 210.02 91.3499C209.565 90.2269 208.89 88.4865 207.997 86.1287L204.53 76.6953C204.124 75.5548 203.751 74.3679 203.412 73.1258L203.159 73.1407C203.484 74.3052 203.835 75.4307 204.219 76.5069L207.685 85.9419L207.686 85.9479ZM160.049 74.1243C159.698 73.9858 159.331 73.8924 158.956 73.8463L158.94 73.9868C159.405 74.0291 159.863 74.1295 160.303 74.2857C160.227 74.2179 160.142 74.1619 160.049 74.1198V74.1243ZM184.229 74.3814C184.075 74.2626 183.904 74.1683 183.722 74.1019C183.288 73.9404 182.635 73.8448 181.768 73.8149V73.9957C182.793 74.0107 183.548 74.1103 184.033 74.2947C184.105 74.3216 184.164 74.356 184.229 74.3859V74.3814ZM177.785 94.2228C177.988 94.3637 178.2 94.4925 178.419 94.6085C178.313 94.5442 178.204 94.4859 178.096 94.4112C177.197 93.7795 176.382 93.0367 175.669 92.2004C174.879 91.2973 174.138 90.3528 173.448 89.3709C172.757 88.3903 171.891 87.1063 170.849 85.5189L170.102 84.3769C171.056 84.0472 171.946 83.5568 172.735 82.9269C173.375 82.4074 173.898 81.7571 174.267 81.0196C174.595 80.3424 174.768 79.6003 174.772 78.8477C174.773 78.1145 174.61 77.3904 174.295 76.7282C173.959 76.0206 173.475 75.3935 172.875 74.8896C172.539 74.6038 172.175 74.3533 171.788 74.1422C172.061 74.3077 172.32 74.4936 172.564 74.6983C173.165 75.2019 173.65 75.829 173.986 76.5368C174.305 77.1986 174.471 77.9234 174.473 78.6579C174.468 79.4112 174.293 80.1536 173.961 80.8298C173.593 81.5681 173.07 82.219 172.43 82.7386C171.64 83.3685 170.749 83.8593 169.795 84.19L170.543 85.3305C171.586 86.9189 172.452 88.2024 173.14 89.181C173.83 90.1625 174.572 91.107 175.361 92.0106C176.075 92.847 176.89 93.5902 177.789 94.2228H177.785ZM163.23 84.2573L163.178 88.2722C163.178 89.1192 163.198 90.0659 163.238 91.1122C163.278 92.1586 163.389 92.9005 163.571 93.3379C163.604 93.4585 163.661 93.5712 163.738 93.6695C163.815 93.7679 163.911 93.8498 164.02 93.9104C164.056 93.9284 164.102 93.9493 164.151 93.9687C164.022 93.8482 163.926 93.6963 163.873 93.5278C163.698 93.0913 163.586 92.3499 163.541 91.3006C163.497 90.2513 163.477 89.3036 163.48 88.4605L163.532 84.4456C164.686 84.6048 165.85 84.6828 167.014 84.6788L166.886 84.4935C165.663 84.5022 164.442 84.4233 163.23 84.2573ZM164.844 73.8014C164.225 73.9255 163.864 74.1288 163.763 74.3993C163.502 74.9434 163.359 77.9045 163.335 83.2827C163.434 83.3066 163.543 83.3231 163.646 83.344C163.674 78.0485 163.816 75.1298 164.072 74.5877C164.174 74.3111 164.536 74.1079 165.155 73.9898C165.703 73.8718 166.261 73.8102 166.822 73.8059C167.704 73.792 168.575 74.0018 169.354 74.4158C168.563 73.8911 167.615 73.6221 166.514 73.6161C165.953 73.6217 165.395 73.6838 164.847 73.8014H164.844ZM190.741 73.9165C189.76 73.9165 189.091 73.9663 188.733 74.066C188.565 74.1119 188.407 74.1907 188.269 74.2979C188.131 74.4052 188.015 74.5387 187.929 74.6908C187.557 75.3884 187.358 78.072 187.331 82.7416C187.315 85.9553 187.308 87.9897 187.31 88.8447C187.312 89.6997 187.327 90.612 187.356 91.5816C187.374 92.3619 187.433 92.9144 187.533 93.2393C187.617 93.5173 187.832 93.7326 188.174 93.8925C188.02 93.7745 187.904 93.6132 187.841 93.4291C187.741 93.1043 187.683 92.5512 187.667 91.7699C187.639 90.7983 187.621 89.8865 187.621 89.0315C187.621 88.1765 187.621 86.1452 187.64 82.9299C187.663 78.2643 187.863 75.5812 188.238 74.8806C188.324 74.7281 188.44 74.5943 188.578 74.487C188.717 74.3797 188.875 74.3011 189.044 74.2558C189.401 74.1562 190.07 74.1064 191.052 74.1064V73.3201L190.74 73.3336V73.918L190.741 73.9165ZM190.442 94.8761C190.293 94.8761 189.976 94.8641 189.514 94.8462C189.052 94.8282 188.572 94.8103 188.076 94.7983L186.93 94.7669C186.661 94.76 186.355 94.7555 186.011 94.7535C185.518 94.7535 185.108 94.7535 184.779 94.7535L183.466 94.7729C182.919 94.7809 182.425 94.7924 181.985 94.8073L181.493 94.8208L181.5 95.0196C181.588 95.0196 181.855 95.0196 182.294 94.9986C182.734 94.9777 183.228 94.9717 183.774 94.9642L185.09 94.9448C185.419 94.9448 185.828 94.9448 186.319 94.9448C186.664 94.9448 186.97 94.9493 187.238 94.9583L188.385 94.9882C188.881 95.0016 189.36 95.0181 189.823 95.0375C190.287 95.0569 190.596 95.0659 190.752 95.0659L190.822 94.4321C190.707 94.4321 190.599 94.4321 190.492 94.4216L190.441 94.879L190.442 94.8761ZM180.524 95.3663H180.494C180.517 95.4129 180.528 95.464 180.528 95.5158C180.529 95.5638 180.515 95.6108 180.488 95.6508C180.461 95.6908 180.423 95.7218 180.379 95.74C180.277 95.7909 180.038 95.8148 179.658 95.8133C178.576 95.8073 177.508 95.5591 176.534 95.0868C176.303 94.9762 176.076 94.8551 175.85 94.7281C176.178 94.9269 176.507 95.1137 176.843 95.2752C177.818 95.7475 178.886 95.9952 179.969 96.0001C180.347 96.0001 180.588 95.9792 180.688 95.9299C180.733 95.9112 180.771 95.8799 180.797 95.8397C180.824 95.7995 180.838 95.7523 180.838 95.7042C180.838 95.5128 180.732 95.4052 180.522 95.3678L180.524 95.3663ZM165.841 94.5876C165.852 94.6095 165.858 94.6334 165.86 94.6578C165.86 94.903 165.778 95.0255 165.623 95.024C165.467 95.0225 164.975 94.9642 164.219 94.8506C163.259 94.757 162.673 94.7096 162.462 94.7086C161.342 94.7061 160.224 94.779 159.114 94.9269C159.019 94.9272 158.924 94.9378 158.83 94.9583C158.868 95.0823 158.972 95.1466 159.146 95.1481C159.24 95.1279 159.335 95.1169 159.431 95.1152C160.541 94.9673 161.659 94.8944 162.779 94.897C162.991 94.897 163.577 94.9443 164.536 95.039C165 95.1205 165.469 95.1783 165.939 95.2124C166.089 95.2124 166.174 95.0913 166.176 94.8462C166.176 94.7311 166.064 94.6459 165.847 94.5876H165.841ZM212.693 94.4755V94.9149C211.78 94.8222 210.899 94.7654 210.05 94.7654C209.382 94.7654 208.76 94.7794 208.184 94.8073C207.608 94.8352 207.154 94.8636 206.821 94.8925L206.381 94.9254V95.1347C206.547 95.1242 206.798 95.1077 207.129 95.0808C207.459 95.0539 207.918 95.0255 208.492 94.9956C209.066 94.9657 209.688 94.9508 210.358 94.9538C211.207 94.9538 212.088 95.0036 213.001 95.1033V94.5173C212.892 94.5069 212.788 94.4919 212.689 94.4755H212.693ZM202.636 87.1212C204.1 87.1292 205.156 87.179 205.804 87.2707L205.861 87.4202C205.204 87.3474 204.233 87.3081 202.947 87.3021H201.622C200.45 87.2425 199.275 87.3041 198.115 87.486L196.871 90.5756C196.323 91.8711 196.048 92.6778 196.046 92.9956C196.046 93.1834 196.091 93.3685 196.177 93.5352C196.263 93.702 196.389 93.8455 196.542 93.9538C196.442 93.9086 196.346 93.8535 196.257 93.7894C196.096 93.6809 195.964 93.5347 195.873 93.3634C195.781 93.1922 195.734 93.0013 195.733 92.8073C195.733 92.4844 196.008 91.6773 196.559 90.3858L197.804 87.2976C198.963 87.115 200.138 87.0534 201.31 87.1138H202.636V87.1212ZM198.403 94.9807C197.299 94.8328 196.187 94.7495 195.072 94.7311C194.226 94.7311 193.313 94.761 192.339 94.8282V95.0375C193.436 94.9538 194.451 94.9144 195.386 94.9194C196.5 94.9371 197.611 95.0204 198.714 95.169V94.6175L198.403 94.5651V94.9807ZM77.6809 75.2693C77.7932 75.9901 77.8636 76.7167 77.8917 77.4457C77.8917 77.5951 77.8364 77.6699 77.7318 77.6863C77.7522 77.7385 77.7777 77.7886 77.808 77.8358C77.8364 77.8702 77.8992 77.8866 78.0009 77.8866C78.134 77.8866 78.2012 77.8044 78.2027 77.637C78.173 76.9085 78.1011 76.1823 77.9874 75.4621C77.8774 74.775 77.805 74.0824 77.7706 73.3874C77.7706 72.9629 77.6944 72.7506 77.5389 72.7491C77.4964 72.7577 77.4562 72.775 77.4208 72.7999C77.4512 72.9297 77.4657 73.0627 77.4642 73.196C77.4993 73.8915 77.5716 74.5846 77.6809 75.2723V75.2693ZM156.854 92.6279C157.093 91.7424 157.283 90.8441 157.422 89.9374H157.764C157.621 90.9088 157.422 91.871 157.166 92.8193C156.956 93.5693 156.679 94.2988 156.337 94.9986C155.967 94.9628 155.467 94.9358 154.831 94.9164C154.196 94.897 153.302 94.8835 152.155 94.8776C151.463 94.8776 150.721 94.8631 149.929 94.8342C149.136 94.8073 148.797 94.7953 148.909 94.7953C148.183 94.7953 147.339 94.7953 146.368 94.8088C145.396 94.8222 144.24 94.8462 142.88 94.885C141.519 94.9239 140.52 94.9568 139.889 94.9867L139.903 94.7834C140.537 94.758 141.423 94.7281 142.575 94.6967C143.935 94.6578 145.098 94.6324 146.064 94.6205C147.03 94.6085 147.875 94.6045 148.598 94.6085C148.487 94.6085 148.827 94.621 149.619 94.6459C150.412 94.6708 151.153 94.6852 151.844 94.6892C152.992 94.6952 153.884 94.7076 154.52 94.7266C155.156 94.746 155.658 94.7759 156.027 94.8103C156.368 94.1095 156.645 93.379 156.854 92.6279ZM79.8877 84.2961V83.8731L80.1986 83.8477V84.4845C79.9127 84.5663 79.6349 84.6744 79.3689 84.8073C79.2203 84.9201 79.1114 85.0771 79.0579 85.2558C78.9923 85.4441 78.9546 85.641 78.9458 85.8402C78.9278 86.0839 78.9129 86.4531 78.8994 86.9419C78.886 87.4307 78.8755 88.3499 78.8695 89.6967C78.8695 90.6862 78.883 91.3948 78.9263 91.8178C78.938 92.1206 79.0075 92.4185 79.1312 92.6952C79.2587 92.8962 79.4189 93.0745 79.6051 93.2229L79.4362 93.607C79.2567 93.617 78.4803 93.7585 77.1068 94.0315C76.1919 94.193 75.3162 94.3255 74.48 94.4291C73.6438 94.5328 72.9745 94.596 72.4721 94.619C71.9678 94.6439 71.3762 94.6548 70.6975 94.6518C68.6323 94.6429 66.8382 94.317 65.3152 93.6743C64.7163 93.4236 64.1392 93.1236 63.5899 92.7774C64.0457 93.0449 64.5187 93.2821 65.0057 93.4874C66.5297 94.1322 68.3238 94.4585 70.388 94.4665C71.0677 94.4665 71.6588 94.4555 72.1611 94.4336C72.665 94.4082 73.3333 94.3439 74.1705 94.2423C75.0078 94.1406 75.8824 94.0076 76.7989 93.8447C78.1713 93.5726 78.9473 93.4316 79.1267 93.4217L79.2971 93.0375C79.1101 92.8896 78.9494 92.7112 78.8217 92.5099C78.6982 92.2331 78.6287 91.9353 78.6169 91.6324C78.574 91.2079 78.5546 90.5009 78.5585 89.5114C78.566 88.1661 78.575 87.2468 78.5885 86.7565C78.6019 86.2662 78.6198 85.9 78.6363 85.6549C78.6451 85.4557 78.6829 85.2588 78.7484 85.0704C78.8013 84.889 78.9101 84.7289 79.0594 84.613C79.3258 84.4812 79.6035 84.3737 79.8892 84.2917L79.8877 84.2961ZM66.133 92.2378C65.1666 91.6551 64.309 90.9085 63.5989 90.0315C62.758 89.0059 62.1005 87.8428 61.6553 86.5936C61.2442 85.4585 61.0317 84.2612 61.0273 83.054C61.0413 81.4157 61.4408 79.8037 62.1935 78.3485C62.9422 76.8524 64.0839 75.5881 65.4961 74.6908C66.9254 73.7631 68.5655 73.3032 70.4164 73.3111C72.2105 73.3186 73.6532 73.6863 74.7521 74.4038C73.6966 73.8059 72.36 73.507 70.7274 73.498C68.8765 73.489 67.2349 73.9469 65.8026 74.8717C64.3949 75.7735 63.2581 77.0402 62.5134 78.5368C61.8541 79.7976 61.4661 81.1825 61.3744 82.6023C61.2828 84.0221 61.4895 85.4453 61.9812 86.7804C62.4265 88.0296 63.084 89.1927 63.9248 90.2184C64.5561 91.0022 65.3057 91.683 66.1465 92.2363L66.133 92.2378ZM87.1687 94.4515C86.0651 94.3037 84.9539 94.2204 83.8406 94.2019C82.9929 94.2019 82.0794 94.2318 81.1047 94.2991V94.5083C82.201 94.4246 83.2167 94.3853 84.1516 94.3903C85.2649 94.4079 86.3762 94.4913 87.4796 94.6399V94.0883L87.1687 94.036V94.4515ZM101.457 94.3858C100.544 94.2931 99.663 94.2363 98.8138 94.2363C98.144 94.2363 97.5235 94.2468 96.9479 94.2782C96.3723 94.3095 95.9178 94.3364 95.5844 94.3634L95.1359 94.3962V94.6055C95.3033 94.595 95.5545 94.5786 95.8834 94.5517C96.2123 94.5248 96.6728 94.4964 97.2469 94.4665C97.821 94.4366 98.443 94.4216 99.1128 94.4246C99.961 94.4246 100.842 94.4745 101.756 94.5741V93.9882C101.647 93.9777 101.542 93.9643 101.444 93.9463V94.3858H101.457ZM91.4072 86.5921C92.8714 86.5991 93.9274 86.6489 94.5752 86.7416L94.6306 86.891C93.9747 86.8183 93.0034 86.7789 91.7167 86.773H90.392C89.2202 86.7133 88.0453 86.7749 86.8861 86.9568L85.6422 90.0465C85.095 91.3419 84.8204 92.1486 84.8184 92.4665C84.8177 92.6544 84.8625 92.8397 84.9489 93.0065C85.0353 93.1734 85.1609 93.3168 85.3148 93.4246C85.2147 93.3788 85.1191 93.3237 85.0292 93.2602C84.8689 93.1512 84.7375 93.0048 84.6464 92.8337C84.5552 92.6627 84.507 92.472 84.5059 92.2782C84.5059 91.9553 84.7815 91.1481 85.3327 89.8567L86.5751 86.7685C87.7347 86.5858 88.9102 86.5242 90.0826 86.5846H91.4072V86.5921Z" fill="#16100C"/>
<path fill-rule="evenodd" clip-rule="evenodd" d="M30.5131 77.3138C30.3306 77.2436 30.1385 77.2018 29.9434 77.1898V77.3617C30.2085 77.3636 30.4719 77.4039 30.7254 77.4812C30.6697 77.4092 30.5973 77.3518 30.5146 77.3138H30.5131ZM45.1648 84.0313L46.3414 81.0597C46.446 80.8146 46.5432 80.5754 46.6404 80.3407C46.7107 80.1658 46.7899 79.9715 46.8841 79.7652C46.8093 79.5978 46.7465 79.4663 46.6987 79.3706C46.5681 79.6546 46.4565 79.9147 46.3638 80.1509C46.2696 80.3856 46.1709 80.6262 46.0648 80.8699L44.8942 83.8415C44.7357 84.263 44.6295 84.529 44.5742 84.6367C44.6848 84.6546 44.8 84.6696 44.9166 84.6845C44.9764 84.535 45.0661 84.3272 45.1722 84.0313H45.1648ZM50.248 84.5918C50.7922 86.0348 51.2039 87.099 51.4829 87.7846C51.6753 88.2993 51.9213 88.7923 52.217 89.2555C52.3136 89.3833 52.4427 89.4829 52.5908 89.544C52.5563 89.5142 52.5243 89.4817 52.4951 89.4468C52.1998 88.9827 51.9532 88.4893 51.7595 87.9745C51.4804 87.2899 51.0698 86.2256 50.5276 84.7817L48.4046 79.0134C48.1544 78.3158 47.9262 77.5889 47.7198 76.8325L47.5031 76.8445C47.6929 77.5306 47.8992 78.1898 48.128 78.8235L50.2465 84.5918H50.248ZM32.6256 89.1195C32.6938 89.1702 32.7702 89.2091 32.8514 89.2346C32.7628 89.0391 32.7121 88.8286 32.7018 88.6142C32.655 88.046 32.6375 87.4757 32.6495 86.9057C32.6495 86.0627 32.663 85.2077 32.6809 84.3497C32.6989 83.4917 32.7243 82.5335 32.7572 81.4767C32.7811 80.535 32.808 79.7647 32.8379 79.1658C32.8693 78.5679 32.9141 78.1898 32.9769 78.0418C33.0218 77.934 33.0905 77.8377 33.1777 77.7601C33.2649 77.6825 33.3685 77.6255 33.4808 77.5934C33.8241 77.5023 34.1757 77.4457 34.5303 77.4244L34.5513 77.0253C34.475 77.0253 34.3763 77.0358 34.2627 77.0403L34.2582 77.2316C33.9048 77.2504 33.5541 77.305 33.2117 77.3945C33.0994 77.427 32.9957 77.484 32.9083 77.5616C32.8208 77.6392 32.7519 77.7353 32.7063 77.843C32.6445 77.9925 32.5987 78.3671 32.5688 78.967C32.5389 79.5669 32.511 80.3377 32.4851 81.2794C32.4532 82.3397 32.4263 83.2999 32.4043 84.1598C32.3849 85.0178 32.3759 85.8713 32.3714 86.7174C32.3714 87.4857 32.3849 88.0627 32.4238 88.4259C32.4626 88.7891 32.5299 89.0238 32.6256 89.1195ZM47.1562 85.3138C47.8053 85.3047 48.4544 85.3351 49.0998 85.405L49.1596 85.5724C48.7604 85.532 48.1938 85.5096 47.4403 85.5051H46.6284C45.9124 85.4672 45.1943 85.5043 44.486 85.6157L43.7205 87.5006C43.3846 88.2899 43.2162 88.7836 43.2152 88.9819C43.2149 89.0788 43.235 89.1746 43.2741 89.2632C43.3133 89.3518 43.3706 89.4311 43.4424 89.4961C43.3772 89.4676 43.3151 89.4326 43.2571 89.3915C43.1589 89.3257 43.0785 89.2367 43.023 89.1324C42.9674 89.0281 42.9385 88.9117 42.9386 88.7936C42.9386 88.5943 43.1065 88.1005 43.4424 87.3123L44.2034 85.4259C44.9101 85.3131 45.6267 85.2745 46.3414 85.3108H47.1517L47.1562 85.3138ZM39.7885 88.6127C39.9111 88.1449 39.9948 87.7801 40.0426 87.5081L40.3417 87.547C40.2998 87.826 40.2061 88.2445 40.0606 88.8026C39.9264 89.3209 39.7566 89.8293 39.5523 90.3242C39.0876 90.2626 38.62 90.2262 38.1514 90.2151L37.5623 90.1972H36.9329L29.7566 90.1628L29.7461 89.9655L36.6623 89.9984H37.2917L37.8778 90.0178C38.3469 90.0287 38.815 90.0652 39.2802 90.1269C39.4858 89.6325 39.6557 89.124 39.7885 88.6053V88.6127ZM53.3054 89.8653V90.0776C52.7478 90.0223 52.208 89.9909 51.6893 89.9894C51.2816 89.9894 50.9018 89.9974 50.55 90.0133C50.1987 90.0342 49.9206 90.0507 49.7158 90.0656L49.5334 90.0806V90.2913L49.9938 90.257C50.1987 90.2405 50.4767 90.2241 50.8281 90.2032C51.1794 90.1822 51.5592 90.1777 51.9688 90.1792C52.4861 90.1792 53.0258 90.2106 53.5835 90.2689V89.9102C53.4901 89.8999 53.3973 89.885 53.3054 89.8653ZM44.5682 90.118C43.8934 90.0292 43.214 89.9793 42.5334 89.9685C42.0431 89.9685 41.5093 89.9879 40.9502 90.0268V90.236C41.617 90.1867 42.2389 90.1598 42.81 90.1628C43.4906 90.1729 44.1701 90.2228 44.8448 90.3123V89.9745C44.7446 89.9595 44.6594 89.9416 44.5682 89.9251V90.118Z" fill="#16100C"/>
<path fill-rule="evenodd" clip-rule="evenodd" d="M108.328 93.0121C108.441 93.0956 108.566 93.1593 108.7 93.2005C108.551 93.051 108.436 92.6639 108.373 92.063C108.296 91.1339 108.266 90.2014 108.285 89.2693C108.291 87.8871 108.309 86.492 108.339 85.0839C108.368 83.6759 108.409 82.1094 108.461 80.3844C108.503 78.8448 108.548 77.5847 108.597 76.6042C108.646 75.6236 108.721 75.0107 108.823 74.7656C108.895 74.5871 109.007 74.4272 109.149 74.2977C109.292 74.1683 109.462 74.0728 109.647 74.0182C110.214 73.876 110.793 73.7894 111.377 73.7596L111.414 73.1079C111.308 73.1079 111.175 73.1214 111.028 73.1273L111.003 73.5758C110.42 73.6082 109.842 73.6978 109.277 73.8433C109.093 73.8979 108.923 73.9935 108.78 74.1229C108.637 74.2523 108.526 74.4122 108.454 74.5907C108.354 74.8359 108.277 75.4472 108.228 76.4293C108.179 77.4113 108.134 78.6714 108.093 80.2095C108.041 81.9365 108 83.503 107.971 84.909C107.942 86.3151 107.924 87.7102 107.918 89.0944C107.911 90.356 107.941 91.2857 108.004 91.8896C108.066 92.4935 108.177 92.8716 108.334 93.0271L108.328 93.0121ZM120.482 90.2663L120.879 90.3156C120.81 90.773 120.656 91.4581 120.417 92.3709C120.201 93.2196 119.923 94.0514 119.586 94.8597C118.826 94.7591 118.061 94.6997 117.294 94.6818C116.949 94.6698 116.627 94.6579 116.333 94.6519C116.038 94.6459 115.694 94.6399 115.304 94.6384L103.557 94.5831L103.547 94.3963L114.93 94.4501C115.319 94.4501 115.664 94.4501 115.959 94.4636C116.253 94.477 116.575 94.48 116.92 94.4935C117.687 94.5107 118.452 94.5696 119.212 94.6698C119.55 93.8609 119.83 93.0287 120.048 92.1796C120.266 91.3485 120.408 90.7177 120.486 90.2633L120.482 90.2663ZM104.873 73.7013C104.549 73.5795 104.207 73.5099 103.861 73.4951V73.658C104.274 73.6629 104.685 73.7217 105.082 73.8329C105.019 73.7791 104.949 73.7348 104.873 73.7013Z" fill="#16100C"/>
<path fill-rule="evenodd" clip-rule="evenodd" d="M126.561 93.099C126.674 93.1825 126.8 93.2461 126.935 93.2874C126.785 93.1379 126.669 92.7522 126.606 92.1499C126.53 91.2207 126.5 90.2883 126.518 89.3561C126.526 87.974 126.544 86.5789 126.573 85.1708C126.602 83.7628 126.643 82.1962 126.696 80.4713C126.735 78.9317 126.78 77.6721 126.83 76.6925C126.88 75.713 126.955 75.0996 127.056 74.8525C127.128 74.674 127.24 74.5141 127.382 74.3848C127.525 74.2554 127.695 74.1598 127.88 74.1051C128.444 73.9589 129.021 73.8688 129.603 73.836L129.641 73.1963C129.535 73.1963 129.402 73.2097 129.255 73.2157L129.231 73.6641C128.649 73.6964 128.071 73.786 127.506 73.9317C127.321 73.9861 127.151 74.0816 127.009 74.211C126.866 74.3405 126.755 74.5005 126.684 74.6791C126.584 74.9242 126.508 75.5371 126.456 76.5176C126.405 77.4982 126.362 78.7543 126.328 80.2859C126.277 82.0139 126.236 83.5804 126.205 84.9855C126.174 86.3905 126.157 87.7857 126.153 89.1708C126.135 90.1029 126.164 91.0353 126.24 91.9645C126.303 92.5624 126.413 92.9416 126.568 93.102L126.561 93.099ZM123.106 73.7942C122.781 73.6714 122.439 73.6012 122.092 73.5864V73.7494C122.505 73.755 122.916 73.8137 123.314 73.9242C123.251 73.8711 123.181 73.8273 123.106 73.7942ZM138.714 90.3591L139.112 90.41C139.045 90.8584 138.888 91.552 138.652 92.4653C138.434 93.3138 138.156 94.1456 137.819 94.954C137.059 94.8523 136.295 94.7924 135.528 94.7747C135.182 94.7627 134.862 94.7507 134.566 94.7448C134.27 94.7388 133.927 94.7343 133.537 94.7313L121.792 94.676L121.781 94.4892L133.163 94.543C133.553 94.543 133.897 94.543 134.192 94.5564C134.486 94.5699 134.809 94.5729 135.155 94.5863C135.921 94.6035 136.685 94.6628 137.445 94.7642C137.782 93.9556 138.06 93.1239 138.278 92.2754C138.493 91.4443 138.638 90.8135 138.714 90.3591Z" fill="#16100C"/>
<path fill-rule="evenodd" clip-rule="evenodd" d="M79.2653 83.2828V83.9195C78.98 84.0006 78.7028 84.1076 78.4371 84.2394C78.2864 84.3553 78.1765 84.5159 78.1231 84.6983C78.0581 84.8867 78.0209 85.0836 78.0125 85.2827C77.993 85.5279 77.9811 85.8941 77.9646 86.3829C77.9482 86.8717 77.9407 87.7924 77.9347 89.1377C77.9347 90.1283 77.9542 90.8353 77.993 91.2588C78.0047 91.5617 78.0742 91.8595 78.1979 92.1362C78.3253 92.3377 78.4855 92.5165 78.6718 92.6654L78.5014 93.0495C78.323 93.0595 77.5475 93.2005 76.175 93.4725C75.2591 93.636 74.3829 93.7685 73.5467 93.8701C72.7105 93.9718 72.0412 94.0356 71.5388 94.0615C71.0345 94.0864 70.4429 94.0973 69.7642 94.0944C67.701 94.0844 65.9069 93.758 64.3819 93.1153C63.0152 92.5647 61.7803 91.7314 60.7584 90.6701C59.7365 89.6087 58.9507 88.3433 58.4525 86.9569C58.0062 85.7136 57.7806 84.4019 57.7857 83.081C57.7701 81.5003 58.1176 79.9371 58.8013 78.5118C59.4851 77.0865 60.4869 75.8371 61.7297 74.8598C62.9602 73.8927 64.3593 73.1619 65.8561 72.7043C67.3867 72.2278 68.9818 71.9904 70.585 72.0003C71.1777 72.0014 71.7697 72.0434 72.3566 72.1259C72.9188 72.2066 73.4121 72.2958 73.8367 72.3934C74.2584 72.4891 74.5305 72.5608 74.6545 72.6057C75.133 72.8199 75.4449 72.9275 75.5905 72.9285C76.1885 72.4293 76.5249 72.1812 76.6146 72.1812C76.7641 72.1812 76.8463 72.3934 76.8448 72.8179C76.88 73.5124 76.9524 74.2045 77.0616 74.8912C77.1759 75.6118 77.2473 76.3385 77.2754 77.0675C77.2754 77.235 77.2081 77.3172 77.0751 77.3172C76.9734 77.3172 76.9106 77.3007 76.8837 77.2663C76.8162 77.162 76.761 77.0501 76.7192 76.933C76.3096 75.9754 75.5411 75.071 74.4138 74.22C73.2866 73.369 71.7466 72.941 69.7941 72.936C67.9432 72.9271 66.3016 73.3849 64.8693 74.3097C63.4616 75.2116 62.3248 76.4782 61.5801 77.9749C60.8295 79.4295 60.432 81.0405 60.42 82.6774C60.4223 83.8835 60.6316 85.0802 61.0389 86.2155C61.4844 87.4646 62.1419 88.6276 62.9825 89.6534C63.8484 90.7308 64.934 91.6114 66.167 92.2364C67.4482 92.8858 68.866 93.2199 70.3024 93.211C71.5742 93.2169 72.6541 93.0435 73.5422 92.6908C74.4303 92.338 75.0099 91.9952 75.281 91.6624C75.4256 91.4435 75.5073 91.1891 75.5172 90.927C75.5516 90.5921 75.5725 89.7312 75.58 88.3336C75.586 86.9733 75.5361 86.0266 75.4305 85.4935C75.3248 84.9604 75.0732 84.6021 74.6755 84.4188C74.2718 84.2394 73.5602 84.1452 72.5345 84.1407C72.1821 84.1332 71.8296 84.1542 71.4805 84.2035L71.5493 83.4845C73.0872 83.4845 74.518 83.4716 75.8416 83.4457C77.1663 83.4218 78.304 83.368 79.2653 83.2828Z" fill="#16100C"/>
<path fill-rule="evenodd" clip-rule="evenodd" d="M94.2106 94.0431V93.4915C94.6346 93.4301 95.0487 93.3135 95.4425 93.1447C95.5863 93.086 95.7082 92.9838 95.7913 92.8526C95.8744 92.7213 95.9145 92.5674 95.906 92.4123C95.8747 91.9315 95.774 91.4577 95.607 91.0057C95.4076 90.3919 95.2581 89.9674 95.1585 89.7322L93.9475 86.3645C93.2996 86.2718 92.2436 86.222 90.7794 86.215H89.4548C88.2829 86.1553 87.108 86.217 85.9488 86.3989L84.7064 89.4886C84.1582 90.779 83.8831 91.5857 83.8811 91.9086C83.8807 92.1023 83.9282 92.2932 84.0192 92.4642C84.1102 92.6353 84.242 92.7812 84.4029 92.8891C84.7543 93.1537 85.4674 93.366 86.5498 93.5274V94.0805C85.4455 93.9299 84.3332 93.8441 83.2188 93.8234C82.2809 93.8234 81.2653 93.8627 80.1719 93.9415V93.4557C80.8437 93.2932 81.358 93.0341 81.7148 92.6784C81.9839 92.4452 82.3407 91.8921 82.7853 91.0192C83.2298 90.1463 83.6813 89.1941 84.1398 88.1627C84.5953 87.1343 84.9257 86.3306 85.131 85.7517L87.8446 79.3586C88.184 78.5903 88.5293 77.7891 88.8911 76.9475C89.2529 76.106 89.5833 75.2644 89.8973 74.4184C90.2113 73.5723 90.446 72.8967 90.5955 72.3795C90.5903 72.3224 90.5966 72.2647 90.6141 72.21C90.6315 72.1553 90.6598 72.1047 90.6972 72.0611L91.2519 72.0312C91.5907 73.2699 91.964 74.4597 92.3717 75.6007L95.8283 85.0342C96.7253 87.3929 97.3996 89.1333 97.8511 90.2554C98.3026 91.3774 98.7013 92.1796 99.0471 92.6619C99.3362 93.0765 99.9307 93.3301 100.831 93.4228V94.0087C99.9188 93.915 99.0382 93.8652 98.189 93.8592C97.5192 93.8592 96.8972 93.8732 96.3231 93.9011C95.7475 93.9325 95.293 93.9594 94.9596 93.9878C94.6262 94.0162 94.3736 94.0326 94.2121 94.0416L94.2106 94.0431ZM88.9868 78.946L87.0746 83.8085C86.8145 84.4991 86.6401 84.933 86.5513 85.1104C87.5186 85.258 88.4958 85.33 89.4742 85.3257L91.0111 85.3032C91.9371 85.3032 92.7674 85.2848 93.5019 85.2479C93.1182 84.1089 92.869 83.4333 92.7544 83.221L91.5583 80.1373C91.4268 79.801 91.1756 79.1941 90.8108 78.3092C90.446 77.4243 90.1739 76.8235 90.0094 76.5006C89.7961 76.967 89.6128 77.3925 89.4593 77.7771C89.3172 78.1538 89.1573 78.5454 88.9868 78.946Z" fill="#16100C"/>
<path fill-rule="evenodd" clip-rule="evenodd" d="M156.309 89.3727H156.827C156.683 90.3446 156.484 91.3073 156.229 92.2561C156.019 93.0056 155.741 93.7346 155.399 94.4339C155.031 94.3995 154.53 94.3726 153.893 94.3532C153.256 94.3338 152.365 94.3188 151.217 94.3143C150.525 94.3143 149.784 94.2999 148.993 94.271C148.199 94.2441 147.859 94.2321 147.971 94.2321C147.245 94.2321 146.398 94.2366 145.43 94.2456C144.462 94.2546 143.3 94.2795 141.943 94.3203C140.58 94.3592 139.583 94.3936 138.953 94.4235L138.988 93.854C139.337 93.7777 139.692 93.6925 140.051 93.6013C140.314 93.5506 140.564 93.4463 140.786 93.2949C140.914 93.1861 141.01 93.0453 141.066 92.8869C141.149 92.5999 141.207 92.3064 141.239 92.0094C141.308 91.5849 141.375 90.8186 141.441 89.7105C141.507 88.6024 141.564 87.3567 141.611 85.9736C141.656 84.5924 141.674 83.7314 141.665 83.3817L141.577 78.0618C141.551 76.4106 141.492 75.2945 141.401 74.7136C141.309 74.1336 141.13 73.7494 140.864 73.5581C140.598 73.3668 140.082 73.1964 139.334 73.0469C139.332 72.9011 139.344 72.7554 139.37 72.6119L150.099 72.6642C151.304 72.6702 153.122 72.6348 155.553 72.5581C155.493 73.5167 155.388 74.4749 155.239 75.4325C155.089 76.3907 154.904 76.869 154.68 76.8675C154.402 76.8675 154.263 76.7838 154.263 76.6164C154.263 76.5491 154.285 76.3369 154.333 75.9811C154.381 75.6254 154.402 75.4191 154.402 75.3608C154.402 74.5476 153.916 74.027 152.945 73.7988C151.794 73.5526 150.619 73.4348 149.441 73.4475C147.723 73.4444 146.007 73.5483 144.302 73.7584C144.114 75.3083 144.005 76.8669 143.978 78.428C143.978 79.2531 143.978 80.1998 143.978 81.2681C143.978 82.3383 143.987 82.8421 143.987 82.7748C144.256 82.7987 145.076 82.8137 146.446 82.8196C148.812 82.8316 150.435 82.7942 151.316 82.7075C151.665 82.6896 152.01 82.6231 152.341 82.5102C152.515 82.434 152.681 82.2367 152.838 81.9213C153.052 81.4483 153.228 80.959 153.364 80.4579L153.849 80.4938C153.843 81.6557 153.835 82.6931 153.825 83.6059C153.815 84.5187 153.802 85.565 153.786 86.7449H153.201C153.171 85.7195 153.02 85.0035 152.753 84.6014C152.485 84.1993 151.954 83.9392 151.175 83.8241C150.396 83.709 149.007 83.6477 147.012 83.6373C146.005 83.615 144.997 83.6649 143.997 83.7867L143.92 86.1619C143.827 89.0618 143.917 91.2984 144.189 92.8719C144.388 92.9287 144.628 92.9915 144.906 93.0588C145.185 93.126 145.449 93.1813 145.699 93.2217C145.949 93.262 146.309 93.3024 146.775 93.3442C147.242 93.3861 147.822 93.407 148.531 93.41C150.278 93.417 151.651 93.2959 152.651 93.0468C153.651 92.7977 154.416 92.3881 154.946 91.8181C155.47 91.262 155.925 90.4469 156.309 89.3727Z" fill="#16100C"/>
<path fill-rule="evenodd" clip-rule="evenodd" d="M168.176 86.8687L166.265 84.1168C165.04 84.1275 163.815 84.0485 162.601 83.8806L162.549 87.8956C162.549 88.7446 162.57 89.6913 162.611 90.7356C162.655 91.7819 162.761 92.5293 162.943 92.9613C162.977 93.0822 163.035 93.1949 163.114 93.2928C163.193 93.3906 163.29 93.4716 163.401 93.5308C163.874 93.7309 164.363 93.8899 164.863 94.0061C165.107 94.0644 165.229 94.1556 165.229 94.2752C165.229 94.5218 165.149 94.6444 164.993 94.6429C164.814 94.6429 164.346 94.5846 163.589 94.4695C162.629 94.3749 162.044 94.325 161.833 94.32C160.713 94.317 159.595 94.3894 158.485 94.5368C158.389 94.5393 158.294 94.5503 158.2 94.5697C157.977 94.5697 157.866 94.468 157.868 94.2707C157.865 94.2216 157.875 94.1726 157.897 94.1286C157.919 94.0845 157.952 94.047 157.993 94.0196C158.171 93.9293 158.36 93.8625 158.555 93.8208C159.054 93.6903 159.417 93.491 159.647 93.2229C159.876 92.9548 160.04 92.4202 160.139 91.619C160.268 90.3437 160.331 89.0624 160.325 87.7805L160.36 80.3874C160.396 78.5827 160.394 77.2569 160.354 76.4098C160.314 75.5628 160.225 74.94 160.086 74.5414C160.036 74.3698 159.952 74.2105 159.837 74.0733C159.723 73.9362 159.581 73.8243 159.421 73.7447C158.964 73.5715 158.486 73.4624 157.999 73.4203L158.071 72.8687C158.661 72.8941 159.416 72.9091 160.327 72.9121C160.596 72.9121 161.57 72.8468 163.25 72.7163C164.929 72.5857 165.992 72.5215 166.437 72.5234C167.511 72.5126 168.579 72.6813 169.596 73.0227C170.452 73.3065 171.248 73.7476 171.942 74.3231C172.543 74.8262 173.028 75.4528 173.364 76.1602C173.678 76.8222 173.84 77.5457 173.839 78.2783C173.833 79.0317 173.657 79.774 173.325 80.4502C172.958 81.189 172.436 81.84 171.794 82.359C171.005 82.9883 170.115 83.4787 169.161 83.8089L169.909 84.9509C170.952 86.5403 171.818 87.8243 172.506 88.8029C173.197 89.7835 173.939 90.7279 174.728 91.6325C175.442 92.4696 176.258 93.2134 177.158 93.8462C177.985 94.4122 178.794 94.7311 179.585 94.8029C179.796 94.8372 179.902 94.9523 179.9 95.1377C179.901 95.186 179.887 95.2333 179.86 95.2735C179.834 95.3138 179.796 95.3451 179.751 95.3634C179.651 95.4127 179.412 95.4366 179.032 95.4351C177.949 95.4295 176.88 95.1813 175.906 94.7087C174.866 94.205 173.904 93.5546 173.049 92.7775C172.18 91.9999 171.38 91.1498 170.656 90.2364C169.959 89.3515 169.133 88.2264 168.179 86.8612L168.176 86.8687ZM162.707 82.912C163.596 83.1101 164.504 83.2044 165.415 83.193C165.983 83.1935 166.551 83.157 167.115 83.0839C167.749 82.999 168.37 82.828 168.958 82.5757C169.621 82.2887 170.19 81.8229 170.603 81.2304C171.063 80.5966 171.296 79.7461 171.301 78.6789C171.287 77.8512 171.088 77.0372 170.719 76.2962C170.304 75.4376 169.677 74.6989 168.897 74.1497C168.072 73.5518 167.07 73.2494 165.889 73.2424C165.329 73.2471 164.771 73.3082 164.223 73.4248C163.604 73.5503 163.242 73.7521 163.142 74.0302C162.877 74.5703 162.732 77.5309 162.707 82.912Z" fill="#16100C"/>
<path fill-rule="evenodd" clip-rule="evenodd" d="M180.834 73.4294V72.7119C182.094 72.7837 182.88 72.8335 183.192 72.8614C184.33 72.9122 185.092 72.9376 185.484 72.9406C185.618 72.9406 186.198 72.9207 187.224 72.8808C188.251 72.842 189.216 72.8001 190.12 72.7612V73.5475C189.136 73.5475 188.468 73.5923 188.111 73.697C187.941 73.7426 187.783 73.8213 187.644 73.9286C187.506 74.0358 187.39 74.1695 187.303 74.3218C186.932 75.0193 186.735 77.7024 186.714 82.3711C186.699 85.5848 186.692 87.6187 186.693 88.4727C186.694 89.3267 186.709 90.2395 186.738 91.2111C186.756 91.9913 186.815 92.5439 186.915 92.8688C187.014 93.1936 187.286 93.4373 187.731 93.5997C188.176 93.7651 188.896 93.8553 189.888 93.8703L189.818 94.5055C189.661 94.5055 189.352 94.4961 188.891 94.4771C188.431 94.4582 187.951 94.4417 187.451 94.4278L186.305 94.3979C186.037 94.3899 185.73 94.3854 185.385 94.3844C184.892 94.3844 184.488 94.3844 184.155 94.3844C183.821 94.3844 183.388 94.3949 182.842 94.4039C182.296 94.4129 181.796 94.4233 181.36 94.4383C180.925 94.4532 180.655 94.4592 180.565 94.4577L180.535 93.8224C181.74 93.7616 182.555 93.6261 182.98 93.4158C183.187 93.3158 183.372 93.1742 183.522 92.9999C183.673 92.8255 183.786 92.6222 183.854 92.4024C184.079 91.8045 184.229 90.6655 184.303 88.9854C184.376 87.3053 184.415 85.5365 184.419 83.679C184.426 81.9979 184.382 79.5798 184.286 76.4249C184.256 75.5549 184.174 74.9301 184.037 74.5594C183.899 74.1887 183.588 73.9077 183.104 73.7269C182.619 73.546 181.86 73.4458 180.834 73.4294Z" fill="#16100C"/>
<path fill-rule="evenodd" clip-rule="evenodd" d="M205.436 94.5714V94.0198C205.861 93.9583 206.275 93.8417 206.67 93.673C206.813 93.6142 206.935 93.5121 207.018 93.3808C207.102 93.2496 207.142 93.0957 207.133 92.9406C207.102 92.4597 207.001 91.9859 206.834 91.534C206.635 90.9202 206.485 90.4956 206.386 90.2605L205.166 86.8928C204.518 86.8001 203.461 86.7503 201.996 86.7433H200.671C199.499 86.6837 198.324 86.7453 197.164 86.9272L195.922 90.0168C195.373 91.3043 195.099 92.11 195.099 92.4339C195.099 92.6279 195.147 92.8189 195.239 92.99C195.33 93.161 195.463 93.3068 195.624 93.4144C195.972 93.6795 196.687 93.8922 197.77 94.0527V94.6057C196.665 94.4578 195.554 94.3745 194.44 94.3561C193.504 94.3561 192.489 94.3955 191.395 94.4742V93.9884C192.064 93.825 192.578 93.5659 192.936 93.2111C193.207 92.9779 193.561 92.4249 194.008 91.5504C194.455 90.676 194.905 89.7268 195.353 88.6955C195.802 87.6641 196.141 86.8644 196.345 86.2844L199.055 79.8898C199.395 79.1215 199.743 78.3203 200.102 77.4788C200.461 76.6372 200.794 75.7957 201.111 74.9496C201.428 74.1036 201.661 73.4235 201.808 72.9108C201.803 72.8536 201.809 72.7961 201.827 72.7414C201.844 72.6868 201.872 72.6361 201.909 72.5924L202.464 72.5625C202.803 73.8022 203.176 74.992 203.584 76.132L207.06 85.5654C207.951 87.9242 208.625 89.6646 209.083 90.7866C209.54 91.9087 209.939 92.7109 210.279 93.1932C210.567 93.6077 211.162 93.8613 212.064 93.954V94.54C211.149 94.4463 210.267 94.3965 209.419 94.3905C208.751 94.3905 208.13 94.4044 207.555 94.4323C206.981 94.4637 206.526 94.4906 206.191 94.519C205.856 94.5474 205.605 94.5639 205.444 94.5729L205.436 94.5714ZM200.212 79.4743L198.299 84.3337C198.04 85.0243 197.864 85.4578 197.774 85.6357C198.742 85.7832 199.72 85.8552 200.7 85.8509L202.238 85.824C203.162 85.824 203.993 85.8056 204.729 85.7687C204.343 84.6297 204.094 83.9541 203.982 83.7418L202.785 80.6581C202.652 80.3218 202.403 79.7149 202.038 78.83C201.673 77.9451 201.404 77.3442 201.238 77.0214C201.025 77.4877 200.841 77.9132 200.688 78.2979C200.543 78.685 200.383 79.0767 200.212 79.4743Z" fill="#16100C"/>
<path fill-rule="evenodd" clip-rule="evenodd" d="M29.2018 76.984V76.6267C30.06 76.6372 30.6236 76.6476 30.8913 76.6551C31.1589 76.6626 31.3772 76.6716 31.5536 76.6805C32.7003 76.6805 33.4523 76.6805 33.8141 76.6491L33.7932 77.0467C33.4399 77.0683 33.0895 77.1234 32.7466 77.2112C32.6346 77.2438 32.5312 77.3009 32.4441 77.3785C32.3569 77.4561 32.2882 77.5521 32.2428 77.6596C32.1815 77.8091 32.1352 78.1828 32.1053 78.7836C32.0754 79.3845 32.047 80.1528 32.0215 81.096C31.9886 82.1523 31.9637 83.1095 31.9468 83.9675C31.9298 84.8255 31.9174 85.6795 31.9094 86.5295C31.9094 87.2993 31.9244 87.8748 31.9617 88.238C31.9991 88.6012 32.0694 88.8359 32.1636 88.9331C32.3367 89.0431 32.5334 89.1107 32.7377 89.1304C33.3099 89.188 33.885 89.2115 34.46 89.2006C35.2757 89.2193 36.0909 89.144 36.8895 88.9764C37.398 88.8722 37.892 88.7065 38.3606 88.4831C38.7972 88.2186 39.1082 87.7672 39.2577 87.1274L39.5986 87.1693C39.5552 87.4488 39.4595 87.8673 39.3145 88.4249C39.1826 88.9438 39.0127 89.4524 38.8062 89.9465C38.3415 89.8852 37.8739 89.8493 37.4053 89.8389L36.8177 89.8195H36.1883L29.012 89.7851L29 89.4607C29.3023 89.4116 29.5968 89.3232 29.8761 89.1976C30.0708 89.0909 30.2181 88.9148 30.2888 88.7044C30.4015 88.3631 30.4629 88.0069 30.4712 87.6476C30.5025 87.1782 30.5175 86.4981 30.522 85.6132L30.5653 81.1185C30.5833 80.102 30.5873 79.3322 30.5773 78.8091C30.5803 78.4137 30.5341 78.0196 30.4398 77.6357C30.4153 77.5274 30.3674 77.4258 30.2994 77.338C30.2315 77.2502 30.1452 77.1784 30.0465 77.1275C29.7755 77.0309 29.4896 76.9824 29.2018 76.984Z" fill="#16100C"/>
<path fill-rule="evenodd" clip-rule="evenodd" d="M48.7905 89.9134V89.5756C49.0478 89.5384 49.2992 89.4676 49.538 89.3648C49.6257 89.3285 49.7 89.2658 49.7506 89.1855C49.8012 89.1052 49.8257 89.0112 49.8206 88.9164C49.8026 88.6224 49.7427 88.3325 49.6427 88.0554C49.5216 87.6802 49.4304 87.4187 49.3691 87.2782L48.6215 85.2184C47.9761 85.1485 47.3271 85.118 46.6779 85.1272H45.8691C45.152 85.0905 44.433 85.128 43.7237 85.2393L42.9642 87.1272C42.6293 87.9164 42.4613 88.4102 42.4603 88.6085C42.4604 88.7268 42.4896 88.8432 42.5454 88.9475C42.6012 89.0518 42.6819 89.1407 42.7803 89.2064C42.9936 89.3678 43.4311 89.4974 44.093 89.595V89.9373C43.4183 89.847 42.7388 89.7971 42.0582 89.7879C41.4851 89.7879 40.8641 89.8123 40.1953 89.8611V89.5621C40.5468 89.4917 40.8724 89.3268 41.1372 89.0853C41.3032 88.9448 41.5214 88.6055 41.7935 88.0719C42.0656 87.5382 42.3557 86.9478 42.6353 86.32C42.9148 85.6922 43.1167 85.1989 43.2408 84.8447L44.8988 80.9359C45.1051 80.4665 45.3174 79.9748 45.5357 79.4606C45.754 78.9464 45.9593 78.4307 46.1517 77.9135C46.346 77.3978 46.4866 76.9822 46.5793 76.6683C46.5758 76.6334 46.5796 76.5981 46.5904 76.5646C46.6012 76.5312 46.6188 76.5004 46.6421 76.474L46.9799 76.4546C47.1873 77.2139 47.415 77.9414 47.6632 78.6369L49.7802 84.4067C50.3264 85.8497 50.7391 86.9134 51.0181 87.598C51.2088 88.1132 51.4544 88.6063 51.7507 89.0689C51.9271 89.323 52.2909 89.4779 52.8421 89.5337V89.8925C52.2815 89.8357 51.7447 89.8058 51.2259 89.8043C50.8163 89.8043 50.4361 89.8123 50.0852 89.8282C49.7339 89.8491 49.4573 89.8641 49.2525 89.8805C49.0476 89.897 48.8936 89.9089 48.7905 89.9149V89.9134ZM45.594 80.6833L44.4279 83.6593C44.2694 84.0809 44.1627 84.3464 44.1079 84.456C44.7016 84.5465 45.3015 84.59 45.902 84.5861L46.8424 84.5711C47.409 84.5711 47.9159 84.5711 48.3644 84.5368C48.2358 84.1169 48.0861 83.7038 47.9159 83.2991L47.1893 81.4127C47.1085 81.2064 46.956 80.8357 46.7303 80.2946C46.5045 79.7535 46.3416 79.3858 46.2414 79.1885C46.1098 79.4755 45.9977 79.7361 45.905 79.9703C45.7988 80.199 45.7017 80.4381 45.594 80.6833Z" fill="#16100C"/>
<path fill-rule="evenodd" clip-rule="evenodd" d="M102.863 73.0913V72.5054C104.268 72.5248 105.188 72.5383 105.623 72.5532C106.058 72.5682 106.42 72.5786 106.71 72.5906C108.583 72.5995 109.816 72.5831 110.408 72.5412L110.374 73.196C109.792 73.2281 109.214 73.3172 108.649 73.462C108.464 73.5169 108.295 73.6126 108.152 73.7419C108.01 73.8713 107.899 74.0311 107.826 74.2094C107.725 74.456 107.65 75.0674 107.599 76.0494C107.548 77.0315 107.505 78.2916 107.463 79.8297C107.412 81.5576 107.372 83.1237 107.342 84.5277C107.312 85.9318 107.294 87.3269 107.288 88.7131C107.282 89.9736 107.311 90.9054 107.375 91.5083C107.439 92.1062 107.548 92.4903 107.705 92.6473C107.894 92.7967 108.209 92.8999 108.649 92.9686C109.088 93.0374 110.029 93.0763 111.468 93.0822C113.052 93.0902 114.377 92.9681 115.444 92.716C116.51 92.4639 117.312 92.1949 117.848 91.9089C118.565 91.4764 119.059 90.737 119.331 89.6906L119.883 89.7609C119.812 90.2183 119.658 90.9034 119.421 91.8162C119.203 92.6645 118.926 93.4962 118.589 94.305C117.83 94.2013 117.064 94.1405 116.298 94.1226C115.952 94.1091 115.631 94.1002 115.336 94.0927C115.042 94.0852 114.698 94.0807 114.306 94.0793L102.555 94.0165L102.523 93.4993C103.019 93.4213 103.502 93.2791 103.96 93.0763C104.279 92.9009 104.521 92.6131 104.639 92.2691C104.788 91.8844 104.888 91.308 104.938 90.5397C104.988 89.7714 105.015 88.6617 105.02 87.2108L105.096 79.8432C105.126 78.183 105.132 76.9229 105.114 76.0629C105.095 75.2049 105.022 74.5681 104.89 74.1466C104.759 73.7251 104.546 73.453 104.256 73.323C103.966 73.193 103.498 73.1167 102.863 73.0913Z" fill="#16100C"/>
<path fill-rule="evenodd" clip-rule="evenodd" d="M121.093 73.1781V72.5981C122.497 72.6176 123.418 72.631 123.853 72.646C124.288 72.6609 124.651 72.6714 124.94 72.6833C126.815 72.6923 128.047 72.6759 128.637 72.634L128.601 73.2872C128.019 73.3187 127.442 73.4084 126.877 73.5548C126.693 73.6089 126.522 73.7042 126.38 73.8337C126.237 73.9632 126.125 74.1234 126.054 74.3022C125.952 74.5473 125.877 75.1587 125.828 76.1407C125.779 77.1228 125.734 78.3829 125.693 79.921C125.64 81.6489 125.598 83.2154 125.569 84.6205C125.54 86.0256 125.523 87.4207 125.517 88.8058C125.498 89.7384 125.527 90.6714 125.604 91.601C125.667 92.1989 125.777 92.5786 125.933 92.74C126.121 92.8855 126.435 92.9932 126.874 93.0629C127.314 93.1327 128.254 93.17 129.696 93.175C131.277 93.175 132.605 93.0614 133.671 92.8103C134.737 92.5592 135.538 92.2901 136.075 92.0016C136.791 91.5701 137.285 90.8307 137.558 89.7834L138.11 89.8537C138.041 90.3111 137.887 90.9962 137.648 91.909C137.431 92.7575 137.153 93.5893 136.817 94.3977C136.057 94.2964 135.292 94.237 134.526 94.2199C134.179 94.2064 133.858 94.1974 133.563 94.19C133.269 94.1825 132.925 94.178 132.535 94.1765L120.794 94.1048L120.766 93.5861C121.259 93.5045 121.739 93.3599 122.195 93.1556C122.512 92.9795 122.753 92.6919 122.871 92.3484C123.02 91.9643 123.123 91.3888 123.17 90.619C123.216 89.8492 123.246 88.7401 123.252 87.2901L123.322 79.9299C123.352 78.2698 123.358 77.0097 123.34 76.1497C123.322 75.2897 123.247 74.6509 123.114 74.2334C122.983 73.8134 122.772 73.5398 122.482 73.4098C122.192 73.2798 121.73 73.2035 121.093 73.1781Z" fill="#16100C"/>
<path fill-rule="evenodd" clip-rule="evenodd" d="M60.414 82.6744C60.4272 81.0401 60.8246 79.4318 61.5742 77.9793C62.3189 76.4827 63.4556 75.216 64.8633 74.3142C66.2956 73.3904 67.9372 72.9325 69.7881 72.9405C71.6878 72.9495 73.1978 73.3555 74.3182 74.1587C74.4677 74.2364 74.6082 74.3216 74.7457 74.4113C74.6486 74.356 74.5484 74.3052 74.4467 74.2619C75.5531 75.1019 76.3086 75.9963 76.7133 76.9449C76.7529 77.0628 76.8061 77.1757 76.8717 77.2813C76.8986 77.3156 76.9614 77.3321 77.0631 77.3321C77.1962 77.3321 77.2634 77.2499 77.2634 77.0825C77.2353 76.3534 77.1639 75.6267 77.0497 74.9061C76.9434 74.2142 76.8745 73.5172 76.8433 72.8179C76.8433 72.3934 76.7686 72.1811 76.6131 72.1811C76.5234 72.1811 76.181 72.4293 75.589 72.9285C75.4444 72.9285 75.1325 72.8209 74.6531 72.6057C74.529 72.5608 74.2569 72.4891 73.8352 72.3934C73.4136 72.2977 72.9143 72.2066 72.3581 72.1258C71.7712 72.0433 71.1792 72.0014 70.5865 72.0003C68.9827 71.9907 67.3871 72.2286 65.8561 72.7058C64.3593 73.1634 62.9602 73.8942 61.7297 74.8613C60.4869 75.8386 59.4851 77.088 58.8013 78.5133C58.1176 79.9386 57.7701 81.5017 57.7857 83.0824C57.7812 84.403 58.0074 85.7141 58.454 86.9569C58.952 88.3431 59.7376 89.6085 60.7593 90.6698C61.7809 91.7312 63.0155 92.5645 64.3819 93.1153C65.9059 93.758 67.7 94.0844 69.7642 94.0943C70.4449 94.0943 71.0365 94.0834 71.5388 94.0615C72.0412 94.0395 72.7105 93.9758 73.5467 93.8701C74.3819 93.7705 75.2581 93.6379 76.175 93.4725C77.5475 93.2005 78.323 93.0595 78.5014 93.0495L78.6718 92.6653C78.4855 92.5165 78.3253 92.3377 78.1979 92.1362C78.0742 91.8595 78.0047 91.5616 77.993 91.2588C77.9492 90.8353 77.9298 90.1282 77.9347 89.1377C77.9407 87.7924 77.9507 86.8741 77.9646 86.3829C77.9811 85.8941 77.993 85.5279 78.0125 85.2827C78.0209 85.0836 78.0581 84.8867 78.1231 84.6983C78.1765 84.5159 78.2864 84.3552 78.4371 84.2394C78.7028 84.1076 78.98 84.0006 79.2654 83.9195V83.2827C78.304 83.3679 77.1722 83.4217 75.8431 83.4427C74.514 83.4636 73.0892 83.4771 71.5508 83.4815L71.482 84.2005C71.8311 84.1512 72.1836 84.1302 72.536 84.1377C73.5617 84.1377 74.2733 84.2364 74.677 84.4158C74.8358 84.4878 74.9774 84.5928 75.0926 84.7237C75.127 84.7655 75.1584 84.8074 75.1898 84.8537C75.3109 85.0484 75.3931 85.2646 75.432 85.4905C75.5317 86.0256 75.5815 86.9723 75.5815 88.3305C75.574 89.7266 75.5531 90.5891 75.5187 90.924C75.5088 91.1861 75.4271 91.4405 75.2825 91.6594C75.0124 91.9932 74.4328 92.336 73.5437 92.6878C72.6546 93.0395 71.5747 93.2129 70.3039 93.2079C68.8675 93.2169 67.4497 92.8828 66.1685 92.2334C66.1237 92.2124 66.0803 92.1885 66.0355 92.1661L66.1401 92.2349L65.9801 92.1362C64.8263 91.5171 63.8093 90.6717 62.99 89.6504C62.1494 88.6246 61.4919 87.4616 61.0464 86.2125C60.6345 85.078 60.4206 83.8812 60.414 82.6744Z" fill="#16100C"/>
<path fill-rule="evenodd" clip-rule="evenodd" d="M91.0121 85.3032L89.4751 85.3301C88.8293 85.3301 88.2272 85.3042 87.6691 85.2524L87.2968 85.215C87.0382 85.1866 86.79 85.1538 86.5493 85.1149C86.638 84.9375 86.8124 84.5035 87.0725 83.813L88.9847 78.9535C89.1552 78.5529 89.3152 78.1613 89.4677 77.7771C89.6201 77.393 89.804 76.9669 90.0178 76.5006C90.1165 76.6964 90.2541 76.9968 90.4305 77.3974C90.4903 77.5365 90.5561 77.6874 90.6248 77.8459C90.6936 78.0043 90.7489 78.1448 90.8192 78.3048C91.187 79.1897 91.4382 79.7995 91.5667 80.1329L92.7628 83.2165C92.8734 83.4288 93.1226 84.1044 93.5103 85.2434C92.7747 85.2853 91.9445 85.3037 91.0195 85.2987L91.0121 85.3032ZM87.8455 79.3586L85.1349 85.7517C84.9296 86.3316 84.5992 87.1353 84.1437 88.1627C83.6882 89.1901 83.2367 90.1423 82.7892 91.0192C82.3456 91.8921 81.9888 92.4452 81.7187 92.6784C81.3619 93.0331 80.8476 93.2922 80.1758 93.4557V93.9415C81.2722 93.8577 82.2878 93.8184 83.2227 93.8234C84.336 93.8417 85.4472 93.925 86.5508 94.073V93.5199C86.0523 93.4525 85.5599 93.346 85.0781 93.2015C85.0034 93.1761 84.9286 93.1522 84.8688 93.1268C84.7034 93.0667 84.5469 92.9842 84.4038 92.8817C84.2429 92.7737 84.1111 92.6278 84.0201 92.4567C83.9291 92.2857 83.8817 92.0948 83.8821 91.9011C83.8821 91.5782 84.1572 90.7716 84.7073 89.4811L85.9497 86.3914C87.1089 86.2095 88.2838 86.1479 89.4557 86.2076H90.7803C92.2455 86.2155 93.3015 86.2654 93.9484 86.357L94.065 86.6769L94.1263 86.8458L95.1728 89.7247C95.2725 89.9599 95.422 90.3844 95.6214 90.9983C95.7883 91.4503 95.8891 91.924 95.9204 92.4048C95.9288 92.5599 95.8887 92.7138 95.8057 92.8451C95.7226 92.9763 95.6007 93.0785 95.4569 93.1373C95.0631 93.306 94.649 93.4226 94.225 93.4841V94.0356L94.9725 93.9818C95.3059 93.9534 95.7604 93.9265 96.336 93.8951C96.9116 93.8637 97.5321 93.8503 98.2019 93.8533C99.0501 93.8533 99.9307 93.9031 100.844 94.0027V93.4168C100.574 93.3896 100.308 93.3396 100.047 93.2673C99.9675 93.2449 99.8973 93.221 99.8225 93.1941C99.5193 93.0952 99.2534 92.9065 99.06 92.653C98.7182 92.1717 98.3195 91.3695 97.864 90.2464C97.4085 89.1233 96.7302 87.3859 95.8292 85.0342L92.3681 75.6007C91.9614 74.4607 91.5882 73.2709 91.2483 72.0312L90.6936 72.0611C90.657 72.1051 90.6296 72.1559 90.6129 72.2105C90.5962 72.2652 90.5906 72.3227 90.5964 72.3795C90.4479 72.8927 90.2152 73.5723 89.8982 74.4184C89.5843 75.2644 89.2464 76.106 88.892 76.9475C88.5377 77.7891 88.1849 78.5903 87.8455 79.3586Z" fill="#16100C"/>
<path fill-rule="evenodd" clip-rule="evenodd" d="M104.936 90.5355C104.887 91.3048 104.787 91.8813 104.637 92.265C104.519 92.609 104.277 92.8968 103.958 93.0721C103.502 93.277 103.021 93.4217 102.527 93.5026L102.559 94.0198L114.304 94.0766C114.696 94.0766 115.038 94.0766 115.334 94.0901L116.295 94.12C117.062 94.1363 117.827 94.1957 118.587 94.2978C118.923 93.4891 119.201 92.6574 119.419 91.8091C119.656 90.8963 119.81 90.2112 119.881 89.7538L119.329 89.6835C119.055 90.7318 118.56 91.4712 117.846 91.9017C117.31 92.1907 116.508 92.4598 115.442 92.7089C114.375 92.958 113.05 93.0806 111.466 93.0766C110.026 93.0706 109.086 93.0328 108.647 92.963L108.547 92.9466C108.43 92.9256 108.324 92.9017 108.225 92.8748C108.038 92.8314 107.861 92.7522 107.703 92.6416C107.546 92.4847 107.437 92.105 107.373 91.5026C107.309 90.9002 107.28 89.9675 107.286 88.7074C107.292 87.3253 107.31 85.9302 107.34 84.5221C107.37 83.114 107.41 81.548 107.461 79.8241C107.503 78.2845 107.548 77.0244 107.597 76.0438C107.648 75.0618 107.723 74.4504 107.824 74.2038C107.897 74.0255 108.008 73.8657 108.15 73.7363C108.293 73.6069 108.462 73.5112 108.647 73.4564C109.212 73.3136 109.79 73.2265 110.372 73.1963L110.409 72.5431C109.817 72.5799 108.584 72.5984 106.711 72.5984L105.624 72.561C105.189 72.5461 104.269 72.5326 102.864 72.5132V73.0991C103.5 73.124 103.962 73.2013 104.25 73.3308C104.394 73.3949 104.519 73.4941 104.614 73.6193C104.644 73.6597 104.674 73.7015 104.703 73.7479C104.779 73.8758 104.839 74.0123 104.884 74.1544C105.015 74.573 105.088 75.2127 105.108 76.0707C105.127 76.9287 105.12 78.1903 105.09 79.851L105.021 87.2112C105.012 88.6561 104.984 89.7642 104.936 90.5355Z" fill="#16100C"/>
<path fill-rule="evenodd" clip-rule="evenodd" d="M46.6975 85.1272C47.3466 85.118 47.9957 85.1485 48.6411 85.2184L48.6934 85.3678L48.7577 85.5442L49.3871 87.2826C49.4484 87.4231 49.5366 87.6847 49.6607 88.0599C49.7607 88.337 49.8206 88.6269 49.8386 88.9209C49.8437 89.0157 49.8192 89.1097 49.7686 89.19C49.718 89.2703 49.6438 89.333 49.556 89.3693C49.3172 89.4721 49.0659 89.5429 48.8085 89.5801V89.9179L49.2705 89.8835L50.1032 89.8312C50.4551 89.8113 50.8353 89.8033 51.244 89.8073C51.7628 89.8073 52.2995 89.8387 52.8602 89.8955V89.5367C52.7543 89.5269 52.649 89.5114 52.5447 89.4904C52.5626 89.5098 52.5851 89.5278 52.606 89.5487C52.5549 89.5259 52.505 89.5004 52.4565 89.4725C52.184 89.4282 51.9372 89.2857 51.7628 89.0719C51.4665 88.6093 51.2209 88.1162 51.0302 87.601C50.7461 86.9124 50.331 85.8477 49.7848 84.4067L47.6678 78.6369C47.4196 77.9394 47.1918 77.2119 46.9845 76.4546L46.6466 76.474C46.6234 76.5004 46.6058 76.5312 46.595 76.5646C46.5842 76.5981 46.5804 76.6334 46.5838 76.6683C46.4912 76.9822 46.3506 77.3978 46.1563 77.9135C45.9619 78.4292 45.7571 78.9479 45.5403 79.4606C45.3235 79.9733 45.1097 80.4665 44.9034 80.9359L43.2454 84.8447C43.1198 85.1984 42.9179 85.6902 42.6398 86.32C42.3603 86.9478 42.0837 87.5308 41.8131 88.0644C41.5425 88.598 41.3227 88.9373 41.1567 89.0778C40.8919 89.3194 40.5663 89.4842 40.2148 89.5547V89.8536C40.8826 89.8028 41.5036 89.7784 42.0777 89.7804C42.7583 89.7896 43.4378 89.8396 44.1125 89.9299V89.5935C43.8755 89.5602 43.6405 89.5143 43.4083 89.456C43.4197 89.4709 43.4327 89.4845 43.4472 89.4964C43.4057 89.4776 43.3653 89.4567 43.3261 89.4336C43.1384 89.3894 42.9602 89.3119 42.7998 89.2049C42.7014 89.1392 42.6207 89.0503 42.5649 88.946C42.5091 88.8417 42.4799 88.7253 42.4799 88.607C42.4799 88.4077 42.6478 87.9139 42.9837 87.1257L43.7432 85.2378C44.4526 85.1265 45.1715 85.089 45.8886 85.1257H46.6975V85.1272ZM46.847 84.5652L45.9066 84.5801C45.5792 84.5801 45.2712 84.5682 44.9796 84.5472C44.863 84.5383 44.7494 84.5293 44.6373 84.5173C44.4564 84.4994 44.2844 84.477 44.12 84.4501C44.1758 84.3404 44.2824 84.0749 44.4399 83.6534L45.5986 80.6833L45.8976 79.9643C45.9903 79.7291 46.1024 79.4685 46.234 79.1825C46.2983 79.3111 46.3835 79.5129 46.5106 79.7879C46.5659 79.9135 46.6242 80.0555 46.69 80.2124L46.7229 80.2887C46.9486 80.8298 47.1011 81.2005 47.1819 81.4067L47.9085 83.2931C48.0787 83.6979 48.2284 84.1109 48.357 84.5308C47.913 84.5562 47.4061 84.5682 46.8395 84.5652H46.847Z" fill="#16100C"/>
<path fill-rule="evenodd" clip-rule="evenodd" d="M160.36 80.3919L160.325 87.785C160.331 89.0669 160.268 90.3482 160.139 91.6235C160.039 92.4207 159.875 92.9554 159.647 93.2274C159.418 93.4994 159.055 93.6987 158.555 93.8253C158.36 93.867 158.171 93.9338 157.993 94.0241C157.952 94.0515 157.919 94.089 157.897 94.1331C157.875 94.1771 157.865 94.2261 157.868 94.2752C157.868 94.4755 157.977 94.5742 158.2 94.5742C158.294 94.5548 158.389 94.5438 158.485 94.5413C159.595 94.3939 160.713 94.3215 161.833 94.3246C162.045 94.3246 162.63 94.3744 163.589 94.474C164.346 94.5891 164.814 94.6459 164.993 94.6474C165.143 94.6474 165.228 94.5264 165.229 94.2797C165.229 94.1586 165.107 94.069 164.863 94.0107C164.518 93.9195 164.231 93.8358 163.997 93.7625L163.941 93.7431C163.756 93.6879 163.575 93.6185 163.401 93.5353C163.29 93.4761 163.193 93.3952 163.114 93.2973C163.035 93.1994 162.977 93.0867 162.943 92.9658C162.767 92.5293 162.655 91.7865 162.611 90.7401C162.568 89.6938 162.544 88.7431 162.549 87.9001L162.601 83.8852C163.815 84.053 165.04 84.132 166.265 84.1213L166.524 84.495L166.653 84.6789L168.176 86.8732C169.128 88.2374 169.954 89.3625 170.653 90.2483C171.377 91.1618 172.177 92.0119 173.046 92.7894C173.899 93.5652 174.86 94.2145 175.898 94.7177C176.873 95.1903 177.941 95.4385 179.024 95.4441C179.404 95.4441 179.643 95.4217 179.743 95.3724C179.788 95.3541 179.826 95.3228 179.853 95.2825C179.88 95.2423 179.894 95.195 179.893 95.1467C179.893 94.9583 179.788 94.8477 179.578 94.8118C179.029 94.7559 178.495 94.6004 178.002 94.353C177.937 94.3216 177.87 94.2887 177.804 94.2528C177.579 94.1334 177.361 94.0006 177.151 93.8552C176.252 93.2231 175.436 92.4803 174.723 91.6445C173.935 90.7399 173.193 89.7954 172.501 88.8149C171.814 87.8343 170.948 86.5503 169.904 84.9629L169.157 83.8209C170.111 83.4906 171.001 83.0003 171.79 82.371C172.431 81.852 172.953 81.201 173.321 80.4621C173.656 79.7827 173.834 79.0361 173.839 78.2783C173.84 77.5452 173.678 76.8212 173.364 76.1587C173.028 75.4513 172.543 74.8247 171.942 74.3217C171.248 73.7461 170.452 73.3051 169.596 73.0212C168.579 72.6798 167.511 72.5111 166.437 72.522C165.99 72.522 164.927 72.5863 163.25 72.7148C161.572 72.8434 160.598 72.9096 160.327 72.9136C159.412 72.9136 158.661 72.8957 158.071 72.8703L157.999 73.4218C158.486 73.4639 158.964 73.573 159.421 73.7462C159.567 73.812 159.696 73.9096 159.799 74.0317C159.835 74.0719 159.867 74.1149 159.896 74.1602C159.974 74.2796 160.038 74.4075 160.086 74.5414C160.23 74.94 160.319 75.5623 160.354 76.4084C160.389 77.2544 160.389 78.5817 160.354 80.3904L160.36 80.3919ZM165.415 83.1931C164.822 83.1934 164.23 83.1565 163.642 83.0825C163.535 83.0705 163.432 83.0541 163.331 83.0376C163.112 83.0017 162.903 82.9599 162.707 82.9121C162.732 77.5309 162.875 74.5703 163.135 74.0302C163.235 73.7522 163.597 73.5504 164.216 73.4248C164.763 73.3082 165.321 73.2471 165.881 73.2425C167.063 73.2484 168.066 73.5509 168.889 74.1498C168.943 74.1901 168.997 74.229 169.049 74.2708C169.755 74.8031 170.324 75.4966 170.707 76.2933C171.076 77.0342 171.275 77.8483 171.289 78.6759C171.283 79.7432 171.05 80.5937 170.591 81.2275C170.178 81.8199 169.609 82.2857 168.946 82.5728C168.358 82.8251 167.737 82.9961 167.103 83.081C166.543 83.1546 165.979 83.192 165.415 83.1931Z" fill="#16100C"/>
<path fill-rule="evenodd" clip-rule="evenodd" d="M143.912 86.1675L143.99 83.7923C144.99 83.6705 145.997 83.6205 147.004 83.6429C148.998 83.6528 150.385 83.7151 151.168 83.8297C151.824 83.9269 152.301 84.1287 152.597 84.4276C152.633 84.4638 152.666 84.5022 152.697 84.5427C152.715 84.5636 152.731 84.5856 152.745 84.6085C153.016 85.0106 153.167 85.7266 153.194 86.752H153.778L153.817 83.613L153.84 80.4934L153.355 80.4575C153.219 80.9586 153.043 81.4479 152.829 81.9209C152.679 82.2363 152.506 82.4336 152.333 82.5098C152.005 82.6212 151.664 82.687 151.319 82.7056C150.437 82.7923 148.814 82.8297 146.449 82.8177C145.824 82.8177 145.316 82.8103 144.92 82.8043C144.806 82.8043 144.703 82.8043 144.61 82.8043C144.311 82.8043 144.102 82.7879 143.99 82.7789C143.99 82.8461 143.99 82.3424 143.981 81.2722C143.972 80.2019 143.974 79.2542 143.981 78.4321C144.008 76.8725 144.117 75.3154 144.305 73.767C146.01 73.5538 147.726 73.447 149.444 73.4471C150.619 73.4333 151.793 73.5496 152.943 73.7939C153.331 73.8671 153.693 74.0443 153.989 74.3066C154.024 74.3406 154.058 74.3766 154.089 74.4142C154.302 74.6806 154.412 75.0151 154.397 75.3559C154.397 75.4142 154.373 75.6175 154.328 75.9762C154.284 76.335 154.26 76.5442 154.258 76.6115C154.258 76.7779 154.397 76.8616 154.675 76.8626C154.9 76.8626 155.083 76.3858 155.234 75.4276C155.385 74.4695 155.489 73.5114 155.548 72.5532C153.116 72.63 151.298 72.6653 150.094 72.6594L139.376 72.613C139.349 72.7559 139.336 72.9011 139.337 73.0465C140.084 73.195 140.591 73.3649 140.858 73.5562C140.917 73.5991 140.971 73.6494 141.018 73.7057C141.047 73.7408 141.073 73.7777 141.097 73.8163C141.257 74.0915 141.359 74.3968 141.396 74.7132C141.489 75.2951 141.548 76.4112 141.572 78.0614L141.665 83.3798C141.674 83.7251 141.656 84.5905 141.611 85.9717C141.567 87.3528 141.51 88.601 141.441 89.7086C141.372 90.8162 141.308 91.583 141.239 92.0075C141.207 92.3045 141.149 92.598 141.066 92.885C141.01 93.0434 140.914 93.1842 140.786 93.293C140.564 93.4445 140.314 93.5487 140.051 93.5995C139.692 93.6906 139.337 93.7758 138.988 93.8521L138.953 94.4216C139.589 94.3917 140.586 94.3573 141.943 94.3184C143.301 94.2796 144.463 94.2547 145.43 94.2437C146.395 94.2317 147.242 94.2273 147.971 94.2302C147.859 94.2302 148.199 94.2422 148.993 94.2691C149.786 94.296 150.525 94.3095 151.217 94.3125C152.365 94.3125 153.257 94.3254 153.893 94.3513C154.53 94.3708 155.031 94.3977 155.399 94.432C155.742 93.7338 156.02 93.0058 156.232 92.2572C156.487 91.3084 156.686 90.3457 156.83 89.3738H156.311C155.925 90.443 155.467 91.2602 154.937 91.8252C154.407 92.3902 153.642 92.7993 152.643 93.0524C151.647 93.3035 150.273 93.4246 148.523 93.4156C147.825 93.4156 147.24 93.3937 146.768 93.3498C146.295 93.306 145.937 93.2651 145.691 93.2273C145.491 93.1944 145.282 93.154 145.062 93.1032C145.008 93.0897 144.953 93.0793 144.899 93.0643L144.767 93.0314C144.545 92.9761 144.349 92.9253 144.181 92.882C143.911 91.3045 143.822 89.0663 143.912 86.1675Z" fill="#16100C"/>
<path fill-rule="evenodd" clip-rule="evenodd" d="M125.522 88.7892C125.528 87.4081 125.546 86.013 125.575 84.6039C125.604 83.1948 125.645 81.6283 125.699 79.9044C125.74 78.3648 125.784 77.1047 125.833 76.1241C125.883 75.1421 125.957 74.5307 126.059 74.2856C126.131 74.1068 126.242 73.9466 126.385 73.8171C126.528 73.6876 126.698 73.5923 126.883 73.5382C127.447 73.3918 128.025 73.3021 128.607 73.2706L128.643 72.6174C128.054 72.6603 126.821 72.6767 124.945 72.6667L123.858 72.6294C123.423 72.6144 122.502 72.601 121.098 72.5815V73.1675C121.734 73.1934 122.197 73.2706 122.486 73.3992C122.628 73.4647 122.752 73.5637 122.848 73.6877C122.881 73.7287 122.911 73.7716 122.939 73.8162C123.014 73.9442 123.075 74.0807 123.118 74.2228C123.25 74.6433 123.325 75.2821 123.344 76.1391C123.363 76.9961 123.357 78.2562 123.326 79.9193L123.256 87.2795C123.25 88.7294 123.222 89.8391 123.174 90.6084C123.126 91.3782 123.024 91.9536 122.875 92.3378C122.757 92.6813 122.516 92.9689 122.199 93.145C121.743 93.3492 121.262 93.4939 120.77 93.5755L120.798 94.0941L132.545 94.1494C132.934 94.1494 133.277 94.1539 133.573 94.1629L134.536 94.1928C135.302 94.2099 136.067 94.2693 136.827 94.3707C137.163 93.5622 137.441 92.7304 137.658 91.8819C137.897 90.9681 138.051 90.283 138.12 89.8266L137.568 89.7563C137.296 90.8047 136.802 91.5441 136.085 91.9746C135.549 92.2636 134.747 92.5331 133.681 92.7832C132.615 93.0344 131.289 93.1554 129.706 93.148C128.265 93.142 127.325 93.1046 126.884 93.0358C126.853 93.0284 126.819 93.0239 126.786 93.0179C126.671 92.997 126.561 92.9731 126.466 92.9462C126.278 92.9029 126.1 92.8237 125.942 92.713C125.787 92.5565 125.677 92.1769 125.614 91.574C125.535 90.6479 125.505 89.7184 125.522 88.7892Z" fill="#16100C"/>
<path fill-rule="evenodd" clip-rule="evenodd" d="M31.9094 86.5293C31.9094 85.6843 31.9204 84.8318 31.9423 83.9718C31.9642 83.1118 31.9891 82.1547 32.0171 81.1004C32.043 80.1567 32.0709 79.3859 32.1008 78.788C32.1307 78.1901 32.177 77.8134 32.2383 77.6639C32.2837 77.5564 32.3524 77.4604 32.4396 77.3828C32.5268 77.3053 32.6301 77.2481 32.7422 77.2155C33.085 77.1277 33.4354 77.0727 33.7887 77.0511L33.8096 76.6535C33.4478 76.6774 32.6958 76.6908 31.5491 76.6849L30.8868 76.6594C30.6266 76.6475 30.063 76.634 29.2048 76.634V76.9913C29.4912 76.9876 29.7759 77.0337 30.0465 77.1273C30.1024 77.1526 30.1531 77.1881 30.1961 77.2319C30.2494 77.2809 30.2948 77.3379 30.3306 77.4008C30.3737 77.4757 30.4087 77.5548 30.4353 77.637C30.5296 78.0209 30.5758 78.4151 30.5728 78.8104C30.5818 79.3336 30.5778 80.1034 30.5609 81.1198L30.5175 85.6205C30.5175 86.5054 30.4981 87.1855 30.4667 87.6549C30.4585 88.0142 30.397 88.3704 30.2843 88.7117C30.2136 88.9221 30.0663 89.0982 29.8716 89.205C29.5934 89.3276 29.3004 89.4135 29 89.4606L29.0209 89.7775L36.1973 89.8118H36.8267L37.4143 89.8313C37.8828 89.8416 38.3505 89.8776 38.8151 89.9389C39.0217 89.4448 39.1916 88.9362 39.3235 88.4172C39.473 87.8597 39.5642 87.4412 39.6075 87.1616L39.2667 87.1198C39.1022 87.7595 38.7987 88.211 38.3696 88.4755C37.901 88.6989 37.407 88.8645 36.8985 88.9688C36.0999 89.1364 35.2847 89.2116 34.469 89.193C33.6571 89.193 33.1055 89.1691 32.8139 89.1332L32.7377 89.1302C32.6928 89.1302 32.651 89.1153 32.6121 89.1093C32.4517 89.0833 32.2987 89.0231 32.1636 88.9329C32.0694 88.8373 32.0021 88.6071 31.9617 88.2379C31.9214 87.8687 31.9049 87.2992 31.9094 86.5293Z" fill="#16100C"/>
<path fill-rule="evenodd" clip-rule="evenodd" d="M184.282 76.4215C184.382 79.5755 184.426 81.9935 184.415 83.6756C184.406 85.5361 184.368 87.3049 184.299 88.982C184.23 90.6591 184.081 91.7981 183.85 92.399C183.782 92.6188 183.669 92.8222 183.518 92.9965C183.368 93.1708 183.183 93.3124 182.976 93.4125C182.551 93.6237 181.736 93.7593 180.531 93.8191L180.561 94.4543L181.357 94.4349C181.797 94.42 182.291 94.4085 182.838 94.4005L184.151 94.3811C184.481 94.3811 184.888 94.3811 185.381 94.3811L186.301 94.3945L187.447 94.4244C187.946 94.4374 188.426 94.4538 188.887 94.4738C189.349 94.4937 189.658 94.5032 189.814 94.5022L189.884 93.8669C189.242 93.8735 188.602 93.8089 187.974 93.6741C187.902 93.6546 187.835 93.6352 187.772 93.6128C187.756 93.6086 187.741 93.6031 187.727 93.5963C187.281 93.4329 187.009 93.1893 186.911 92.8654C186.812 92.5415 186.753 91.988 186.733 91.2047C186.704 90.2331 186.689 89.3203 186.688 88.4663C186.687 87.6123 186.694 85.5784 186.709 82.3647C186.731 77.7001 186.927 75.017 187.298 74.3154C187.385 74.1631 187.5 74.0295 187.639 73.9222C187.778 73.815 187.936 73.7363 188.105 73.6906C188.463 73.586 189.131 73.5411 190.115 73.5411V72.7549L187.219 72.8745C186.193 72.9153 185.613 72.9353 185.478 72.9343C185.087 72.9343 184.324 72.9059 183.186 72.855C182.875 72.8311 182.089 72.7813 180.829 72.7056V73.4231C181.854 73.439 182.609 73.5386 183.094 73.722C183.334 73.8053 183.553 73.9382 183.738 74.1121C183.776 74.1493 183.812 74.1887 183.846 74.2302C183.922 74.3286 183.983 74.438 184.027 74.5546C184.17 74.9313 184.252 75.5516 184.282 76.4215Z" fill="#16100C"/>
<path fill-rule="evenodd" clip-rule="evenodd" d="M204.731 85.7717C203.994 85.8136 203.163 85.832 202.24 85.827L200.702 85.8539C200.056 85.8539 199.455 85.828 198.897 85.7762L198.522 85.7388C198.264 85.7104 198.015 85.6775 197.775 85.6387C197.864 85.4608 198.041 85.0273 198.299 84.3367L200.215 79.4743C200.385 79.0737 200.545 78.6821 200.698 78.2979C200.85 77.9137 201.034 77.4877 201.248 77.0214C201.346 77.2172 201.485 77.5176 201.66 77.9182C201.722 78.0572 201.786 78.2172 201.856 78.3667L202.048 78.8241C202.417 79.709 202.667 80.3188 202.795 80.6521L203.991 83.7358C204.101 83.9481 204.35 84.6237 204.739 85.7627L204.731 85.7717ZM199.071 79.8898L196.36 86.2844C196.161 86.8644 195.831 87.6681 195.369 88.6955C194.908 89.7229 194.459 90.6745 194.024 91.5504C193.575 92.4249 193.222 92.9779 192.952 93.2111C192.593 93.5659 192.079 93.825 191.41 93.9884V94.4742C192.507 94.3905 193.522 94.3511 194.456 94.3561C195.569 94.3745 196.681 94.4578 197.785 94.6057V94.0527C197.286 93.9849 196.793 93.8784 196.311 93.7343C196.238 93.7089 196.161 93.685 196.102 93.6596C195.937 93.5995 195.782 93.517 195.64 93.4144C195.478 93.3068 195.346 93.161 195.254 92.99C195.163 92.8189 195.115 92.6279 195.115 92.4339C195.115 92.111 195.391 91.3043 195.942 90.0138L197.184 86.9242C198.344 86.7423 199.519 86.6807 200.692 86.7403H202.016C203.481 86.7473 204.538 86.7971 205.186 86.8898L205.302 87.2097L205.362 87.3786L206.409 90.2575C206.508 90.4917 206.658 90.9162 206.857 91.531C207.024 91.983 207.125 92.4567 207.156 92.9376C207.165 93.0927 207.125 93.2466 207.042 93.3778C206.958 93.5091 206.837 93.6112 206.693 93.67C206.298 93.8387 205.884 93.9553 205.459 94.0168V94.5714L206.207 94.5175C206.542 94.4891 206.996 94.4622 207.57 94.4309C208.144 94.3995 208.766 94.386 209.435 94.389C210.284 94.389 211.166 94.4388 212.08 94.5385V93.9525C211.81 93.9263 211.542 93.8763 211.281 93.8031C211.205 93.7806 211.132 93.7567 211.058 93.7298C210.754 93.6318 210.488 93.4429 210.294 93.1887C209.953 92.7074 209.554 91.9052 209.098 90.7821C208.643 89.6591 207.964 87.9202 207.062 85.5654L203.596 76.132C203.188 74.992 202.815 73.8022 202.477 72.5625L201.922 72.5924C201.885 72.6361 201.857 72.6868 201.839 72.7414C201.822 72.7961 201.815 72.8536 201.82 72.9108C201.674 73.424 201.442 74.1036 201.124 74.9496C200.806 75.7957 200.469 76.6387 200.114 77.4788C199.759 78.3203 199.41 79.1215 199.071 79.8898Z" fill="#16100C"/>
</svg>
