<svg width="243" height="168" viewBox="0 0 243 168" fill="none" xmlns="http://www.w3.org/2000/svg">
<rect x="0.898438" y="0.5" width="241.6" height="167" rx="15.5" fill="white"/>
<rect x="0.898438" y="0.5" width="241.6" height="167" rx="15.5" stroke="#BDBFC4"/>
<path d="M45.7313 53.4555C45.5798 53.7585 45.4093 54.3077 45.3336 54.6675C45.2768 55.0273 45.0306 55.5387 44.7844 55.8038C44.292 56.3341 41.9436 59.5536 41.7542 59.9702C41.6785 60.1217 41.4512 60.5005 41.2618 60.8224C40.4664 62.0534 39.2733 64.7048 38.7809 66.3335C38.5537 67.0531 38.3075 67.9053 38.2128 68.2084C37.7583 69.6855 37.3984 72.3748 37.3984 74.2686C37.3984 76.3897 37.531 77.2608 38.3832 80.575C38.6484 81.5219 39.9551 83.1317 41.0914 83.8514C43.042 85.1202 44.9169 85.4422 46.5646 84.8172C49.4621 83.7188 50.6363 82.4499 51.6589 79.344C51.9809 78.3403 52.0377 77.7532 51.9998 75.6132C51.943 73.3027 51.9809 73.0376 52.3218 72.6588C52.8521 72.0718 53.7043 71.6551 54.6891 71.5036C57.6813 71.068 60.3327 69.8181 62.1318 68.019C63.7794 66.3713 64.0446 65.6706 64.0446 62.8109V60.4437L63.3439 59.2695C62.9651 58.6256 62.3212 57.7734 61.9235 57.3757C61.147 56.5613 59.1585 55.0463 58.8934 55.0463C58.7987 55.0463 58.6093 54.9326 58.4957 54.8001C57.9843 54.1562 55.6928 53.7774 49.6704 53.3229C48.3258 53.2282 46.9433 53.0956 46.6024 53.0388C46.0911 52.9441 45.9775 53.0009 45.7313 53.4555ZM55.333 55.9364C58.0033 56.656 60.5599 59.3074 60.5599 61.3338C60.5599 62.2807 59.1396 64.7995 57.9086 66.0305C56.7723 67.1667 54.5944 68.4735 53.0983 68.9469C51.2612 69.5151 50.9393 69.25 50.5227 66.788C50.409 66.1062 50.2007 64.9131 50.0492 64.1366C49.5757 61.5231 49.3864 59.9702 49.3864 58.512V57.0727L50.1818 56.3341C50.9582 55.6144 50.9772 55.6144 52.5869 55.6144C53.496 55.6144 54.6891 55.747 55.333 55.9364ZM45.9964 62.8109C46.6214 64.4965 47.7955 68.8712 48.3258 71.5794C48.9697 74.7799 48.5152 79.2494 47.3978 80.7265C46.3752 82.0712 44.7844 82.7151 43.667 82.2605C42.8527 81.9197 41.4702 80.3478 41.1103 79.363C40.6558 78.132 40.296 76.0488 40.296 74.6474C40.3149 72.6778 40.8452 69.6098 41.5459 67.3561C41.6974 66.8827 41.8111 66.3524 41.8111 66.182C41.8111 65.9926 42.1141 65.2161 42.4739 64.4396C43.2504 62.792 44.2351 61.8451 45.1252 61.9209C45.5987 61.9587 45.7313 62.0913 45.9964 62.8109ZM121.257 58.3415C119.344 58.8718 118.341 59.6861 117.45 61.4474C116.977 62.3943 116.901 62.7731 116.844 64.5154C116.788 66.0683 116.863 66.8069 117.166 67.9243C118.208 71.7877 119.685 74.3443 122.374 77.0146C123.511 78.1131 123.624 78.3024 123.624 79.0032C123.624 79.6471 123.53 79.8554 123.056 80.1963C122.753 80.4235 122.45 80.6129 122.374 80.6129C122.261 80.6129 121.522 80.9159 119.742 81.7303C119.117 82.0333 118.094 82.4689 117.488 82.7151C116.201 83.2264 113.36 85.6126 112.792 86.6542C111.826 88.3776 111.599 89.476 111.636 92.3546C111.655 95.4037 111.845 96.1802 112.924 97.6005C113.757 98.68 114.42 99.2103 115.916 99.8921C117.091 100.46 117.337 100.498 119.155 100.498C120.386 100.498 121.484 100.384 122.128 100.195C124.78 99.4186 126.939 97.8278 127.791 96.0287C128.037 95.5173 128.454 94.7977 128.738 94.4378C129.003 94.078 129.382 93.3962 129.571 92.9228C129.76 92.4493 130.025 91.8244 130.177 91.5403C130.328 91.2373 130.442 90.8585 130.442 90.6881C130.442 90.5176 130.575 90.1957 130.726 90.0063C130.878 89.798 131.01 89.476 131.01 89.2866C131.01 89.1162 131.124 88.6806 131.275 88.3397C131.673 87.3739 131.976 86.4459 132.147 85.7262C132.999 81.8818 133.359 81.3894 135.139 81.6545C135.764 81.7492 136.18 81.9954 137.052 82.8098C138.32 83.9839 140.195 84.893 142.43 85.4422C144.134 85.8588 144.778 85.7641 147.07 84.6657C148.907 83.7945 149.949 83.7945 151.52 84.6278C152.467 85.1392 152.884 85.2528 153.831 85.2528C154.91 85.2528 155.024 85.196 156.406 84.1544C158.376 82.6772 158.944 82.7151 160.933 84.571C161.293 84.9119 161.823 85.3096 162.088 85.4422C162.524 85.6884 162.637 85.6694 163.224 85.2717C163.887 84.8172 164.19 84.1922 164.777 82.128C164.929 81.5598 165.194 80.6129 165.364 80.0258C165.535 79.4387 165.667 78.8138 165.667 78.6055C165.667 77.9805 166.841 76.4654 167.504 76.2382C168.887 75.7837 170.553 77.4123 171.633 80.2341C171.803 80.7076 172.068 81.3704 172.22 81.7113C172.371 82.0522 172.485 82.4499 172.485 82.5825C172.485 83.037 173.262 83.8324 173.678 83.8324C174.417 83.8135 175.155 82.9234 175.383 81.7871C175.837 79.4577 176.576 78.1509 177.447 78.1509C178.072 78.1509 179.038 79.2304 180.212 81.1811C181.765 83.7756 183.507 85.1581 185.212 85.1581C186.215 85.1581 186.727 84.8361 188.147 83.3021C188.848 82.5636 189.397 82.128 189.662 82.128C190.249 82.128 191.082 82.9044 191.575 83.9082C192.276 85.2907 192.938 85.6694 194.851 85.8399C196.915 85.9914 197.502 85.802 198.847 84.5331C200.324 83.1506 202.256 82.3174 203.96 82.3174C204.566 82.3174 204.907 82.2037 205.154 81.9386C205.494 81.5598 205.494 81.5409 205.059 81.0864C204.68 80.6887 204.434 80.6129 203.487 80.6129C202.862 80.6129 202.086 80.4803 201.745 80.3099C200.741 79.8364 200.476 79.2683 200.324 77.1093C200.249 76.0488 200.097 75.0072 199.964 74.7799C199.851 74.5716 199.756 74.2497 199.756 74.0792C199.756 73.53 198.43 71.7498 197.711 71.3142C197.181 71.0112 196.707 70.8976 195.779 70.8976C193.469 70.9165 191.575 72.3748 190.211 75.2534C187.674 80.5372 186.764 81.7681 185.249 82.0522C183.905 82.2984 183.337 81.7492 182.712 79.5713C182.465 78.738 181.575 76.1245 181.121 74.9693C180.515 73.3596 179.284 72.2801 178.072 72.2801C176.992 72.2801 175.818 72.7725 175.004 73.5489C174.549 73.9845 174.019 74.439 173.83 74.5527C173.129 74.9125 172.277 74.761 171.368 74.0982C170.894 73.7383 169.985 73.2649 169.36 73.0565C166.595 72.0907 164.853 72.9429 163.319 76.0677C162.372 77.9805 162.258 78.1509 161.52 78.8517C161.008 79.363 160.724 79.4766 160.099 79.4766C159.683 79.4577 159.115 79.344 158.849 79.1925C158.584 79.041 158.054 78.9274 157.637 78.9085C157.031 78.9085 156.785 79.0221 156.274 79.5713C155.933 79.9501 155.535 80.4614 155.403 80.7455C154.759 82.0712 153.092 82.3174 152.505 81.1811C151.899 79.9879 152.278 78.2078 153.376 77.223C153.944 76.6927 154.607 76.4654 157.145 75.9162C159.456 75.4049 159.872 75.2344 160.062 74.7042C160.213 74.2686 160.175 74.0982 159.796 73.7004C159.152 73.0187 158.414 72.8482 156.293 72.905C154.683 72.9429 154.229 73.0187 153.301 73.4543C151.975 74.0792 150.062 75.9162 149.797 76.8442C149.153 79.0221 148.225 80.4803 146.824 81.5409C146.256 81.9765 145.706 82.3174 145.593 82.3174C145.479 82.3174 145.119 82.4499 144.778 82.6204C144.229 82.9234 144.116 82.9044 143.169 82.5825C142.07 82.2227 141.559 81.6924 141.729 81.0674C141.786 80.8591 142.563 80.2152 143.472 79.6092C146.426 77.6585 147.221 76.6169 147.43 74.3254C147.524 73.4353 147.468 73.1512 147.108 72.5642C146.615 71.7498 145.687 71.1438 144.286 70.7082C141.881 69.9507 139.495 70.6514 137.449 72.6967C136.521 73.6436 135.896 74.7231 135.631 75.8405C135.48 76.4844 134.836 77.204 134.419 77.204C134.249 77.204 133.908 76.9957 133.662 76.7306C133.264 76.295 133.207 76.0867 133.245 74.7231C133.264 73.7383 133.169 72.9619 132.999 72.5263C132.847 72.1665 132.715 71.5415 132.715 71.1438C132.715 70.7461 132.582 70.0643 132.431 69.6287C132.279 69.1931 132.147 68.4924 132.147 68.0758C132.147 67.3183 130.65 63.417 130.139 62.792C129.988 62.6405 129.874 62.4322 129.874 62.3564C129.874 62.0724 128.151 59.9702 127.563 59.5536C125.632 58.19 123.378 57.7544 121.257 58.3415ZM124.42 61.2201C126.162 62.1102 126.92 63.114 128.094 66.1251C129.116 68.7576 129.438 76.0299 128.605 77.1851C128.378 77.4881 127.999 77.6964 127.658 77.7343C127.185 77.7911 126.844 77.5449 125.348 76.1435C122.999 73.9277 122.299 72.8482 120.481 68.7197C120.291 68.2841 120.215 67.3183 120.215 65.3297V62.5458L121.181 61.6368C122.337 60.5573 122.943 60.4815 124.42 61.2201ZM143.699 73.0565C144.172 73.6247 144.172 73.833 143.699 74.761C143.131 75.8594 141.957 76.6359 140.858 76.6359C139.76 76.6359 139.532 76.4086 139.532 75.3102C139.532 74.1739 140.309 73.0565 141.426 72.602C142.032 72.3369 143.301 72.602 143.699 73.0565ZM195.855 74.6474C196.953 75.8215 197.01 79.2872 195.968 79.8554C195.476 80.1205 193.507 80.0826 192.938 79.7986C192.294 79.4766 192.238 78.6433 192.749 77.1662C193.298 75.5943 193.601 75.0261 194.188 74.5716C194.851 74.0413 195.325 74.0792 195.855 74.6474ZM128.17 82.6772C128.435 83.2075 128.397 84.8172 128.094 85.7641C127.942 86.2186 127.772 86.8815 127.696 87.2413C127.601 87.8284 127.374 88.3965 126.844 89.5328C126.579 90.0631 125.689 91.6729 125.329 92.2599C125.139 92.563 124.742 93.2447 124.477 93.775C123.871 94.8734 122.318 96.5589 121.314 97.2028C119.761 98.1876 116.617 97.5627 115.329 96.0287C114.572 95.1007 113.966 93.6803 113.966 92.7902C113.966 91.313 116.882 87.8284 120.234 85.3096C121.712 84.1733 124.041 82.9044 124.628 82.8855C124.742 82.8666 125.064 82.7529 125.329 82.6014C125.594 82.4499 126.295 82.3363 126.882 82.3174C127.772 82.3174 127.999 82.3931 128.17 82.6772ZM62.5484 70.7082C60.2001 71.4279 59.2342 72.2801 58.6661 74.136C58.3252 75.1966 58.2873 75.67 58.401 76.9578C58.5714 79.1925 58.382 79.4387 56.4503 79.5145C55.0868 79.5713 54.9731 79.6092 54.9163 80.0069C54.8595 80.3478 55.011 80.4993 55.6739 80.8023C56.1284 81.0106 56.8102 81.1811 57.1889 81.1811C58.1737 81.1811 59.3289 81.6735 60.5599 82.6014C62.8515 84.3437 64.1961 84.9687 65.6543 84.9687C66.658 84.9687 67.2073 84.7983 69.8397 83.7188C70.9381 83.2453 72.0933 82.8855 72.4153 82.8855C73.4379 82.8855 73.4948 83.1128 73.1539 86.2376C72.813 89.2488 72.8887 91.4456 73.3622 93.3205C73.5137 93.9076 73.6273 94.6272 73.6273 94.8924C73.6273 95.7256 74.347 97.0703 75.275 97.9604C76.0325 98.6989 76.2219 98.7936 76.9983 98.7936C78.8732 98.7936 80.7481 97.3733 81.6761 95.2522C82.1306 94.2485 82.1495 94.0401 82.1495 90.3661C82.1495 85.2149 81.5435 85.6694 88.153 85.7073C92.1111 85.7452 93.4936 85.6884 94.4594 85.4611C97.66 84.7036 98.2849 84.5899 99.0803 84.5899C99.5538 84.5899 100.16 84.6846 100.463 84.7983C101.637 85.2717 103.91 85.7262 105.046 85.7262C106.807 85.7262 108.549 85.1013 109.553 84.0786C110.557 83.0938 110.746 82.4689 110.235 81.7871C109.78 81.1621 109.155 81.0485 108.379 81.4273C106.978 82.109 106.22 82.3363 105.311 82.3552C104.762 82.3552 104.232 82.2984 104.137 82.2227C103.739 81.9765 103.947 81.3326 104.705 80.4235C105.652 79.3062 106.012 78.1509 106.012 76.2192C106.012 74.4959 105.633 73.4353 104.648 72.4505C103.758 71.5604 102.735 71.2006 100.766 71.0491C98.5122 70.8786 97.5274 71.1817 96.2964 72.4316C95.1791 73.5489 94.7435 74.4012 94.4405 76.1056C94.1943 77.4881 94.3837 79.4766 94.895 80.9538C95.198 81.806 94.6677 82.3363 93.4746 82.3742C92.433 82.412 91.8081 81.9575 91.8081 81.1811C91.8081 80.6129 91.3725 79.06 90.899 77.8669C89.8574 75.3291 87.1303 73.227 83.7214 72.3558C82.3768 72.0149 82.301 72.0149 80.9754 72.3558C78.9111 72.8861 77.7937 73.6815 74.2144 77.0904C69.9533 81.1811 68.2867 82.1469 67.0368 81.2568C66.5444 80.9159 66.6012 80.4614 67.283 79.6849C68.9306 77.7911 69.3662 77.223 69.7639 76.3329C70.3321 75.1019 70.3321 74.5148 69.8018 73.1512C69.3852 72.0149 68.6655 71.3332 67.3209 70.7082C66.4118 70.2916 63.8931 70.2916 62.5484 70.7082ZM65.1051 72.9619C66.052 73.3406 66.2414 73.6815 66.2414 74.9693C66.2414 77.223 63.8362 79.7228 62.6242 78.738C62.2076 78.3971 62.1697 78.2646 62.2076 76.6548C62.2644 74.6663 62.6621 73.6247 63.6469 73.0376C64.3665 72.5831 64.1771 72.602 65.1051 72.9619ZM102.395 74.0792C102.83 74.5148 102.773 77.1283 102.3 77.9616C101.826 78.8327 101.315 79.363 100.614 79.7039C99.9704 80.0258 99.6674 79.969 99.0614 79.4198C98.6637 79.0789 98.6258 78.8517 98.6258 77.3555C98.6258 75.9162 98.6826 75.5753 99.0803 74.9693C99.3265 74.5905 99.6485 74.1739 99.7811 74.0413C100.368 73.5679 101.902 73.5868 102.395 74.0792ZM83.9676 75.973C84.9903 76.2761 85.7667 76.901 86.6758 78.1509C87.8121 79.7418 87.2818 81.3515 85.2744 82.2984C83.8729 82.9613 82.8503 82.7908 82.0549 81.7681C81.2216 80.6887 81.0132 80.0826 81.0132 78.5676C81.0132 77.1093 81.0322 77.0525 81.6761 76.3897C82.4336 75.6132 82.623 75.5753 83.9676 75.973ZM78.4566 84.5899C78.5891 84.5899 78.8353 84.9308 79.0058 85.3475C79.252 85.9535 79.3088 86.8247 79.3088 89.5707C79.3088 92.544 79.252 93.1311 78.949 93.8129C78.7407 94.2485 78.3998 94.703 78.1725 94.8166C77.5854 95.1386 76.7711 94.8734 76.2787 94.2106C75.881 93.6803 75.862 93.472 75.881 90.7638C75.8999 87.8284 76.1082 86.5406 76.809 85.2149C77.112 84.6089 77.4718 84.3816 77.9453 84.5142C78.0968 84.5521 78.324 84.5899 78.4566 84.5899ZM130.537 107.486C128.813 107.96 127.715 108.945 127.526 110.232C127.204 112.334 128.397 114.001 130.404 114.247C132.885 114.55 134.457 113.906 135.177 112.278C135.65 111.217 135.65 110.611 135.177 109.532C134.495 108.017 132.26 107.032 130.537 107.486ZM132.506 108.774C133.434 109.172 133.851 109.873 133.851 110.99C133.851 111.672 133.737 111.975 133.302 112.467C132.771 113.054 132.677 113.092 131.446 113.092C130.328 113.092 130.101 113.035 129.685 112.619C129.287 112.221 129.211 111.975 129.211 110.99C129.211 109.702 129.457 109.267 130.499 108.755C131.275 108.376 131.597 108.376 132.506 108.774ZM94.4783 107.751C94.3268 107.941 94.27 108.926 94.3079 111.028L94.3647 114.039L97.2623 114.096C99.7621 114.134 100.16 114.096 100.273 113.85C100.463 113.319 100.027 113.13 98.5879 113.149C97.8304 113.168 96.9024 113.111 96.5426 113.035L95.8798 112.884L95.7851 110.251L95.6904 107.6L95.198 107.543C94.9329 107.505 94.6109 107.6 94.4783 107.751ZM103.266 107.789C102.963 107.922 102.413 108.339 102.092 108.679C101.58 109.21 101.448 109.513 101.353 110.441C101.201 112.031 101.542 112.922 102.565 113.66C103.36 114.19 103.493 114.228 105.216 114.228C107.527 114.228 108.265 113.831 108.947 112.259C109.459 111.122 109.212 109.588 108.398 108.66C107.47 107.619 104.724 107.145 103.266 107.789ZM106.599 108.945C107.148 109.21 107.716 110.251 107.716 110.952C107.716 111.179 107.527 111.728 107.281 112.145C106.94 112.77 106.712 112.941 106.012 113.111C104.478 113.49 103.341 112.941 102.944 111.634C102.698 110.819 102.963 109.626 103.455 109.21C104.307 108.509 105.519 108.395 106.599 108.945ZM110.765 107.77C110.614 107.941 110.557 108.982 110.595 111.028L110.652 114.039L111.466 114.096L112.261 114.153V112.353C112.261 111.369 112.337 110.516 112.432 110.46C112.564 110.365 113.625 111.596 114.988 113.433C115.481 114.077 115.595 114.134 116.447 114.134H117.375L117.337 110.857L117.28 107.6L116.674 107.543C115.86 107.467 115.632 107.922 115.689 109.702C115.708 110.479 115.651 111.198 115.538 111.312C115.424 111.425 115.026 111.009 114.439 110.213C113.019 108.263 112.205 107.505 111.542 107.505C111.239 107.505 110.879 107.619 110.765 107.77ZM119.287 107.77C119.136 107.941 119.079 108.982 119.117 111.028L119.174 114.039L121.579 114.096C123.643 114.134 124.06 114.096 124.552 113.793C125.783 113.054 126.219 111.975 125.992 110.251C125.821 108.812 124.969 107.998 123.359 107.714C121.655 107.411 119.553 107.448 119.287 107.77ZM123.113 108.926C123.927 109.039 124.06 109.115 124.306 109.683C124.647 110.497 124.647 111.312 124.306 112.126C124.022 112.808 123.852 112.903 122.431 113.092C120.821 113.3 120.784 113.262 120.784 111.028C120.784 108.926 120.916 108.623 121.712 108.736C121.977 108.774 122.621 108.869 123.113 108.926ZM137.203 107.751C136.9 107.96 136.881 108.32 136.919 111.009L136.976 114.039L137.695 114.096L138.396 114.153V112.259C138.396 110.857 138.453 110.346 138.642 110.346C138.756 110.346 139.229 110.857 139.684 111.463C140.12 112.069 140.631 112.732 140.82 112.959C140.991 113.168 141.294 113.528 141.464 113.736C141.71 114.039 142.013 114.134 142.657 114.134H143.509V110.914C143.509 107.392 143.453 107.221 142.449 107.657C142.013 107.865 141.994 107.96 141.994 109.588C141.994 111.861 141.748 111.842 140.025 109.494C138.586 107.543 137.98 107.164 137.203 107.751Z" fill="#1A1A1A"/>
</svg>
