<svg width="243" height="168" viewBox="0 0 243 168" fill="none" xmlns="http://www.w3.org/2000/svg">
<rect x="0.5" y="0.5" width="242" height="167" rx="15.5" fill="white"/>
<rect x="0.5" y="0.5" width="242" height="167" rx="15.5" stroke="#9DA8B9"/>
<g clip-path="url(#clip0_514_9179)">
<path fill-rule="evenodd" clip-rule="evenodd" d="M57.1751 111.026L59.484 112.306C58.9671 114.26 57.9189 115.774 56.3442 116.852C54.7696 117.926 52.9582 118.462 50.9053 118.462C48.2196 118.462 46.0653 117.6 44.4375 115.87C42.8145 114.141 42.0078 112.004 42.0078 109.46C42.0078 106.667 42.8193 104.444 44.452 102.795C46.0846 101.142 48.2148 100.314 50.8425 100.314C53.1611 100.314 55.1173 100.941 56.6969 102.201V100.596H58.9913V106.245H56.6969C56.1848 105.1 55.3975 104.214 54.3348 103.586C53.2722 102.958 52.1563 102.642 50.9777 102.642C49.2098 102.642 47.7607 103.279 46.6256 104.539C45.4905 105.804 44.9253 107.4 44.9253 109.33C44.9253 111.314 45.5291 112.929 46.7512 114.189C47.9636 115.444 49.4031 116.076 51.0744 116.076C52.4413 116.076 53.6876 115.64 54.8082 114.768C55.9288 113.892 56.721 112.651 57.1799 111.031L57.1751 111.026ZM107.241 41.0476H131.924V53.217L135.692 56.954L142.764 49.9399L139.03 46.2363V34.0046H100.141V86.4816H139.03V74.2499L142.764 70.5464L135.692 63.5322L131.924 67.2693V79.4387H107.241V41.0524V41.0476ZM129.079 54.9226L127.36 53.1978L120.192 60.327L115.55 55.6748L113.825 57.39L118.467 62.0422L120.187 63.767L129.084 54.9178L129.079 54.9226ZM189.961 116.048V102.728H187.729V100.591H192.381V107.342C193.835 106.183 195.221 105.598 196.53 105.598C197.347 105.598 198.013 105.766 198.54 106.101C199.071 106.441 199.428 106.882 199.617 107.433C199.81 107.984 199.907 108.794 199.907 109.853V116.038H202.008V118.175H197.482V110.691C197.482 109.766 197.453 109.144 197.395 108.832C197.332 108.521 197.168 108.262 196.902 108.061C196.632 107.86 196.318 107.759 195.951 107.759C195.013 107.759 193.82 108.286 192.376 109.34V116.043H194.521V118.18H187.725V116.043H189.956L189.961 116.048ZM173.311 121.533V108.08H171.229V105.943H175.731V107.864C176.943 106.456 178.402 105.756 180.117 105.756C181.851 105.756 183.285 106.346 184.421 107.524C185.556 108.708 186.121 110.241 186.121 112.128C186.121 114.112 185.503 115.674 184.271 116.819C183.039 117.964 181.638 118.539 180.064 118.539C178.431 118.539 176.987 117.911 175.731 116.666V121.533H178.127V123.67H171.05V121.533H173.306H173.311ZM175.692 112.239C175.692 112.914 175.837 113.561 176.117 114.174C176.397 114.792 176.842 115.305 177.455 115.727C178.064 116.143 178.784 116.354 179.61 116.354C180.764 116.354 181.72 115.971 182.474 115.204C183.223 114.438 183.599 113.384 183.599 112.037C183.599 110.729 183.203 109.709 182.421 108.976C181.633 108.243 180.74 107.874 179.735 107.874C178.663 107.874 177.726 108.276 176.909 109.072C176.103 109.872 175.692 110.926 175.692 112.239ZM170.538 116.048V118.184H166.307V116.69C165.133 117.82 163.819 118.386 162.375 118.386C161.259 118.386 160.279 118.022 159.453 117.298C158.627 116.575 158.206 115.645 158.206 114.514C158.206 113.379 158.646 112.435 159.53 111.683C160.409 110.931 161.467 110.557 162.713 110.557C163.867 110.557 164.983 110.902 166.065 111.597V110.38C166.065 109.757 166.007 109.278 165.887 108.938C165.766 108.602 165.49 108.3 165.051 108.027C164.616 107.759 164.041 107.625 163.336 107.625C162.119 107.625 161.24 108.104 160.699 109.067L158.375 108.458C159.404 106.556 161.182 105.603 163.708 105.603C164.636 105.603 165.437 105.728 166.109 105.972C166.785 106.221 167.287 106.542 167.625 106.935C167.959 107.328 168.181 107.749 168.292 108.205C168.408 108.664 168.466 109.388 168.466 110.38V116.048H170.543H170.538ZM166.065 113.628C165.022 112.823 163.964 112.416 162.892 112.416C162.216 112.416 161.655 112.612 161.206 113C160.752 113.389 160.53 113.887 160.53 114.5C160.53 115.075 160.728 115.559 161.119 115.942C161.515 116.33 162.051 116.527 162.728 116.527C163.901 116.527 165.012 116.038 166.056 115.061V113.633L166.065 113.628ZM149.831 116.048V108.08H147.348V105.943H151.768V108.703C152.043 107.984 152.42 107.39 152.903 106.921C153.39 106.446 153.898 106.135 154.439 105.986C154.98 105.833 155.719 105.756 156.656 105.756H157.293V108.185H156.81C155.574 108.185 154.656 108.305 154.047 108.554C153.444 108.794 152.99 109.239 152.7 109.886C152.405 110.528 152.26 111.688 152.26 113.355V116.048H154.951V118.184H147.353V116.048H149.835H149.831ZM146.478 105.943V108.08H144.261V117.197C144.261 118.434 144.194 119.344 144.068 119.938C143.942 120.532 143.633 121.136 143.145 121.759C142.653 122.377 141.923 122.899 140.943 123.316C139.967 123.737 138.875 123.953 137.668 123.953C135.847 123.953 134.224 123.407 132.799 122.319L134.378 120.575C135.451 121.399 136.615 121.816 137.871 121.816C138.566 121.816 139.213 121.682 139.808 121.418C140.407 121.15 140.851 120.824 141.146 120.446C141.435 120.072 141.624 119.708 141.711 119.368C141.793 119.028 141.836 118.453 141.836 117.643V116.531C141.455 117.015 140.856 117.466 140.039 117.902C139.223 118.328 138.334 118.544 137.363 118.544C135.596 118.544 134.156 117.935 133.04 116.723C131.924 115.511 131.369 114.016 131.369 112.248C131.369 110.308 131.982 108.741 133.209 107.553C134.441 106.36 135.861 105.761 137.475 105.761C139.107 105.761 140.561 106.408 141.836 107.697V105.953H146.478V105.943ZM133.944 112.191C133.944 113.432 134.306 114.443 135.03 115.228C135.755 116.014 136.687 116.407 137.817 116.407C138.924 116.407 139.875 116.014 140.677 115.224C141.474 114.433 141.875 113.422 141.875 112.181C141.875 110.926 141.474 109.915 140.677 109.153C139.875 108.387 138.948 108.008 137.895 108.008C136.842 108.008 135.919 108.382 135.127 109.139C134.34 109.896 133.944 110.907 133.944 112.191ZM116.477 112.066C116.477 110.178 117.105 108.631 118.361 107.414C119.617 106.207 121.153 105.603 122.964 105.603C124.737 105.603 126.268 106.197 127.539 107.395C128.814 108.588 129.451 110.145 129.451 112.066C129.451 113.987 128.819 115.549 127.548 116.747C126.278 117.945 124.751 118.544 122.964 118.544C121.129 118.544 119.588 117.935 118.342 116.723C117.095 115.511 116.477 113.959 116.477 112.071V112.066ZM119.037 112.066C119.037 113.269 119.419 114.26 120.182 115.032C120.94 115.803 121.873 116.187 122.969 116.187C124.085 116.187 125.012 115.798 125.766 115.017C126.519 114.237 126.891 113.254 126.891 112.066C126.891 110.868 126.51 109.881 125.742 109.105C124.978 108.334 124.051 107.946 122.964 107.946C121.824 107.946 120.882 108.343 120.143 109.134C119.404 109.929 119.032 110.907 119.032 112.071L119.037 112.066ZM105.807 105.943V107.424C107.362 106.312 108.778 105.751 110.062 105.751C110.864 105.751 111.526 105.938 112.048 106.312C112.569 106.686 112.912 107.15 113.077 107.692C113.236 108.238 113.318 109.033 113.318 110.073V116.043H115.4V118.18H110.898V110.174C110.898 109.249 110.758 108.645 110.478 108.358C110.198 108.075 109.855 107.936 109.444 107.936C108.372 107.936 107.159 108.454 105.812 109.489V116.043H107.942V118.18H101.223V116.043H103.387V108.075H101.223V105.938H105.812L105.807 105.943ZM86.5435 112.066C86.5435 110.178 87.1714 108.631 88.4273 107.414C89.688 106.207 91.2193 105.603 93.0306 105.603C94.8034 105.603 96.3346 106.197 97.605 107.395C98.8802 108.588 99.5178 110.145 99.5178 112.066C99.5178 113.987 98.885 115.549 97.6098 116.747C96.3394 117.945 94.813 118.544 93.0258 118.544C91.1854 118.544 89.6494 117.935 88.4032 116.723C87.1569 115.511 86.5338 113.959 86.5338 112.071L86.5435 112.066ZM89.1036 112.066C89.1036 113.269 89.4852 114.26 90.2484 115.032C91.0067 115.803 91.939 116.187 93.0355 116.187C94.1513 116.187 95.0787 115.798 95.8322 115.017C96.5858 114.237 96.9577 113.254 96.9577 112.066C96.9577 110.868 96.5761 109.881 95.8081 109.105C95.0449 108.334 94.1175 107.946 93.0306 107.946C91.8907 107.946 90.9488 108.343 90.2097 109.134C89.4707 109.929 89.0987 110.907 89.0987 112.071L89.1036 112.066ZM78.7618 116.052V108.085H76.279V105.948H80.6988V108.708C80.9741 107.989 81.3509 107.395 81.8339 106.925C82.3218 106.451 82.829 106.14 83.37 105.991C83.911 105.838 84.65 105.761 85.5871 105.761H86.2199V108.19H85.7368C84.5003 108.19 83.5825 108.31 82.9739 108.559C82.3701 108.799 81.916 109.244 81.6262 109.891C81.3316 110.533 81.1867 111.692 81.1867 113.36V116.052H83.8772V118.189H76.279V116.052H78.7618ZM63.5028 116.052V102.733H61.2712V100.596H65.9228V107.347C67.3767 106.187 68.7582 105.603 70.0721 105.603C70.8836 105.603 71.555 105.771 72.0815 106.106C72.6128 106.446 72.9703 106.887 73.1586 107.438C73.347 107.989 73.4436 108.799 73.4436 109.857V116.043H75.5448V118.18H71.0188V110.696C71.0188 109.771 70.9898 109.148 70.9319 108.837C70.8739 108.526 70.7048 108.267 70.4392 108.066C70.1687 107.864 69.8547 107.764 69.4876 107.764C68.5553 107.764 67.3622 108.291 65.918 109.345V116.048H68.0626V118.184H61.2664V116.048H63.498L63.5028 116.052Z" fill="black"/>
<path d="M55.8024 132.352L54.4258 128.289H55.2131L55.928 130.637L56.1937 131.509C56.2033 131.465 56.2855 131.183 56.4255 130.67L57.1404 128.289H57.9229L58.5992 130.646L58.8262 131.422L59.0822 130.637L59.8551 128.289H60.5989L59.1885 132.352H58.3963L57.6814 129.918L57.5075 129.223L56.5994 132.352H55.8024ZM67.8686 131.849C67.5884 132.064 67.3131 132.218 67.0523 132.309C66.7914 132.4 66.5113 132.443 66.2118 132.443C65.7143 132.443 65.3375 132.333 65.0718 132.117C64.8062 131.897 64.6758 131.619 64.6758 131.283C64.6758 131.082 64.7241 130.9 64.8255 130.737C64.9269 130.574 65.0573 130.44 65.2167 130.344C65.381 130.244 65.5645 130.167 65.7674 130.119C65.9171 130.086 66.1442 130.047 66.4437 130.014C67.0619 129.947 67.516 129.87 67.8058 129.774C67.8106 129.678 67.8106 129.621 67.8106 129.597C67.8106 129.314 67.7382 129.118 67.5933 129.003C67.4001 128.845 67.1102 128.768 66.7238 128.768C66.3664 128.768 66.1007 128.826 65.9268 128.941C65.7577 129.056 65.6322 129.257 65.55 129.544L64.8062 129.448C64.8738 129.161 64.9849 128.926 65.1395 128.749C65.294 128.572 65.5211 128.433 65.8157 128.342C66.1104 128.246 66.4485 128.198 66.8349 128.198C67.2213 128.198 67.5305 128.241 67.772 128.322C68.0135 128.404 68.1874 128.505 68.3033 128.629C68.4144 128.754 68.4965 128.912 68.54 129.099C68.5642 129.218 68.5787 129.429 68.5787 129.736V130.656C68.5787 131.298 68.5932 131.7 68.627 131.868C68.6608 132.04 68.7236 132.203 68.8202 132.357H68.0232C67.9459 132.213 67.8928 132.05 67.8686 131.854V131.849ZM67.8058 130.311C67.5256 130.416 67.1151 130.502 66.5596 130.574C66.2456 130.613 66.0234 130.661 65.893 130.713C65.7626 130.766 65.6611 130.838 65.5935 130.938C65.5211 131.034 65.4872 131.144 65.4872 131.264C65.4872 131.446 65.5645 131.6 65.7191 131.724C65.8737 131.844 66.1007 131.906 66.3953 131.906C66.69 131.906 66.9508 131.849 67.1827 131.734C67.4097 131.619 67.5788 131.461 67.685 131.259C67.7672 131.101 67.8106 130.871 67.8106 130.57V130.316L67.8058 130.311ZM75.1141 131.734L75.2252 132.342C75.0127 132.381 74.8195 132.405 74.6504 132.405C74.3751 132.405 74.1577 132.366 74.0031 132.285C73.8486 132.208 73.7423 132.103 73.6795 131.973C73.6167 131.844 73.5877 131.576 73.5877 131.159V128.821H73.0274V128.284H73.5877V127.278L74.3461 126.866V128.284H75.1141V128.821H74.3461V131.197C74.3461 131.394 74.3606 131.518 74.3847 131.576C74.4137 131.633 74.4572 131.676 74.5151 131.71C74.5731 131.743 74.6601 131.758 74.776 131.758C74.8629 131.758 74.974 131.748 75.1093 131.729L75.1141 131.734ZM82.49 130.862L83.2387 130.948C83.1566 131.413 82.9489 131.782 82.6108 132.045C82.2727 132.309 81.8573 132.438 81.3646 132.438C80.7511 132.438 80.2536 132.256 79.8768 131.892C79.5 131.528 79.3117 131.006 79.3117 130.33C79.3117 129.889 79.3938 129.506 79.5532 129.175C79.7126 128.845 79.9589 128.6 80.2874 128.433C80.6159 128.27 80.9733 128.188 81.3597 128.188C81.8524 128.188 82.2485 128.299 82.5625 128.524C82.8716 128.749 83.0745 129.065 83.1614 129.472L82.4176 129.578C82.3451 129.305 82.2195 129.099 82.0408 128.96C81.8621 128.821 81.6447 128.754 81.3887 128.754C81.0023 128.754 80.6931 128.878 80.4516 129.127C80.2101 129.377 80.0893 129.769 80.0893 130.306C80.0893 130.852 80.2053 131.25 80.4371 131.499C80.669 131.743 80.9685 131.868 81.3452 131.868C81.6447 131.868 81.8911 131.786 82.0939 131.619C82.2968 131.451 82.4224 131.197 82.4755 130.852L82.49 130.862ZM87.5812 132.352V126.741H88.3444V128.754C88.7018 128.38 89.1511 128.193 89.6969 128.193C90.0302 128.193 90.32 128.251 90.5663 128.37C90.8127 128.485 90.9914 128.653 91.0928 128.864C91.1991 129.075 91.2523 129.377 91.2523 129.774V132.352H90.4891V129.774C90.4891 129.429 90.4069 129.18 90.2427 129.022C90.0785 128.864 89.8466 128.787 89.5423 128.787C89.3153 128.787 89.1028 128.84 88.9047 128.945C88.7067 129.051 88.5618 129.194 88.4796 129.377C88.3927 129.559 88.354 129.808 88.354 130.124V132.347H87.5909L87.5812 132.352ZM99.1837 131.044L99.971 131.135C99.8454 131.552 99.6136 131.873 99.2803 132.103C98.9421 132.333 98.5122 132.448 97.9906 132.448C97.3336 132.448 96.812 132.266 96.4255 131.897C96.0391 131.533 95.8459 131.02 95.8459 130.359C95.8459 129.674 96.0439 129.142 96.4304 128.763C96.8216 128.385 97.324 128.198 97.9471 128.198C98.5509 128.198 99.0387 128.385 99.4203 128.754C99.8019 129.123 99.9952 129.645 99.9952 130.316C99.9952 130.359 99.9952 130.421 99.9903 130.502H96.6332C96.6622 130.948 96.8023 131.293 97.0535 131.528C97.3047 131.767 97.6186 131.882 97.9954 131.882C98.2756 131.882 98.5122 131.815 98.7103 131.681C98.9083 131.552 99.0677 131.336 99.1788 131.044H99.1837ZM96.6767 129.932H99.1933C99.1595 129.592 99.0629 129.333 98.9035 129.166C98.662 128.902 98.3432 128.768 97.9568 128.768C97.6041 128.768 97.3095 128.873 97.0728 129.084C96.8313 129.295 96.7009 129.578 96.6767 129.932ZM104.313 131.14L105.067 131.034C105.11 131.307 105.226 131.518 105.424 131.662C105.618 131.806 105.888 131.877 106.236 131.877C106.584 131.877 106.845 131.81 107.014 131.686C107.183 131.556 107.27 131.408 107.27 131.235C107.27 131.077 107.192 130.958 107.043 130.867C106.941 130.804 106.68 130.728 106.265 130.637C105.705 130.507 105.318 130.397 105.101 130.306C104.883 130.215 104.719 130.086 104.608 129.918C104.497 129.755 104.439 129.573 104.439 129.372C104.439 129.19 104.487 129.022 104.579 128.869C104.671 128.715 104.797 128.586 104.956 128.481C105.077 128.404 105.236 128.337 105.439 128.279C105.642 128.227 105.864 128.198 106.101 128.198C106.453 128.198 106.762 128.246 107.033 128.337C107.299 128.428 107.497 128.552 107.627 128.711C107.753 128.869 107.84 129.079 107.888 129.338L107.144 129.429C107.11 129.218 107.009 129.056 106.849 128.941C106.69 128.826 106.458 128.763 106.159 128.763C105.806 128.763 105.56 128.816 105.41 128.921C105.26 129.027 105.183 129.147 105.183 129.285C105.183 129.377 105.217 129.453 105.28 129.525C105.342 129.602 105.439 129.659 105.569 129.712C105.647 129.736 105.869 129.793 106.246 129.884C106.787 130.014 107.163 130.119 107.376 130.205C107.588 130.287 107.758 130.411 107.878 130.57C107.999 130.728 108.062 130.924 108.062 131.159C108.062 131.389 107.985 131.604 107.84 131.81C107.69 132.012 107.477 132.17 107.197 132.28C106.917 132.39 106.603 132.448 106.246 132.448C105.661 132.448 105.212 132.337 104.908 132.117C104.598 131.897 104.405 131.571 104.323 131.14H104.313ZM118.616 131.691C118.365 131.945 118.09 132.136 117.79 132.261C117.495 132.385 117.172 132.452 116.829 132.452C116.196 132.452 115.689 132.261 115.317 131.873C115.013 131.556 114.863 131.202 114.863 130.814C114.863 130.469 114.989 130.153 115.235 129.875C115.481 129.597 115.853 129.348 116.341 129.137C116.061 128.85 115.877 128.61 115.781 128.428C115.689 128.246 115.641 128.073 115.641 127.906C115.641 127.565 115.786 127.278 116.08 127.024C116.375 126.775 116.742 126.65 117.186 126.65C117.611 126.65 117.959 126.77 118.23 127C118.495 127.235 118.635 127.518 118.635 127.848C118.635 128.38 118.244 128.84 117.462 129.214L118.577 130.498C118.703 130.272 118.804 130.014 118.872 129.717L119.664 129.87C119.529 130.359 119.345 130.761 119.114 131.077C119.399 131.422 119.722 131.705 120.085 131.94L119.573 132.486C119.263 132.309 118.945 132.045 118.616 131.695V131.691ZM117.061 128.768C117.394 128.591 117.607 128.437 117.703 128.303C117.8 128.174 117.848 128.025 117.848 127.863C117.848 127.671 117.78 127.518 117.65 127.398C117.515 127.278 117.346 127.216 117.148 127.216C116.94 127.216 116.771 127.278 116.636 127.398C116.496 127.518 116.428 127.666 116.428 127.839C116.428 127.925 116.452 128.016 116.5 128.112C116.549 128.208 116.626 128.308 116.723 128.414L117.061 128.768ZM118.133 131.149L116.732 129.587C116.322 129.808 116.042 130.014 115.897 130.205C115.752 130.397 115.679 130.584 115.679 130.771C115.679 130.996 115.781 131.235 115.979 131.48C116.182 131.724 116.462 131.844 116.834 131.844C117.061 131.844 117.302 131.782 117.544 131.652C117.79 131.523 117.983 131.36 118.133 131.154V131.149ZM126.948 126.746H127.712V127.546H126.948V126.746ZM125.982 133.933L126.127 133.348C126.282 133.382 126.403 133.401 126.49 133.401C126.644 133.401 126.76 133.353 126.837 133.262C126.915 133.171 126.953 132.936 126.953 132.563V128.294H127.716V132.577C127.716 133.08 127.644 133.425 127.499 133.621C127.316 133.875 127.011 134.005 126.581 134.005C126.374 134.005 126.176 133.981 125.982 133.933ZM135.653 131.049L136.44 131.14C136.314 131.556 136.087 131.877 135.749 132.107C135.411 132.337 134.981 132.452 134.46 132.452C133.803 132.452 133.276 132.27 132.895 131.901C132.508 131.537 132.315 131.025 132.315 130.363C132.315 129.678 132.513 129.147 132.899 128.768C133.291 128.39 133.793 128.203 134.416 128.203C135.02 128.203 135.513 128.39 135.889 128.758C136.271 129.127 136.464 129.65 136.464 130.32C136.464 130.363 136.459 130.426 136.459 130.507H133.102C133.131 130.953 133.271 131.298 133.523 131.533C133.774 131.772 134.088 131.887 134.464 131.887C134.745 131.887 134.981 131.82 135.179 131.686C135.377 131.556 135.532 131.341 135.648 131.049H135.653ZM133.146 129.937H135.658C135.624 129.597 135.527 129.338 135.368 129.171C135.126 128.907 134.807 128.773 134.426 128.773C134.073 128.773 133.779 128.878 133.542 129.089C133.3 129.3 133.17 129.583 133.146 129.937ZM141.918 132.361L140.536 128.299H141.328L142.043 130.646L142.309 131.518C142.319 131.475 142.401 131.192 142.541 130.68L143.256 128.299H144.038L144.714 130.656L144.941 131.432L145.197 130.646L145.965 128.299H146.709L145.304 132.361H144.512L143.797 129.928L143.623 129.233L142.71 132.361H141.913H141.918ZM154.129 131.053L154.916 131.144C154.79 131.561 154.559 131.882 154.225 132.112C153.887 132.342 153.457 132.457 152.936 132.457C152.279 132.457 151.757 132.275 151.371 131.906C150.984 131.542 150.791 131.029 150.791 130.368C150.791 129.683 150.989 129.151 151.375 128.773C151.767 128.394 152.274 128.208 152.892 128.208C153.496 128.208 153.984 128.394 154.365 128.763C154.747 129.132 154.94 129.654 154.94 130.325C154.94 130.368 154.94 130.431 154.935 130.512H151.578C151.602 130.958 151.747 131.303 151.999 131.537C152.25 131.777 152.564 131.892 152.94 131.892C153.221 131.892 153.457 131.825 153.655 131.691C153.853 131.561 154.008 131.346 154.124 131.053H154.129ZM151.622 129.942H154.138C154.105 129.602 154.008 129.343 153.849 129.175C153.607 128.912 153.288 128.778 152.902 128.778C152.549 128.778 152.255 128.883 152.018 129.094C151.776 129.305 151.646 129.587 151.622 129.942ZM159.548 126.756H160.312V132.366H159.548V126.756ZM165.166 126.756H165.929V132.366H165.166V126.756ZM173.885 131.058L174.672 131.149C174.547 131.566 174.315 131.887 173.981 132.117C173.643 132.347 173.213 132.462 172.692 132.462C172.035 132.462 171.513 132.28 171.127 131.911C170.74 131.547 170.547 131.034 170.547 130.373C170.547 129.688 170.74 129.156 171.131 128.778C171.523 128.399 172.03 128.212 172.648 128.212C173.252 128.212 173.745 128.399 174.121 128.768C174.503 129.137 174.696 129.659 174.696 130.33C174.696 130.373 174.696 130.435 174.691 130.517H171.334C171.363 130.962 171.503 131.307 171.755 131.542C172.006 131.782 172.32 131.897 172.697 131.897C172.977 131.897 173.213 131.83 173.411 131.695C173.609 131.566 173.764 131.35 173.88 131.058H173.885ZM171.378 129.947H173.89C173.856 129.607 173.759 129.348 173.6 129.18C173.358 128.917 173.039 128.782 172.653 128.782C172.3 128.782 172.006 128.888 171.769 129.099C171.528 129.309 171.397 129.592 171.373 129.947H171.378ZM179.314 132.371V128.308H180V128.921C180.174 128.634 180.338 128.442 180.488 128.351C180.638 128.26 180.797 128.212 180.976 128.212C181.232 128.212 181.497 128.289 181.758 128.433L181.497 129.075C181.314 128.974 181.125 128.926 180.937 128.926C180.768 128.926 180.618 128.974 180.488 129.06C180.353 129.151 180.261 129.276 180.203 129.439C180.116 129.683 180.077 129.951 180.077 130.244V132.371H179.314ZM185.869 133.938L185.782 133.291C185.951 133.329 186.096 133.353 186.221 133.353C186.391 133.353 186.526 133.329 186.627 133.276C186.733 133.224 186.811 133.157 186.878 133.061C186.927 132.994 187.004 132.821 187.11 132.548C187.125 132.51 187.149 132.452 187.178 132.381L185.468 128.308H186.289L187.226 130.661C187.347 130.958 187.458 131.274 187.555 131.604C187.642 131.288 187.748 130.982 187.869 130.68L188.83 128.313H189.593L187.883 132.443C187.7 132.888 187.555 133.195 187.453 133.363C187.318 133.593 187.163 133.756 186.989 133.861C186.811 133.966 186.603 134.019 186.362 134.019C186.217 134.019 186.052 133.99 185.869 133.933V133.938Z" fill="black"/>
</g>
<defs>
<clipPath id="clip0_514_9179">
<rect width="160" height="100" fill="white" transform="translate(42 34)"/>
</clipPath>
</defs>
</svg>
