<svg width="244" height="168" viewBox="0 0 244 168" fill="none" xmlns="http://www.w3.org/2000/svg">
<rect x="1.10156" y="0.5" width="241.6" height="167" rx="15.5" fill="#072F5E"/>
<rect x="1.10156" y="0.5" width="241.6" height="167" rx="15.5" stroke="#9DA8B9"/>
<path fill-rule="evenodd" clip-rule="evenodd" d="M158.593 43.2244H162.079C165.468 43.1279 166.92 46.2235 166.92 48.642V84.9175C167.017 87.5292 165.468 89.9478 162.465 89.9478H158.592V43.2244H158.593ZM162.177 41.8703H148.232V43.2244H151.91V124.772H148.232V126.223H163.918V124.772H158.592V91.5917H163.24C169.826 91.5917 173.602 88.1097 173.602 83.3701V50.7708C173.602 46.0303 170.407 41.8703 162.177 41.8703ZM88.3873 42.9347C88.3873 44.2888 87.6128 44.1922 87.0317 43.7083C84.7074 42.161 81.9962 41 79.4784 41C75.4116 41 69.6983 43.0313 69.6016 51.5436V114.034C69.6983 124.966 74.9281 126.997 80.0595 126.997C84.1263 127.092 86.0639 124.966 87.6128 124.192C88.484 123.901 89.4528 124.675 89.4528 126.32H91.0985V86.5615H94.4875V85.2073H80.3505V86.5615H84.4173V120.71C84.4173 123.515 82.5773 125.644 80.1562 125.644C77.8327 125.644 76.0894 123.418 76.0894 120.71V49.0293C76.0894 47.0938 76.4771 42.5474 79.4784 42.5474C85.2885 42.5474 88.3873 59.5729 88.3873 68.3759H90.033V41.7737H88.3873V42.9347ZM114.049 90.0435L118.115 53.5757L122.28 90.0435H114.049ZM122.472 91.4951L126.25 124.772H122.57V126.223H136.514V124.772H132.836L123.539 41.7737H117.631L108.916 120.129C108.432 122.933 108.239 124.675 104.172 124.772V126.223H114.63V124.772C111.628 124.772 110.272 122.838 110.563 120.902L113.855 91.4951H122.472Z" fill="white"/>
</svg>
