<svg width="243" height="168" viewBox="0 0 243 168" fill="none" xmlns="http://www.w3.org/2000/svg">
<rect x="1" y="0.5" width="241.5" height="167" rx="15.5" fill="#1A1A1A"/>
<rect x="1" y="0.5" width="241.5" height="167" rx="15.5" stroke="#9DA8B9"/>
<path fill-rule="evenodd" clip-rule="evenodd" d="M51.8794 114.739H48.8848C44.0345 98.7489 39.186 82.8805 35.4766 66.4035H41.6107C45.0333 77.8762 49.0259 89.1051 52.0205 100.704L52.8755 99.7269L67.1377 66.4035H69.9913L83.8255 100.824C87.3902 89.3497 91.4584 77.7499 95.45 66.3987C99.319 66.3672 95.6889 66.3987 100.083 66.4027C95.5517 82.6508 90.4153 98.7708 84.6814 114.738H81.6858L67.5666 79.0981L51.8794 114.739ZM179.382 66.4035C180.238 82.3935 179.951 98.9928 179.24 114.739H174.106C173.25 98.9928 172.679 82.2719 173.819 66.4035H179.382ZM179.865 55.8164C179.865 57.9096 177.815 59.613 176.565 59.613C175.316 59.613 173.233 57.9104 173.233 55.8164C173.233 52.8643 175.317 52.0221 176.565 52.0221C177.815 52.0229 179.865 53.0308 179.865 55.8164ZM152.085 52L152.663 77.9228L151.768 114.639H146.322L145.663 77.9228L146.126 52H152.085Z" fill="white"/>
<path d="M152.082 52L152.66 77.9228L151.765 114.639H146.32L145.66 77.9228L146.123 52" fill="white"/>
<path fill-rule="evenodd" clip-rule="evenodd" d="M165.332 52L165.91 77.9228L165.015 114.639H159.568L158.91 77.9228L159.373 52H165.332Z" fill="white"/>
<path d="M165.332 52L165.91 77.9228L165.015 114.639H159.568L158.91 77.9228L159.373 52" fill="white"/>
<path fill-rule="evenodd" clip-rule="evenodd" d="M206.298 67.0238V71.1709C202.592 69.8299 197.459 69.7059 193.894 71.2964C192.326 72.2689 191.614 73.6131 191.324 75.0773C191.041 77.5194 192.896 79.1044 194.323 80.8148C200.311 87.2849 210.58 91.9237 207.443 101.811C205.443 107.059 199.602 111.94 194.178 114.749H186.905C192.751 110.599 202.308 105.228 200.74 97.0511C196.886 88.0173 177.493 80.9364 187.476 69.3405C192.183 64.9464 200.17 66.1682 206.298 67.0238ZM129.752 88.0071C133.886 93.1361 133.602 101.924 130.035 107.295C127.042 111.688 120.765 112.421 115.204 111.688C110.784 111.076 107.786 108.027 105.933 104.853C103.936 98.8697 103.936 90.8147 109.501 86.5429C113.206 83.8584 118.913 83.1259 123.759 84.3462C126.043 85.0779 128.037 86.0551 129.752 88.0071ZM139.02 85.2011C141.874 92.769 141.305 102.776 136.025 109.124C131.177 115.104 121.479 117.06 112.778 115.471C105.647 114.497 99.943 109.492 97.9453 103.508C96.0925 97.04 96.9483 89.5952 102.51 85.0779C107.357 80.9285 114.489 78.8526 121.906 80.0729C124.615 80.683 127.468 81.05 129.752 82.515C126.326 74.7039 114.634 70.9191 104.935 69.8204L105.218 65.9141C119.482 67.012 134.313 72.995 139.02 85.2011Z" fill="white"/>
</svg>
