<svg width="243" height="168" viewBox="0 0 243 168" fill="none" xmlns="http://www.w3.org/2000/svg">
<rect x="0.5" y="0.5" width="241.5" height="167" rx="15.5" fill="#1A1A1A"/>
<rect x="0.5" y="0.5" width="241.5" height="167" rx="15.5" stroke="#9DA8B9"/>
<path fill-rule="evenodd" clip-rule="evenodd" d="M47.6823 99.6058H44.3275V71.9775H37V68.7866H55.0915V71.9775H47.6823V99.6058ZM72.8246 71.4774C79.792 71.4774 85.2661 77.2241 85.2661 84.1944C85.2661 91.1236 79.7112 96.9104 72.8246 96.9104C65.9399 96.9104 60.3832 91.1236 60.3832 84.1944C60.3832 77.2241 65.86 71.4774 72.8246 71.4774ZM72.8246 68.2866C64.17 68.2866 57.0284 75.4329 57.0284 84.2345C57.0284 93.078 64.1709 100.102 72.8246 100.102C81.4811 100.102 88.6227 93.079 88.6227 84.2345C88.6227 75.432 81.4811 68.2866 72.8246 68.2866ZM96.6272 71.9775H97.8826C101.846 71.9775 105.851 72.3434 105.851 77.3646C105.851 81.7754 102.655 82.9169 98.8928 82.9169H96.6263L96.6272 71.9775ZM96.6272 86.1078H99.0957C101.646 86.1078 104.276 85.782 106.334 84.063C108.211 82.4689 109.208 79.9386 109.208 77.4458C109.208 74.7103 108.05 72.0167 105.813 70.4208C103.588 68.8651 100.876 68.7857 98.2454 68.7857H93.2724V99.6058H96.6263L96.6272 86.1078ZM117.441 67L128.46 92.8983L139.522 67L145.675 99.6058H142.216L138.315 78.7406H138.234L128.46 100.875L118.726 78.7406H118.647L114.746 99.6058H111.286L117.441 67ZM165.745 87.6763H155.476L160.671 75.3207L165.745 87.6763ZM167.075 90.8681L170.656 99.6058H174.406L160.752 67.3029L146.738 99.6058H150.444L154.106 90.8681H167.075ZM177.947 67.4727L201.645 92.6574V68.782H205V101L181.302 75.8554V99.6058H177.947V67.4727Z" fill="white"/>
</svg>
