<svg width="64" height="65" viewBox="0 0 64 65" fill="none" xmlns="http://www.w3.org/2000/svg">
<path fill-rule="evenodd" clip-rule="evenodd" d="M31.9997 59.1668C17.2721 59.1668 5.33301 47.2278 5.33301 32.5002C5.33301 17.7726 17.2721 5.8335 31.9997 5.8335C46.7273 5.8335 58.6663 17.7726 58.6663 32.5002C58.6663 47.2278 46.7273 59.1668 31.9997 59.1668ZM30.7472 23.0859C29.9662 22.3049 28.6998 22.3049 27.9188 23.0859L19.9188 31.0859C19.1377 31.867 19.1377 33.1333 19.9188 33.9144L27.9188 41.9144C28.6998 42.6954 29.9662 42.6954 30.7472 41.9144C31.5283 41.1333 31.5283 39.867 30.7472 39.0859L26.1614 34.5002H42.6663C43.7709 34.5002 44.6663 33.6047 44.6663 32.5002C44.6663 31.3956 43.7709 30.5002 42.6663 30.5002H26.1614L30.7472 25.9144C31.5283 25.1333 31.5283 23.867 30.7472 23.0859Z" fill="white"/>
</svg>
