<svg width="64" height="65" viewBox="0 0 64 65" fill="none" xmlns="http://www.w3.org/2000/svg">
<path fill-rule="evenodd" clip-rule="evenodd" d="M31.9997 59.1668C46.7273 59.1668 58.6663 47.2278 58.6663 32.5002C58.6663 17.7726 46.7273 5.8335 31.9997 5.8335C17.2721 5.8335 5.33301 17.7726 5.33301 32.5002C5.33301 47.2278 17.2721 59.1668 31.9997 59.1668ZM33.2521 23.0859C34.0332 22.3049 35.2995 22.3049 36.0806 23.0859L44.0806 31.0859C44.8616 31.867 44.8616 33.1333 44.0806 33.9144L36.0806 41.9144C35.2995 42.6954 34.0332 42.6954 33.2521 41.9144C32.4711 41.1333 32.4711 39.867 33.2521 39.0859L37.8379 34.5002H21.333C20.2284 34.5002 19.333 33.6047 19.333 32.5002C19.333 31.3956 20.2284 30.5002 21.333 30.5002H37.8379L33.2521 25.9144C32.4711 25.1333 32.4711 23.867 33.2521 23.0859Z" fill="white"/>
</svg>
