<svg width="40" height="40" viewBox="0 0 40 40" fill="none" xmlns="http://www.w3.org/2000/svg">
<path d="M16.2497 20.0002C16.2497 22.0712 17.9286 23.7502 19.9997 23.7502C22.0707 23.7502 23.7497 22.0712 23.7497 20.0002C23.7497 17.9291 22.0707 16.2502 19.9997 16.2502C17.9286 16.2502 16.2497 17.9291 16.2497 20.0002Z" fill="white"/>
<path fill-rule="evenodd" clip-rule="evenodd" d="M6.29587 30.5433C7.97736 31.6668 10.3181 31.6668 14.9997 31.6668H24.9997C29.6812 31.6668 32.022 31.6668 33.7035 30.5433C34.4314 30.0569 35.0564 29.4319 35.5428 28.704C36.6663 27.0225 36.6663 24.6817 36.6663 20.0002C36.6663 15.3186 36.6663 12.9779 35.5428 11.2964C35.0564 10.5684 34.4314 9.94342 33.7035 9.45703C32.022 8.3335 29.6812 8.3335 24.9997 8.3335H14.9997C10.3181 8.3335 7.97736 8.3335 6.29587 9.45703C5.56794 9.94342 4.94293 10.5684 4.45654 11.2964C3.33301 12.9779 3.33301 15.3186 3.33301 20.0002C3.33301 24.6817 3.33301 27.0225 4.45654 28.704C4.94293 29.4319 5.56794 30.0569 6.29587 30.5433ZM19.9997 26.2502C16.5479 26.2502 13.7497 23.4519 13.7497 20.0002C13.7497 16.5484 16.5479 13.7502 19.9997 13.7502C23.4515 13.7502 26.2497 16.5484 26.2497 20.0002C26.2497 23.4519 23.4515 26.2502 19.9997 26.2502ZM9.16634 26.2502C8.47599 26.2502 7.91634 25.6905 7.91634 25.0002L7.91634 15.0002C7.91634 14.3098 8.47599 13.7502 9.16634 13.7502C9.8567 13.7502 10.4163 14.3098 10.4163 15.0002L10.4163 25.0002C10.4163 25.6905 9.8567 26.2502 9.16634 26.2502ZM29.583 25.0002C29.583 25.6905 30.1427 26.2502 30.833 26.2502C31.5234 26.2502 32.083 25.6905 32.083 25.0002V15.0002C32.083 14.3098 31.5234 13.7502 30.833 13.7502C30.1427 13.7502 29.583 14.3098 29.583 15.0002V25.0002Z" fill="white"/>
</svg>
