<svg width="40" height="40" viewBox="0 0 40 40" fill="none" xmlns="http://www.w3.org/2000/svg">
<path d="M3.33301 26.9056V8.32934C3.33301 6.49906 4.81018 5.01221 6.63701 5.12449C8.2643 5.2245 10.1888 5.42219 11.6663 5.81208C13.415 6.27352 15.4932 7.25636 17.1368 8.12544C17.6485 8.39604 18.1927 8.58375 18.7497 8.68957L18.7497 33.9873C18.2448 33.876 17.7522 33.6964 17.287 33.4484C15.6212 32.5604 13.4688 31.5309 11.6663 31.0553C10.2052 30.6697 8.30681 30.4721 6.69111 30.371C4.84308 30.2555 3.33301 28.7573 3.33301 26.9056Z" fill="white"/>
<path d="M21.2497 33.9873C21.7546 33.876 22.2472 33.6964 22.7123 33.4484C24.3781 32.5604 26.5306 31.5309 28.333 31.0553C29.7942 30.6697 31.6925 30.4721 33.3082 30.371C35.1563 30.2555 36.6663 28.7573 36.6663 26.9056V8.22166C36.6663 6.43425 35.256 4.96703 33.4696 5.02925C31.5887 5.09477 29.2445 5.28972 27.4997 5.81208C25.987 6.26495 24.2252 7.17331 22.7894 8.00426C22.3036 8.28542 21.7844 8.49192 21.2497 8.62286L21.2497 33.9873Z" fill="white"/>
</svg>
