<svg width="40" height="40" viewBox="0 0 40 40" fill="none" xmlns="http://www.w3.org/2000/svg">
<path fill-rule="evenodd" clip-rule="evenodd" d="M20 36.6673C12.9289 36.6673 9.3934 36.6673 7.1967 34.2265C5 31.7858 5 27.8574 5 20.0007C5 12.1439 5 8.21554 7.1967 5.77476C9.3934 3.33398 12.9289 3.33398 20 3.33398C27.0711 3.33398 30.6066 3.33398 32.8033 5.77476C35 8.21554 35 12.1439 35 20.0007C35 27.8574 35 31.7858 32.8033 34.2265C30.6066 36.6673 27.0711 36.6673 20 36.6673ZM11.6667 13.334C11.6667 12.559 11.6667 12.1715 11.7519 11.8536C11.983 10.9909 12.6569 10.317 13.5196 10.0858C13.8375 10.0007 14.225 10.0007 15 10.0007H25C25.775 10.0007 26.1625 10.0007 26.4804 10.0858C27.3431 10.317 28.017 10.9909 28.2481 11.8536C28.3333 12.1715 28.3333 12.559 28.3333 13.334C28.3333 14.109 28.3333 14.4964 28.2481 14.8144C28.017 15.6771 27.3431 16.351 26.4804 16.5821C26.1625 16.6673 25.775 16.6673 25 16.6673H15C14.225 16.6673 13.8375 16.6673 13.5196 16.5821C12.6569 16.351 11.983 15.6771 11.7519 14.8144C11.6667 14.4964 11.6667 14.109 11.6667 13.334ZM12.7083 24.1673C12.133 24.1673 11.6667 24.5404 11.6667 25.0007V26.6673C11.6667 27.1276 12.133 27.5007 12.7083 27.5007H14.7917C15.367 27.5007 15.8333 27.1276 15.8333 26.6673V25.0007C15.8333 24.5404 15.367 24.1673 14.7917 24.1673H12.7083ZM11.6667 20.0007C11.6667 19.5404 12.133 19.1673 12.7083 19.1673H14.7917C15.367 19.1673 15.8333 19.5404 15.8333 20.0007V21.6673C15.8333 22.1276 15.367 22.5007 14.7917 22.5007H12.7083C12.133 22.5007 11.6667 22.1276 11.6667 21.6673V20.0007ZM18.9583 24.1673C18.383 24.1673 17.9167 24.5404 17.9167 25.0007V26.6673C17.9167 27.1276 18.383 27.5007 18.9583 27.5007H21.0417C21.617 27.5007 22.0833 27.1276 22.0833 26.6673V25.0007C22.0833 24.5404 21.617 24.1673 21.0417 24.1673H18.9583ZM17.9167 20.0007C17.9167 19.5404 18.383 19.1673 18.9583 19.1673H21.0417C21.617 19.1673 22.0833 19.5404 22.0833 20.0007V21.6673C22.0833 22.1276 21.617 22.5007 21.0417 22.5007H18.9583C18.383 22.5007 17.9167 22.1276 17.9167 21.6673V20.0007ZM25.2083 24.1673C24.633 24.1673 24.1667 24.5404 24.1667 25.0007V26.6673C24.1667 27.1276 24.633 27.5007 25.2083 27.5007H27.2917C27.867 27.5007 28.3333 27.1276 28.3333 26.6673V25.0007C28.3333 24.5404 27.867 24.1673 27.2917 24.1673H25.2083ZM24.1667 20.0007C24.1667 19.5404 24.633 19.1673 25.2083 19.1673H27.2917C27.867 19.1673 28.3333 19.5404 28.3333 20.0007V21.6673C28.3333 22.1276 27.867 22.5007 27.2917 22.5007H25.2083C24.633 22.5007 24.1667 22.1276 24.1667 21.6673V20.0007ZM25.2083 29.1673C24.633 29.1673 24.1667 29.5404 24.1667 30.0007V31.6673C24.1667 32.1276 24.633 32.5007 25.2083 32.5007H27.2917C27.867 32.5007 28.3333 32.1276 28.3333 31.6673V30.0007C28.3333 29.5404 27.867 29.1673 27.2917 29.1673H25.2083ZM17.9167 30.0007C17.9167 29.5404 18.383 29.1673 18.9583 29.1673H21.0417C21.617 29.1673 22.0833 29.5404 22.0833 30.0007V31.6673C22.0833 32.1276 21.617 32.5007 21.0417 32.5007H18.9583C18.383 32.5007 17.9167 32.1276 17.9167 31.6673V30.0007ZM12.7083 29.1673C12.133 29.1673 11.6667 29.5404 11.6667 30.0007V31.6673C11.6667 32.1276 12.133 32.5007 12.7083 32.5007H14.7917C15.367 32.5007 15.8333 32.1276 15.8333 31.6673V30.0007C15.8333 29.5404 15.367 29.1673 14.7917 29.1673H12.7083Z" fill="white"/>
</svg>
