<svg width="40" height="40" viewBox="0 0 40 40" fill="none" xmlns="http://www.w3.org/2000/svg">
<path d="M33.3337 22.9163C33.3337 22.226 32.774 21.6663 32.0837 21.6663H27.0837C26.3933 21.6663 25.8337 22.226 25.8337 22.9163V34.1663H23.3337V7.08301C23.3337 5.86916 23.331 5.08452 23.2533 4.50639C23.1804 3.96421 23.0627 3.79428 22.9675 3.69912C22.8724 3.60397 22.7025 3.48628 22.1603 3.41339C21.5821 3.33566 20.7975 3.33301 19.5837 3.33301C18.3698 3.33301 17.5852 3.33566 17.007 3.41339C16.4649 3.48628 16.2949 3.60397 16.1998 3.69912C16.1046 3.79428 15.9869 3.96421 15.914 4.50639C15.8363 5.08452 15.8337 5.86916 15.8337 7.08301V34.1663H13.3337V14.583C13.3337 13.8927 12.774 13.333 12.0837 13.333H7.08366C6.3933 13.333 5.83366 13.8927 5.83366 14.583V34.1663H3.33366H2.91699C2.22664 34.1663 1.66699 34.726 1.66699 35.4163C1.66699 36.1067 2.22664 36.6663 2.91699 36.6663H36.2503C36.9407 36.6663 37.5003 36.1067 37.5003 35.4163C37.5003 34.726 36.9407 34.1663 36.2503 34.1663H35.8337H33.3337V22.9163Z" fill="white"/>
</svg>
