<svg width="40" height="40" viewBox="0 0 40 40" fill="none" xmlns="http://www.w3.org/2000/svg">
<path fill-rule="evenodd" clip-rule="evenodd" d="M5.77378 5.77427C3.33301 8.21505 3.33301 12.1434 3.33301 20.0002C3.33301 27.8569 3.33301 31.7853 5.77378 34.2261C8.21456 36.6668 12.1429 36.6668 19.9997 36.6668C27.8564 36.6668 31.7848 36.6668 34.2256 34.2261C36.6663 31.7853 36.6663 27.8569 36.6663 20.0002C36.6663 12.1434 36.6663 8.21505 34.2256 5.77427C31.7848 3.3335 27.8564 3.3335 19.9997 3.3335C12.1429 3.3335 8.21456 3.3335 5.77378 5.77427ZM17.5715 12.5289C18.0476 12.029 18.0283 11.2378 17.5284 10.7617C17.0285 10.2856 16.2373 10.3048 15.7612 10.8048L11.9044 14.8543L10.9048 13.8048C10.4287 13.3048 9.63752 13.2856 9.13761 13.7617C8.63769 14.2378 8.6184 15.029 9.0945 15.5289L10.9993 17.5289C11.2352 17.7766 11.5623 17.9168 11.9044 17.9168C12.2465 17.9168 12.5737 17.7766 12.8096 17.5289L17.5715 12.5289ZM21.6663 13.7502C20.976 13.7502 20.4163 14.3098 20.4163 15.0002C20.4163 15.6905 20.976 16.2502 21.6663 16.2502H29.9997C30.69 16.2502 31.2497 15.6905 31.2497 15.0002C31.2497 14.3098 30.69 13.7502 29.9997 13.7502H21.6663ZM17.5715 24.1956C18.0476 23.6957 18.0283 22.9044 17.5284 22.4283C17.0285 21.9522 16.2373 21.9715 15.7612 22.4714L11.9044 26.521L10.9048 25.4714C10.4287 24.9715 9.63752 24.9522 9.13761 25.4283C8.63769 25.9044 8.6184 26.6957 9.0945 27.1956L10.9993 29.1956C11.2352 29.4433 11.5623 29.5835 11.9044 29.5835C12.2465 29.5835 12.5737 29.4433 12.8096 29.1956L17.5715 24.1956ZM21.6663 25.4168C20.976 25.4168 20.4163 25.9765 20.4163 26.6668C20.4163 27.3572 20.976 27.9168 21.6663 27.9168H29.9997C30.69 27.9168 31.2497 27.3572 31.2497 26.6668C31.2497 25.9765 30.69 25.4168 29.9997 25.4168H21.6663Z" fill="white"/>
</svg>
