<svg width="16" height="16" viewBox="0 0 16 16" fill="none" xmlns="http://www.w3.org/2000/svg">
<g opacity="0.7">
<path d="M14.6673 7.9987C14.6673 11.6806 11.6825 14.6654 8.00065 14.6654C4.31875 14.6654 1.33398 11.6806 1.33398 7.9987C1.33398 4.3168 4.31875 1.33203 8.00065 1.33203C11.6825 1.33203 14.6673 4.3168 14.6673 7.9987Z" fill="#293241"/>
<path fill-rule="evenodd" clip-rule="evenodd" d="M8.00065 4.83203C8.27679 4.83203 8.50065 5.05589 8.50065 5.33203V7.79159L10.0209 9.31181C10.2161 9.50707 10.2161 9.82366 10.0209 10.0189C9.82561 10.2142 9.50903 10.2142 9.31376 10.0189L7.6471 8.35225C7.55333 8.25848 7.50065 8.13131 7.50065 7.9987V5.33203C7.50065 5.05589 7.72451 4.83203 8.00065 4.83203Z" fill="white"/>
</g>
</svg>
