<svg width="24" height="24" viewBox="0 0 24 24" fill="none" xmlns="http://www.w3.org/2000/svg">
<path fill-rule="evenodd" clip-rule="evenodd" d="M12 22C17.5 22 22 17.5 22 12C22 6.5 17.5 2 12 2C6.5 2 2 6.5 2 12C2 17.5 6.5 22 12 22ZM12.7988 8.1001C12.7988 7.6001 12.3984 7.30005 12 7.30005C11.6641 7.30005 11.3984 7.51013 11.2637 7.81311C11.2363 7.87219 11.2148 7.93481 11.1992 8V12.1001C11.1992 12.3 11.2988 12.5 11.3984 12.6001L13.8984 15.1001C14.1992 15.4 14.6992 15.4 15 15.1001C15.2988 14.8 15.2988 14.3 15 14L12.7988 11.8V8.1001Z" fill="#293241"/>
</svg>
