<svg width="16" height="16" viewBox="0 0 16 16" fill="none" xmlns="http://www.w3.org/2000/svg">
<g opacity="0.7">
<path d="M5.16732 1.66797C5.16732 1.39183 4.94346 1.16797 4.66732 1.16797C4.39118 1.16797 4.16732 1.39183 4.16732 1.66797V2.72081C3.20776 2.79764 2.57783 2.98622 2.11503 3.44902C1.65223 3.91182 1.46366 4.54175 1.38682 5.5013H14.6145C14.5376 4.54175 14.3491 3.91182 13.8863 3.44902C13.4235 2.98622 12.7935 2.79764 11.834 2.72081V1.66797C11.834 1.39183 11.6101 1.16797 11.334 1.16797C11.0578 1.16797 10.834 1.39183 10.834 1.66797V2.67657C10.3905 2.66797 9.89334 2.66797 9.33398 2.66797H6.66732C6.10796 2.66797 5.61083 2.66797 5.16732 2.67657V1.66797Z" fill="#293241"/>
<path fill-rule="evenodd" clip-rule="evenodd" d="M1.33398 8.0013C1.33398 7.44195 1.33398 6.94481 1.34259 6.5013H14.6587C14.6673 6.94481 14.6673 7.44195 14.6673 8.0013V9.33464C14.6673 11.8488 14.6673 13.1059 13.8863 13.8869C13.1052 14.668 11.8481 14.668 9.33398 14.668H6.66732C4.15316 14.668 2.89608 14.668 2.11503 13.8869C1.33398 13.1059 1.33398 11.8488 1.33398 9.33464V8.0013ZM11.334 9.33464C11.7022 9.33464 12.0007 9.03616 12.0007 8.66797C12.0007 8.29978 11.7022 8.0013 11.334 8.0013C10.9658 8.0013 10.6673 8.29978 10.6673 8.66797C10.6673 9.03616 10.9658 9.33464 11.334 9.33464ZM11.334 12.0013C11.7022 12.0013 12.0007 11.7028 12.0007 11.3346C12.0007 10.9664 11.7022 10.668 11.334 10.668C10.9658 10.668 10.6673 10.9664 10.6673 11.3346C10.6673 11.7028 10.9658 12.0013 11.334 12.0013ZM8.66732 8.66797C8.66732 9.03616 8.36884 9.33464 8.00065 9.33464C7.63246 9.33464 7.33398 9.03616 7.33398 8.66797C7.33398 8.29978 7.63246 8.0013 8.00065 8.0013C8.36884 8.0013 8.66732 8.29978 8.66732 8.66797ZM8.66732 11.3346C8.66732 11.7028 8.36884 12.0013 8.00065 12.0013C7.63246 12.0013 7.33398 11.7028 7.33398 11.3346C7.33398 10.9664 7.63246 10.668 8.00065 10.668C8.36884 10.668 8.66732 10.9664 8.66732 11.3346ZM4.66732 9.33464C5.03551 9.33464 5.33398 9.03616 5.33398 8.66797C5.33398 8.29978 5.03551 8.0013 4.66732 8.0013C4.29913 8.0013 4.00065 8.29978 4.00065 8.66797C4.00065 9.03616 4.29913 9.33464 4.66732 9.33464ZM4.66732 12.0013C5.03551 12.0013 5.33398 11.7028 5.33398 11.3346C5.33398 10.9664 5.03551 10.668 4.66732 10.668C4.29913 10.668 4.00065 10.9664 4.00065 11.3346C4.00065 11.7028 4.29913 12.0013 4.66732 12.0013Z" fill="#293241"/>
</g>
</svg>
