<svg width="32" height="32" viewBox="0 0 32 32" fill="none" xmlns="http://www.w3.org/2000/svg">
<path d="M8.34625 28.5178H7.99967C6.7426 28.5178 6.11406 28.5178 5.72353 28.1273C5.33301 27.7368 5.33301 27.1083 5.33301 25.8512V24.3686C5.33301 23.6772 5.33301 23.3316 5.51058 23.0229C5.68815 22.7142 5.95604 22.5584 6.49181 22.2468C10.0191 20.1953 15.0284 19.0404 18.3718 21.0345C18.5964 21.1685 18.7984 21.3302 18.9711 21.5242C19.7152 22.36 19.661 23.6215 18.8033 24.37C18.6223 24.5281 18.4292 24.6479 18.2348 24.6896C18.3946 24.6711 18.5477 24.6499 18.6938 24.6265C19.909 24.4327 20.9291 23.7833 21.8629 23.0779L24.2725 21.2577C25.122 20.616 26.3827 20.6159 27.2324 21.2574C27.9973 21.8349 28.2311 22.7859 27.7476 23.561C27.1837 24.4649 26.3891 25.6213 25.6262 26.3279C24.8623 27.0355 23.7249 27.6672 22.7963 28.1154C21.7677 28.6118 20.6314 28.8979 19.4756 29.085C17.1315 29.4645 14.6884 29.4065 12.3681 28.9285C11.0564 28.6583 9.69407 28.5178 8.34625 28.5178Z" fill="white"/>
<path d="M14.482 4.48479C15.1576 3.27293 15.4953 2.66699 16.0003 2.66699C16.5053 2.66699 16.8431 3.27293 17.5186 4.48479L17.6934 4.79832C17.8854 5.14269 17.9814 5.31488 18.131 5.42849C18.2807 5.5421 18.4671 5.58427 18.8399 5.66862L19.1792 5.74541C20.4911 6.04222 21.147 6.19063 21.303 6.69245C21.4591 7.19427 21.0119 7.71716 20.1176 8.76295L19.8862 9.03351C19.6321 9.33069 19.505 9.47928 19.4479 9.66311C19.3907 9.84693 19.4099 10.0452 19.4483 10.4417L19.4833 10.8027C19.6185 12.198 19.6861 12.8956 19.2776 13.2058C18.869 13.5159 18.2549 13.2332 17.0266 12.6676L16.7089 12.5213C16.3598 12.3606 16.1853 12.2802 16.0003 12.2802C15.8153 12.2802 15.6408 12.3606 15.2918 12.5213L14.974 12.6676C13.7458 13.2331 13.1316 13.5159 12.7231 13.2058C12.3145 12.8956 12.3821 12.198 12.5173 10.8027L12.5523 10.4417C12.5907 10.0452 12.61 9.84693 12.5528 9.66311C12.4956 9.47928 12.3686 9.33069 12.1144 9.03351L11.883 8.76295C10.9887 7.71716 10.5416 7.19427 10.6976 6.69245C10.8537 6.19063 11.5096 6.04222 12.8214 5.74541L13.1608 5.66862C13.5336 5.58427 13.72 5.5421 13.8696 5.42849C14.0193 5.31488 14.1153 5.14269 14.3072 4.79832L14.482 4.48479Z" fill="white"/>
<path d="M25.9078 10.2426C26.2456 9.63663 26.4145 9.33366 26.667 9.33366C26.9195 9.33366 27.0884 9.63663 27.4261 10.2426L27.5135 10.3993C27.6095 10.5715 27.6575 10.6576 27.7323 10.7144C27.8072 10.7712 27.9004 10.7923 28.0868 10.8345L28.2565 10.8729C28.9124 11.0213 29.2403 11.0955 29.3183 11.3464C29.3964 11.5973 29.1728 11.8587 28.7256 12.3816L28.6099 12.5169C28.4829 12.6655 28.4193 12.7398 28.3908 12.8317C28.3622 12.9236 28.3718 13.0228 28.391 13.221L28.4085 13.4015C28.4761 14.0992 28.5099 14.448 28.3056 14.6031C28.1013 14.7581 27.7943 14.6167 27.1801 14.334L27.0213 14.2608C26.8467 14.1805 26.7595 14.1403 26.667 14.1403C26.5745 14.1403 26.4872 14.1805 26.3127 14.2608L26.1538 14.334C25.5397 14.6167 25.2326 14.7581 25.0284 14.6031C24.8241 14.448 24.8579 14.0992 24.9255 13.4015L24.943 13.221C24.9622 13.0228 24.9718 12.9236 24.9432 12.8317C24.9146 12.7398 24.8511 12.6655 24.724 12.5169L24.6084 12.3816C24.1612 11.8587 23.9376 11.5973 24.0156 11.3464C24.0937 11.0955 24.4216 11.0213 25.0775 10.8729L25.2472 10.8345C25.4336 10.7923 25.5268 10.7712 25.6016 10.7144C25.6765 10.6576 25.7245 10.5715 25.8204 10.3993L25.9078 10.2426Z" fill="white"/>
<path d="M4.5745 10.2426C4.91228 9.63663 5.08116 9.33366 5.33366 9.33366C5.58616 9.33366 5.75504 9.63663 6.09282 10.2426L6.1802 10.3993C6.27619 10.5715 6.32418 10.6576 6.39901 10.7144C6.47384 10.7712 6.56703 10.7923 6.75342 10.8345L6.92312 10.8729C7.57903 11.0213 7.90699 11.0955 7.98501 11.3464C8.06304 11.5973 7.83946 11.8587 7.3923 12.3816L7.27661 12.5169C7.14955 12.6655 7.08601 12.7398 7.05743 12.8317C7.02885 12.9236 7.03845 13.0228 7.05766 13.221L7.07515 13.4015C7.14276 14.0992 7.17656 14.448 6.97229 14.6031C6.76801 14.7581 6.46095 14.6167 5.84681 14.334L5.68793 14.2608C5.51341 14.1805 5.42615 14.1403 5.33366 14.1403C5.24116 14.1403 5.15391 14.1805 4.97939 14.2608L4.82051 14.334C4.20637 14.6167 3.89931 14.7581 3.69503 14.6031C3.49076 14.448 3.52456 14.0992 3.59216 13.4015L3.60965 13.221C3.62887 13.0228 3.63847 12.9236 3.60989 12.8317C3.58131 12.7398 3.51777 12.6655 3.3907 12.5169L3.27502 12.3816C2.82786 11.8587 2.60428 11.5973 2.6823 11.3464C2.76033 11.0955 3.08829 11.0213 3.7442 10.8729L3.9139 10.8345C4.10029 10.7923 4.19348 10.7712 4.26831 10.7144C4.34314 10.6576 4.39113 10.5715 4.48712 10.3993L4.5745 10.2426Z" fill="white"/>
</svg>
