<svg width="16" height="16" viewBox="0 0 16 16" fill="none" xmlns="http://www.w3.org/2000/svg">
<path d="M11.5597 3.63967C11.4015 3.63967 11.2468 3.68659 11.1152 3.7745C10.9837 3.8624 10.8811 3.98735 10.8206 4.13353C10.76 4.27971 10.7442 4.44056 10.775 4.59575C10.8059 4.75093 10.8821 4.89348 10.994 5.00536C11.1059 5.11724 11.2484 5.19343 11.4036 5.2243C11.5588 5.25517 11.7196 5.23933 11.8658 5.17878C12.012 5.11823 12.1369 5.01569 12.2249 4.88413C12.3128 4.75257 12.3597 4.5979 12.3597 4.43967C12.3597 4.2275 12.2754 4.02402 12.1254 3.87399C11.9753 3.72396 11.7718 3.63967 11.5597 3.63967ZM14.6263 5.25301C14.6134 4.69987 14.5098 4.15261 14.3197 3.63301C14.1502 3.18843 13.8863 2.78586 13.5463 2.45301C13.2162 2.11129 12.8127 1.84913 12.3663 1.68634C11.8481 1.49045 11.3002 1.38448 10.7463 1.37301C10.0397 1.33301 9.81301 1.33301 7.99967 1.33301C6.18634 1.33301 5.95967 1.33301 5.25301 1.37301C4.69911 1.38448 4.15124 1.49045 3.63301 1.68634C3.18746 1.85077 2.7843 2.11271 2.45301 2.45301C2.11129 2.78313 1.84913 3.18663 1.68634 3.63301C1.49045 4.15124 1.38448 4.69911 1.37301 5.25301C1.33301 5.95967 1.33301 6.18634 1.33301 7.99967C1.33301 9.81301 1.33301 10.0397 1.37301 10.7463C1.38448 11.3002 1.49045 11.8481 1.68634 12.3663C1.84913 12.8127 2.11129 13.2162 2.45301 13.5463C2.7843 13.8866 3.18746 14.1486 3.63301 14.313C4.15124 14.5089 4.69911 14.6149 5.25301 14.6263C5.95967 14.6663 6.18634 14.6663 7.99967 14.6663C9.81301 14.6663 10.0397 14.6663 10.7463 14.6263C11.3002 14.6149 11.8481 14.5089 12.3663 14.313C12.8127 14.1502 13.2162 13.8881 13.5463 13.5463C13.8878 13.2147 14.1519 12.8118 14.3197 12.3663C14.5098 11.8467 14.6134 11.2995 14.6263 10.7463C14.6263 10.0397 14.6663 9.81301 14.6663 7.99967C14.6663 6.18634 14.6663 5.95967 14.6263 5.25301ZM13.4263 10.6663C13.4215 11.0895 13.3448 11.5088 13.1997 11.9063C13.0932 12.1965 12.9223 12.4586 12.6997 12.673C12.4834 12.8933 12.2218 13.064 11.933 13.173C11.5355 13.3182 11.1162 13.3948 10.693 13.3997C10.0263 13.433 9.77967 13.4397 8.02634 13.4397C6.27301 13.4397 6.02634 13.4397 5.35967 13.3997C4.92027 13.4079 4.48274 13.3402 4.06634 13.1997C3.7902 13.0851 3.54058 12.9149 3.33301 12.6997C3.11173 12.4855 2.9429 12.2231 2.83967 11.933C2.67691 11.5298 2.58664 11.101 2.57301 10.6663C2.57301 9.99968 2.53301 9.75301 2.53301 7.99967C2.53301 6.24634 2.53301 5.99967 2.57301 5.33301C2.576 4.90038 2.65497 4.47164 2.80634 4.06634C2.92371 3.78495 3.10385 3.53411 3.33301 3.33301C3.53555 3.10379 3.78587 2.92174 4.06634 2.79967C4.47271 2.65304 4.90101 2.57639 5.33301 2.57301C5.99967 2.57301 6.24634 2.53301 7.99967 2.53301C9.75301 2.53301 9.99968 2.53301 10.6663 2.57301C11.0895 2.57786 11.5088 2.65451 11.9063 2.79967C12.2093 2.91211 12.4812 3.09491 12.6997 3.33301C12.9181 3.53779 13.0888 3.78816 13.1997 4.06634C13.3478 4.4723 13.4245 4.90086 13.4263 5.33301C13.4597 5.99967 13.4663 6.24634 13.4663 7.99967C13.4663 9.75301 13.4597 9.99968 13.4263 10.6663ZM7.99967 4.57967C7.32355 4.58099 6.66298 4.78269 6.10144 5.15929C5.53991 5.53588 5.10259 6.07047 4.84476 6.69551C4.58693 7.32055 4.52016 8.00799 4.65287 8.67096C4.78558 9.33394 5.11183 9.9427 5.59039 10.4203C6.06895 10.898 6.67835 11.223 7.34158 11.3544C8.00481 11.4859 8.69212 11.4177 9.31665 11.1587C9.94119 10.8997 10.4749 10.4613 10.8504 9.89903C11.2259 9.33676 11.4263 8.6758 11.4263 7.99967C11.4272 7.54974 11.3391 7.10408 11.1672 6.68831C10.9952 6.27255 10.7427 5.89488 10.4243 5.57704C10.1058 5.2592 9.72764 5.00746 9.31154 4.83629C8.89544 4.66513 8.4496 4.57792 7.99967 4.57967ZM7.99967 10.2197C7.5606 10.2197 7.13139 10.0895 6.76631 9.84554C6.40123 9.6016 6.11669 9.25488 5.94866 8.84923C5.78064 8.44358 5.73667 7.99721 5.82233 7.56657C5.90799 7.13594 6.11942 6.74037 6.4299 6.4299C6.74037 6.11942 7.13594 5.90799 7.56657 5.82233C7.99721 5.73667 8.44358 5.78064 8.84923 5.94866C9.25488 6.11669 9.6016 6.40123 9.84554 6.76631C10.0895 7.13139 10.2197 7.5606 10.2197 7.99967C10.2197 8.29121 10.1623 8.57989 10.0507 8.84923C9.93912 9.11857 9.7756 9.36331 9.56945 9.56945C9.36331 9.7756 9.11857 9.93912 8.84923 10.0507C8.57989 10.1623 8.29121 10.2197 7.99967 10.2197Z" fill="white"/>
</svg>
