<svg width="14" height="14" viewBox="0 0 14 14" fill="none" xmlns="http://www.w3.org/2000/svg">
<path d="M12.8097 8.00256V12.307H10.3142V8.29072C10.3142 7.28156 9.95316 6.59322 9.05016 6.59322C8.36066 6.59322 7.94999 7.05756 7.76974 7.50614C7.70383 7.66656 7.68691 7.88997 7.68691 8.11456V12.307H5.19024C5.19024 12.307 5.22408 5.50531 5.19024 4.80006H7.68691V5.86406L7.67058 5.88856H7.68691V5.86406C8.01824 5.35364 8.61033 4.62389 9.93624 4.62389C11.5783 4.62389 12.8097 5.69722 12.8097 8.00256ZM2.57924 1.18164C1.72583 1.18164 1.16699 1.74164 1.16699 2.47839C1.16699 3.19881 1.70949 3.77572 2.54658 3.77572H2.56291C3.43383 3.77572 3.97458 3.19881 3.97458 2.47839C3.95941 1.74164 3.43383 1.18164 2.57924 1.18164ZM1.31516 12.307H3.81066V4.80006H1.31516V12.307Z" fill="white"/>
</svg>
