<svg width="24" height="24" viewBox="0 0 24 24" fill="none" xmlns="http://www.w3.org/2000/svg">
<path fill-rule="evenodd" clip-rule="evenodd" d="M3.2 5.2C2 6.3 2 8.2 2 12C2 15.8 2 17.7 3.2 18.8C4.3 20 6.2 20 10 20H14C17.8 20 19.7 20 20.8 18.8C22 17.7 22 15.8 22 12C22 8.2 22 6.3 20.8 5.2C19.7 4 17.8 4 14 4H10C6.2 4 4.3 4 3.2 5.2ZM18.6 7.5C18.9 7.8 18.8 8.3 18.5 8.6L16.3 10.4C15.4 11.1 14.7 11.7 14.1 12.1C13.4 12.5 12.8 12.8 12.1 12.8C11.4 12.8 10.7 12.5 10.1 12.1C9.5 11.7 8.7 11.1 7.9 10.4L5.5 8.6C5.2 8.3 5.2 7.8 5.4 7.5C5.7 7.2 6.1 7.1 6.5 7.4L8.7 9.2C9.6 10 10.3 10.5 10.8 10.9C11.3 11.2 11.7 11.4 12 11.4C12.3 11.4 12.7 11.3 13.2 10.9C13.7 10.5 14.4 10 15.3 9.2L17.5 7.4C17.8 7.2 18.3 7.2 18.6 7.5Z" fill="#293241"/>
</svg>
