<svg width="20" height="20" viewBox="0 0 20 20" fill="none" xmlns="http://www.w3.org/2000/svg">
<path fill-rule="evenodd" clip-rule="evenodd" d="M13.4169 11.1324L13.7965 10.755C14.3212 10.2333 15.139 10.1261 15.8104 10.491L17.4024 11.3565C18.4249 11.9123 18.6501 13.2744 17.8511 14.069L16.6673 15.246C16.3663 15.5453 15.9927 15.7641 15.5632 15.8041C14.5698 15.8967 12.5257 15.8467 10.1142 14.4351L13.4169 11.1324ZM8.49193 6.23531L8.73094 5.99766C9.31974 5.41221 9.37524 4.47226 8.86154 3.78607L7.81072 2.3824C7.17491 1.5331 5.94631 1.42091 5.21755 2.14553L3.90955 3.4461C3.5482 3.8054 3.30605 4.27116 3.33541 4.78784C3.38935 5.73689 3.71285 7.47059 5.12614 9.6011L8.49193 6.23531Z" fill="white"/>
<path d="M10.0521 9.58091C7.5973 7.14003 8.48619 6.24094 8.49177 6.23535L5.12598 9.60114C5.68114 10.438 6.40445 11.3362 7.34565 12.272C8.2954 13.2164 9.22943 13.9174 10.114 14.4352L13.4168 11.1324C13.4168 11.1324 12.5146 12.0294 10.0521 9.58091Z" fill="white"/>
</svg>
