<svg width="20" height="20" viewBox="0 0 20 20" fill="none" xmlns="http://www.w3.org/2000/svg">
<path d="M9.99967 1.66699C6.31778 1.66699 3.33301 5.00248 3.33301 8.75033C3.33301 12.4688 5.46078 16.5107 8.78056 18.0624C9.55446 18.4241 10.4449 18.4241 11.2188 18.0624C14.5386 16.5107 16.6663 12.4688 16.6663 8.75033C16.6663 5.00248 13.6816 1.66699 9.99967 1.66699Z" fill="white"/>
<path d="M10.0003 10.4167C11.1509 10.4167 12.0837 9.48393 12.0837 8.33333C12.0837 7.18274 11.1509 6.25 10.0003 6.25C8.84973 6.25 7.91699 7.18274 7.91699 8.33333C7.91699 9.48393 8.84973 10.4167 10.0003 10.4167Z" fill="#293241"/>
</svg>
