<svg width="32" height="32" viewBox="0 0 32 32" fill="none" xmlns="http://www.w3.org/2000/svg">
<path d="M12.156 7.36272C13.7774 4.45424 14.588 3 15.8 3C17.012 3 17.8226 4.45424 19.444 7.36272L19.8634 8.11518C20.3241 8.94168 20.5545 9.35493 20.9137 9.62759C21.2729 9.90026 21.7202 10.0015 22.6149 10.2039L23.4294 10.3882C26.5778 11.1006 28.152 11.4567 28.5265 12.6611C28.901 13.8655 27.8278 15.1204 25.6815 17.6303L25.1262 18.2796C24.5163 18.9929 24.2113 19.3495 24.0741 19.7907C23.9369 20.2319 23.983 20.7077 24.0752 21.6593L24.1592 22.5256C24.4837 25.8744 24.6459 27.5487 23.6654 28.2931C22.6849 29.0374 21.211 28.3588 18.2631 27.0015L17.5005 26.6504C16.6628 26.2647 16.244 26.0718 15.8 26.0718C15.356 26.0718 14.9372 26.2647 14.0995 26.6504L13.3369 27.0015C10.389 28.3588 8.91511 29.0374 7.93459 28.2931C6.95407 27.5487 7.11633 25.8744 7.44083 22.5256L7.52478 21.6593C7.61699 20.7077 7.6631 20.2319 7.5259 19.7907C7.38871 19.3495 7.08374 18.9929 6.47382 18.2796L5.91852 17.6303C3.77216 15.1204 2.69898 13.8655 3.0735 12.6611C3.44802 11.4567 5.02222 11.1006 8.17061 10.3882L8.98514 10.2039C9.87981 10.0015 10.3271 9.90026 10.6863 9.62759C11.0455 9.35493 11.2759 8.94168 11.7366 8.11518L12.156 7.36272Z" fill="white"/>
</svg>
