<svg width="40" height="40" viewBox="0 0 40 40" fill="none" xmlns="http://www.w3.org/2000/svg">
<path d="M6.4 7C5.075 7 4 8.075 4 9.4V25.4C4 26.725 5.075 27.8 6.4 27.8H7.2C7.2 30.45 9.35 32.6 12 32.6C14.65 32.6 16.8 30.45 16.8 27.8H23.2C23.2 30.45 25.35 32.6 28 32.6C30.65 32.6 32.8 30.45 32.8 27.8H34.4C35.285 27.8 36 27.085 36 26.2C36 25.315 35.285 24.6 34.4 24.6V18.865C34.4 18.015 34.065 17.2 33.465 16.6L29.6 12.735C29 12.135 28.185 11.8 27.335 11.8H24.8V9.4C24.8 8.075 23.725 7 22.4 7H6.4ZM24.8 15H27.335L31.2 18.865V19.8H24.8V15ZM9.6 27.8C9.6 27.1635 9.85286 26.553 10.3029 26.1029C10.753 25.6529 11.3635 25.4 12 25.4C12.6365 25.4 13.247 25.6529 13.6971 26.1029C14.1471 26.553 14.4 27.1635 14.4 27.8C14.4 28.4365 14.1471 29.047 13.6971 29.4971C13.247 29.9471 12.6365 30.2 12 30.2C11.3635 30.2 10.753 29.9471 10.3029 29.4971C9.85286 29.047 9.6 28.4365 9.6 27.8ZM28 25.4C28.6365 25.4 29.247 25.6529 29.6971 26.1029C30.1471 26.553 30.4 27.1635 30.4 27.8C30.4 28.4365 30.1471 29.047 29.6971 29.4971C29.247 29.9471 28.6365 30.2 28 30.2C27.3635 30.2 26.753 29.9471 26.3029 29.4971C25.8529 29.047 25.6 28.4365 25.6 27.8C25.6 27.1635 25.8529 26.553 26.3029 26.1029C26.753 25.6529 27.3635 25.4 28 25.4Z" fill="white"/>
</svg>
