<svg width="40" height="40" viewBox="0 0 40 40" fill="none" xmlns="http://www.w3.org/2000/svg">
<path d="M25.8337 12.5003C25.8337 15.722 23.222 18.3337 20.0003 18.3337C16.7787 18.3337 14.167 15.722 14.167 12.5003C14.167 9.27866 16.7787 6.66699 20.0003 6.66699C23.222 6.66699 25.8337 9.27866 25.8337 12.5003Z" fill="white"/>
<path d="M30 27.5003C30 30.722 25.5228 33.3337 20 33.3337C14.4772 33.3337 10 30.722 10 27.5003C10 24.2787 14.4772 21.667 20 21.667C25.5228 21.667 30 24.2787 30 27.5003Z" fill="white"/>
<path d="M11.8698 8.33301C12.1655 8.33301 12.4543 8.36203 12.7331 8.41728C12.0538 9.62377 11.6663 11.0165 11.6663 12.4997C11.6663 13.9468 12.0352 15.3077 12.684 16.4936C12.4204 16.5427 12.1482 16.5684 11.8698 16.5684C9.5124 16.5684 7.60138 14.7249 7.60138 12.4507C7.60138 10.1766 9.5124 8.33301 11.8698 8.33301Z" fill="white"/>
<path d="M9.07857 31.643C8.13204 30.5115 7.49967 29.123 7.49967 27.4997C7.49967 25.9259 8.09396 24.573 8.99264 23.4609C5.81817 23.7071 3.33301 25.4434 3.33301 27.5487C3.33301 29.6737 5.86185 31.4227 9.07857 31.643Z" fill="white"/>
<path d="M28.3324 12.4997C28.3324 13.9468 27.9635 15.3077 27.3147 16.4936C27.5783 16.5427 27.8505 16.5684 28.129 16.5684C30.4863 16.5684 32.3973 14.7249 32.3973 12.4507C32.3973 10.1766 30.4863 8.33301 28.129 8.33301C27.8332 8.33301 27.5444 8.36203 27.2656 8.41728C27.9449 9.62377 28.3324 11.0165 28.3324 12.4997Z" fill="white"/>
<path d="M30.9202 31.643C34.1369 31.4227 36.6657 29.6737 36.6657 27.5487C36.6657 25.4434 34.1805 23.7071 31.0061 23.4609C31.9048 24.573 32.499 25.9259 32.499 27.4997C32.499 29.123 31.8667 30.5115 30.9202 31.643Z" fill="white"/>
</svg>
