<svg width="40" height="40" viewBox="0 0 40 40" fill="none" xmlns="http://www.w3.org/2000/svg">
<path d="M23.3333 11.2502C23.3333 14.9321 20.3486 17.9168 16.6667 17.9168C12.9848 17.9168 10 14.9321 10 11.2502C10 7.56826 12.9848 4.5835 16.6667 4.5835C20.3486 4.5835 23.3333 7.56826 23.3333 11.2502Z" fill="white"/>
<path d="M28.3333 29.5832C28.3333 33.2651 23.11 36.2498 16.6667 36.2498C10.2233 36.2498 5 33.2651 5 29.5832C5 25.9013 10.2233 22.9165 16.6667 22.9165C23.11 22.9165 28.3333 25.9013 28.3333 29.5832Z" fill="white"/>
<path fill-rule="evenodd" clip-rule="evenodd" d="M30.5947 3.94057C30.9499 3.34859 31.7178 3.15663 32.3097 3.51182L31.6666 4.58368C32.3097 3.51182 32.3092 3.51148 32.3097 3.51182L32.312 3.51321L32.3147 3.51479L32.3208 3.51855L32.3368 3.52841C32.3491 3.53604 32.3645 3.54577 32.3828 3.55763C32.4195 3.58135 32.468 3.61364 32.5267 3.6547C32.6439 3.73673 32.8022 3.85423 32.9877 4.00882C33.3579 4.3173 33.8419 4.77813 34.3241 5.40488C35.2955 6.66777 36.2499 8.59593 36.2499 11.2504C36.2499 13.9048 35.2955 15.8329 34.3241 17.0958C33.8419 17.7226 33.3579 18.1834 32.9877 18.4919C32.8022 18.6465 32.6439 18.764 32.5267 18.846C32.468 18.8871 32.4195 18.9193 32.3828 18.9431C32.3645 18.9549 32.3491 18.9647 32.3368 18.9723L32.3208 18.9822L32.3147 18.9859L32.312 18.9875C32.3115 18.9878 32.3097 18.9889 31.6666 17.917L32.3097 18.9889C31.7178 19.3441 30.9499 19.1521 30.5947 18.5601C30.2411 17.9707 30.4299 17.2068 31.016 16.8497L31.0253 16.8438C31.0374 16.8359 31.0605 16.8207 31.093 16.7979C31.1581 16.7524 31.2602 16.6772 31.3872 16.5713C31.642 16.359 31.9913 16.0281 32.3425 15.5715C33.0377 14.6678 33.7499 13.2626 33.7499 11.2504C33.7499 9.23811 33.0377 7.83293 32.3425 6.92916C31.9913 6.47257 31.642 6.14173 31.3872 5.92938C31.2602 5.82355 31.1581 5.74835 31.093 5.70278C31.0605 5.68003 31.0374 5.66479 31.0253 5.65694L31.0161 5.65105C30.4299 5.29391 30.2411 4.53005 30.5947 3.94057Z" fill="white"/>
<path fill-rule="evenodd" clip-rule="evenodd" d="M27.2152 7.358C27.524 6.74053 28.2748 6.49025 28.8923 6.79898L28.3333 7.91702C28.8923 6.79898 28.8916 6.79865 28.8923 6.79898L28.895 6.80034L28.8979 6.80178L28.9041 6.80495L28.9184 6.81237L28.9544 6.83172C28.9815 6.84664 29.0149 6.86573 29.0536 6.88922C29.1309 6.93615 29.2301 7.00112 29.3437 7.08629C29.5703 7.25621 29.8584 7.51 30.1427 7.86532C30.7239 8.59181 31.2499 9.6967 31.2499 11.2504C31.2499 12.804 30.7239 13.9089 30.1427 14.6354C29.8584 14.9907 29.5703 15.2445 29.3437 15.4144C29.2301 15.4996 29.1309 15.5646 29.0536 15.6115C29.0149 15.635 28.9815 15.6541 28.9544 15.669L28.9184 15.6883L28.9041 15.6958L28.8979 15.6989L28.895 15.7004C28.8943 15.7007 28.8923 15.7017 28.3437 14.6046L28.8923 15.7017C28.2748 16.0105 27.524 15.7602 27.2152 15.1427C26.9104 14.5329 27.1506 13.7931 27.7514 13.4774C27.7526 13.4767 27.7542 13.4757 27.7562 13.4745C27.77 13.4661 27.801 13.4464 27.8437 13.4144C27.9296 13.35 28.0581 13.2392 28.1905 13.0736C28.4427 12.7585 28.7499 12.1967 28.7499 11.2504C28.7499 10.304 28.4427 9.74222 28.1905 9.42705C28.0581 9.26154 27.9296 9.15075 27.8437 9.08629C27.801 9.05427 27.77 9.0346 27.7562 9.02619C27.7542 9.02499 27.7526 9.02404 27.7514 9.02332C27.1506 8.70764 26.9104 7.96779 27.2152 7.358Z" fill="white"/>
</svg>
