<svg width="156" height="108" viewBox="0 0 156 108" fill="none" xmlns="http://www.w3.org/2000/svg">
<rect x="0.321517" y="0.321517" width="155.357" height="107.357" rx="9.67848" fill="white"/>
<rect x="0.321517" y="0.321517" width="155.357" height="107.357" rx="9.67848" stroke="#BDBFC4" stroke-width="0.643034"/>
<g clip-path="url(#clip0_514_9769)">
<path d="M34.9608 43.0703C28.4034 43.0703 23.9844 47.8786 23.9844 54.0004C23.9844 60.1223 28.4034 64.9305 34.9608 64.9305C41.5181 64.9305 45.9372 60.1223 45.9372 54.0004C45.9372 47.8786 41.5181 43.0703 34.9608 43.0703ZM34.9608 64.2118C30.3516 64.2118 27.3106 60.841 27.3106 54.0004C27.3106 47.1598 30.3516 43.7891 34.9608 43.7891C39.5699 43.7891 42.611 47.1598 42.611 54.0004C42.611 60.841 39.5462 64.2118 34.9608 64.2118ZM61.594 43.9874V44.5078C62.877 44.5078 63.4472 44.8053 63.4472 45.7223C63.4472 46.4411 62.9482 47.3581 60.7149 51.1254C59.432 53.1577 58.7668 54.6944 58.5529 55.2149C58.2678 54.397 57.5788 52.662 56.0108 49.8118C55.5118 48.8947 55.0367 48.176 54.6328 47.5564C53.8488 46.3419 53.5636 45.7223 53.5636 45.3009C53.5636 44.6813 53.8487 44.5822 54.8466 44.483V43.9874H51.9956C49.1446 43.9874 47.2914 43.8882 47.2914 43.8882V44.4087C49.2396 44.7061 50.4275 45.524 53.6587 50.9519C55.8207 54.62 56.1058 55.8593 56.2008 57.4951V58.1891C56.2008 60.3453 56.2008 61.7581 56.0108 62.576C55.8207 63.5922 55.2267 63.5922 53.9438 63.7904V64.3109C54.4427 64.3109 56.0108 64.1126 57.46 64.1126C59.0281 64.1126 60.9763 64.3109 60.9763 64.3109V63.7904C59.8121 63.6913 59.1231 63.5922 58.9093 62.576C58.7192 61.7581 58.7192 60.3206 58.7192 58.1891V57.3712C58.8143 55.9336 59.3132 54.62 61.1664 51.5467C64.0174 46.7385 65.2766 44.9044 67.6287 44.5078V43.8882C67.1297 43.8882 65.4666 43.9874 63.6135 43.9874H61.594ZM121.038 43.0703C114.48 43.0703 110.061 47.8786 110.061 54.0004C110.061 60.1223 114.48 64.9305 121.038 64.9305C127.595 64.9305 132.014 60.1223 132.014 54.0004C132.014 47.8786 127.595 43.0703 121.038 43.0703ZM121.038 64.2118C116.429 64.2118 113.387 60.841 113.387 54.0004C113.387 47.1598 116.429 43.7891 121.038 43.7891C125.647 43.7891 128.688 47.1598 128.688 54.0004C128.593 60.841 125.552 64.2118 121.038 64.2118ZM77.1558 52.8851L74.9938 51.4476C73.2356 50.3323 71.9527 49.2913 71.9527 47.2589C71.9527 45.1027 73.4257 43.7891 75.6828 43.7891C78.9139 43.7891 79.6029 46.5402 79.888 48.4982H80.2681C80.2681 48.2999 80.3632 47.482 80.3632 46.4658C80.3632 45.1275 80.2681 44.4335 80.2681 44.4335C80.0781 44.2352 78.415 43.3182 75.8491 43.3182C72.024 43.3182 69.9807 45.7719 69.9807 48.6221C69.9807 50.7784 70.8598 52.9099 73.7108 54.6448L75.8728 56.0824C77.5359 57.1977 79.009 58.3378 79.009 60.4693C79.009 63.0221 77.3459 64.2613 74.8987 64.2613C71.8577 64.2613 70.5985 62.3281 69.8144 58.7343H69.4343C69.4343 59.354 69.3393 59.9488 69.3393 60.9898C69.3393 62.2042 69.4343 63.2452 69.4343 63.2452C69.5293 63.3443 71.3825 64.881 74.6136 64.881C78.7239 64.881 81.0759 62.5264 81.0759 59.0565C81.0759 56.4541 79.9118 54.7192 77.1558 52.8851ZM99.0136 43.8882V44.4087C100.297 44.5078 100.867 44.607 101.081 45.6232C101.271 46.4411 101.271 47.8786 101.271 50.0101V53.2817H90.508V49.9109C90.508 47.7546 90.508 46.3419 90.6981 45.524C90.8882 44.5078 91.4821 44.5078 92.7651 44.3096V43.8882C92.7651 43.8882 90.8169 43.9874 89.2488 43.9874C87.7758 43.9874 86.2078 43.8882 85.7326 43.8882V44.4087C87.0155 44.5078 87.5858 44.607 87.7996 45.6232C87.9896 46.4411 87.9896 47.8786 87.9896 50.0101V58.1891C87.9896 60.3453 87.9896 61.7581 87.7996 62.576C87.6095 63.5922 87.0155 63.5922 85.7326 63.7904V64.3109C86.2315 64.3109 87.7996 64.2118 89.2488 64.2118C90.8169 64.2118 92.7651 64.3109 92.7651 64.3109V63.7904C91.4821 63.5922 90.8169 63.493 90.6031 62.4521C90.413 61.6342 90.413 60.1966 90.413 58.0651V54.0996H101.176V58.0899C101.176 60.2462 101.176 61.6589 100.986 62.4768C100.795 63.493 100.201 63.493 98.9185 63.6913V64.2118C99.4175 64.2118 100.986 64.1126 102.435 64.1126C104.003 64.1126 105.951 64.2118 105.951 64.2118V63.6913C104.882 63.5922 104.288 63.493 104.098 62.4768C103.908 61.6589 103.908 60.2214 103.908 58.0899V49.9109C103.908 47.7546 103.908 46.3419 104.098 45.524C104.288 44.5078 104.882 44.5078 106.165 44.3096V43.8882C106.165 43.8882 104.217 43.9874 102.649 43.9874C101.057 43.9874 99.4887 43.8882 99.0136 43.8882Z" fill="#1A1A1A"/>
</g>
<defs>
<clipPath id="clip0_514_9769">
<rect width="108.03" height="21.8631" fill="white" transform="translate(23.9844 43.0684)"/>
</clipPath>
</defs>
</svg>
