<svg width="156" height="108" viewBox="0 0 156 108" fill="none" xmlns="http://www.w3.org/2000/svg">
<rect width="156" height="108" rx="10.2928" fill="white"/>
<path d="M40.0882 52.8976C40.5395 52.979 41.0179 52.988 41.4421 53.1417C42.5793 53.5664 42.9945 54.3437 43.0216 55.6452C43.0667 57.6607 43.0486 59.6852 43.0306 61.7007C43.0216 63.3185 42.0829 64.2042 40.4492 64.2042C32.9308 64.2042 25.4125 64.2132 17.8851 64.2132C17.6143 64.2132 17.3525 64.2132 17.0547 64.2132C17.2803 63.0564 17.9482 62.3785 18.9862 62.0712C19.3382 61.9628 19.7082 61.8995 20.0693 61.8995C24.8799 61.8905 29.6997 61.8905 34.5103 61.8905C35.5212 61.8905 35.81 61.5832 35.81 60.5619C35.81 60.3179 35.8191 60.0829 35.81 59.8388C35.783 59.2152 35.5302 58.9079 34.9165 58.7904C34.6999 58.7452 34.4742 58.7272 34.2486 58.7272C29.4921 58.7272 24.7446 58.7272 19.988 58.7272C19.1757 58.7272 18.3815 58.691 17.6955 58.1758C17.1269 57.7511 16.7207 57.1997 16.7117 56.4857C16.6846 54.1539 16.6846 51.8221 16.7117 49.4903C16.7207 48.8396 17.4518 47.999 18.1017 47.8183C18.4988 47.7098 18.914 47.6285 19.3111 47.5381C19.4736 47.5652 19.627 47.6104 19.7895 47.6104C26.297 47.6104 32.8045 47.6104 39.312 47.6104C39.4745 47.6104 39.6279 47.5652 39.7904 47.5471C40.4763 47.6917 41.1893 47.8363 41.5504 48.5323C41.7309 48.8848 41.8121 49.3005 41.9746 49.7795C41.7038 49.7795 41.5594 49.7795 41.415 49.7795C36.0357 49.7795 30.6564 49.7795 25.2771 49.7795C25.1146 49.7795 24.9431 49.7614 24.7807 49.7976C24.0767 49.9512 23.8691 50.1772 23.8871 50.8008C23.8962 51.1894 23.8871 51.5871 23.8871 51.9758C23.8962 52.5452 24.0315 52.7078 24.6182 52.8705C24.8438 52.8976 25.0605 52.9428 25.2861 52.9428C30.0697 52.9428 34.8443 52.9428 39.6279 52.9428C39.7904 52.9247 39.9348 52.9067 40.0882 52.8976Z" fill="#1C3D6B"/>
<path d="M125.093 46.8511C127.06 46.8511 129.037 46.8511 131.005 46.8511C132.088 46.8511 132.999 47.1764 133.397 48.2791C133.568 48.7581 133.649 49.2913 133.658 49.8065C133.676 53.7561 133.667 57.6967 133.676 61.6463C133.676 62.0621 133.667 62.5049 133.785 62.9026C133.929 63.3635 134.209 63.7883 134.425 64.2222C132.566 64.2222 130.635 64.2222 128.703 64.2222C128.423 64.2222 128.153 64.2493 127.873 64.2402C127.268 64.2131 126.79 63.951 126.51 63.3816C126.257 63.5714 126.068 63.7793 125.833 63.8787C125.463 64.0324 125.057 64.2041 124.669 64.2131C121.401 64.2402 118.143 64.2312 114.876 64.2222C113.793 64.2222 113.053 63.463 112.683 62.6043C112.538 62.2699 112.493 61.8632 112.493 61.4927C112.475 59.5224 112.475 57.5431 112.502 55.5728C112.52 54.1809 113.657 52.9427 115.21 52.9517C118.748 52.9698 122.277 52.9517 125.815 52.9698C126.266 52.9698 126.402 52.8523 126.402 52.3914C126.393 51.4153 126.501 50.4482 126.465 49.4721C126.438 48.8123 126.465 48.0893 125.941 47.5651C125.707 47.3301 125.4 47.1674 125.12 46.9686C125.111 46.9234 125.102 46.8872 125.093 46.8511ZM126.465 58.3022C126.474 58.3022 126.474 58.3022 126.465 58.3022C126.474 57.76 126.483 57.2177 126.474 56.6754C126.447 55.618 125.815 54.9491 124.759 54.9311C123.649 54.9039 122.539 54.9039 121.419 54.9311C120.481 54.9491 119.741 55.5637 119.687 56.4946C119.614 57.7057 119.641 58.9259 119.696 60.137C119.732 60.851 120.318 61.4746 121.04 61.5017C122.421 61.565 123.802 61.565 125.183 61.5017C125.941 61.4656 126.447 60.8148 126.474 60.0556C126.483 59.4772 126.465 58.8897 126.465 58.3022Z" fill="#1C3D6B"/>
<path d="M56.0998 64.2045C53.3469 64.2045 50.5941 64.2316 47.8413 64.1864C46.704 64.1683 45.5488 63.2465 45.5217 61.9811C45.4675 59.6222 45.4766 57.2543 45.5217 54.8863C45.5307 54.1994 46.1174 53.2866 46.9477 53.1239C47.3719 53.0425 47.8052 52.9431 48.2294 52.9431C53.5094 52.9341 58.7894 52.925 64.0694 52.9522C64.5929 52.9522 65.1435 53.151 65.6399 53.3589C66.38 53.6752 66.6508 54.3802 66.7952 55.1122C66.8764 55.5009 66.8854 55.9166 66.8854 56.3143C66.8945 57.9683 66.8854 59.6313 66.8854 61.2852C66.8854 62.7584 66.1273 63.7797 64.7103 64.1774C64.4756 64.2406 64.2048 64.2135 63.9521 64.2135C61.3347 64.2135 58.7172 64.2135 56.0998 64.2135V64.2045ZM56.2081 54.8953C55.5943 54.8953 54.9806 54.8953 54.3578 54.8953C53.3379 54.8953 52.6429 55.5461 52.6249 56.5583C52.6068 57.67 52.6068 58.7817 52.6249 59.8934C52.6429 60.8514 53.4191 61.6015 54.3668 61.6015C55.6304 61.6106 56.894 61.6106 58.1486 61.6015C59.1234 61.6015 59.6559 61.0864 59.6739 60.1012C59.692 58.8721 59.692 57.6339 59.6739 56.4047C59.6559 55.4286 59.0782 54.8953 58.0944 54.8863C57.4717 54.8953 56.8399 54.8953 56.2081 54.8953Z" fill="#1C3D6B"/>
<path d="M111.104 64.2223C108.82 64.2223 106.528 64.2223 104.244 64.2404C103.576 64.2494 103.152 63.897 102.863 63.4631C102.367 63.7072 101.916 63.9512 101.446 64.1681C101.329 64.2223 101.185 64.2223 101.049 64.2223C97.9173 64.2223 94.7944 64.2133 91.6625 64.2314C90.796 64.2314 90.2094 63.8247 89.8303 63.1107C89.6317 62.7311 89.4783 62.2792 89.4602 61.8544C89.4061 60.8331 89.4512 59.8118 89.4512 58.7814C89.4512 57.7873 90.074 57.0552 91.1029 56.8473C91.4369 56.775 91.7889 56.7479 92.1318 56.7479C95.5165 56.7388 98.9011 56.7479 102.286 56.7479C102.448 56.7479 102.611 56.7479 102.773 56.7479C102.872 56.07 102.439 55.5006 101.708 55.3651C101.176 55.2656 100.634 55.2024 100.102 55.2024C97.0328 55.1843 93.9641 55.1933 90.8953 55.1933C90.7329 55.1933 90.5704 55.1933 90.3989 55.1933C90.4892 53.8105 91.2744 52.97 92.6734 52.9609C95.9678 52.9429 99.2621 52.9519 102.556 52.9519C103.892 52.9519 105.237 52.9248 106.573 52.97C107.123 52.9881 107.701 53.0875 108.225 53.2863C109.434 53.7382 109.985 54.6872 109.985 55.9706C109.985 57.8505 109.967 59.7395 109.994 61.6194C110.003 62.1797 110.102 62.7491 110.228 63.3005C110.328 63.7433 110.643 64.0506 111.104 64.1681C111.095 64.1771 111.104 64.1952 111.104 64.2223ZM99.7405 58.5284C99.1087 58.5284 98.4769 58.5193 97.8451 58.5284C97.0869 58.5465 96.7259 58.8447 96.6266 59.5858C96.5815 59.9473 96.6086 60.336 96.6627 60.7065C96.744 61.2669 97.0599 61.5923 97.6195 61.6013C98.9823 61.6284 100.354 61.6284 101.717 61.6013C102.204 61.5923 102.593 61.3121 102.692 60.815C102.773 60.4083 102.809 59.9745 102.755 59.5677C102.674 58.8357 102.322 58.5555 101.582 58.5374C100.977 58.5193 100.354 58.5284 99.7405 58.5284Z" fill="#1C3D6B"/>
<path d="M80.0726 55.2837C80.0636 57.7059 80.0365 60.1281 80.0726 62.5503C80.0816 63.201 80.3885 63.7885 81.0293 64.132C81.0113 64.1681 81.0023 64.1952 80.9842 64.2314C77.8884 64.2314 74.7836 64.2314 71.8232 64.2314C72.112 63.7975 72.4459 63.3185 72.7528 62.8214C72.8431 62.6768 72.8521 62.478 72.8521 62.2972C72.8611 59.9925 72.8611 57.6878 72.8611 55.3831C72.8611 55.338 72.8431 55.2928 72.825 55.1933C71.6607 55.1933 70.4783 55.1933 69.314 55.1933C69.1606 53.9461 70.0541 52.979 71.3177 52.9429C71.7961 52.9248 72.2744 52.9248 72.7618 52.9158C72.7889 52.8886 72.816 52.8615 72.834 52.8344C72.8431 51.8764 72.825 50.9093 72.8701 49.9513C72.9333 48.3425 73.6193 47.5381 75.1175 47.511C78.809 47.4568 82.5005 47.4297 86.192 47.4387C87.0404 47.4387 87.8979 47.6556 88.3762 48.4871C88.5748 48.8306 88.656 49.2373 88.8275 49.7253C88.5026 49.7253 88.3311 49.7253 88.1506 49.7253C85.8942 49.7344 83.6378 49.7253 81.3904 49.7434C80.4066 49.7525 80.0636 50.123 80.0546 51.1172C80.0546 51.6776 80.0546 52.2289 80.0546 52.7892C80.0546 52.8163 80.0636 52.8435 80.0816 52.9158C80.199 52.9248 80.3253 52.9338 80.4607 52.9338C82.1485 52.9338 83.8273 52.9248 85.5151 52.9429C86.3816 52.9519 87.1487 53.2231 87.582 54.0274C87.7625 54.3528 87.8257 54.7505 87.9701 55.2024C85.3165 55.2024 82.7352 55.2024 80.1629 55.2024C80.1268 55.2385 80.0997 55.2566 80.0726 55.2837Z" fill="#1C3D6B"/>
<path d="M137.32 43.7151C138.728 43.697 139.866 44.7997 139.857 46.1554C139.847 47.3574 138.71 48.6318 137.636 48.677C135.813 48.7493 134.91 47.4478 134.883 46.1915C134.856 44.9804 135.822 43.6789 137.32 43.7151ZM136.382 44.6189C135.768 44.9533 135.398 45.6854 135.488 46.3903C135.587 47.1586 136.21 47.8635 136.95 48.0353C137.555 48.1799 138.214 48.0082 138.503 47.6014C138.033 47.728 137.862 47.4568 137.735 47.1044C137.672 46.9326 137.591 46.7699 137.483 46.6253C137.411 46.535 137.275 46.4988 137.167 46.4446C137.122 46.544 137.031 46.6344 137.022 46.7338C137.004 47.014 137.013 47.2942 137.013 47.5653C136.761 47.5653 136.562 47.5653 136.364 47.5653C136.373 46.5621 136.373 45.586 136.382 44.6189C136.887 44.646 137.393 44.6641 137.898 44.7093C138.259 44.7454 138.557 44.9081 138.665 45.2967C138.764 45.6673 138.656 45.9746 138.367 46.2277C138.304 46.2819 138.241 46.3361 138.169 46.3994C138.358 46.779 138.53 47.1405 138.719 47.5291C139.143 47.1767 139.288 46.7519 139.306 46.2729C139.333 45.4594 138.972 44.8539 138.268 44.4652C137.654 44.1218 136.869 44.1941 136.382 44.6189ZM137.059 45.2516C137.059 45.4775 137.059 45.6763 137.059 45.8752C137.302 45.8752 137.519 45.9113 137.708 45.8661C137.826 45.839 137.997 45.6763 137.988 45.595C137.97 45.4685 137.835 45.2967 137.717 45.2696C137.51 45.2064 137.284 45.2516 137.059 45.2516Z" fill="#1C3D6B"/>
<path d="M39.8074 47.5381C39.6449 47.5562 39.4915 47.6014 39.329 47.6014C32.8215 47.6014 26.314 47.6014 19.8065 47.6014C19.644 47.6014 19.4906 47.5562 19.3281 47.5291C19.5267 47.52 19.7162 47.502 19.9148 47.502C26.3501 47.502 32.7944 47.502 39.2297 47.502C39.4193 47.502 39.6088 47.52 39.8074 47.5381Z" fill="#1C3D6B"/>
<path d="M40.0899 52.8975C39.9364 52.9065 39.792 52.9246 39.6386 52.9246C34.855 52.9246 30.0804 52.9246 25.2968 52.9246C25.0712 52.9246 24.8545 52.8794 24.6289 52.8523C25.7842 52.8523 26.9395 52.8433 28.1038 52.8433C31.9397 52.8433 35.7666 52.8433 39.6025 52.8433C39.774 52.8433 39.9274 52.8794 40.0899 52.8975Z" fill="#A8B5C3"/>
<path d="M125.094 46.8513C125.103 46.8875 125.103 46.9236 125.112 46.9598C125.04 46.9507 124.959 46.9327 124.887 46.9236C124.887 46.8875 124.887 46.8604 124.896 46.8242C124.959 46.8333 125.031 46.8423 125.094 46.8513Z" fill="#A8B5C3"/>
<path d="M111.104 64.2227C111.095 64.1956 111.095 64.1775 111.086 64.1504C111.14 64.1594 111.185 64.1775 111.239 64.1865C111.23 64.2227 111.212 64.2498 111.203 64.286C111.176 64.2679 111.14 64.2408 111.104 64.2227Z" fill="#F3F5F7"/>
<path d="M136.372 44.6099C136.372 45.586 136.372 46.5621 136.372 47.5743C136.571 47.5743 136.769 47.5743 137.022 47.5743C137.022 47.3032 137.013 47.023 137.031 46.7428C137.04 46.6434 137.121 46.553 137.175 46.4536C137.284 46.5169 137.419 46.544 137.491 46.6344C137.6 46.77 137.681 46.9417 137.744 47.1134C137.87 47.4659 138.042 47.737 138.511 47.6105C138.222 48.0172 137.563 48.1889 136.959 48.0443C136.219 47.8726 135.596 47.1676 135.497 46.3994C135.397 45.6854 135.767 44.9443 136.372 44.6099Z" fill="#F3F5F7"/>
<path d="M136.383 44.6188C136.87 44.203 137.656 44.1217 138.269 44.4651C138.973 44.8538 139.343 45.4593 139.307 46.2727C139.289 46.7518 139.145 47.1765 138.721 47.529C138.531 47.1404 138.36 46.7879 138.17 46.3993C138.242 46.336 138.305 46.2818 138.369 46.2276C138.657 45.9835 138.775 45.6762 138.666 45.2966C138.558 44.908 138.26 44.7453 137.899 44.7092C137.394 44.664 136.879 44.6459 136.383 44.6188Z" fill="#F3F5F7"/>
<path d="M137.062 45.2516C137.288 45.2516 137.523 45.2154 137.721 45.2696C137.839 45.2967 137.974 45.4685 137.992 45.595C138.001 45.6763 137.83 45.839 137.712 45.8661C137.514 45.9113 137.297 45.8752 137.062 45.8752C137.062 45.6763 137.062 45.4775 137.062 45.2516Z" fill="#F3F5F7"/>
</svg>
