<svg width="156" height="108" viewBox="0 0 156 108" fill="none" xmlns="http://www.w3.org/2000/svg">
<rect width="156" height="108" rx="10" fill="white"/>
<g clip-path="url(#clip0_514_9763)">
<path d="M25.1517 49.8813C27.7219 49.9934 30.2921 50.1173 32.8672 50.2106C33.5187 50.2344 34.0001 50.5816 34.4993 50.9138C35.1468 51.3443 35.7636 51.8234 36.4279 52.2261C37.3097 52.7598 37.4165 53.5156 37.2603 54.45C36.7818 57.3265 36.3508 60.2031 35.901 63.0856C35.5201 65.5124 35.1399 67.9393 34.7603 70.3662C34.701 70.7441 34.5359 71.0397 34.1247 71.0863C33.7134 71.1329 33.4702 70.9117 33.3101 70.5616C32.5147 68.8297 31.7186 67.0975 30.9218 65.365C29.0831 61.351 27.2461 57.3358 25.4107 53.3192C25.0028 52.4285 24.5962 51.5358 24.1909 50.6411C24.1364 50.5333 24.0959 50.4189 24.0703 50.3008C24.0218 50.0261 24.1207 49.8545 24.4281 49.8575C24.6693 49.8575 24.9105 49.8575 25.1517 49.8575V49.8813Z" fill="#507C3D"/>
<path d="M40.6863 53.3477L40.9829 49.5784C41.1094 47.9576 41.2241 46.3359 41.3684 44.7181C41.4386 43.9245 41.8528 43.3879 42.6209 43.0834C44.0553 42.515 45.4679 41.8931 46.8894 41.298C48.2071 40.7425 49.5218 40.1801 50.8435 39.6345C51.1668 39.5006 51.5078 39.4986 51.7826 39.7674C52.0298 40.0085 52.012 40.2912 51.9358 40.6175C51.6996 41.6223 51.5029 42.637 51.2874 43.6468C50.8583 45.6478 50.43 47.6478 50.0023 49.6469C49.8372 50.4176 49.6988 51.1962 49.5031 51.959C49.45 52.1734 49.3462 52.3718 49.2005 52.5374C49.0547 52.703 48.8713 52.8309 48.6658 52.9102C48.2882 53.0346 47.9005 53.1259 47.5072 53.183C46.6848 53.3463 45.861 53.5001 45.0359 53.6442C44.3172 53.7712 43.5946 53.8793 42.875 54.0003C42.4677 54.0688 42.0624 54.1501 41.6551 54.2196C41.058 54.3217 40.6458 53.9587 40.6863 53.3477Z" fill="#99AB3D"/>
<path d="M40.8125 66.2425C40.8125 63.5763 40.8125 60.9097 40.8125 58.2428C40.8125 57.4602 41.1912 56.9414 41.9434 56.7331C43.7992 56.2213 45.6573 55.7177 47.5178 55.2224C48.2908 55.0171 48.6882 55.4635 48.5063 56.3046C48.1682 57.8659 47.8298 59.4265 47.4911 60.9864C46.7714 64.3192 46.0785 67.657 45.3163 70.9809C44.8725 72.931 43.6506 74.2839 41.8406 75.0993C41.29 75.3473 40.8096 75.017 40.8086 74.4049C40.8093 71.6858 40.8106 68.965 40.8125 66.2425Z" fill="#42775B"/>
<path d="M81.6621 51.5691C82.3956 51.5691 83.0797 51.5612 83.7628 51.5791C83.8217 51.5934 83.8769 51.62 83.9247 51.6573C83.9726 51.6946 84.0121 51.7416 84.0405 51.7953C84.9803 53.5146 85.9138 55.2389 86.8411 56.9681C87.5192 58.2338 88.1776 59.5114 88.8458 60.783C88.9018 60.9027 88.9884 61.0054 89.0969 61.0806V51.6039H91.5791V66.7324C90.8871 66.7324 90.1952 66.7443 89.5032 66.7196C89.3994 66.7196 89.2689 66.5569 89.2066 66.4398C87.6665 63.5792 86.1303 60.7165 84.5981 57.8519C84.5121 57.6912 84.4231 57.5325 84.3351 57.3728L84.1977 57.3827C84.1649 57.5464 84.1428 57.7121 84.1315 57.8787C84.1315 60.6401 84.1315 63.4019 84.1315 66.1641V66.7116H81.6602L81.6621 51.5691Z" fill="#42775B"/>
<path d="M68.0288 51.5874H70.4913V52.3482C70.4913 56.9685 70.4913 61.5888 70.4913 66.2091C70.4913 66.7418 70.4913 66.7418 69.9723 66.7418C69.3446 66.7418 68.7159 66.7418 68.0377 66.7418V60.2001H63.7781V66.7021H61.293V51.6023H63.7416C63.7475 51.7372 63.7584 51.8671 63.7584 51.999C63.7584 53.8311 63.7692 55.6632 63.7524 57.4952C63.7524 57.8483 63.8513 57.9624 64.2062 57.9564C65.3331 57.9379 66.46 57.9379 67.587 57.9564C67.9488 57.9624 68.0377 57.8374 68.0348 57.4902C68.0199 55.6711 68.0288 53.8529 68.0288 52.0348V51.5874Z" fill="#42775B"/>
<path d="M38.335 47.4149C38.2173 48.1429 38.1293 48.8105 37.9949 49.4671C37.896 49.977 37.3148 50.1436 36.8433 49.8242C35.5997 48.9811 34.3574 48.137 33.1165 47.2919C30.9971 45.8556 28.8767 44.4206 26.7553 42.987C25.1815 41.9167 23.6167 40.8316 22.0439 39.7583C21.7612 39.5659 21.5378 39.3457 21.5843 38.9737C21.6307 38.6018 21.8808 38.4163 22.211 38.3191C23.0325 38.079 23.851 37.8231 24.6823 37.6158C24.9058 37.5763 25.1359 37.6053 25.3427 37.6991C28.6117 39.0729 31.867 40.4685 35.143 41.8364C35.4229 41.9453 35.6778 42.1101 35.8922 42.3208C36.1067 42.5316 36.2762 42.7839 36.3905 43.0624C36.9589 44.3519 37.5679 45.6245 38.155 46.906C38.2341 47.0856 38.2865 47.278 38.335 47.4149Z" fill="#42775B"/>
<path d="M102.16 54.8353L99.859 55.5495C99.7206 55.2589 99.6277 54.9752 99.4636 54.7391C98.9189 53.9525 97.9156 53.648 96.9597 53.9605C96.1402 54.2303 95.5619 55.0337 95.5579 55.9721C95.55 58.0551 95.5431 60.149 95.5579 62.2369C95.5728 64.0472 97.016 64.9151 98.6688 64.3517C99.3984 64.1037 99.8758 63.3181 99.8956 62.3927C99.9055 61.9076 99.8867 61.4226 99.9045 60.9375C99.9154 60.6687 99.8116 60.5824 99.5556 60.5874C98.9298 60.5983 98.3041 60.5874 97.6576 60.5874V58.4647H102.333C102.333 59.8336 102.344 61.1776 102.326 62.5206C102.313 62.8696 102.259 63.2159 102.165 63.5522C101.653 65.5608 100.046 66.8444 97.9858 66.8384C97.3126 66.8384 96.6087 66.7888 95.9721 66.5894C94.2531 66.0489 93.2863 64.7485 93.1775 63.0096C93.0283 60.6221 93.0945 58.2197 93.0836 55.8243C93.0988 55.5152 93.1435 55.2083 93.2171 54.9077C93.6125 52.8009 95.4106 51.5422 97.3205 51.4777C98.6115 51.4341 99.8017 51.6632 100.802 52.541C101.491 53.1431 101.922 53.9009 102.16 54.8353Z" fill="#42775B"/>
<path d="M72.3234 51.5898H80.718V53.8623H74.8174V57.9291H79.8866C79.8866 58.6512 79.8975 59.3307 79.8708 60.0121C79.8708 60.0816 79.6454 60.1976 79.5228 60.1986C78.1142 60.2115 76.7055 60.2056 75.2969 60.2056H74.8214V64.3874H80.718V66.7214C80.5677 66.7293 80.4372 66.7422 80.3077 66.7422C77.8117 66.7422 75.3156 66.7363 72.8206 66.7561C72.4015 66.7561 72.3145 66.6262 72.3164 66.2255C72.3313 61.5238 72.3253 56.8222 72.3263 52.1195L72.3234 51.5898Z" fill="#42775B"/>
<path d="M102.574 66.7467C102.789 65.9948 102.976 65.3272 103.167 64.6636C104.261 60.8746 105.354 57.0855 106.447 53.2964C106.585 52.8193 106.715 52.3402 106.843 51.8601C106.898 51.6528 106.998 51.5576 107.238 51.5625C107.827 51.5824 108.417 51.5824 109.009 51.5625C109.265 51.5536 109.354 51.6617 109.418 51.8899C110.161 54.4827 110.909 57.0739 111.66 59.6634C112.294 61.8556 112.928 64.0477 113.562 66.2398C113.601 66.3787 113.634 66.5205 113.69 66.7427H112.143C111.108 66.7427 111.102 66.7427 110.826 65.7379C110.65 65.0912 110.481 64.4415 110.332 63.7898C110.278 63.5597 110.199 63.4496 109.937 63.4525C108.663 63.4664 107.389 63.4595 106.061 63.4595C105.899 64.0278 105.735 64.6022 105.573 65.1775C105.475 65.5137 105.353 65.846 105.31 66.1892C105.254 66.6415 105.05 66.7844 104.602 66.7556C103.958 66.7169 103.314 66.7467 102.574 66.7467ZM109.654 61.2277C109.16 59.1447 108.666 57.1003 108.182 55.055L108.083 55.0659C107.594 57.1083 107.104 59.1506 106.606 61.2277H109.654Z" fill="#42775B"/>
<path d="M50.4766 64.2813L52.3973 62.8867C52.9825 63.3668 53.4797 63.8836 54.0778 64.2327C54.7698 64.6414 55.5823 64.5918 56.3514 64.3964C57.0325 64.2238 57.5307 63.5086 57.5624 62.7548C57.6088 61.6756 57.1917 60.9922 56.1478 60.5666C55.2581 60.2026 54.321 59.9447 53.4451 59.5489C52.8728 59.2892 52.3447 58.9407 51.8803 58.5164C50.9501 57.6593 50.8018 56.5028 50.9145 55.3155C51.1517 52.8139 53.1397 51.5095 55.2195 51.4738C56.6223 51.449 57.9538 51.6295 59.0471 52.6125C59.3516 52.8853 59.6096 53.2077 59.918 53.5419C59.2597 54.0974 58.6586 54.6063 58.0161 55.1498C57.8827 54.9981 57.763 54.8582 57.6395 54.7233C56.8862 53.902 55.9234 53.7046 54.8815 53.8613C54.0274 53.9893 53.5371 54.5775 53.4125 55.4891C53.3196 56.1764 53.7091 56.8381 54.4999 57.2031C55.1296 57.4927 55.785 57.7208 56.4463 57.949C57.336 58.2585 58.2128 58.5739 58.9325 59.2186C59.5301 59.7299 59.9292 60.4362 60.0594 61.2134C60.2373 62.3045 60.2492 63.3886 59.7925 64.4232C59.1994 65.7682 58.112 66.4933 56.7122 66.7403C55.3609 66.9783 54.0125 66.9387 52.7364 66.3514C51.7834 65.912 51.0638 65.2068 50.4766 64.2813Z" fill="#42775B"/>
<path d="M112.488 51.582H115.145C115.988 55.2514 116.834 58.9324 117.684 62.6249L117.768 62.6359L120.288 51.59H122.933C122.584 52.9092 122.241 54.2036 121.897 55.4991L119.322 65.1861C119.211 65.6007 119.089 66.0133 118.994 66.4319C118.939 66.6749 118.818 66.7553 118.575 66.7483C117.998 66.7334 117.422 66.7334 116.846 66.7483C116.591 66.7483 116.48 66.6709 116.41 66.4061C115.351 62.3723 114.284 58.3386 113.209 54.3048C112.969 53.4121 112.734 52.5194 112.488 51.582Z" fill="#42775B"/>
<path d="M129.993 66.7139V53.83H126.688V51.5972H135.782V53.8071H132.471V66.7139H129.993Z" fill="#42775B"/>
<path d="M126.053 66.7386C125.29 66.7386 124.555 66.7465 123.821 66.7277C123.743 66.7277 123.657 66.5739 123.597 66.4767C123.568 66.4271 123.59 66.3458 123.59 66.2784C123.59 61.5271 123.59 56.7759 123.59 52.0246V51.6001H126.049L126.053 66.7386Z" fill="#42775B"/>
<path d="M41.5243 32.8152C41.898 32.8013 42.0295 32.9927 41.9366 33.3637C41.6894 34.3556 41.4324 35.3386 41.1803 36.3255C40.6287 38.4809 40.0821 40.6383 39.5176 42.7898C39.4741 42.9564 39.3061 43.0874 39.1963 43.2381C39.0411 43.1151 38.8158 43.0249 38.7406 42.8652C37.7066 40.6681 36.6934 38.4621 35.6762 36.2581C35.5239 35.9288 35.3697 35.6014 35.2224 35.2662C35.0089 34.7881 35.0672 34.6522 35.5684 34.5093C37.0058 34.1046 38.447 33.7019 39.8873 33.2933C40.4528 33.1326 41.0152 32.9649 41.5243 32.8152Z" fill="#507C3D"/>
<path d="M28.6694 47.7871C27.3843 47.7534 26.1052 47.7276 24.824 47.68C24.2309 47.6582 23.6467 47.5808 23.0575 47.5501C22.8114 47.5352 22.6987 47.4251 22.5949 47.1979C21.9108 45.6883 21.2021 44.1895 20.5071 42.6848C20.3913 42.4461 20.2983 42.1971 20.2293 41.9408C20.2017 41.8317 20.2649 41.6016 20.3282 41.5877C20.4933 41.551 20.7236 41.5351 20.8472 41.6204C22.3171 42.6034 23.7722 43.6043 25.2333 44.6051C26.4007 45.3986 27.5702 46.1922 28.7386 46.9857C28.8216 47.0301 28.8944 47.0917 28.9522 47.1662C29.0273 47.2922 29.1499 47.4787 29.1083 47.563C29.0382 47.7058 28.8493 47.7881 28.7129 47.8963L28.6694 47.7871Z" fill="#99AB3D"/>
<path d="M56.6587 74.7638H56.0122V74.3433C56.0122 73.4684 56.0122 72.5925 56.0122 71.7177C56.0122 71.1999 55.8066 70.9043 55.3765 70.7813C54.9465 70.6583 54.388 70.8458 54.1992 71.2336C54.0633 71.505 53.9843 71.8014 53.9669 72.1045C53.9372 72.9764 53.956 73.8503 53.956 74.7539H53.2888C53.2888 74.3353 53.2888 73.9098 53.2888 73.4833C53.2888 72.9179 53.2888 72.3525 53.2888 71.7871C53.2838 71.0581 53.0574 70.7684 52.4792 70.7436C51.886 70.7178 51.3354 71.1741 51.3058 71.7613C51.2593 72.6719 51.2474 73.5844 51.2198 74.496C51.2198 74.5744 51.2099 74.6537 51.203 74.7559H50.6523V70.3479H51.1229C51.1338 70.5145 51.1446 70.6831 51.1614 70.9361C51.2745 70.8682 51.382 70.7912 51.4827 70.7059C52.151 70.0175 53.1286 70.0622 53.7237 70.823C53.9056 71.0571 54.0035 70.9499 54.1508 70.7833C54.7716 70.089 55.8243 70.0017 56.3186 70.6544C56.5205 70.9466 56.6344 71.2909 56.6468 71.6463C56.6854 72.6788 56.6587 73.7124 56.6587 74.7638Z" fill="#B3B3B3"/>
<path d="M70.5986 74.7619H70.0569C70.0411 74.5992 70.0273 74.4573 70.0114 74.2867C69.9304 74.3125 69.8503 74.3125 69.8137 74.3532C69.0713 75.2171 68.0344 74.9126 67.467 74.3334C66.4458 73.2928 66.7008 71.438 67.5025 70.6921C68.0828 70.1525 68.8351 70.0711 69.5033 70.5105C69.6397 70.6008 69.788 70.6732 70.0124 70.8002V68.6299H70.5966L70.5986 74.7619ZM67.4758 72.5231C67.5273 72.8514 67.5332 73.155 67.6281 73.4287C67.7872 73.891 68.0749 74.254 68.6077 74.3215C69.1405 74.3889 69.5656 74.2044 69.8068 73.7114C70.1706 72.9705 70.1142 72.1988 69.8177 71.4499C69.62 70.9539 69.2048 70.7407 68.6156 70.7714C68.3934 70.786 68.1813 70.8705 68.0097 71.013C67.8381 71.1554 67.7156 71.3486 67.6597 71.5649C67.5668 71.8833 67.5312 72.2186 67.4758 72.5231Z" fill="#B3B3B3"/>
<path d="M88.4169 74.761C88.0215 74.8513 87.7477 74.761 87.7091 74.2303C87.545 74.3045 87.3853 74.3879 87.2307 74.4803C86.5753 74.9267 85.8744 75.0189 85.1547 74.6985C84.3382 74.3345 84.2285 73.1333 84.9926 72.675C85.388 72.4409 85.8823 72.3646 86.3331 72.2535C86.7552 72.1543 87.1891 72.0967 87.6043 72.0233C87.7437 71.1306 87.4185 70.7567 86.5713 70.7398C86.0039 70.7279 85.5215 70.8122 85.2605 71.4222C85.2131 71.5333 84.9096 71.5343 84.7247 71.5859L84.611 71.452C84.789 71.1743 84.9165 70.841 85.1538 70.6307C85.7123 70.1347 87.0606 70.1099 87.7309 70.473C88.2647 70.7616 88.2904 71.2516 88.3121 71.7406C88.3408 72.3715 88.3121 73.0053 88.3299 73.6372C88.3398 74.0072 88.3863 74.3761 88.4169 74.761ZM87.5757 72.5441L85.8714 72.8883C85.4127 72.9795 85.2259 73.1859 85.215 73.6084C85.2061 74.0052 85.4197 74.2581 85.8497 74.3533C86.9559 74.5904 87.717 73.8098 87.5757 72.5441Z" fill="#B3B3B3"/>
<path d="M107.748 72.6738C107.701 73.5 107.987 74.0297 108.573 74.2836C109.159 74.5376 109.996 74.3084 110.24 73.748C110.438 73.2868 110.706 73.505 110.982 73.5109C110.909 74.2311 110.068 74.8004 109.401 74.8699C108.107 75.0018 107.127 74.1081 107.034 72.892C106.951 71.7334 107.357 70.7961 108.254 70.3914C108.54 70.2648 108.851 70.2074 109.163 70.224C109.476 70.2405 109.779 70.3305 110.051 70.4866C110.322 70.6427 110.552 70.8606 110.724 71.1227C110.895 71.3848 111.003 71.6837 111.039 71.9953C111.06 72.2046 111.087 72.4139 111.118 72.6708L107.748 72.6738ZM110.385 72.1242C110.333 70.9905 109.484 70.6364 108.737 70.7961C108.126 70.925 107.687 71.5896 107.848 72.1242H110.385Z" fill="#B3B3B3"/>
<path d="M126.353 72.6779C126.278 73.3484 126.509 73.8592 127.024 74.1806C127.239 74.3164 127.487 74.389 127.742 74.3903C127.996 74.3915 128.245 74.3213 128.462 74.1876C128.605 74.1172 128.721 74.0019 128.793 73.8592C128.947 73.4268 129.239 73.395 129.609 73.5091C129.537 74.1737 128.784 74.7986 128.052 74.871C126.241 75.0426 125.344 73.526 125.741 71.8129C125.939 70.9797 126.466 70.4739 127.278 70.2765C127.993 70.1019 128.629 70.3132 129.134 70.8339C129.612 71.3299 129.746 71.9577 129.704 72.6779H126.353ZM128.981 72.1293C128.995 71.2902 128.511 70.7704 127.735 70.7734C126.915 70.7734 126.413 71.2922 126.434 72.1293H128.981Z" fill="#B3B3B3"/>
<path d="M63.8616 72.6898H60.5184C60.4305 73.3961 60.8318 74.1459 61.4437 74.3076C62.017 74.4584 62.7041 74.4564 63.0995 73.6411C63.2339 73.3633 63.4741 73.4288 63.6501 73.5062C63.8953 73.6143 63.7233 73.769 63.6392 73.9257C63.1825 74.7689 62.4105 74.9524 61.5692 74.8561C60.7725 74.7649 60.2051 74.3036 59.9609 73.5042C59.6564 72.5043 59.7434 71.5719 60.4977 70.7943C61.0601 70.213 61.7739 70.0741 62.5163 70.342C63.3189 70.6316 63.7727 71.2476 63.8597 72.1115C63.8765 72.2792 63.8616 72.4537 63.8616 72.6898ZM63.142 72.1393C63.1153 71.2059 62.6329 70.7338 61.7749 70.7655C61.0601 70.7913 60.5619 71.3706 60.6064 72.1393H63.142Z" fill="#B3B3B3"/>
<path d="M117.87 74.765H117.212C117.212 73.9715 117.212 73.1948 117.212 72.4181C117.212 72.2436 117.212 72.068 117.212 71.8934C117.203 71.0999 116.915 70.7378 116.21 70.7527C115.505 70.7676 115.024 71.1029 114.987 71.8914C114.951 72.7514 114.973 73.6134 114.969 74.4754C114.969 74.5656 114.956 74.6569 114.949 74.764H114.34V70.3579C114.864 70.2776 114.864 70.2776 114.922 70.9531C115.108 70.7964 115.253 70.6813 115.391 70.5563C115.997 70.0058 117.239 70.1596 117.64 70.8479C117.763 71.0367 117.84 71.2529 117.862 71.4778C117.883 72.5649 117.87 73.6511 117.87 74.765Z" fill="#B3B3B3"/>
<path d="M81.7024 71.5315L81.1597 71.6496C80.7 70.7568 80.3689 70.5882 79.5158 70.8223C78.9899 70.9661 78.7368 71.3887 78.6923 71.8817C78.6464 72.3875 78.668 72.8972 78.7566 73.3973C78.8821 74.0986 79.2993 74.3723 80.0417 74.3585C80.6595 74.3475 80.9936 74.047 81.1439 73.3665C81.1518 73.3289 81.1646 73.2922 81.1785 73.2445L81.7637 73.317C81.6708 74.2841 80.7939 74.8326 80.1504 74.8673C79.0709 74.9248 78.3453 74.3981 78.1051 73.4687C77.8402 72.4451 77.858 71.4045 78.7714 70.6368C79.3101 70.1835 79.9487 70.1171 80.6111 70.3164C81.2042 70.4989 81.5581 70.9046 81.7024 71.5315Z" fill="#B3B3B3"/>
<path d="M103.724 73.2452L104.299 73.3216C104.235 74.2192 103.392 74.8164 102.731 74.866C101.755 74.9404 100.959 74.4573 100.687 73.6281C100.428 72.8491 100.464 72.0022 100.785 71.2475C101.043 70.6067 101.992 70.1266 102.762 70.2337C103.591 70.3488 104.07 70.7753 104.19 71.5232L103.682 71.6611L103.604 71.4717C103.37 70.9003 102.989 70.691 102.294 70.7505C101.818 70.7922 101.298 71.2594 101.24 71.802C101.18 72.3105 101.182 72.8245 101.247 73.3325C101.346 73.9951 101.848 74.367 102.502 74.367C103.215 74.3581 103.522 74.0833 103.724 73.2452Z" fill="#B3B3B3"/>
<path d="M122.852 70.2984V70.7943L122.138 70.836C122.138 71.8725 122.111 72.8892 122.151 73.904C122.166 74.3007 122.511 74.3007 122.86 74.2224C122.897 74.3821 122.935 74.5467 122.972 74.7044C122.096 75.0853 121.472 74.6886 121.469 73.779C121.469 72.8119 121.469 71.8438 121.469 70.8499L120.926 70.7923V70.3351L121.466 70.2984C121.466 70.0008 121.408 69.6983 121.483 69.4285C121.548 69.2003 121.766 69.0168 121.916 68.8125L122.052 68.8799V70.2994L122.852 70.2984Z" fill="#B3B3B3"/>
<path d="M135.19 70.463C135.168 70.83 135.061 71.0115 134.631 70.9183C133.939 70.7685 133.614 71.3716 133.593 72.057C133.567 72.9427 133.587 73.8295 133.587 74.749H132.945V70.336H133.48C133.492 70.5175 133.504 70.6862 133.524 70.9827C134.004 70.4084 134.475 69.9065 135.19 70.463Z" fill="#B3B3B3"/>
<path d="M92.3358 74.7617H91.7812V68.6426H92.3358V74.7617Z" fill="#B3B3B3"/>
<path d="M74.7296 74.7617H74.1523V70.3735C74.7247 70.2287 74.7376 70.2555 74.7306 70.8566C74.7178 71.9834 74.7306 73.1112 74.7306 74.239L74.7296 74.7617Z" fill="#B3B3B3"/>
<path d="M74.1562 68.623H74.7266C74.9164 69.2777 74.8255 69.3938 74.1562 69.3263V68.623Z" fill="#B3B3B3"/>
<path d="M110.388 72.1245H107.849C107.691 71.5949 108.13 70.9253 108.739 70.7964C109.49 70.6387 110.336 70.9908 110.388 72.1245Z" fill="white"/>
<path d="M128.981 72.1294H126.434C126.413 71.2922 126.915 70.7764 127.735 70.7735C128.511 70.7705 128.995 71.2902 128.981 72.1294Z" fill="white"/>
<path d="M63.1399 72.1351H60.6043C60.5598 71.3663 61.0581 70.7871 61.7728 70.7613C62.6288 70.7295 63.1132 71.2017 63.1399 72.1351Z" fill="white"/>
</g>
<defs>
<clipPath id="clip0_514_9763">
<rect width="115.556" height="42.3704" fill="white" transform="translate(20.2227 32.8149)"/>
</clipPath>
</defs>
</svg>
