<svg width="156" height="108" viewBox="0 0 156 108" fill="none" xmlns="http://www.w3.org/2000/svg">
<rect width="156" height="108" rx="10" fill="white"/>
<path d="M77.6939 88.0646C59.5319 88.3578 44.591 73.5697 43.7059 56.1758C43.1934 46.0793 46.3546 37.309 53.4424 30.0982C60.1442 23.2873 68.3833 19.8951 77.9402 19.9285C96.4083 19.9951 111.842 35.0498 111.762 54.1898C111.682 73.7163 95.47 88.4245 77.6939 88.0646ZM77.6873 87.778C95.5165 88.1313 111.476 73.2765 111.469 54.0232C111.462 35.4164 96.4882 20.335 77.9934 20.2217C68.4898 20.1617 60.2973 23.5339 53.6354 30.3248C46.6475 37.4423 43.4996 46.1126 43.992 56.0758C44.8506 73.5297 59.7981 88.0713 77.6873 87.778Z" fill="#262627"/>
<path d="M77.6866 87.7783C59.7974 88.0716 44.8565 73.53 43.9913 56.0761C43.4988 46.1129 46.6467 37.4426 53.6347 30.3184C60.2965 23.5342 68.4891 20.162 77.9927 20.222C96.4875 20.3419 111.455 35.4233 111.468 54.0235C111.475 73.2767 95.5158 88.1315 77.6866 87.7783ZM61.7274 56.1694C61.7474 56.1494 61.7673 56.1294 61.794 56.1027C61.8539 56.0094 61.9137 55.9228 61.9803 55.8295C62.0602 55.8428 62.1467 55.8495 62.2199 55.8695C63.3779 56.2294 64.5625 56.3627 65.7671 56.3893C66.1265 56.396 66.4726 56.3293 66.7388 56.0294C67.1115 55.6096 67.0715 55.1564 66.8852 54.6832C66.8918 54.6433 66.8985 54.6033 66.9051 54.57C67.7903 54.57 68.6688 54.57 69.5539 54.57C69.5672 54.5366 69.5739 54.5033 69.5872 54.4633C69.5206 54.43 69.4541 54.3767 69.3809 54.3634C69.1746 54.3367 68.9616 54.33 68.7553 54.3034C68.5224 54.2701 68.3959 54.1101 68.3892 53.8902C68.3759 53.397 68.3826 52.9039 68.3826 52.3774C68.4824 52.424 68.5556 52.4574 68.6222 52.4973C70.053 53.3104 71.4972 54.0901 73.1078 54.49C73.6735 54.6299 74.2658 54.6499 74.8514 54.6766C75.0578 54.6832 75.2707 54.5433 75.477 54.4633C75.4637 54.43 75.4571 54.39 75.4438 54.3567C75.3972 54.35 75.3506 54.3367 75.3107 54.35C74.8514 54.4966 74.3856 54.4833 73.9463 54.2967C73.0146 53.9102 72.0962 53.497 71.1711 53.0905C71.1378 53.0771 71.1179 53.0438 71.058 52.9905C71.2976 52.9572 71.4906 52.9305 71.6836 52.9039C73.5603 52.6373 75.0178 51.0045 75.0711 49.1252C75.1243 47.2658 73.5004 45.5265 71.5837 45.3399C70.5123 45.2399 69.5672 45.5331 68.6821 46.0996C68.5956 46.1529 68.4957 46.2062 68.3626 46.2795C68.3626 45.9463 68.3626 45.6864 68.3626 45.4132C67.8768 45.4132 67.4176 45.4065 66.9517 45.4198C66.8785 45.4198 66.8053 45.4865 66.7321 45.5198C66.8053 45.5531 66.8785 45.6131 66.9517 45.6198C67.5507 45.6931 67.6572 45.813 67.6638 46.4261C67.6638 46.4395 67.6638 46.4461 67.6638 46.4595C67.6638 48.9852 67.6638 51.511 67.6638 54.0301C67.6638 54.1301 67.6638 54.2301 67.6638 54.37C67.3644 54.37 67.1115 54.37 66.8586 54.37C66.8053 54.2834 66.7521 54.1968 66.6988 54.1035C66.7188 53.7836 66.7321 53.457 66.7521 53.1371C66.772 52.8772 66.8253 52.6173 66.812 52.3641C66.792 51.9575 66.4992 51.7243 66.1997 51.5044C66.4127 50.7446 66.5325 49.9849 66.3927 49.1985C65.9002 46.3995 63.2448 44.6934 60.4563 45.2532C57.701 45.8064 55.6911 48.3988 56.5297 51.4311C55.7244 51.4777 55.4848 52.1708 55.598 52.8705C55.6579 53.2371 55.6778 53.6103 55.7178 53.9768C55.6645 54.1101 55.5913 54.2434 55.558 54.3834C55.4848 54.6766 55.3517 54.9765 55.3717 55.263C55.4116 55.9628 55.8376 56.3027 56.6029 56.3027C57.8474 56.3027 59.0653 56.1094 60.2566 55.7629C60.3365 55.8895 60.4097 56.0228 60.4895 56.1494C60.5361 56.1894 60.5827 56.2294 60.6293 56.2694C60.6692 56.296 60.7092 56.3227 60.7491 56.3427C61.0952 56.5426 61.4479 56.4959 61.6808 56.2094C61.6875 56.2094 61.7074 56.1894 61.7274 56.1694ZM99.662 66.4658C99.642 66.4391 99.6154 66.4125 99.5954 66.3858C99.7219 65.8793 99.855 65.3795 99.9814 64.873C99.9548 64.853 99.9216 64.833 99.8949 64.813C99.7884 64.8797 99.6154 64.933 99.5888 65.0196C99.4557 65.5261 99.3359 66.0326 99.256 66.5524C99.2294 66.7524 99.4158 66.8723 99.6021 66.739C99.8084 66.5857 99.9748 66.3792 100.154 66.1925C100.221 66.1192 100.274 66.0326 100.328 65.946C100.367 66.0726 100.314 66.1792 100.347 66.2525C100.394 66.3592 100.501 66.5058 100.587 66.5058C100.847 66.5124 101.273 66.0459 101.332 65.6994C101.139 65.8593 100.98 65.9926 100.82 66.1259C100.793 66.1126 100.767 66.0993 100.74 66.0859C100.8 65.846 100.867 65.6128 100.926 65.3728C100.986 65.1329 101.053 64.8997 101.119 64.6531C100.753 64.5731 100.674 64.813 100.56 65.0063C100.268 65.4928 99.9615 65.9793 99.662 66.4658ZM47.1658 61.5942C49.7214 73.4767 61.7673 86.4455 79.5101 85.4858C88.1618 85.0193 95.3761 81.4006 101.179 75.0161C104.667 71.1775 107.016 66.6724 108.254 61.6008C107.801 61.5209 107.808 61.5209 107.688 61.8874C107.322 63.007 107.003 64.1466 106.583 65.2462C105.525 67.9919 104.194 70.611 102.324 72.8969C101.153 74.3297 99.855 75.6692 98.5439 76.9821C97.1796 78.355 95.6223 79.4946 93.9518 80.4809C91.1766 82.1136 88.2816 83.4665 85.1337 84.1729C83.6296 84.5128 82.0923 84.7194 80.5549 84.926C78.7647 85.1659 76.9545 85.1326 75.1576 84.966C73.3274 84.7994 71.5305 84.4861 69.7469 84.0263C67.2179 83.3732 64.7821 82.4802 62.526 81.1473C59.5312 79.3813 56.8292 77.262 54.4999 74.6429C52.4434 72.3304 50.8129 69.778 49.5284 66.9856C48.7631 65.3262 48.1575 63.6068 47.6583 61.8541C47.5785 61.5475 47.4254 61.5075 47.1658 61.5942ZM106.098 40.5215C102.198 31.7779 91.7556 22.0014 76.3954 22.5545C68.5357 22.8411 61.7474 25.8134 56.0106 31.1715C53.1622 33.8305 50.9127 36.9561 49.2423 40.5215C49.7281 40.5749 49.7347 40.5749 49.9411 40.215C50.0276 40.0617 50.1074 39.8951 50.2006 39.7418C50.7863 38.7288 51.3253 37.6892 51.9709 36.7162C53.6347 34.2171 55.6379 32.0112 57.9473 30.0919C60.1901 28.2258 62.6458 26.7064 65.3279 25.5534C68.2561 24.2939 71.3109 23.4875 74.4854 23.1609C77.2606 22.8744 80.0225 22.9477 82.7711 23.4009C85.8991 23.914 88.8739 24.9137 91.7024 26.3398C96.7271 28.8789 100.72 32.5577 103.782 37.2627C104.394 38.2023 104.9 39.222 105.425 40.215C105.585 40.5082 105.765 40.6215 106.098 40.5215ZM75.9695 54.4567C75.9762 54.4966 75.9895 54.53 75.9961 54.57C76.848 54.57 77.6999 54.57 78.5517 54.5633C78.5983 54.5633 78.6449 54.4966 78.6915 54.4567C78.6382 54.43 78.585 54.3767 78.5251 54.37C78.2988 54.3434 78.0592 54.35 77.8396 54.2901C77.7198 54.2567 77.5535 54.1101 77.5468 54.0101C77.5202 53.4837 77.5335 52.9505 77.5335 52.3907C77.6 52.4307 77.6533 52.4574 77.7065 52.484C79.1507 53.3171 80.6282 54.0701 82.2387 54.5166C82.8909 54.6966 83.5564 54.8165 84.2286 54.6299C84.3551 54.5966 84.4682 54.5033 84.6146 54.43C84.1088 54.41 83.6429 54.49 83.2569 54.35C82.2387 53.9835 81.2604 53.5237 80.2688 53.0905C80.2488 53.0838 80.2488 53.0372 80.2355 52.9905C81.0341 52.9305 81.7728 52.7106 82.4317 52.2708C84.4216 50.9512 84.7743 48.2588 83.1305 46.5661C81.8594 45.2532 79.8428 44.8534 77.9727 45.9996C77.8263 46.0863 77.6799 46.1796 77.4869 46.2929C77.4869 45.973 77.4869 45.7131 77.4869 45.4398C76.9279 45.4398 76.3954 45.4398 75.863 45.4398C75.8497 45.4665 75.8431 45.4931 75.8298 45.5198C75.8963 45.5531 75.9629 45.6131 76.0294 45.6264C76.6949 45.7197 76.7548 45.793 76.7548 46.4728C76.7548 48.9986 76.7548 51.5177 76.7548 54.0435C76.7548 54.1434 76.7548 54.2434 76.7548 54.3167C76.482 54.4433 76.1825 54.2434 75.9695 54.4567ZM100.427 54.8365C101.426 54.8432 102.337 54.5633 103.189 54.0701C105.665 52.6306 106.331 49.4051 104.613 47.1126C103.129 45.1333 100.341 44.5934 98.0381 45.833C95.8885 46.9993 94.9435 49.4384 95.7554 51.7243C96.4209 53.5636 98.291 54.8165 100.427 54.8365ZM51.2122 51.6776C51.8578 51.9042 52.4368 51.5377 52.5366 50.9179C52.6164 50.3848 52.4101 49.9649 52.0241 49.625C51.4185 49.1052 50.2272 49.0785 49.4685 49.565C47.9245 50.5514 47.7981 52.8039 49.2156 53.9902C50.7131 55.243 53.2553 55.0698 54.5731 53.6236C55.3917 52.7239 55.5447 51.4377 54.9391 50.5047C54.5997 49.9782 54.1006 49.6184 53.5748 49.3051C52.9958 48.9652 52.4035 48.6387 51.8178 48.3055C51.4385 48.0856 51.1257 47.7923 50.9194 47.3925C50.58 46.726 50.8329 45.9396 51.4917 45.6131C52.1439 45.2932 52.856 45.5198 53.1422 46.1729C53.2354 46.3795 53.262 46.6194 53.2687 46.8527C53.2886 47.3458 53.2753 47.8456 53.2753 48.3388C53.3152 48.3521 53.3485 48.3655 53.3884 48.3788C53.4217 48.3055 53.4883 48.2322 53.4883 48.1589C53.4949 47.6857 53.4949 47.2059 53.4949 46.7327C53.4949 46.1129 53.4949 45.4931 53.4949 44.8334C53.1222 44.9133 53.3951 45.2332 53.2354 45.3598C53.0158 45.3065 52.7961 45.2332 52.5699 45.1932C51.5516 45 50.0409 45.8197 50.3537 47.3791C50.5067 48.1455 51.0192 48.5987 51.6448 48.9652C52.3303 49.3718 53.0424 49.7516 53.7012 50.2048C54.6063 50.8313 54.8925 51.7909 54.5265 52.7239C53.8343 54.49 51.3985 55.1031 49.9078 53.8769C48.7564 52.9239 48.5235 51.2045 49.4086 50.1048C50.0276 49.3318 51.1124 49.2851 51.6781 50.0049C52.104 50.5514 51.9975 51.0845 51.4052 51.451C51.3253 51.4977 51.2854 51.591 51.2122 51.6776ZM91.0236 51.711C91.4628 51.8176 91.7956 51.7643 92.0618 51.471C92.3746 51.1312 92.4478 50.7246 92.288 50.2981C91.9819 49.4717 91.0302 49.0319 90.0586 49.2651C89.0536 49.4984 88.4014 50.1315 88.1352 51.1112C87.8623 52.0908 88.0687 53.0038 88.7741 53.7569C90.2649 55.343 93.2531 55.1564 94.5575 53.417C95.223 52.524 95.3361 51.3111 94.7105 50.498C94.3578 50.0449 93.8786 49.665 93.3928 49.3385C92.7672 48.9119 92.0817 48.5787 91.4362 48.1855C91.0169 47.9323 90.7241 47.5591 90.6176 47.0659C90.4579 46.3328 90.937 45.6064 91.6425 45.5065C92.4278 45.3865 93.0001 45.8263 93.0734 46.6394C93.1199 47.1326 93.0933 47.6324 93.1133 48.1255C93.1133 48.2055 93.1865 48.2788 93.2264 48.3588C93.2531 48.2788 93.313 48.2055 93.313 48.1255C93.3196 47.0992 93.3196 46.0729 93.313 45.0533C93.313 44.9933 93.2996 44.9333 93.293 44.8334C92.9735 44.9333 93.1998 45.2132 93.0667 45.3665C92.8604 45.3132 92.6408 45.2465 92.4145 45.1999C91.4562 44.9933 90.378 45.6597 90.165 46.5927C89.9787 47.4058 90.3514 48.2722 91.13 48.7587C91.902 49.2451 92.714 49.6783 93.4727 50.1915C94.1781 50.6713 94.5907 51.3378 94.451 52.2374C94.278 53.3371 93.5792 53.9835 92.5809 54.3434C90.977 54.9298 89.2 54.0368 88.7808 52.444C88.5079 51.4177 88.814 50.3448 89.5328 49.7983C90.1717 49.3118 91.0502 49.4118 91.5094 50.0249C91.902 50.5514 91.7823 51.1245 91.2166 51.4577C91.13 51.4977 91.0968 51.6043 91.0236 51.711ZM85.1404 45.4265C85.1271 45.4665 85.1204 45.4998 85.1071 45.5398C85.1803 45.5731 85.2535 45.6198 85.3334 45.6331C85.9323 45.7064 86.0255 45.8064 86.0255 46.4128C86.0255 48.9586 86.0255 51.5044 86.0255 54.0501C86.0255 54.1501 86.0122 54.2501 86.0055 54.3634C85.7793 54.3634 85.5796 54.3567 85.38 54.37C85.3334 54.37 85.2934 54.43 85.2469 54.4567C85.2868 54.49 85.3201 54.5633 85.36 54.5633C86.1253 54.57 86.8907 54.57 87.656 54.57C87.6693 54.5366 87.676 54.5033 87.6893 54.47C87.6228 54.4367 87.5495 54.3767 87.483 54.37C86.8574 54.2967 86.7709 54.2034 86.7709 53.577C86.7709 51.1578 86.7709 48.7387 86.7709 46.3195C86.7709 46.1129 86.6977 45.833 86.7975 45.7131C86.8907 45.5998 87.1835 45.6531 87.3832 45.6397C87.3965 45.6397 87.4098 45.6464 87.4164 45.6397C87.463 45.6131 87.5096 45.5798 87.5495 45.5531C87.503 45.5131 87.4564 45.4465 87.4098 45.4465C86.6511 45.4265 85.8991 45.4265 85.1404 45.4265ZM78.9444 67.8453C78.9577 67.8853 78.971 67.9186 78.9843 67.9586C79.144 67.9586 79.357 68.0252 79.4568 67.9453C79.8695 67.6054 80.2754 67.2455 80.4684 66.7124C80.6415 66.2192 80.4551 65.9126 79.936 65.9726C78.6915 66.0992 77.6599 66.6591 76.9478 67.6987C76.5419 68.2985 76.6883 68.845 77.3006 69.2381C77.6732 69.4781 78.0726 69.6713 78.4386 69.9179C78.9377 70.2511 79.0043 70.671 78.6516 71.1575C78.2988 71.644 77.7864 71.8839 77.2273 72.0372C76.5552 72.2171 75.8763 72.2038 75.1909 72.0838C74.8381 72.0238 74.7383 72.1171 74.7183 72.4637C75.7632 72.6903 77.3738 72.4437 78.2456 71.8439C78.5983 71.604 78.9111 71.2441 79.1174 70.8776C79.4635 70.2645 79.2505 69.7047 78.6316 69.3581C78.3121 69.1782 77.9727 69.0249 77.6599 68.8383C77.0743 68.4851 77.0011 68.0586 77.4536 67.5321C77.9594 66.9456 78.605 66.5458 79.3437 66.3125C79.5234 66.2592 79.7164 66.2325 79.9027 66.2325C80.2488 66.2259 80.3486 66.3592 80.1689 66.659C80.0225 66.9056 79.7962 67.1056 79.5833 67.3055C79.3903 67.4988 79.164 67.672 78.9444 67.8453ZM80.1956 56.376C79.1906 56.0161 78.2057 55.9095 77.2207 56.3227C75.6101 57.0024 75.2308 59.2483 76.5552 60.3879C77.5668 61.2543 78.7248 61.2476 79.9094 60.7811C80.0491 60.7278 80.149 60.5679 80.2688 60.4546C80.2421 60.4279 80.2222 60.4012 80.1956 60.3746C80.149 60.3946 80.109 60.4146 80.0625 60.4412C78.4785 61.3276 76.6883 60.4412 76.4953 58.6419C76.4088 57.8488 76.6084 57.1091 77.3338 56.6559C78.0859 56.1827 78.8778 56.2227 79.6432 56.6226C79.7563 56.6825 79.8096 56.8758 79.8695 57.0224C79.9094 57.1291 79.9094 57.249 79.9294 57.3623C79.9693 57.3623 80.0092 57.3556 80.0491 57.3556C80.0891 57.0424 80.1423 56.7292 80.1956 56.376ZM97.0465 62.2339C96.6139 62.3339 96.4209 62.5805 96.3344 62.9204C95.9551 64.3998 95.5824 65.8793 95.2163 67.3588C95.1831 67.4854 95.1897 67.6187 95.1764 67.7587C95.5025 67.6787 95.5557 67.6187 95.7022 67.3455C95.9085 66.9456 96.1347 66.5524 96.3677 66.1592C96.4409 66.0393 96.5673 65.9526 96.6672 65.8527C96.6938 65.8727 96.7138 65.8927 96.7404 65.9127C96.7071 66.0326 96.6738 66.1526 96.6339 66.2659C96.5474 66.5324 96.4342 66.799 96.3677 67.0722C96.3144 67.2855 96.381 67.4654 96.6339 67.4788C96.9334 67.4921 97.4325 66.9989 97.4858 66.5924C97.2528 66.819 97.0532 67.0123 96.8535 67.2055C96.8003 67.1122 96.7936 67.0589 96.8136 67.0123C96.9068 66.779 97.0265 66.5524 97.0998 66.3125C97.173 66.0593 97.2462 65.746 96.96 65.5994C96.7004 65.4661 96.5274 65.7327 96.361 65.906C96.2346 66.0393 96.1281 66.1859 96.015 66.3258C95.9883 66.3125 95.9551 66.2925 95.9284 66.2792C96.2878 64.953 96.6605 63.6268 97.0465 62.2339ZM82.7711 58.9684C82.2853 59.0884 81.8261 59.1883 81.3735 59.3216C80.9543 59.4482 80.7945 59.7881 80.7679 60.1946C80.7479 60.5079 80.8478 60.7878 81.1539 60.9277C81.5266 61.101 81.886 61.0943 82.2121 60.8144C82.3718 60.6745 82.5582 60.5545 82.7778 60.3946C82.7778 60.6278 82.7778 60.7878 82.7778 60.9411C83.1305 60.9411 83.4499 60.9411 83.8559 60.9411C83.7494 60.8677 83.7162 60.8278 83.6895 60.8278C83.3368 60.8278 83.2969 60.6012 83.3102 60.3213C83.3302 59.8348 83.3302 59.3483 83.3435 58.8684C83.3634 58.262 83.0839 57.8888 82.5249 57.7688C82.059 57.6689 81.6597 57.8155 81.2604 58.0354C80.9742 58.1954 81.0408 58.4019 81.0874 58.6485C81.2737 58.4486 81.4002 58.2087 81.5932 58.1354C81.8061 58.0554 82.0923 58.0754 82.3252 58.1354C82.6713 58.222 82.7911 58.5019 82.7711 58.9684ZM85.1736 69.9846C85.147 69.8646 85.1337 69.8379 85.1404 69.8046C85.147 69.7313 85.1603 69.658 85.167 69.5847C85.2668 68.8583 85.5996 68.2318 85.9323 67.5921C86.3117 66.879 86.6378 66.1326 86.9439 65.3862C87.0571 65.1063 87.0637 64.773 87.0837 64.4598C87.0903 64.3732 86.9905 64.2399 86.904 64.1999C86.8441 64.1733 86.711 64.2466 86.6378 64.3065C86.5646 64.3599 86.5047 64.4465 86.4648 64.5265C86.2052 65.0863 85.9124 65.6394 85.6994 66.2192C85.34 67.2255 85.0339 68.2452 84.7078 69.2781C84.7144 69.3714 84.7344 69.4847 84.7344 69.598C84.7411 69.8246 84.7344 70.0445 84.7344 70.2645C85.2668 70.3044 85.8059 69.8579 85.8059 69.3781C85.5996 69.578 85.4066 69.7646 85.1736 69.9846ZM89.3598 59.2883C89.4929 58.322 88.9804 57.7089 88.1086 57.7222C87.5096 57.7288 87.0038 57.9821 86.7176 58.5086C86.3915 59.115 86.3915 59.7615 86.731 60.3813C87.1968 61.241 88.5012 61.2076 89.1335 60.7411C89.2067 60.6878 89.24 60.5812 89.2866 60.5012C88.6676 60.8011 88.0753 60.9144 87.5229 60.4479C87.1902 60.168 87.1036 59.7748 87.117 59.295C87.8823 59.2883 88.6144 59.2883 89.3598 59.2883ZM85.9323 60.9344C85.9323 60.9077 85.939 60.8811 85.939 60.8544C85.7992 60.8344 85.6528 60.8278 85.5264 60.7811C85.4265 60.7411 85.2868 60.6412 85.2801 60.5679C85.2602 59.8081 85.2668 59.055 85.2668 58.2687C85.5463 58.2687 85.8192 58.2687 86.1054 58.2687C86.1187 58.1554 86.132 58.0687 86.1453 57.9488C85.8259 57.9488 85.5397 57.9488 85.2469 57.9488C85.2469 57.5822 85.2335 57.2423 85.2469 56.9091C85.2668 56.456 85.5796 56.256 86.0055 56.4026C86.0921 56.4293 86.1719 56.4693 86.2784 56.5093C86.2784 56.316 86.2784 56.1494 86.2784 55.9295C86.0921 55.9495 85.8724 55.9028 85.7526 55.9895C85.2402 56.3693 84.6945 56.7625 84.7211 57.5089C84.7344 57.8288 84.6679 58.0621 84.3284 58.1487C84.2885 58.162 84.2619 58.2287 84.202 58.3086C84.395 58.3086 84.5414 58.3086 84.6679 58.3086C84.6679 59.075 84.6745 59.8214 84.6612 60.5679C84.6612 60.6412 84.5347 60.7278 84.4482 60.7744C84.3551 60.8278 84.2419 60.8344 84.1354 60.8677C84.1421 60.8877 84.1487 60.9077 84.1554 60.9277C84.7544 60.9344 85.3467 60.9344 85.9323 60.9344ZM79.723 71.524C79.763 71.5507 79.7962 71.5773 79.8362 71.5973C79.9493 71.484 80.0957 71.3907 80.1689 71.2574C80.3886 70.8642 80.5683 70.4444 80.7812 70.0445C80.8677 69.8846 81.0075 69.7513 81.1206 69.6114C81.1539 69.6313 81.1872 69.6513 81.2205 69.6713C81.0541 70.2045 80.881 70.731 80.7147 71.2641C81.1007 71.3641 81.2005 71.1175 81.3203 70.9109C81.5399 70.5177 81.7462 70.1112 81.9658 69.718C82.0391 69.5914 82.1389 69.4847 82.2321 69.3714C82.2587 69.3848 82.2853 69.3981 82.3053 69.4181C82.2786 69.5181 82.2587 69.6114 82.2321 69.7113C82.1522 70.0245 82.0657 70.3444 82.0058 70.6643C81.9858 70.751 82.0257 70.8976 82.0923 70.9442C82.1522 70.9842 82.3053 70.9575 82.3718 70.9042C82.5848 70.7376 82.7844 70.5444 82.9774 70.3511C83.0307 70.2978 83.024 70.1978 83.044 70.1178C82.9907 70.0712 82.9308 70.0312 82.8776 69.9846C82.7578 70.1912 82.638 70.4044 82.5182 70.611C82.4983 70.5843 82.4716 70.5644 82.4517 70.5377C82.5249 70.1845 82.6114 69.8246 82.658 69.4647C82.6713 69.3514 82.5914 69.1515 82.5182 69.1315C82.3984 69.0982 82.2187 69.1448 82.1189 69.2248C81.9858 69.3314 81.8993 69.5047 81.7995 69.6513C81.7396 69.738 81.6797 69.8246 81.6464 69.8779C81.5599 69.698 81.5199 69.4514 81.3935 69.3914C81.1473 69.2715 80.9742 69.4781 80.8345 69.678C80.7679 69.7713 80.6947 69.8646 80.6215 69.9579C80.6015 69.9446 80.5816 69.9379 80.5616 69.9246C80.5616 69.798 80.5616 69.6647 80.5616 69.5314C80.2488 69.578 80.1157 69.7646 80.0558 70.0445C79.9959 70.3444 79.9027 70.6377 79.8362 70.9309C79.7962 71.1175 79.763 71.3241 79.723 71.524ZM91.2631 66.9989C90.9237 66.9523 90.8173 67.1589 90.7174 67.3721C90.5244 67.792 90.3381 68.2118 90.1384 68.6317C90.0918 68.725 89.9853 68.785 89.9055 68.8583C89.8789 68.8383 89.8522 68.8183 89.8256 68.7983C89.9654 68.2718 90.1051 67.7387 90.2449 67.2122C90.2116 67.1922 90.185 67.1722 90.1517 67.1455C90.0186 67.2655 89.8256 67.3655 89.7724 67.5121C89.6393 67.8786 89.5461 68.2585 89.4929 68.645C89.4729 68.7983 89.5927 68.9782 89.6526 69.1449C89.8123 69.0649 89.9987 69.0182 90.1318 68.9049C90.2848 68.7716 90.3847 68.585 90.5311 68.3851C90.5577 68.4784 90.571 68.5184 90.5843 68.5517C90.7307 68.9716 90.9104 69.0449 91.2099 68.725C91.5094 68.4051 91.7556 68.0319 91.9686 67.652C92.115 67.3855 92.1749 67.0722 92.2814 66.7524C91.9087 66.719 91.8555 66.939 91.7823 67.1455C91.6425 67.5387 91.516 67.9386 91.343 68.3185C91.2898 68.4451 91.13 68.5251 91.0169 68.625C90.9836 68.605 90.9437 68.5784 90.9104 68.5584C91.0236 68.0386 91.1434 67.5254 91.2631 66.9989ZM95.3095 65.6194C95.2829 65.5928 95.2629 65.5594 95.2363 65.5328C95.1165 65.5528 94.9967 65.5661 94.837 65.5928C94.9302 65.2529 95.0233 64.9663 95.0832 64.6731C95.1099 64.5598 95.0633 64.4332 95.0433 64.3132C94.9235 64.3865 94.7904 64.4398 94.6906 64.5331C94.6307 64.5931 94.6307 64.7064 94.5907 64.793C94.431 65.1862 94.5575 65.7127 93.9918 65.9193C94.1116 66.0126 94.1781 66.0726 94.2513 66.1326C94.1981 66.3058 94.1315 66.4591 94.0983 66.6257C94.0117 67.0123 93.9119 67.4055 93.872 67.7987C93.8387 68.0985 94.0583 68.2185 94.2979 68.0452C94.5774 67.8386 94.8037 67.5721 95.0566 67.3388C95.0233 67.2988 94.9901 67.2522 94.9568 67.2122C94.7438 67.3855 94.5308 67.5521 94.3179 67.7253C94.4111 67.1655 94.5641 66.6724 94.6972 66.1792C94.7438 65.9926 94.8237 65.8927 95.0167 65.846C95.1232 65.806 95.2097 65.6927 95.3095 65.6194ZM86.518 69.6713C86.4914 69.6313 86.4714 69.5914 86.4448 69.5514C86.5646 69.4647 86.691 69.3848 86.7975 69.2848C87.0837 69.0116 87.3765 68.745 87.6228 68.4384C87.7026 68.3385 87.6893 68.0852 87.6161 67.9719C87.5629 67.892 87.3166 67.9053 87.1769 67.9386C86.6112 68.0786 85.9323 69.0515 86.0189 69.6247C86.0388 69.7446 86.1786 69.9112 86.2917 69.9379C86.7243 70.0512 87.4963 69.4647 87.5828 68.9782C87.1968 69.1715 87.0304 69.7313 86.518 69.6713ZM102.344 64.7064C102.397 64.8997 102.47 65.033 102.457 65.1596C102.431 65.3928 102.384 65.6327 102.284 65.8393C102.264 65.8793 101.985 65.7994 101.825 65.7794C101.785 65.7727 101.732 65.7527 101.698 65.7727C101.619 65.8193 101.505 65.8727 101.479 65.9526C101.459 66.0059 101.532 66.1326 101.599 66.1726C101.679 66.2192 101.798 66.2459 101.898 66.2325C102.67 66.1326 103.069 65.4595 102.79 64.7331C102.703 64.5198 102.624 64.3332 102.823 64.1333C102.876 64.08 102.85 63.9533 102.856 63.86C102.75 63.88 102.644 63.8867 102.55 63.9333C102.49 63.96 102.464 64.0466 102.424 64.1133C102.231 64.4132 102.038 64.7064 101.845 65.0063C101.772 65.1263 101.712 65.2595 101.645 65.3862C101.672 65.4062 101.705 65.4195 101.732 65.4395C101.918 65.1996 102.104 64.9796 102.344 64.7064ZM106.597 46.3062C106.697 46.1662 106.77 46.0663 106.83 45.9596C107.182 45.3598 107.282 44.7401 106.963 44.1003C106.923 44.0203 106.816 43.9203 106.75 43.9203C106.504 43.9203 106.237 44.4868 106.364 44.7134C106.563 45.0599 106.663 45.4265 106.603 45.833C106.583 45.973 106.597 46.1129 106.597 46.3062ZM105.572 47.0926C105.598 47.0992 105.632 47.1059 105.658 47.1126C105.771 46.9193 105.911 46.7327 105.998 46.5194C106.217 45.993 106.244 45.4531 105.971 44.9333C105.931 44.8534 105.831 44.7534 105.751 44.7534C105.572 44.7534 105.226 45.2999 105.319 45.4465C105.652 45.9663 105.698 46.5128 105.572 47.0926ZM92.5742 68.3785C93.0201 68.4118 93.5193 67.9519 93.5658 67.4188C93.3662 67.632 93.2065 67.812 93.0401 67.9919C93.0135 67.9786 92.9935 67.9586 92.9669 67.9453C93.0401 67.6987 93.1199 67.4454 93.1865 67.1989C93.2531 66.9523 93.313 66.7057 93.3862 66.4325C92.8671 66.5458 92.4078 67.7054 92.5742 68.3785ZM83.2902 70.6243C83.7361 70.6776 84.2818 70.1778 84.2885 69.6713C84.1088 69.8779 83.9491 70.0579 83.7894 70.2378C83.7627 70.2245 83.7361 70.2111 83.7095 70.1978C83.8426 69.7113 83.9824 69.2248 84.1155 68.7383C84.0888 68.7183 84.0622 68.6917 84.0356 68.6717C83.9092 68.745 83.7162 68.7916 83.6696 68.8983C83.43 69.4514 83.2436 70.0112 83.2902 70.6243ZM49.5351 44.7667C49.0626 45.1333 49.0958 46.5728 49.7347 47.1059C49.6416 46.6261 49.6416 46.1596 49.8412 45.7131C50.0342 45.2865 49.961 45.0533 49.5351 44.7667ZM48.6433 43.907C48.1575 44.4868 48.2506 45.6331 48.7564 46.1862C48.8163 45.7797 48.8496 45.3065 48.9761 44.8534C49.1025 44.4135 49.0692 44.1869 48.6433 43.907ZM78.7447 24.0206C78.758 23.854 78.7647 23.7141 78.778 23.5342C78.4785 23.5208 78.2057 23.5075 77.9128 23.4875C77.9128 23.6874 77.9128 23.8474 77.9128 24.0206C78.1924 24.0206 78.4519 24.0206 78.7447 24.0206ZM94.7105 29.3121C94.8237 29.1522 94.9102 29.0256 95.01 28.8789C94.7372 28.7123 94.4976 28.5591 94.2447 28.3991C94.1515 28.5657 94.0716 28.699 93.9851 28.8523C94.2247 29.0056 94.451 29.1522 94.7105 29.3121ZM79.9959 83.9663C79.9959 84.1529 79.9959 84.3062 79.9959 84.4795C80.302 84.4528 80.5816 84.4262 80.8944 84.3995C80.8677 84.2262 80.8478 84.073 80.8278 83.9197C80.7679 83.913 80.7147 83.9063 80.6614 83.9063C80.4485 83.9263 80.2288 83.9463 79.9959 83.9663ZM82.7911 84.1529C82.6979 83.6131 82.3718 83.5265 81.8327 83.8464C81.8594 83.973 81.886 84.1063 81.9193 84.2795C82.2121 84.2329 82.4916 84.1929 82.7911 84.1529ZM90.6775 26.9996C90.957 27.1196 91.2166 27.2329 91.4828 27.3461C91.5626 27.1862 91.6292 27.0463 91.7024 26.8996C91.4162 26.7664 91.1567 26.6397 90.8771 26.5064C90.8106 26.6731 90.7574 26.813 90.6775 26.9996ZM96.3743 77.5153C96.1281 77.7152 95.9151 77.8885 95.6822 78.0751C95.802 78.2217 95.8952 78.3283 95.995 78.4549C96.2346 78.2817 96.4475 78.1217 96.7004 77.9351C96.5873 77.7952 96.4941 77.6685 96.3743 77.5153ZM100.334 34.3704C100.467 34.2437 100.587 34.1304 100.707 34.0171C100.501 33.7772 100.321 33.5706 100.141 33.364C99.7352 33.6306 99.7352 33.6573 100.008 33.9905C100.101 34.1104 100.201 34.2171 100.334 34.3704ZM86.2318 25.2402C86.2718 25.0536 86.305 24.9137 86.3383 24.7537C86.0455 24.6738 85.766 24.5938 85.4731 24.5138C85.4399 24.7071 85.4066 24.8604 85.3733 25.0403C85.6728 25.1069 85.9323 25.1669 86.2318 25.2402ZM88.0287 25.84C88.0886 25.6534 88.1352 25.5135 88.1885 25.3535C87.9089 25.2602 87.6494 25.1736 87.3765 25.0803C87.31 25.2402 87.2501 25.3935 87.1902 25.5534C87.4763 25.6534 87.7292 25.74 88.0287 25.84ZM89.992 26.0799C89.6925 25.96 89.4463 25.86 89.2 25.7667C88.8872 26.1666 88.8939 26.2199 89.3331 26.3798C89.4662 26.4265 89.606 26.4731 89.7524 26.5264C89.8256 26.3732 89.8988 26.2465 89.992 26.0799ZM93.1399 28.2858C93.4061 27.7993 93.3329 27.6994 92.6075 27.4461C92.5409 27.5794 92.4677 27.7127 92.3879 27.866C92.6541 28.0192 92.887 28.1459 93.1399 28.2858ZM69.5339 82.9334C69.2478 82.8534 68.9949 82.7801 68.7087 82.7001C68.6555 82.8867 68.6155 83.04 68.5689 83.1999C68.8751 83.2799 69.1413 83.3532 69.4208 83.4265C69.4674 83.2466 69.5007 83.1 69.5339 82.9334ZM57.6877 77.0754C57.8075 76.9155 57.9007 76.7888 57.9872 76.6689C57.7742 76.4756 57.5945 76.3157 57.3949 76.1357C57.2751 76.2424 57.1619 76.3557 57.0089 76.4956C57.2418 76.6955 57.4481 76.8688 57.6877 77.0754ZM56.5962 75.3627C56.3899 75.1694 56.1969 74.9761 56.0239 74.8162C55.8908 74.9228 55.771 75.0161 55.598 75.1627C55.8176 75.376 56.0172 75.5693 56.2369 75.7825C56.3766 75.6226 56.4765 75.5093 56.5962 75.3627ZM101.625 72.1171C101.452 72.3504 101.286 72.5703 101.106 72.8102C101.253 72.9169 101.372 73.0035 101.519 73.1101C101.698 72.8702 101.872 72.6436 102.058 72.3904C101.898 72.2904 101.765 72.2104 101.625 72.1171ZM53.5681 71.8706C53.4217 71.9705 53.2953 72.0505 53.1422 72.1571C53.3352 72.4104 53.5082 72.6303 53.6746 72.8436C54.1139 72.637 54.1272 72.6036 53.8676 72.2504C53.7811 72.1371 53.6879 72.0238 53.5681 71.8706ZM99.0763 32.8909C99.1695 32.8176 99.2827 32.7309 99.4091 32.631C99.2028 32.3844 99.0231 32.1645 98.8368 31.9445C98.6504 32.1245 98.5506 32.2178 98.4308 32.3311C98.6637 32.5243 98.8767 32.7109 99.0763 32.8909ZM83.7095 83.4532C83.7428 83.6331 83.7761 83.7797 83.8093 83.9597C84.1155 83.893 84.3817 83.833 84.6745 83.7731C84.6213 83.5798 84.5813 83.4332 84.5414 83.2866C84.2486 83.3399 84.0023 83.3932 83.7095 83.4532ZM74.918 23.6541C74.5985 23.6808 74.319 23.7074 74.0262 23.7341C74.0395 23.9207 74.0528 24.074 74.0661 24.2406C74.3723 24.2072 74.6451 24.1739 74.918 24.1406C74.918 23.974 74.918 23.8407 74.918 23.6541ZM98.0315 31.2714C97.7919 31.0782 97.5723 30.8916 97.3393 30.6983C97.2329 30.8316 97.133 30.9449 97.0265 31.0782C97.2528 31.2781 97.4658 31.4647 97.6854 31.6646C97.8119 31.5247 97.9117 31.4114 98.0315 31.2714ZM92.521 80.1343C92.6075 80.2876 92.6807 80.4209 92.7672 80.5742C92.9269 80.4875 93.0667 80.4209 93.1998 80.3409C93.5792 80.1143 93.5858 80.041 93.2198 79.7278C93.0068 79.8478 92.7805 79.9811 92.521 80.1343ZM106.251 64.7597C106.35 64.4598 106.437 64.1932 106.53 63.9067C106.364 63.8667 106.217 63.8267 106.044 63.7867C105.958 64.0733 105.871 64.3399 105.785 64.6131C105.951 64.6664 106.084 64.7131 106.251 64.7597ZM106.876 62.9404C106.956 62.6405 107.023 62.3739 107.096 62.094C106.916 62.0473 106.77 62.0074 106.617 61.9674C106.537 62.2606 106.464 62.5338 106.39 62.8137C106.557 62.8537 106.697 62.8937 106.876 62.9404ZM84.3484 24.7471C84.4016 24.5738 84.4416 24.4338 84.4948 24.2739C84.1953 24.2139 83.9158 24.1539 83.6163 24.094C83.5831 24.2672 83.5564 24.4072 83.5298 24.5805C83.816 24.6404 84.0755 24.6937 84.3484 24.7471ZM60.7158 79.4079C60.8156 79.2546 60.8888 79.1347 60.9887 78.9814C60.7358 78.8148 60.4962 78.6549 60.2499 78.4949C60.1501 78.6549 60.0703 78.7681 59.9771 78.9148C60.2366 79.0814 60.4696 79.2347 60.7158 79.4079ZM62.4395 28.1925C62.3397 28.0192 62.2665 27.886 62.18 27.7327C61.9137 27.8993 61.6742 28.0526 61.408 28.2192C61.5277 28.3791 61.6143 28.4924 61.7008 28.6124C61.9603 28.4724 62.1866 28.3391 62.4395 28.1925ZM91.8488 81.0607C91.7823 80.9007 91.729 80.7741 91.6625 80.6275C91.3696 80.7674 91.1167 80.8941 90.8439 81.0274C90.9237 81.1806 90.9903 81.3206 91.0568 81.4605C91.3364 81.3206 91.5759 81.2006 91.8488 81.0607ZM70.4324 83.7131C70.7252 83.7731 70.9981 83.833 71.2909 83.893C71.3308 83.7064 71.3575 83.5665 71.3841 83.3999C71.0913 83.3399 70.8117 83.2799 70.5189 83.2133C70.4923 83.3865 70.4657 83.5265 70.4324 83.7131ZM51.9509 69.4714C51.7979 69.1982 51.6581 68.9516 51.5183 68.6917C51.3852 68.765 51.2455 68.8383 51.0791 68.9249C51.2322 69.1915 51.3719 69.4447 51.5117 69.698C51.6847 69.6114 51.7979 69.5514 51.9509 69.4714ZM51.8311 38.8088C51.3985 38.4556 51.312 38.5089 51.0125 39.2953C51.139 39.3753 51.2654 39.4619 51.4119 39.5619C51.5649 39.2886 51.698 39.0487 51.8311 38.8088ZM52.47 70.2778C52.3635 70.4711 52.0175 70.4177 52.1439 70.7176C52.2371 70.9309 52.3968 71.1108 52.5366 71.3108C52.6896 71.1908 52.8094 71.1042 52.9226 71.0175C52.9093 70.9709 52.9026 70.9376 52.8893 70.9176C52.7695 70.7243 52.6431 70.5377 52.47 70.2778ZM95.1365 79.088C94.8769 78.6282 94.5442 78.6815 94.1715 79.1947C94.2513 79.3013 94.3245 79.4146 94.4244 79.5545C94.6706 79.3946 94.8969 79.248 95.1365 79.088ZM104.168 69.1915C103.995 69.1049 103.868 69.0449 103.715 68.9716C103.569 69.2182 103.429 69.4514 103.282 69.698C103.429 69.7846 103.555 69.8646 103.708 69.9579C103.868 69.6913 104.008 69.4581 104.168 69.1915ZM89.9121 81.4805C89.7724 81.5338 89.6459 81.5805 89.5261 81.6338C89.3997 81.6871 89.2732 81.7538 89.1468 81.8071C89.2732 82.3136 89.6127 82.3269 90.1051 81.8671C90.0519 81.7471 89.9853 81.6205 89.9121 81.4805ZM88.1618 82.1736C87.869 82.2803 87.6161 82.3669 87.3566 82.4602C87.4165 82.6335 87.463 82.7801 87.5163 82.94C87.8024 82.8267 88.062 82.7268 88.3482 82.6135C88.2883 82.4669 88.2284 82.3336 88.1618 82.1736ZM82.5848 24.4072C82.5582 24.2139 82.5781 23.954 82.5049 23.9273C82.2786 23.8407 82.0191 23.8141 81.7795 23.8274C81.7263 23.8274 81.6863 24.0873 81.6264 24.2606C81.9658 24.3139 82.2387 24.3539 82.5848 24.4072ZM72.1295 24.0206C72.1561 24.1939 72.1827 24.3472 72.2093 24.5205C72.5088 24.4672 72.7817 24.4205 73.0745 24.3672C73.0545 24.1873 73.0346 24.034 73.0146 23.874C72.7085 23.9207 72.4356 23.9673 72.1295 24.0206ZM104.061 38.7422C103.908 38.4689 103.768 38.229 103.622 37.9758C103.469 38.0557 103.349 38.1224 103.189 38.2023C103.342 38.4756 103.475 38.7155 103.615 38.9687C103.768 38.8888 103.895 38.8221 104.061 38.7422ZM54.5997 34.8635C54.806 34.6103 54.979 34.4037 55.1521 34.1904C55.0323 34.0771 54.9324 33.9838 54.8127 33.8705C54.613 34.0838 54.42 34.2904 54.2137 34.517C54.3601 34.6436 54.4732 34.7436 54.5997 34.8635ZM101.918 35.4966C101.732 35.27 101.559 35.0568 101.339 34.7769C101.206 34.9235 101.106 35.0368 100.993 35.1567C101.193 35.4033 101.366 35.6099 101.539 35.8232C101.672 35.7099 101.785 35.6099 101.918 35.4966ZM97.8185 76.3023C97.5856 76.5089 97.3859 76.6822 97.1929 76.8555C97.4724 77.2887 97.4858 77.2953 97.8252 76.9754C97.9316 76.8755 98.0381 76.7822 98.1513 76.6755C98.0381 76.5489 97.945 76.4423 97.8185 76.3023ZM53.0757 36.0098C53.3685 36.3897 53.435 36.3897 53.7012 36.0298C53.7944 35.9098 53.8676 35.7765 53.9608 35.6299C53.821 35.53 53.7079 35.45 53.5748 35.35C53.3951 35.5899 53.2354 35.8032 53.0757 36.0098ZM50.2139 66.0859C50.0808 65.7994 49.9677 65.5528 49.8412 65.2862C49.6815 65.3462 49.5417 65.4062 49.3887 65.4661C49.5151 65.7594 49.6283 66.0259 49.7481 66.2925C49.9144 66.2192 50.0475 66.1592 50.2139 66.0859ZM64.9818 81.8004C65.248 81.9204 65.5076 82.0337 65.7937 82.167C65.8603 81.9804 65.9135 81.8337 65.9668 81.6805C65.6806 81.5605 65.421 81.4605 65.1681 81.3539C65.1016 81.5072 65.055 81.6338 64.9818 81.8004ZM57.2152 32.0912C57.4415 31.8912 57.6411 31.7113 57.8807 31.4914C57.7476 31.3647 57.6345 31.2581 57.5014 31.1382C57.2751 31.3514 57.0754 31.538 56.8625 31.7379C57.0022 31.8646 57.0954 31.9645 57.2152 32.0912ZM66.7454 26.0666C67.0249 25.9666 67.2845 25.8667 67.564 25.7667C67.5041 25.6001 67.4509 25.4601 67.391 25.2869C67.0981 25.4002 66.8452 25.5068 66.5724 25.6134C66.6323 25.78 66.6855 25.9067 66.7454 26.0666ZM85.7061 83.5065C85.9989 83.4265 86.2651 83.3532 86.5446 83.2799C86.4781 83.1 86.4315 82.9533 86.3716 82.7867C86.0921 82.88 85.8325 82.9667 85.5663 83.0533C85.6062 83.1999 85.6462 83.3266 85.7061 83.5065ZM102.238 71.2708C102.391 71.3774 102.51 71.4574 102.663 71.564C102.837 71.3174 102.99 71.0908 103.156 70.8509C103.016 70.7443 102.903 70.6577 102.763 70.551C102.584 70.7909 102.431 71.0042 102.238 71.2708ZM55.8775 33.4374C56.0838 33.2108 56.2701 33.0108 56.4565 32.8042C56.33 32.6909 56.2236 32.591 56.0905 32.4577C55.8908 32.6843 55.7045 32.8975 55.5048 33.1241C55.6446 33.2441 55.7444 33.3307 55.8775 33.4374ZM73.2409 83.7331C72.9281 83.6864 72.6552 83.6531 72.3691 83.6131C72.3424 83.7931 72.3291 83.9397 72.3025 84.0996C72.6153 84.1396 72.8882 84.1729 73.1876 84.2062C73.2076 84.033 73.2209 83.8997 73.2409 83.7331ZM69.3676 25.1669C69.3143 25.0003 69.281 24.8737 69.2278 24.7204C68.9483 24.8004 68.6821 24.867 68.4159 24.9403C68.4491 25.4268 68.4891 25.4601 68.8884 25.3335C69.0415 25.2869 69.1879 25.2336 69.3676 25.1669ZM105.379 65.5861C105.279 65.8393 105.173 66.0926 105.066 66.3592C105.159 66.3991 105.226 66.4325 105.292 66.4525C105.366 66.4791 105.445 66.4924 105.532 66.5124C105.598 66.3592 105.658 66.2259 105.718 66.0859C105.871 65.7061 105.845 65.6527 105.379 65.5861ZM71.2111 24.7137C71.1711 24.5405 71.1445 24.3939 71.1046 24.2272C70.8051 24.3005 70.5322 24.3672 70.2394 24.4405C70.2793 24.6138 70.3126 24.7471 70.3525 24.9003C70.6454 24.8404 70.9182 24.7804 71.2111 24.7137ZM66.9251 82.087C66.8519 82.2803 66.8053 82.4135 66.7521 82.5602C67.0382 82.6601 67.3045 82.7534 67.584 82.8601C67.6372 82.6868 67.6771 82.5402 67.7304 82.3736C67.4575 82.2736 67.2046 82.1803 66.9251 82.087ZM78.0859 84.0463C78.0726 84.2262 78.0659 84.3795 78.0592 84.5328C78.3853 84.5328 78.6649 84.5328 78.9777 84.5328C78.9577 84.3529 78.9444 84.1996 78.9311 84.0463C78.6516 84.0463 78.3987 84.0463 78.0859 84.0463ZM48.1841 61.8074C48.2839 62.114 48.3704 62.3739 48.4636 62.6538C48.63 62.5938 48.7631 62.5472 48.9162 62.4938C48.8296 62.2006 48.7498 61.9474 48.6633 61.6741C48.4969 61.7208 48.3571 61.7608 48.1841 61.8074ZM64.2763 80.9074C63.9902 80.7608 63.7439 80.6342 63.4777 80.5009C63.4045 80.6608 63.3446 80.8008 63.2781 80.954C63.5443 81.0873 63.7772 81.2073 64.0434 81.3406C64.1166 81.194 64.1832 81.074 64.2763 80.9074ZM100.421 73.6033C100.234 73.8232 100.061 74.0298 99.8816 74.2431C100.035 74.3564 100.148 74.443 100.288 74.5563C100.481 74.3297 100.66 74.1164 100.847 73.8965C100.687 73.7899 100.574 73.7099 100.421 73.6033ZM63.0851 27.2195C63.3313 27.7194 63.5443 27.706 64.0634 27.1995C64.0101 27.0862 63.9502 26.9663 63.8837 26.8197C63.6108 26.953 63.3579 27.0862 63.0851 27.2195ZM49.5085 64.3265C49.3953 64.0266 49.2955 63.7734 49.189 63.5068C49.0426 63.5668 48.9162 63.6201 48.7498 63.6934C48.8429 63.96 48.9295 64.2132 49.0226 64.4931C49.1957 64.4332 49.3421 64.3798 49.5085 64.3265ZM103.063 37.0894C102.883 36.8362 102.717 36.6096 102.544 36.363C102.397 36.4696 102.277 36.5563 102.151 36.6429C102.331 36.8961 102.497 37.1161 102.67 37.356C102.803 37.2627 102.916 37.1827 103.063 37.0894ZM50.6066 68.0252C50.7596 67.9319 50.8861 67.8586 51.0192 67.7787C50.8728 67.5054 50.7463 67.2722 50.6199 67.0189C50.4668 67.0856 50.3404 67.1455 50.1873 67.2122C50.3271 67.4854 50.4602 67.7453 50.6066 68.0252ZM52.4234 36.9295C52.277 37.156 52.124 37.3893 51.9576 37.6425C52.1506 37.7159 52.2903 37.7758 52.4234 37.8291C52.9226 37.216 52.9226 37.1427 52.4234 36.9295ZM65.0084 26.813C65.2946 26.6864 65.5408 26.5798 65.7937 26.4665C65.7272 26.2998 65.6739 26.1666 65.614 26.0133C65.3412 26.1332 65.0816 26.2399 64.8021 26.3598C64.8753 26.5131 64.9352 26.6397 65.0084 26.813ZM58.6594 30.8449C58.879 30.6517 59.0786 30.4851 59.2849 30.3051C59.1785 30.1718 59.0853 30.0652 58.9722 29.9252C58.7459 30.1118 58.5263 30.2785 58.3066 30.4651C58.4397 30.5983 58.5329 30.705 58.6594 30.8449ZM104.234 68.0719C104.394 68.1452 104.52 68.2118 104.667 68.2851C104.8 68.0052 104.92 67.7587 105.053 67.4854C104.893 67.4121 104.753 67.3521 104.607 67.2855C104.48 67.5521 104.361 67.7987 104.234 68.0719ZM96.5407 30.0585C96.3011 29.8719 96.0882 29.6987 95.8486 29.5121C95.7421 29.6587 95.6556 29.772 95.5624 29.8986C95.7887 30.0852 96.0016 30.2585 96.2146 30.4384C96.3278 30.2984 96.4209 30.1918 96.5407 30.0585ZM59.824 29.2921C59.9505 29.4454 60.0503 29.5587 60.1501 29.6853C60.3964 29.5187 60.6027 29.3721 60.8223 29.2188C60.7225 29.0722 60.636 28.9456 60.5295 28.7923C60.2965 28.9589 60.0769 29.1122 59.824 29.2921ZM62.3863 80.4342C62.3796 80.2076 62.6991 80.0877 62.4395 79.9011C62.2465 79.7611 62.0269 79.6678 61.8006 79.5479C61.7207 79.7145 61.6609 79.8411 61.5943 79.9877C61.8539 80.1277 62.0868 80.261 62.3863 80.4342ZM54.9324 74.323C55.3318 74.0498 55.3318 74.0365 55.0589 73.7232C54.9591 73.61 54.8592 73.49 54.7528 73.37C54.6063 73.4767 54.4799 73.5633 54.3335 73.6699C54.5331 73.8965 54.7261 74.1031 54.9324 74.323ZM75.9629 23.5541C75.9629 23.7341 75.9629 23.874 75.9629 24.014C76.2557 24.014 76.5219 24.014 76.8081 24.014C76.8214 23.854 76.828 23.7141 76.8347 23.5541C76.5419 23.5541 76.2623 23.5541 75.9629 23.5541ZM80.7014 23.6741C80.3819 23.6408 80.1024 23.6141 79.8029 23.5808C79.8029 23.7607 79.8029 23.9007 79.8029 24.0673C80.0758 24.094 80.342 24.1273 80.6215 24.1539C80.6481 23.9873 80.6747 23.854 80.7014 23.6741ZM76.1226 84.5328C76.442 84.5328 76.7215 84.5328 76.9944 84.5328C77.0676 84.053 77.061 84.0463 76.6151 84.0396C76.4687 84.0396 76.3289 84.0396 76.1559 84.0396C76.1426 84.1996 76.1359 84.3462 76.1226 84.5328ZM74.2392 84.3862C74.5187 84.4062 74.7982 84.4195 75.0711 84.4395C75.1775 83.9397 74.9313 83.7997 74.2392 83.9463C74.2392 84.0796 74.2392 84.2129 74.2392 84.3862ZM104.168 39.8484C104.414 40.4816 104.414 40.4816 104.986 40.4282C104.84 40.155 104.707 39.9084 104.56 39.6418C104.414 39.7152 104.301 39.7751 104.168 39.8484ZM99.5555 75.356C99.4024 75.2094 99.296 75.1094 99.2228 75.0428C98.9965 75.256 98.7968 75.436 98.5839 75.6359C98.7037 75.7425 98.8168 75.8425 98.8833 75.9025C99.1229 75.7092 99.3359 75.5359 99.5555 75.356ZM84.6412 67.812C84.4482 67.6854 84.3484 67.5721 84.2552 67.5721C84.0356 67.5721 83.8959 67.7253 83.9358 67.9453C83.9491 68.0319 84.1354 68.1785 84.1887 68.1585C84.3218 68.1052 84.4349 67.9786 84.6412 67.812ZM93.8054 65.3728C93.5059 65.2795 93.313 65.3129 93.2131 65.5195C93.1732 65.6128 93.1865 65.7927 93.2531 65.8527C93.3196 65.9126 93.5326 65.9126 93.5792 65.8527C93.6856 65.726 93.7322 65.5461 93.8054 65.3728ZM58.5795 77.7218C58.7658 77.8751 58.9455 78.0084 59.1319 78.1617C59.2051 78.0617 59.265 77.9818 59.3382 77.8818C59.1452 77.7352 58.9655 77.6019 58.7792 77.4619C58.6993 77.5619 58.646 77.6352 58.5795 77.7218Z" fill="#FDFDFD"/>
<path d="M47.1641 61.5941C47.4236 61.5074 47.5767 61.5474 47.6632 61.8606C48.1623 63.6133 48.7613 65.3327 49.5333 66.9922C50.8244 69.7845 52.4549 72.337 54.5047 74.6495C56.8341 77.2686 59.5361 79.3878 62.5309 81.1539C64.787 82.4867 67.2228 83.3798 69.7518 84.0329C71.5287 84.4927 73.3323 84.8059 75.1625 84.9725C76.9594 85.1325 78.7696 85.1725 80.5598 84.9326C82.0905 84.726 83.6279 84.5194 85.1386 84.1795C88.2865 83.4731 91.1815 82.1135 93.9567 80.4874C95.6272 79.5078 97.1845 78.3682 98.5488 76.9887C99.8532 75.6691 101.151 74.3363 102.329 72.9034C104.199 70.6176 105.53 68.0051 106.588 65.2528C107.014 64.1532 107.334 63.0136 107.693 61.8939C107.813 61.5274 107.806 61.5274 108.259 61.6074C107.021 66.6789 104.672 71.1774 101.184 75.0227C95.3876 81.4071 88.1667 85.0259 79.515 85.4924C61.7722 86.4454 49.7197 73.4766 47.1641 61.5941Z" fill="#252525"/>
<path d="M106.097 40.5209C105.765 40.6142 105.585 40.5076 105.432 40.2144C104.9 39.2214 104.4 38.2018 103.788 37.2621C100.727 32.5571 96.727 28.8784 91.709 26.3392C88.8805 24.9064 85.9056 23.9134 82.7777 23.4003C80.0291 22.9471 77.2672 22.8738 74.492 23.1604C71.3175 23.4936 68.2627 24.2933 65.3344 25.5529C62.6457 26.7124 60.19 28.2319 57.9472 30.0979C55.6378 32.0173 53.6346 34.2165 51.9708 36.7223C51.3253 37.6953 50.7862 38.7349 50.2005 39.7479C50.114 39.9012 50.0342 40.0611 49.941 40.2211C49.7347 40.5809 49.728 40.5809 49.2422 40.5276C50.9126 36.9689 53.1621 33.8433 56.0105 31.1775C61.7406 25.8194 68.5356 22.8471 76.3954 22.5606C91.7556 22.0008 102.198 31.7773 106.097 40.5209Z" fill="#252525"/>
<path d="M75.9714 54.4564C76.1843 54.2431 76.4905 54.4497 76.7766 54.3231C76.7766 54.2498 76.7766 54.1498 76.7766 54.0498C76.7766 51.5241 76.7766 49.0049 76.7766 46.4792C76.7766 45.7994 76.7101 45.7328 76.0512 45.6328C75.978 45.6195 75.9181 45.5661 75.8516 45.5262C75.8649 45.4995 75.8715 45.4728 75.8848 45.4462C76.4173 45.4462 76.9497 45.4462 77.5087 45.4462C77.5087 45.7194 77.5087 45.9793 77.5087 46.2992C77.7017 46.1793 77.8481 46.0926 77.9945 46.006C79.858 44.8597 81.8745 45.2596 83.1523 46.5725C84.7961 48.2652 84.4434 50.9576 82.4535 52.2771C81.788 52.717 81.0559 52.9369 80.2573 52.9969C80.2706 53.0435 80.2706 53.0902 80.2906 53.0968C81.2822 53.5234 82.2672 53.9899 83.2788 54.3564C83.6648 54.4964 84.1306 54.4164 84.6364 54.4364C84.49 54.5163 84.3769 54.603 84.2504 54.6363C83.5782 54.8229 82.9127 54.703 82.2605 54.523C80.6433 54.0765 79.1658 53.3234 77.7283 52.4904C77.6751 52.4637 77.6218 52.4304 77.5553 52.3971C77.5553 52.9569 77.542 53.49 77.5686 54.0165C77.5753 54.1165 77.7416 54.2631 77.8614 54.2964C78.081 54.3564 78.3206 54.3431 78.5469 54.3764C78.6068 54.3831 78.6534 54.4297 78.7133 54.463C78.6667 54.503 78.6201 54.5697 78.5735 54.5697C77.7217 54.5763 76.8698 54.5763 76.0179 54.5763C75.9847 54.5297 75.978 54.4897 75.9714 54.4564ZM77.4954 51.7107C77.6485 51.7506 77.7616 51.7507 77.8481 51.7973C78.1409 51.9572 78.4205 52.1505 78.7199 52.3105C79.9977 52.9769 81.4086 52.797 82.4069 51.8506C83.9909 50.3445 83.7446 47.6587 81.9078 46.3592C80.5302 45.3795 78.7333 45.5128 77.6418 46.6724C77.5753 46.7457 77.502 46.8457 77.502 46.9323C77.4887 48.5318 77.4954 50.1379 77.4954 51.7107Z" fill="#232222"/>
<path d="M66.8452 54.3832C67.0981 54.3832 67.351 54.3832 67.6505 54.3832C67.6505 54.2499 67.6505 54.1433 67.6505 54.0433C67.6505 51.5175 67.6505 48.9917 67.6505 46.4726C67.6505 46.4593 67.6505 46.4526 67.6505 46.4393C67.6438 45.8262 67.5373 45.7062 66.9384 45.6329C66.8585 45.6262 66.792 45.5663 66.7188 45.5329C66.792 45.4996 66.8652 45.433 66.9384 45.433C67.3976 45.4263 67.8634 45.4263 68.3493 45.4263C68.3493 45.7062 68.3493 45.9661 68.3493 46.2927C68.489 46.2127 68.5822 46.1661 68.6687 46.1127C69.5539 45.5529 70.4989 45.253 71.5704 45.353C73.4804 45.5396 75.1043 47.279 75.0577 49.1384C75.0045 51.0177 73.547 52.6438 71.6702 52.917C71.4772 52.9437 71.2842 52.9703 71.0446 53.0037C71.1045 53.057 71.1245 53.0903 71.1578 53.1036C72.0828 53.5102 73.0012 53.9233 73.933 54.3099C74.3722 54.4898 74.8314 54.5031 75.2973 54.3632C75.3372 54.3499 75.3838 54.3699 75.4304 54.3699C75.4437 54.4032 75.4504 54.4432 75.4637 54.4765C75.2574 54.5498 75.0444 54.6964 74.8381 54.6897C74.2524 54.6631 73.6535 54.6498 73.0944 54.5031C71.4905 54.1033 70.0397 53.3236 68.6088 52.5105C68.5423 52.4705 68.4691 52.4372 68.3692 52.3905C68.3692 52.917 68.3626 53.4102 68.3759 53.9034C68.3825 54.1233 68.509 54.2832 68.7419 54.3165C68.9482 54.3432 69.1612 54.3499 69.3675 54.3765C69.4407 54.3898 69.5073 54.4432 69.5738 54.4765C69.5605 54.5098 69.5539 54.5431 69.5405 54.5831C68.6554 54.5831 67.7769 54.5831 66.8918 54.5831C66.8785 54.5098 66.8585 54.4432 66.8452 54.3832ZM68.3559 51.7041C68.5023 51.7374 68.6155 51.7441 68.7086 51.7908C69.0414 51.9707 69.3542 52.184 69.6936 52.3506C71.2243 53.097 72.9214 52.5905 73.7999 51.1776C74.9046 49.4116 74.1393 46.9858 72.2692 46.0528C70.9781 45.4063 69.4341 45.6662 68.5157 46.6592C68.4358 46.7459 68.3626 46.8725 68.3626 46.9791C68.3559 48.5652 68.3559 50.1513 68.3559 51.7041Z" fill="#232222"/>
<path d="M100.427 54.8359C98.2903 54.8159 96.4201 53.5697 95.7613 51.7237C94.9493 49.4445 95.8944 46.9987 98.044 45.8324C100.347 44.5862 103.135 45.126 104.619 47.112C106.336 49.4045 105.671 52.63 103.195 54.0695C102.337 54.5627 101.425 54.8426 100.427 54.8359ZM96.2005 49.851C96.1872 50.6907 96.3536 51.4038 96.8594 52.2902C97.6447 53.6697 99.2153 54.7626 101.272 54.4894C102.789 54.2895 104.267 52.9699 104.693 51.3971C105.125 49.771 104.732 48.3249 103.701 47.0453C102.303 45.3259 99.8609 44.9461 98.0773 46.179C96.7995 47.0653 96.2205 48.3249 96.2005 49.851Z" fill="#252525"/>
<path d="M51.2133 51.6778C51.2865 51.5845 51.3264 51.4978 51.3996 51.4512C51.9986 51.0846 52.0984 50.5448 51.6725 50.005C51.1068 49.2853 50.022 49.3319 49.4031 50.105C48.5179 51.2046 48.7509 52.9307 49.9022 53.877C51.393 55.1032 53.8288 54.4968 54.5209 52.7241C54.887 51.7911 54.6008 50.8314 53.6957 50.2049C53.0368 49.7518 52.3314 49.3719 51.6392 48.9654C51.0136 48.5922 50.5012 48.139 50.3481 47.3793C50.0353 45.8198 51.5461 45.0068 52.5643 45.1934C52.7906 45.2334 53.0102 45.3067 53.2298 45.36C53.3962 45.2267 53.1233 44.9068 53.4894 44.8335C53.4894 45.4933 53.4894 46.113 53.4894 46.7328C53.4894 47.206 53.496 47.6858 53.4827 48.159C53.4827 48.2323 53.4162 48.3056 53.3829 48.3789C53.343 48.3656 53.3097 48.3523 53.2698 48.3389C53.2698 47.8458 53.2831 47.3459 53.2631 46.8528C53.2564 46.6262 53.2232 46.3796 53.1366 46.173C52.8505 45.5199 52.1384 45.2867 51.4862 45.6132C50.8273 45.9398 50.5744 46.7262 50.9138 47.3926C51.1135 47.7925 51.4263 48.0857 51.8123 48.3056C52.3979 48.6388 52.9902 48.9654 53.5692 49.3053C54.1016 49.6185 54.5941 49.9784 54.9335 50.5048C55.5392 51.4379 55.3861 52.7307 54.5675 53.6238C53.2498 55.0632 50.7075 55.2365 49.2101 53.9903C47.7859 52.804 47.919 50.5515 49.463 49.5652C50.2217 49.0787 51.413 49.0987 52.0186 49.6252C52.4112 49.965 52.6175 50.3849 52.531 50.918C52.4379 51.5378 51.8589 51.9044 51.2133 51.6778Z" fill="#252525"/>
<path d="M91.0256 51.7111C91.0988 51.6045 91.1387 51.5045 91.2052 51.4578C91.7709 51.1246 91.8907 50.5515 91.4981 50.025C91.0389 49.4119 90.167 49.3119 89.5215 49.7984C88.8027 50.3449 88.5032 51.4179 88.7694 52.4442C89.1887 54.0369 90.9657 54.93 92.5696 54.3435C93.5678 53.977 94.2666 53.3372 94.4397 52.2376C94.5794 51.3379 94.1668 50.6648 93.4613 50.1916C92.7027 49.6785 91.8907 49.2519 91.1187 48.7588C90.3401 48.2656 89.9674 47.4059 90.1537 46.5929C90.3667 45.6599 91.4382 44.9934 92.4032 45.2C92.6294 45.2467 92.8491 45.3133 93.0554 45.3666C93.1885 45.2067 92.9622 44.9335 93.2817 44.8335C93.295 44.9268 93.3016 44.9934 93.3016 45.0534C93.3016 46.0797 93.3016 47.106 93.3016 48.1257C93.3016 48.2056 93.2484 48.279 93.2151 48.3589C93.1752 48.279 93.1086 48.2056 93.102 48.1257C93.082 47.6325 93.102 47.1327 93.062 46.6395C92.9888 45.8265 92.4098 45.3866 91.6312 45.5066C90.9257 45.6132 90.4465 46.333 90.6063 47.066C90.7128 47.5592 91.0122 47.9257 91.4249 48.1857C92.0704 48.5789 92.7626 48.9121 93.3815 49.3386C93.8607 49.6651 94.3465 50.0383 94.6992 50.4982C95.3248 51.3112 95.2117 52.5241 94.5461 53.4172C93.2417 55.1565 90.2536 55.3431 88.7628 53.757C88.0573 53.004 87.851 52.091 88.1239 51.1113C88.3968 50.1316 89.0423 49.4985 90.0472 49.2653C91.0189 49.0387 91.9706 49.4719 92.2767 50.2982C92.4364 50.7248 92.3632 51.1313 92.0505 51.4712C91.7976 51.7644 91.4648 51.8177 91.0256 51.7111Z" fill="#242324"/>
<path d="M60.2374 55.7827C59.0462 56.1292 57.8283 56.3292 56.5837 56.3225C55.8117 56.3225 55.3858 55.9826 55.3525 55.2829C55.3392 54.9896 55.4657 54.6898 55.5389 54.4032C55.5788 54.2632 55.6454 54.1299 55.6986 53.9967C55.7718 53.9433 55.8517 53.89 55.9249 53.8367C56.1445 53.6768 56.3375 53.4569 56.5837 53.3769C57.0563 53.2103 57.5155 53.3169 57.9747 53.5368C58.6003 53.8434 59.2525 54.09 59.898 54.3432C60.0777 54.4165 60.2574 54.4098 60.3173 54.1633C60.3772 54.1766 60.4304 54.1899 60.5037 54.2033C60.1842 54.6698 60.1043 55.1629 60.2774 55.6894C60.2641 55.7227 60.2508 55.7494 60.2374 55.7827ZM56.5571 55.5428C57.2825 55.7427 57.9946 55.7161 58.6934 55.4095C57.9813 55.4561 57.2692 55.4961 56.5571 55.5428Z" fill="#17A159"/>
<path d="M56.5128 51.444C55.6742 48.4118 57.6841 45.8193 60.4393 45.2662C63.2345 44.7064 65.8833 46.4125 66.3758 49.2115C66.5155 50.0045 66.3957 50.7643 66.1828 51.5174C65.9565 51.5174 65.7302 51.5107 65.504 51.5107C65.9964 49.6913 65.5572 48.0986 64.2661 46.7657C62.183 44.6198 58.7689 45.1929 57.4778 47.8853C56.9121 49.0649 56.9188 50.2845 57.3247 51.5107C57.0585 51.4907 56.7856 51.4707 56.5128 51.444Z" fill="#242324"/>
<path d="M85.1387 45.4263C85.8974 45.4263 86.6561 45.4263 87.4082 45.4329C87.4547 45.4329 87.5013 45.5062 87.5479 45.5396C87.5013 45.5729 87.4547 45.5995 87.4148 45.6262C87.4082 45.6329 87.3948 45.6262 87.3815 45.6262C87.1752 45.6462 86.8891 45.5929 86.7959 45.6995C86.6894 45.8261 86.7693 46.0994 86.7693 46.306C86.7693 48.7251 86.7693 51.1443 86.7693 53.5634C86.7693 54.1899 86.8624 54.2832 87.4814 54.3565C87.5546 54.3631 87.6211 54.4231 87.6877 54.4564C87.6744 54.4898 87.6677 54.5231 87.6544 54.5564C86.8891 54.5564 86.1237 54.5564 85.3584 54.5497C85.3184 54.5497 85.2852 54.4831 85.2452 54.4431C85.2918 54.4098 85.3317 54.3565 85.3783 54.3565C85.578 54.3498 85.7776 54.3498 86.0039 54.3498C86.0106 54.2365 86.0239 54.1366 86.0239 54.0366C86.0239 51.4908 86.0239 48.945 86.0239 46.3993C86.0239 45.7861 85.9307 45.6862 85.3317 45.6195C85.2519 45.6129 85.1787 45.5596 85.1055 45.5262C85.1121 45.4996 85.1254 45.4663 85.1387 45.4263Z" fill="#252525"/>
<path d="M65.5069 51.5107C65.7331 51.5107 65.9594 51.5174 66.1857 51.5174C66.4852 51.7373 66.778 51.9706 66.798 52.3771C66.8113 52.6303 66.7514 52.8903 66.7381 53.1502C66.7181 53.4701 66.6981 53.7966 66.6848 54.1165C66.565 54.0165 66.4452 53.9166 66.3321 53.8099C65.9727 53.4634 65.5202 53.2368 65.0476 53.3768C64.5219 53.5234 64.0427 53.8166 63.5436 54.0499C63.0511 54.2098 62.5519 54.3697 62.0395 54.5364C62.0328 54.4364 62.0262 54.3631 62.0195 54.2964V54.3098C62.0395 54.2698 62.0661 54.2298 62.0861 54.1898C62.1194 54.1298 62.146 54.0565 62.1926 54.0032C63.0977 52.9036 64.056 51.8773 65.5069 51.5107Z" fill="#ED4950"/>
<path d="M56.5089 51.4443C56.7818 51.4643 57.0546 51.491 57.3275 51.511C57.394 51.5643 57.4473 51.6309 57.5205 51.6643C58.2393 51.9575 58.8116 52.444 59.3374 52.9905C59.6834 53.357 59.9896 53.7702 60.3157 54.1634C60.2558 54.41 60.0694 54.4166 59.8964 54.3433C59.2508 54.0834 58.592 53.8435 57.973 53.5369C57.5138 53.3104 57.0546 53.2104 56.5821 53.377C56.3359 53.4636 56.1429 53.6836 55.9232 53.8368C55.85 53.8901 55.7768 53.9435 55.697 53.9968C55.657 53.6236 55.6304 53.257 55.5772 52.8905C55.464 52.1841 55.7036 51.491 56.5089 51.4443Z" fill="#4EB46B"/>
<path d="M62.0169 54.2964C62.0235 54.3697 62.0302 54.443 62.0368 54.5363C62.556 54.3697 63.0484 54.2097 63.5409 54.0498C63.5609 54.2497 63.4544 54.503 63.7206 54.6029C63.9136 54.6763 64.1199 54.6962 64.3196 54.7562C64.3994 54.7762 64.5259 54.8295 64.5259 54.8695C64.5459 55.2161 64.7921 55.1228 64.9851 55.1294C65.2047 55.1361 65.431 55.1361 65.6506 55.1361C65.6772 55.1361 65.6972 55.1627 65.7504 55.1961C65.6639 55.2427 65.604 55.276 65.5042 55.3294C65.7904 55.4493 66.0233 55.3893 66.1631 55.2161C66.3494 54.9828 66.3228 54.9628 66.589 55.1361C66.4892 55.1627 66.2962 55.0694 66.376 55.3094C66.3893 55.3427 66.4626 55.356 66.5025 55.376C66.5291 55.296 66.5624 55.2161 66.589 55.1361C66.6289 55.2027 66.7088 55.3094 66.6955 55.3294C66.6356 55.396 66.5424 55.4426 66.4625 55.4893C66.3893 55.496 66.3161 55.4893 66.2496 55.5026C65.4044 55.6292 64.5725 55.6626 63.7472 55.3827C63.5276 55.3027 63.3146 55.2161 63.095 55.1361C63.0817 55.1694 63.0684 55.2027 63.0551 55.2361C63.2281 55.3094 63.3945 55.376 63.5675 55.4493C64.5059 55.8159 65.451 55.9158 66.4027 55.516C66.3694 55.6492 66.3428 55.7825 66.2895 55.9891C66.4958 55.8825 66.609 55.8292 66.7221 55.7692C66.762 55.7092 66.8352 55.6559 66.8419 55.5959C66.8685 55.296 66.8818 54.9961 66.8951 54.6962C67.0748 55.1694 67.1148 55.6226 66.7487 56.0424C66.4825 56.3423 66.1364 56.409 65.7771 56.4023C64.5725 56.3757 63.3879 56.2424 62.2298 55.8825C62.15 55.8558 62.0701 55.8558 61.9903 55.8425C61.9769 55.8158 61.9636 55.7825 61.9503 55.7559C62.0967 55.3693 62.0967 54.9895 61.957 54.5963C61.9171 54.5096 61.9903 54.3897 62.0169 54.2964Z" fill="#E0242A"/>
<path d="M78.9448 67.8451C79.1578 67.6652 79.384 67.4985 79.5837 67.3053C79.7967 67.1054 80.0229 66.9054 80.1693 66.6588C80.3424 66.3656 80.2426 66.2323 79.9031 66.2323C79.7168 66.2323 79.5238 66.259 79.3441 66.3123C78.6054 66.5455 77.9665 66.9387 77.454 67.5319C77.0015 68.0517 77.0747 68.4849 77.6603 68.8381C77.9731 69.0247 78.3126 69.178 78.632 69.3579C79.2509 69.6978 79.4639 70.2642 79.1178 70.8774C78.9049 71.2506 78.5921 71.6038 78.246 71.8437C77.3742 72.4435 75.757 72.6967 74.7188 72.4635C74.7321 72.1169 74.8385 72.0236 75.1913 72.0836C75.8768 72.2036 76.5556 72.2169 77.2278 72.037C77.7868 71.8837 78.2992 71.6438 78.652 71.1573C79.0047 70.6708 78.9448 70.2509 78.439 69.9177C78.073 69.6711 77.6737 69.4779 77.301 69.2379C76.6887 68.8447 76.5356 68.2916 76.9482 67.6985C77.6603 66.6522 78.6919 66.099 79.9364 65.9724C80.4555 65.9191 80.6485 66.219 80.4688 66.7122C80.2825 67.2453 79.8765 67.6052 79.4572 67.9451C79.3574 68.025 79.1444 67.9584 78.9847 67.9584C78.9781 67.9251 78.9648 67.8851 78.9448 67.8451Z" fill="#262627"/>
<path d="M80.1955 56.3756C80.1423 56.7288 80.089 57.042 80.0425 57.3552C80.0025 57.3552 79.9626 57.3619 79.9227 57.3619C79.9027 57.2486 79.9094 57.1286 79.8628 57.022C79.8095 56.8821 79.7496 56.6821 79.6365 56.6222C78.8645 56.2223 78.0725 56.1823 77.3271 56.6555C76.6017 57.1153 76.4021 57.8551 76.4886 58.6414C76.6882 60.4408 78.4718 61.3272 80.0558 60.4408C80.0957 60.4142 80.1423 60.3942 80.1889 60.3742C80.2155 60.4008 80.2355 60.4275 80.2621 60.4541C80.1423 60.5674 80.0425 60.7274 79.9027 60.7807C78.7181 61.2472 77.5601 61.2539 76.5485 60.3875C75.2241 59.2479 75.6034 56.9954 77.214 56.3223C78.2056 55.9024 79.1906 56.0157 80.1955 56.3756Z" fill="#252525"/>
<path d="M66.5802 55.1294C66.314 54.9561 66.3406 54.9761 66.1543 55.2093C66.0079 55.3893 65.7816 55.4426 65.4954 55.3226C65.5953 55.2693 65.6618 55.236 65.7417 55.1893C65.6951 55.1627 65.6685 55.136 65.6418 55.1294C65.4222 55.1227 65.196 55.1294 64.9763 55.1227C64.7833 55.116 64.5371 55.2093 64.5171 54.8628C64.5171 54.8228 64.3907 54.7695 64.3108 54.7495C64.1112 54.6895 63.9048 54.6695 63.7118 54.5962C63.4456 54.4962 63.5521 54.243 63.5322 54.0431C64.0313 53.8098 64.5171 53.5166 65.0362 53.37C65.5087 53.2367 65.9613 53.4566 66.3207 53.8032C66.4338 53.9098 66.5536 54.0097 66.6734 54.1097C66.7266 54.1963 66.7799 54.283 66.8331 54.3763C66.8531 54.4429 66.8731 54.5029 66.8864 54.5695C66.8797 54.6095 66.8731 54.6495 66.8664 54.6828C66.8464 54.9827 66.8398 55.2826 66.8132 55.5825C66.8065 55.6425 66.7333 55.7025 66.6934 55.7558C66.6867 55.7291 66.6801 55.7025 66.6667 55.6758C66.6601 55.6825 66.6534 55.6892 66.6401 55.6892C66.6534 55.7091 66.6734 55.7358 66.6867 55.7558C66.5736 55.8091 66.4604 55.8691 66.2541 55.9757C66.3074 55.7625 66.334 55.6292 66.3673 55.5026C66.3872 55.4959 66.4072 55.4892 66.4272 55.4826C66.507 55.4292 66.6002 55.3893 66.6601 55.3226C66.7 55.3026 66.6202 55.196 66.5802 55.1294Z" fill="#E72930"/>
<path d="M97.0486 62.2339C96.6626 63.6334 96.29 64.9529 95.9239 66.2791C95.9505 66.2925 95.9838 66.3125 96.0104 66.3258C96.1236 66.1858 96.2301 66.0392 96.3565 65.9059C96.5229 65.7327 96.6959 65.4661 96.9555 65.5994C97.235 65.746 97.1684 66.0592 97.0952 66.3125C97.022 66.5524 96.9022 66.779 96.8091 67.0122C96.7891 67.0589 96.7958 67.1122 96.849 67.2055C97.0486 67.0122 97.2416 66.8189 97.4812 66.5924C97.428 66.9989 96.9355 67.492 96.6294 67.4787C96.3831 67.4654 96.3099 67.2854 96.3632 67.0722C96.4364 66.799 96.5428 66.5324 96.6294 66.2658C96.6693 66.1458 96.7026 66.0326 96.7358 65.9126C96.7092 65.8926 96.6893 65.8726 96.6626 65.8526C96.5628 65.9526 96.4364 66.0392 96.3632 66.1592C96.1302 66.5457 95.9106 66.9456 95.6976 67.3454C95.5579 67.6187 95.5046 67.6786 95.1719 67.7586C95.1852 67.6187 95.1852 67.4854 95.2118 67.3588C95.5845 65.8793 95.9572 64.3998 96.3299 62.9203C96.4231 62.5804 96.6161 62.3339 97.0486 62.2339Z" fill="#262627"/>
<path d="M82.7724 58.9682C82.7924 58.5084 82.6726 58.2285 82.3332 58.1285C82.1003 58.0619 81.8141 58.0419 81.6011 58.1285C81.4081 58.2018 81.2817 58.4418 81.0953 58.6417C81.0487 58.3951 80.9822 58.1885 81.2684 58.0286C81.6677 57.8086 82.0736 57.662 82.5329 57.762C83.0919 57.882 83.3647 58.2552 83.3514 58.8616C83.3381 59.3481 83.3381 59.8346 83.3182 60.3144C83.3049 60.5943 83.3448 60.8209 83.6975 60.8209C83.7308 60.8209 83.7574 60.8609 83.8639 60.9342C83.4579 60.9342 83.1385 60.9342 82.7857 60.9342C82.7857 60.7809 82.7857 60.621 82.7857 60.3877C82.5595 60.5544 82.3798 60.6743 82.2201 60.8076C81.8873 61.0942 81.5279 61.0942 81.1619 60.9209C80.8557 60.7809 80.7559 60.501 80.7759 60.1878C80.8025 59.7813 80.9622 59.4414 81.3815 59.3148C81.8274 59.1882 82.2866 59.0882 82.7724 58.9682ZM82.7857 59.1548C82.4463 59.2415 82.1402 59.3081 81.8407 59.4014C81.4481 59.5281 81.2617 59.8679 81.3416 60.2611C81.4015 60.541 81.6011 60.6743 81.9339 60.6543C82.28 60.6343 82.7658 60.2745 82.7857 60.0145C82.7991 59.748 82.7857 59.4747 82.7857 59.1548Z" fill="#252525"/>
<path d="M85.1729 69.9846C85.3992 69.7647 85.5922 69.5781 85.8051 69.3782C85.8051 69.858 85.2661 70.3045 84.7337 70.2645C84.7337 70.0446 84.7403 69.8247 84.7337 69.5981C84.7337 69.4848 84.7137 69.3715 84.707 69.2782C85.0398 68.2519 85.3393 67.2256 85.6987 66.2193C85.905 65.6395 86.1978 65.0863 86.464 64.5265C86.5039 64.4399 86.5638 64.3599 86.637 64.3066C86.7169 64.2466 86.8433 64.1733 86.9032 64.2C86.9898 64.24 87.0896 64.3732 87.0829 64.4599C87.063 64.7731 87.063 65.1063 86.9432 65.3862C86.637 66.1326 86.3109 66.879 85.9316 67.5921C85.5988 68.2319 85.2594 68.8583 85.1662 69.5848C85.1596 69.6581 85.1463 69.7314 85.1396 69.8047C85.1396 69.838 85.1529 69.8647 85.1729 69.9846ZM85.7985 67.1389C86.2311 66.859 86.8833 65.033 86.7169 64.5665C86.4108 65.4262 86.1046 66.2859 85.7985 67.1389Z" fill="#262627"/>
<path d="M89.3616 59.2883C88.6229 59.2883 87.8842 59.2883 87.1188 59.2883C87.0988 59.7682 87.1854 60.1614 87.5248 60.4413C88.0838 60.9078 88.6695 60.7945 89.2884 60.4946C89.2352 60.5745 89.2085 60.6812 89.1353 60.7345C88.5031 61.201 87.1987 61.2343 86.7328 60.3746C86.3934 59.7548 86.3934 59.1084 86.7195 58.5019C86.999 57.9755 87.5115 57.7289 88.1104 57.7155C88.9823 57.7022 89.4947 58.322 89.3616 59.2883ZM88.7959 59.1017C88.7959 58.9285 88.8092 58.7952 88.7959 58.6619C88.7294 58.1887 88.4632 57.9288 88.0439 57.9155C87.4915 57.8955 87.0589 58.3686 87.1188 58.9418C87.1255 59.0018 87.232 59.0951 87.2919 59.0951C87.7777 59.1084 88.2702 59.1017 88.7959 59.1017Z" fill="#242324"/>
<path d="M85.932 60.9343C85.3464 60.9343 84.7541 60.9343 84.1684 60.9343C84.1618 60.9143 84.1551 60.8943 84.1484 60.8743C84.2549 60.8476 84.3681 60.8343 84.4612 60.781C84.5478 60.7344 84.6675 60.6477 84.6742 60.5744C84.6875 59.828 84.6809 59.0816 84.6809 58.3152C84.5544 58.3152 84.408 58.3152 84.215 58.3152C84.2749 58.2352 84.3015 58.1686 84.3414 58.1553C84.6809 58.062 84.7474 57.8354 84.7341 57.5155C84.7075 56.7691 85.2532 56.3759 85.7656 55.996C85.8854 55.9094 86.1051 55.956 86.2914 55.936C86.2914 56.156 86.2914 56.3159 86.2914 56.5158C86.1849 56.4758 86.1051 56.4359 86.0185 56.4092C85.586 56.2626 85.2798 56.4625 85.2599 56.9157C85.2465 57.2556 85.2599 57.5888 85.2599 57.9553C85.5527 57.9553 85.8455 57.9553 86.1583 57.9553C86.145 58.0753 86.1317 58.1619 86.1184 58.2752C85.8255 58.2752 85.5593 58.2752 85.2798 58.2752C85.2798 59.0616 85.2732 59.8147 85.2931 60.5744C85.2931 60.6477 85.4395 60.7477 85.5394 60.7877C85.6658 60.841 85.8122 60.841 85.952 60.861C85.9387 60.881 85.9387 60.9076 85.932 60.9343Z" fill="#242324"/>
<path d="M79.7227 71.5236C79.7626 71.3237 79.7892 71.1171 79.8358 70.9172C79.9023 70.6173 79.9955 70.3241 80.0554 70.0308C80.1153 69.7576 80.2418 69.571 80.5612 69.5177C80.5612 69.651 80.5612 69.7842 80.5612 69.9109C80.5812 69.9242 80.6011 69.9309 80.6211 69.9442C80.6943 69.8509 80.7675 69.7576 80.8341 69.6643C80.9738 69.4644 81.1469 69.2578 81.3931 69.3777C81.5196 69.4377 81.5595 69.6843 81.646 69.8642C81.6793 69.8176 81.7392 69.7309 81.7991 69.6376C81.9056 69.491 81.9854 69.3177 82.1185 69.2111C82.2184 69.1311 82.398 69.0845 82.5178 69.1178C82.5977 69.1378 82.6709 69.3444 82.6576 69.451C82.611 69.8109 82.5245 70.1641 82.4513 70.524C82.4713 70.5506 82.4979 70.5706 82.5178 70.5973C82.6376 70.3907 82.7574 70.1774 82.8772 69.9708C82.9305 70.0175 82.9904 70.0575 83.0436 70.1041C83.0236 70.1841 83.0236 70.2841 82.977 70.3374C82.784 70.5307 82.5844 70.7239 82.3714 70.8905C82.3049 70.9438 82.1518 70.9705 82.0919 70.9305C82.0254 70.8905 81.9921 70.7439 82.0054 70.6506C82.0653 70.3307 82.1518 70.0175 82.2317 69.6976C82.2583 69.5976 82.2783 69.5043 82.3049 69.4044C82.2783 69.391 82.2516 69.3777 82.2317 69.3577C82.1452 69.471 82.0387 69.5777 81.9655 69.7043C81.7458 70.0975 81.5395 70.504 81.3199 70.8972C81.2068 71.1038 81.1003 71.357 80.7143 71.2504C80.8807 70.7173 81.0537 70.1841 81.2201 69.6576C81.1868 69.6376 81.1535 69.6176 81.1202 69.5976C81.0071 69.7443 80.8674 69.8709 80.7808 70.0308C80.5679 70.4307 80.3815 70.8439 80.1686 71.2437C80.0953 71.377 79.9489 71.4703 79.8358 71.5836C79.8025 71.577 79.7626 71.5503 79.7227 71.5236Z" fill="#262627"/>
<path d="M91.2635 66.9988C91.1437 67.5253 91.0239 68.0451 90.9041 68.5582C90.9374 68.5782 90.9773 68.6049 91.0106 68.6249C91.1238 68.5249 91.2835 68.4449 91.3367 68.3183C91.5031 67.9384 91.6362 67.5386 91.776 67.1454C91.8492 66.9388 91.9024 66.7122 92.2751 66.7522C92.1686 67.0721 92.1087 67.3853 91.9623 67.6519C91.7494 68.0317 91.5031 68.4116 91.2036 68.7248C90.9041 69.0447 90.7245 68.9714 90.578 68.5516C90.5647 68.5182 90.5581 68.4782 90.5248 68.3849C90.3717 68.5849 90.2719 68.7715 90.1255 68.9048C89.9924 69.0181 89.8127 69.0714 89.6463 69.1447C89.5864 68.9781 89.4666 68.8048 89.4866 68.6449C89.5398 68.265 89.633 67.8785 89.7661 67.5119C89.8193 67.3653 90.0123 67.2653 90.1455 67.1454C90.1787 67.1654 90.2053 67.1854 90.2386 67.212C90.0989 67.7385 89.9591 68.2717 89.8194 68.7981C89.846 68.8181 89.8726 68.8381 89.8992 68.8581C89.9791 68.7848 90.0856 68.7182 90.1321 68.6315C90.3318 68.2183 90.5181 67.7918 90.7111 67.372C90.8176 67.152 90.9241 66.9455 91.2635 66.9988Z" fill="#262627"/>
<path d="M95.3097 65.6192C95.2099 65.6925 95.1234 65.7991 95.0102 65.8258C94.8172 65.8724 94.7374 65.9724 94.6908 66.159C94.5577 66.6588 94.4046 67.1453 94.3114 67.7051C94.5244 67.5318 94.7374 67.3652 94.9503 67.192C94.9836 67.2319 95.0169 67.2786 95.0502 67.3186C94.7973 67.5585 94.571 67.8251 94.2915 68.025C94.0519 68.2049 93.8389 68.0783 93.8655 67.7784C93.9055 67.3852 94.0053 66.992 94.0918 66.6055C94.1251 66.4389 94.1916 66.2856 94.2449 66.1123C94.1717 66.0524 94.1051 65.9924 93.9853 65.8991C94.551 65.6925 94.4246 65.166 94.5843 64.7728C94.6176 64.6862 94.6242 64.5662 94.6841 64.5129C94.784 64.4196 94.9171 64.3663 95.0368 64.293C95.0502 64.4129 95.0967 64.5396 95.0768 64.6528C95.0169 64.9461 94.9237 65.2393 94.8305 65.5725C94.9903 65.5525 95.1101 65.5325 95.2298 65.5125C95.2631 65.5659 95.2831 65.5925 95.3097 65.6192Z" fill="#262627"/>
<path d="M99.6636 66.4655C99.9631 65.979 100.276 65.4992 100.569 65.0061C100.688 64.8061 100.762 64.5729 101.128 64.6528C101.061 64.8994 100.995 65.1393 100.935 65.3726C100.875 65.6125 100.808 65.8458 100.748 66.0857C100.775 66.099 100.802 66.1123 100.828 66.1257C100.988 65.9924 101.154 65.8591 101.341 65.6991C101.281 66.0457 100.855 66.5189 100.595 66.5055C100.509 66.5055 100.402 66.3522 100.356 66.2523C100.322 66.1856 100.376 66.0723 100.336 65.9457C100.276 66.0257 100.229 66.119 100.163 66.1923C99.983 66.3789 99.8167 66.5855 99.6103 66.7388C99.424 66.8721 99.2376 66.7521 99.2643 66.5522C99.3375 66.039 99.4639 65.5259 99.597 65.0194C99.6236 64.9261 99.7967 64.8794 99.9032 64.8128C99.9298 64.8328 99.9631 64.8528 99.9897 64.8728C99.8632 65.3793 99.7301 65.8791 99.6037 66.3856C99.617 66.4122 99.637 66.4389 99.6636 66.4655Z" fill="#262627"/>
<path d="M86.5174 69.6712C87.0298 69.7311 87.1895 69.1713 87.5822 68.9847C87.4957 69.4712 86.7237 70.0577 86.2911 69.9444C86.1779 69.9178 86.0315 69.7511 86.0182 69.6312C85.9384 69.0581 86.6105 68.0851 87.1762 67.9451C87.316 67.9118 87.5622 67.8985 87.6155 67.9784C87.6953 68.0851 87.702 68.345 87.6221 68.4449C87.3759 68.7515 87.083 69.0181 86.7969 69.2913C86.6904 69.3913 86.5573 69.4712 86.4441 69.5579C86.4708 69.5912 86.4974 69.6312 86.5174 69.6712ZM86.5906 69.118C86.9433 68.9048 87.2295 68.6515 87.2161 68.1184C86.8368 68.3983 86.717 68.7648 86.5906 69.118Z" fill="#262627"/>
<path d="M102.345 64.7062C102.105 64.9794 101.919 65.1994 101.733 65.4193C101.706 65.3993 101.673 65.386 101.646 65.366C101.713 65.2394 101.773 65.1061 101.846 64.9861C102.032 64.6862 102.232 64.3863 102.425 64.0931C102.465 64.0331 102.491 63.9398 102.551 63.9132C102.645 63.8665 102.758 63.8665 102.858 63.8398C102.851 63.9331 102.877 64.0664 102.824 64.1131C102.625 64.313 102.704 64.493 102.791 64.7129C103.077 65.4393 102.671 66.1124 101.899 66.2123C101.806 66.2257 101.686 66.2057 101.6 66.1524C101.533 66.1124 101.46 65.9858 101.48 65.9324C101.513 65.8525 101.62 65.8058 101.7 65.7525C101.726 65.7325 101.779 65.7592 101.826 65.7592C101.986 65.7858 102.265 65.8658 102.285 65.8191C102.385 65.6126 102.432 65.3726 102.458 65.1394C102.472 65.0328 102.398 64.8995 102.345 64.7062Z" fill="#262627"/>
<path d="M106.596 46.3056C106.596 46.1123 106.583 45.9657 106.596 45.8257C106.65 45.4192 106.55 45.0527 106.357 44.7061C106.23 44.4862 106.497 43.9198 106.743 43.9131C106.816 43.9131 106.922 44.0131 106.956 44.093C107.275 44.7395 107.175 45.3592 106.823 45.9524C106.769 46.0657 106.696 46.1656 106.596 46.3056Z" fill="#262627"/>
<path d="M105.573 47.0923C105.7 46.5125 105.653 45.9593 105.32 45.4529C105.227 45.3062 105.573 44.7598 105.753 44.7598C105.826 44.7598 105.926 44.8597 105.973 44.9397C106.252 45.4595 106.219 45.9993 105.999 46.5258C105.913 46.7324 105.773 46.919 105.66 47.1189C105.633 47.1123 105.607 47.1056 105.573 47.0923Z" fill="#252525"/>
<path d="M92.5737 68.3781C92.4073 67.705 92.8666 66.5454 93.3857 66.4321C93.3125 66.7054 93.2526 66.9519 93.186 67.1985C93.1128 67.4518 93.0396 67.6984 92.9664 67.9449C92.993 67.9583 93.013 67.9783 93.0396 67.9916C93.206 67.8116 93.3657 67.6317 93.5653 67.4184C93.5188 67.9516 93.0196 68.4114 92.5737 68.3781Z" fill="#262627"/>
<path d="M83.2923 70.6242C83.2457 70.0111 83.4321 69.4446 83.6783 68.9048C83.7249 68.7982 83.9179 68.7515 84.0444 68.6782C84.071 68.6982 84.0976 68.7249 84.1242 68.7449C83.9911 69.2314 83.8514 69.7179 83.7183 70.2044C83.7449 70.2177 83.7715 70.231 83.7981 70.2443C83.9579 70.0644 84.1176 69.8845 84.2973 69.6779C84.2773 70.1777 83.7382 70.6775 83.2923 70.6242Z" fill="#262627"/>
<path d="M49.5364 44.7666C49.9623 45.0532 50.0355 45.2798 49.8425 45.7129C49.6429 46.1661 49.6429 46.6259 49.736 47.1058C49.0971 46.5726 49.0639 45.1398 49.5364 44.7666Z" fill="#252525"/>
<path d="M48.6441 43.9067C49.0634 44.1866 49.0967 44.4132 48.9702 44.8531C48.8438 45.2996 48.8172 45.7794 48.7506 46.1859C48.2515 45.6328 48.1583 44.4865 48.6441 43.9067Z" fill="#242324"/>
<path d="M78.746 24.0205C78.4531 24.0205 78.1936 24.0205 77.9141 24.0205C77.9141 23.8472 77.9141 23.6872 77.9141 23.4873C78.2069 23.5006 78.4798 23.514 78.7792 23.534C78.7726 23.7139 78.7593 23.8605 78.746 24.0205Z" fill="#252525"/>
<path d="M94.7137 29.3119C94.4608 29.152 94.2345 29.0054 93.9883 28.8521C94.0748 28.6988 94.148 28.5655 94.2478 28.3989C94.5007 28.5589 94.7403 28.7055 95.0132 28.8788C94.9067 29.0254 94.8268 29.152 94.7137 29.3119Z" fill="#262627"/>
<path d="M79.9961 83.9663C80.229 83.9463 80.4486 83.9263 80.6616 83.9129C80.7149 83.9063 80.7614 83.9196 80.828 83.9263C80.848 84.0862 80.8679 84.2328 80.8945 84.4061C80.5818 84.4328 80.2956 84.4594 79.9961 84.4861C79.9961 84.3061 79.9961 84.1529 79.9961 83.9663Z" fill="#242324"/>
<path d="M82.7943 84.1528C82.4948 84.1927 82.2153 84.2394 81.9225 84.2794C81.8892 84.1061 81.8626 83.9728 81.8359 83.8462C82.375 83.5263 82.7011 83.6129 82.7943 84.1528Z" fill="#252525"/>
<path d="M90.6797 26.9995C90.7529 26.8129 90.8128 26.673 90.8793 26.5063C91.1589 26.6396 91.4251 26.7663 91.7046 26.8995C91.6314 27.0462 91.5648 27.1794 91.485 27.3461C91.2188 27.2328 90.9659 27.1261 90.6797 26.9995Z" fill="#262627"/>
<path d="M96.3757 77.5146C96.4955 77.6679 96.5954 77.7945 96.7018 77.9345C96.4489 78.1211 96.236 78.281 95.9964 78.4543C95.8966 78.3344 95.8034 78.2211 95.6836 78.0745C95.9099 77.8879 96.1228 77.7146 96.3757 77.5146Z" fill="#262627"/>
<path d="M100.336 34.3703C100.203 34.217 100.103 34.1103 100.01 33.9971C99.7301 33.6638 99.7367 33.6372 100.143 33.3706C100.322 33.5772 100.502 33.7838 100.708 34.0237C100.589 34.137 100.469 34.2436 100.336 34.3703Z" fill="#262627"/>
<path d="M86.2335 25.2401C85.934 25.1734 85.6745 25.1135 85.375 25.0402C85.4083 24.8669 85.4416 24.7069 85.4748 24.5137C85.7743 24.5936 86.0472 24.6736 86.34 24.7536C86.3067 24.9135 86.2735 25.0535 86.2335 25.2401Z" fill="#252525"/>
<path d="M88.03 25.8398C87.7305 25.7398 87.4776 25.6532 87.1914 25.5532C87.258 25.3933 87.3112 25.2467 87.3777 25.0801C87.6506 25.1734 87.9035 25.2534 88.1897 25.3533C88.1364 25.5133 88.0899 25.6532 88.03 25.8398Z" fill="#262627"/>
<path d="M89.992 26.0797C89.8988 26.2463 89.8323 26.3729 89.7524 26.5195C89.606 26.4662 89.4663 26.4262 89.3332 26.3729C88.9006 26.2196 88.8873 26.1663 89.2 25.7598C89.4396 25.8597 89.6925 25.9597 89.992 26.0797Z" fill="#252525"/>
<path d="M93.1427 28.2857C92.8898 28.1457 92.6568 28.0124 92.3906 27.8725C92.4705 27.7192 92.5437 27.5793 92.6102 27.4526C93.3357 27.6992 93.4022 27.7992 93.1427 28.2857Z" fill="#262627"/>
<path d="M69.5365 82.9333C69.4965 83.0999 69.4633 83.2465 69.43 83.4198C69.1438 83.3465 68.8843 83.2732 68.5781 83.1932C68.6247 83.0332 68.6646 82.88 68.7179 82.6934C68.9974 82.78 69.257 82.8533 69.5365 82.9333Z" fill="#262627"/>
<path d="M57.6866 77.0749C57.4471 76.875 57.2474 76.7017 57.0078 76.4951C57.1609 76.3552 57.274 76.2485 57.3938 76.1353C57.5935 76.3152 57.7665 76.4751 57.9861 76.6684C57.893 76.7817 57.7998 76.9083 57.6866 77.0749Z" fill="#252525"/>
<path d="M56.5971 75.3622C56.4773 75.5022 56.3775 75.6221 56.2444 75.7754C56.0247 75.5622 55.8251 75.3689 55.6055 75.1556C55.7785 75.0157 55.8983 74.9157 56.0314 74.8091C56.1978 74.9824 56.3908 75.169 56.5971 75.3622Z" fill="#262627"/>
<path d="M101.625 72.1167C101.771 72.21 101.897 72.29 102.057 72.3966C101.871 72.6498 101.698 72.8764 101.518 73.1164C101.365 73.0097 101.252 72.9231 101.105 72.8165C101.279 72.5699 101.445 72.35 101.625 72.1167Z" fill="#262627"/>
<path d="M53.5705 71.8701C53.6903 72.0234 53.7834 72.13 53.8699 72.25C54.1228 72.5965 54.1162 72.6365 53.6769 72.8431C53.5106 72.6299 53.3375 72.4099 53.1445 72.1567C53.2976 72.0567 53.424 71.9701 53.5705 71.8701Z" fill="#262627"/>
<path d="M99.0764 32.8905C98.8701 32.7106 98.6638 32.524 98.4375 32.324C98.5573 32.2107 98.6505 32.1174 98.8435 31.9375C99.0298 32.1641 99.2095 32.384 99.4158 32.6239C99.2827 32.7306 99.1696 32.8172 99.0764 32.8905Z" fill="#262627"/>
<path d="M83.7109 83.4527C84.0104 83.3928 84.2567 83.3394 84.5428 83.2861C84.5828 83.4327 84.6227 83.5794 84.6759 83.7726C84.3831 83.8393 84.1169 83.8926 83.8108 83.9592C83.7708 83.7793 83.7442 83.6327 83.7109 83.4527Z" fill="#252525"/>
<path d="M74.9191 23.6538C74.9191 23.8404 74.9191 23.9737 74.9191 24.1403C74.6463 24.1736 74.3668 24.2069 74.0673 24.2403C74.054 24.067 74.0407 23.9137 74.0273 23.7338C74.3202 23.7071 74.5997 23.6805 74.9191 23.6538Z" fill="#262627"/>
<path d="M98.0323 31.2709C97.9125 31.4042 97.8127 31.5241 97.6862 31.6641C97.4599 31.4642 97.2536 31.2842 97.0273 31.0776C97.1338 30.951 97.227 30.831 97.3401 30.6978C97.5731 30.891 97.7993 31.0776 98.0323 31.2709Z" fill="#262627"/>
<path d="M92.5234 80.1339C92.783 79.9806 93.0093 79.854 93.2289 79.7207C93.5949 80.0339 93.5883 80.1072 93.2089 80.3338C93.0758 80.4138 92.9361 80.4804 92.7763 80.5671C92.6898 80.4205 92.61 80.2872 92.5234 80.1339Z" fill="#262627"/>
<path d="M106.251 64.7591C106.091 64.7058 105.952 64.6658 105.785 64.6125C105.872 64.3393 105.952 64.0727 106.045 63.7861C106.218 63.8261 106.364 63.8661 106.531 63.9061C106.437 64.1927 106.351 64.4592 106.251 64.7591Z" fill="#262627"/>
<path d="M106.876 62.9401C106.703 62.8935 106.564 62.8535 106.391 62.8068C106.464 62.5269 106.537 62.2603 106.617 61.9604C106.777 62.0004 106.923 62.0404 107.096 62.0871C107.023 62.3736 106.95 62.6402 106.876 62.9401Z" fill="#262627"/>
<path d="M84.3487 24.747C84.0758 24.6937 83.8163 24.6404 83.5234 24.5871C83.5567 24.4138 83.5833 24.2739 83.61 24.1006C83.9028 24.1606 84.1823 24.2205 84.4884 24.2805C84.4419 24.4338 84.4019 24.5738 84.3487 24.747Z" fill="#252525"/>
<path d="M60.7164 79.408C60.4635 79.2414 60.2373 79.0814 59.9844 78.9081C60.0775 78.7682 60.1508 78.6482 60.2572 78.4883C60.5035 78.6482 60.7431 78.8082 60.996 78.9748C60.8961 79.1347 60.8163 79.2547 60.7164 79.408Z" fill="#262627"/>
<path d="M62.4429 28.1923C62.19 28.3389 61.9637 28.4655 61.7108 28.6121C61.6176 28.4922 61.5378 28.3789 61.418 28.2189C61.6775 28.0523 61.9238 27.899 62.19 27.7324C62.2698 27.8924 62.343 28.0257 62.4429 28.1923Z" fill="#262627"/>
<path d="M91.8487 81.0601C91.5758 81.2001 91.3296 81.32 91.0567 81.46C90.9902 81.32 90.9236 81.1868 90.8438 81.0268C91.1166 80.8935 91.3695 80.7669 91.6623 80.627C91.7289 80.7736 91.7821 80.9002 91.8487 81.0601Z" fill="#262627"/>
<path d="M70.4336 83.7127C70.4669 83.5261 70.4935 83.3862 70.5201 83.2129C70.8129 83.2729 71.0925 83.3328 71.3853 83.3995C71.352 83.5661 71.3254 83.706 71.2921 83.8926C71.0059 83.8327 70.7264 83.7727 70.4336 83.7127Z" fill="#262627"/>
<path d="M51.9539 69.4711C51.8008 69.5511 51.681 69.6111 51.5146 69.6977C51.3749 69.4445 51.2351 69.1979 51.082 68.9247C51.2484 68.838 51.3815 68.7647 51.5213 68.6914C51.6677 68.9513 51.8008 69.1979 51.9539 69.4711Z" fill="#262627"/>
<path d="M51.8303 38.8086C51.6972 39.0485 51.5641 39.2884 51.411 39.555C51.258 39.4551 51.1315 39.3751 51.0117 39.2884C51.3112 38.5087 51.3977 38.4554 51.8303 38.8086Z" fill="#262627"/>
<path d="M52.4707 70.2773C52.6437 70.5373 52.7635 70.7305 52.89 70.9171C52.9033 70.9438 52.9099 70.9771 52.9233 71.0171C52.8101 71.1037 52.697 71.1904 52.5373 71.3103C52.3975 71.1104 52.2311 70.9304 52.1446 70.7172C52.0182 70.4173 52.3642 70.4706 52.4707 70.2773Z" fill="#262627"/>
<path d="M95.138 79.0879C94.8984 79.2479 94.6722 79.3945 94.4326 79.5544C94.3328 79.4145 94.2529 79.3079 94.1797 79.1946C94.5457 78.6814 94.8785 78.6281 95.138 79.0879Z" fill="#262627"/>
<path d="M104.17 69.1911C104.011 69.4577 103.871 69.6909 103.711 69.9575C103.565 69.8642 103.432 69.7909 103.285 69.6976C103.432 69.4444 103.571 69.2178 103.718 68.9712C103.871 69.0445 104.004 69.1045 104.17 69.1911Z" fill="#252525"/>
<path d="M89.9149 81.48C89.9881 81.6199 90.048 81.7466 90.1146 81.8665C89.6155 82.3263 89.2827 82.3064 89.1562 81.8065C89.276 81.7532 89.4025 81.6866 89.5356 81.6333C89.6554 81.5799 89.7818 81.5333 89.9149 81.48Z" fill="#242324"/>
<path d="M88.1607 82.1733C88.2273 82.3333 88.2805 82.4666 88.3471 82.6198C88.0609 82.7331 87.8014 82.8331 87.5152 82.9464C87.4619 82.7865 87.4154 82.6398 87.3555 82.4666C87.6217 82.3666 87.8746 82.2733 88.1607 82.1733Z" fill="#262627"/>
<path d="M82.5845 24.4069C82.2384 24.3536 81.9656 24.3136 81.6328 24.267C81.6927 24.0937 81.7326 23.8338 81.7859 23.8338C82.0255 23.8205 82.285 23.8471 82.5113 23.9338C82.5779 23.9538 82.5579 24.2137 82.5845 24.4069Z" fill="#252525"/>
<path d="M72.1289 24.0206C72.4417 23.9673 72.7079 23.9207 73.0074 23.874C73.0274 24.0406 73.0473 24.1939 73.0673 24.3672C72.7811 24.4205 72.5083 24.4671 72.2021 24.5205C72.1755 24.3405 72.1555 24.1939 72.1289 24.0206Z" fill="#252525"/>
<path d="M104.063 38.742C103.897 38.822 103.77 38.8886 103.617 38.9686C103.478 38.7153 103.344 38.4754 103.191 38.2022C103.344 38.1222 103.471 38.0556 103.624 37.9756C103.764 38.2288 103.904 38.4687 104.063 38.742Z" fill="#262627"/>
<path d="M54.6008 34.8631C54.4677 34.7431 54.3546 34.6432 54.2148 34.5166C54.4278 34.29 54.6142 34.09 54.8138 33.8701C54.9336 33.9834 55.0334 34.0767 55.1532 34.19C54.9802 34.4033 54.8072 34.6099 54.6008 34.8631Z" fill="#262627"/>
<path d="M101.917 35.4961C101.784 35.6094 101.671 35.7094 101.538 35.8227C101.365 35.6094 101.192 35.4028 100.992 35.1562C101.105 35.0363 101.205 34.923 101.338 34.7764C101.565 35.0563 101.738 35.2695 101.917 35.4961Z" fill="#262627"/>
<path d="M97.8209 76.3018C97.9474 76.4417 98.0405 76.5483 98.1537 76.6683C98.0339 76.7749 97.9274 76.8749 97.8276 76.9682C97.4948 77.2881 97.4748 77.2814 97.1953 76.8482C97.3883 76.6816 97.588 76.5084 97.8209 76.3018Z" fill="#252525"/>
<path d="M53.0781 36.0094C53.2378 35.8028 53.3976 35.5895 53.5773 35.3496C53.717 35.4496 53.8302 35.5362 53.9633 35.6295C53.8701 35.7695 53.7969 35.9094 53.7037 36.0294C53.4442 36.3892 53.371 36.3892 53.0781 36.0094Z" fill="#242324"/>
<path d="M50.2131 66.0859C50.0467 66.1658 49.9136 66.2191 49.7539 66.2924C49.6341 66.0259 49.521 65.7593 49.3945 65.4661C49.5476 65.4061 49.6874 65.3528 49.8471 65.2861C49.9669 65.546 50.08 65.7993 50.2131 66.0859Z" fill="#262627"/>
<path d="M64.9844 81.8C65.0509 81.6334 65.1042 81.5135 65.1707 81.3535C65.4303 81.4601 65.6832 81.5601 65.9693 81.6801C65.9161 81.8333 65.8629 81.9866 65.7963 82.1666C65.5101 82.0333 65.2506 81.9133 64.9844 81.8Z" fill="#252525"/>
<path d="M57.2172 32.0907C57.0907 31.9641 56.9975 31.8641 56.8711 31.7375C57.0841 31.5376 57.2837 31.351 57.51 31.1377C57.6431 31.2577 57.7562 31.3643 57.8893 31.4909C57.6431 31.7042 57.4434 31.8841 57.2172 32.0907Z" fill="#262627"/>
<path d="M66.7461 26.0663C66.6862 25.9131 66.633 25.7798 66.5664 25.6132C66.8393 25.5065 67.0988 25.3999 67.385 25.2866C67.4449 25.4599 67.4981 25.5998 67.558 25.7665C67.2852 25.8664 67.0256 25.9597 66.7461 26.0663Z" fill="#262627"/>
<path d="M85.7062 83.5059C85.6529 83.3259 85.613 83.1993 85.5664 83.0527C85.8393 82.9661 86.0922 82.8794 86.3717 82.7861C86.4316 82.9527 86.4782 83.0994 86.5447 83.2793C86.2652 83.3526 85.9923 83.4259 85.7062 83.5059Z" fill="#262627"/>
<path d="M102.238 71.2705C102.425 71.0106 102.584 70.7907 102.757 70.5508C102.897 70.6574 103.01 70.744 103.15 70.8507C102.984 71.0906 102.831 71.3105 102.658 71.5638C102.518 71.4571 102.391 71.3705 102.238 71.2705Z" fill="#232222"/>
<path d="M55.8805 33.4369C55.7474 33.3302 55.6476 33.2436 55.5078 33.1303C55.7075 32.9037 55.8938 32.6905 56.0935 32.4639C56.2332 32.5905 56.3397 32.6905 56.4595 32.8104C56.2732 33.017 56.0868 33.2103 55.8805 33.4369Z" fill="#262627"/>
<path d="M73.2431 83.7328C73.2231 83.906 73.2098 84.0327 73.1898 84.2059C72.8903 84.1726 72.6175 84.1393 72.3047 84.0993C72.3247 83.946 72.3446 83.7927 72.3712 83.6128C72.6508 83.6461 72.9236 83.6861 73.2431 83.7328Z" fill="#252525"/>
<path d="M69.3669 25.1667C69.1872 25.2334 69.0475 25.2867 68.8944 25.3333C68.4951 25.4533 68.4552 25.4266 68.4219 24.9401C68.6814 24.8668 68.9476 24.7935 69.2338 24.7202C69.2737 24.8735 69.3137 25.0001 69.3669 25.1667Z" fill="#242324"/>
<path d="M105.382 65.5859C105.841 65.6526 105.874 65.7059 105.715 66.0858C105.655 66.2191 105.602 66.3523 105.528 66.5123C105.449 66.4923 105.369 66.479 105.289 66.4523C105.222 66.4323 105.156 66.399 105.062 66.359C105.176 66.0924 105.282 65.8392 105.382 65.5859Z" fill="#262627"/>
<path d="M71.2111 24.7131C70.9183 24.7797 70.6454 24.833 70.3592 24.8997C70.3193 24.7464 70.286 24.6064 70.2461 24.4398C70.5389 24.3665 70.8118 24.2999 71.1113 24.2266C71.1379 24.3998 71.1712 24.5465 71.2111 24.7131Z" fill="#262627"/>
<path d="M66.9242 82.0864C67.1971 82.1797 67.45 82.2664 67.7361 82.3663C67.6829 82.5329 67.643 82.6795 67.5897 82.8528C67.3035 82.7529 67.044 82.6596 66.7578 82.5529C66.8044 82.413 66.8576 82.2797 66.9242 82.0864Z" fill="#252525"/>
<path d="M78.088 84.0459C78.4008 84.0459 78.6537 84.0459 78.9265 84.0459C78.9398 84.1992 78.9531 84.3525 78.9731 84.5324C78.667 84.5324 78.3874 84.5324 78.0547 84.5324C78.068 84.3858 78.0813 84.2258 78.088 84.0459Z" fill="#242324"/>
<path d="M48.1836 61.8071C48.3566 61.7605 48.4964 61.7205 48.6694 61.6738C48.7493 61.9471 48.8291 62.2003 48.9223 62.4935C48.7693 62.5469 48.6361 62.5935 48.4698 62.6535C48.3699 62.3736 48.2834 62.1137 48.1836 61.8071Z" fill="#262627"/>
<path d="M64.2795 80.907C64.193 81.0736 64.1198 81.1936 64.0466 81.3402C63.7804 81.2069 63.5408 81.0869 63.2812 80.9537C63.3478 80.8004 63.4077 80.6604 63.4809 80.5005C63.7471 80.6338 63.9867 80.7604 64.2795 80.907Z" fill="#262627"/>
<path d="M100.421 73.603C100.574 73.7097 100.687 73.7896 100.84 73.8963C100.647 74.1228 100.474 74.3294 100.281 74.556C100.141 74.4494 100.028 74.3628 99.875 74.2428C100.061 74.0295 100.234 73.823 100.421 73.603Z" fill="#252525"/>
<path d="M63.0859 27.2192C63.3588 27.0792 63.6117 26.9526 63.8846 26.8193C63.9511 26.966 64.011 27.0859 64.0643 27.1992C63.5451 27.7057 63.3255 27.7257 63.0859 27.2192Z" fill="#242324"/>
<path d="M49.5087 64.3265C49.3357 64.3865 49.1959 64.4332 49.0229 64.4932C48.9297 64.2133 48.8432 63.96 48.75 63.6934C48.9097 63.6268 49.0428 63.5668 49.1892 63.5068C49.2957 63.7734 49.3955 64.0267 49.5087 64.3265Z" fill="#262627"/>
<path d="M103.063 37.0892C102.917 37.1892 102.803 37.2625 102.664 37.3558C102.491 37.1159 102.324 36.8893 102.145 36.6427C102.271 36.5494 102.391 36.4628 102.537 36.3628C102.717 36.6027 102.883 36.836 103.063 37.0892Z" fill="#262627"/>
<path d="M50.6095 68.025C50.4631 67.7451 50.3234 67.4852 50.1836 67.2187C50.3367 67.152 50.4631 67.092 50.6162 67.0254C50.7493 67.272 50.8757 67.5119 51.0155 67.7851C50.889 67.8584 50.7626 67.9317 50.6095 68.025Z" fill="#262627"/>
<path d="M52.4241 36.9292C52.9232 37.1491 52.9232 37.2158 52.4307 37.8222C52.2976 37.7689 52.1578 37.7156 51.9648 37.6356C52.1246 37.3824 52.2776 37.1558 52.4241 36.9292Z" fill="#262627"/>
<path d="M65.0082 26.8124C64.935 26.6458 64.8751 26.5125 64.8086 26.3592C65.0881 26.2393 65.341 26.1327 65.6205 26.0127C65.6804 26.166 65.7337 26.2993 65.8002 26.4659C65.5407 26.5792 65.2944 26.6858 65.0082 26.8124Z" fill="#252525"/>
<path d="M58.6625 30.8448C58.536 30.7048 58.4429 30.5982 58.3164 30.4583C58.5427 30.2783 58.7556 30.1051 58.9819 29.9185C59.0951 30.0517 59.1816 30.165 59.2947 30.2983C59.0817 30.4849 58.8821 30.6515 58.6625 30.8448Z" fill="#252525"/>
<path d="M104.234 68.0715C104.367 67.7916 104.481 67.5517 104.607 67.2852C104.753 67.3518 104.893 67.4118 105.053 67.4851C104.92 67.7583 104.8 68.0049 104.667 68.2848C104.514 68.2115 104.387 68.1449 104.234 68.0715Z" fill="#262627"/>
<path d="M96.542 30.0585C96.4288 30.1918 96.3357 30.3051 96.2225 30.4317C96.0029 30.2518 95.7966 30.0785 95.5703 29.8919C95.6635 29.7653 95.7434 29.652 95.8565 29.5054C96.0828 29.6986 96.3024 29.8719 96.542 30.0585Z" fill="#262627"/>
<path d="M59.8242 29.2918C60.0838 29.1119 60.2967 28.9586 60.5363 28.792C60.6362 28.9386 60.7293 29.0652 60.8292 29.2185C60.6095 29.3718 60.3966 29.5184 60.157 29.685C60.0438 29.5584 59.9507 29.4451 59.8242 29.2918Z" fill="#262627"/>
<path d="M62.3869 80.4337C62.0874 80.2671 61.8545 80.1338 61.6016 79.9872C61.6681 79.8406 61.728 79.714 61.8079 79.5474C62.0275 79.6673 62.2538 79.7606 62.4468 79.9006C62.7063 80.0805 62.3869 80.2071 62.3869 80.4337Z" fill="#262627"/>
<path d="M54.9337 74.3226C54.7274 74.1027 54.5411 73.8961 54.3281 73.6695C54.4812 73.5629 54.601 73.4696 54.7474 73.3696C54.8539 73.4896 54.9537 73.6095 55.0535 73.7228C55.3331 74.0427 55.3331 74.0561 54.9337 74.3226Z" fill="#262627"/>
<path d="M75.9648 23.5537C76.2643 23.5537 76.5372 23.5537 76.8367 23.5537C76.8234 23.7137 76.8167 23.8536 76.8101 24.0136C76.5239 24.0136 76.2577 24.0136 75.9648 24.0136C75.9648 23.8736 75.9648 23.7336 75.9648 23.5537Z" fill="#242324"/>
<path d="M80.702 23.6739C80.6687 23.8605 80.6487 23.9938 80.6155 24.1537C80.3359 24.127 80.0697 24.0937 79.7969 24.0671C79.7969 23.9071 79.7969 23.7605 79.7969 23.5806C80.103 23.6072 80.3892 23.6405 80.702 23.6739Z" fill="#232222"/>
<path d="M76.1211 84.5327C76.1344 84.3461 76.1411 84.2062 76.1544 84.0396C76.3274 84.0396 76.4672 84.0396 76.6136 84.0396C77.0595 84.0462 77.0661 84.0595 76.9929 84.5327C76.7201 84.5327 76.4405 84.5327 76.1211 84.5327Z" fill="#232222"/>
<path d="M74.2383 84.386C74.2383 84.2128 74.2383 84.0795 74.2383 83.9462C74.9371 83.7996 75.1767 83.9395 75.0702 84.4394C74.7973 84.4194 74.5245 84.406 74.2383 84.386Z" fill="#252525"/>
<path d="M104.168 39.8482C104.301 39.7749 104.421 39.7149 104.561 39.6416C104.7 39.9082 104.84 40.1548 104.987 40.428C104.408 40.4813 104.408 40.4813 104.168 39.8482Z" fill="#262627"/>
<path d="M99.5537 75.3559C99.3274 75.5425 99.1211 75.7091 98.8815 75.909C98.815 75.849 98.6952 75.7491 98.582 75.6424C98.795 75.4425 98.9947 75.2626 99.2209 75.0493C99.2941 75.1093 99.4006 75.2093 99.5537 75.3559Z" fill="#232222"/>
<path d="M84.6408 67.8117C84.4345 67.9783 84.3213 68.1049 84.1816 68.1582C84.1283 68.1782 83.9486 68.0316 83.9287 67.945C83.8887 67.7251 84.0285 67.5718 84.2481 67.5718C84.3479 67.5718 84.4411 67.6851 84.6408 67.8117Z" fill="#262627"/>
<path d="M93.8062 65.3727C93.733 65.546 93.6864 65.7259 93.5799 65.8525C93.5333 65.9125 93.3203 65.9125 93.2538 65.8525C93.1872 65.7992 93.1739 65.6126 93.2139 65.5193C93.3137 65.3127 93.5067 65.2794 93.8062 65.3727Z" fill="#242324"/>
<path d="M58.582 77.7213C58.6486 77.6347 58.7018 77.5614 58.7817 77.4614C58.968 77.6014 59.1477 77.7347 59.3407 77.8813C59.2675 77.9812 59.2076 78.0612 59.1344 78.1612C58.9481 78.0079 58.7684 77.8679 58.582 77.7213Z" fill="#262627"/>
<path d="M61.6622 56.2356C61.4293 56.5155 61.0765 56.5688 60.7305 56.3689C60.7438 56.3489 60.7637 56.3289 60.7771 56.3089C61.0898 56.4822 61.3561 56.3356 61.6289 56.189C61.6356 56.2023 61.6489 56.2156 61.6622 56.2356Z" fill="#C5C7C5"/>
<path d="M60.2383 55.7829C60.2516 55.7563 60.2582 55.7229 60.2716 55.6963C60.3514 55.8429 60.4379 55.9829 60.5178 56.1295C60.5045 56.1428 60.4845 56.1628 60.4712 56.1761C60.398 56.0362 60.3181 55.9096 60.2383 55.7829Z" fill="#C5C7C5"/>
<path d="M61.9324 55.7495C61.9457 55.7762 61.9591 55.8095 61.9724 55.8361C61.9125 55.9294 61.8526 56.0161 61.7927 56.1094C61.7794 56.0961 61.7594 56.0827 61.7461 56.0694C61.806 55.9561 61.8725 55.8495 61.9324 55.7495Z" fill="#C5C7C5"/>
<path d="M60.6124 56.2892C60.5658 56.2492 60.5192 56.2092 60.4727 56.1692C60.486 56.1559 60.5059 56.1359 60.5192 56.1226C60.5658 56.1625 60.6124 56.1959 60.659 56.2359C60.6457 56.2492 60.6324 56.2692 60.6124 56.2892Z" fill="#C5C7C5"/>
<path d="M60.7292 56.3625C60.6892 56.3358 60.6493 56.3091 60.6094 56.2892C60.6227 56.2692 60.6426 56.2558 60.656 56.2358C60.6959 56.2625 60.7292 56.2825 60.7691 56.3091C60.7558 56.3225 60.7425 56.3425 60.7292 56.3625Z" fill="#C5C7C5"/>
<path d="M61.7276 56.1691C61.7076 56.1891 61.6876 56.2091 61.661 56.2357C61.6477 56.2224 61.6344 56.2091 61.6211 56.1891C61.6411 56.1691 61.661 56.1425 61.681 56.1226C61.701 56.1359 61.7143 56.1558 61.7276 56.1691Z" fill="#C5C7C5"/>
<path d="M61.7967 56.1024C61.7768 56.1224 61.7568 56.1424 61.7302 56.169C61.7169 56.1557 61.7036 56.1424 61.6836 56.1224C61.7036 56.1024 61.7235 56.0825 61.7435 56.0625C61.7635 56.0758 61.7768 56.0891 61.7967 56.1024Z" fill="#C5C7C5"/>
<path d="M77.4922 51.7106C77.4922 50.1378 77.4922 48.5317 77.4988 46.9323C77.4988 46.8456 77.5721 46.739 77.6386 46.6723C78.7301 45.5128 80.5203 45.3861 81.9046 46.3591C83.7414 47.6587 83.9877 50.3377 82.4037 51.8505C81.4054 52.8035 80.0012 52.9835 78.7167 52.3104C78.4173 52.1571 78.1377 51.9638 77.8449 51.7972C77.7584 51.7506 77.6453 51.7439 77.4922 51.7106Z" fill="#FCFCFC"/>
<path d="M68.3555 51.7039C68.3555 50.1511 68.3555 48.5649 68.3621 46.9855C68.3621 46.8789 68.4353 46.7456 68.5152 46.6656C69.4403 45.6726 70.9776 45.4194 72.2687 46.0592C74.1388 46.9922 74.9042 49.418 73.7994 51.184C72.9209 52.5902 71.2239 53.0967 69.6932 52.357C69.3537 52.1903 69.041 51.9771 68.7082 51.7972C68.615 51.7438 68.5019 51.7372 68.3555 51.7039Z" fill="#FDFDFD"/>
<path d="M96.2047 49.8515C96.2246 48.3187 96.8103 47.0591 98.0814 46.1794C99.865 44.9465 102.307 45.3197 103.705 47.0458C104.737 48.3253 105.129 49.7715 104.697 51.3976C104.277 52.977 102.793 54.2899 101.276 54.4898C99.2128 54.7631 97.6422 53.6701 96.8635 52.2906C96.3577 51.4043 96.1847 50.6912 96.2047 49.8515Z" fill="#FDFDFD"/>
<path d="M61.7468 56.0623C61.7268 56.0823 61.7069 56.1023 61.6869 56.1223C61.6669 56.1423 61.647 56.169 61.627 56.1889C61.3608 56.3356 61.0879 56.4755 60.7751 56.3022C60.7352 56.2756 60.7019 56.2556 60.662 56.2289C60.6154 56.1889 60.5688 56.1556 60.5222 56.1156C60.4424 55.969 60.3559 55.8291 60.276 55.6825C60.103 55.156 60.1828 54.6628 60.5023 54.1963C60.4357 54.183 60.3758 54.1696 60.3159 54.1563C59.9898 53.7631 59.6903 53.3566 59.3376 52.9834C58.8185 52.4303 58.2395 51.9438 57.5207 51.6572C57.4475 51.6305 57.3876 51.5572 57.3277 51.5039C56.9151 50.2777 56.9151 49.0581 57.4808 47.8785C58.7719 45.1861 62.186 44.613 64.2691 46.7589C65.5602 48.0918 65.9995 49.6846 65.507 51.5039C64.0561 51.8705 63.0978 52.8968 62.1927 53.9897C62.1461 54.043 62.1195 54.1163 62.0862 54.1763C62.0662 54.2163 62.0396 54.2563 62.0197 54.2963V54.2829C61.993 54.3829 61.9198 54.4962 61.9464 54.5762C62.0862 54.9694 62.0862 55.3492 61.9398 55.7358C61.8732 55.8491 61.8067 55.9557 61.7468 56.0623ZM62.5188 48.1451C62.4922 48.1651 62.4589 48.1917 62.4323 48.2117C62.4456 48.2251 62.4589 48.2384 62.4722 48.2517C62.4988 48.2251 62.5188 48.1984 62.5454 48.1717C62.5521 48.1518 62.5587 48.1318 62.5587 48.1118C62.5454 48.1184 62.5321 48.1318 62.5188 48.1451ZM62.6519 47.332C62.6586 47.3787 62.6652 47.4253 62.6719 47.472C62.6852 47.4653 62.7051 47.4587 62.7184 47.4587C62.6985 47.412 62.6719 47.372 62.6519 47.332C62.612 47.2654 62.572 47.1921 62.5321 47.1188C62.1528 47.0788 61.7734 47.0255 61.3941 47.0255C61.3009 47.0255 61.2011 47.1988 61.1412 47.2587C61.6137 47.2121 62.0729 47.1654 62.5388 47.1188C62.5787 47.1854 62.6186 47.2587 62.6519 47.332ZM60.682 47.452C60.7884 47.412 60.9016 47.372 61.068 47.312C60.5489 47.0855 60.3692 47.5253 60.0896 47.7319C60.2228 47.6719 60.3559 47.6053 60.4956 47.5453C60.4757 47.6119 60.4291 47.6919 60.4424 47.7519C60.469 47.8852 60.5289 48.0051 60.5755 48.1318C60.682 48.0918 60.8617 48.0651 60.875 47.9985C60.9082 47.8719 60.8616 47.7186 60.8217 47.5853C60.8084 47.5386 60.7352 47.4986 60.682 47.452ZM61.9731 51.5839C61.8999 51.6172 61.8267 51.6772 61.7468 51.6839C60.9215 51.7772 60.103 51.7505 59.331 51.4173C58.2462 50.9441 57.8269 50.0777 58.1197 48.9315C58.1397 48.8515 58.153 48.7715 58.1663 48.6916C57.6605 49.4713 57.8069 50.431 58.519 51.0574C59.5506 51.9638 60.7751 52.1837 62.0862 51.9771C63.1178 51.8171 63.8964 51.284 64.3423 50.311C64.3956 50.191 64.4089 50.0511 64.4421 49.9178C64.1759 50.411 63.8698 50.8508 63.344 51.0907C63.4239 50.8108 63.5437 50.5309 63.5703 50.2444C63.5836 50.1044 63.4771 49.8778 63.3573 49.8112C63.1643 49.7112 62.9913 49.8378 62.8782 50.0444C62.5853 50.5642 62.2726 51.0707 61.9731 51.5839ZM62.1794 47.6586C61.9664 47.4853 61.8466 47.3387 61.6936 47.2987C61.6337 47.2787 61.4407 47.4787 61.4273 47.5986C61.4007 47.8119 61.5738 47.9585 61.7867 47.9385C61.8865 47.9252 61.9864 47.7985 62.1794 47.6586ZM61.3608 54.6695C61.3808 54.9294 61.4007 55.196 61.4207 55.4692C61.6403 55.1227 61.6203 54.9694 61.3608 54.6695ZM60.7152 54.6961C60.5023 55.016 60.5355 55.2493 60.7152 55.5425C60.7152 55.2426 60.7152 55.016 60.7152 54.6961ZM62.6586 47.9252C62.6918 47.9318 62.7184 47.9318 62.7517 47.9385C62.7584 47.8452 62.7717 47.7452 62.7783 47.6519C62.7584 47.6519 62.7451 47.6453 62.7251 47.6453C62.7051 47.7386 62.6785 47.8319 62.6586 47.9252Z" fill="#FCFCFC"/>
<path d="M56.5586 55.5425C57.2707 55.4958 57.9828 55.4558 58.6949 55.4092C57.9961 55.7157 57.284 55.7424 56.5586 55.5425Z" fill="#C5C7C5"/>
<path d="M66.4536 55.4826C66.4336 55.4893 66.4137 55.4959 66.3937 55.5026C65.442 55.9025 64.497 55.8025 63.5586 55.436C63.6185 55.416 63.6784 55.396 63.7383 55.376C64.5635 55.6559 65.3954 55.6226 66.2406 55.4959C66.3072 55.4826 66.3804 55.4893 66.4536 55.4826Z" fill="#C5C7C5"/>
<path d="M63.7312 55.3758C63.6713 55.3958 63.6114 55.4158 63.5515 55.4358C63.3785 55.3625 63.2121 55.2958 63.0391 55.2225C63.0524 55.1892 63.0657 55.1559 63.079 55.1226C63.2986 55.2092 63.5116 55.2958 63.7312 55.3758Z" fill="#ED4950"/>
<path d="M66.5818 55.1294C66.5552 55.2094 66.5219 55.2893 66.4953 55.3693C66.4487 55.3493 66.3755 55.336 66.3689 55.3027C66.2823 55.0628 66.482 55.1561 66.5818 55.1294Z" fill="#E72930"/>
<path d="M66.7067 55.7625C66.6934 55.7425 66.6735 55.7159 66.6602 55.6959C66.6668 55.6893 66.6735 55.6826 66.6868 55.6826C66.6934 55.7092 66.7001 55.7359 66.7067 55.7625Z" fill="#E0242A"/>
<path d="M82.7866 59.1548C82.7866 59.4747 82.7999 59.7479 82.7866 60.0211C82.7733 60.2811 82.2808 60.6409 81.9347 60.6609C81.6019 60.6809 81.4023 60.541 81.3424 60.2677C81.2625 59.8745 81.4489 59.528 81.8415 59.408C82.141 59.3081 82.4472 59.2414 82.7866 59.1548Z" fill="#FCFCFC"/>
<path d="M85.8008 67.1388C86.1069 66.2791 86.4131 65.4261 86.7192 64.5664C86.8856 65.0329 86.2334 66.8656 85.8008 67.1388Z" fill="#FCFCFC"/>
<path d="M88.792 59.1014C88.2729 59.1014 87.7804 59.1081 87.288 59.0947C87.2281 59.0947 87.1216 59.0014 87.1149 58.9415C87.055 58.3683 87.4876 57.8952 88.04 57.9152C88.4593 57.9285 88.7255 58.1884 88.792 58.6616C88.8053 58.7949 88.792 58.9348 88.792 59.1014Z" fill="#FCFCFC"/>
<path d="M99.6642 66.4656C99.6442 66.439 99.6176 66.4124 99.5977 66.3857C99.6176 66.4124 99.6376 66.439 99.6642 66.4656Z" fill="#FDFDFD"/>
<path d="M86.5938 69.1178C86.7202 68.7646 86.84 68.3981 87.2193 68.1182C87.2326 68.6513 86.9531 68.9046 86.5938 69.1178Z" fill="#FCFCFC"/>
<path d="M63.3444 51.0911C63.8635 50.8445 64.1763 50.4113 64.4425 49.9181C64.4092 50.0514 64.3959 50.1914 64.3426 50.3113C63.9034 51.2843 63.1181 51.8175 62.0865 51.9774C60.7688 52.184 59.5442 51.9641 58.5193 51.0577C57.8072 50.4313 57.6608 49.4783 58.1666 48.6919C58.1533 48.7719 58.14 48.8518 58.12 48.9318C57.8272 50.0781 58.2465 50.9444 59.3313 51.4176C60.1099 51.7575 60.9219 51.7841 61.7471 51.6842C61.827 51.6775 61.9002 51.6175 61.9734 51.5842C62.2396 51.5242 62.5058 51.4576 62.7787 51.3976C62.8253 51.371 62.8718 51.3376 62.9184 51.311C63.0582 51.2377 63.2046 51.1644 63.3444 51.0911Z" fill="#262627"/>
<path d="M63.3464 51.0908C63.2 51.1641 63.0602 51.2374 62.9138 51.304C62.9537 51.2041 62.9936 51.1041 63.0336 51.0041C63.0469 50.9775 63.0669 50.9575 63.0802 50.9308C63.0802 50.9308 63.0669 50.9175 63.0535 50.9175C63.0469 50.9442 63.0402 50.9775 63.0269 51.0041C62.9404 51.1308 62.8539 51.264 62.774 51.3907C62.5078 51.4506 62.2416 51.5173 61.9688 51.5773C62.2749 51.0641 62.5877 50.5576 62.8805 50.0445C62.9936 49.8379 63.1667 49.7112 63.3597 49.8112C63.4795 49.8712 63.5926 50.1044 63.5726 50.2444C63.546 50.5376 63.4329 50.8109 63.3464 51.0908ZM63.0935 50.7442C63.1134 50.7576 63.1334 50.7642 63.16 50.7775C63.18 50.6842 63.2 50.5976 63.2266 50.5043C63.2133 50.4976 63.1933 50.4976 63.18 50.491C63.1467 50.5843 63.1201 50.6643 63.0935 50.7442Z" fill="#E0242A"/>
<path d="M62.1783 47.6587C61.9853 47.7986 61.8855 47.9252 61.779 47.9319C61.566 47.9519 61.3996 47.8053 61.4196 47.592C61.4329 47.4787 61.6259 47.2788 61.6858 47.2921C61.8389 47.3388 61.9653 47.4854 62.1783 47.6587Z" fill="#17A159"/>
<path d="M60.6845 47.4521C60.7377 47.4988 60.811 47.5321 60.8309 47.5921C60.8708 47.7254 60.9174 47.8787 60.8842 48.0053C60.8642 48.0719 60.6845 48.0986 60.5847 48.1386C60.5381 48.012 60.4782 47.8853 60.4516 47.7587C60.4383 47.6987 60.4848 47.6188 60.5048 47.5521C60.5647 47.5188 60.6246 47.4855 60.6845 47.4521Z" fill="#4EB46B"/>
<path d="M62.5421 47.1192C62.0829 47.1658 61.6171 47.2125 61.1445 47.2591C61.2044 47.1992 61.2976 47.0259 61.3974 47.0259C61.7768 47.0259 62.1628 47.0792 62.5421 47.1192Z" fill="#262627"/>
<path d="M60.6822 47.452C60.6223 47.4853 60.5557 47.512 60.4958 47.5453C60.3627 47.6053 60.2296 47.6719 60.0898 47.7319C60.3627 47.532 60.5491 47.0921 61.0682 47.312C60.9018 47.3787 60.7953 47.4187 60.6822 47.452Z" fill="#262627"/>
<path d="M61.3633 54.6694C61.6228 54.9693 61.6361 55.1226 61.4232 55.4692C61.4032 55.1959 61.3832 54.936 61.3633 54.6694Z" fill="#C5C7C5"/>
<path d="M60.7178 54.6963C60.7178 55.0162 60.7178 55.2494 60.7178 55.5427C60.5381 55.2494 60.5049 55.0162 60.7178 54.6963Z" fill="#C5C7C5"/>
<path d="M62.6602 47.9254C62.6801 47.8321 62.7067 47.7388 62.7267 47.6455C62.7467 47.6455 62.76 47.6522 62.7799 47.6522C62.7733 47.7455 62.76 47.8454 62.7533 47.9387C62.7201 47.9321 62.6934 47.9321 62.6602 47.9254Z" fill="#C5C7C5"/>
<path d="M62.5391 47.1191C62.5723 47.1924 62.6123 47.2658 62.6522 47.3324C62.6189 47.2591 62.579 47.1858 62.5391 47.1191Z" fill="#C5C7C5"/>
<path d="M62.5389 48.1721C62.5123 48.1988 62.4923 48.2254 62.4657 48.252C62.4524 48.2387 62.4391 48.2254 62.4258 48.2121C62.4524 48.1921 62.4857 48.1655 62.5123 48.1455C62.5256 48.1522 62.5323 48.1588 62.5389 48.1721Z" fill="#C5C7C5"/>
<path d="M62.6523 47.332C62.6723 47.372 62.6989 47.412 62.7189 47.452C62.7056 47.4587 62.6856 47.4653 62.6723 47.4653C62.6657 47.4253 62.659 47.3787 62.6523 47.332Z" fill="#C5C7C5"/>
<path d="M62.5195 48.1451C62.5328 48.1318 62.5462 48.1185 62.5595 48.1118C62.5528 48.1318 62.5462 48.1517 62.5462 48.1717C62.5328 48.1584 62.5262 48.1517 62.5195 48.1451Z" fill="#C5C7C5"/>
<path d="M62.7734 51.3973C62.86 51.2707 62.9465 51.1374 63.0263 51.0107H63.033C62.9931 51.1107 62.9531 51.2107 62.9132 51.3106C62.8666 51.3373 62.82 51.364 62.7734 51.3973Z" fill="#ED4950"/>
<path d="M63.0938 50.7446C63.1204 50.6647 63.147 50.578 63.1736 50.498C63.1869 50.5047 63.2069 50.5047 63.2202 50.5114C63.2002 50.6047 63.1803 50.6913 63.1536 50.7846C63.1403 50.7713 63.1137 50.758 63.0938 50.7446Z" fill="#ED4950"/>
<path d="M63.0312 51.004C63.0379 50.9774 63.0446 50.9441 63.0579 50.9175C63.0645 50.9241 63.0845 50.9308 63.0845 50.9308C63.0645 50.9574 63.0512 50.984 63.0312 51.004Z" fill="#ED4950"/>
</svg>
