<svg width="156" height="108" viewBox="0 0 156 108" fill="none" xmlns="http://www.w3.org/2000/svg">
<rect x="0.321429" y="0.321429" width="155.357" height="107.357" rx="9.67857" fill="white"/>
<rect x="0.321429" y="0.321429" width="155.357" height="107.357" rx="9.67857" stroke="#BDBFC4" stroke-width="0.642857"/>
<g clip-path="url(#clip0_514_9775)">
<path d="M91.4663 64.8105C90.3053 64.6008 89.0025 64.0598 88.125 63.4241C87.342 62.8493 86.4375 61.747 86.0798 60.9354C85.6343 59.9075 85.425 58.8593 85.425 57.6555C85.425 53.4829 87.7538 50.6899 91.7363 50.0745C92.5395 49.9528 94.1663 49.9528 95.0033 50.0813C96.9203 50.3721 98.6415 51.2918 99.6878 52.6038C100.7 53.8616 101.159 55.3089 101.159 57.2159C101.159 58.298 101.051 59.0554 100.775 59.9346C99.9578 62.5179 97.8248 64.3371 95.0235 64.824C94.281 64.9525 92.2155 64.9457 91.4663 64.8105ZM94.3013 63.742C94.9965 63.5932 95.7728 63.1874 96.306 62.7005C97.6898 61.4224 98.412 59.0622 98.196 56.5532C98.0137 54.4703 97.4873 53.1651 96.4275 52.1642C95.523 51.3053 93.9165 50.8996 92.4585 51.1565C90.4268 51.515 89.043 53.1313 88.503 55.7958C88.0642 57.9734 88.5705 60.6311 89.7045 62.1324C90.3525 62.9846 91.4055 63.6135 92.5125 63.7961C92.9108 63.8637 93.8625 63.8367 94.3013 63.742ZM62.2725 64.6752C61.6178 63.8299 52.6875 54.8896 52.404 54.7881C52.2555 54.7408 52.4108 62.5112 52.593 64.3033L52.6335 64.7226H50.7975V64.5062C50.7975 64.3844 50.8448 63.5526 50.8988 62.6599C50.9663 61.4832 51 59.5423 51 55.6132V50.1827H51.999L52.593 50.8454C53.5245 51.8666 55.2593 53.6858 56.5485 54.9842C58.6545 57.0942 61.2195 59.6099 61.5908 59.9143L61.9485 60.2186L61.908 58.0883C61.7933 52.7525 61.7258 50.3856 61.692 50.2841C61.6583 50.1962 61.7663 50.1827 62.5763 50.1827H63.5078L63.4605 51.1498C63.4403 51.6773 63.3997 54.9775 63.3727 58.4873L63.3323 64.8578H62.8733C62.4548 64.8578 62.4075 64.8443 62.2725 64.6752ZM24 57.4526V50.1827H27.0443C29.6025 50.1827 30.156 50.203 30.5678 50.2909C32.5725 50.744 33.7065 52.2589 33.5647 54.2877C33.4567 55.8025 32.6468 57.0333 31.3305 57.6826C30.345 58.1695 29.8455 58.2574 28.2053 58.2642H26.7743L26.8013 58.5009C26.8148 58.6294 26.8485 59.9684 26.8688 61.4765C26.889 62.9846 26.9295 64.3303 26.9498 64.4723L26.9903 64.7226H24V57.4526ZM28.8938 57.0875C29.427 56.8981 29.7983 56.6276 30.1425 56.161C30.5813 55.5794 30.777 54.9437 30.7838 54.0713C30.7838 52.8134 30.318 51.9342 29.4135 51.4879C29.0693 51.3188 28.941 51.2986 28.1985 51.2715C27.7395 51.2647 27.2333 51.2715 27.0645 51.2986L26.7675 51.3391V54.2403C26.7675 56.9454 26.7743 57.1416 26.889 57.1686C26.9497 57.1889 27.348 57.2024 27.7665 57.2092C28.3538 57.2159 28.6102 57.1889 28.8938 57.0875ZM33.7875 64.6549C33.7875 64.6144 33.8617 64.4385 33.9495 64.2627C34.0372 64.0869 34.341 63.4241 34.6178 62.7952C34.9013 62.1595 35.3468 61.1586 35.61 60.5635C36.6293 58.3115 36.69 58.1627 37.77 55.7281C38.8568 53.2665 40.065 50.2503 40.065 50.0069C40.065 49.9866 40.389 49.9866 40.7805 49.9933L41.496 50.0136L41.9348 51.1971C42.738 53.3815 43.7168 55.7822 44.7968 58.2304C44.898 58.4738 45.4043 59.6167 45.9105 60.7664C46.4168 61.9228 46.9635 63.1536 47.1188 63.5053C47.274 63.8569 47.4698 64.2762 47.5508 64.4385L47.6925 64.7226H44.412L43.953 63.4918C43.6965 62.8087 43.305 61.774 43.0755 61.1924L42.6638 60.1239H40.0583C37.6283 60.1239 37.446 60.1307 37.4123 60.2456C37.392 60.3065 37.2233 60.7393 37.0343 61.1992C36.636 62.1798 35.9948 63.9381 35.8665 64.4047L35.7855 64.7226H34.7865C34.1453 64.7226 33.7875 64.6955 33.7875 64.6549ZM41.8268 58.7849L42.009 58.7376L41.6378 57.757C41.4352 57.2159 41.1518 56.472 41.0033 56.1001C40.8615 55.7281 40.5915 55.0316 40.416 54.5582C40.0988 53.7196 40.0853 53.6993 40.0043 53.8819C39.957 53.9834 39.7208 54.5447 39.4778 55.1195C39.2415 55.6943 38.9445 56.4112 38.8163 56.7087C38.2763 57.9937 37.986 58.7376 38.013 58.7714C38.1143 58.8728 41.4488 58.8796 41.8268 58.7849ZM68.6378 61.5982C68.6647 59.8737 68.6783 56.6005 68.6648 54.3283L68.631 50.1827H72.033C74.6587 50.1827 75.6038 50.203 76.1978 50.2841C78.2025 50.5479 79.6133 51.2647 80.7203 52.5835C81.7058 53.7602 82.185 55.2345 82.185 57.0739C82.1783 60.3268 80.835 62.687 78.2767 63.9449C77.7368 64.2154 77.2373 64.3912 76.4138 64.5941C76.1708 64.6549 75.003 64.682 72.33 64.7023L68.5838 64.7293L68.6378 61.5982ZM75.4485 63.3836C76.137 63.1739 76.812 62.7817 77.3723 62.2609C78.6615 61.0572 79.2353 59.4612 79.2353 57.1145C79.2218 53.4288 77.1495 51.3324 73.518 51.3324C73.1738 51.3324 72.573 51.3527 72.1815 51.3729L71.4728 51.4203L71.4255 52.0357C71.331 53.3071 71.3783 63.3362 71.4795 63.4444C71.4863 63.4512 71.9115 63.4782 72.4313 63.5053C73.869 63.5864 74.9153 63.5391 75.4485 63.3836ZM104.973 63.1536C105.041 61.1586 105.041 50.5411 104.973 50.3382L104.926 50.1827H108.193C111.851 50.1827 112.155 50.2098 113.006 50.6155C113.573 50.886 114.193 51.4609 114.464 51.9816C114.828 52.6646 114.936 53.6317 114.754 54.5176C114.477 55.8363 113.519 56.8034 111.966 57.3309C111.622 57.4459 111.325 57.5541 111.305 57.5744C111.278 57.6014 111.804 58.3791 113.188 60.3471C113.768 61.1721 115.274 63.1942 115.922 64.0125L116.455 64.6888L114.693 64.709C113.728 64.7158 112.898 64.709 112.857 64.6955C112.817 64.682 112.607 64.3777 112.385 64.0192C111.541 62.6397 109.604 59.7723 108.314 57.9801C108.24 57.8719 108.132 57.8314 107.963 57.8246C107.741 57.8246 107.727 57.8381 107.741 58.0139C107.754 58.1154 107.774 59.664 107.795 61.4629L107.822 64.7226H104.919L104.973 63.1536ZM109.901 56.7831C110.771 56.6005 111.379 56.1069 111.77 55.2683C111.959 54.8625 111.986 54.7408 112.007 54.0645C112.047 52.9216 111.804 52.2791 111.163 51.8058C110.555 51.3527 109.806 51.2106 108.49 51.2986L107.7 51.3459V56.8034L108.125 56.8305C109.043 56.8778 109.509 56.871 109.901 56.7831ZM118.19 64.5062C118.244 64.3844 118.52 63.769 118.804 63.1333C119.087 62.5044 119.411 61.7875 119.513 61.5441C119.614 61.3006 119.803 60.8746 119.938 60.5973C120.154 60.1172 120.404 59.5761 120.998 58.2304C121.139 57.9125 121.335 57.4729 121.436 57.2498C121.598 56.8913 121.794 56.445 122.55 54.7137C123.137 53.3679 123.826 51.684 124.157 50.7575L124.427 50.0136L125.135 49.9933L125.844 49.9731L125.959 50.3315C126.087 50.717 126.411 51.5961 126.944 52.9554C127.248 53.7467 127.437 54.2133 128.051 55.6943C128.436 56.6276 129.226 58.467 129.503 59.0757C129.57 59.2245 129.786 59.7249 129.995 60.1915C130.704 61.8011 131.116 62.7343 131.555 63.7014C131.798 64.2357 132 64.682 132 64.6955C132 64.709 131.271 64.7226 130.387 64.7226H128.773L128.504 64.0328C128.355 63.6473 128.105 63.0048 127.95 62.5923C127.795 62.1865 127.511 61.4629 127.322 60.9828L126.985 60.1239L124.386 60.1374L121.794 60.1577L121.301 61.3818C121.031 62.0581 120.653 63.0792 120.451 63.6676L120.093 64.7226H118.095L118.19 64.5062ZM126.114 58.7984C126.229 58.7781 126.33 58.7578 126.33 58.7443C126.33 58.697 124.703 54.4026 124.501 53.9157L124.406 53.6858L124.143 54.3215C124.001 54.6664 123.785 55.1939 123.657 55.4914C123.536 55.789 123.191 56.6343 122.888 57.3715C122.577 58.1086 122.354 58.7308 122.381 58.7578C122.483 58.8593 125.534 58.8931 126.114 58.7984ZM91.5742 49.1345C91.4325 48.6746 91.4393 48.6408 91.6283 48.6002C92.013 48.5123 93.984 48.4785 94.5645 48.5529C94.8953 48.5935 95.172 48.634 95.1855 48.6476C95.199 48.6611 95.1585 48.8166 95.1045 49.006L94.9965 49.3374H91.635L91.5742 49.1345ZM91.365 48.0051C91.068 47.6805 91.3043 47.1395 91.743 47.1395C92.1548 47.1395 92.3843 47.6534 92.1345 48.0051C91.9928 48.2147 91.5608 48.2147 91.365 48.0051ZM94.4768 47.9781C94.2878 47.7414 94.3013 47.5385 94.5038 47.3153C94.7197 47.0854 95.0235 47.0786 95.2463 47.3085C95.577 47.6399 95.3543 48.1539 94.875 48.1539C94.6725 48.1539 94.5848 48.1133 94.4768 47.9781ZM93.0863 48.0051C92.742 47.8225 92.6813 47.437 92.9513 47.1733C93.1538 46.9636 93.3968 46.9569 93.633 47.1598C93.876 47.3762 93.876 47.7211 93.6263 47.9375C93.4305 48.0998 93.2887 48.1201 93.0863 48.0051ZM90.663 46.1115C89.9475 43.7852 89.8125 43.3321 89.826 43.3185C89.8598 43.2847 92.04 46.5714 92.04 46.6458C92.04 46.6864 91.8307 46.7337 91.5742 46.7608C91.3177 46.781 91.0612 46.8216 91.0005 46.8419C90.9195 46.869 90.852 46.7202 90.663 46.1115ZM95.3813 46.7946C95.2327 46.7675 94.9965 46.7405 94.8615 46.7405C94.7265 46.7337 94.5983 46.7134 94.578 46.6796C94.5645 46.6526 94.7265 46.355 94.9492 46.0236C95.172 45.6855 95.658 44.9483 96.036 44.3803C96.4072 43.8122 96.7245 43.3591 96.738 43.3726C96.765 43.3997 96.6435 43.8325 96.1238 45.5502C95.9955 45.9628 95.8605 46.4226 95.82 46.5849C95.7795 46.7405 95.7255 46.8622 95.6985 46.8622C95.6715 46.8554 95.5298 46.8284 95.3813 46.7946ZM92.715 46.5511C92.7285 46.2333 93.309 42.9939 93.3428 43.0818C93.3765 43.1698 93.93 46.5105 93.93 46.6255C93.93 46.6458 93.66 46.6661 93.3225 46.6661C92.7893 46.6661 92.715 46.6526 92.715 46.5511Z" fill="#1A1A1A"/>
</g>
<defs>
<clipPath id="clip0_514_9775">
<rect width="108" height="21.8571" fill="white" transform="translate(24 43.0713)"/>
</clipPath>
</defs>
</svg>
