<svg width="156" height="108" viewBox="0 0 156 108" fill="none" xmlns="http://www.w3.org/2000/svg">
<rect x="0.321429" y="0.321429" width="155.357" height="107.357" rx="9.67857" fill="white"/>
<rect x="0.321429" y="0.321429" width="155.357" height="107.357" rx="9.67857" stroke="#BDBFC4" stroke-width="0.642857"/>
<path fill-rule="evenodd" clip-rule="evenodd" d="M70.8427 56.9338H65.3047V50.8789H70.8427V56.9338Z" fill="white"/>
<path fill-rule="evenodd" clip-rule="evenodd" d="M65.3047 50.8789H70.8427V52.2392H65.3047V50.8789ZM65.3047 55.5723H70.8427V56.9338H65.3047V55.5723Z" fill="#142353"/>
<path fill-rule="evenodd" clip-rule="evenodd" d="M70.8398 56.9338H76.3779V50.8789H70.8398V56.9338Z" fill="#CC051C"/>
<path fill-rule="evenodd" clip-rule="evenodd" d="M76.3779 50.8789H70.8398V52.2392H76.3779V50.8789ZM76.3779 55.5723H70.8398V56.9338H76.3779V55.5723Z" fill="#142353"/>
<path fill-rule="evenodd" clip-rule="evenodd" d="M25.843 57.1069V51.628H24V50.8935H28.4287V51.628H26.5857V57.1069H25.843ZM33.2856 52.0975C33.4638 51.9034 33.6749 51.7505 33.9067 51.6476C34.1385 51.5447 34.3865 51.4939 34.6361 51.498C35.0046 51.498 35.3361 51.6021 35.6324 51.8097C35.9287 52.0173 36.1533 52.3095 36.3068 52.6868C36.4609 53.0641 36.5371 53.5052 36.5371 54.0113C36.5371 54.8101 36.3574 55.4278 35.998 55.8626C35.6387 56.2973 35.1803 56.515 34.6242 56.515C34.0783 56.515 33.6239 56.2992 33.2622 55.8689C32.9 55.4379 32.7192 54.8492 32.7192 54.1002C32.7192 53.1645 32.908 52.4969 33.2856 52.0975ZM32.2762 55.6342C32.4817 56.1134 32.809 56.5154 33.2179 56.7908C33.6319 57.0728 34.1021 57.2142 34.6282 57.2142C35.1027 57.2174 35.57 57.0855 35.9855 56.8311C36.4046 56.5762 36.7293 56.1995 36.9579 55.7023C37.1865 55.2051 37.3008 54.641 37.3008 54.0113C37.3008 53.3897 37.1922 52.8338 36.975 52.3436C36.7683 51.8658 36.4386 51.4668 36.0276 51.197C35.6136 50.9232 35.1485 50.7863 34.6321 50.7863C33.844 50.7863 33.2008 51.0778 32.7027 51.6621C32.2045 52.2451 31.956 53.0522 31.956 54.0832C31.956 54.629 32.0624 55.1451 32.2762 55.6342ZM41.369 57.1069V50.8929H42.4779L43.8045 55.2909C43.9268 55.7004 44.0155 56.0071 44.0718 56.2103C44.1366 55.9844 44.2361 55.6525 44.372 55.2146L45.7243 50.8929H46.7132V57.1069H46.0007V51.9101L44.3647 57.1069H43.6971L42.0809 51.8198V57.1069H41.369ZM51.0094 57.1069V50.8929H52.1188L53.4449 55.2909C53.5672 55.7004 53.6565 56.0071 53.7128 56.2103C53.777 55.9844 53.8771 55.6525 54.0136 55.2146L55.3658 50.8929H56.3547V57.1069H55.6422V51.9101L54.0062 57.1069H53.338L51.7219 51.8198V57.1069H51.0094ZM62.2488 57.1069V54.4744L60.0908 50.8929H60.9824L62.0862 52.7752C62.2892 53.1158 62.481 53.4646 62.6611 53.8207C62.8334 53.4957 63.0381 53.1291 63.2753 52.7209L64.3597 50.8929H65.2223L62.9926 54.4744V57.1069H62.2488ZM80.2564 57.1069V50.8935H80.9991V53.4472H83.9004V50.8935H84.6447V57.1069H83.9004V54.1816H80.9991V57.1069H80.2564ZM88.3495 57.1069V50.8935H89.0927V57.1069H88.3495ZM92.7054 57.1069V50.8935H93.4486V56.3731H96.2077V57.1069H92.7054ZM99.4605 57.1069V50.8935H103.248V51.628H100.204V53.5487H102.841V54.2826H100.204V57.1069H99.4605ZM106.684 57.1069V50.8935H107.427V57.1069H106.684ZM113.686 54.6725V53.9387H116.058V56.2443C115.72 56.5507 115.34 56.7958 114.933 56.9706C114.553 57.1319 114.149 57.2145 113.742 57.2142C113.193 57.2142 112.695 57.0835 112.246 56.8229C111.808 56.5731 111.451 56.1758 111.229 55.6878C111.001 55.1937 110.885 54.6404 110.885 54.0296C110.885 53.4251 111 52.8603 111.228 52.3353C111.456 51.8104 111.783 51.4217 112.21 51.1668C112.636 50.9125 113.129 50.7856 113.686 50.7856C114.09 50.7856 114.456 50.8582 114.782 51.004C115.11 51.1491 115.365 51.3523 115.552 51.6122C115.738 51.8722 115.879 52.2117 115.975 52.6294L115.309 52.8326C115.225 52.5158 115.121 52.2666 114.996 52.0848C114.871 51.9038 114.694 51.7586 114.462 51.6501C114.218 51.5385 113.956 51.4829 113.692 51.4867C113.353 51.4867 113.06 51.5441 112.814 51.6583C112.566 51.7731 112.368 51.9239 112.218 52.1114C112.068 52.2927 111.949 52.5012 111.863 52.7278C111.719 53.1262 111.646 53.5522 111.65 53.9816C111.65 54.5369 111.735 55.0013 111.908 55.3755C112.08 55.7496 112.329 56.0266 112.657 56.2084C112.982 56.3887 113.34 56.4819 113.702 56.4803C114.022 56.4803 114.335 56.4115 114.641 56.274C114.946 56.1364 115.177 55.9907 115.335 55.8336V54.6725H113.686ZM119.528 57.1069V50.8935H123.558V51.628H120.271V53.526H123.345V54.2605H120.271V56.3731H123.692V57.1069H119.528ZM127.811 51.5832H129.584C129.999 51.5832 130.304 51.6772 130.496 51.8672C130.688 52.0565 130.785 52.2988 130.785 52.5922C130.785 52.7928 130.735 52.9783 130.636 53.1493C130.532 53.3242 130.379 53.4556 130.2 53.5229C130.008 53.6005 129.744 53.6396 129.405 53.6396H127.811V51.5832ZM127.811 57.1069V54.3507H128.671C128.862 54.3507 129 54.3602 129.083 54.3804C129.199 54.4113 129.312 54.4662 129.422 54.5457C129.533 54.6246 129.659 54.7634 129.799 54.9609C129.939 55.1584 130.117 55.443 130.334 55.8153L131.074 57.1069H132L131.03 55.4171C130.858 55.1143 130.652 54.837 130.417 54.5918C130.315 54.4895 130.167 54.3867 129.971 54.282C130.508 54.2006 130.905 54.0081 131.163 53.7052C131.421 53.4024 131.548 53.0307 131.548 52.5896C131.548 52.247 131.471 51.9347 131.316 51.652C131.174 51.3827 130.955 51.1742 130.693 51.0601C130.433 50.9491 130.053 50.8929 129.555 50.8929H127.069V57.1069H127.811Z" fill="#142353"/>
</svg>
