<svg width="243" height="168" viewBox="0 0 243 168" fill="none" xmlns="http://www.w3.org/2000/svg">
<rect width="243" height="168" fill="white"/>
<g clip-path="url(#clip0_514_9183)">
<path d="M198.326 117.856L172.976 48.0611L172.959 48.0149H172.459L167.239 62.3574L157.735 88.4683L157.713 88.4477C154.419 85.5413 149.772 83.7245 143.92 83.048L142.135 82.8637L143.906 82.6367C153.557 80.9024 160.044 74.807 160.044 67.4633C160.044 57.3929 150.573 50.3638 137.005 50.3638H108.775V50.8737H116.978V102.909L97.0568 48.0609L97.0388 48.0149H96.5385L91.3182 62.3574L71.1838 117.676L71.06 117.69C70.7159 117.733 70.3755 117.766 70.0388 117.792C69.5324 117.832 69.0288 117.855 68.5237 117.855H48.1796L86.851 50.8735L87.1385 50.3701H39.8418V71.0907H40.3436C40.4326 60.998 46.3103 50.8735 59.2967 50.8735H74.9637L36 118.357H88.4916V98.5056H87.9897C87.9213 107.302 82.9347 115.658 72.0909 117.544L71.7461 117.603L80.0045 94.9037H103.139L111.475 117.856H103.252V118.357H135.528V117.856H127.269V83.2338H136.798C146.496 83.2338 152.057 87.5661 152.057 95.1162V101.258C152.057 101.934 152.103 102.924 152.154 103.751V103.781L147.032 117.852H140.341V118.354H154.192V117.852H147.573L152.237 105.039C152.246 105.163 152.251 105.238 152.251 105.238L152.38 106.392L152.504 107.156C153.282 111.881 155.089 115.354 157.873 117.479L158.274 117.77C160.389 119.24 163.017 119.985 166.09 119.985C170.161 119.985 172.875 118.97 175.116 116.582L174.822 116.305C172.757 118.211 171.025 118.983 168.854 118.983C165.155 118.983 163.219 114.496 163.219 110.072V101.467C163.239 99.3322 162.904 97.2086 162.23 95.1829L162.138 94.9162V94.9066H179.059L187.395 117.859H179.172V118.361H207.103V117.859L198.326 117.856ZM80.1886 94.4017L91.5853 63.0913L102.956 94.4017H80.1886ZM127.274 82.7303V50.8735H134.548C144.264 50.8735 149.394 56.6496 149.394 67.5714C149.394 79.1871 146.45 82.7303 136.798 82.7303H127.274ZM161.94 94.4017L161.891 94.2778C161.139 92.4463 160.044 90.7753 158.666 89.3545L158.189 88.878L158.138 88.8304L167.499 63.0913L178.87 94.4017H161.94Z" fill="black"/>
</g>
<defs>
<clipPath id="clip0_514_9183">
<rect width="171.103" height="72" fill="white" transform="translate(36 48)"/>
</clipPath>
</defs>
</svg>
