<svg width="156" height="108" viewBox="0 0 156 108" fill="none" xmlns="http://www.w3.org/2000/svg">
<rect x="0.321429" y="0.321429" width="155.357" height="107.357" rx="9.67857" fill="white"/>
<rect x="0.321429" y="0.321429" width="155.357" height="107.357" rx="9.67857" stroke="#BDBFC4" stroke-width="0.642857"/>
<path d="M60.648 82.7193C61.6817 82.7193 62.6529 82.7193 63.624 82.7193C64.1983 82.7193 64.7726 82.7299 65.3469 82.7088C66.3598 82.6772 66.8819 82.0555 66.8715 80.9175C66.861 79.8744 66.3702 79.3475 65.3469 79.337C64.1148 79.3265 62.8721 79.3265 61.64 79.337C60.648 79.337 60.0528 79.9376 60.0423 80.9491C60.0319 82.8668 60.0423 84.774 60.0423 86.6917C60.0423 86.8814 60.0423 87.071 60.0423 87.3028C59.4576 87.3028 58.9146 87.3028 58.3298 87.3028C58.3194 87.1764 58.2881 87.0394 58.2881 86.913C58.2881 84.9847 58.2672 83.046 58.2985 81.1177C58.309 80.6225 58.4029 80.0957 58.57 79.632C59.0608 78.2622 60.1676 77.5036 61.6086 77.4825C62.8304 77.472 64.0417 77.472 65.2634 77.4825C67.1847 77.493 68.3647 78.5573 68.5944 80.4644C68.8346 82.5086 67.9992 83.8362 66.0674 84.4895C66.0048 84.5106 65.9526 84.5422 65.7542 84.6265C66.3702 84.9215 66.8715 85.1639 67.3727 85.4062C68.5109 85.9436 68.5213 85.9647 68.2707 87.3134C67.5711 87.345 66.8923 87.3977 66.2032 87.05C64.5429 86.207 62.8513 85.4168 61.1596 84.637C60.7733 84.4579 60.5958 84.2472 60.6375 83.8152C60.6793 83.478 60.648 83.1197 60.648 82.7193Z" fill="#252323"/>
<path d="M48.6078 87.4286C47.9813 87.4286 47.4697 87.4286 46.9162 87.4286C46.8953 87.2917 46.864 87.1863 46.864 87.0704C46.864 85.0157 46.8536 82.961 46.864 80.9063C46.8745 79.8737 47.2817 78.9992 48.0335 78.2932C48.6287 77.7347 49.3388 77.5135 50.1324 77.5135C51.4168 77.5135 52.7116 77.5029 53.996 77.5135C55.8233 77.5345 57.0033 78.5777 57.1495 80.4111C57.2226 81.2751 57.1808 82.1813 56.9615 83.0137C56.6274 84.2887 55.7293 85.1 54.3719 85.1738C52.8264 85.2581 51.281 85.3107 49.7356 84.9209C49.7356 84.4046 49.7356 83.9093 49.7356 83.3509C50.7171 83.3509 51.6674 83.3509 52.6176 83.3509C53.004 83.3509 53.3799 83.3509 53.7662 83.3509C54.7373 83.3509 55.2908 82.8662 55.4056 81.8863C55.4474 81.5069 55.4474 81.1065 55.4056 80.7272C55.3012 79.821 54.7791 79.3574 53.8707 79.3574C52.6907 79.3574 51.5003 79.3574 50.3203 79.3574C49.1926 79.3574 48.6183 79.9264 48.6078 81.0749C48.5974 82.9926 48.6078 84.8998 48.6078 86.8175C48.6078 87.0072 48.6078 87.1968 48.6078 87.4286Z" fill="#252323"/>
<path d="M101.029 83.3509C102.449 83.3509 103.765 83.3509 105.081 83.3509C106.094 83.3509 106.657 82.803 106.72 81.7809C106.72 81.7282 106.72 81.6755 106.73 81.6228C106.804 80.0739 106.511 79.2204 104.559 79.3469C103.567 79.4101 102.575 79.3574 101.583 79.3574C100.528 79.368 99.9222 79.958 99.9222 81.0223C99.9118 82.9505 99.9222 84.8893 99.9222 86.8175C99.9222 87.0072 99.9222 87.1968 99.9222 87.4181C99.327 87.4181 98.7736 87.4181 98.1993 87.4181C98.1889 87.2601 98.168 87.1231 98.168 86.9861C98.168 85.0368 98.168 83.0875 98.168 81.1382C98.168 80.2952 98.3768 79.5049 98.878 78.82C99.4732 78.0192 100.256 77.5346 101.269 77.524C102.679 77.5135 104.089 77.4924 105.498 77.524C107.242 77.5767 108.453 78.82 108.485 80.5902C108.495 81.3278 108.506 82.0759 108.359 82.7924C108.078 84.1833 107.033 85.1316 105.665 85.1738C104.318 85.2264 102.961 85.0895 101.603 85.0579C101.102 85.0473 100.956 84.7944 101.019 84.3203C101.06 84.0147 101.029 83.7197 101.029 83.3509Z" fill="#252323"/>
<path d="M74.7849 87.3341C74.1793 87.3341 73.6467 87.3341 73.0828 87.3341C73.0724 87.155 73.0515 87.0075 73.0515 86.8494C73.0515 84.9001 73.0411 82.9508 73.0515 81.0015C73.062 78.7993 74.3672 77.5138 76.5392 77.5032C77.7609 77.5032 78.9722 77.4927 80.1939 77.5032C81.8646 77.5243 83.2952 78.6939 83.3892 80.3692C83.5145 82.6452 83.4414 84.9317 83.4518 87.2077C83.4518 87.2393 83.4205 87.2709 83.3892 87.3236C82.8671 87.3236 82.3345 87.3236 81.7289 87.3236C81.7289 87.1234 81.7289 86.9337 81.7289 86.744C81.7289 84.879 81.7289 83.0245 81.7289 81.1595C81.7289 79.8951 81.165 79.3366 79.9015 79.3366C78.7842 79.3366 77.6774 79.3366 76.5601 79.3366C75.3488 79.3366 74.7849 79.9056 74.7849 81.149C74.7745 82.9718 74.7849 84.8053 74.7849 86.6281C74.7849 86.8599 74.7849 87.0707 74.7849 87.3341Z" fill="#252323"/>
<path d="M94.0729 77.4612C94.0729 78.0829 94.0729 78.6413 94.0729 79.263C93.8536 79.263 93.6761 79.263 93.4882 79.263C91.6295 79.263 89.7708 79.263 87.9017 79.263C86.8992 79.263 86.2727 79.8636 86.2414 80.8857C86.2205 81.8867 86.2205 82.8877 86.2414 83.8887C86.2623 84.9424 86.8783 85.543 87.9121 85.543C89.7395 85.543 91.5668 85.543 93.3942 85.543C93.603 85.543 93.8014 85.543 94.0521 85.543C94.0521 86.1541 94.0521 86.7231 94.0521 87.3553C93.885 87.3658 93.697 87.3869 93.5195 87.3869C91.6399 87.3869 89.7603 87.3869 87.8808 87.3869C85.9594 87.3869 84.7064 86.3754 84.5393 84.4471C84.414 82.9931 84.4349 81.4968 84.5811 80.0427C84.7377 78.4938 85.9803 77.4717 87.5258 77.4507C89.5933 77.4296 91.6608 77.4401 93.7388 77.4401C93.8328 77.4401 93.9372 77.4507 94.0729 77.4612Z" fill="#252323"/>
<path d="M70.3906 77.3662C70.871 77.3662 71.2991 77.3662 71.7585 77.3662C71.7585 80.6959 71.7585 84.0044 71.7585 87.3341C71.2886 87.3341 70.8605 87.3341 70.3906 87.3341C70.3906 84.0255 70.3906 80.7169 70.3906 77.3662Z" fill="#252323"/>
<path d="M95.3906 77.3662C95.871 77.3662 96.2991 77.3662 96.769 77.3662C96.769 80.6959 96.769 83.9939 96.769 87.3341C96.32 87.3341 95.871 87.3341 95.3906 87.3341C95.3906 84.015 95.3906 80.7169 95.3906 77.3662Z" fill="#252323"/>
<path d="M58.5057 31.9524C58.7458 31.9524 58.9338 31.9524 59.1113 31.9524C64.6247 31.9524 70.1381 31.963 75.662 31.9419C76.205 31.9419 76.3199 32.0999 76.3199 32.6163C76.3094 41.6253 76.3094 50.6343 76.3094 59.6433C76.3094 59.8118 76.299 59.9804 76.2885 60.2122C76.1319 60.1385 76.017 60.0963 75.9231 60.0331C74.3776 59.0216 72.8426 58.01 71.2972 57.009C71.0048 56.8194 70.8795 56.6086 70.8795 56.2504C70.9004 54.4064 70.8795 52.5625 70.89 50.7185C70.89 50.3919 70.8169 50.1917 70.5141 50.002C68.0915 48.4742 65.6794 46.9253 63.2673 45.3764C60.8969 43.8591 59.5394 41.6674 58.9651 38.9067C58.4952 36.6413 58.4535 34.3548 58.5057 31.9524ZM70.796 44.4702C70.8378 44.2384 70.8691 44.1541 70.8691 44.0698C70.8691 41.8044 70.8691 39.539 70.8795 37.2841C70.8795 36.8626 70.6498 36.8521 70.3365 36.8626C68.5092 36.8731 66.6818 36.8626 64.8544 36.8626C63.4134 36.8626 63.403 36.8626 63.7685 38.3167C64.0295 39.3388 64.4368 40.2871 65.3243 40.9087C66.64 41.8255 67.9766 42.6895 69.3132 43.564C69.7831 43.8696 70.253 44.1436 70.796 44.4702Z" fill="#747678"/>
<path d="M79.043 60.2014C79.043 59.9591 79.043 59.7694 79.043 59.5903C79.043 50.6129 79.043 41.646 79.043 32.6687C79.043 31.9521 79.043 31.9521 79.7426 31.9521C85.2247 31.9521 90.7068 31.9521 96.1889 31.9521C96.3977 31.9521 96.5961 31.9521 96.8676 31.9521C96.8676 33.1112 96.9407 34.2176 96.8467 35.3134C96.7214 36.7043 96.5439 38.0951 96.2515 39.4544C95.7085 41.9305 94.3511 43.9009 92.2209 45.2813C89.7566 46.8829 87.2818 48.4528 84.7966 50.0228C84.5251 50.1914 84.4624 50.3706 84.4624 50.655C84.4729 52.5201 84.4729 54.3745 84.452 56.2396C84.452 56.4714 84.3162 56.8086 84.1387 56.9245C82.562 57.9992 80.9539 59.0424 79.3562 60.0855C79.2831 60.1382 79.1892 60.1487 79.043 60.2014ZM91.8032 36.9045C91.6048 36.8834 91.5004 36.8623 91.396 36.8623C89.2449 36.8623 87.0834 36.8729 84.9323 36.8518C84.5459 36.8518 84.4624 37.0204 84.4624 37.3575C84.4729 39.5492 84.4624 41.7409 84.4729 43.9325C84.4729 44.0801 84.5146 44.2276 84.546 44.3962C84.6921 44.354 84.7861 44.3435 84.8488 44.3013C86.5508 43.195 88.2842 42.1202 89.9445 40.9506C91.302 40.0023 91.6257 38.5061 91.8032 36.9045Z" fill="#747678"/>
<path d="M74.4813 20.5726C74.6797 21.9424 74.8781 23.2279 75.0347 24.5345C75.0765 24.8927 75.2018 25.0086 75.5464 25.0086C76.9351 24.9981 78.3344 24.9981 79.7232 25.0086C80.1095 25.0086 80.2662 24.8927 80.3184 24.4818C80.4646 23.1963 80.663 21.9214 80.8405 20.6042C81.0598 20.5937 81.2477 20.5832 81.4357 20.5832C82.2919 20.5832 83.1377 20.5832 83.994 20.5832C85.1426 20.5832 85.1322 20.5832 85.2784 21.7528C85.3932 22.7116 85.5394 23.6599 85.6647 24.6082C85.7065 24.9138 85.8318 25.0192 86.1346 25.0192C87.5652 25.0086 88.9853 24.9981 90.4159 25.0192C90.8649 25.0297 90.8858 24.7347 90.9275 24.4607C91.0842 23.3544 91.2512 22.248 91.3661 21.1311C91.4079 20.7518 91.5123 20.5726 91.93 20.5726C93.1621 20.5937 94.3943 20.5832 95.7518 20.5832C96.0964 23.4597 96.4305 26.3152 96.7855 29.2339C83.9836 29.2339 71.3382 29.2339 58.6406 29.2339C58.6615 28.7387 58.6615 28.2435 58.7242 27.7482C58.9852 25.546 59.2776 23.3438 59.5386 21.1416C59.5909 20.7412 59.7162 20.5621 60.1547 20.5832C61.2303 20.6148 62.3162 20.6148 63.3918 20.5832C63.7781 20.5726 63.9243 20.7202 63.9661 21.0679C64.1123 22.1742 64.2794 23.2806 64.4047 24.3975C64.4569 24.8401 64.5822 25.0403 65.0729 25.0297C66.4304 24.9981 67.7879 25.0086 69.1454 25.0297C69.5108 25.0297 69.657 24.9454 69.6988 24.545C69.8345 23.3649 70.0121 22.1953 70.2105 21.0152C70.2313 20.8571 70.4297 20.6148 70.5446 20.6148C71.8185 20.5621 73.1238 20.5726 74.4813 20.5726Z" fill="#747678"/>
<path d="M70.8999 60.0332C71.6517 60.5179 72.2887 60.9183 72.9257 61.3398C74.3667 62.2775 75.8077 63.2153 77.2278 64.1847C77.5828 64.4271 77.823 64.3955 78.1572 64.1742C80.0889 62.8887 82.0416 61.6137 83.9838 60.3388C84.0987 60.265 84.224 60.2018 84.412 60.0964C84.4328 60.2861 84.4642 60.4231 84.4642 60.5706C84.4642 61.972 84.4746 63.3734 84.4537 64.7853C84.4537 65.0171 84.3389 65.3122 84.1718 65.4702C82.8665 66.6925 81.5195 67.8726 80.2038 69.0949C79.5146 69.7376 78.8568 70.4225 78.1989 71.0969C78.0318 71.2655 77.8961 71.4867 77.7604 71.6659C76.925 70.8651 76.1836 70.1591 75.4318 69.4637C74.0325 68.1571 72.6229 66.8611 71.2341 65.5334C71.0357 65.3438 70.9103 64.9961 70.8999 64.7221C70.879 63.1837 70.8999 61.677 70.8999 60.0332Z" fill="#747678"/>
<path d="M70.7947 44.4704C70.2517 44.1438 69.7818 43.8698 69.3224 43.5642C67.9858 42.6897 66.6492 41.8151 65.3335 40.9089C64.4459 40.2873 64.0387 39.339 63.7776 38.3169C63.4122 36.8628 63.4122 36.8628 64.8636 36.8628C66.691 36.8628 68.5184 36.8628 70.3457 36.8628C70.6485 36.8628 70.8887 36.8733 70.8887 37.2843C70.8783 39.5497 70.8783 41.8151 70.8783 44.07C70.8678 44.1543 70.8365 44.2386 70.7947 44.4704Z" fill="white"/>
<path d="M91.8056 36.9047C91.6281 38.5063 91.3044 40.0026 89.9469 40.9509C88.2866 42.1205 86.5533 43.1952 84.8512 44.3016C84.7781 44.3437 84.6946 44.3543 84.5484 44.3964C84.5171 44.2278 84.4753 44.0803 84.4753 43.9328C84.4753 41.7411 84.4753 39.5495 84.4648 37.3578C84.4648 37.0206 84.5484 36.8521 84.9347 36.8521C87.0858 36.8626 89.2473 36.8626 91.3984 36.8626C91.5028 36.8626 91.6072 36.8837 91.8056 36.9047Z" fill="white"/>
</svg>
