<svg width="164" height="116" viewBox="0 0 164 116" fill="none" xmlns="http://www.w3.org/2000/svg">
<g filter="url(#filter0_d_514_9722)">
<rect x="4" width="156" height="108" rx="10" fill="white"/>
<g clip-path="url(#clip0_514_9722)">
<path d="M36.0859 36.2285H73.9005V77.8173H36.0859V36.2285ZM88.9865 36.2285H126.801V77.8173H88.9865V36.2285Z" fill="white"/>
<path d="M52.8337 61.6738H52.7008C51.0394 61.7403 50.6406 63.534 50.6406 66.125C50.6406 68.0517 51.1058 70.1112 52.7673 70.1776C54.4287 70.1776 54.8275 68.0517 54.8939 66.125C54.9604 63.6005 54.5616 61.8067 52.8337 61.6738Z" fill="#E61523"/>
<path d="M63.6673 34.5018V30.7149L61.2748 28.3232H49.2459L46.7869 30.7149V34.5018H34.4922V79.6781H75.8955V34.5018H63.6673ZM68.1864 44.7329H70.8447V55.6283H68.1864V44.7329ZM70.8447 60.2124V62.0062H65.1958V60.2124H70.8447ZM49.2459 30.7149H61.2748V34.5018H49.2459V30.7149ZM55.8252 44.6664V55.6283H53.2998V44.6664H55.8252ZM39.4101 44.7993H41.3374L45.4578 52.6387L49.5782 44.7993H51.3725V55.5619H48.98V49.5827L45.6571 55.6283H44.2615L41.2044 49.5162V55.5619H39.4101V44.7993ZM45.923 70.9086C44.1951 72.1708 41.138 71.9051 39.4101 71.2407L39.7424 69.5134C40.6063 69.912 42.0019 70.1113 43.1982 70.0449C44.6603 69.912 45.2584 68.7826 44.5938 67.9854C43.9292 67.0553 41.4703 66.7895 40.1411 65.3944C39.0113 64.1985 39.3436 62.0726 40.4734 61.1425C42.0684 59.8138 45.2584 60.2124 46.654 60.611L46.3217 62.2055C45.7236 61.8733 41.9355 61.2754 41.6697 62.9363C41.4703 64.0657 43.1982 64.5972 44.0621 64.9958C45.1919 65.4608 46.2553 66.1252 46.7869 66.9224C47.3186 67.7196 47.518 69.7792 45.923 70.9086ZM52.8346 71.7722C49.5782 71.7722 48.4484 69.3141 48.3155 66.1252C48.249 63.9328 48.7807 62.2719 49.9104 61.2089C50.6415 60.4781 51.5719 60.146 52.8346 60.146C54.0973 60.146 55.0277 60.4117 55.7588 61.2089C56.8885 62.2719 57.4202 63.9328 57.3537 66.1252C57.2208 69.2477 56.0246 71.7722 52.8346 71.7722ZM57.7525 44.7329H59.1481L64.5312 51.2436V44.7329H66.3256V55.6283H65.2622L59.5469 48.9848V55.6283H57.7525V44.7329ZM61.8064 61.3418C61.8064 62.139 61.2083 62.737 60.4108 62.737C59.6798 62.737 59.0152 62.139 59.0152 61.3418C59.0152 60.5446 59.6133 59.9467 60.4108 59.9467C61.1418 59.9467 61.8064 60.5446 61.8064 61.3418ZM64.8635 71.7722C61.4741 71.7722 58.6829 68.9819 58.6829 65.4608V65.1951H60.3444V65.4608C60.3444 67.9854 62.3381 70.0449 64.8635 70.0449C67.3889 70.0449 69.3826 67.9854 69.3826 65.4608V65.1951H71.0441V65.4608C71.0441 68.9155 68.2529 71.7722 64.8635 71.7722ZM116.634 34.5018V30.7149L114.242 28.3232H102.213L99.754 30.7149V34.5018H87.4592V79.6781H128.863V34.5018H116.634ZM120.688 42.6069L122.483 44.0685C121.552 45.3308 120.223 46.5266 118.229 47.8554V56.6913H115.97V48.719C114.308 49.1841 112.78 49.5162 111.052 49.782L110.985 47.3239C115.372 46.8588 117.897 45.7294 120.688 42.6069ZM102.213 30.7149H114.242V34.5018H102.213V30.7149ZM94.3044 60.2788L96.6304 59.1494C97.4279 60.6775 98.159 62.5377 98.9565 64.6636L96.564 65.5273C95.8329 63.7335 95.1684 61.9397 94.3044 60.2788ZM105.27 64.9958C104.207 67.7196 102.146 69.9785 98.026 72.7688L96.6304 70.5764C101.748 67.4539 103.276 65.1287 104.007 59.4816L106.533 59.7474C106.267 61.7404 105.868 63.4678 105.27 64.9958ZM107.397 54.2332C106.067 53.1038 104.472 51.9079 102.612 50.9778C100.419 54.1003 97.8267 55.7612 93.7063 57.1564L92.9752 54.6982C95.8994 53.6353 98.6906 52.373 100.352 49.6491C98.4248 48.719 96.6304 47.7889 95.0354 47.2574L95.9658 44.9322C97.6938 45.5965 99.621 46.4602 101.482 47.5232C102.014 46.1945 102.346 44.5336 102.412 42.9391L105.071 43.0055C104.871 44.9986 104.472 46.8588 103.675 48.719C105.868 49.9149 107.729 51.1771 109.058 52.3065L107.397 54.2332ZM122.748 63.7999C122.748 65.8594 122.483 67.5868 122.15 68.1847C120.755 70.975 117.764 72.038 114.641 72.1708L114.175 69.447C116.767 69.3805 118.562 68.6497 119.558 67.1882C120.223 66.1916 120.223 65.1951 120.223 63.3349H113.178V65.1951L110.786 65.1287V60.5446H115.438V58.8837H117.963V60.5446H122.748V63.7999Z" fill="#E61523"/>
</g>
</g>
<defs>
<filter id="filter0_d_514_9722" x="0" y="0" width="164" height="116" filterUnits="userSpaceOnUse" color-interpolation-filters="sRGB">
<feFlood flood-opacity="0" result="BackgroundImageFix"/>
<feColorMatrix in="SourceAlpha" type="matrix" values="0 0 0 0 0 0 0 0 0 0 0 0 0 0 0 0 0 0 127 0" result="hardAlpha"/>
<feOffset dy="4"/>
<feGaussianBlur stdDeviation="2"/>
<feComposite in2="hardAlpha" operator="out"/>
<feColorMatrix type="matrix" values="0 0 0 0 0 0 0 0 0 0 0 0 0 0 0 0 0 0 0.25 0"/>
<feBlend mode="normal" in2="BackgroundImageFix" result="effect1_dropShadow_514_9722"/>
<feBlend mode="normal" in="SourceGraphic" in2="effect1_dropShadow_514_9722" result="shape"/>
</filter>
<clipPath id="clip0_514_9722">
<rect width="94.3704" height="51.358" fill="white" transform="translate(34.4922 28.3213)"/>
</clipPath>
</defs>
</svg>
