<svg width="156" height="108" viewBox="0 0 156 108" fill="none" xmlns="http://www.w3.org/2000/svg">
<rect x="0.321429" y="0.321429" width="155.357" height="107.357" rx="9.67857" fill="white"/>
<rect x="0.321429" y="0.321429" width="155.357" height="107.357" rx="9.67857" stroke="#BDBFC4" stroke-width="0.642857"/>
<g clip-path="url(#clip0_514_9774)">
<path d="M26.8448 61.8029H24.043V46.0391H27.7254C31.7281 46.0391 33.8094 48.9701 33.8094 51.901C33.8094 54.832 31.648 57.7629 28.1257 57.7629H26.8448V61.8029ZM26.8448 55.1488H27.9656C29.9669 55.1488 30.9275 53.4853 30.9275 51.901C30.9275 50.3167 29.8868 48.6532 27.6454 48.6532H26.8448V55.1488ZM41.5746 62.0405C37.8922 62.0405 35.4105 59.5056 35.4105 55.7033V46.0391H38.2924V55.6241C38.2924 58.0798 39.4932 59.3472 41.6546 59.3472C44.3765 59.3472 44.9368 57.2876 44.9368 55.6241V46.0391H47.8187V55.7033C47.7387 59.5056 45.257 62.0405 41.5746 62.0405ZM57.4251 61.8029H49.66V46.0391H52.5419V59.1096H57.4251V61.8029ZM66.311 61.8029H58.5458V46.0391H61.4278V59.1096H66.311V61.8029ZM87.6852 61.8029H82.8019V46.0391H85.7639C87.445 46.0391 88.8059 46.1184 89.7666 46.7521C91.2075 47.5442 91.928 48.8909 91.928 50.5544C91.928 51.6634 91.4477 52.614 90.6471 53.3269C92.1681 54.119 92.9687 55.3865 92.9687 57.2084C93.0487 59.7433 90.6471 61.8029 87.6852 61.8029ZM85.6038 59.1096H87.1248C90.0868 59.1096 90.0868 57.5253 90.0868 57.05C90.0868 56.5747 90.0868 54.9904 87.2049 54.9904H85.6038V59.1096ZM85.6038 52.4555H86.7245C87.7652 52.4555 89.0461 52.1387 89.0461 50.5544C89.0461 49.7622 88.8059 48.6532 86.5644 48.6532H85.5237L85.6038 52.4555ZM104.256 61.8029H94.4897V46.0391H104.256V48.7324H97.3716V52.4555H103.856V55.0696H97.3716V59.1096H104.256V61.8029ZM120.427 61.8029H117.145L115.544 57.6837H109.7L108.099 61.8029H105.057L111.541 46.1184H113.782L120.427 61.8029ZM110.66 55.0696H114.503L112.582 50.3167L110.66 55.0696ZM126.991 59.1096C127.392 59.9809 127.872 60.8523 128.432 61.7236H131.955C131.154 60.5354 130.353 59.0303 129.713 57.7629L128.512 55.3865C129.233 54.9904 129.873 54.4359 130.353 53.723C130.834 52.9308 131.074 52.0595 131.074 51.0297C131.074 47.9403 128.752 46.1184 124.99 46.1184H121.147V61.8029H123.949V56.4955C123.949 56.4955 124.67 56.4955 125.63 56.337C125.951 56.9708 126.431 58.0005 126.991 59.1096ZM123.949 53.6437V48.7324H124.83C127.071 48.7324 128.192 49.5246 128.192 51.1089C128.192 53.2477 126.431 53.723 124.91 53.723H123.949V53.6437ZM78.319 58.159C78.319 57.6045 78.399 57.1292 78.5591 56.6539C78.8793 55.7825 79.3597 55.1488 80.0001 55.0696H80.0801V52.4555C78.0788 52.4555 76.4777 53.8022 75.9974 55.6241L71.8347 51.1089C71.4344 50.7128 71.2743 50.3167 71.2743 49.9207C71.2743 49.5246 71.4344 49.1285 71.7546 48.8117C72.0748 48.4948 72.4751 48.3364 72.8754 48.3364C73.2756 48.3364 73.6759 48.4948 73.9961 48.8117C74.1562 48.9701 74.2363 49.1285 74.3163 49.2869L76.7179 48.0987C76.4777 47.7026 76.2376 47.3066 75.9174 46.9105C75.1168 46.1184 73.9961 45.6431 72.8754 45.6431C71.7546 45.6431 70.7139 46.0391 69.8333 46.9105C69.0328 47.7026 68.5525 48.8117 68.5525 49.9207C68.5525 50.9504 68.9528 52.0595 69.7533 52.8516C68.3123 53.723 67.2716 55.3073 67.2716 57.1292C67.2716 59.9809 69.5932 62.3574 72.5551 62.3574C74.2363 62.3574 75.7573 61.6444 76.798 60.5354L77.9187 61.7236H81.6812L78.319 58.159ZM72.6352 59.7433C71.1942 59.7433 70.0735 58.5551 70.0735 57.1292C70.0735 56.0994 70.794 55.228 71.7546 54.9112L75.1168 58.555C74.4764 59.268 73.5958 59.7433 72.6352 59.7433Z" fill="#1A1A1A"/>
</g>
<defs>
<clipPath id="clip0_514_9774">
<rect width="108" height="16.7143" fill="white" transform="translate(24 45.6431)"/>
</clipPath>
</defs>
</svg>
