<svg width="156" height="108" viewBox="0 0 156 108" fill="none" xmlns="http://www.w3.org/2000/svg">
<rect width="156" height="108" rx="10" fill="white"/>
<path d="M64.7329 51.0863C64.6113 51.5595 65.0249 52.0077 65.4628 51.9579C66.2414 51.7836 66.2414 50.5634 65.2925 50.5634C65.0006 50.7377 64.8302 50.7875 64.7329 51.0863ZM127.482 51.4101C127.36 51.8832 127.774 52.3812 128.212 52.2816C129.112 52.1571 129.064 50.8373 128.09 50.8373C127.774 51.0116 127.604 51.0863 127.482 51.4101ZM119.648 54.7718C119.648 54.2489 119.599 53.1034 119.769 52.8046C120.061 52.4061 121.229 52.5057 121.813 52.4559H122.202C122.981 52.4559 122.884 52.9789 122.884 53.6761V55.2948C122.762 55.9422 122.884 56.5648 122.762 57.1375C122.64 57.6604 122.373 58.0589 122.081 58.4573C121.862 58.7561 121.448 59.1546 120.888 58.9802C119.356 58.5818 119.648 56.6146 119.648 54.7718ZM109.818 56.1663C109.526 57.6106 109.648 59.3538 110.548 60.0261C110.718 60.1506 110.888 60.3249 111.107 60.3747C112.056 60.7234 112.738 60.1506 113.249 59.7273C113.541 59.5032 113.881 59.2044 114.368 59.3289C115.098 59.5032 115.317 60.2502 116.12 60.4246C116.509 60.4744 116.849 60.3 117.141 60.2004C117.604 59.9016 117.92 59.6277 118.504 59.5032C118.845 59.4534 119.137 59.6277 119.283 59.7273C119.745 59.9514 120.134 60.3 120.694 60.4246C121.034 60.4744 121.326 60.3 121.472 60.2502C121.935 59.9514 122.251 59.6028 122.835 59.5032C123.127 59.4534 123.394 59.6277 123.565 59.6775C123.954 59.9016 124.246 60.3249 124.806 60.4246C125.755 60.6487 126.728 59.7771 127.336 59.5032C127.628 59.3787 127.969 59.3787 128.236 59.5032C128.455 59.6775 128.699 59.8518 128.918 60.0261C129.307 60.3249 130.11 60.5491 130.84 60.3747C131.059 60.3249 131.229 60.2502 131.399 60.1506C131.57 60.0261 132.081 59.7522 132.032 59.4534C132.032 59.4534 132.032 59.4036 131.983 59.4036C131.764 59.3538 131.253 59.5779 130.961 59.5779C130.012 59.7522 129.331 59.0051 129.088 58.4324C128.918 58.034 128.796 57.5608 128.699 57.0379C128.699 56.7391 128.65 56.515 128.65 56.241C128.528 55.6683 128.65 55.0955 128.139 54.971C127.36 54.7967 127.506 56.1912 127.409 56.764C127.239 57.9095 127.02 58.5569 126.047 58.9553C125.536 59.1795 124.976 59.1795 124.587 58.8308C123.905 58.2581 123.905 57.2122 123.905 55.9422V54.1991C123.905 53.7259 123.784 52.7548 124.027 52.4559C124.319 52.0575 125.098 52.2816 125.56 52.1073C125.682 52.0575 125.852 51.933 125.852 51.7089C125.73 51.0614 124.562 51.5346 124.149 51.1859C123.638 50.7875 124.319 49.0942 123.589 48.8203C123.37 48.6958 123.127 48.8701 123.03 48.9946C122.811 49.2934 122.859 49.9658 122.859 50.4887C122.859 50.7128 122.859 50.8871 122.811 51.0614C122.762 51.1859 122.64 51.2856 122.519 51.3603C122.348 51.4101 122.129 51.3603 121.837 51.4101C121.448 51.4101 121.107 51.4101 120.718 51.4599C120.499 51.4599 120.207 51.5097 119.988 51.4599C119.039 51.2358 120.158 48.8701 118.966 48.8701C118.747 48.9946 118.626 49.0444 118.504 49.2685C118.334 49.7914 118.553 50.7128 118.382 51.2358C118.163 51.7587 117.19 51.4101 116.849 51.933C116.801 51.9828 116.728 52.1073 116.801 52.2816C116.971 53.0287 118.042 52.5805 118.334 53.0287C118.504 53.3275 118.455 54.2489 118.455 54.7718C118.455 56.2659 118.407 57.3616 117.896 58.3079C117.774 58.532 117.677 58.7063 117.433 58.8806C117.263 59.0051 117.141 59.1048 116.922 59.2293C116.704 59.3538 116.363 59.3538 116.144 59.2791C115.244 58.9304 115.292 57.7102 115.122 56.6893C115 56.1165 115.244 55.245 114.66 55.1204C114.027 54.9959 113.978 56.2161 113.881 56.7391C113.662 57.8846 113.322 59.0549 112.178 59.2791C111.497 59.4534 111.107 58.8806 110.986 58.3577C110.937 58.1336 110.937 57.8348 110.937 57.5608C110.888 57.1624 110.937 56.6893 110.986 56.2908C111.034 55.7679 110.864 54.971 110.353 55.0706C109.94 54.9959 109.867 55.6932 109.818 56.1663ZM93.5163 48.0234C93.5649 48.3222 94.0272 48.1977 94.2462 48.1479C94.8788 47.9736 95.6574 47.625 95.8277 48.4965C95.8763 49.9907 95.9493 51.5595 95.998 53.0536C95.998 53.5267 95.998 53.975 96.0467 54.4481C96.0467 55.0208 96.0467 55.6683 96.0953 56.241V56.7391C96.217 57.3865 96.0467 58.4075 96.5576 58.6565C96.8496 58.781 97.0199 58.532 97.0686 58.3079C97.2389 57.9095 97.2389 57.3367 97.2875 56.8138V56.3406C97.2875 55.8177 97.2875 55.2948 97.3362 54.7718C97.3362 53.7259 97.3848 52.6303 97.3848 51.5844V49.5673V48.5961V47.9487C97.4335 47.7744 97.5065 47.6001 97.6768 47.5503C98.0174 47.376 99.4286 47.2514 99.9882 47.376C100.451 47.4258 100.84 47.5005 101.229 47.5503C102.64 47.8989 103.881 48.5961 104.684 49.642C105.146 50.2148 105.463 50.8622 105.755 51.6093C105.876 52.0077 105.925 52.4808 106.047 53.0038C106.217 54.0995 105.998 55.4193 105.706 56.241C104.806 58.6565 103.054 59.7771 100.353 60.3498C99.9639 60.4744 99.5016 60.3996 99.0637 60.5242H97.8715C97.6525 60.5242 97.3605 60.5242 97.1415 60.4744C96.8496 60.4744 96.5089 60.4246 96.2413 60.4246C95.852 60.3747 95.4627 60.3 95.0004 60.2502C94.7815 60.2004 94.4895 60.1257 94.2705 60.2004V60.2502C94.3922 60.4744 94.6598 60.4744 94.9031 60.5989C95.4627 60.823 96.0953 60.9475 96.7036 61.1218C99.9153 61.8689 103.419 60.823 105.341 59.5032C106.704 58.532 107.652 57.3118 108.163 55.3944C108.285 54.9212 108.455 54.0746 108.334 53.4769V53.0785C108.285 52.6801 108.285 52.2816 108.163 51.933C107.993 51.2358 107.774 50.5385 107.433 50.0156C106.047 47.6001 103.614 46.2803 99.9396 46.2803C99.7693 46.2803 99.599 46.2803 99.38 46.3301C99.0393 46.3799 98.6987 46.4546 98.3581 46.4546C97.1659 46.6787 95.925 46.853 94.9031 47.3262C94.5625 47.4507 94.1732 47.5503 93.8812 47.7246C93.6136 47.7246 93.4433 47.8491 93.5163 48.0234ZM55.0736 58.2332C55.8035 58.2332 56.1928 59.4534 55.4142 59.6775C54.9033 59.8518 54.003 59.5032 54.1733 58.9304C54.222 58.4573 54.6843 58.3577 55.0736 58.2332ZM60.6697 58.1336C60.7913 58.1336 60.8886 58.1336 61.0103 58.1834C61.3023 58.3079 61.6916 58.8308 61.5212 59.2293C61.3996 59.4534 61.1806 59.5779 60.8886 59.6277C60.3777 59.7522 59.5991 59.3289 59.8181 58.7561C59.9397 58.3577 60.329 58.2332 60.6697 58.1336ZM40.7914 56.3406C40.2805 57.5608 41.0104 58.9304 41.6916 59.5281C42.5432 60.2253 43.8814 60.574 45.2926 60.1755C45.9739 59.9514 46.5335 59.5281 47.2634 59.4285C47.4337 59.3787 47.6527 59.4285 47.7743 59.4783C48.4556 59.7024 49.1369 60.5242 50.0371 60.2253C50.3291 60.1008 50.5967 60.0012 50.8157 59.8269C51.4483 59.3538 51.9349 58.7312 52.2755 57.9842C52.4945 57.511 52.6648 56.9383 52.9081 56.4901C53.0785 56.2659 53.4191 56.0916 53.7597 56.2659C53.93 56.3157 54.0517 56.4402 54.149 56.5648C54.2707 56.6893 54.368 56.7889 54.441 56.9134C54.5626 57.0877 54.4896 57.3118 54.3923 57.4363C54.2707 57.5608 54.1004 57.6604 53.93 57.785C53.6381 57.9593 53.4191 58.2581 53.2001 58.4822C52.7378 59.1297 52.8108 59.7024 53.4921 60.1008C54.441 60.6736 56.8254 60.7981 57.093 59.5281C57.2147 59.0549 56.9714 58.6067 56.8741 58.2581C56.8254 58.0838 56.6551 57.9095 56.7038 57.6106C56.7524 57.3118 57.0444 57.2122 57.2147 57.0379C57.604 56.6893 57.9933 56.3406 58.4556 55.992C58.6259 55.8675 58.8449 55.8177 59.0882 55.9422C59.2585 55.992 59.4288 56.1663 59.5505 56.2908C59.7208 56.4153 60.1101 56.764 60.0614 57.0379C60.0127 57.262 59.8424 57.3865 59.6721 57.511C59.2098 57.8099 58.0906 58.781 58.7232 59.5281C58.8449 59.6526 59.0152 59.7522 59.1855 59.8767C59.4775 60.051 59.8668 60.1755 60.2074 60.2751C61.3266 60.574 62.6405 60.2253 62.8594 59.304C63.0784 58.4324 61.9592 57.7351 62.8108 57.1624C62.9811 57.1126 63.1028 56.9881 63.2731 56.9383C63.4434 56.8885 63.7354 56.7142 64.003 56.764C64.5626 56.8885 64.5626 57.511 64.7816 57.9842C65.0735 58.7312 65.5602 60.0012 66.3144 60.2253C66.7037 60.3498 67.0443 60.1008 67.2147 59.9265C67.7743 59.4534 68.1636 58.781 68.6258 58.1336C68.7962 57.9095 69.0881 57.4363 69.4774 57.4861C70.11 57.6106 70.1587 58.9304 70.3777 59.5779C70.4263 59.8767 70.548 60.1506 70.8399 60.2253C71.1806 60.3498 71.4725 59.7522 71.5699 59.5281C71.8618 58.8308 72.2511 57.3865 72.9324 57.1624C73.2244 57.0379 73.4433 57.2869 73.565 57.4612C73.9056 57.9842 73.784 59.03 74.0273 59.7024C74.0759 59.9265 74.3192 60.3498 74.6599 60.2253C75.1222 60.1008 75.1708 59.5281 75.3411 59.1297C75.5601 58.4324 75.8034 57.5608 76.4604 57.3367C76.9713 57.1624 77.1416 57.6853 77.2389 57.9842C77.5309 58.7312 77.7012 59.8269 78.4312 60.1755C78.8204 60.3498 79.2827 60.1755 79.5504 60.051C80.2316 59.7024 80.5723 59.0798 81.4238 58.9553C81.6428 58.9055 81.8861 59.0051 82.0564 59.0798C82.4457 59.304 82.7864 59.6028 83.1757 59.8269C84.2949 60.5242 85.8277 60.1755 86.728 59.6028C87.4092 59.1297 87.9688 58.4573 88.2608 57.5857C88.7231 56.1414 87.7498 55.0457 86.8009 54.6473C86.1197 54.3485 84.9275 54.3485 84.1976 54.6473C84.0759 54.6971 83.565 54.9461 83.6866 55.1204C83.7353 55.245 83.9786 55.1703 84.0759 55.1703C84.4165 55.1204 84.8545 54.9959 85.3168 55.0457C86.3387 55.2201 87.2389 55.9671 86.8496 57.2869C86.8009 57.4612 86.6793 57.6853 86.5576 57.8597C86.1683 58.5071 84.8545 59.2542 83.6866 58.9055C83.0053 58.6814 82.4457 58.2083 82.2754 57.511C82.1051 56.9881 82.1051 56.1165 82.2268 55.5438C82.2754 55.245 82.1781 54.8963 81.8861 54.971C81.5455 55.0208 81.3265 56.1165 81.2049 56.4651C80.8642 57.3865 80.3046 58.4324 79.2341 58.6067C78.7231 58.6565 78.5041 58.2083 78.3338 57.8597C78.0419 57.1126 77.9445 56.1912 77.7742 55.3695C77.6526 54.8963 77.6526 54.4481 77.2146 54.3983C76.874 54.3485 76.582 54.5726 76.4847 54.7469C76.0954 55.2699 75.8521 55.9671 75.4628 56.4901C75.2925 56.6644 75.0735 57.013 74.6842 56.9632C74.0029 56.8387 73.9056 55.8675 73.6623 55.2201C73.5407 54.9959 73.3703 54.4232 73.0297 54.5228C72.3485 54.6473 72.1295 56.0169 71.8375 56.6644C71.7159 56.8885 71.4482 57.3616 70.9859 57.1375C70.2073 56.7889 70.6453 54.8216 69.7937 54.5975C69.2828 54.473 68.9421 55.1702 68.7718 55.5189C68.3825 56.2161 68.0906 57.0877 67.6526 57.7102C67.4823 58.0091 67.2633 58.3577 66.874 58.4075C66.4117 58.4573 66.1928 58.0091 66.0954 57.7102C65.8765 57.0628 65.7548 56.3904 65.5845 55.6185C65.5358 55.1453 65.5358 54.7469 65.1952 54.5228C64.7329 54.224 64.4166 54.7469 64.1246 54.9959C63.565 55.3944 63.0054 55.743 62.3728 56.1414C62.2025 56.2659 61.8619 56.4901 61.5212 56.4402C61.1806 56.3904 60.9616 56.0916 60.7427 55.9173C60.2804 55.5687 59.8911 55.1702 59.5018 54.7718C59.2828 54.5477 59.0395 54.1244 58.6502 54.1244C58.6016 54.1742 58.4799 54.1742 58.4312 54.1742C58.1393 54.3485 58.0419 54.7469 57.8716 55.0457C57.5797 55.5189 56.7524 56.4402 56.1685 56.5399C55.8278 56.5897 55.5359 56.1912 55.3899 56.0667C54.8303 55.494 54.368 54.971 53.6381 54.6224C53.3461 54.4979 52.8595 54.224 52.5189 54.4481C52.2269 54.6224 52.2269 55.494 52.1296 55.8426C51.7889 56.8138 51.2293 57.9344 50.4994 58.5569C50.2074 58.781 49.8181 59.1297 49.3072 59.03C48.3583 58.8059 48.188 57.5857 47.9447 56.6146C47.823 56.1414 47.7743 55.2201 47.3851 55.1703C47.0444 55.1204 46.9958 55.3944 46.9228 55.6932C46.8741 55.992 46.9228 56.2659 46.9228 56.6146V57.1375C46.8741 57.4861 46.8741 57.7849 46.7525 58.0589C46.4118 58.8557 45.2926 59.6775 44.0517 59.4534C43.7598 59.4036 43.5408 59.4036 43.3218 59.3289C42.6405 59.03 42.2513 58.532 42.0809 57.6604C42.0323 57.3616 42.1296 57.1375 42.2026 56.9134C42.4946 55.992 43.2731 55.8177 44.3437 55.6434C44.6843 55.5936 45.7549 55.7679 45.8765 55.5189C45.9982 55.2948 45.5359 55.1204 45.4143 55.0457C44.8546 54.7469 43.9544 54.5726 43.1515 54.7469C42.0323 54.7718 41.1807 55.4193 40.7914 56.3406ZM23.9788 60.2502C23.9302 60.5989 23.9788 60.9475 24.1491 61.1218C24.3681 61.2961 24.8304 61.2961 25.0494 61.1218C25.39 60.823 25.4387 59.9763 25.5603 59.4534C25.9496 57.5359 26.3389 54.5975 26.7525 52.705C26.8742 52.2318 26.9715 50.9618 27.5311 51.0365C28.1637 51.0863 28.2124 52.6552 28.3827 53.2777C28.6747 54.722 28.8936 56.1165 29.1613 57.5608C29.3316 58.3079 29.3316 59.1297 29.6722 59.7024C29.9642 60.1008 30.6211 60.6238 31.3754 60.3498C32.154 60.0012 32.3973 58.9553 32.6649 58.1585L34.8547 52.2567C35.0737 51.5595 35.3656 50.8622 35.5846 50.2397C35.7063 50.0156 35.8036 49.6669 36.1442 49.7167C36.9958 49.8412 36.6065 51.7338 36.7768 52.6054C36.8985 55.1453 36.9471 57.0628 37.0688 59.5281C37.2391 60.574 36.7768 61.7194 37.969 61.7194C38.0907 61.7194 38.188 61.7194 38.261 61.6696C38.8936 61.4953 38.8936 60.5242 38.7719 59.7522C38.7719 59.3538 38.7233 59.0051 38.7233 58.6067C38.7233 58.3079 38.6746 58.034 38.6746 57.7351C38.48 54.7718 38.3097 52.4559 38.1393 49.5175C38.0177 48.7207 38.188 47.3262 37.7987 46.8032C37.5797 46.5044 37.1661 46.4546 36.6795 46.4546H36.3389C36.0469 46.5044 35.8279 46.5044 35.6576 46.6289C35.2683 46.9277 34.9277 48.2475 34.7574 48.8203C34.0761 50.7377 33.3948 52.6303 32.7136 54.5477C32.4216 55.2948 32.2026 56.0418 31.935 56.7889C31.8133 57.1375 31.643 57.5359 31.3024 57.5857C30.9618 57.6355 30.7914 57.3616 30.7428 57.1126C30.4508 56.4651 30.4508 55.6185 30.3535 54.9212C30.0615 53.0785 29.7209 51.161 29.4533 49.3183C29.3316 48.6709 29.2829 47.5254 28.8936 47.1767C28.6017 46.9526 27.7014 46.8281 27.1905 47.0024C26.4606 47.2265 26.4119 48.6709 26.1686 49.4926C25.609 52.0326 25.0494 55.5687 24.4654 58.1087C24.2465 58.8806 24.1005 59.5779 23.9788 60.2502Z" fill="#1A1A1A"/>
</svg>
