<svg width="156" height="108" viewBox="0 0 156 108" fill="none" xmlns="http://www.w3.org/2000/svg">
<rect x="0.321429" y="0.321429" width="155.357" height="107.357" rx="9.67857" fill="white"/>
<rect x="0.321429" y="0.321429" width="155.357" height="107.357" rx="9.67857" stroke="#BDBFC4" stroke-width="0.642857"/>
<rect x="62.7734" y="20.5718" width="6.25515" height="6.26213" fill="#9D76B3"/>
<rect x="69.0273" y="26.834" width="6.25515" height="6.26213" fill="#835793"/>
<rect x="62.7734" y="33.0962" width="6.25515" height="6.26213" fill="#EE6692"/>
<rect x="62.7734" y="39.3579" width="6.25515" height="6.26213" fill="#F4835E"/>
<rect x="69.0273" y="39.3579" width="6.25515" height="6.26213" fill="#EF5B5B"/>
<rect x="75.2852" y="33.0962" width="6.25515" height="6.26213" fill="#BD5580"/>
<rect x="81.5391" y="26.834" width="6.25515" height="6.26213" fill="#9D76B3"/>
<rect x="87.793" y="20.5718" width="6.25515" height="6.26213" fill="#8E1176"/>
<rect x="87.793" y="33.0962" width="6.25515" height="6.26213" fill="#C5158B"/>
<rect x="81.5391" y="39.3579" width="6.25515" height="6.26213" fill="#E264A4"/>
<rect x="87.793" y="39.3579" width="6.25515" height="6.26213" fill="#EB008A"/>
<rect x="87.793" y="45.6201" width="6.25515" height="6.26213" fill="#EE6692"/>
<rect x="87.793" y="51.8823" width="6.25515" height="6.26213" fill="#C5158B"/>
<rect x="75.2852" y="45.6201" width="6.25515" height="6.26213" fill="#D01F5C"/>
<rect x="62.7734" y="45.6201" width="6.25515" height="6.26213" fill="#FABA76"/>
<rect x="62.7734" y="51.8823" width="6.25515" height="6.26213" fill="#EF5B5B"/>
<path d="M103.64 63.1929L113.439 71.995C113.454 71.7688 113.47 71.6392 113.47 71.5088C113.47 69.164 113.47 66.8191 113.47 64.4743C113.47 63.9108 113.47 63.9101 114.048 63.9094C114.426 63.9094 114.804 63.9184 115.182 63.9094C115.446 63.9025 115.554 64.0087 115.549 64.2763C115.539 64.8281 115.549 65.3798 115.549 65.9315C115.549 69.2419 115.549 72.5523 115.549 75.8626V76.2937L115.45 76.342L105.67 67.5584C105.655 67.7833 105.639 67.9108 105.639 68.0412C105.639 70.4205 105.639 72.8001 105.639 75.1799C105.639 75.6509 105.639 75.6495 105.165 75.6468C104.729 75.6468 104.294 75.6406 103.858 75.6468C103.611 75.6468 103.499 75.5357 103.504 75.293C103.504 75.224 103.504 75.1551 103.504 75.0861C103.504 71.2815 103.504 67.4766 103.504 63.6715C103.504 63.528 103.526 63.3839 103.537 63.2398L103.64 63.1929Z" fill="#242021"/>
<path d="M66.7819 70.7178L70.8855 75.5806C70.8029 75.624 70.7658 75.6613 70.7286 75.6613C70.0407 75.6613 69.3527 75.6371 68.6648 75.6495C68.3346 75.6551 68.1653 75.4468 67.994 75.2357C66.8823 73.8647 65.7788 72.4861 64.6609 71.1191C64.5749 71.0129 64.4016 70.9812 64.2688 70.9122C64.2296 71.0357 64.158 71.1585 64.1573 71.2819C64.1491 72.5923 64.1429 73.9026 64.1573 75.213C64.1615 75.5516 64.0769 75.684 63.7136 75.6571C63.2443 75.6319 62.774 75.6319 62.3047 75.6571C62.0921 75.664 62.0061 75.5806 62.0164 75.3813C62.0336 75.0613 62.0722 74.7406 62.0722 74.4199C62.0763 71.2014 62.0763 67.9844 62.0722 64.7687C62.0722 64.6998 62.0722 64.6308 62.0722 64.5618C62.0612 63.9163 62.0612 63.9011 62.7278 63.9198C63.8973 63.9529 65.0668 63.9611 66.2246 64.0653C67.4113 64.1715 68.4666 64.5984 69.1993 65.6294C69.9526 66.6888 69.8618 68.4481 68.9971 69.4226C68.4866 69.9964 67.8888 70.4109 67.1396 70.595C67.0453 70.6074 66.9525 70.6536 66.7819 70.7178ZM64.1518 67.4639V68.9433C64.1518 69.115 64.1697 69.2729 64.394 69.2833C65.1418 69.3191 65.8855 69.2874 66.5892 69.0074C67.3205 68.7136 67.6858 68.0998 67.6528 67.2922C67.6253 66.6143 67.229 66.1398 66.4936 65.8812C65.8208 65.6439 65.1273 65.6253 64.4298 65.6432C64.1924 65.6487 64.1546 65.7936 64.1546 65.9881C64.1518 66.477 64.1518 66.9701 64.1518 67.4639Z" fill="#242021"/>
<path d="M102.564 75.6441C102.117 75.6441 101.77 75.5944 101.442 75.6537C100.508 75.822 99.9777 75.4413 99.6819 74.5579C99.5119 74.051 99.2065 73.5923 98.974 73.1027C98.9395 73.0117 98.8766 72.9344 98.7946 72.8825C98.7126 72.8305 98.6159 72.8066 98.5192 72.8144C96.8223 72.819 95.1253 72.819 93.4284 72.8144C93.147 72.8144 92.9861 72.9427 92.8629 73.1785C92.4811 73.911 92.0821 74.6351 91.7078 75.3717C91.5978 75.5875 91.4712 75.662 91.2263 75.653C90.6071 75.6317 89.9928 75.6461 89.2656 75.6461L95.9628 63.2826L96.0914 63.2646C98.2317 67.3578 100.373 71.453 102.564 75.6441ZM95.9993 67.2474L93.9485 71.1096H97.9585L95.9993 67.2474Z" fill="#242021"/>
<path d="M53.0014 69.8199C53.0014 68.0153 53.0014 66.2109 53.0014 64.4067C53.0014 63.9281 53.0179 63.9102 53.474 63.9102C55.6754 63.9102 57.8769 63.9102 60.0783 63.9102C60.5379 63.9102 60.5723 63.9467 60.5757 64.3929C60.5757 64.6688 60.5626 64.9446 60.5798 65.2205C60.5998 65.535 60.4725 65.644 60.1595 65.6412C58.6701 65.6309 57.1793 65.6364 55.6878 65.6371C55.1375 65.6371 55.1375 65.6371 55.1375 66.1888C55.1375 66.7631 55.1375 67.3378 55.1375 67.913C55.1375 68.3647 55.1567 68.384 55.5984 68.384C57.0201 68.384 58.4419 68.384 59.8637 68.384C60.3989 68.384 60.3948 68.384 60.3783 68.9026C60.3597 69.1782 60.3609 69.4548 60.3817 69.7302C60.4168 70.053 60.2757 70.1199 59.9896 70.1178C58.7746 70.1081 57.5597 70.1137 56.3434 70.1144C56.0456 70.1144 55.747 70.1185 55.4491 70.1144C55.2331 70.1144 55.1361 70.2088 55.1368 70.4261C55.1395 71.5061 55.1395 72.5866 55.1368 73.6675C55.1368 73.9523 55.3129 73.9689 55.5261 73.9689C57.0396 73.9689 58.5531 73.9689 60.0666 73.9689C60.5626 73.9689 60.5723 73.9799 60.575 74.4647C60.575 74.7178 60.5612 74.9716 60.575 75.2234C60.5956 75.5372 60.4684 75.6475 60.1554 75.6448C58.8716 75.633 57.5872 75.6399 56.3028 75.6399C55.317 75.6399 54.3312 75.6344 53.3447 75.6441C53.0888 75.6441 52.9862 75.5868 52.9883 75.2992C53.0083 73.4744 53.0014 71.6468 53.0014 69.8199Z" fill="#242021"/>
<path d="M71.9183 69.7694C71.9183 67.9762 71.9183 66.1831 71.9183 64.39C71.9183 63.9252 71.9335 63.9072 72.4068 63.9072H78.9423C79.4149 63.9072 79.4307 63.9245 79.4328 64.39C79.4328 64.6431 79.4328 64.8955 79.4328 65.1486C79.4328 65.6224 79.4163 65.639 78.9512 65.639C77.4607 65.639 75.9701 65.639 74.4795 65.639C73.998 65.639 73.9932 65.6472 73.9925 66.1162C73.9925 66.7369 74.0055 67.3576 73.987 67.9783C73.978 68.2983 74.1005 68.3962 74.4094 68.3921C75.8541 68.3811 77.2988 68.3873 78.7435 68.388C79.2883 68.388 79.2883 68.388 79.2897 68.9507V69.5369C79.2897 70.1156 79.2897 70.1163 78.7263 70.1163H74.4988C74.0021 70.1163 73.9966 70.1218 73.9959 70.6135C73.9959 71.5671 73.9959 72.5211 73.9959 73.4756C73.9959 73.9425 74.0214 73.968 74.4775 73.9687C76.002 73.9687 77.5272 73.9784 79.0517 73.9611C79.3633 73.9611 79.4569 74.0535 79.4355 74.3515C79.419 74.6614 79.419 74.9719 79.4355 75.2818C79.4465 75.5535 79.3241 75.6453 79.0647 75.6432C78.2275 75.6349 77.3909 75.6432 76.5537 75.6432H72.4604C71.9197 75.6432 71.9183 75.6432 71.9183 75.1135C71.9179 73.3328 71.9179 71.5514 71.9183 69.7694Z" fill="#242021"/>
<path d="M86.3629 76.466C86.1483 76.026 85.9309 75.5874 85.7197 75.1453C85.0024 73.6446 84.2865 72.143 83.5719 70.6404C82.7088 68.8142 81.8486 66.9864 80.9914 65.1569C80.8497 64.8562 80.7073 64.5549 80.5573 64.2604C80.4424 64.0348 80.4789 63.9114 80.7554 63.9155C81.3278 63.9155 81.9016 63.9024 82.4753 63.9293C82.5496 63.9403 82.6206 63.9679 82.6828 64.01C82.7451 64.0522 82.7972 64.1078 82.8351 64.1728C83.8787 66.3956 84.9072 68.6252 85.9412 70.8528C86.098 71.1915 86.2638 71.5253 86.4682 71.9508C86.7158 71.4439 86.9243 71.0301 87.1217 70.6108C87.6207 69.5533 88.1167 68.4933 88.6098 67.4307C89.0913 66.4011 89.577 65.3749 90.0427 64.339C90.1858 64.0217 90.3867 63.8914 90.7307 63.9093C91.1882 63.9328 91.6477 63.9093 92.1066 63.9169C92.2284 63.9169 92.3501 63.9376 92.5648 63.9569C90.5167 68.1714 88.4962 72.328 86.4757 76.4839L86.3629 76.466Z" fill="#242021"/>
<path d="M46.5292 68.5502C46.8587 68.0619 47.1518 67.6281 47.4428 67.1936C48.1191 66.1819 48.7905 65.1667 49.4757 64.1591C49.5507 64.0495 49.7027 63.9288 49.8231 63.9253C50.476 63.9032 51.1302 63.9143 51.7824 63.9198C51.8326 63.9198 51.8821 63.9605 51.9736 64.0005C51.8697 64.186 51.7886 64.3591 51.6819 64.5164C50.4496 66.3435 49.2138 68.1683 47.9746 69.9909C47.6994 70.3909 47.5501 70.7923 47.5618 71.2964C47.5962 72.6068 47.5618 73.9171 47.579 75.2275C47.579 75.5537 47.4965 75.6813 47.1497 75.6509C46.7631 75.6158 46.371 75.6427 45.9802 75.642C45.4395 75.642 45.4374 75.642 45.4367 75.1116C45.4367 73.7551 45.4299 72.3985 45.4416 71.0426C45.4492 70.7345 45.3586 70.4321 45.1829 70.1792C43.8941 68.2789 42.6118 66.3748 41.3359 64.4667C41.2423 64.3288 41.1618 64.1798 41.082 64.0481C41.1206 63.9984 41.1336 63.9653 41.1508 63.9653C41.869 63.9536 42.5879 63.9329 43.3062 63.9494C43.4169 63.9494 43.5504 64.1101 43.6288 64.2253C44.4743 65.4819 45.3102 66.7453 46.1501 68.0053C46.2588 68.1709 46.3779 68.3336 46.5292 68.5502Z" fill="#242021"/>
<path d="M64.1512 67.4638C64.1512 66.97 64.1512 66.4769 64.1512 65.9838C64.1512 65.79 64.1897 65.6451 64.4264 65.6389C65.1274 65.621 65.8208 65.6389 66.4902 65.8769C67.2256 66.1355 67.6219 66.61 67.6494 67.2879C67.6824 68.0955 67.3171 68.7093 66.5858 69.0031C65.8821 69.2865 65.1411 69.3183 64.3906 69.279C64.1663 69.2686 64.1484 69.1107 64.1484 68.939L64.1512 67.4638Z" fill="white"/>
<path d="M95.9961 67.2476L97.9554 71.1097H93.9453L95.9961 67.2476Z" fill="white"/>
<path d="M64.0557 79.9169C64.2401 79.7493 64.4224 79.579 64.6061 79.4142C65.3084 78.7935 66.1257 78.5176 67.0634 78.5176C67.9323 78.5176 68.7977 78.5176 69.5524 79.0086C69.9275 79.262 70.2715 79.5588 70.5774 79.8928C70.8526 80.1852 70.8836 80.2004 71.167 79.8928C71.941 79.0576 72.8958 78.5824 74.0378 78.5286C74.8737 78.4907 75.704 78.4852 76.5096 78.8045C77.9082 79.3562 78.6388 80.5162 78.6622 81.9473C78.689 83.5673 78.6705 85.1887 78.6684 86.8087C78.6684 87.2122 78.6182 87.2529 78.1999 87.2363L78.0286 87.2294C77.6041 87.2156 77.5684 87.1811 77.5677 86.7404C77.5677 85.6597 77.5739 84.579 77.5677 83.499C77.5608 82.8094 77.5869 82.1156 77.4955 81.4369C77.3228 80.159 76.2117 79.3804 74.9934 79.3679C74.4616 79.3624 73.9064 79.3679 73.4001 79.5059C72.0744 79.8735 71.3204 80.9328 71.3142 82.3197C71.3074 83.7907 71.3142 85.2618 71.306 86.7335C71.306 86.8887 71.2427 87.1632 71.1684 87.1763C70.8932 87.2266 70.6043 87.1991 70.3222 87.1763C70.2968 87.1763 70.2651 87.0184 70.2651 86.9335C70.2651 85.4625 70.2809 83.9914 70.2617 82.5197C70.2534 81.899 70.1963 81.2818 69.8888 80.7155C69.4258 79.8624 68.6808 79.47 67.752 79.3542C66.9575 79.2548 66.2048 79.3542 65.5011 79.7638C64.5304 80.3369 63.9498 81.1397 63.9498 82.3025C63.9498 83.7852 63.9498 85.2678 63.9498 86.7501C63.9498 87.2135 63.9326 87.2273 63.4599 87.2329C62.8483 87.2329 62.8483 87.2328 62.8477 86.6349C62.8477 84.1639 62.8477 81.6928 62.8532 79.2217C62.8532 79.0528 62.9089 78.7569 62.9859 78.739C63.2638 78.6924 63.5474 78.6924 63.8252 78.739C63.8796 78.7452 63.9374 78.9459 63.9442 79.0624C63.9614 79.3424 63.9498 79.6238 63.9498 79.9052L64.0557 79.9169Z" fill="#E9038A"/>
<path d="M87.5631 86.0293C87.2687 86.2362 86.9832 86.4617 86.677 86.65C85.6045 87.3203 84.4158 87.4934 83.1809 87.4086C82.2271 87.3577 81.3065 87.0402 80.5233 86.492C79.3979 85.7031 79.3476 83.9941 80.2482 83.0982C81.0049 82.3506 81.9612 82.0472 82.9814 81.9568C84.4474 81.8265 85.9114 81.8623 87.3574 82.1844C87.6182 82.2423 87.6856 82.0954 87.6773 81.8754C87.6402 80.9623 87.2962 80.2258 86.4535 79.794C85.8969 79.5092 85.3183 79.3002 84.6751 79.354C84.5149 79.3671 84.3538 79.3671 84.1935 79.354C83.2222 79.2747 82.312 79.5382 81.408 79.8423C81.1535 79.9285 80.8955 80.0258 80.7387 79.6775C80.5674 79.2982 80.608 79.2223 81.0001 79.0768C82.5877 78.4849 84.3073 78.3437 85.9698 78.6685C86.6743 78.8009 87.3237 79.0933 87.8438 79.6202C88.1166 79.8932 88.333 80.2175 88.4806 80.5744C88.6283 80.9313 88.7043 81.3139 88.7044 81.7003C88.7313 83.4017 88.7147 85.103 88.712 86.8038C88.712 87.2058 88.6852 87.221 88.1616 87.2176C87.7152 87.2176 87.6856 87.192 87.6801 86.7962C87.6801 86.5403 87.6801 86.2844 87.6801 86.0286L87.5631 86.0293ZM87.6814 83.8023C87.6814 83.1037 87.6353 83.0368 87.1476 82.961C86.7534 82.8996 86.3599 82.8272 85.9636 82.7782C84.7205 82.6251 83.4795 82.5575 82.2611 82.9541C81.7107 83.1327 81.2292 83.4141 80.9361 83.9258C80.4876 84.7196 80.8859 85.7548 81.7782 86.161C83.2751 86.8431 84.7673 86.7307 86.2134 86.0334C87.1682 85.5734 87.7447 84.8148 87.6849 83.8023H87.6814Z" fill="#F78664"/>
<path d="M92.6358 82.9144C92.6358 81.5925 92.6358 80.2709 92.6358 78.9495C92.6358 78.6909 92.6358 78.4709 92.9983 78.4605C93.5941 78.4433 93.6581 78.4647 93.7172 78.884C93.7325 79.0096 93.7392 79.1361 93.7372 79.2626C93.7372 81.733 93.7413 84.204 93.7317 86.6744C93.7317 86.8503 93.6629 87.1572 93.5755 87.1758C93.2942 87.2392 92.9894 87.2034 92.695 87.1848C92.6681 87.1848 92.6323 87.0303 92.6317 86.9475C92.628 85.6031 92.628 84.2587 92.6317 82.9144H92.6358Z" fill="#E9038A"/>
<path d="M91.1932 82.8797C91.1932 84.1786 91.1932 85.4772 91.1932 86.7756C91.1932 87.2122 91.1719 87.2274 90.6745 87.2274C90.1771 87.2274 90.1592 87.2122 90.1585 86.7736C90.1585 84.1646 90.1585 81.5556 90.1523 78.9466C90.1523 78.6273 90.2067 78.4183 90.594 78.5149C90.6636 78.5224 90.734 78.5149 90.8004 78.4928C91.1292 78.4238 91.198 78.6038 91.1967 78.8797C91.1939 80.213 91.1939 81.5464 91.1967 82.8797H91.1932Z" fill="#F7565C"/>
<path d="M87.6849 83.8026C87.7482 84.815 87.1717 85.5736 86.2169 86.0336C84.7722 86.7309 83.2786 86.8433 81.7817 86.1612C80.8873 85.755 80.4911 84.7198 80.9396 83.926C81.2292 83.4143 81.7156 83.1329 82.2646 82.9543C83.483 82.5577 84.724 82.6253 85.9671 82.7784C86.3634 82.8274 86.7569 82.8998 87.1511 82.9612C87.6354 83.0371 87.6849 83.104 87.6849 83.8026Z" fill="white"/>
</svg>
