<svg width="156" height="108" viewBox="0 0 156 108" fill="none" xmlns="http://www.w3.org/2000/svg">
<rect width="156" height="108" rx="10" fill="white"/>
<path d="M51.7162 43.0327C51.8383 43.0677 51.9692 43.0677 52.0739 43.1375C54.3769 44.5964 56.2438 46.4833 57.6657 48.807C58.7475 50.5803 59.4017 52.5196 59.8728 54.5375C59.96 55.2364 60.0822 55.9352 60.1171 56.6428C60.2043 58.4423 60.0996 60.2244 59.6024 61.9715C59.0615 63.4129 58.5992 64.8892 57.9536 66.2869C57.09 68.1214 56.1304 69.9209 55.1272 71.6768C53.775 74.0354 51.6028 75.0662 48.9508 75.206C47.2584 75.2933 45.7754 74.6906 44.3186 73.9131C40.9076 72.0961 37.8718 69.7724 35.1151 67.0906C33.0738 65.1076 31.111 63.046 29.1133 61.0106C29.2354 61.0456 29.375 61.0456 29.471 61.1067C29.7588 61.3076 30.0205 61.5347 30.2997 61.7444C32.8993 63.6837 35.8479 64.7145 39.0495 65.0028C40.4627 65.1251 41.8847 65.0203 43.2892 64.7582C45.6184 64.3389 47.7819 63.5265 49.7534 62.2161C49.8842 62.1288 49.9889 61.9803 50.1023 61.8667C50.1896 61.8143 50.2768 61.7619 50.3728 61.7007H50.3815C50.4338 61.6658 50.4862 61.6308 50.5385 61.5959C50.6083 61.5435 50.6781 61.4911 50.7479 61.4387C53.2777 59.6828 54.9788 57.3329 55.607 54.2929C56.3572 50.7113 55.5459 47.4704 53.2516 44.6226C52.7805 44.0635 52.2309 43.5656 51.7162 43.0327Z" fill="url(#paint0_linear_514_9759)"/>
<path fill-rule="evenodd" clip-rule="evenodd" d="M45.2759 33.7685C45.3107 33.7491 45.3454 33.7298 45.38 33.7114C45.3627 33.7136 45.3452 33.7158 45.3276 33.718C45.2035 33.7334 45.0727 33.7496 44.9351 33.7726C40.9921 34.6112 37.1013 35.6595 33.2891 36.9785C30.1835 38.053 27.2262 39.4595 24.5306 41.3638C22.1839 43.0323 21.0935 45.3473 21.1894 48.2213C21.2418 49.785 21.9571 51.0866 22.7684 52.3532C22.9379 52.2581 23.1073 52.163 23.2766 52.0679C23.1114 52.1641 22.9453 52.2594 22.7782 52.3532C23.018 52.7341 23.2509 53.1194 23.4833 53.5041C23.9866 54.3368 24.4882 55.1667 25.055 55.9435C25.8802 57.0675 26.7602 58.1492 27.6393 59.2298C28.0242 59.7029 28.4089 60.1759 28.7888 60.652L28.876 60.7394C28.9065 60.7743 28.9349 60.8071 28.9632 60.8398C28.9916 60.8726 29.0199 60.9053 29.0505 60.9403C29.0566 60.9587 29.067 60.9727 29.0787 60.9886C29.0837 60.9953 29.0889 61.0023 29.0941 61.0102C29.1275 61.0173 29.1623 61.0225 29.1971 61.0278C29.2894 61.0416 29.3821 61.0555 29.4518 61.1063C29.6245 61.2268 29.7878 61.3568 29.9511 61.4868C30.06 61.5734 30.1688 61.6601 30.2805 61.744C32.8801 63.6833 35.8287 64.7141 39.0303 65.0023C40.4435 65.1246 41.8655 65.0111 43.27 64.7577C45.5905 64.3384 47.7627 63.526 49.7342 62.2157C49.8364 62.1517 49.9152 62.0597 49.9945 61.967C50.0236 61.9331 50.0528 61.899 50.0831 61.8663C49.749 61.9887 49.4174 62.1221 49.086 62.2555C48.3531 62.5503 47.621 62.8449 46.8641 63.0194C40.5744 64.4957 34.1887 60.1017 33.2553 53.6897C33.2137 53.4087 33.1814 53.1247 33.1492 52.8412C33.1273 52.6487 33.1055 52.4566 33.0808 52.2658C33.0641 52.0899 33.0393 51.9131 33.0145 51.736C32.9617 51.359 32.9087 50.9805 32.9325 50.606C32.9986 49.6791 33.102 48.7563 33.2056 47.8319C33.2523 47.4147 33.2991 46.9973 33.3425 46.5789C33.3178 46.5883 33.2923 46.5972 33.2661 46.6057C33.2884 46.597 33.3106 46.5881 33.3327 46.579C34.0219 43.7312 35.2955 41.1804 37.2322 38.9877C39.3346 36.6116 41.8906 34.8995 44.9264 33.9298C45.0467 33.8963 45.1619 33.8321 45.2759 33.7685Z" fill="url(#paint1_linear_514_9759)"/>
<path d="M95.9958 54.4675C95.9958 54.1006 96.0045 53.7948 95.9958 53.4891C95.9783 52.5893 95.3066 51.8555 94.3994 51.8642C93.3002 51.873 92.201 51.9603 91.1018 52.0564C90.5174 52.1088 90.1684 51.8642 90.151 51.2877C90.1422 50.9557 90.1597 50.615 90.1422 50.2831C90.1248 49.8987 90.3167 49.6541 90.6657 49.5842C92.3842 49.2173 94.1202 49.0164 95.8388 49.4357C97.7754 49.9162 99.0665 51.6371 99.0665 53.6812C99.0752 56.6077 99.0578 59.5254 99.0403 62.4518C99.0403 62.9672 98.831 63.2293 98.3686 63.2293C96.1179 63.2293 93.8585 63.3428 91.6165 63.1594C88.0835 62.8624 86.5568 59.0624 88.3888 56.3893C89.3397 55.0091 90.7529 54.4849 92.3842 54.4675C93.5706 54.4587 94.7658 54.4675 95.9958 54.4675ZM95.9696 57.0969C94.6873 57.0969 93.4223 57.0532 92.1661 57.1143C91.285 57.158 90.622 58.0316 90.6569 58.9401C90.7006 59.8748 91.4072 60.5911 92.3319 60.6086C93.0908 60.6173 93.8411 60.6086 94.6 60.6086C95.0536 60.6086 95.516 60.6086 95.9696 60.6086C95.9696 59.4031 95.9696 58.2674 95.9696 57.0969Z" fill="#231F20"/>
<path d="M70.7916 57.9529C70.7305 58.8876 70.7043 59.7175 71.5069 60.3203C71.9954 60.6871 72.5537 60.6435 73.0946 60.5998C74.2199 60.5124 75.3453 60.3639 76.4619 60.2329C76.9155 60.1805 77.2994 60.4688 77.3256 60.9317C77.3343 61.2375 77.3081 61.5432 77.3343 61.849C77.3779 62.3032 77.1511 62.6002 76.7672 62.7138C76.1566 62.8973 75.5372 63.0982 74.9091 63.1244C73.6704 63.1768 72.3967 63.2642 71.1841 63.0807C69.1428 62.7662 67.7383 60.9317 67.7383 58.8614C67.7383 57.1318 67.7383 55.3934 67.7383 53.6637C67.7383 51.4099 69.3871 49.4968 71.629 49.3308C72.9986 49.226 74.4031 49.2085 75.7466 49.4269C77.9537 49.7938 79.3233 51.7943 79.1401 54.0655C78.9743 56.1272 77.247 57.8481 75.1098 57.9529C73.6791 58.014 72.2484 57.9529 70.7916 57.9529ZM70.7741 55.3672C72.0129 55.3672 73.208 55.3672 74.3944 55.3672C75.3278 55.3672 76.0868 54.5897 76.1042 53.6462C76.1217 52.6853 75.3976 51.8816 74.4555 51.8554C73.775 51.838 73.0946 51.838 72.4054 51.8554C71.5156 51.8816 70.8352 52.5106 70.7828 53.4104C70.7392 54.0393 70.7741 54.6858 70.7741 55.3672Z" fill="#231F20"/>
<path d="M112.624 56.2233C112.624 55.3934 112.659 54.5635 112.615 53.7337C112.493 51.279 114.412 49.6454 116.157 49.3571C117.622 49.1125 119.114 49.0863 120.58 49.3746C122.734 49.8026 124.182 51.707 124.052 53.8035C123.912 56.0049 122.255 57.752 120.047 57.918C118.73 58.0141 117.404 57.9792 116.087 57.9704C115.712 57.9704 115.625 58.1015 115.625 58.4422C115.616 59.3157 115.816 60.0932 116.689 60.4514C117.073 60.6086 117.544 60.6261 117.963 60.5911C119.079 60.5125 120.187 60.3815 121.295 60.2417C121.801 60.1805 122.193 60.4514 122.22 60.958C122.237 61.2812 122.246 61.5957 122.22 61.9189C122.176 62.4343 121.792 62.6877 121.365 62.7925C120.737 62.9497 120.091 63.072 119.446 63.1245C118.207 63.238 116.951 63.3254 115.729 62.9847C114.229 62.5654 112.528 60.8881 112.624 58.8615C112.659 58.0054 112.624 57.1143 112.624 56.2233ZM115.686 55.3672C116.916 55.3672 118.111 55.376 119.297 55.3672C120.231 55.3585 120.972 54.5985 120.998 53.6288C121.025 52.6941 120.266 51.873 119.332 51.8468C118.652 51.8293 117.963 51.8293 117.282 51.8468C116.418 51.873 115.729 52.5281 115.686 53.3842C115.659 54.0307 115.686 54.6684 115.686 55.3672Z" fill="#231F20"/>
<path d="M84.2456 51.9341C84.2456 52.0913 84.2456 52.2311 84.2456 52.3796C84.2368 55.7079 84.2281 59.0449 84.2281 62.3731C84.2281 63.037 84.0449 63.2205 83.3732 63.2292C82.9632 63.2292 82.5619 63.2292 82.1519 63.2292C81.4278 63.2292 81.2795 63.0807 81.2795 62.3644C81.2795 57.8219 81.2708 53.2794 81.2882 48.7456C81.2882 48.1341 81.2883 47.5139 81.4278 46.9286C81.8815 44.9281 83.5738 43.6178 85.6239 43.6265C86.0688 43.6265 86.5224 43.6527 86.9673 43.6964C87.5431 43.7575 87.7612 44.0109 87.7699 44.5787C87.7699 44.8844 87.7699 45.1902 87.7699 45.4959C87.7612 46.09 87.5605 46.2996 86.9499 46.3171C86.6184 46.3258 86.2782 46.3171 85.9467 46.3171C85.1354 46.3258 84.3851 46.946 84.2979 47.7585C84.2456 48.2302 84.2892 48.7106 84.2892 49.226C85.1266 49.226 85.9641 49.226 86.8016 49.226C87.6042 49.226 87.7699 49.392 87.7699 50.2044C87.7699 50.5102 87.7699 50.8159 87.7699 51.1217C87.7612 51.6982 87.5605 51.9166 86.9848 51.9253C86.1735 51.9341 85.3535 51.9253 84.5422 51.9253C84.4462 51.9166 84.3677 51.9253 84.2456 51.9341Z" fill="#231F20"/>
<path d="M101.432 56.232C101.432 55.3759 101.432 54.5111 101.432 53.655C101.441 51.4449 103.002 49.6017 105.183 49.3134C106.675 49.1125 108.167 49.226 109.641 49.5492C109.894 49.6017 110.138 49.7065 110.365 49.8288C110.897 50.1345 110.984 51.7506 110.478 52.1C110.321 52.2049 110.068 52.2136 109.868 52.1961C108.672 52.0913 107.477 51.9166 106.282 51.8467C105.279 51.7943 104.555 52.4407 104.529 53.4366C104.476 55.2798 104.476 57.1317 104.529 58.975C104.555 59.9796 105.27 60.6347 106.265 60.5823C107.477 60.5124 108.69 60.3552 109.894 60.2154C110.374 60.1543 110.731 60.3989 110.749 60.8881C110.757 61.1676 110.731 61.4471 110.757 61.7179C110.827 62.3819 110.539 62.6701 109.937 62.7924C109.021 62.9846 108.079 63.1244 107.146 63.1593C106.291 63.1943 105.392 63.1681 104.564 62.9584C102.723 62.5129 101.458 60.7658 101.441 58.8701C101.423 58.0053 101.432 57.123 101.432 56.232Z" fill="#231F20"/>
<path d="M125.883 56.1885C125.883 55.3411 125.883 54.5025 125.883 53.6551C125.883 51.445 127.444 49.6018 129.634 49.3135C131.143 49.1126 132.644 49.2262 134.135 49.5581C134.388 49.6193 134.659 49.7066 134.842 49.8639C135.016 50.0124 135.165 50.2657 135.208 50.5016C135.269 50.8248 135.235 51.1655 135.217 51.5062C135.2 52.039 134.842 52.2749 134.31 52.2138C133.115 52.074 131.92 51.9255 130.724 51.8556C129.712 51.8032 128.962 52.5282 128.953 53.5416C128.927 55.3324 128.927 57.1232 128.953 58.914C128.971 59.936 129.695 60.6524 130.716 60.5912C131.911 60.5213 133.106 60.3728 134.301 60.233C134.816 60.1719 135.191 60.4252 135.217 60.9494C135.226 61.2114 135.217 61.4735 135.217 61.7356C135.217 62.3471 135.095 62.6004 134.493 62.7664C132.609 63.2818 130.689 63.4914 128.788 62.9236C127.095 62.4169 125.909 60.7572 125.883 58.9839C125.874 58.0491 125.883 57.1232 125.883 56.1885Z" fill="#231F20"/>
<path fill-rule="evenodd" clip-rule="evenodd" d="M48.4575 33.2967C47.4325 33.4343 46.4075 33.5719 45.3825 33.7116C45.3423 33.7306 45.3021 33.7514 45.2612 33.7726C45.1512 33.8297 45.0362 33.8894 44.9027 33.9213C41.8668 34.8822 39.3108 36.6031 37.2084 38.9792C35.2718 41.1718 33.9981 43.7226 33.309 46.5704C33.2656 46.9888 33.2188 47.4063 33.172 47.8234C33.0685 48.7478 32.9651 49.6706 32.8989 50.5976C32.8693 50.9713 32.9242 51.3491 32.9788 51.7254C33.0047 51.9032 33.0304 52.0807 33.0472 52.2573C33.0124 50.1084 33.4747 48.073 34.5477 46.2123C35.0362 45.3562 35.6643 44.5438 36.3622 43.8362C38.0197 42.159 40.0523 41.0932 42.3815 40.6914C45.5395 40.141 48.4532 40.7613 51.079 42.6394C51.1688 42.7068 51.2621 42.7634 51.3568 42.8208C51.4093 42.8526 51.4623 42.8847 51.5152 42.919C51.5501 42.9364 51.585 42.9517 51.6199 42.967C51.6547 42.9823 51.6896 42.9976 51.7245 43.015L51.6984 43.0325C51.7383 43.0439 51.78 43.0526 51.8215 43.0611C51.9071 43.0788 51.9914 43.0962 52.056 43.1373C54.3591 44.5962 56.2259 46.4831 57.6479 48.8068C58.7296 50.5888 59.3839 52.5281 59.855 54.5373C59.858 54.5358 59.8611 54.5343 59.8642 54.5328C59.8639 54.5343 59.8637 54.5358 59.8636 54.5372C59.8906 54.7537 59.9218 54.9701 59.953 55.1868C60.0226 55.6698 60.0925 56.1541 60.1165 56.6425C60.2038 58.442 60.0991 60.2241 59.6018 61.9712C59.6221 61.9481 59.6462 61.9259 59.6706 61.9033C59.7198 61.8579 59.7704 61.8112 59.7938 61.7528C60.3289 59.8772 60.86 57.9813 61.3898 56.09C61.6373 55.2066 61.8845 54.3242 62.1317 53.4453C62.1313 53.4454 62.131 53.4456 62.1306 53.4457C62.1342 53.4362 62.1379 53.4266 62.1416 53.417C62.1695 53.3449 62.1973 53.2728 62.2103 53.2008C62.3352 52.5184 62.4647 51.8368 62.5942 51.155C62.8991 49.5501 63.2042 47.9444 63.4491 46.3258C63.798 43.9847 63.7632 41.6173 63.5102 39.2587C63.2048 36.4022 60.7361 33.6592 57.9445 32.9778C57.6828 32.9079 57.4211 32.8468 57.1594 32.7856H51.9252C51.8925 32.7944 51.8598 32.8037 51.827 32.8129C51.7289 32.8408 51.6308 32.8686 51.5326 32.8817C50.5076 33.0215 49.4826 33.1591 48.4575 33.2967Z" fill="url(#paint2_linear_514_9759)"/>
<path d="M28.8828 60.7485C28.9439 60.8184 28.9962 60.8796 29.0573 60.9495C29.0049 60.8796 28.9439 60.8097 28.8828 60.7485Z" fill="#C2151C"/>
<path d="M28.7969 60.6611C28.8231 60.6873 28.858 60.7223 28.8842 60.7485C28.858 60.7135 28.8318 60.6873 28.7969 60.6611Z" fill="#C2151C"/>
<path d="M50.0832 61.8753C49.0102 62.2684 47.9634 62.7664 46.8642 63.0284C40.5657 64.496 34.1888 60.102 33.2466 53.6988C33.1768 53.2271 33.1332 52.7466 33.0721 52.2749C33.0372 50.1259 33.4996 48.0818 34.5726 46.2298C35.0699 45.3738 35.698 44.5613 36.3871 43.8538C38.0446 42.1678 40.0772 41.1108 42.4064 40.7089C45.5557 40.1586 48.4781 40.7876 51.1039 42.657C51.2435 42.7531 51.3918 42.8404 51.5401 42.9365C51.6099 42.9715 51.6797 42.9977 51.7494 43.0326L51.7233 43.0501C52.2292 43.583 52.7788 44.0809 53.2412 44.6487C55.5442 47.4965 56.3468 50.7287 55.5966 54.319C54.9597 57.359 53.2674 59.7002 50.7375 61.4648C50.6677 61.5172 50.5979 61.5696 50.5281 61.622C50.4758 61.6569 50.4235 61.6919 50.3711 61.7268H50.3624C50.2664 61.7618 50.1792 61.8142 50.0832 61.8753Z" fill="#FEFEFE"/>
<path d="M51.7406 43.0238C51.6708 42.9889 51.601 42.9627 51.5312 42.9277C51.601 42.9539 51.6708 42.9889 51.7406 43.0238Z" fill="#C2151C"/>
<path d="M50.3594 61.7005C50.4117 61.6656 50.4641 61.6306 50.5164 61.5957C50.4641 61.6394 50.4117 61.6743 50.3594 61.7005Z" fill="#D24733"/>
<path d="M95.971 57.0971C95.971 58.2677 95.971 59.4033 95.971 60.6089C95.5173 60.6089 95.055 60.6089 94.6014 60.6089C93.8424 60.6089 93.0922 60.6176 92.3332 60.6089C91.4085 60.5914 90.7019 59.8838 90.6583 58.9404C90.6147 58.0319 91.2777 57.1583 92.1675 57.1146C93.4237 57.0535 94.6886 57.0971 95.971 57.0971Z" fill="#FEFEFE"/>
<path d="M70.7749 55.3676C70.7749 54.6862 70.74 54.0398 70.7837 53.4108C70.8447 52.511 71.5252 51.8733 72.4063 51.8559C73.0867 51.8384 73.7759 51.8384 74.4563 51.8559C75.3897 51.8821 76.1138 52.6858 76.1051 53.6467C76.0876 54.5989 75.3374 55.3676 74.3952 55.3676C73.2001 55.3676 72.0137 55.3676 70.7749 55.3676Z" fill="#FEFEFE"/>
<path d="M115.685 55.3676C115.685 54.6687 115.659 54.031 115.694 53.3933C115.729 52.5373 116.418 51.8733 117.29 51.8559C117.971 51.8384 118.66 51.8384 119.34 51.8559C120.274 51.8821 121.033 52.7032 121.007 53.6379C120.98 54.5989 120.239 55.3676 119.306 55.3763C118.11 55.3676 116.915 55.3676 115.685 55.3676Z" fill="#FEFEFE"/>
<defs>
<linearGradient id="paint0_linear_514_9759" x1="57.814" y1="52.2226" x2="38.3835" y2="67.5276" gradientUnits="userSpaceOnUse">
<stop stop-color="#B11117"/>
<stop offset="1" stop-color="#B61218"/>
</linearGradient>
<linearGradient id="paint1_linear_514_9759" x1="29.2852" y1="38.8567" x2="31.0784" y2="61.6126" gradientUnits="userSpaceOnUse">
<stop stop-color="#AA2E1E"/>
<stop offset="1" stop-color="#EA563D"/>
</linearGradient>
<linearGradient id="paint2_linear_514_9759" x1="36.7897" y1="39.381" x2="63.7133" y2="50.7981" gradientUnits="userSpaceOnUse">
<stop stop-color="#F47421"/>
<stop offset="1" stop-color="#EF4D23"/>
</linearGradient>
</defs>
</svg>
