<svg width="156" height="108" viewBox="0 0 156 108" fill="none" xmlns="http://www.w3.org/2000/svg">
<rect width="156" height="108" rx="10" fill="white"/>
<g clip-path="url(#clip0_514_9788)">
<path d="M96.6318 25.5385H88.7582L84.8762 18.6914H75.4346L72.3954 24.7984L68.8892 18.6914H59.8334L51.2656 34.1919L54.64 40.6378L63.32 40.6251L67.3171 47.5979H77.2579L80.2031 42.4188L83.1918 47.6106H92.0583L101.348 33.7908L96.6318 25.5385ZM88.1524 40.6378L84.1665 33.6778H76.1836L80.1694 40.6378H72.1865L68.202 33.6778H60.2191L56.3216 26.883L64.6271 26.9593L60.7675 20.2365H68.0604L71.9284 26.9565H80.5677L76.7193 20.221H84.0122L87.8719 26.9565H95.7174L99.584 33.6623H91.8507L95.8478 40.635L88.1524 40.6378Z" fill="#0098DA"/>
<path d="M69.4104 53.2158H63.9688V69.3688H74.8899V64.6911H69.4104V53.2158Z" fill="#0098DA"/>
<path d="M86.0467 62.4328C86.0467 63.211 85.8601 63.8127 85.4857 64.2519C85.1112 64.6911 84.5895 64.9044 83.9177 64.9044C83.2459 64.9044 82.7087 64.6911 82.3483 64.2519C81.9879 63.8127 81.7873 63.211 81.7873 62.4328V53.2158H76.3948V63.0231C76.3877 63.9372 76.5396 64.8454 76.8436 65.7066C77.1359 66.5219 77.6088 67.2594 78.2264 67.8633C78.8956 68.5002 79.6882 68.9911 80.5545 69.3053C81.4886 69.6569 82.5727 69.8321 83.8293 69.8321C84.9516 69.8543 86.069 69.676 87.1294 69.3053C88.0098 68.9962 88.8162 68.505 89.4968 67.8633C90.124 67.255 90.6163 66.5201 90.9413 65.7066C91.2698 64.851 91.4345 63.9405 91.4266 63.0231V53.2158H86.0593L86.0467 62.4328Z" fill="#0098DA"/>
<path d="M97.7509 53.0536C96.9782 53.2452 96.2448 53.5716 95.5841 54.0182C94.9375 54.4682 94.4008 55.0603 94.0147 55.7497C93.6038 56.4559 93.4046 57.3033 93.4046 58.3075C93.3901 58.9362 93.5042 59.5612 93.7398 60.1435C93.9548 60.6416 94.2689 61.0901 94.6626 61.4613C95.0559 61.833 95.5004 62.1455 95.9824 62.3892C96.4904 62.6415 97.0147 62.859 97.5518 63.0403C98.1127 63.2295 98.5728 63.3792 98.9458 63.5176C99.2443 63.6238 99.5357 63.7493 99.8182 63.8933C99.9837 63.9711 100.132 64.0821 100.253 64.2196C100.34 64.3293 100.385 64.4675 100.378 64.608C100.388 64.7338 100.357 64.8596 100.289 64.9661C100.222 65.0727 100.122 65.1542 100.005 65.1983C99.7436 65.3049 99.4646 65.3601 99.1828 65.3607C98.5075 65.3554 97.8427 65.1924 97.2404 64.8848C96.6785 64.6121 96.1683 64.2426 95.7327 63.793L92.4453 67.3931C92.874 67.7662 93.337 68.0973 93.8282 68.3818C94.3517 68.687 94.9019 68.9432 95.4719 69.1472C96.6663 69.5974 97.9328 69.8224 99.2081 69.811C100.022 69.8129 100.831 69.6949 101.611 69.4608C102.377 69.2368 103.095 68.8708 103.728 68.3818C104.359 67.8982 104.878 67.2817 105.247 66.5754C105.645 65.7892 105.842 64.9153 105.819 64.0331C105.819 63.1857 105.645 62.4909 105.298 61.9386C104.955 61.3793 104.506 60.8936 103.977 60.5093C103.433 60.1204 102.842 59.802 102.219 59.5617C101.584 59.323 100.986 59.1097 100.396 58.9219C99.9849 58.796 99.5817 58.6456 99.1885 58.4713C99.0787 58.4264 98.9846 58.3498 98.9179 58.2512C98.8512 58.1525 98.8148 58.0363 98.8135 57.917C98.8122 57.7976 98.8458 57.6806 98.9103 57.5805C98.9747 57.4803 99.0671 57.4016 99.1758 57.3542C99.4751 57.2275 99.7981 57.1678 100.123 57.179C100.62 57.2001 101.109 57.3196 101.561 57.5307C102.084 57.7621 102.541 58.1196 102.894 58.5716L106.243 55.1297C105.406 54.3505 104.424 53.7453 103.354 53.3487C102.324 52.9491 101.231 52.7409 100.128 52.7344C99.3267 52.7555 98.5298 52.8625 97.7509 53.0536Z" fill="#0098DA"/>
<path d="M62.0108 56.0255C61.653 55.3565 61.1402 54.7843 60.5158 54.3575C59.8749 53.933 59.1617 53.6313 58.4121 53.4677C57.6229 53.2908 56.8167 53.2022 56.0082 53.2036H49.1094V69.3566H54.4767V64.1521H55.9956C56.8182 64.1533 57.6378 64.0523 58.4359 63.8513C59.1909 63.671 59.9049 63.3474 60.5396 62.898C61.1554 62.453 61.6589 61.8686 62.0094 61.1919C62.3834 60.4904 62.5704 59.6378 62.5704 58.6341C62.5704 57.5932 62.3895 56.7274 62.0108 56.0255ZM56.9619 59.7753C56.586 59.9911 56.1604 60.1036 55.7277 60.1015H54.4837V57.4054H55.7277C55.945 57.4078 56.1618 57.4286 56.3756 57.4675C56.5809 57.5004 56.7792 57.5682 56.9619 57.6681C57.1294 57.7602 57.2709 57.8939 57.3728 58.0564C57.4798 58.2565 57.5312 58.4819 57.5215 58.709C57.5271 59.199 57.3406 59.562 56.9675 59.7753H56.9619Z" fill="#0098DA"/>
<path d="M69.4104 72.6924H63.9688V88.8567H74.8899V84.179H69.4104V72.6924Z" fill="#0098DA"/>
<path d="M86.0466 81.9094C86.0466 82.6876 85.8601 83.2892 85.4857 83.7285C85.1112 84.1677 84.5895 84.3795 83.9177 84.3795C83.2459 84.3795 82.7087 84.1663 82.3483 83.7285C81.9879 83.2906 81.7873 82.6876 81.7873 81.9094V72.6924H76.3948V82.4983C76.3878 83.4123 76.5397 84.3205 76.8435 85.1818C77.1359 85.997 77.6088 86.7346 78.2264 87.3384C78.896 87.9749 79.6885 88.4657 80.5545 88.7804C81.4886 89.1321 82.5727 89.3072 83.8293 89.3072C84.9516 89.3295 86.0689 89.1511 87.1294 88.7804C88.0095 88.4708 88.8158 87.9797 89.4968 87.3384C90.124 86.7302 90.6163 85.9952 90.9413 85.1818C91.2698 84.3261 91.4344 83.4156 91.4266 82.4983V72.6924H86.0593L86.0466 81.9094Z" fill="#0098DA"/>
<path d="M97.7509 72.541C96.9779 72.7325 96.2445 73.0595 95.5841 73.507C94.9378 73.9569 94.4013 74.5484 94.0147 75.2371C93.6038 75.9433 93.4046 76.7907 93.4046 77.7963C93.3901 78.425 93.5042 79.05 93.7398 79.6324C93.9544 80.1303 94.2686 80.5783 94.6626 80.9487C95.0551 81.3213 95.4998 81.6339 95.9824 81.8766C96.4901 82.1299 97.0144 82.348 97.5518 82.5291C98.1127 82.7169 98.5728 82.868 98.9458 83.0065C99.2446 83.112 99.536 83.2375 99.8182 83.3821C99.9837 83.4599 100.132 83.5709 100.253 83.7084C100.341 83.8177 100.386 83.9562 100.378 84.0968C100.387 84.2224 100.356 84.3479 100.289 84.4541C100.222 84.5604 100.122 84.6417 100.005 84.6857C99.7437 84.7929 99.4647 84.8485 99.1828 84.8496C98.5074 84.8437 97.8426 84.6803 97.2404 84.3722C96.6767 84.1032 96.1659 83.7338 95.7327 83.2819L92.4453 86.8805C92.8736 87.2541 93.3367 87.5851 93.8282 87.8692C94.3517 88.1739 94.9019 88.4297 95.4719 88.6332C96.0639 88.854 96.674 89.0222 97.2951 89.136C97.9266 89.2495 98.5667 89.3072 99.2081 89.3083C100.022 89.3104 100.831 89.1919 101.611 88.9567C102.374 88.7329 103.092 88.3721 103.728 87.8918C104.359 87.4078 104.877 86.7914 105.247 86.0854C105.645 85.2991 105.842 84.4253 105.819 83.5431C105.819 82.7042 105.645 82.0009 105.298 81.4501C104.955 80.8903 104.506 80.4042 103.977 80.0193C103.433 79.6269 102.843 79.3056 102.219 79.0632C101.584 78.8245 100.986 78.6112 100.396 78.4234C99.9849 78.2972 99.5816 78.1463 99.1885 77.9714C99.0786 77.9268 98.9843 77.8504 98.9175 77.7519C98.8507 77.6533 98.8143 77.5371 98.813 77.4178C98.8116 77.2985 98.8453 77.1815 98.9099 77.0814C98.9745 76.9814 99.067 76.9029 99.1758 76.8557C99.475 76.7286 99.798 76.6683 100.123 76.6792C100.618 76.7011 101.105 76.8206 101.554 77.0308C102.081 77.2549 102.54 77.6138 102.887 78.0717L106.243 74.62C105.405 73.8413 104.424 73.2362 103.354 72.839C102.324 72.4393 101.231 72.2311 100.128 72.2246C99.3264 72.239 98.5289 72.3452 97.7509 72.541Z" fill="#0098DA"/>
<path d="M62.0108 75.5143C61.6534 74.845 61.1405 74.2727 60.5158 73.8463C59.8747 73.4219 59.1616 73.1198 58.4121 72.9551C57.6227 72.7793 56.8166 72.6912 56.0082 72.6924H49.1094V88.844H54.4767V83.6395H55.9956C56.8182 83.6407 57.6378 83.5396 58.4359 83.3387C59.1906 83.1582 59.9045 82.8352 60.5396 82.3867C61.1551 81.9414 61.6585 81.3571 62.0094 80.6806C62.3834 79.9792 62.5704 79.1266 62.5704 78.1229C62.5704 77.082 62.3895 76.2035 62.0108 75.5143ZM56.9619 79.2513C56.586 79.4671 56.1604 79.5796 55.7277 79.5776H54.4837V76.88H55.7277C55.9451 76.8823 56.1619 76.9035 56.3756 76.9436C56.5809 76.9765 56.7792 77.0443 56.9619 77.1441C57.1294 77.2363 57.2709 77.3699 57.3728 77.5325C57.48 77.7325 57.5314 77.958 57.5215 78.185C57.5271 78.6737 57.3406 79.0381 56.9675 79.2513H56.9619Z" fill="#0098DA"/>
<path d="M103.219 50.6454C103.217 50.4513 103.255 50.2589 103.331 50.0804C103.4 49.9089 103.507 49.755 103.642 49.6299C103.78 49.504 103.935 49.3984 104.102 49.3163C104.28 49.2416 104.471 49.2031 104.663 49.2031C104.856 49.2031 105.047 49.2416 105.224 49.3163C105.399 49.389 105.557 49.4957 105.691 49.6303C105.824 49.7649 105.93 49.9248 106.002 50.1007C106.074 50.2766 106.11 50.4651 106.109 50.6553C106.109 50.8455 106.07 51.0336 105.997 51.2089C105.927 51.3806 105.821 51.5349 105.686 51.6608C105.55 51.787 105.394 51.8887 105.224 51.9617C105.047 52.0364 104.856 52.0749 104.663 52.0749C104.471 52.0749 104.28 52.0364 104.102 51.9617C103.933 51.8887 103.777 51.787 103.642 51.6608C103.511 51.5318 103.405 51.3783 103.331 51.2089C103.255 51.0309 103.217 50.839 103.219 50.6454ZM103.443 50.6454C103.437 50.8058 103.471 50.9651 103.543 51.1086C103.603 51.255 103.691 51.3876 103.804 51.4984C104.032 51.7281 104.341 51.8584 104.663 51.8614C104.827 51.8655 104.988 51.8312 105.136 51.7611C105.354 51.6671 105.54 51.5118 105.673 51.314C105.805 51.1161 105.878 50.884 105.884 50.6454C105.888 50.4806 105.854 50.3171 105.784 50.168C105.723 50.0225 105.634 49.8905 105.522 49.7796C105.412 49.6666 105.281 49.5773 105.136 49.5169C104.987 49.4508 104.826 49.4167 104.663 49.4166C104.5 49.4118 104.337 49.4461 104.189 49.5169C103.969 49.6119 103.782 49.7693 103.649 49.9699C103.517 50.1706 103.445 50.4058 103.443 50.6468V50.6454ZM104.09 49.8304H104.663C104.739 49.8322 104.814 49.8402 104.888 49.8545C104.959 49.8711 105.027 49.9013 105.087 49.9434C105.146 49.9797 105.195 50.0314 105.227 50.0931C105.267 50.1749 105.284 50.2664 105.276 50.3573C105.267 50.4481 105.233 50.5347 105.178 50.6072C105.103 50.6869 105.005 50.7399 104.898 50.7584L105.334 51.473H104.986L104.611 50.7951H104.4V51.473H104.119L104.094 49.8304H104.09ZM104.613 50.5366C104.695 50.5395 104.776 50.522 104.85 50.4858C104.888 50.4692 104.919 50.4407 104.939 50.4045C104.96 50.3683 104.968 50.3264 104.962 50.2852C104.965 50.2492 104.958 50.2131 104.94 50.1818C104.922 50.1504 104.895 50.1254 104.863 50.1101C104.795 50.0814 104.724 50.0642 104.651 50.0592H104.388V50.5239H104.613V50.5366Z" fill="#0098DA"/>
</g>
<defs>
<clipPath id="clip0_514_9788">
<rect width="57.1358" height="70.6173" fill="white" transform="translate(49.1094 18.6914)"/>
</clipPath>
</defs>
</svg>
