<svg width="156" height="108" viewBox="0 0 156 108" fill="none" xmlns="http://www.w3.org/2000/svg">
<rect width="156" height="108" fill="white"/>
<g clip-path="url(#clip0_514_9688)">
<path d="M97.9867 29.8252H98.952V49.8971H98.1665C98.1665 49.8971 94.9206 41.7237 91.9493 38.331C88.9779 34.9383 85.3201 31.3513 78.4343 30.872C71.5485 30.3927 64.113 32.0829 61.1923 41.4403C58.2716 50.7978 58.4978 61.6184 63.1985 68.683C67.8993 75.7476 74.5549 77.6363 82.4687 76.4654C90.3825 75.2945 98.1256 68.5001 99.6158 60.77C100.098 60.7618 100.171 60.77 100.171 60.77C100.171 60.77 99.5993 68.7548 89.9961 74.4403C80.3929 80.1258 59.1632 79.8457 47.6362 73.5258C36.1093 67.2058 33.7472 57.8485 34.2249 51.8772C34.7026 45.9059 41.0264 30.6425 69.8033 29.5296C75.1038 29.2505 80.398 30.1875 85.2807 32.269C91.5369 34.8819 92.9175 35.6723 95.4937 34.6598C98.0698 33.6473 97.9867 29.8252 97.9867 29.8252Z" fill="#45A1EF"/>
<path d="M110.584 71.7868H112.044C112.003 71.3246 111.868 70.8758 111.646 70.4682C111.445 70.1082 111.171 69.7944 110.842 69.5471C110.503 69.2979 110.12 69.115 109.713 69.0082C109.267 68.8895 108.807 68.831 108.345 68.8343C107.734 68.8212 107.128 68.943 106.57 69.1911C106.077 69.4165 105.643 69.7517 105.301 70.1709C104.955 70.6026 104.698 71.099 104.546 71.6309C104.378 72.2147 104.296 72.8198 104.301 73.4273C104.294 74.0258 104.379 74.6219 104.554 75.1942C104.711 75.7046 104.97 76.1771 105.318 76.5823C105.662 76.9757 106.094 77.2833 106.579 77.4805C107.13 77.6996 107.719 77.8067 108.312 77.7957C109.256 77.8479 110.184 77.5397 110.909 76.9334C111.583 76.2818 112.004 75.4115 112.095 74.4781H110.651C110.6 75.0615 110.344 75.6081 109.929 76.0205C109.475 76.4068 108.89 76.6029 108.296 76.5676C107.898 76.5779 107.505 76.4866 107.153 76.3023C106.84 76.1329 106.573 75.8913 106.373 75.5976C106.168 75.2917 106.019 74.9519 105.933 74.5941C105.837 74.2135 105.787 73.8224 105.787 73.4297C105.786 73.0071 105.832 72.5858 105.923 72.1731C106.002 71.7924 106.151 71.4297 106.362 71.1034C106.57 70.7907 106.852 70.5343 107.184 70.3571C107.579 70.1571 108.018 70.0602 108.461 70.0754C108.975 70.0485 109.481 70.2076 109.887 70.5237C110.258 70.8518 110.505 71.298 110.584 71.7868ZM114.698 73.3293C114.69 72.8583 114.76 72.3893 114.906 71.9412C115.027 71.5669 115.221 71.2203 115.477 70.9213C115.712 70.651 116.004 70.4358 116.331 70.291C116.658 70.1471 117.011 70.0737 117.368 70.0754C117.725 70.0737 118.078 70.1471 118.405 70.291C118.733 70.4358 119.024 70.651 119.259 70.9213C119.515 71.2203 119.709 71.5669 119.831 71.9412C119.976 72.3892 120.046 72.8583 120.038 73.3293C120.046 73.8002 119.976 74.2693 119.831 74.7174C119.711 75.0897 119.516 75.4339 119.259 75.729C119.022 75.9953 118.731 76.2075 118.405 76.3512C118.078 76.4951 117.725 76.5685 117.368 76.5668C117.011 76.5685 116.658 76.4951 116.331 76.3512C116.005 76.2075 115.714 75.9953 115.477 75.729C115.22 75.4339 115.026 75.0897 114.906 74.7174C114.76 74.2695 114.69 73.8 114.698 73.3293ZM113.206 73.3293C113.2 73.9259 113.29 74.5196 113.471 75.0881C113.637 75.6102 113.908 76.0929 114.267 76.5064C114.628 76.9152 115.076 77.2382 115.578 77.4519C116.145 77.6877 116.755 77.8034 117.369 77.7916C117.985 77.8045 118.597 77.6889 119.165 77.4519C119.664 77.2367 120.109 76.9138 120.468 76.5064C120.827 76.0929 121.098 75.6102 121.264 75.0881C121.445 74.5196 121.534 73.9259 121.529 73.3293C121.534 72.73 121.444 72.1337 121.264 71.5623C121.099 71.0371 120.828 70.5515 120.468 70.1358C120.108 69.7276 119.663 69.4023 119.165 69.1821C118.598 68.9395 117.986 68.8206 117.369 68.8335C116.754 68.8218 116.143 68.9406 115.578 69.1821C115.076 69.4007 114.629 69.7262 114.267 70.1358C113.906 70.5515 113.635 71.0371 113.471 71.5623C113.29 72.134 113.201 72.7297 113.206 73.3293Z" fill="#45A1EF"/>
<path d="M97.8085 77.5596H84.1725C85.8156 77.1104 87.4117 76.5039 88.9386 75.7486C89.0268 75.7771 89.1231 75.8041 89.2235 75.8302C92.0427 76.3943 94.9115 76.6731 97.7865 76.6623H97.8102V77.5604L97.8085 77.5596ZM78.4168 75.5265C75.6736 75.5951 72.9551 74.9942 70.4964 73.7758C67.8868 72.3681 65.6852 70.3097 64.1055 67.8005C64.1153 60.5448 64.1055 44.6707 64.1055 39.4547V38.296C65.143 36.7295 66.4613 35.3684 67.9938 34.2811C69.4114 33.2908 70.9928 32.5586 72.6651 32.1182H81.7425C83.4219 32.5327 85.0241 33.2136 86.4882 34.135C86.5004 39.9323 86.4882 70.9335 86.4882 71.2348C86.338 72.2566 86.5092 73.2998 86.9781 74.22C85.6385 74.6482 84.2663 74.9663 82.875 75.1713C81.3997 75.3994 79.9096 75.5181 78.4168 75.5265ZM74.7946 57.9278C74.335 57.9196 73.878 57.9991 73.4482 58.1622C73.0799 58.3044 72.7445 58.5202 72.4626 58.7966C72.1995 59.0583 71.9935 59.3716 71.8576 59.7168C71.7212 60.0618 71.6516 60.4295 71.6526 60.8004C71.6494 61.119 71.6926 61.4365 71.7808 61.7426C71.8656 62.0224 71.9835 62.291 72.1319 62.5428C72.2814 62.7952 72.4488 63.0483 72.63 63.2949C72.8113 63.5415 73.0105 63.8158 73.1959 64.0755C72.7633 64.3036 72.343 64.5543 71.9368 64.8267C71.5551 65.0808 71.2074 65.3826 70.9023 65.7249C70.6089 66.0583 70.3717 66.4372 70.2 66.8468C70.0165 67.3055 69.9265 67.7964 69.9355 68.2904C69.9454 68.6523 69.9944 69.012 70.0816 69.3633C70.193 69.8196 70.4028 70.246 70.6965 70.6126C71.0561 71.0528 71.5105 71.4062 72.0258 71.6463C72.738 71.9601 73.5124 72.107 74.29 72.0758C75.0611 72.0738 75.8229 71.9068 76.5241 71.5859C77.2249 71.2778 77.819 70.7693 78.2314 70.1243L79.7142 71.8611H81.8805L79.1672 68.7199C79.3043 68.4202 79.4293 68.1418 79.5387 67.8903C79.642 67.6512 79.7301 67.4057 79.8024 67.1554C79.8779 66.8894 79.9365 66.6188 79.978 66.3454C80.0237 66.0458 80.0662 65.6881 80.1045 65.2839H78.5213C78.4766 66.0239 78.3253 66.7535 78.0722 67.4502L75.5557 64.3874C75.8964 64.1916 76.2237 63.9734 76.5355 63.7342C76.8444 63.4963 77.1256 63.2246 77.3741 62.9242C77.6192 62.6281 77.8168 62.2956 77.9595 61.9386C78.1046 61.5689 78.1775 61.1747 78.1743 60.7775C78.1828 60.3477 78.0858 59.9224 77.8917 59.5388C77.709 59.1888 77.4528 58.8824 77.1405 58.6407C76.8167 58.3947 76.449 58.2126 76.057 58.1042C75.6465 57.987 75.2216 57.9277 74.7946 57.9278ZM74.3456 70.6314C74.0092 70.6317 73.6755 70.5722 73.36 70.4558C73.0527 70.3446 72.7661 70.1832 72.5116 69.9782C72.2641 69.7749 72.0614 69.5224 71.9164 69.2368C71.7661 68.9371 71.6894 68.606 71.6927 68.2708C71.6842 67.9002 71.7503 67.5318 71.887 67.1873C72.0158 66.8839 72.1938 66.6039 72.4137 66.3585C72.6414 66.1054 72.9004 65.8824 73.1845 65.6946C73.4743 65.5011 73.7862 65.3109 74.112 65.1288L77.3128 68.973C76.9891 69.4654 76.5588 69.8787 76.0537 70.1823C75.5362 70.4855 74.9453 70.6409 74.3456 70.6314ZM74.6575 63.2941L74.268 62.8041L74.1863 62.707C74.0332 62.5159 73.8899 62.3173 73.7568 62.1117C73.6306 61.9173 73.5228 61.7115 73.4351 61.4969C73.3523 61.2992 73.3091 61.0873 73.3078 60.873C73.2919 60.6586 73.3299 60.4435 73.4185 60.2476C73.5071 60.0516 73.6433 59.8809 73.8148 59.7511C74.1316 59.5182 74.5141 59.3918 74.9073 59.3902C75.1223 59.3792 75.3371 59.4124 75.5387 59.4879C75.7402 59.5633 75.9242 59.6793 76.079 59.8287C76.2169 59.9652 76.3259 60.1279 76.3997 60.3073C76.4735 60.4867 76.5105 60.6791 76.5085 60.873C76.5124 61.1529 76.4523 61.4299 76.333 61.683C76.2169 61.9221 76.0655 62.1423 75.8839 62.3363C75.7009 62.5322 75.4981 62.7087 75.2789 62.8629C75.0551 63.0213 74.8453 63.1659 74.655 63.2924L74.6575 63.2941ZM121.532 52.1893H120.22C119.963 51.4152 119.654 50.6591 119.297 49.9258C117.126 45.393 113.818 41.4997 109.695 38.6251C106.616 36.5099 103.171 34.9852 99.5347 34.1285L99.5779 32.1182H121.533V52.1868L121.532 52.1893ZM95.8505 33.445C94.0582 33.2117 92.2525 33.0963 90.4451 33.0996C89.9208 33.0996 89.3721 33.1094 88.812 33.129C88.0371 32.7714 87.2875 32.4448 86.5225 32.1182H96.685C96.5205 32.6231 96.2329 33.0791 95.848 33.445H95.8505Z" fill="#45A1EF"/>
<path d="M101.664 43.4175C101.797 44.9129 101.565 46.4183 100.989 47.8045C100.412 49.1908 99.5084 50.4166 98.3546 51.377C94.4164 54.5092 86.2617 53.9809 86.2617 53.9809V55.1698C86.2617 55.1698 94.0416 54.0855 98.1014 57.568C99.296 58.6255 100.237 59.939 100.853 61.4106C101.469 62.8822 101.745 64.474 101.661 66.0672H103.247V43.4175H101.664Z" fill="#45A1EF"/>
</g>
<defs>
<clipPath id="clip0_514_9688">
<rect width="87.3686" height="48.9917" fill="white" transform="translate(34.1641 29.5044)"/>
</clipPath>
</defs>
</svg>
