<svg width="130" height="32" fill="none" xmlns="http://www.w3.org/2000/svg">
    <g clip-path="url(#clip0)" fill="#fff">
        <path d="M5.44 9.327l1.684-4.422 1.71 4.422H5.441zM8.33.595H5.917L0 14.785h3.337l1.15-2.771h5.245l1.15 2.77h3.337L8.329.595zm43.217 4.45c-1.178-1.036-3.057-.98-3.954-.672-.168.056-.926.308-1.543.896l-.14-.84h-2.888v10.384h3.169V7.62c.252-.224.56-.42.869-.616.337-.196 1.122-.42 1.795-.056.56.308.813 1.036.813 1.931v5.878h3.17V8.683c.027-2.239-.814-3.218-1.29-3.638zm-33.935-.644h-2.917v10.383h3.17V7.592c.252-.224.532-.42.84-.588.365-.168 1.235-.476 1.88.056.505.42.505 1.371.505 1.651v6.045h3.14V8.571a4.91 4.91 0 00-.111-1.12c.28-.195.617-.335.925-.475.73-.336 1.543-.168 1.823.028.589.392.645 1.315.645 1.735v6.045h3.17V8.6c0-1.147-.17-2.575-1.179-3.498-1.037-.924-2.608-.952-2.945-.952-1.963.028-3.421 1.064-3.421 1.064-.701-.728-2.44-1.372-3.842-.896-.169.056-.926.308-1.543.896l-.14-.812zm24.036 0h-3.17v7.193a6.163 6.163 0 01-.841.532c-.309.168-1.122.364-1.767.112-.729-.28-.813-1.428-.813-1.931V4.428h-3.17v6.13c0 1.147.197 2.406 1.01 3.302.814.896 2.076 1.231 3.254 1.147.532-.028 1.065-.196 1.57-.42a3.64 3.64 0 00.926-.643l.14.895h2.917V4.401m18.649 7.249c-.196.252-.477.42-.785.532-1.094.447-2.496-.056-2.804-1.931-.113-.672-.113-1.316.14-1.96.224-.587.841-1.51 2.215-1.51.365 0 .785.055 1.206.223v4.646h.028zm0-11.055v3.75a5.893 5.893 0 00-1.57-.196c-2.048 0-3.17.952-3.618 1.428-1.01 1.007-1.543 2.435-1.543 3.834-.028 3.414 1.851 4.758 2.777 5.178.617.28 1.318.447 1.991.391.589-.028 1.486-.28 2.103-.84l.085.644h2.888V.595h-3.113zm8.19 1.455c0 .896-.617 1.708-1.851 1.708S64.84 2.946 64.84 2.05c0-.895.701-1.679 1.85-1.679 1.179 0 1.852.812 1.852 1.68zm-.281 2.351h-3.14v10.384h3.14V4.4zm7.825-2.379h-1.711v12.762h1.71V2.022zm54.885 15.421H.112v2.659h130.86v-2.659zm-91.007 7.529h.757l-.393-1.064-.364 1.064zm-1.403 1.343l1.375-3.498h.87l1.373 3.498h-1.01l-.224-.616H39.77l-.225.616h-.981zm10.321 0V22.79h2.496v.811h-1.57v.588h1.29v.728h-1.29v.587h1.682v.812h-2.608zm3.87 0V23.6h-.981v-.811h2.888v.811h-.953v2.715h-.954zm3.45 0V22.79h.954l.87 2.099.84-2.1h.982v3.527h-.925V24.58l-.702 1.735h-.392l-.73-1.735v1.735h-.897zm5.469-1.343h.757l-.393-1.064-.364 1.064zm-1.402 1.343l1.374-3.498h.87l1.373 3.498h-1.01l-.224-.616h-1.178l-.224.616h-.981zm4.038 0V22.79h.953l1.15 1.875V22.79h.925v3.526h-.84l-1.263-1.987v1.987h-.925zm4.88-1.343h.758l-.393-1.064-.365 1.064zm-1.402 1.343l1.374-3.498h.87l1.374 3.498h-1.01l-.224-.616h-1.178l-.224.616h-.982zm7.432 0V22.79h2.496v.811h-1.57v.588h1.29v.728h-1.29v.587h1.682v.812h-2.608zm3.197 0V22.79h.982l.869 2.099.813-2.1h.982v3.527h-.898V24.58l-.7 1.735h-.393l-.73-1.735v1.735h-.925zm4.431 0V22.79h2.496v.811h-1.543v.588h1.262v.728H83.8v.587h1.655v.812h-2.608zm3.197 0V22.79h.953l1.15 1.875V22.79h.926v3.526h-.87l-1.233-1.987v1.987h-.926zm4.487 0V23.6h-.981v-.811h2.888v.811h-.953v2.715h-.954zm-47.452-1.063a.686.686 0 00.308.252c.14.083.309.111.477.111.14 0 .337-.028.393-.167.084-.14 0-.308-.112-.364-.14-.084-.28-.112-.421-.168-.337-.112-.673-.196-.925-.42a.973.973 0 01-.309-.896c.084-.503.533-.783 1.01-.84.476-.083 1.065 0 1.458.365.084.084.14.14.196.224l-.617.475c-.028-.028-.056-.084-.112-.14a.773.773 0 00-.42-.224c-.14-.028-.337-.028-.45.056-.111.056-.168.224-.083.364.084.112.252.168.392.224.337.112.673.196.954.392.28.196.42.476.42.812.029 1.091-1.43 1.315-2.215.923a1.477 1.477 0 01-.561-.448l.617-.531zm3.085 0a.685.685 0 00.308.252c.14.083.309.111.477.111.14 0 .337-.028.393-.167.084-.14 0-.28-.112-.364-.14-.084-.28-.112-.421-.168-.337-.112-.673-.196-.926-.42a.973.973 0 01-.308-.896c.084-.503.533-.783 1.01-.84.476-.083 1.065 0 1.458.365.084.084.14.14.196.224l-.617.475c-.028-.028-.056-.084-.112-.14a.773.773 0 00-.42-.224c-.14-.028-.337-.028-.45.056-.111.056-.168.224-.084.364.085.112.253.168.393.224.337.112.673.196.954.392.28.196.42.476.42.812.028 1.091-1.43 1.315-2.215.923a1.476 1.476 0 01-.561-.448l.617-.531zm26.98-.168v-.7h1.374v1.791c-.477.168-.954.196-1.15.224-.617.028-1.178-.112-1.542-.588-.225-.308-.337-.7-.365-1.063a2.318 2.318 0 01.196-1.148 1.506 1.506 0 011.178-.811c.505-.056 1.094.028 1.43.448.085.112.14.224.197.335l-.785.392a.867.867 0 00-.225-.308.595.595 0 00-.757.056c-.196.196-.252.448-.28.728-.056.896.392 1.12.532 1.175.169.057.421.057.645.029v-.504h-.448m8.189-10.383l5.02-10.468h3.534l4.796 10.468h-2.945l-3.73-8.453-2.047 4.338h3.645s-.28.812-.729 1.288c-.449.476-.729.531-1.85.531h-1.908l-1.037 2.323h-2.749v-.027zm36.29 0l5.02-10.468h3.534l4.796 10.468h-2.945l-3.73-8.453-2.019 4.31h3.646s-.281.812-.73 1.288c-.448.476-.729.532-1.851.532h-1.907l-1.037 2.323h-2.777zm-12.676-2.351v1.847s-2.216 1.007-5.272.615c-3.058-.363-5.217-2.49-5.217-5.093 0-2.603 1.318-3.862 2.664-4.674 0 0 2.076-1.455 5.834-.728 0 0 1.29.252 2.103.504v2.211s-1.57-.84-3.786-.84-3.814 1.344-3.814 3.247c0 1.903 1.234 3.414 4.038 3.414 0 0 .814.028 1.851-.196.982-.195 1.599-.307 1.599-.307zm11.975-2.351s-.477-.784-1.486-1.008c0 0 1.234-.504 1.234-1.903 0-1.427-1.346-2.743-3.422-2.77h-6.759v10.41h7.18s2.664.028 3.478-2.043c.028-.056.617-1.259-.225-2.686zm-2.86 2.603s-.617.307-1.291.307h-3.645V5.997h3s1.767-.028 2.02 1.119c0 0 .196.812-.786 1.231 0 0-.28.112-.645.168-.364.056-1.121.028-1.121.028s-.505-.028-.926.448c-.393.476-.617 1.176-.617 1.176h2.636c.028 0 1.739 0 2.048 1.12 0 0 .252.895-.673 1.37z"/>
    </g>
    <defs>
        <clipPath id="clip0">
            <path fill="#fff" transform="translate(0 .371)" d="M0 0h131v26H0z"/>
        </clipPath>
    </defs>
</svg>