<svg width="77" height="48" viewBox="0 0 77 48" fill="none" xmlns="http://www.w3.org/2000/svg">
<path d="M7.56629 23.6754C7.96191 23.8609 8.33281 24.17 8.68516 24.5903C9.03751 25.0168 9.21059 25.5361 9.21059 26.1604C9.21059 26.9826 8.92006 27.6749 8.34517 28.256C7.77028 28.8309 7.07176 29.1214 6.26815 29.1214H0V18.7734H5.98379C6.76268 18.7734 7.42411 19.0454 7.97427 19.5956C8.52444 20.1457 8.79642 20.8072 8.79642 21.5861C8.79642 22.062 8.66661 22.4824 8.40698 22.8471C8.14118 23.2118 7.863 23.49 7.56629 23.6754ZM6.82449 21.753C6.82449 21.4068 6.70086 21.1163 6.45978 20.8752C6.2187 20.6341 5.92816 20.5105 5.59435 20.5105H1.8483V22.9522H5.59435C5.94052 22.9522 6.23106 22.8347 6.46596 22.606C6.70704 22.3711 6.82449 22.0868 6.82449 21.753ZM5.90962 27.3906C6.29288 27.3906 6.6205 27.2546 6.89249 26.9826C7.16448 26.7106 7.30048 26.383 7.30048 25.9997C7.30048 25.6165 7.16448 25.2888 6.89249 25.023C6.6205 24.7572 6.29288 24.6212 5.90962 24.6212H1.85448V27.3906H5.90962Z" fill="#02283F"/>
<path d="M18.328 25.5732L20.9922 29.1276H18.7421L16.356 25.9441H13.2343V29.1276H11.3242V18.7734H16.7578C17.7531 18.7734 18.6062 19.1258 19.317 19.8243C20.0279 20.5228 20.3803 21.3697 20.3803 22.3588C20.3803 23.0573 20.1948 23.694 19.8177 24.2689C19.4468 24.8376 18.9523 25.2765 18.328 25.5732ZM16.7022 24.0896C17.1967 24.0896 17.6171 23.9227 17.9633 23.5889C18.3094 23.2551 18.4825 22.8409 18.4825 22.3588C18.4825 21.8766 18.3094 21.4624 17.9633 21.1224C17.6171 20.7825 17.1967 20.6094 16.7022 20.6094H13.2405V24.0896H16.7022Z" fill="#02283F"/>
<path d="M43.9399 18.7734L39.452 23.5085L44.4282 29.1214H42.0421L38.2095 24.8128L36.8496 26.2655V29.1214H34.9395V18.7734H36.8496V23.7496L41.56 18.7734H43.9399Z" fill="#02283F"/>
<path d="M53.6498 18.7982H55.5476V24.5842C55.5476 25.9194 55.0716 27.0568 54.1258 28.0026C53.18 28.9484 52.0364 29.4244 50.6888 29.4244C49.3474 29.4244 48.2038 28.9484 47.2518 28.0026C46.3061 27.0568 45.8301 25.9132 45.8301 24.5842V18.7982H47.7402V24.5842C47.7402 25.394 48.0307 26.0863 48.6056 26.655C49.1805 27.2299 49.879 27.5143 50.6826 27.5143C51.4986 27.5143 52.1971 27.2299 52.7782 26.655C53.3531 26.0801 53.6436 25.394 53.6436 24.5842V18.7982H53.6498Z" fill="#02283F"/>
<path d="M62.2962 23.1006C62.7413 23.2366 63.0998 23.3603 63.3718 23.453C63.6438 23.5519 63.9714 23.7003 64.3485 23.8919C64.7256 24.0835 65.0223 24.2813 65.2387 24.4853C65.4488 24.6893 65.6343 24.9489 65.795 25.2642C65.9557 25.5795 66.0299 25.9256 66.0299 26.3027C66.0299 27.0321 65.8136 27.6379 65.3808 28.1077C64.9481 28.5837 64.4165 28.9113 63.7798 29.0906C63.1493 29.276 62.4322 29.3626 61.6348 29.3626C60.145 29.3626 58.7356 28.9793 57.4004 28.2066L58.3647 26.6798C59.5207 27.3103 60.6334 27.6256 61.709 27.6256C63.2667 27.6256 64.0456 27.2238 64.0456 26.414C64.0456 26.1976 63.9838 25.9998 63.8602 25.8267C63.7365 25.6536 63.5449 25.4991 63.2729 25.3693C63.0009 25.2395 62.7598 25.1282 62.5249 25.0417C62.29 24.9551 61.9686 24.85 61.5544 24.7264C61.5359 24.714 61.5173 24.714 61.505 24.714C61.4926 24.714 61.4741 24.7079 61.4617 24.7017C61.4493 24.6893 61.4308 24.6893 61.4123 24.6893C60.9363 24.541 60.5716 24.4235 60.3119 24.337C60.0523 24.2504 59.7247 24.1082 59.3291 23.9104C58.9334 23.7126 58.6305 23.5148 58.4204 23.3108C58.2102 23.1068 58.0186 22.8472 57.8578 22.5196C57.6971 22.192 57.6106 21.8272 57.6106 21.4254C57.6106 20.5847 57.9567 19.9109 58.6491 19.3979C59.3971 18.8539 60.4603 18.5819 61.8326 18.5819C63.174 18.5819 64.5092 18.959 65.8321 19.7193L64.8987 21.1967C63.7922 20.5847 62.7413 20.2818 61.7461 20.2818C61.0475 20.2818 60.5097 20.3807 60.145 20.5786C59.7803 20.7764 59.5949 21.036 59.5949 21.3636C59.5949 21.58 59.6567 21.7716 59.7741 21.9385C59.8916 22.1054 60.077 22.2538 60.3305 22.3836C60.5839 22.5134 60.8312 22.6185 61.0723 22.7112C61.3133 22.7977 61.6286 22.9028 62.0119 23.0203C62.1293 23.0512 62.2282 23.0759 62.2962 23.1006Z" fill="#02283F"/>
<path d="M74.272 23.9969C74.272 27.2361 73.6353 30.3825 72.3866 33.3435C71.175 36.1994 69.4441 38.7709 67.2435 40.9715C65.0367 43.1784 62.4713 44.9092 59.6154 46.1146C56.6544 47.3633 53.5141 48 50.2688 48C47.0296 48 43.8832 47.3633 40.9222 46.1146C38.0663 44.903 35.4948 43.1722 33.2941 40.9715C31.0873 38.7647 29.3564 36.1994 28.151 33.3435C27.6194 32.0824 27.1929 30.7905 26.89 29.4676C27.1063 29.4923 27.335 29.5047 27.5576 29.5047C27.7616 29.5047 27.9656 29.4923 28.1634 29.4738C30.6175 39.3952 39.5993 46.7699 50.2688 46.7699C62.8236 46.7699 73.0357 36.5579 73.0357 24.0031C73.0357 11.4483 62.8236 1.23632 50.2688 1.23632C39.5684 1.23632 30.568 8.6604 28.1448 18.6251C27.9532 18.6066 27.7616 18.5942 27.5576 18.5942C27.3227 18.5942 27.0878 18.6066 26.8652 18.6313C27.1743 17.2775 27.607 15.9485 28.151 14.6565C29.3626 11.8006 31.0935 9.2291 33.2941 7.02846C35.5009 4.82164 38.0663 3.09079 40.9222 1.88538C43.8832 0.630522 47.0296 0 50.2688 0C53.508 0 56.6544 0.636703 59.6154 1.88538C62.4713 3.09697 65.0428 4.82164 67.2435 7.02846C69.4503 9.23529 71.1812 11.8006 72.3866 14.6565C73.6353 17.6175 74.272 20.7578 74.272 23.9969Z" fill="#475B80"/>
<path d="M31.3463 20.1953C30.419 19.268 29.3249 18.7488 28.0762 18.6251C27.8846 18.6066 27.693 18.5942 27.489 18.5942C27.2541 18.5942 27.0192 18.6066 26.7966 18.6313C25.5912 18.7735 24.5403 19.2928 23.644 20.1891C22.5808 21.2523 22.043 22.5381 22.043 24.0402C22.043 25.5423 22.5746 26.8281 23.644 27.8975C24.5465 28.8062 25.6098 29.3255 26.8214 29.4676C27.0377 29.4924 27.2664 29.5047 27.489 29.5047C27.693 29.5047 27.897 29.4924 28.0948 29.4738C29.3373 29.3502 30.419 28.8248 31.3463 27.8975C32.4157 26.8281 32.9535 25.5423 32.9535 24.0402C32.9535 22.5443 32.4219 21.2585 31.3463 20.1953ZM29.9987 26.5499C29.3002 27.2423 28.4657 27.5946 27.489 27.5946C26.5123 27.5946 25.6778 27.2485 24.9854 26.5499C24.2931 25.8514 23.9469 25.0169 23.9469 24.0402C23.9469 23.0635 24.2931 22.229 24.9854 21.5367C25.6778 20.8443 26.5123 20.4982 27.489 20.4982C28.4657 20.4982 29.3002 20.8443 29.9987 21.5367C30.691 22.229 31.0434 23.0635 31.0434 24.0402C31.0434 25.0169 30.6972 25.8576 29.9987 26.5499Z" fill="#475B80"/>
<path d="M73.4072 26.9641C75.1142 26.9641 76.498 25.5803 76.498 23.8733C76.498 22.1663 75.1142 20.7825 73.4072 20.7825C71.7002 20.7825 70.3164 22.1663 70.3164 23.8733C70.3164 25.5803 71.7002 26.9641 73.4072 26.9641Z" fill="#475B80"/>
</svg>
