<svg width="243" height="168" viewBox="0 0 243 168" fill="none" xmlns="http://www.w3.org/2000/svg">
<rect width="243" height="168" rx="16" fill="#001830"/>
<path d="M33.3598 89.3242V82.8396C31.1841 83.1809 28.8385 83.8976 28.8385 83.8976V80.1092C31.864 79.2901 34.6176 79.0171 36.8612 79.0171C38.9008 79.0512 42.0283 79.2901 45.0538 80.1092V83.8976C45.0538 83.8976 42.7082 83.1809 40.5326 82.8396V89.3242H33.3598ZM69.6997 79.8703H76.7705V76.8328H59.4674V79.8703H66.5722V90.7577H69.6997V79.8703ZM93.1218 83.7952C93.1218 86.6962 91.1501 88.3686 87.7847 88.3686C85.3371 88.3686 82.4136 87.2082 82.4136 83.7952C82.4136 80.6553 85.0992 79.256 87.7507 79.256C91.1161 79.256 93.1218 80.9625 93.1218 83.7952ZM96.5552 83.7952C96.5552 79.3242 93.1218 76.4573 87.7847 76.4573C83.7394 76.4573 79.0142 78.3686 79.0142 83.7952C79.0142 86.6962 80.5779 88.4027 81.8697 89.3584C83.4674 90.5188 85.6091 91.1672 87.7847 91.1672C90.0963 91.1672 92.272 90.4846 93.8697 89.2901C95.6374 87.9249 96.5552 86.0137 96.5552 83.7952ZM114.878 90.7577H117.938V76.8328H114.232L108.997 83.0444L103.83 76.8328H100.091V90.7577H103.15V80.7918L103.354 81.0307L108.963 87.7201L114.606 81.0307L114.81 80.7918V90.7577H114.878ZM142.04 76.8328H124.737V79.8703H131.841V90.7577H134.969V79.8703H142.04V76.8328ZM153.36 84.7509H148.023L150.674 79.5631L153.36 84.7509ZM156.453 90.7577H159.853L152.544 76.7986H148.805L141.564 90.7577H144.929L146.595 87.4812H154.754L156.453 90.7577ZM163.49 90.7577H166.822V76.8328H163.49V90.7577ZM171.921 90.7577H185.076V87.8908H175.048V76.8328H171.921V90.7577ZM200.986 83.7952C200.986 86.6962 199.014 88.3686 195.649 88.3686C193.201 88.3686 190.278 87.2082 190.278 83.7952C190.278 80.6553 192.963 79.256 195.615 79.256C199.014 79.256 200.986 80.9625 200.986 83.7952ZM204.419 83.7952C204.419 79.3242 200.986 76.4573 195.649 76.4573C191.603 76.4573 186.878 78.3686 186.878 83.7952C186.878 86.6962 188.442 88.4027 189.734 89.3584C191.331 90.5188 193.473 91.1672 195.649 91.1672C197.994 91.1672 200.136 90.4846 201.734 89.2901C203.501 87.9249 204.419 86.0137 204.419 83.7952ZM220.261 81.5427C220.261 82.7372 219.411 83.5563 218.221 83.5563H211.218V79.5973H218.187C219.547 79.5973 220.261 80.587 220.261 81.5427ZM223.49 81.6109C223.49 78.8464 221.416 76.8328 218.595 76.8328H208.023V90.7577H211.286V86.2867H217.099L220.363 90.7577H224L220.601 86.0137L220.771 85.9454C222.47 85.3652 223.49 83.7952 223.49 81.6109ZM52.0907 84C52.0907 86.1843 50.4589 88.198 47.8074 89.6997C45.0198 91.2696 41.1445 92.2594 36.8612 92.2594C32.5779 92.2594 28.7026 91.2696 25.915 89.6997C23.2635 88.198 21.6317 86.1843 21.6317 84C21.6317 81.8157 23.2635 79.802 25.915 78.3003C28.7026 76.7304 32.5779 75.7406 36.8612 75.7406C41.1445 75.7406 45.0198 76.7304 47.8074 78.3003C50.4589 79.802 52.0907 81.8157 52.0907 84ZM48.5892 76.7986C45.5637 75.0921 41.4164 74 36.8612 74C32.3059 74 28.1586 75.058 25.1331 76.7986C21.9717 78.6075 20 81.1331 20 84C20 86.8669 21.9717 89.3925 25.1331 91.2014C28.1586 92.9079 32.3059 94 36.8612 94C41.4164 94 45.5637 92.942 48.5892 91.2355C51.7507 89.4266 53.7224 86.901 53.7224 84.0341C53.7224 81.1331 51.7847 78.6075 48.5892 76.7986Z" fill="white"/>
</svg>
