<svg width="50" height="50" viewBox="0 0 50 50" fill="none" xmlns="http://www.w3.org/2000/svg">
<path d="M21.6934 10.8352L25.9882 6.54034C26.4764 6.05219 27.2674 6.05258 27.7556 6.54074L35.357 14.1421L42.9584 21.7435C43.4465 22.2317 43.4465 23.0231 42.9584 23.5113L38.6652 27.8044C38.1771 28.2926 38.1771 29.0841 38.6652 29.5722L41.4042 32.3112C42.177 33.084 41.6557 34.4066 40.5634 34.4443L15.4823 35.3092C14.7584 35.3341 14.165 34.7407 14.1899 34.0168L15.0548 8.93573C15.0925 7.8434 16.4151 7.32208 17.1879 8.09493L19.9269 10.8339C20.4151 11.322 21.2052 11.3233 21.6934 10.8352Z" fill="#EA411B" stroke="white" stroke-width="1.25"/>
</svg>
