<svg width="40" height="32" viewBox="0 0 40 32" fill="none" xmlns="http://www.w3.org/2000/svg">
<path d="M32 23.6768L32 29.7506C32 30.4409 31.4404 31 30.75 31L20 31L9.25 31C8.55964 31 8 30.4404 8 29.75L8 23.6786C8 22.9882 7.44036 22.4286 6.75 22.4286L2.87652 22.4286C1.78355 22.4286 1.21695 21.1247 1.9627 20.3257L19.0862 1.97909C19.5804 1.44962 20.4196 1.44962 20.9138 1.97909L38.0373 20.3257C38.7831 21.1247 38.2165 22.4286 37.1235 22.4286L33.25 22.4286C32.5596 22.4286 32 22.9864 32 23.6768Z" fill="#EA411B" stroke="white" stroke-width="1.25"/>
</svg>
