<svg width="1616" height="240" viewBox="0 0 1616 240" fill="none" xmlns="http://www.w3.org/2000/svg">
<g clip-path="url(#clip0_2061_7698)">
<g opacity="0.3">
<path d="M692.575 0.012207H230.857V239.959H692.575V0.012207Z" fill="#EF6C4F"/>
<path d="M923.435 0.012207H692.576V239.959H923.435V0.012207Z" fill="#EA411B"/>
<path d="M1616 0H1154.29V239.947H1616V0Z" fill="#02283F"/>
<path d="M1340.11 219.222C1312.76 191.051 1299.07 157.194 1299.04 117.648C1299.04 78.0544 1312.76 44.2448 1340.11 16.4963C1345.96 10.4675 1352.29 4.94974 1359.03 0H1256.91C1234.96 34.6264 1223.98 73.8424 1223.97 117.648C1223.97 163.325 1235.91 204.091 1259.79 239.947H1364.94C1355.97 233.975 1347.64 227.027 1340.11 219.222ZM1518.31 0C1524.99 4.95255 1531.25 10.4894 1537.01 16.549C1564.16 44.2975 1577.89 78.107 1577.89 117.701C1577.89 157.295 1564.16 191.104 1537.01 219.274C1529.63 227.118 1521.41 234.071 1512.5 240H1616V0H1518.31Z" fill="#475B80"/>
<path d="M230.872 0H0V239.947H230.872V0Z" fill="#F0F2F3"/>
<path d="M230.872 239.948H0C4.56206e-07 208.417 12.162 178.178 33.8104 155.882C55.4588 133.587 84.8203 121.061 115.436 121.061C146.051 121.061 175.413 133.587 197.061 155.882C218.71 178.178 230.872 208.417 230.872 239.948Z" fill="#02283F"/>
<path d="M1154.29 0.012207H923.436V239.959H1154.29V0.012207Z" fill="#F0BD51"/>
<path d="M692.562 0.012207H923.434C923.434 31.5429 911.272 61.7822 889.624 84.0777C867.975 106.373 838.614 118.899 807.998 118.899C777.383 118.899 748.021 106.373 726.373 84.0777C704.724 61.7822 692.562 31.5429 692.562 0.012207Z" fill="#F0F2F3"/>
<path d="M1154.29 239.961H923.436C923.756 208.649 936.058 178.731 957.67 156.706C979.283 134.681 1008.46 122.326 1038.86 122.326C1069.27 122.326 1098.45 134.681 1120.06 156.706C1141.67 178.731 1153.97 208.649 1154.29 239.961Z" fill="#02283F"/>
<path d="M467.398 150.745C475.04 138.334 478.265 123.577 476.525 108.99C474.785 94.4033 468.187 80.8895 457.855 70.7524C447.523 60.6153 434.097 54.4823 419.866 53.399C405.635 52.3157 391.48 56.349 379.813 64.8115C363.946 44.4792 349.776 22.8023 337.454 0.012207H308.477C323.551 29.9574 341.592 58.2164 362.312 84.3383C355.177 96.6931 352.327 111.176 354.229 125.417C356.13 139.658 362.669 152.811 372.776 162.725C382.884 172.638 395.959 178.723 409.863 179.984C423.766 181.245 437.674 177.607 449.308 169.666C489.103 199.955 533.243 223.667 580.134 239.946H692.589V237.64C611.282 230.156 533.462 200.127 467.398 150.745Z" fill="#02283F"/>
</g>
</g>
<defs>
<clipPath id="clip0_2061_7698">
<rect width="1616" height="240" fill="white"/>
</clipPath>
</defs>
</svg>
