<svg width="313" height="312" viewBox="0 0 313 312" fill="none" xmlns="http://www.w3.org/2000/svg">
<path opacity="0.5" d="M252.498 -0.00679823C132.09 -0.00679823 30.9269 84.8193 6.09557 197.991C3.27072 210.521 1.44437 223.257 0.63367 236.076C0.276118 241.476 0.103516 246.926 0.103516 252.388C0.103516 257.85 0.276118 263.287 0.63367 268.7C1.45466 281.591 3.28084 294.399 6.09557 307.007C6.46546 308.671 6.83537 310.348 7.24224 311.939H100.859C100.206 310.287 99.6263 308.634 98.9851 307.007C92.6389 289.499 89.4212 271.011 89.4792 252.388C89.4807 225.784 95.9926 199.585 108.447 176.077C120.901 152.568 138.919 132.464 160.928 117.52C182.938 102.575 208.27 93.2439 234.715 90.34C261.159 87.436 287.913 91.0477 312.641 100.86V7.24288C292.958 2.41627 272.764 -0.0178858 252.498 -0.00679823Z" fill="#032F4A"/>
<path opacity="0.5" d="M312.627 132.78V312H132.544C132.511 311.945 132.482 311.887 132.458 311.827C132.076 311.063 131.718 310.286 131.361 309.522C131.003 308.757 130.596 307.845 130.214 307.056C122.446 289.934 118.427 271.349 118.427 252.548C118.427 233.746 122.446 215.161 130.214 198.039C140.711 174.375 157.855 154.269 179.563 140.165C201.272 126.061 226.609 118.565 252.497 118.589C253.939 118.589 255.382 118.589 256.812 118.675C257.281 118.675 257.749 118.675 258.193 118.675C259.364 118.675 260.536 118.786 261.695 118.872C262.422 118.872 263.137 118.971 263.877 119.033C267.428 119.341 270.954 119.773 274.431 120.352C275.035 120.438 275.664 120.549 276.256 120.66C281.487 121.583 286.658 122.818 291.741 124.359L294.626 125.296L295.391 125.543L298.633 126.689C301.186 127.626 303.713 128.637 306.191 129.747C307.276 130.216 308.361 130.709 309.434 131.202L312.627 132.78Z" fill="#032F4A"/>
</svg>
