<svg width="258" height="258" viewBox="0 0 258 258" fill="none" xmlns="http://www.w3.org/2000/svg">
<path opacity="0.5" d="M0.67289 49.5518C0.67289 148.754 70.5558 232.1 163.803 252.567C174.128 254.883 184.62 256.384 195.181 257.055C199.632 257.351 204.132 257.499 208.62 257.499C213.108 257.499 217.596 257.351 222.059 257.055C232.68 256.376 243.233 254.876 253.622 252.567C255.003 252.259 256.372 251.951 257.74 251.618V174.485C256.372 175.016 255.016 175.533 253.622 176.027C239.196 181.252 223.964 183.902 208.62 183.856C186.703 183.854 165.119 178.488 145.751 168.227C126.384 157.967 109.822 143.122 97.5097 124.989C85.1979 106.857 77.5104 85.9866 75.1181 64.2C72.7258 42.4134 75.7014 20.3723 83.7852 0H6.65261C2.67054 16.2161 0.66277 32.8539 0.67289 49.5518Z" fill="#032F4A"/>
<path opacity="0.5" d="M110.07 0H257.739V148.372L257.591 148.446C256.962 148.766 256.358 149.062 255.692 149.358C255.026 149.654 254.311 149.987 253.621 150.295C239.513 156.69 224.201 159.998 208.711 159.998C193.221 159.998 177.91 156.69 163.801 150.295C144.306 141.647 127.741 127.523 116.121 109.638C104.501 91.7539 98.3255 70.8796 98.3448 49.5518C98.3448 48.3188 98.3448 47.1722 98.3448 45.9886C98.3448 45.6105 98.3448 45.2283 98.3448 44.8419C98.3448 43.8802 98.4434 42.9185 98.5051 41.9692C98.5051 41.365 98.5913 40.7363 98.6407 40.1691C98.8873 37.2471 99.2448 34.3373 99.7257 31.4769C99.7996 30.9714 99.886 30.4536 99.9846 29.9727C100.748 25.6608 101.774 21.3993 103.055 17.2118C103.314 16.4228 103.548 15.6213 103.819 14.8322C103.893 14.6349 103.955 14.4131 104.029 14.2035C104.337 13.3034 104.645 12.428 104.966 11.5403C105.742 9.43195 106.568 7.34829 107.432 5.30162C107.826 4.40157 108.233 3.51389 108.664 2.6385C109.096 1.76312 109.614 0.875386 110.07 0Z" fill="#032F4A"/>
</svg>
