<svg width="468" height="467" viewBox="0 0 468 467" fill="none" xmlns="http://www.w3.org/2000/svg">
<g opacity="0.35">
<path d="M143.265 342.38C128.368 329.98 116.334 315.007 107.496 297.929C98.999 281.424 93.7977 263.62 92.1006 245.075C90.3989 226.477 92.2587 208.053 97.6473 190.303C103.239 171.905 112.332 155.025 124.755 140.099C137.155 125.201 152.128 113.168 169.206 104.329C185.711 95.8325 203.515 90.6312 222.061 88.9341C240.658 87.2323 259.083 89.0921 276.832 94.4806C284.667 96.8629 292.241 99.8469 299.485 103.518C298.543 104.418 297.611 105.423 296.759 106.446C295.978 107.384 295.254 108.37 294.582 109.351C239.557 82.6579 171.256 95.7369 130.413 144.808C82.3523 202.55 90.2273 288.61 147.969 336.67C205.712 384.73 291.771 376.855 339.831 319.113C380.793 269.9 381.102 200.085 344.548 150.795C345.367 149.984 346.158 149.15 346.938 148.212C347.838 147.132 348.68 146.004 349.418 144.886C354.461 151.49 358.917 158.568 362.777 166.015C371.274 182.52 376.475 200.325 378.172 218.87C379.874 237.467 378.014 255.892 372.625 273.641C367.062 292.063 357.917 308.948 345.517 323.845C333.118 338.743 318.145 350.777 301.067 359.615C284.562 368.112 266.786 373.337 248.212 375.01C229.614 376.712 211.19 374.852 193.441 369.464C175.043 363.872 158.163 354.779 143.265 342.38Z" fill="#E1E1E1"/>
<path d="M103.376 142.655C106.413 133.222 116.521 128.037 125.955 131.073C135.388 134.11 140.573 144.219 137.537 153.652C134.5 163.085 124.391 168.271 114.958 165.234C105.525 162.197 100.339 152.088 103.376 142.655Z" fill="white" stroke="#E1E1E1" stroke-width="6"/>
</g>
</svg>
